<?xml version="1.0" encoding="UTF-8"?><svg id="Layer_1" xmlns="http://www.w3.org/2000/svg" xmlns:xlink="http://www.w3.org/1999/xlink" viewBox="0 0 421.94 411.26"><defs><style>.cls-1{fill:none;}.cls-2{clip-path:url(#clippath);}.cls-3{fill:#fff;}</style><clipPath id="clippath"><rect class="cls-1" width="421.94" height="411.26"/></clipPath></defs><g class="cls-2"><g><path class="cls-3" d="M145.04,145.93l-6.59-6.63,6.59,6.63Z"/><path class="cls-3" d="M171.41,172.46l-8.79-8.84,8.79,8.84Z"/><path class="cls-3" d="M276.9,145.93l.65-.65-.65,.65Z"/><path class="cls-3" d="M250.53,172.46l2.31-2.33-2.31,2.33Z"/><path class="cls-3" d="M197.78,225.53l6.15-6.19-6.15,6.19Z"/><path class="cls-3" d="M131.86,291.86l-1.55,1.56,1.55-1.56Z"/><path class="cls-3" d="M291.63,293.42l-1.55-1.56,1.55,1.56Z"/><path class="cls-3" d="M303.27,119.4l13.19-13.27L210.97,0,105.48,106.13l13.19,13.27L210.97,26.53l92.3,92.86Z"/><path class="cls-3" d="M210.97,79.6l65.93,66.33,.65-.65,12.54-12.61L210.97,53.07l-79.11,79.6,6.59,6.63,6.59,6.63,65.93-66.33Z"/><path class="cls-3" d="M210.97,106.13l-52.74,53.07,4.4,4.42,8.79,8.84,39.56-39.8,39.56,39.8,2.31-2.33,10.87-10.94-52.74-53.07Z"/><path class="cls-3" d="M210.97,159.2l-26.37,26.53,13.18,13.27,13.19-13.27,13.18,13.27,5.99-6.03,7.19-7.24-26.37-26.53Z"/><path class="cls-3" d="M171.41,172.46l-8.79-8.84-17.58-17.69-6.59-6.63-19.78-19.9-13.18-13.27L0,212.26l13.19,13.27,92.3-92.86,92.3,92.86,6.15-6.19,7.03-7.07-26.37-26.53-13.19-13.27Z"/><path class="cls-3" d="M171.41,252.06l13.19-13.27-79.11-79.6L26.37,238.79l13.19,13.27,65.93-66.33,65.93,66.33Z"/><path class="cls-3" d="M145.04,278.59l13.19-13.27-52.74-53.06-52.74,53.06,13.18,13.27,39.56-39.8,39.56,39.8Z"/><path class="cls-3" d="M105.48,265.33l-26.37,26.53,13.18,13.27,13.19-13.27,13.18,13.27,11.64-11.71,1.55-1.56-26.37-26.53Z"/><path class="cls-3" d="M277.55,145.28l-.65,.65-24.06,24.21-2.31,2.33-20.38,20.5-5.99,6.03-13.18,13.27,13.18,13.27,92.3-92.86,92.3,92.86,13.19-13.27-105.49-106.13-38.91,39.15Z"/><path class="cls-3" d="M237.34,238.79l13.18,13.27,65.93-66.33,65.93,66.33,13.19-13.27-79.11-79.6-79.11,79.6Z"/><path class="cls-3" d="M263.71,265.33l13.19,13.27,39.56-39.8,39.56,39.8,13.18-13.27-52.74-53.06-52.74,53.06Z"/><path class="cls-3" d="M303.27,305.13l13.18-13.27,13.19,13.27,13.18-13.27-26.37-26.53-26.37,26.53,1.55,1.56,11.64,11.71Z"/><path class="cls-3" d="M197.78,225.53l-65.93,66.33-1.55,1.56-24.82,24.97,13.19,13.27,92.3-92.86,92.3,92.86,13.19-13.27-24.82-24.97-1.55-1.56-79.11-79.6-7.03,7.07-6.15,6.19Z"/><path class="cls-3" d="M131.86,344.92l13.18,13.27,65.93-66.33,65.93,66.33,13.18-13.27-79.11-79.6-79.11,79.6Z"/><path class="cls-3" d="M158.23,371.46l13.19,13.27,39.56-39.8,39.56,39.8,13.19-13.27-52.74-53.07-52.74,53.07Z"/><path class="cls-3" d="M184.6,397.99l13.18,13.27,13.19-13.27,13.18,13.27,13.19-13.27-26.37-26.53-26.37,26.53Z"/></g></g></svg>