<?xml version="1.0" standalone="no"?>
<!DOCTYPE svg PUBLIC "-//W3C//DTD SVG 1.1//EN" "http://www.w3.org/Graphics/SVG/1.1/DTD/svg11.dtd" >
<svg xmlns="http://www.w3.org/2000/svg" xmlns:xlink="http://www.w3.org/1999/xlink" version="1.1">
<metadata>
Created by FontForge 20161116 at Sun Apr  3 00:41:07 2016
 By Jimmy Warting
Universidad Nacional de Colombia, Unidad de Medios de Comunicacion Unimedios, 2012-2015.
</metadata>
<defs>
<font id="AncizarSans-Regular" horiz-adv-x="441" >
  <font-face 
    font-family="Ancizar Sans"
    font-weight="400"
    font-stretch="normal"
    units-per-em="1000"
    panose-1="2 11 6 2 4 3 0 0 0 3"
    ascent="750"
    descent="-250"
    x-height="450"
    cap-height="612"
    bbox="-60 -248 1182 858"
    underline-thickness="0"
    underline-position="0"
    stemh="86"
    stemv="65"
    unicode-range="U+0020-FB04"
  />
<missing-glyph horiz-adv-x="600" 
d="M50 0v703h500v-703h-500zM300 397l170 256h-340zM100 608v-513l170 256zM330 351l170 -256v513zM130 50h340l-170 256z" />
    <glyph glyph-name="f_f" unicode="ff" horiz-adv-x="591" 
d="M182 500v-50h193v41c0 43 7 78 19 107c-34 12 -76 20 -114 20c-51 0 -98 -31 -98 -118zM375 0v389h-193v-389h-86v389h-66v51l61 10h5v7c0 147 89 226 218 226c48 0 90 -10 126 -22c34 29 79 42 130 42c17 0 38 -3 51 -6l-13 -68c-22 5 -43 7 -69 7
c-42 0 -78 -30 -78 -101v-85h119l-7 -61h-112v-389h-86z" />
    <glyph glyph-name="fi" unicode="fi" horiz-adv-x="528" 
d="M370 0v389h-193v-389h-86v389h-61v51l61 10v27c0 159 103 226 219 226c56 0 105 -11 145 -26l-24 -78c-37 16 -104 35 -154 35c-52 0 -100 -33 -100 -114v-70h193l86 12v-462h-86z" />
    <glyph glyph-name="fl" unicode="fl" horiz-adv-x="565" 
d="M458 -12c-50 0 -87 28 -87 86v545c-30 9 -64 15 -94 15c-52 0 -100 -33 -100 -114v-70h119l-7 -61h-112v-389h-86v389h-61v51l61 10v27c0 159 103 226 219 226c46 0 81 -6 114 -16l32 5v-602c0 -21 14 -32 34 -32c12 0 30 3 40 7l9 -61c-15 -7 -53 -16 -81 -16z" />
    <glyph glyph-name="f_f_i" unicode="ffi" horiz-adv-x="812" 
d="M182 500v-50h193v27c0 48 9 87 26 119c-36 13 -81 22 -121 22c-51 0 -98 -31 -98 -118zM375 0v389h-193v-389h-86v389h-66v51l61 10h5v7c0 147 89 226 218 226c53 0 99 -12 136 -25c40 31 90 45 144 45c56 0 105 -11 145 -26l-24 -78c-37 16 -104 35 -154 35
c-52 0 -100 -33 -100 -114v-70h193l86 12v-462h-86v389h-193v-389h-86z" />
    <glyph glyph-name="f_f_l" unicode="ffl" horiz-adv-x="848" 
d="M182 500v-50h193v27c0 48 9 87 26 119c-36 13 -81 22 -121 22c-51 0 -98 -31 -98 -118zM742 -12c-50 0 -87 28 -87 86v545c-30 9 -64 15 -94 15c-52 0 -100 -33 -100 -114v-70h119l-7 -61h-112v-389h-86v389h-193v-389h-86v389h-66v51l61 10h5v7c0 147 89 226 218 226
c53 0 99 -12 136 -25c40 31 90 45 144 45c46 0 81 -6 114 -16l32 5v-602c0 -21 14 -32 34 -32c12 0 30 3 40 7l9 -61c-15 -7 -53 -16 -81 -16z" />
    <glyph glyph-name=".notdef" horiz-adv-x="600" 
d="M50 0v703h500v-703h-500zM300 397l170 256h-340zM100 608v-513l170 256zM330 351l170 -256v513zM130 50h340l-170 256z" />
    <glyph glyph-name="space" unicode=" " horiz-adv-x="215" 
 />
    <glyph glyph-name="A" unicode="A" horiz-adv-x="563" 
d="M368 258l-92 264l-89 -264h181zM457 0l-66 190h-227l-64 -190h-90l221 612h103l219 -612h-96z" />
    <glyph glyph-name="Agrave" unicode="&#xc0;" horiz-adv-x="563" 
d="M363 661h-70l-148 128l89 17zM368 258l-92 264l-89 -264h181zM457 0l-66 190h-227l-64 -190h-90l221 612h103l219 -612h-96z" />
    <glyph glyph-name="Aacute" unicode="&#xc1;" horiz-adv-x="563" 
d="M219 661l129 145l89 -17l-148 -128h-70zM368 258l-92 264l-89 -264h181zM457 0l-66 190h-227l-64 -190h-90l221 612h103l219 -612h-96z" />
    <glyph glyph-name="Acircumflex" unicode="&#xc2;" horiz-adv-x="563" 
d="M363 661l-87 77l-87 -77h-67l124 145h60l124 -145h-67zM368 258l-92 264l-89 -264h181zM457 0l-66 190h-227l-64 -190h-90l221 612h103l219 -612h-96z" />
    <glyph glyph-name="Atilde" unicode="&#xc3;" horiz-adv-x="563" 
d="M403 781l33 -35c-21 -28 -58 -69 -100 -69c-36 0 -97 33 -123 33s-60 -30 -65 -35l-30 35c18 20 61 67 103 67s88 -30 117 -30c26 0 48 17 65 34zM368 258l-92 264l-89 -264h181zM457 0l-66 190h-227l-64 -190h-90l221 612h103l219 -612h-96z" />
    <glyph glyph-name="Adieresis" unicode="&#xc4;" horiz-adv-x="563" 
d="M318 745c0 20 33 54 50 54c16 0 56 -25 56 -45s-34 -54 -50 -54c-17 0 -56 26 -56 45zM139 745c0 20 33 54 50 54c16 0 56 -25 56 -45s-34 -54 -50 -54c-17 0 -56 26 -56 45zM368 258l-92 264l-89 -264h181zM457 0l-66 190h-227l-64 -190h-90l221 612h103l219 -612h-96z
" />
    <glyph glyph-name="Aring" unicode="&#xc5;" horiz-adv-x="563" 
d="M374 743c0 -49 -45 -89 -94 -89s-93 32 -93 89c0 50 45 90 94 90s93 -31 93 -90zM235 743c0 -27 21 -45 45 -45s46 18 46 45c0 29 -22 47 -46 47s-45 -18 -45 -47zM368 258l-92 264l-89 -264h181zM457 0l-66 190h-227l-64 -190h-90l221 612h103l219 -612h-96z" />
    <glyph glyph-name="Amacron" unicode="&#x100;" horiz-adv-x="563" 
d="M415 765v-15l-18 -46h-245v15l18 46h245zM368 258l-92 264l-89 -264h181zM457 0l-66 190h-227l-64 -190h-90l221 612h103l219 -612h-96z" />
    <glyph glyph-name="Abreve" unicode="&#x102;" horiz-adv-x="563" 
d="M282 727c55 0 83 39 93 89h50c0 -84 -68 -155 -148 -155c-90 0 -137 71 -137 155h50c10 -50 37 -89 92 -89zM368 258l-92 264l-89 -264h181zM457 0l-66 190h-227l-64 -190h-90l221 612h103l219 -612h-96z" />
    <glyph glyph-name="Aogonek" unicode="&#x104;" horiz-adv-x="563" 
d="M368 258l-92 264l-89 -264h181zM486 0h-29l-66 190h-227l-64 -190h-90l221 612h103l219 -612h-10c-53 -39 -93 -88 -93 -126c0 -27 21 -41 43 -41c16 0 32 8 41 13l14 -41c-18 -10 -41 -21 -74 -21c-54 0 -84 32 -84 81c0 55 54 107 96 135z" />
    <glyph glyph-name="Acaron" unicode="&#x1cd;" horiz-adv-x="563" 
d="M311 665h-60l-124 145h67l87 -77l87 77h67zM368 258l-92 264l-89 -264h181zM457 0l-66 190h-227l-64 -190h-90l221 612h103l219 -612h-96z" />
    <glyph glyph-name="B" unicode="B" horiz-adv-x="543" 
d="M255 341c76 0 117 37 117 97c0 68 -44 111 -130 111h-60v-206c24 -1 52 -2 73 -2zM280 65c79 0 131 30 131 101c0 73 -55 116 -152 116c-21 0 -51 -1 -77 -2v-213c31 -1 68 -2 98 -2zM90 0v612h181c118 0 190 -59 190 -145c0 -69 -40 -115 -91 -143
c63 -13 133 -55 133 -145c0 -108 -93 -179 -250 -179h-163z" />
    <glyph glyph-name="C" unicode="C" horiz-adv-x="546" 
d="M505 98l13 -69c-35 -20 -108 -41 -181 -41c-170 0 -292 106 -292 307c0 191 114 329 302 329c58 0 131 -13 164 -28l-24 -76c-37 17 -105 31 -165 31c-85 0 -183 -54 -183 -235c0 -186 105 -252 216 -252c52 0 109 14 150 34z" />
    <glyph glyph-name="Ccedilla" unicode="&#xc7;" horiz-adv-x="546" 
d="M409 -128c0 -43 -44 -92 -153 -102l-11 43c59 7 100 16 100 45c0 19 -24 32 -76 46l-3 5l38 80c-153 13 -259 118 -259 306c0 191 114 329 302 329c58 0 131 -13 164 -28l-24 -76c-37 17 -105 31 -165 31c-85 0 -183 -54 -183 -235c0 -186 105 -252 216 -252
c52 0 109 14 150 34l13 -69c-33 -19 -99 -38 -167 -41l-20 -42c46 -21 78 -35 78 -74z" />
    <glyph glyph-name="Cacute" unicode="&#x106;" horiz-adv-x="546" 
d="M245 661l129 145l89 -17l-148 -128h-70zM505 98l13 -69c-35 -20 -108 -41 -181 -41c-170 0 -292 106 -292 307c0 191 114 329 302 329c58 0 131 -13 164 -28l-24 -76c-37 17 -105 31 -165 31c-85 0 -183 -54 -183 -235c0 -186 105 -252 216 -252c52 0 109 14 150 34z" />
    <glyph glyph-name="Ccircumflex" unicode="&#x108;" horiz-adv-x="546" 
d="M424 661l-87 77l-87 -77h-67l124 145h60l124 -145h-67zM505 98l13 -69c-35 -20 -108 -41 -181 -41c-170 0 -292 106 -292 307c0 191 114 329 302 329c58 0 131 -13 164 -28l-24 -76c-37 17 -105 31 -165 31c-85 0 -183 -54 -183 -235c0 -186 105 -252 216 -252
c52 0 109 14 150 34z" />
    <glyph glyph-name="Cdotaccent" unicode="&#x10a;" horiz-adv-x="546" 
d="M268 740c0 22 37 60 56 60c18 0 62 -28 62 -51c0 -22 -38 -59 -56 -59c-19 0 -62 28 -62 50zM505 98l13 -69c-35 -20 -108 -41 -181 -41c-170 0 -292 106 -292 307c0 191 114 329 302 329c58 0 131 -13 164 -28l-24 -76c-37 17 -105 31 -165 31c-85 0 -183 -54 -183 -235
c0 -186 105 -252 216 -252c52 0 109 14 150 34z" />
    <glyph glyph-name="Ccaron" unicode="&#x10c;" horiz-adv-x="546" 
d="M357 665h-60l-124 145h67l87 -77l87 77h67zM505 98l13 -69c-35 -20 -108 -41 -181 -41c-170 0 -292 106 -292 307c0 191 114 329 302 329c58 0 131 -13 164 -28l-24 -76c-37 17 -105 31 -165 31c-85 0 -183 -54 -183 -235c0 -186 105 -252 216 -252c52 0 109 14 150 34z
" />
    <glyph glyph-name="D" unicode="D" horiz-adv-x="641" 
d="M90 612h211c178 0 295 -105 295 -284c0 -208 -143 -332 -340 -332c-59 0 -130 8 -166 14v602zM182 545v-471c31 -5 74 -8 109 -8c107 0 210 65 210 246c0 155 -98 233 -230 233h-89z" />
    <glyph glyph-name="Dcaron" unicode="&#x10e;" horiz-adv-x="641" 
d="M333 665h-60l-124 145h67l87 -77l87 77h67zM90 612h211c178 0 295 -105 295 -284c0 -208 -143 -332 -340 -332c-59 0 -130 8 -166 14v602zM182 545v-471c31 -5 74 -8 109 -8c107 0 210 65 210 246c0 155 -98 233 -230 233h-89z" />
    <glyph glyph-name="E" unicode="E" horiz-adv-x="499" 
d="M90 0v612h353l-10 -73l-251 4v-193h232l-10 -69l-222 3v-212l277 4l-10 -76h-359z" />
    <glyph glyph-name="Egrave" unicode="&#xc8;" horiz-adv-x="499" 
d="M377 661h-70l-148 128l89 17zM90 0v612h353l-10 -73l-251 4v-193h232l-10 -69l-222 3v-212l277 4l-10 -76h-359z" />
    <glyph glyph-name="Eacute" unicode="&#xc9;" horiz-adv-x="499" 
d="M182 661l129 145l89 -17l-148 -128h-70zM90 0v612h353l-10 -73l-251 4v-193h232l-10 -69l-222 3v-212l277 4l-10 -76h-359z" />
    <glyph glyph-name="Ecircumflex" unicode="&#xca;" horiz-adv-x="499" 
d="M361 661l-87 77l-87 -77h-67l124 145h60l124 -145h-67zM90 0v612h353l-10 -73l-251 4v-193h232l-10 -69l-222 3v-212l277 4l-10 -76h-359z" />
    <glyph glyph-name="Edieresis" unicode="&#xcb;" horiz-adv-x="499" 
d="M311 745c0 20 33 54 50 54c16 0 56 -25 56 -45s-34 -54 -50 -54c-17 0 -56 26 -56 45zM132 745c0 20 33 54 50 54c16 0 56 -25 56 -45s-34 -54 -50 -54c-17 0 -56 26 -56 45zM90 0v612h353l-10 -73l-251 4v-193h232l-10 -69l-222 3v-212l277 4l-10 -76h-359z" />
    <glyph glyph-name="Emacron" unicode="&#x112;" horiz-adv-x="499" 
d="M406 765v-15l-18 -46h-245v15l18 46h245zM90 0v612h353l-10 -73l-251 4v-193h232l-10 -69l-222 3v-212l277 4l-10 -76h-359z" />
    <glyph glyph-name="Ebreve" unicode="&#x114;" horiz-adv-x="499" 
d="M269 727c55 0 83 39 93 89h50c0 -84 -68 -155 -148 -155c-90 0 -137 71 -137 155h50c10 -50 37 -89 92 -89zM90 0v612h353l-10 -73l-251 4v-193h232l-10 -69l-222 3v-212l277 4l-10 -76h-359z" />
    <glyph glyph-name="Edotaccent" unicode="&#x116;" horiz-adv-x="499" 
d="M215 740c0 22 37 60 56 60c18 0 62 -28 62 -51c0 -22 -38 -59 -56 -59c-19 0 -62 28 -62 50zM90 0v612h353l-10 -73l-251 4v-193h232l-10 -69l-222 3v-212l277 4l-10 -76h-359z" />
    <glyph glyph-name="Eogonek" unicode="&#x118;" horiz-adv-x="499" 
d="M90 0v612h353l-10 -73l-251 4v-193h232l-10 -69l-222 3v-212l277 4l-10 -76h-359zM286 -135c0 55 54 107 96 135h57c-53 -39 -93 -88 -93 -126c0 -27 21 -41 43 -41c16 0 32 8 41 13l14 -41c-18 -10 -41 -21 -74 -21c-54 0 -84 32 -84 81z" />
    <glyph glyph-name="Ecaron" unicode="&#x11a;" horiz-adv-x="499" 
d="M304 665h-60l-124 145h67l87 -77l87 77h67zM90 0v612h353l-10 -73l-251 4v-193h232l-10 -69l-222 3v-212l277 4l-10 -76h-359z" />
    <glyph glyph-name="F" unicode="F" horiz-adv-x="483" 
d="M402 271l-220 3v-274h-92v612h353l-10 -73l-251 3v-200h230z" />
    <glyph glyph-name="G" unicode="G" horiz-adv-x="592" 
d="M532 32c-46 -24 -122 -44 -183 -44c-172 0 -304 92 -304 307c0 191 123 329 311 329c62 0 140 -14 178 -34l-27 -76c-51 23 -111 37 -175 37c-85 0 -193 -54 -193 -235c0 -192 109 -255 223 -255c28 0 60 4 88 11l-1 232h83v-272z" />
    <glyph glyph-name="Gcircumflex" unicode="&#x11c;" horiz-adv-x="592" 
d="M415 661l-87 77l-87 -77h-67l124 145h60l124 -145h-67zM532 32c-46 -24 -122 -44 -183 -44c-172 0 -304 92 -304 307c0 191 123 329 311 329c62 0 140 -14 178 -34l-27 -76c-51 23 -111 37 -175 37c-85 0 -193 -54 -193 -235c0 -192 109 -255 223 -255c28 0 60 4 88 11
l-1 232h83v-272z" />
    <glyph glyph-name="Gbreve" unicode="&#x11e;" horiz-adv-x="592" 
d="M327 727c55 0 83 39 93 89h50c0 -84 -68 -155 -148 -155c-90 0 -137 71 -137 155h50c10 -50 37 -89 92 -89zM532 32c-46 -24 -122 -44 -183 -44c-172 0 -304 92 -304 307c0 191 123 329 311 329c62 0 140 -14 178 -34l-27 -76c-51 23 -111 37 -175 37
c-85 0 -193 -54 -193 -235c0 -192 109 -255 223 -255c28 0 60 4 88 11l-1 232h83v-272z" />
    <glyph glyph-name="Gdotaccent" unicode="&#x120;" horiz-adv-x="592" 
d="M269 740c0 22 37 60 56 60c18 0 62 -28 62 -51c0 -22 -38 -59 -56 -59c-19 0 -62 28 -62 50zM532 32c-46 -24 -122 -44 -183 -44c-172 0 -304 92 -304 307c0 191 123 329 311 329c62 0 140 -14 178 -34l-27 -76c-51 23 -111 37 -175 37c-85 0 -193 -54 -193 -235
c0 -192 109 -255 223 -255c28 0 60 4 88 11l-1 232h83v-272z" />
    <glyph glyph-name="Gcommaaccent" unicode="&#x122;" horiz-adv-x="592" 
d="M532 32c-46 -24 -122 -44 -183 -44c-172 0 -304 92 -304 307c0 191 123 329 311 329c62 0 140 -14 178 -34l-27 -76c-51 23 -111 37 -175 37c-85 0 -193 -54 -193 -235c0 -192 109 -255 223 -255c28 0 60 4 88 11l-1 232h83v-272zM286 -84c0 18 24 40 44 40
s55 -36 55 -61s-17 -63 -61 -143l-44 17c25 52 37 86 37 99c0 11 -31 28 -31 48z" />
    <glyph glyph-name="H" unicode="H" horiz-adv-x="648" 
d="M466 0v280h-284v-280h-92v612h92v-258h284v258h92v-612h-92z" />
    <glyph glyph-name="Hcircumflex" unicode="&#x124;" horiz-adv-x="648" 
d="M411 661l-87 77l-87 -77h-67l124 145h60l124 -145h-67zM466 0v280h-284v-280h-92v612h92v-258h284v258h92v-612h-92z" />
    <glyph glyph-name="I" unicode="I" horiz-adv-x="272" 
d="M182 612v-612h-92v612h92z" />
    <glyph glyph-name="Igrave" unicode="&#xcc;" horiz-adv-x="272" 
d="M208 661h-70l-148 128l89 17zM182 612v-612h-92v612h92z" />
    <glyph glyph-name="Iacute" unicode="&#xcd;" horiz-adv-x="272" 
d="M79 661l129 145l89 -17l-148 -128h-70zM182 612v-612h-92v612h92z" />
    <glyph glyph-name="Icircumflex" unicode="&#xce;" horiz-adv-x="272" 
d="M223 661l-87 77l-87 -77h-67l124 145h60l124 -145h-67zM182 612v-612h-92v612h92z" />
    <glyph glyph-name="Idieresis" unicode="&#xcf;" horiz-adv-x="272" 
d="M161 745c0 20 33 54 50 54c16 0 56 -25 56 -45s-34 -54 -50 -54c-17 0 -56 26 -56 45zM6 745c0 20 33 54 50 54c16 0 56 -25 56 -45s-34 -54 -50 -54c-17 0 -56 26 -56 45zM182 612v-612h-92v612h92z" />
    <glyph glyph-name="Itilde" unicode="&#x128;" horiz-adv-x="272" 
d="M251 785l26 -39c-19 -21 -53 -56 -86 -56s-87 32 -110 32s-41 -10 -58 -24l-28 39c16 15 57 54 94 54c35 0 78 -30 104 -30c23 0 40 10 58 24zM182 612v-612h-92v612h92z" />
    <glyph glyph-name="Imacron" unicode="&#x12a;" horiz-adv-x="272" 
d="M258 765v-15l-18 -46h-225v15l18 46h225zM182 612v-612h-92v612h92z" />
    <glyph glyph-name="Ibreve" unicode="&#x12c;" horiz-adv-x="272" 
d="M136 734c50 0 75 39 82 89h47c0 -84 -61 -155 -133 -155c-81 0 -124 71 -124 155h47c7 -50 32 -89 81 -89zM182 612v-612h-92v612h92z" />
    <glyph glyph-name="Iogonek" unicode="&#x12e;" horiz-adv-x="272" 
d="M116 0h-26v612h92v-612h-9c-53 -39 -93 -88 -93 -126c0 -27 21 -41 43 -41c16 0 32 8 41 13l14 -41c-18 -10 -41 -21 -74 -21c-54 0 -84 32 -84 81c0 55 54 107 96 135z" />
    <glyph glyph-name="Idotaccent" unicode="&#x130;" horiz-adv-x="272" 
d="M79 740c0 22 37 60 56 60c18 0 62 -28 62 -51c0 -22 -38 -59 -56 -59c-19 0 -62 28 -62 50zM182 612v-612h-92v612h92z" />
    <glyph glyph-name="J" unicode="J" horiz-adv-x="352" 
d="M272 612v-436c0 -128 -78 -188 -182 -188c-25 0 -59 6 -80 13l15 73c22 -7 58 -15 80 -15c45 0 75 32 75 92v461h92z" />
    <glyph glyph-name="Jcircumflex" unicode="&#x134;" horiz-adv-x="352" 
d="M313 661l-87 77l-87 -77h-67l124 145h60l124 -145h-67zM272 612v-436c0 -128 -78 -188 -182 -188c-25 0 -59 6 -80 13l15 73c22 -7 58 -15 80 -15c45 0 75 32 75 92v461h92z" />
    <glyph glyph-name="K" unicode="K" horiz-adv-x="573" 
d="M568 0h-120l-266 315l257 297h107l-265 -289zM182 612v-612h-92v612h92z" />
    <glyph glyph-name="Kcommaaccent" unicode="&#x136;" horiz-adv-x="573" 
d="M568 0h-120l-266 315l257 297h107l-265 -289zM182 612v-612h-92v612h92zM240 -84c0 18 24 40 44 40s55 -36 55 -61s-17 -63 -61 -143l-44 17c25 52 37 86 37 99c0 11 -31 28 -31 48z" />
    <glyph glyph-name="L" unicode="L" horiz-adv-x="446" 
d="M90 0v612h92v-540l253 4l-10 -76h-335z" />
    <glyph glyph-name="Lacute" unicode="&#x139;" horiz-adv-x="446" 
d="M82 661l129 145l89 -17l-148 -128h-70zM90 0v612h92v-540l253 4l-10 -76h-335z" />
    <glyph glyph-name="Lcommaaccent" unicode="&#x13b;" horiz-adv-x="446" 
d="M90 0v612h92v-540l253 4l-10 -76h-335zM205 -84c0 18 24 40 44 40s55 -36 55 -61s-17 -63 -61 -143l-44 17c25 52 37 86 37 99c0 11 -31 28 -31 48z" />
    <glyph glyph-name="Lcaron" unicode="&#x13d;" horiz-adv-x="450" 
d="M298 581c2 16 30 32 51 32s40 -44 40 -78c0 -38 -20 -79 -72 -152l-35 22c24 44 39 74 39 101c0 34 -23 62 -23 75zM90 0v612h92v-540l253 4l-10 -76h-335z" />
    <glyph glyph-name="M" unicode="M" horiz-adv-x="804" 
d="M362 0l-179 498l-46 -498h-86l69 612h106l179 -488l173 488h108l67 -612h-91l-47 500l-177 -500h-76z" />
    <glyph glyph-name="N" unicode="N" horiz-adv-x="658" 
d="M484 0l-314 475v-475h-80v612h91l307 -469v469h80v-612h-84z" />
    <glyph glyph-name="Ntilde" unicode="&#xd1;" horiz-adv-x="658" 
d="M461 781l33 -35c-21 -28 -58 -69 -100 -69c-36 0 -97 33 -123 33s-60 -30 -65 -35l-30 35c18 20 61 67 103 67s88 -30 117 -30c26 0 48 17 65 34zM484 0l-314 475v-475h-80v612h91l307 -469v469h80v-612h-84z" />
    <glyph glyph-name="Nacute" unicode="&#x143;" horiz-adv-x="658" 
d="M257 661l129 145l89 -17l-148 -128h-70zM484 0l-314 475v-475h-80v612h91l307 -469v469h80v-612h-84z" />
    <glyph glyph-name="Ncommaaccent" unicode="&#x145;" horiz-adv-x="658" 
d="M484 0l-314 475v-475h-80v612h91l307 -469v469h80v-612h-84zM282 -84c0 18 24 40 44 40s55 -36 55 -61s-17 -63 -61 -143l-44 17c25 52 37 86 37 99c0 11 -31 28 -31 48z" />
    <glyph glyph-name="Ncaron" unicode="&#x147;" horiz-adv-x="658" 
d="M368 665h-60l-124 145h67l87 -77l87 77h67zM484 0l-314 475v-475h-80v612h91l307 -469v469h80v-612h-84z" />
    <glyph glyph-name="O" unicode="O" horiz-adv-x="664" 
d="M619 318c0 -208 -130 -330 -309 -330c-153 0 -265 111 -265 306c0 208 129 330 308 330c153 0 266 -112 266 -306zM526 290c0 193 -91 264 -209 264c-95 0 -179 -71 -179 -232c0 -194 89 -264 208 -264c95 0 180 69 180 232z" />
    <glyph glyph-name="Ograve" unicode="&#xd2;" horiz-adv-x="664" 
d="M433 661h-70l-148 128l89 17zM619 318c0 -208 -130 -330 -309 -330c-153 0 -265 111 -265 306c0 208 129 330 308 330c153 0 266 -112 266 -306zM526 290c0 193 -91 264 -209 264c-95 0 -179 -71 -179 -232c0 -194 89 -264 208 -264c95 0 180 69 180 232z" />
    <glyph glyph-name="Oacute" unicode="&#xd3;" horiz-adv-x="664" 
d="M229 661l129 145l89 -17l-148 -128h-70zM619 318c0 -208 -130 -330 -309 -330c-153 0 -265 111 -265 306c0 208 129 330 308 330c153 0 266 -112 266 -306zM526 290c0 193 -91 264 -209 264c-95 0 -179 -71 -179 -232c0 -194 89 -264 208 -264c95 0 180 69 180 232z" />
    <glyph glyph-name="Ocircumflex" unicode="&#xd4;" horiz-adv-x="664" 
d="M413 661l-87 77l-87 -77h-67l124 145h60l124 -145h-67zM619 318c0 -208 -130 -330 -309 -330c-153 0 -265 111 -265 306c0 208 129 330 308 330c153 0 266 -112 266 -306zM526 290c0 193 -91 264 -209 264c-95 0 -179 -71 -179 -232c0 -194 89 -264 208 -264
c95 0 180 69 180 232z" />
    <glyph glyph-name="Otilde" unicode="&#xd5;" horiz-adv-x="664" 
d="M455 781l33 -35c-21 -28 -58 -69 -100 -69c-36 0 -97 33 -123 33s-60 -30 -65 -35l-30 35c18 20 61 67 103 67s88 -30 117 -30c26 0 48 17 65 34zM619 318c0 -208 -130 -330 -309 -330c-153 0 -265 111 -265 306c0 208 129 330 308 330c153 0 266 -112 266 -306zM526 290
c0 193 -91 264 -209 264c-95 0 -179 -71 -179 -232c0 -194 89 -264 208 -264c95 0 180 69 180 232z" />
    <glyph glyph-name="Odieresis" unicode="&#xd6;" horiz-adv-x="664" 
d="M366 745c0 20 33 54 50 54c16 0 56 -25 56 -45s-34 -54 -50 -54c-17 0 -56 26 -56 45zM187 745c0 20 33 54 50 54c16 0 56 -25 56 -45s-34 -54 -50 -54c-17 0 -56 26 -56 45zM619 318c0 -208 -130 -330 -309 -330c-153 0 -265 111 -265 306c0 208 129 330 308 330
c153 0 266 -112 266 -306zM526 290c0 193 -91 264 -209 264c-95 0 -179 -71 -179 -232c0 -194 89 -264 208 -264c95 0 180 69 180 232z" />
    <glyph glyph-name="Omacron" unicode="&#x14c;" horiz-adv-x="664" 
d="M459 765v-15l-18 -46h-245v15l18 46h245zM619 318c0 -208 -130 -330 -309 -330c-153 0 -265 111 -265 306c0 208 129 330 308 330c153 0 266 -112 266 -306zM526 290c0 193 -91 264 -209 264c-95 0 -179 -71 -179 -232c0 -194 89 -264 208 -264c95 0 180 69 180 232z" />
    <glyph glyph-name="Obreve" unicode="&#x14e;" horiz-adv-x="664" 
d="M326 727c55 0 83 39 93 89h50c0 -84 -68 -155 -148 -155c-90 0 -137 71 -137 155h50c10 -50 37 -89 92 -89zM619 318c0 -208 -130 -330 -309 -330c-153 0 -265 111 -265 306c0 208 129 330 308 330c153 0 266 -112 266 -306zM526 290c0 193 -91 264 -209 264
c-95 0 -179 -71 -179 -232c0 -194 89 -264 208 -264c95 0 180 69 180 232z" />
    <glyph glyph-name="Ohungarumlaut" unicode="&#x150;" horiz-adv-x="664" 
d="M312 661l129 145l89 -17l-148 -128h-70zM187 661l129 145l89 -17l-148 -128h-70zM619 318c0 -208 -130 -330 -309 -330c-153 0 -265 111 -265 306c0 208 129 330 308 330c153 0 266 -112 266 -306zM526 290c0 193 -91 264 -209 264c-95 0 -179 -71 -179 -232
c0 -194 89 -264 208 -264c95 0 180 69 180 232z" />
    <glyph glyph-name="P" unicode="P" horiz-adv-x="507" 
d="M256 301c84 0 136 37 136 121c0 80 -52 125 -152 125h-58v-243c24 -1 47 -3 74 -3zM232 235c-17 0 -34 1 -50 1v-236h-92v612h183c136 0 214 -64 214 -171c0 -136 -118 -206 -255 -206z" />
    <glyph glyph-name="Q" unicode="Q" horiz-adv-x="664" 
d="M619 318c0 -208 -130 -330 -309 -330c-153 0 -265 111 -265 306c0 208 129 330 308 330c153 0 266 -112 266 -306zM526 290c0 193 -91 264 -209 264c-95 0 -179 -71 -179 -232c0 -194 89 -264 208 -264c95 0 180 69 180 232zM137 -81c32 21 75 36 109 36
c93 0 198 -50 277 -50c31 0 65 8 88 26v-79c-26 -20 -66 -28 -97 -28c-69 0 -204 65 -268 65c-38 0 -59 -13 -86 -36z" />
    <glyph glyph-name="R" unicode="R" horiz-adv-x="538" 
d="M262 318c60 0 116 31 116 106c0 78 -49 123 -130 123c-19 0 -44 -1 -66 -2v-224c26 -2 52 -3 80 -3zM239 253c-13 0 -36 1 -57 1v-254h-92v612h178c130 0 203 -62 203 -162c0 -80 -47 -137 -109 -168l158 -282h-105l-133 256c-15 -2 -29 -3 -43 -3z" />
    <glyph glyph-name="Racute" unicode="&#x154;" horiz-adv-x="538" 
d="M186 661l129 145l89 -17l-148 -128h-70zM262 318c60 0 116 31 116 106c0 78 -49 123 -130 123c-19 0 -44 -1 -66 -2v-224c26 -2 52 -3 80 -3zM239 253c-13 0 -36 1 -57 1v-254h-92v612h178c130 0 203 -62 203 -162c0 -80 -47 -137 -109 -168l158 -282h-105l-133 256
c-15 -2 -29 -3 -43 -3z" />
    <glyph glyph-name="Rcommaaccent" unicode="&#x156;" horiz-adv-x="538" 
d="M262 318c60 0 116 31 116 106c0 78 -49 123 -130 123c-19 0 -44 -1 -66 -2v-224c26 -2 52 -3 80 -3zM239 253c-13 0 -36 1 -57 1v-254h-92v612h178c130 0 203 -62 203 -162c0 -80 -47 -137 -109 -168l158 -282h-105l-133 256c-15 -2 -29 -3 -43 -3zM230 -84
c0 18 24 40 44 40s55 -36 55 -61s-17 -63 -61 -143l-44 17c25 52 37 86 37 99c0 11 -31 28 -31 48z" />
    <glyph glyph-name="Rcaron" unicode="&#x158;" horiz-adv-x="538" 
d="M298 665h-60l-124 145h67l87 -77l87 77h67zM262 318c60 0 116 31 116 106c0 78 -49 123 -130 123c-19 0 -44 -1 -66 -2v-224c26 -2 52 -3 80 -3zM239 253c-13 0 -36 1 -57 1v-254h-92v612h178c130 0 203 -62 203 -162c0 -80 -47 -137 -109 -168l158 -282h-105l-133 256
c-15 -2 -29 -3 -43 -3z" />
    <glyph glyph-name="S" unicode="S" horiz-adv-x="479" 
d="M215 277c-112 45 -157 98 -157 178c0 96 78 169 208 169c70 0 123 -12 153 -23l-22 -79c-51 19 -100 32 -156 32c-62 0 -96 -31 -96 -83c0 -55 31 -81 122 -119c129 -54 162 -103 162 -176c0 -114 -87 -188 -235 -188c-46 0 -115 12 -149 26l19 83
c54 -22 107 -38 163 -38c65 0 113 32 113 90c0 54 -20 86 -125 128z" />
    <glyph glyph-name="Sacute" unicode="&#x15a;" horiz-adv-x="479" 
d="M165 661l129 145l89 -17l-148 -128h-70zM215 277c-112 45 -157 98 -157 178c0 96 78 169 208 169c70 0 123 -12 153 -23l-22 -79c-51 19 -100 32 -156 32c-62 0 -96 -31 -96 -83c0 -55 31 -81 122 -119c129 -54 162 -103 162 -176c0 -114 -87 -188 -235 -188
c-46 0 -115 12 -149 26l19 83c54 -22 107 -38 163 -38c65 0 113 32 113 90c0 54 -20 86 -125 128z" />
    <glyph glyph-name="Scircumflex" unicode="&#x15c;" horiz-adv-x="479" 
d="M344 661l-87 77l-87 -77h-67l124 145h60l124 -145h-67zM215 277c-112 45 -157 98 -157 178c0 96 78 169 208 169c70 0 123 -12 153 -23l-22 -79c-51 19 -100 32 -156 32c-62 0 -96 -31 -96 -83c0 -55 31 -81 122 -119c129 -54 162 -103 162 -176
c0 -114 -87 -188 -235 -188c-46 0 -115 12 -149 26l19 83c54 -22 107 -38 163 -38c65 0 113 32 113 90c0 54 -20 86 -125 128z" />
    <glyph glyph-name="Scedilla" unicode="&#x15e;" horiz-adv-x="479" 
d="M146 -230l-11 43c59 7 100 16 100 45c0 19 -24 32 -76 46l-3 5l37 79c-46 0 -114 12 -148 26l19 83c54 -22 107 -38 163 -38c65 0 113 32 113 90c0 54 -20 86 -125 128c-112 45 -157 98 -157 178c0 96 78 169 208 169c70 0 123 -12 153 -23l-22 -79
c-51 19 -100 32 -156 32c-62 0 -96 -31 -96 -83c0 -55 31 -81 122 -119c129 -54 162 -103 162 -176c0 -101 -68 -171 -187 -185l-21 -45c46 -21 78 -35 78 -74c0 -43 -44 -92 -153 -102z" />
    <glyph glyph-name="Scaron" unicode="&#x160;" horiz-adv-x="479" 
d="M287 665h-60l-124 145h67l87 -77l87 77h67zM215 277c-112 45 -157 98 -157 178c0 96 78 169 208 169c70 0 123 -12 153 -23l-22 -79c-51 19 -100 32 -156 32c-62 0 -96 -31 -96 -83c0 -55 31 -81 122 -119c129 -54 162 -103 162 -176c0 -114 -87 -188 -235 -188
c-46 0 -115 12 -149 26l19 83c54 -22 107 -38 163 -38c65 0 113 32 113 90c0 54 -20 86 -125 128z" />
    <glyph glyph-name="Scommaaccent" unicode="&#x218;" horiz-adv-x="479" 
d="M215 277c-112 45 -157 98 -157 178c0 96 78 169 208 169c70 0 123 -12 153 -23l-22 -79c-51 19 -100 32 -156 32c-62 0 -96 -31 -96 -83c0 -55 31 -81 122 -119c129 -54 162 -103 162 -176c0 -114 -87 -188 -235 -188c-46 0 -115 12 -149 26l19 83
c54 -22 107 -38 163 -38c65 0 113 32 113 90c0 54 -20 86 -125 128zM190 -84c0 18 24 40 44 40s55 -36 55 -61s-17 -63 -61 -143l-44 17c25 52 37 86 37 99c0 11 -31 28 -31 48z" />
    <glyph glyph-name="T" unicode="T" horiz-adv-x="500" 
d="M482 538l-185 3v-541h-92v541l-197 -3l10 74h474z" />
    <glyph glyph-name="Tcommaaccent" unicode="&#x162;" horiz-adv-x="500" 
d="M482 538l-185 3v-541h-92v541l-197 -3l10 74h474zM195 -84c0 18 24 40 44 40s55 -36 55 -61s-17 -63 -61 -143l-44 17c25 52 37 86 37 99c0 11 -31 28 -31 48z" />
    <glyph glyph-name="Tcaron" unicode="&#x164;" horiz-adv-x="500" 
d="M280 665h-60l-124 145h67l87 -77l87 77h67zM482 538l-185 3v-541h-92v541l-197 -3l10 74h474z" />
    <glyph glyph-name="uni021A" unicode="&#x21a;" horiz-adv-x="500" 
d="M228 0h-23v541l-197 -3l10 74h474l-10 -74l-185 3v-541h-22l-25 -54c46 -21 78 -35 78 -74c0 -43 -44 -92 -153 -102l-11 43c59 7 100 16 100 45c0 19 -24 32 -76 46l-3 5z" />
    <glyph glyph-name="U" unicode="U" horiz-adv-x="638" 
d="M84 199v413h92v-380c0 -123 63 -166 156 -166c81 0 135 44 135 138v408h87v-386c0 -153 -88 -238 -245 -238c-135 0 -225 69 -225 211z" />
    <glyph glyph-name="Ugrave" unicode="&#xd9;" horiz-adv-x="638" 
d="M419 661h-70l-148 128l89 17zM84 199v413h92v-380c0 -123 63 -166 156 -166c81 0 135 44 135 138v408h87v-386c0 -153 -88 -238 -245 -238c-135 0 -225 69 -225 211z" />
    <glyph glyph-name="Uacute" unicode="&#xda;" horiz-adv-x="638" 
d="M225 661l129 145l89 -17l-148 -128h-70zM84 199v413h92v-380c0 -123 63 -166 156 -166c81 0 135 44 135 138v408h87v-386c0 -153 -88 -238 -245 -238c-135 0 -225 69 -225 211z" />
    <glyph glyph-name="Ucircumflex" unicode="&#xdb;" horiz-adv-x="638" 
d="M406 661l-87 77l-87 -77h-67l124 145h60l124 -145h-67zM84 199v413h92v-380c0 -123 63 -166 156 -166c81 0 135 44 135 138v408h87v-386c0 -153 -88 -238 -245 -238c-135 0 -225 69 -225 211z" />
    <glyph glyph-name="Udieresis" unicode="&#xdc;" horiz-adv-x="638" 
d="M357 745c0 20 33 54 50 54c16 0 56 -25 56 -45s-34 -54 -50 -54c-17 0 -56 26 -56 45zM178 745c0 20 33 54 50 54c16 0 56 -25 56 -45s-34 -54 -50 -54c-17 0 -56 26 -56 45zM84 199v413h92v-380c0 -123 63 -166 156 -166c81 0 135 44 135 138v408h87v-386
c0 -153 -88 -238 -245 -238c-135 0 -225 69 -225 211z" />
    <glyph glyph-name="Utilde" unicode="&#x168;" horiz-adv-x="638" 
d="M445 781l33 -35c-21 -28 -58 -69 -100 -69c-36 0 -97 33 -123 33s-60 -30 -65 -35l-30 35c18 20 61 67 103 67s88 -30 117 -30c26 0 48 17 65 34zM84 199v413h92v-380c0 -123 63 -166 156 -166c81 0 135 44 135 138v408h87v-386c0 -153 -88 -238 -245 -238
c-135 0 -225 69 -225 211z" />
    <glyph glyph-name="Umacron" unicode="&#x16a;" horiz-adv-x="638" 
d="M447 765v-15l-18 -46h-245v15l18 46h245zM84 199v413h92v-380c0 -123 63 -166 156 -166c81 0 135 44 135 138v408h87v-386c0 -153 -88 -238 -245 -238c-135 0 -225 69 -225 211z" />
    <glyph glyph-name="Ubreve" unicode="&#x16c;" horiz-adv-x="638" 
d="M316 727c55 0 83 39 93 89h50c0 -84 -68 -155 -148 -155c-90 0 -137 71 -137 155h50c10 -50 37 -89 92 -89zM84 199v413h92v-380c0 -123 63 -166 156 -166c81 0 135 44 135 138v408h87v-386c0 -153 -88 -238 -245 -238c-135 0 -225 69 -225 211z" />
    <glyph glyph-name="Uring" unicode="&#x16e;" horiz-adv-x="638" 
d="M412 743c0 -49 -45 -89 -94 -89s-93 32 -93 89c0 50 45 90 94 90s93 -31 93 -90zM273 743c0 -27 21 -45 45 -45s46 18 46 45c0 29 -22 47 -46 47s-45 -18 -45 -47zM84 199v413h92v-380c0 -123 63 -166 156 -166c81 0 135 44 135 138v408h87v-386
c0 -153 -88 -238 -245 -238c-135 0 -225 69 -225 211z" />
    <glyph glyph-name="Uhungarumlaut" unicode="&#x170;" horiz-adv-x="638" 
d="M281 661l129 145l89 -17l-148 -128h-70zM156 661l129 145l89 -17l-148 -128h-70zM84 199v413h92v-380c0 -123 63 -166 156 -166c81 0 135 44 135 138v408h87v-386c0 -153 -88 -238 -245 -238c-135 0 -225 69 -225 211z" />
    <glyph glyph-name="Uogonek" unicode="&#x172;" horiz-adv-x="638" 
d="M372 -196c-54 0 -84 32 -84 81c0 39 27 76 58 105c-12 -1 -24 -2 -37 -2c-135 0 -225 69 -225 211v413h92v-380c0 -123 63 -166 156 -166c81 0 135 44 135 138v408h87v-386c0 -109 -45 -184 -128 -218c-45 -36 -78 -80 -78 -114c0 -27 21 -41 43 -41c16 0 32 8 41 13
l14 -41c-18 -10 -41 -21 -74 -21z" />
    <glyph glyph-name="V" unicode="V" horiz-adv-x="558" 
d="M325 0h-102l-219 612h98l178 -513l181 513h91z" />
    <glyph glyph-name="W" unicode="W" horiz-adv-x="868" 
d="M590 0l-156 481l-156 -481h-103l-147 612h92l117 -501l158 501h86l163 -501l109 501h85l-145 -612h-103z" />
    <glyph glyph-name="Wcircumflex" unicode="&#x174;" horiz-adv-x="868" 
d="M525 661l-87 77l-87 -77h-67l124 145h60l124 -145h-67zM590 0l-156 481l-156 -481h-103l-147 612h92l117 -501l158 501h86l163 -501l109 501h85l-145 -612h-103z" />
    <glyph glyph-name="Wgrave" unicode="&#x1e80;" horiz-adv-x="868" 
d="M501 661h-70l-148 128l89 17zM590 0l-156 481l-156 -481h-103l-147 612h92l117 -501l158 501h86l163 -501l109 501h85l-145 -612h-103z" />
    <glyph glyph-name="Wacute" unicode="&#x1e82;" horiz-adv-x="868" 
d="M367 661l129 145l89 -17l-148 -128h-70zM590 0l-156 481l-156 -481h-103l-147 612h92l117 -501l158 501h86l163 -501l109 501h85l-145 -612h-103z" />
    <glyph glyph-name="Wdieresis" unicode="&#x1e84;" horiz-adv-x="868" 
d="M475 745c0 20 33 54 50 54c16 0 56 -25 56 -45s-34 -54 -50 -54c-17 0 -56 26 -56 45zM296 745c0 20 33 54 50 54c16 0 56 -25 56 -45s-34 -54 -50 -54c-17 0 -56 26 -56 45zM590 0l-156 481l-156 -481h-103l-147 612h92l117 -501l158 501h86l163 -501l109 501h85
l-145 -612h-103z" />
    <glyph glyph-name="X" unicode="X" horiz-adv-x="552" 
d="M436 0l-168 252l-158 -252h-100l212 321l-195 291h106l150 -225l143 225h101l-198 -293l213 -319h-106z" />
    <glyph glyph-name="Y" unicode="Y" horiz-adv-x="529" 
d="M314 242v-242h-92v242l-220 370h104l168 -286l158 286h91z" />
    <glyph glyph-name="Yacute" unicode="&#xdd;" horiz-adv-x="529" 
d="M189 661l129 145l89 -17l-148 -128h-70zM314 242v-242h-92v242l-220 370h104l168 -286l158 286h91z" />
    <glyph glyph-name="Ycircumflex" unicode="&#x176;" horiz-adv-x="529" 
d="M355 661l-87 77l-87 -77h-67l124 145h60l124 -145h-67zM314 242v-242h-92v242l-220 370h104l168 -286l158 286h91z" />
    <glyph glyph-name="Ydieresis" unicode="&#x178;" horiz-adv-x="529" 
d="M305 745c0 20 33 54 50 54c16 0 56 -25 56 -45s-34 -54 -50 -54c-17 0 -56 26 -56 45zM126 745c0 20 33 54 50 54c16 0 56 -25 56 -45s-34 -54 -50 -54c-17 0 -56 26 -56 45zM314 242v-242h-92v242l-220 370h104l168 -286l158 286h91z" />
    <glyph glyph-name="Ygrave" unicode="&#x1ef2;" horiz-adv-x="529" 
d="M364 661h-70l-148 128l89 17zM314 242v-242h-92v242l-220 370h104l168 -286l158 286h91z" />
    <glyph glyph-name="Z" unicode="Z" horiz-adv-x="523" 
d="M473 0h-437v61l341 481l-330 -6l14 76h417v-72l-336 -472l345 6z" />
    <glyph glyph-name="Zacute" unicode="&#x179;" horiz-adv-x="523" 
d="M183 661l129 145l89 -17l-148 -128h-70zM473 0h-437v61l341 481l-330 -6l14 76h417v-72l-336 -472l345 6z" />
    <glyph glyph-name="Zdotaccent" unicode="&#x17b;" horiz-adv-x="523" 
d="M210 740c0 22 37 60 56 60c18 0 62 -28 62 -51c0 -22 -38 -59 -56 -59c-19 0 -62 28 -62 50zM473 0h-437v61l341 481l-330 -6l14 76h417v-72l-336 -472l345 6z" />
    <glyph glyph-name="Zcaron" unicode="&#x17d;" horiz-adv-x="523" 
d="M291 665h-60l-124 145h67l87 -77l87 77h67zM473 0h-437v61l341 481l-330 -6l14 76h417v-72l-336 -472l345 6z" />
    <glyph glyph-name="AE" unicode="&#xc6;" horiz-adv-x="795" 
d="M379 527l-144 -269h153v269h-9zM388 0v190h-189l-102 -190h-92l336 612h400l-10 -73l-251 4v-193h232l-10 -69l-222 3v-212l277 4l-10 -76h-359z" />
    <glyph glyph-name="AEacute" unicode="&#x1fc;" horiz-adv-x="795" 
d="M420 661l129 145l89 -17l-148 -128h-70zM379 527l-144 -269h153v269h-9zM388 0v190h-189l-102 -190h-92l336 612h400l-10 -73l-251 4v-193h232l-10 -69l-222 3v-212l277 4l-10 -76h-359z" />
    <glyph glyph-name="Eth" unicode="&#xd0;" horiz-adv-x="646" 
d="M261 -4c-59 0 -130 8 -166 14v272h-65v66h65v264h211c178 0 295 -105 295 -284c0 -208 -143 -332 -340 -332zM296 66c107 0 210 65 210 246c0 155 -98 233 -230 233h-89v-197h171l-10 -66h-161v-208c31 -5 74 -8 109 -8z" />
    <glyph glyph-name="Oslash" unicode="&#xd8;" horiz-adv-x="664" 
d="M138 322c0 -102 25 -170 65 -211l197 429c-25 9 -53 14 -83 14c-95 0 -179 -71 -179 -232zM346 58c95 0 180 69 180 232c0 108 -29 178 -75 219l-199 -432c28 -13 60 -19 94 -19zM310 -12c-33 0 -63 5 -92 15l-39 -86h-65l51 112c-74 49 -120 139 -120 265
c0 208 129 330 308 330c29 0 56 -4 81 -11l37 80h65l-48 -104c80 -47 131 -141 131 -271c0 -208 -130 -330 -309 -330z" />
    <glyph glyph-name="Oslashacute" unicode="&#x1fe;" horiz-adv-x="664" 
d="M238 661l129 145l89 -17l-148 -128h-70zM138 322c0 -102 25 -170 65 -211l197 429c-25 9 -53 14 -83 14c-95 0 -179 -71 -179 -232zM346 58c95 0 180 69 180 232c0 108 -29 178 -75 219l-199 -432c28 -13 60 -19 94 -19zM310 -12c-33 0 -63 5 -92 15l-39 -86h-65l51 112
c-74 49 -120 139 -120 265c0 208 129 330 308 330c29 0 56 -4 81 -11l37 80h65l-48 -104c80 -47 131 -141 131 -271c0 -208 -130 -330 -309 -330z" />
    <glyph glyph-name="Thorn" unicode="&#xde;" horiz-adv-x="507" 
d="M256 193c84 0 136 37 136 121c0 80 -52 125 -152 125h-58v-243c24 -1 47 -3 74 -3zM232 127c-17 0 -34 1 -50 1v-128h-92v612h92v-108h91c136 0 214 -64 214 -171c0 -136 -118 -206 -255 -206z" />
    <glyph glyph-name="Dcroat" unicode="&#x110;" horiz-adv-x="646" 
d="M261 -4c-59 0 -130 8 -166 14v272h-65v66h65v264h211c178 0 295 -105 295 -284c0 -208 -143 -332 -340 -332zM296 66c107 0 210 65 210 246c0 155 -98 233 -230 233h-89v-197h171l-10 -66h-161v-208c31 -5 74 -8 109 -8z" />
    <glyph glyph-name="Hbar" unicode="&#x126;" horiz-adv-x="648" 
d="M466 354v90h-284v-90h284zM466 0v280h-284v-280h-92v444h-66v15l18 46h48v107h92v-107h284v107h92v-107h66v-15l-18 -46h-48v-444h-92z" />
    <glyph glyph-name="IJ" unicode="&#x132;" horiz-adv-x="614" 
d="M182 612v-612h-92v612h92zM534 612v-436c0 -128 -78 -188 -182 -188c-25 0 -59 6 -80 13l15 73c22 -7 58 -15 80 -15c45 0 75 32 75 92v461h92z" />
    <glyph glyph-name="Ldot" unicode="&#x13f;" horiz-adv-x="450" 
d="M306 341c0 22 37 60 56 60c18 0 62 -28 62 -51c0 -22 -38 -59 -56 -59c-19 0 -62 28 -62 50zM90 0v612h92v-540l253 4l-10 -76h-335z" />
    <glyph glyph-name="Lslash" unicode="&#x141;" horiz-adv-x="450" 
d="M90 0v260l-77 -32v69l77 32v283h92v-244l131 55v-69l-131 -55v-227l253 4l-10 -76h-335z" />
    <glyph glyph-name="Eng" unicode="&#x14a;" horiz-adv-x="658" 
d="M396 -179c-25 0 -59 7 -80 15l17 72c27 -11 57 -20 82 -20c45 0 71 25 71 84v28h-2l-314 475v-475h-80v612h91l307 -469v469h80v-615c0 -119 -72 -176 -172 -176z" />
    <glyph glyph-name="OE" unicode="&#x152;" horiz-adv-x="840" 
d="M345 58c36 0 64 9 86 21v445c-30 19 -64 30 -115 30c-95 0 -178 -68 -178 -232c0 -194 89 -264 207 -264zM431 0v13c-34 -16 -74 -25 -122 -25c-152 0 -264 111 -264 306c0 208 132 330 302 330c28 0 58 -5 84 -13v1h353l-10 -73l-251 4v-193h232l-10 -69l-222 3v-212
l277 4l-10 -76h-359z" />
    <glyph glyph-name="Tbar" unicode="&#x166;" horiz-adv-x="500" 
d="M429 290h-132v-290h-92v290h-154v15l18 50h136v186l-197 -3l10 74h474l-10 -74l-185 3v-186h150v-15z" />
    <glyph glyph-name="a" unicode="a" 
d="M317 -12l-20 52c-37 -24 -90 -52 -129 -52c-74 0 -130 47 -130 120c0 84 74 145 255 148v41c0 63 -32 96 -87 96c-40 0 -93 -15 -136 -30l-19 59c63 24 114 40 182 40c88 0 143 -47 143 -145v-315zM191 53c30 0 67 15 102 33v106c-15 2 -40 4 -71 4
c-63 0 -106 -25 -106 -71c0 -49 39 -72 75 -72z" />
    <glyph glyph-name="agrave" unicode="&#xe0;" 
d="M341 511h-70l-148 128l89 17zM317 -12l-20 52c-37 -24 -90 -52 -129 -52c-74 0 -130 47 -130 120c0 84 74 145 255 148v41c0 63 -32 96 -87 96c-40 0 -93 -15 -136 -30l-19 59c63 24 114 40 182 40c88 0 143 -47 143 -145v-315zM191 53c30 0 67 15 102 33v106
c-15 2 -40 4 -71 4c-63 0 -106 -25 -106 -71c0 -49 39 -72 75 -72z" />
    <glyph glyph-name="aacute" unicode="&#xe1;" 
d="M154 511l129 145l89 -17l-148 -128h-70zM317 -12l-20 52c-37 -24 -90 -52 -129 -52c-74 0 -130 47 -130 120c0 84 74 145 255 148v41c0 63 -32 96 -87 96c-40 0 -93 -15 -136 -30l-19 59c63 24 114 40 182 40c88 0 143 -47 143 -145v-315zM191 53c30 0 67 15 102 33v106
c-15 2 -40 4 -71 4c-63 0 -106 -25 -106 -71c0 -49 39 -72 75 -72z" />
    <glyph glyph-name="acircumflex" unicode="&#xe2;" 
d="M312 511l-87 77l-87 -77h-67l124 145h60l124 -145h-67zM317 -12l-20 52c-37 -24 -90 -52 -129 -52c-74 0 -130 47 -130 120c0 84 74 145 255 148v41c0 63 -32 96 -87 96c-40 0 -93 -15 -136 -30l-19 59c63 24 114 40 182 40c88 0 143 -47 143 -145v-315zM191 53
c30 0 67 15 102 33v106c-15 2 -40 4 -71 4c-63 0 -106 -25 -106 -71c0 -49 39 -72 75 -72z" />
    <glyph glyph-name="atilde" unicode="&#xe3;" 
d="M338 631l33 -35c-21 -28 -58 -69 -100 -69c-36 0 -97 33 -123 33s-60 -30 -65 -35l-30 35c18 20 61 67 103 67s88 -30 117 -30c26 0 48 17 65 34zM317 -12l-20 52c-37 -24 -90 -52 -129 -52c-74 0 -130 47 -130 120c0 84 74 145 255 148v41c0 63 -32 96 -87 96
c-40 0 -93 -15 -136 -30l-19 59c63 24 114 40 182 40c88 0 143 -47 143 -145v-315zM191 53c30 0 67 15 102 33v106c-15 2 -40 4 -71 4c-63 0 -106 -25 -106 -71c0 -49 39 -72 75 -72z" />
    <glyph glyph-name="adieresis" unicode="&#xe4;" 
d="M248 595c0 20 33 54 50 54c16 0 56 -25 56 -45s-34 -54 -50 -54c-17 0 -56 26 -56 45zM69 595c0 20 33 54 50 54c16 0 56 -25 56 -45s-34 -54 -50 -54c-17 0 -56 26 -56 45zM317 -12l-20 52c-37 -24 -90 -52 -129 -52c-74 0 -130 47 -130 120c0 84 74 145 255 148v41
c0 63 -32 96 -87 96c-40 0 -93 -15 -136 -30l-19 59c63 24 114 40 182 40c88 0 143 -47 143 -145v-315zM191 53c30 0 67 15 102 33v106c-15 2 -40 4 -71 4c-63 0 -106 -25 -106 -71c0 -49 39 -72 75 -72z" />
    <glyph glyph-name="aring" unicode="&#xe5;" 
d="M308 593c0 -49 -45 -89 -94 -89s-93 32 -93 89c0 50 45 90 94 90s93 -31 93 -90zM169 593c0 -27 21 -45 45 -45s46 18 46 45c0 29 -22 47 -46 47s-45 -18 -45 -47zM317 -12l-20 52c-37 -24 -90 -52 -129 -52c-74 0 -130 47 -130 120c0 84 74 145 255 148v41
c0 63 -32 96 -87 96c-40 0 -93 -15 -136 -30l-19 59c63 24 114 40 182 40c88 0 143 -47 143 -145v-315zM191 53c30 0 67 15 102 33v106c-15 2 -40 4 -71 4c-63 0 -106 -25 -106 -71c0 -49 39 -72 75 -72z" />
    <glyph glyph-name="amacron" unicode="&#x101;" 
d="M348 615v-15l-18 -46h-245v15l18 46h245zM317 -12l-20 52c-37 -24 -90 -52 -129 -52c-74 0 -130 47 -130 120c0 84 74 145 255 148v41c0 63 -32 96 -87 96c-40 0 -93 -15 -136 -30l-19 59c63 24 114 40 182 40c88 0 143 -47 143 -145v-315zM191 53c30 0 67 15 102 33v106
c-15 2 -40 4 -71 4c-63 0 -106 -25 -106 -71c0 -49 39 -72 75 -72z" />
    <glyph glyph-name="abreve" unicode="&#x103;" 
d="M213 577c55 0 83 39 93 89h50c0 -84 -68 -155 -148 -155c-90 0 -137 71 -137 155h50c10 -50 37 -89 92 -89zM317 -12l-20 52c-37 -24 -90 -52 -129 -52c-74 0 -130 47 -130 120c0 84 74 145 255 148v41c0 63 -32 96 -87 96c-40 0 -93 -15 -136 -30l-19 59
c63 24 114 40 182 40c88 0 143 -47 143 -145v-315zM191 53c30 0 67 15 102 33v106c-15 2 -40 4 -71 4c-63 0 -106 -25 -106 -71c0 -49 39 -72 75 -72z" />
    <glyph glyph-name="aogonek" unicode="&#x105;" 
d="M306 -216c-54 0 -84 32 -84 81c0 53 50 103 91 132l-16 43c-37 -24 -90 -52 -129 -52c-74 0 -130 47 -130 120c0 84 74 145 255 148v41c0 63 -32 96 -87 96c-40 0 -93 -15 -136 -30l-19 59c63 24 114 40 182 40c88 0 143 -47 143 -145v-315l-8 -2h7
c-53 -39 -93 -88 -93 -126c0 -27 21 -41 43 -41c16 0 32 8 41 13l14 -41c-18 -10 -41 -21 -74 -21zM191 53c30 0 67 15 102 33v106c-15 2 -40 4 -71 4c-63 0 -106 -25 -106 -71c0 -49 39 -72 75 -72z" />
    <glyph glyph-name="acaron" unicode="&#x1ce;" 
d="M251 515h-60l-124 145h67l87 -77l87 77h67zM317 -12l-20 52c-37 -24 -90 -52 -129 -52c-74 0 -130 47 -130 120c0 84 74 145 255 148v41c0 63 -32 96 -87 96c-40 0 -93 -15 -136 -30l-19 59c63 24 114 40 182 40c88 0 143 -47 143 -145v-315zM191 53c30 0 67 15 102 33
v106c-15 2 -40 4 -71 4c-63 0 -106 -25 -106 -71c0 -49 39 -72 75 -72z" />
    <glyph glyph-name="b" unicode="b" horiz-adv-x="508" 
d="M268 54c65 0 117 52 117 173c0 128 -70 167 -125 167c-34 0 -70 -12 -102 -29v-292c32 -11 70 -19 110 -19zM257 -12c-43 0 -84 10 -116 22l-31 -34l-38 12v690l86 14v-278c42 23 98 48 135 48c87 0 179 -65 179 -226c0 -172 -115 -248 -215 -248z" />
    <glyph glyph-name="c" unicode="c" horiz-adv-x="412" 
d="M378 77l12 -57c-33 -16 -93 -32 -145 -32c-125 0 -205 84 -205 226c0 153 95 248 219 248c57 0 102 -9 122 -20l-15 -67c-28 10 -70 22 -110 23c-75 -1 -128 -52 -128 -169c0 -120 61 -173 139 -173c42 0 84 11 111 21z" />
    <glyph glyph-name="ccedilla" unicode="&#xe7;" horiz-adv-x="412" 
d="M323 -128c0 -43 -44 -92 -153 -102l-11 43c59 7 100 16 100 45c0 19 -24 32 -76 46l-3 5l38 80c-109 12 -178 94 -178 225c0 153 95 248 219 248c57 0 102 -9 122 -20l-15 -67c-28 10 -70 22 -110 23c-75 -1 -128 -52 -128 -169c0 -120 61 -173 139 -173
c42 0 84 11 111 21l12 -57c-29 -14 -78 -28 -125 -31l-20 -43c46 -21 78 -35 78 -74z" />
    <glyph glyph-name="cacute" unicode="&#x107;" horiz-adv-x="412" 
d="M189 511l129 145l89 -17l-148 -128h-70zM378 77l12 -57c-33 -16 -93 -32 -145 -32c-125 0 -205 84 -205 226c0 153 95 248 219 248c57 0 102 -9 122 -20l-15 -67c-28 10 -70 22 -110 23c-75 -1 -128 -52 -128 -169c0 -120 61 -173 139 -173c42 0 84 11 111 21z" />
    <glyph glyph-name="ccircumflex" unicode="&#x109;" horiz-adv-x="412" 
d="M323 511l-87 77l-87 -77h-67l124 145h60l124 -145h-67zM378 77l12 -57c-33 -16 -93 -32 -145 -32c-125 0 -205 84 -205 226c0 153 95 248 219 248c57 0 102 -9 122 -20l-15 -67c-28 10 -70 22 -110 23c-75 -1 -128 -52 -128 -169c0 -120 61 -173 139 -173
c42 0 84 11 111 21z" />
    <glyph glyph-name="cdotaccent" unicode="&#x10b;" horiz-adv-x="412" 
d="M180 590c0 22 37 60 56 60c18 0 62 -28 62 -51c0 -22 -38 -59 -56 -59c-19 0 -62 28 -62 50zM378 77l12 -57c-33 -16 -93 -32 -145 -32c-125 0 -205 84 -205 226c0 153 95 248 219 248c57 0 102 -9 122 -20l-15 -67c-28 10 -70 22 -110 23c-75 -1 -128 -52 -128 -169
c0 -120 61 -173 139 -173c42 0 84 11 111 21z" />
    <glyph glyph-name="ccaron" unicode="&#x10d;" horiz-adv-x="412" 
d="M282 515h-60l-124 145h67l87 -77l87 77h67zM378 77l12 -57c-33 -16 -93 -32 -145 -32c-125 0 -205 84 -205 226c0 153 95 248 219 248c57 0 102 -9 122 -20l-15 -67c-28 10 -70 22 -110 23c-75 -1 -128 -52 -128 -169c0 -120 61 -173 139 -173c42 0 84 11 111 21z" />
    <glyph glyph-name="d" unicode="d" horiz-adv-x="508" 
d="M376 -12l-20 52c-42 -25 -102 -52 -141 -52c-87 0 -179 65 -179 226c0 172 115 248 215 248c36 0 70 -7 99 -16v232l86 14v-690zM248 55c34 0 70 13 102 30v292c-32 11 -70 19 -110 19c-65 0 -117 -52 -117 -173c0 -128 70 -168 125 -168z" />
    <glyph glyph-name="dcaron" unicode="&#x10f;" horiz-adv-x="605" 
d="M512 661c2 16 30 32 51 32s40 -44 40 -78c0 -38 -20 -79 -72 -152l-35 22c24 44 39 74 39 101c0 34 -23 62 -23 75zM376 -12l-20 52c-42 -25 -102 -52 -141 -52c-87 0 -179 65 -179 226c0 172 115 248 215 248c36 0 70 -7 99 -16v232l86 14v-690zM248 55
c34 0 70 13 102 30v292c-32 11 -70 19 -110 19c-65 0 -117 -52 -117 -173c0 -128 70 -168 125 -168z" />
    <glyph glyph-name="e" unicode="e" horiz-adv-x="449" 
d="M231 404c-60 0 -95 -28 -105 -116h203c0 78 -33 116 -98 116zM413 24c-48 -21 -105 -36 -163 -36c-117 0 -210 69 -210 226c0 159 87 248 207 248c109 0 164 -72 164 -171c0 -20 -1 -47 -2 -58h-286v-7c0 -129 73 -170 146 -170c45 0 88 8 129 25z" />
    <glyph glyph-name="egrave" unicode="&#xe8;" horiz-adv-x="449" 
d="M367 511h-70l-148 128l89 17zM231 404c-60 0 -95 -28 -105 -116h203c0 78 -33 116 -98 116zM413 24c-48 -21 -105 -36 -163 -36c-117 0 -210 69 -210 226c0 159 87 248 207 248c109 0 164 -72 164 -171c0 -20 -1 -47 -2 -58h-286v-7c0 -129 73 -170 146 -170
c45 0 88 8 129 25z" />
    <glyph glyph-name="eacute" unicode="&#xe9;" horiz-adv-x="449" 
d="M170 511l129 145l89 -17l-148 -128h-70zM231 404c-60 0 -95 -28 -105 -116h203c0 78 -33 116 -98 116zM413 24c-48 -21 -105 -36 -163 -36c-117 0 -210 69 -210 226c0 159 87 248 207 248c109 0 164 -72 164 -171c0 -20 -1 -47 -2 -58h-286v-7c0 -129 73 -170 146 -170
c45 0 88 8 129 25z" />
    <glyph glyph-name="ecircumflex" unicode="&#xea;" horiz-adv-x="449" 
d="M334 511l-87 77l-87 -77h-67l124 145h60l124 -145h-67zM231 404c-60 0 -95 -28 -105 -116h203c0 78 -33 116 -98 116zM413 24c-48 -21 -105 -36 -163 -36c-117 0 -210 69 -210 226c0 159 87 248 207 248c109 0 164 -72 164 -171c0 -20 -1 -47 -2 -58h-286v-7
c0 -129 73 -170 146 -170c45 0 88 8 129 25z" />
    <glyph glyph-name="edieresis" unicode="&#xeb;" horiz-adv-x="449" 
d="M284 595c0 20 33 54 50 54c16 0 56 -25 56 -45s-34 -54 -50 -54c-17 0 -56 26 -56 45zM105 595c0 20 33 54 50 54c16 0 56 -25 56 -45s-34 -54 -50 -54c-17 0 -56 26 -56 45zM231 404c-60 0 -95 -28 -105 -116h203c0 78 -33 116 -98 116zM413 24
c-48 -21 -105 -36 -163 -36c-117 0 -210 69 -210 226c0 159 87 248 207 248c109 0 164 -72 164 -171c0 -20 -1 -47 -2 -58h-286v-7c0 -129 73 -170 146 -170c45 0 88 8 129 25z" />
    <glyph glyph-name="emacron" unicode="&#x113;" horiz-adv-x="449" 
d="M379 615v-15l-18 -46h-245v15l18 46h245zM231 404c-60 0 -95 -28 -105 -116h203c0 78 -33 116 -98 116zM413 24c-48 -21 -105 -36 -163 -36c-117 0 -210 69 -210 226c0 159 87 248 207 248c109 0 164 -72 164 -171c0 -20 -1 -47 -2 -58h-286v-7c0 -129 73 -170 146 -170
c45 0 88 8 129 25z" />
    <glyph glyph-name="ebreve" unicode="&#x115;" horiz-adv-x="449" 
d="M237 577c55 0 83 39 93 89h50c0 -84 -68 -155 -148 -155c-90 0 -137 71 -137 155h50c10 -50 37 -89 92 -89zM231 404c-60 0 -95 -28 -105 -116h203c0 78 -33 116 -98 116zM413 24c-48 -21 -105 -36 -163 -36c-117 0 -210 69 -210 226c0 159 87 248 207 248
c109 0 164 -72 164 -171c0 -20 -1 -47 -2 -58h-286v-7c0 -129 73 -170 146 -170c45 0 88 8 129 25z" />
    <glyph glyph-name="edotaccent" unicode="&#x117;" horiz-adv-x="449" 
d="M181 590c0 22 37 60 56 60c18 0 62 -28 62 -51c0 -22 -38 -59 -56 -59c-19 0 -62 28 -62 50zM231 404c-60 0 -95 -28 -105 -116h203c0 78 -33 116 -98 116zM413 24c-48 -21 -105 -36 -163 -36c-117 0 -210 69 -210 226c0 159 87 248 207 248c109 0 164 -72 164 -171
c0 -20 -1 -47 -2 -58h-286v-7c0 -129 73 -170 146 -170c45 0 88 8 129 25z" />
    <glyph glyph-name="eogonek" unicode="&#x119;" horiz-adv-x="449" 
d="M231 404c-60 0 -95 -28 -105 -116h203c0 78 -33 116 -98 116zM393 -183c-18 -10 -41 -21 -74 -21c-54 0 -84 32 -84 81c0 44 34 86 70 115c-18 -2 -37 -4 -55 -4c-117 0 -210 69 -210 226c0 159 87 248 207 248c109 0 164 -72 164 -171c0 -20 -1 -47 -2 -58h-286v-7
c0 -129 73 -170 146 -170c45 0 88 8 129 25l15 -57l-30 -12h5c-53 -39 -93 -88 -93 -126c0 -27 21 -41 43 -41c16 0 32 8 41 13z" />
    <glyph glyph-name="ecaron" unicode="&#x11b;" horiz-adv-x="449" 
d="M263 515h-60l-124 145h67l87 -77l87 77h67zM231 404c-60 0 -95 -28 -105 -116h203c0 78 -33 116 -98 116zM413 24c-48 -21 -105 -36 -163 -36c-117 0 -210 69 -210 226c0 159 87 248 207 248c109 0 164 -72 164 -171c0 -20 -1 -47 -2 -58h-286v-7
c0 -129 73 -170 146 -170c45 0 88 8 129 25z" />
    <glyph glyph-name="f" unicode="f" horiz-adv-x="307" 
d="M289 389h-112v-389h-86v389h-61v51l61 10v41c0 150 84 212 195 212c17 0 38 -3 51 -6l-13 -68c-22 5 -43 7 -69 7c-42 0 -78 -30 -78 -101v-85h119z" />
    <glyph glyph-name="g" unicode="g" horiz-adv-x="460" 
d="M299 308c0 73 -48 98 -100 98s-78 -20 -78 -89c0 -68 47 -98 99 -98c47 0 79 22 79 89zM426 -31c0 -97 -111 -177 -240 -177c-100 0 -164 40 -164 106c0 37 27 71 69 99c16 11 35 22 52 32c-37 12 -55 36 -55 63c0 25 22 54 52 79c-60 17 -101 63 -101 132
c0 99 76 159 187 159c35 0 67 -9 92 -25c32 6 129 26 129 25v-75h-19l-68 8c14 -21 21 -46 21 -74c0 -100 -78 -158 -183 -158h-6c-14 -13 -26 -27 -26 -42c0 -20 18 -30 68 -38l90 -15c59 -10 102 -31 102 -99zM217 -144c76 0 129 42 129 89c0 32 -22 51 -83 61l-62 11
c-16 -9 -32 -17 -49 -29c-31 -22 -49 -44 -49 -72c0 -36 38 -60 114 -60z" />
    <glyph glyph-name="gcircumflex" unicode="&#x11d;" horiz-adv-x="460" 
d="M304 511l-87 77l-87 -77h-67l124 145h60l124 -145h-67zM299 308c0 73 -48 98 -100 98s-78 -20 -78 -89c0 -68 47 -98 99 -98c47 0 79 22 79 89zM426 -31c0 -97 -111 -177 -240 -177c-100 0 -164 40 -164 106c0 37 27 71 69 99c16 11 35 22 52 32c-37 12 -55 36 -55 63
c0 25 22 54 52 79c-60 17 -101 63 -101 132c0 99 76 159 187 159c35 0 67 -9 92 -25c32 6 129 26 129 25v-75h-19l-68 8c14 -21 21 -46 21 -74c0 -100 -78 -158 -183 -158h-6c-14 -13 -26 -27 -26 -42c0 -20 18 -30 68 -38l90 -15c59 -10 102 -31 102 -99zM217 -144
c76 0 129 42 129 89c0 32 -22 51 -83 61l-62 11c-16 -9 -32 -17 -49 -29c-31 -22 -49 -44 -49 -72c0 -36 38 -60 114 -60z" />
    <glyph glyph-name="gbreve" unicode="&#x11f;" horiz-adv-x="460" 
d="M206 577c55 0 83 39 93 89h50c0 -84 -68 -155 -148 -155c-90 0 -137 71 -137 155h50c10 -50 37 -89 92 -89zM299 308c0 73 -48 98 -100 98s-78 -20 -78 -89c0 -68 47 -98 99 -98c47 0 79 22 79 89zM426 -31c0 -97 -111 -177 -240 -177c-100 0 -164 40 -164 106
c0 37 27 71 69 99c16 11 35 22 52 32c-37 12 -55 36 -55 63c0 25 22 54 52 79c-60 17 -101 63 -101 132c0 99 76 159 187 159c35 0 67 -9 92 -25c32 6 129 26 129 25v-75h-19l-68 8c14 -21 21 -46 21 -74c0 -100 -78 -158 -183 -158h-6c-14 -13 -26 -27 -26 -42
c0 -20 18 -30 68 -38l90 -15c59 -10 102 -31 102 -99zM217 -144c76 0 129 42 129 89c0 32 -22 51 -83 61l-62 11c-16 -9 -32 -17 -49 -29c-31 -22 -49 -44 -49 -72c0 -36 38 -60 114 -60z" />
    <glyph glyph-name="gdotaccent" unicode="&#x121;" horiz-adv-x="460" 
d="M150 590c0 22 37 60 56 60c18 0 62 -28 62 -51c0 -22 -38 -59 -56 -59c-19 0 -62 28 -62 50zM299 308c0 73 -48 98 -100 98s-78 -20 -78 -89c0 -68 47 -98 99 -98c47 0 79 22 79 89zM426 -31c0 -97 -111 -177 -240 -177c-100 0 -164 40 -164 106c0 37 27 71 69 99
c16 11 35 22 52 32c-37 12 -55 36 -55 63c0 25 22 54 52 79c-60 17 -101 63 -101 132c0 99 76 159 187 159c35 0 67 -9 92 -25c32 6 129 26 129 25v-75h-19l-68 8c14 -21 21 -46 21 -74c0 -100 -78 -158 -183 -158h-6c-14 -13 -26 -27 -26 -42c0 -20 18 -30 68 -38l90 -15
c59 -10 102 -31 102 -99zM217 -144c76 0 129 42 129 89c0 32 -22 51 -83 61l-62 11c-16 -9 -32 -17 -49 -29c-31 -22 -49 -44 -49 -72c0 -36 38 -60 114 -60z" />
    <glyph glyph-name="gcommaaccent" unicode="&#x123;" horiz-adv-x="460" 
d="M265 548c0 -18 -24 -40 -44 -40s-55 36 -55 61s17 63 61 143l44 -17c-25 -52 -37 -86 -37 -99c0 -11 31 -28 31 -48zM299 308c0 73 -48 98 -100 98s-78 -20 -78 -89c0 -68 47 -98 99 -98c47 0 79 22 79 89zM426 -31c0 -97 -111 -177 -240 -177c-100 0 -164 40 -164 106
c0 37 27 71 69 99c16 11 35 22 52 32c-37 12 -55 36 -55 63c0 25 22 54 52 79c-60 17 -101 63 -101 132c0 99 76 159 187 159c35 0 67 -9 92 -25c32 6 129 26 129 25v-75h-19l-68 8c14 -21 21 -46 21 -74c0 -100 -78 -158 -183 -158h-6c-14 -13 -26 -27 -26 -42
c0 -20 18 -30 68 -38l90 -15c59 -10 102 -31 102 -99zM217 -144c76 0 129 42 129 89c0 32 -22 51 -83 61l-62 11c-16 -9 -32 -17 -49 -29c-31 -22 -49 -44 -49 -72c0 -36 38 -60 114 -60z" />
    <glyph glyph-name="h" unicode="h" horiz-adv-x="502" 
d="M263 392c-32 0 -71 -15 -105 -29v-363h-86v678l86 14v-275c41 23 98 45 141 45c69 0 138 -41 138 -131v-331h-86v297c0 60 -34 95 -88 95z" />
    <glyph glyph-name="hcircumflex" unicode="&#x125;" horiz-adv-x="502" 
d="M207 701l-87 77l-87 -77h-67l124 145h60l124 -145h-67zM263 392c-32 0 -71 -15 -105 -29v-363h-86v678l86 14v-275c41 23 98 45 141 45c69 0 138 -41 138 -131v-331h-86v297c0 60 -34 95 -88 95z" />
    <glyph glyph-name="i" unicode="i" horiz-adv-x="230" 
d="M58 598c0 22 37 60 56 60c18 0 62 -28 62 -51c0 -22 -38 -59 -56 -59c-19 0 -62 28 -62 50zM72 448l86 14v-462h-86v448z" />
    <glyph glyph-name="igrave" unicode="&#xec;" horiz-adv-x="230" 
d="M215 511h-70l-148 128l89 17zM158 462v-462h-86v448z" />
    <glyph glyph-name="iacute" unicode="&#xed;" horiz-adv-x="230" 
d="M58 511l129 145l89 -17l-148 -128h-70zM158 462v-462h-86v448z" />
    <glyph glyph-name="icircumflex" unicode="&#xee;" horiz-adv-x="230" 
d="M202 511l-87 77l-87 -77h-67l124 145h60l124 -145h-67zM158 462v-462h-86v448z" />
    <glyph glyph-name="idieresis" unicode="&#xef;" horiz-adv-x="230" 
d="M137 595c0 20 33 54 50 54c16 0 56 -25 56 -45s-34 -54 -50 -54c-17 0 -56 26 -56 45zM-12 595c0 20 33 54 50 54c16 0 56 -25 56 -45s-34 -54 -50 -54c-17 0 -56 26 -56 45zM158 462v-462h-86v448z" />
    <glyph glyph-name="itilde" unicode="&#x129;" horiz-adv-x="230" 
d="M226 633l29 -37c-19 -24 -46 -57 -87 -57c-36 0 -81 32 -107 32c-25 0 -49 -21 -53 -25l-33 36c16 17 51 58 92 58c42 0 74 -30 103 -30c25 0 38 10 56 23zM158 462v-462h-86v448z" />
    <glyph glyph-name="imacron" unicode="&#x12b;" horiz-adv-x="230" 
d="M226 612v-15l-18 -50h-204v15l18 50h204zM158 462v-462h-86v448z" />
    <glyph glyph-name="ibreve" unicode="&#x12d;" horiz-adv-x="230" 
d="M115 582c55 0 81 48 91 98h47c0 -84 -61 -163 -141 -163c-90 0 -135 79 -135 163h47c10 -50 36 -98 91 -98zM158 462v-462h-86v448z" />
    <glyph glyph-name="iogonek" unicode="&#x12f;" horiz-adv-x="230" 
d="M58 598c0 22 37 60 56 60c18 0 62 -28 62 -51c0 -22 -38 -59 -56 -59c-19 0 -62 28 -62 50zM107 0h-35v448l86 14v-462h6c-53 -39 -93 -88 -93 -126c0 -27 21 -41 43 -41c16 0 32 8 41 13l14 -41c-18 -10 -41 -21 -74 -21c-54 0 -84 32 -84 81c0 55 54 107 96 135z" />
    <glyph glyph-name="j" unicode="j" horiz-adv-x="230" 
d="M56 598c0 22 37 60 56 60c18 0 62 -28 62 -51c0 -22 -38 -59 -56 -59c-19 0 -62 28 -62 50zM72 -16v464l86 14v-467c0 -120 -69 -220 -183 -220l-16 64c73 14 113 38 113 145z" />
    <glyph glyph-name="jcircumflex" unicode="&#x135;" horiz-adv-x="230" 
d="M207 511l-87 77l-87 -77h-67l124 145h60l124 -145h-67zM72 -16v464l86 14v-467c0 -120 -69 -220 -183 -220l-16 64c73 14 113 38 113 145z" />
    <glyph glyph-name="k" unicode="k" horiz-adv-x="449" 
d="M72 0v678l86 14v-692h-86zM448 0h-104l-185 245l-1 1l181 204h97l-186 -200z" />
    <glyph glyph-name="kcommaaccent" unicode="&#x137;" horiz-adv-x="449" 
d="M72 0v678l86 14v-692h-86zM448 0h-104l-185 245l-1 1l181 204h97l-186 -200zM184 -84c0 18 24 40 44 40s55 -36 55 -61s-17 -63 -61 -143l-44 17c25 52 37 86 37 99c0 11 -31 28 -31 48z" />
    <glyph glyph-name="l" unicode="l" horiz-adv-x="265" 
d="M231 65l9 -61c-15 -7 -53 -16 -81 -16c-50 0 -87 28 -87 86v604l85 14v-602c0 -21 14 -32 34 -32c12 0 30 3 40 7z" />
    <glyph glyph-name="lacute" unicode="&#x13a;" horiz-adv-x="265" 
d="M64 713l129 145l89 -17l-148 -128h-70zM231 65l9 -61c-15 -7 -53 -16 -81 -16c-50 0 -87 28 -87 86v604l85 14v-602c0 -21 14 -32 34 -32c12 0 30 3 40 7z" />
    <glyph glyph-name="lcommaaccent" unicode="&#x13c;" horiz-adv-x="265" 
d="M231 65l9 -61c-15 -7 -53 -16 -81 -16c-50 0 -87 28 -87 86v604l85 14v-602c0 -21 14 -32 34 -32c12 0 30 3 40 7zM106 -84c0 18 24 40 44 40s55 -36 55 -61s-17 -63 -61 -143l-44 17c25 52 37 86 37 99c0 11 -31 28 -31 48z" />
    <glyph glyph-name="lcaron" unicode="&#x13e;" horiz-adv-x="320" 
d="M227 661c2 16 30 32 51 32s40 -44 40 -78c0 -38 -20 -79 -72 -152l-35 22c24 44 39 74 39 101c0 34 -23 62 -23 75zM231 65l9 -61c-15 -7 -53 -16 -81 -16c-50 0 -87 28 -87 86v604l85 14v-602c0 -21 14 -32 34 -32c12 0 30 3 40 7z" />
    <glyph glyph-name="m" unicode="m" horiz-adv-x="761" 
d="M261 393c-33 0 -71 -15 -103 -31v-362h-86v448l62 14l19 -48c39 22 98 48 142 48c53 0 92 -20 113 -56c40 23 110 56 157 56c84 0 132 -51 132 -133v-329h-86v297c0 64 -29 96 -80 96c-35 0 -74 -17 -107 -32c2 -10 3 -21 3 -32v-329h-86v297c0 64 -29 96 -80 96z" />
    <glyph glyph-name="n" unicode="n" horiz-adv-x="502" 
d="M264 392c-34 0 -74 -15 -106 -30v-362h-86v448l62 14l19 -48c40 22 101 48 146 48c84 0 138 -51 138 -133v-329h-86v297c0 64 -36 95 -87 95z" />
    <glyph glyph-name="ntilde" unicode="&#xf1;" horiz-adv-x="502" 
d="M384 631l33 -35c-21 -28 -58 -69 -100 -69c-36 0 -97 33 -123 33s-60 -30 -65 -35l-30 35c18 20 61 67 103 67s88 -30 117 -30c26 0 48 17 65 34zM264 392c-34 0 -74 -15 -106 -30v-362h-86v448l62 14l19 -48c40 22 101 48 146 48c84 0 138 -51 138 -133v-329h-86v297
c0 64 -36 95 -87 95z" />
    <glyph glyph-name="nacute" unicode="&#x144;" horiz-adv-x="502" 
d="M177 511l129 145l89 -17l-148 -128h-70zM264 392c-34 0 -74 -15 -106 -30v-362h-86v448l62 14l19 -48c40 22 101 48 146 48c84 0 138 -51 138 -133v-329h-86v297c0 64 -36 95 -87 95z" />
    <glyph glyph-name="ncommaaccent" unicode="&#x146;" horiz-adv-x="502" 
d="M264 392c-34 0 -74 -15 -106 -30v-362h-86v448l62 14l19 -48c40 22 101 48 146 48c84 0 138 -51 138 -133v-329h-86v297c0 64 -36 95 -87 95zM207 -84c0 18 24 40 44 40s55 -36 55 -61s-17 -63 -61 -143l-44 17c25 52 37 86 37 99c0 11 -31 28 -31 48z" />
    <glyph glyph-name="ncaron" unicode="&#x148;" horiz-adv-x="502" 
d="M284 515h-60l-124 145h67l87 -77l87 77h67zM264 392c-34 0 -74 -15 -106 -30v-362h-86v448l62 14l19 -48c40 22 101 48 146 48c84 0 138 -51 138 -133v-329h-86v297c0 64 -36 95 -87 95z" />
    <glyph glyph-name="o" unicode="o" horiz-adv-x="499" 
d="M463 234c0 -155 -92 -246 -229 -247c-117 1 -198 84 -198 229c0 155 92 246 232 246c120 0 195 -83 195 -228zM376 213c0 135 -56 184 -137 184c-75 0 -116 -52 -116 -160c0 -135 56 -184 137 -184c75 0 116 53 116 160z" />
    <glyph glyph-name="ograve" unicode="&#xf2;" horiz-adv-x="499" 
d="M383 511h-70l-148 128l89 17zM463 234c0 -155 -92 -246 -229 -247c-117 1 -198 84 -198 229c0 155 92 246 232 246c120 0 195 -83 195 -228zM376 213c0 135 -56 184 -137 184c-75 0 -116 -52 -116 -160c0 -135 56 -184 137 -184c75 0 116 53 116 160z" />
    <glyph glyph-name="oacute" unicode="&#xf3;" horiz-adv-x="499" 
d="M176 511l129 145l89 -17l-148 -128h-70zM463 234c0 -155 -92 -246 -229 -247c-117 1 -198 84 -198 229c0 155 92 246 232 246c120 0 195 -83 195 -228zM376 213c0 135 -56 184 -137 184c-75 0 -116 -52 -116 -160c0 -135 56 -184 137 -184c75 0 116 53 116 160z" />
    <glyph glyph-name="ocircumflex" unicode="&#xf4;" horiz-adv-x="499" 
d="M340 511l-87 77l-87 -77h-67l124 145h60l124 -145h-67zM463 234c0 -155 -92 -246 -229 -247c-117 1 -198 84 -198 229c0 155 92 246 232 246c120 0 195 -83 195 -228zM376 213c0 135 -56 184 -137 184c-75 0 -116 -52 -116 -160c0 -135 56 -184 137 -184
c75 0 116 53 116 160z" />
    <glyph glyph-name="otilde" unicode="&#xf5;" horiz-adv-x="499" 
d="M379 631l33 -35c-21 -28 -58 -69 -100 -69c-36 0 -97 33 -123 33s-60 -30 -65 -35l-30 35c18 20 61 67 103 67s88 -30 117 -30c26 0 48 17 65 34zM463 234c0 -155 -92 -246 -229 -247c-117 1 -198 84 -198 229c0 155 92 246 232 246c120 0 195 -83 195 -228zM376 213
c0 135 -56 184 -137 184c-75 0 -116 -52 -116 -160c0 -135 56 -184 137 -184c75 0 116 53 116 160z" />
    <glyph glyph-name="odieresis" unicode="&#xf6;" horiz-adv-x="499" 
d="M290 595c0 20 33 54 50 54c16 0 56 -25 56 -45s-34 -54 -50 -54c-17 0 -56 26 -56 45zM111 595c0 20 33 54 50 54c16 0 56 -25 56 -45s-34 -54 -50 -54c-17 0 -56 26 -56 45zM463 234c0 -155 -92 -246 -229 -247c-117 1 -198 84 -198 229c0 155 92 246 232 246
c120 0 195 -83 195 -228zM376 213c0 135 -56 184 -137 184c-75 0 -116 -52 -116 -160c0 -135 56 -184 137 -184c75 0 116 53 116 160z" />
    <glyph glyph-name="omacron" unicode="&#x14d;" horiz-adv-x="499" 
d="M385 615v-15l-18 -46h-245v15l18 46h245zM463 234c0 -155 -92 -246 -229 -247c-117 1 -198 84 -198 229c0 155 92 246 232 246c120 0 195 -83 195 -228zM376 213c0 135 -56 184 -137 184c-75 0 -116 -52 -116 -160c0 -135 56 -184 137 -184c75 0 116 53 116 160z" />
    <glyph glyph-name="obreve" unicode="&#x14f;" horiz-adv-x="499" 
d="M243 577c55 0 83 39 93 89h50c0 -84 -68 -155 -148 -155c-90 0 -137 71 -137 155h50c10 -50 37 -89 92 -89zM463 234c0 -155 -92 -246 -229 -247c-117 1 -198 84 -198 229c0 155 92 246 232 246c120 0 195 -83 195 -228zM376 213c0 135 -56 184 -137 184
c-75 0 -116 -52 -116 -160c0 -135 56 -184 137 -184c75 0 116 53 116 160z" />
    <glyph glyph-name="ohungarumlaut" unicode="&#x151;" horiz-adv-x="499" 
d="M213 511l129 145l89 -17l-148 -128h-70zM88 511l129 145l89 -17l-148 -128h-70zM463 234c0 -155 -92 -246 -229 -247c-117 1 -198 84 -198 229c0 155 92 246 232 246c120 0 195 -83 195 -228zM376 213c0 135 -56 184 -137 184c-75 0 -116 -52 -116 -160
c0 -135 56 -184 137 -184c75 0 116 53 116 160z" />
    <glyph glyph-name="p" unicode="p" horiz-adv-x="508" 
d="M268 54c65 0 117 52 117 173c0 128 -70 166 -125 166c-34 0 -70 -11 -102 -28v-292c32 -11 70 -19 110 -19zM158 -206l-86 -14v668l62 14l20 -51c42 24 101 51 139 51c87 0 179 -65 179 -226c0 -172 -115 -248 -215 -248c-36 0 -70 7 -99 16v-210z" />
    <glyph glyph-name="q" unicode="q" horiz-adv-x="508" 
d="M350 -220v256c-42 -23 -98 -48 -135 -48c-87 0 -179 65 -179 226c0 172 115 248 215 248c43 0 84 -10 116 -22l31 34l38 -12v-668zM248 56c34 0 70 12 102 29v292c-32 11 -70 19 -110 19c-65 0 -117 -52 -117 -173c0 -128 70 -167 125 -167z" />
    <glyph glyph-name="r" unicode="r" horiz-adv-x="328" 
d="M266 380c-37 -1 -77 -14 -108 -32v-348h-86v448l62 14l22 -59c31 24 87 59 144 59c4 0 10 0 13 -1l-10 -83c-9 2 -24 2 -37 2z" />
    <glyph glyph-name="racute" unicode="&#x155;" horiz-adv-x="328" 
d="M115 511l129 145l89 -17l-148 -128h-70zM266 380c-37 -1 -77 -14 -108 -32v-348h-86v448l62 14l22 -59c31 24 87 59 144 59c4 0 10 0 13 -1l-10 -83c-9 2 -24 2 -37 2z" />
    <glyph glyph-name="rcommaaccent" unicode="&#x157;" horiz-adv-x="328" 
d="M266 380c-37 -1 -77 -14 -108 -32v-348h-86v448l62 14l22 -59c31 24 87 59 144 59c4 0 10 0 13 -1l-10 -83c-9 2 -24 2 -37 2zM68 -84c0 18 24 40 44 40s55 -36 55 -61s-17 -63 -61 -143l-44 17c25 52 37 86 37 99c0 11 -31 28 -31 48z" />
    <glyph glyph-name="rcaron" unicode="&#x159;" horiz-adv-x="328" 
d="M222 515h-60l-124 145h67l87 -77l87 77h67zM266 380c-37 -1 -77 -14 -108 -32v-348h-86v448l62 14l22 -59c31 24 87 59 144 59c4 0 10 0 13 -1l-10 -83c-9 2 -24 2 -37 2z" />
    <glyph glyph-name="s" unicode="s" horiz-adv-x="395" 
d="M180 -12c-58 0 -111 13 -144 25l15 69c51 -18 97 -30 154 -30c38 0 72 20 72 62c0 34 -28 56 -68 72l-66 26c-50 20 -96 50 -96 118c0 82 89 132 161 132c65 0 119 -11 143 -21l-17 -68c-47 14 -99 26 -134 26c-46 0 -74 -20 -74 -54s19 -52 69 -71l57 -22
c60 -23 107 -56 107 -122c0 -91 -93 -142 -179 -142z" />
    <glyph glyph-name="sacute" unicode="&#x15b;" horiz-adv-x="395" 
d="M140 511l129 145l89 -17l-148 -128h-70zM180 -12c-58 0 -111 13 -144 25l15 69c51 -18 97 -30 154 -30c38 0 72 20 72 62c0 34 -28 56 -68 72l-66 26c-50 20 -96 50 -96 118c0 82 89 132 161 132c65 0 119 -11 143 -21l-17 -68c-47 14 -99 26 -134 26
c-46 0 -74 -20 -74 -54s19 -52 69 -71l57 -22c60 -23 107 -56 107 -122c0 -91 -93 -142 -179 -142z" />
    <glyph glyph-name="scircumflex" unicode="&#x15d;" horiz-adv-x="395" 
d="M290 511l-87 77l-87 -77h-67l124 145h60l124 -145h-67zM180 -12c-58 0 -111 13 -144 25l15 69c51 -18 97 -30 154 -30c38 0 72 20 72 62c0 34 -28 56 -68 72l-66 26c-50 20 -96 50 -96 118c0 82 89 132 161 132c65 0 119 -11 143 -21l-17 -68c-47 14 -99 26 -134 26
c-46 0 -74 -20 -74 -54s19 -52 69 -71l57 -22c60 -23 107 -56 107 -122c0 -91 -93 -142 -179 -142z" />
    <glyph glyph-name="scedilla" unicode="&#x15f;" horiz-adv-x="395" 
d="M117 -230l-11 43c59 7 100 16 100 45c0 19 -24 32 -76 46l-3 5l37 79c-51 2 -98 14 -128 25l15 69c51 -18 97 -30 154 -30c38 0 72 20 72 62c0 34 -28 56 -68 72l-66 26c-50 20 -96 50 -96 118c0 82 89 132 161 132c65 0 119 -11 143 -21l-17 -68c-47 14 -99 26 -134 26
c-46 0 -74 -20 -74 -54s19 -52 69 -71l57 -22c60 -23 107 -56 107 -122c0 -80 -71 -129 -146 -140l-21 -44c46 -21 78 -35 78 -74c0 -43 -44 -92 -153 -102z" />
    <glyph glyph-name="scaron" unicode="&#x161;" horiz-adv-x="395" 
d="M237 515h-60l-124 145h67l87 -77l87 77h67zM180 -12c-58 0 -111 13 -144 25l15 69c51 -18 97 -30 154 -30c38 0 72 20 72 62c0 34 -28 56 -68 72l-66 26c-50 20 -96 50 -96 118c0 82 89 132 161 132c65 0 119 -11 143 -21l-17 -68c-47 14 -99 26 -134 26
c-46 0 -74 -20 -74 -54s19 -52 69 -71l57 -22c60 -23 107 -56 107 -122c0 -91 -93 -142 -179 -142z" />
    <glyph glyph-name="scommaaccent" unicode="&#x219;" horiz-adv-x="395" 
d="M180 -12c-58 0 -111 13 -144 25l15 69c51 -18 97 -30 154 -30c38 0 72 20 72 62c0 34 -28 56 -68 72l-66 26c-50 20 -96 50 -96 118c0 82 89 132 161 132c65 0 119 -11 143 -21l-17 -68c-47 14 -99 26 -134 26c-46 0 -74 -20 -74 -54s19 -52 69 -71l57 -22
c60 -23 107 -56 107 -122c0 -91 -93 -142 -179 -142zM150 -84c0 18 24 40 44 40s55 -36 55 -61s-17 -63 -61 -143l-44 17c25 52 37 86 37 99c0 11 -31 28 -31 48z" />
    <glyph glyph-name="t" unicode="t" horiz-adv-x="342" 
d="M328 15c-29 -14 -83 -27 -121 -27c-65 0 -124 38 -123 117l3 284h-74v51l75 10l1 76l86 14l-1 -90h148l-10 -61h-139l-3 -256c-1 -52 27 -73 67 -73c32 0 64 7 83 13z" />
    <glyph glyph-name="tcommaaccent" unicode="&#x163;" horiz-adv-x="342" 
d="M328 15c-29 -14 -83 -27 -121 -27c-65 0 -124 38 -123 117l3 284h-74v51l75 10l1 76l86 14l-1 -90h148l-10 -61h-139l-3 -256c-1 -52 27 -73 67 -73c32 0 64 7 83 13zM156 -84c0 18 24 40 44 40s55 -36 55 -61s-17 -63 -61 -143l-44 17c25 52 37 86 37 99
c0 11 -31 28 -31 48z" />
    <glyph glyph-name="tcaron" unicode="&#x165;" horiz-adv-x="342" 
d="M246 682c2 16 30 32 51 32s40 -44 40 -78c0 -38 -20 -79 -72 -152l-35 22c24 44 39 74 39 101c0 34 -23 62 -23 75zM328 15c-29 -14 -83 -27 -121 -27c-65 0 -124 38 -123 117l3 284h-74v51l75 10l1 76l86 14l-1 -90h148l-10 -61h-139l-3 -256c-1 -52 27 -73 67 -73
c32 0 64 7 83 13z" />
    <glyph glyph-name="uni021B" unicode="&#x21b;" horiz-adv-x="342" 
d="M270 -128c0 -43 -44 -92 -153 -102l-11 43c59 7 100 16 100 45c0 19 -24 32 -76 46l-3 5l40 84c-47 13 -84 50 -83 112l3 284h-74v51l75 10l1 76l86 14l-1 -90h148l-10 -61h-139l-3 -256c-1 -52 27 -73 67 -73c32 0 64 7 83 13l8 -58c-29 -14 -83 -27 -117 -27l-19 -42
c46 -21 78 -35 78 -74z" />
    <glyph glyph-name="u" unicode="u" horiz-adv-x="502" 
d="M371 -12l-21 48c-40 -22 -102 -48 -147 -48c-84 0 -138 51 -138 133v327l86 14v-309c0 -64 37 -96 88 -96c34 0 73 16 105 31v360l86 14v-460z" />
    <glyph glyph-name="ugrave" unicode="&#xf9;" horiz-adv-x="502" 
d="M367 511h-70l-148 128l89 17zM371 -12l-21 48c-40 -22 -102 -48 -147 -48c-84 0 -138 51 -138 133v327l86 14v-309c0 -64 37 -96 88 -96c34 0 73 16 105 31v360l86 14v-460z" />
    <glyph glyph-name="uacute" unicode="&#xfa;" horiz-adv-x="502" 
d="M180 511l129 145l89 -17l-148 -128h-70zM371 -12l-21 48c-40 -22 -102 -48 -147 -48c-84 0 -138 51 -138 133v327l86 14v-309c0 -64 37 -96 88 -96c34 0 73 16 105 31v360l86 14v-460z" />
    <glyph glyph-name="ucircumflex" unicode="&#xfb;" horiz-adv-x="502" 
d="M344 511l-87 77l-87 -77h-67l124 145h60l124 -145h-67zM371 -12l-21 48c-40 -22 -102 -48 -147 -48c-84 0 -138 51 -138 133v327l86 14v-309c0 -64 37 -96 88 -96c34 0 73 16 105 31v360l86 14v-460z" />
    <glyph glyph-name="udieresis" unicode="&#xfc;" horiz-adv-x="502" 
d="M290 595c0 20 33 54 50 54c16 0 56 -25 56 -45s-34 -54 -50 -54c-17 0 -56 26 -56 45zM111 595c0 20 33 54 50 54c16 0 56 -25 56 -45s-34 -54 -50 -54c-17 0 -56 26 -56 45zM371 -12l-21 48c-40 -22 -102 -48 -147 -48c-84 0 -138 51 -138 133v327l86 14v-309
c0 -64 37 -96 88 -96c34 0 73 16 105 31v360l86 14v-460z" />
    <glyph glyph-name="utilde" unicode="&#x169;" horiz-adv-x="502" 
d="M373 631l33 -35c-21 -28 -58 -69 -100 -69c-36 0 -97 33 -123 33s-60 -30 -65 -35l-30 35c18 20 61 67 103 67s88 -30 117 -30c26 0 48 17 65 34zM371 -12l-21 48c-40 -22 -102 -48 -147 -48c-84 0 -138 51 -138 133v327l86 14v-309c0 -64 37 -96 88 -96
c34 0 73 16 105 31v360l86 14v-460z" />
    <glyph glyph-name="umacron" unicode="&#x16b;" horiz-adv-x="502" 
d="M379 615v-15l-18 -46h-245v15l18 46h245zM371 -12l-21 48c-40 -22 -102 -48 -147 -48c-84 0 -138 51 -138 133v327l86 14v-309c0 -64 37 -96 88 -96c34 0 73 16 105 31v360l86 14v-460z" />
    <glyph glyph-name="ubreve" unicode="&#x16d;" horiz-adv-x="502" 
d="M242 577c55 0 83 39 93 89h50c0 -84 -68 -155 -148 -155c-90 0 -137 71 -137 155h50c10 -50 37 -89 92 -89zM371 -12l-21 48c-40 -22 -102 -48 -147 -48c-84 0 -138 51 -138 133v327l86 14v-309c0 -64 37 -96 88 -96c34 0 73 16 105 31v360l86 14v-460z" />
    <glyph glyph-name="uring" unicode="&#x16f;" horiz-adv-x="502" 
d="M340 593c0 -49 -45 -89 -94 -89s-93 32 -93 89c0 50 45 90 94 90s93 -31 93 -90zM201 593c0 -27 21 -45 45 -45s46 18 46 45c0 29 -22 47 -46 47s-45 -18 -45 -47zM371 -12l-21 48c-40 -22 -102 -48 -147 -48c-84 0 -138 51 -138 133v327l86 14v-309c0 -64 37 -96 88 -96
c34 0 73 16 105 31v360l86 14v-460z" />
    <glyph glyph-name="uhungarumlaut" unicode="&#x171;" horiz-adv-x="502" 
d="M214 511l129 145l89 -17l-148 -128h-70zM89 511l129 145l89 -17l-148 -128h-70zM371 -12l-21 48c-40 -22 -102 -48 -147 -48c-84 0 -138 51 -138 133v327l86 14v-309c0 -64 37 -96 88 -96c34 0 73 16 105 31v360l86 14v-460z" />
    <glyph glyph-name="uogonek" unicode="&#x173;" horiz-adv-x="502" 
d="M362 -216c-54 0 -84 32 -84 81c0 52 49 102 90 131l-18 40c-40 -22 -102 -48 -147 -48c-84 0 -138 51 -138 133v327l86 14v-309c0 -64 37 -96 88 -96c34 0 73 16 105 31v360l86 14v-460l-8 -2h9c-53 -39 -93 -88 -93 -126c0 -27 21 -41 43 -41c16 0 32 8 41 13l14 -41
c-18 -10 -41 -21 -74 -21z" />
    <glyph glyph-name="v" unicode="v" horiz-adv-x="445" 
d="M273 0h-107l-158 444l89 14l128 -383l125 375h87z" />
    <glyph glyph-name="w" unicode="w" horiz-adv-x="699" 
d="M458 0l-111 331l-112 -331h-95l-116 444l87 14l88 -369l112 355l76 14l121 -370l85 362h82l-124 -450h-93z" />
    <glyph glyph-name="wcircumflex" unicode="&#x175;" horiz-adv-x="699" 
d="M420 511l-87 77l-87 -77h-67l124 145h60l124 -145h-67zM458 0l-111 331l-112 -331h-95l-116 444l87 14l88 -369l112 355l76 14l121 -370l85 362h82l-124 -450h-93z" />
    <glyph glyph-name="wgrave" unicode="&#x1e81;" horiz-adv-x="699" 
d="M443 511h-70l-148 128l89 17zM458 0l-111 331l-112 -331h-95l-116 444l87 14l88 -369l112 355l76 14l121 -370l85 362h82l-124 -450h-93z" />
    <glyph glyph-name="wacute" unicode="&#x1e83;" horiz-adv-x="699" 
d="M286 511l129 145l89 -17l-148 -128h-70zM458 0l-111 331l-112 -331h-95l-116 444l87 14l88 -369l112 355l76 14l121 -370l85 362h82l-124 -450h-93z" />
    <glyph glyph-name="wdieresis" unicode="&#x1e85;" horiz-adv-x="699" 
d="M386 595c0 20 33 54 50 54c16 0 56 -25 56 -45s-34 -54 -50 -54c-17 0 -56 26 -56 45zM207 595c0 20 33 54 50 54c16 0 56 -25 56 -45s-34 -54 -50 -54c-17 0 -56 26 -56 45zM458 0l-111 331l-112 -331h-95l-116 444l87 14l88 -369l112 355l76 14l121 -370l85 362h82
l-124 -450h-93z" />
    <glyph glyph-name="x" unicode="x" horiz-adv-x="452" 
d="M338 0l-119 168l-113 -168h-94l167 225l-154 219l91 14l118 -166l105 158h94l-158 -217l165 -233h-102z" />
    <glyph glyph-name="y" unicode="y" horiz-adv-x="445" 
d="M32 -230c-14 0 -22 1 -27 2l-8 74c75 -8 157 18 210 154h-34l-158 443l88 15l130 -383c42 128 107 324 122 375h86c-22 -66 -131 -388 -161 -467c-55 -144 -144 -213 -248 -213z" />
    <glyph glyph-name="yacute" unicode="&#xfd;" horiz-adv-x="445" 
d="M166 511l129 145l89 -17l-148 -128h-70zM32 -230c-14 0 -22 1 -27 2l-8 74c75 -8 157 18 210 154h-34l-158 443l88 15l130 -383c42 128 107 324 122 375h86c-22 -66 -131 -388 -161 -467c-55 -144 -144 -213 -248 -213z" />
    <glyph glyph-name="ydieresis" unicode="&#xff;" horiz-adv-x="445" 
d="M274 595c0 20 33 54 50 54c16 0 56 -25 56 -45s-34 -54 -50 -54c-17 0 -56 26 -56 45zM95 595c0 20 33 54 50 54c16 0 56 -25 56 -45s-34 -54 -50 -54c-17 0 -56 26 -56 45zM32 -230c-14 0 -22 1 -27 2l-8 74c75 -8 157 18 210 154h-34l-158 443l88 15l130 -383
c42 128 107 324 122 375h86c-22 -66 -131 -388 -161 -467c-55 -144 -144 -213 -248 -213z" />
    <glyph glyph-name="ycircumflex" unicode="&#x177;" horiz-adv-x="445" 
d="M319 511l-87 77l-87 -77h-67l124 145h60l124 -145h-67zM32 -230c-14 0 -22 1 -27 2l-8 74c75 -8 157 18 210 154h-34l-158 443l88 15l130 -383c42 128 107 324 122 375h86c-22 -66 -131 -388 -161 -467c-55 -144 -144 -213 -248 -213z" />
    <glyph glyph-name="ygrave" unicode="&#x1ef3;" horiz-adv-x="445" 
d="M343 511h-70l-148 128l89 17zM32 -230c-14 0 -22 1 -27 2l-8 74c75 -8 157 18 210 154h-34l-158 443l88 15l130 -383c42 128 107 324 122 375h86c-22 -66 -131 -388 -161 -467c-55 -144 -144 -213 -248 -213z" />
    <glyph glyph-name="z" unicode="z" horiz-adv-x="415" 
d="M378 0h-342v59l231 325l-228 -2l7 68h324v-59l-235 -326l250 2z" />
    <glyph glyph-name="zacute" unicode="&#x17a;" horiz-adv-x="415" 
d="M143 511l129 145l89 -17l-148 -128h-70zM378 0h-342v59l231 325l-228 -2l7 68h324v-59l-235 -326l250 2z" />
    <glyph glyph-name="zdotaccent" unicode="&#x17c;" horiz-adv-x="415" 
d="M144 590c0 22 37 60 56 60c18 0 62 -28 62 -51c0 -22 -38 -59 -56 -59c-19 0 -62 28 -62 50zM378 0h-342v59l231 325l-228 -2l7 68h324v-59l-235 -326l250 2z" />
    <glyph glyph-name="zcaron" unicode="&#x17e;" horiz-adv-x="415" 
d="M240 515h-60l-124 145h67l87 -77l87 77h67zM378 0h-342v59l231 325l-228 -2l7 68h324v-59l-235 -326l250 2z" />
    <glyph glyph-name="ordfeminine" unicode="&#xaa;" horiz-adv-x="243" 
d="M173 343l-10 24c-16 -9 -47 -24 -74 -24c-33 0 -69 19 -69 61c0 43 47 73 138 77v20c0 33 -20 39 -42 39c-23 0 -53 -9 -76 -15l-13 37c35 12 67 20 105 20c53 0 83 -24 83 -74v-157zM108 383c15 0 35 7 50 13v49c-7 0 -18 1 -33 1c-22 0 -52 -5 -52 -30
c0 -24 17 -33 35 -33z" />
    <glyph glyph-name="ordmasculine" unicode="&#xba;" horiz-adv-x="279" 
d="M262 467c0 -77 -58 -124 -131 -124c-67 0 -110 40 -110 115c0 78 57 124 131 124c70 0 110 -40 110 -115zM202 457c0 67 -27 86 -66 86c-36 0 -56 -18 -56 -74c0 -68 28 -86 67 -86c36 0 55 17 55 74z" />
    <glyph glyph-name="germandbls" unicode="&#xdf;" horiz-adv-x="526" 
d="M353 201l-43 27c-50 32 -72 66 -72 113c0 99 114 132 114 209c0 56 -47 90 -102 90c-54 0 -92 -41 -92 -128v-512h-86v480c0 144 93 223 202 223c96 0 158 -61 158 -131c0 -101 -118 -151 -118 -211c0 -31 18 -44 64 -74l41 -27c53 -35 78 -77 78 -128
c0 -84 -68 -144 -179 -144c-43 0 -78 9 -105 16l13 70c36 -12 72 -25 117 -25c41 0 78 18 78 56s-16 63 -68 96z" />
    <glyph glyph-name="ae" unicode="&#xe6;" horiz-adv-x="697" 
d="M477 404c-57 0 -91 -30 -101 -116h202c0 78 -32 116 -101 116zM661 24c-60 -24 -115 -36 -173 -36c-65 0 -119 23 -153 67c-48 -32 -119 -67 -167 -67c-74 0 -130 47 -130 120c0 84 74 144 254 148v47c0 70 -43 91 -89 91c-40 0 -94 -17 -134 -30l-18 58
c63 24 114 40 182 40c58 0 100 -18 120 -61c37 40 87 61 143 61c110 0 163 -71 163 -176c0 -20 0 -42 -2 -53h-285v-13c0 -130 66 -164 143 -164c38 0 79 6 131 25zM191 53c33 0 81 19 120 42c-11 27 -18 60 -20 97c-15 2 -39 4 -69 4c-63 0 -106 -25 -106 -71
c0 -49 39 -72 75 -72z" />
    <glyph glyph-name="aeacute" unicode="&#x1fd;" horiz-adv-x="697" 
d="M300 511l129 145l89 -17l-148 -128h-70zM477 404c-57 0 -91 -30 -101 -116h202c0 78 -32 116 -101 116zM661 24c-60 -24 -115 -36 -173 -36c-65 0 -119 23 -153 67c-48 -32 -119 -67 -167 -67c-74 0 -130 47 -130 120c0 84 74 144 254 148v47c0 70 -43 91 -89 91
c-40 0 -94 -17 -134 -30l-18 58c63 24 114 40 182 40c58 0 100 -18 120 -61c37 40 87 61 143 61c110 0 163 -71 163 -176c0 -20 0 -42 -2 -53h-285v-13c0 -130 66 -164 143 -164c38 0 79 6 131 25zM191 53c33 0 81 19 120 42c-11 27 -18 60 -20 97c-15 2 -39 4 -69 4
c-63 0 -106 -25 -106 -71c0 -49 39 -72 75 -72z" />
    <glyph glyph-name="eth" unicode="&#xf0;" horiz-adv-x="496" 
d="M231 -12c-105 0 -191 72 -191 218c0 178 121 256 222 256c25 0 50 -4 72 -13c-22 45 -53 84 -94 119l-114 -64l-35 38l106 60c-32 22 -68 43 -109 64l38 38c52 -19 96 -41 135 -66l117 66l35 -38l-107 -61c113 -92 156 -213 156 -347c0 -153 -83 -270 -231 -270zM256 55
c73 0 119 36 120 183c0 49 -5 93 -14 132c-30 16 -70 24 -113 24c-80 0 -123 -50 -123 -166c0 -127 64 -173 130 -173z" />
    <glyph glyph-name="oslash" unicode="&#xf8;" horiz-adv-x="499" 
d="M123 237c0 -69 15 -115 39 -144l139 292c-19 8 -39 12 -62 12c-75 0 -116 -52 -116 -160zM260 53c75 0 116 53 116 160c0 65 -13 109 -35 139l-137 -289c17 -7 36 -10 56 -10zM234 -13c-22 0 -42 3 -61 9l-32 -67h-56l42 88c-57 36 -91 105 -91 199c0 155 92 246 232 246
c23 0 45 -3 65 -9l33 70h56l-44 -92c54 -37 85 -104 85 -197c0 -155 -92 -246 -229 -247z" />
    <glyph glyph-name="oslashacute" unicode="&#x1ff;" horiz-adv-x="507" 
d="M186 511l129 145l89 -17l-148 -128h-70zM123 237c0 -69 15 -115 39 -144l139 292c-19 8 -39 12 -62 12c-75 0 -116 -52 -116 -160zM260 53c75 0 116 53 116 160c0 65 -13 109 -35 139l-137 -289c17 -7 36 -10 56 -10zM234 -13c-22 0 -42 3 -61 9l-32 -67h-56l42 88
c-57 36 -91 105 -91 199c0 155 92 246 232 246c23 0 45 -3 65 -9l33 70h56l-44 -92c54 -37 85 -104 85 -197c0 -155 -92 -246 -229 -247z" />
    <glyph glyph-name="thorn" unicode="&#xfe;" horiz-adv-x="512" 
d="M268 54c65 0 117 52 117 173c0 128 -70 166 -125 166c-34 0 -70 -11 -102 -28v-292c32 -11 70 -19 110 -19zM158 -206l-86 -14v898l86 14v-278c42 23 98 48 135 48c87 0 179 -65 179 -226c0 -172 -115 -248 -215 -248c-36 0 -70 7 -99 16v-210z" />
    <glyph glyph-name="dcroat" unicode="&#x111;" horiz-adv-x="512" 
d="M376 -12l-20 52c-42 -25 -102 -52 -141 -52c-87 0 -179 65 -179 226c0 172 115 248 215 248c36 0 70 -7 99 -16v106h-136v15l18 37h118v74l86 14v-88h74v-15l-18 -37h-56v-550zM248 55c34 0 70 13 102 30v292c-32 11 -70 19 -110 19c-65 0 -117 -52 -117 -173
c0 -128 70 -168 125 -168z" />
    <glyph glyph-name="hbar" unicode="&#x127;" horiz-adv-x="502" 
d="M263 392c-32 0 -71 -15 -105 -29v-363h-86v552h-66v15l17 37h49v74l86 14v-88h144v-15l-17 -37h-127v-135c41 23 98 45 141 45c69 0 138 -41 138 -131v-331h-86v297c0 60 -34 95 -88 95z" />
    <glyph glyph-name="dotlessi" unicode="&#x131;" horiz-adv-x="230" 
d="M158 462v-462h-86v448z" />
    <glyph glyph-name="ij" unicode="&#x133;" horiz-adv-x="460" 
d="M286 598c0 22 37 60 56 60c18 0 62 -28 62 -51c0 -22 -38 -59 -56 -59c-19 0 -62 28 -62 50zM58 598c0 22 37 60 56 60c18 0 62 -28 62 -51c0 -22 -38 -59 -56 -59c-19 0 -62 28 -62 50zM302 -16v464l86 14v-467c0 -120 -69 -220 -183 -220l-16 64c73 14 113 38 113 145z
M72 448l86 14v-462h-86v448z" />
    <glyph glyph-name="ldot" unicode="&#x140;" horiz-adv-x="328" 
d="M231 65l9 -61c-15 -7 -53 -16 -81 -16c-50 0 -87 28 -87 86v604l85 14v-602c0 -21 14 -32 34 -32c12 0 30 3 40 7zM208 256c0 22 37 60 56 60c18 0 62 -28 62 -51c0 -22 -38 -59 -56 -59c-19 0 -62 28 -62 50z" />
    <glyph glyph-name="lslash" unicode="&#x142;" horiz-adv-x="265" 
d="M159 -12c-50 0 -87 28 -87 86v211l-60 -25v64l60 25v329l85 14v-306l81 34v-64l-81 -34v-232c0 -21 14 -32 34 -32c12 0 30 3 40 7l9 -61c-15 -7 -53 -16 -81 -16z" />
    <glyph glyph-name="eng" unicode="&#x14b;" horiz-adv-x="502" 
d="M254 -225l-16 64c73 14 113 42 113 149v309c0 64 -36 95 -87 95c-34 0 -74 -15 -106 -30v-362h-86v448l62 14l19 -48c40 22 101 48 146 48c84 0 138 -51 138 -133v-334c0 -120 -69 -220 -183 -220z" />
    <glyph glyph-name="oe" unicode="&#x153;" horiz-adv-x="789" 
d="M571 404c-60 0 -95 -28 -105 -116h203c0 78 -33 116 -98 116zM376 213c0 135 -56 184 -137 184c-75 0 -116 -52 -116 -160c0 -135 56 -184 137 -184c75 0 116 53 116 160zM590 -12c-73 0 -136 27 -174 84c-40 -54 -104 -84 -182 -85c-117 1 -198 84 -198 229
c0 155 92 246 232 246c70 0 125 -28 158 -80c37 52 94 80 161 80c109 0 164 -72 164 -171c0 -20 -1 -47 -2 -58h-286v-7c0 -129 73 -170 146 -170c45 0 88 8 129 25l15 -57c-48 -21 -105 -36 -163 -36z" />
    <glyph glyph-name="tbar" unicode="&#x167;" horiz-adv-x="342" 
d="M328 15c-29 -14 -83 -27 -121 -27c-65 0 -124 38 -123 117l1 118h-69v15l17 37h53l1 114h-74v51l75 10l1 76l86 14l-1 -90h148l-10 -61h-139l-1 -114h125v-15l-17 -37h-109l-1 -90c-1 -52 27 -73 67 -73c32 0 64 7 83 13z" />
    <glyph glyph-name="commaaccent" unicode="&#x326;" horiz-adv-x="252" 
d="M79 -84c0 18 24 40 44 40s55 -36 55 -61s-17 -63 -61 -143l-44 17c25 52 37 86 37 99c0 11 -31 28 -31 48z" />
    <glyph glyph-name="zero" unicode="0" horiz-adv-x="525" 
d="M489 318c0 -210 -95 -330 -242 -330c-135 0 -211 111 -211 306c0 210 95 330 242 330c135 0 211 -111 211 -306zM397 306c0 185 -63 248 -146 248c-76 0 -125 -58 -125 -248c0 -185 63 -249 146 -249c76 0 125 59 125 249z" />
    <glyph glyph-name="one" unicode="1" horiz-adv-x="525" 
d="M354 0h-89v534l-133 -58l-22 73c49 14 116 39 182 63h62v-612z" />
    <glyph glyph-name="two" unicode="2" horiz-adv-x="525" 
d="M446 0h-376v74c190 174 276 279 276 370c0 64 -47 109 -113 109c-39 0 -93 -16 -138 -35l-24 65c65 26 127 41 186 41c113 0 187 -65 187 -167c0 -116 -117 -237 -283 -385l300 7z" />
    <glyph glyph-name="three" unicode="3" horiz-adv-x="525" 
d="M200 -12c-49 0 -105 7 -138 16l20 74c53 -15 115 -20 142 -20c75 0 121 35 121 104c0 76 -61 117 -141 117c-16 0 -34 -1 -47 -2l-14 67c122 0 185 42 185 111c0 68 -53 99 -107 99c-44 0 -83 -12 -128 -33l-23 64c43 19 114 39 175 39c96 0 171 -50 171 -139
c0 -77 -55 -137 -123 -161c90 -17 142 -69 142 -143c0 -119 -113 -193 -235 -193z" />
    <glyph glyph-name="four" unicode="4" horiz-adv-x="525" 
d="M310 200v291l-218 -291h218zM480 131h-85v-131h-85v131h-307v57l329 436h63v-424h111z" />
    <glyph glyph-name="five" unicode="5" horiz-adv-x="525" 
d="M181 -12c-39 0 -85 9 -118 17l22 75c50 -16 111 -24 146 -24c84 0 133 45 133 114c0 93 -88 126 -161 126c-38 0 -77 -5 -103 -10l17 326h330l-16 -74h-244l-11 -175c19 3 39 5 64 5c129 0 213 -71 213 -168c0 -123 -96 -212 -272 -212z" />
    <glyph glyph-name="six" unicode="6" horiz-adv-x="525" 
d="M471 200c0 -116 -89 -212 -212 -212c-122 0 -205 96 -205 276c0 245 113 360 278 360c43 0 91 -8 118 -16l-19 -81c-27 8 -76 24 -129 24c-90 0 -145 -46 -157 -218c28 17 84 45 148 45c122 0 178 -79 178 -178zM279 55c64 0 104 43 104 123c0 66 -33 130 -124 130
c-42 0 -85 -15 -117 -32v-26c0 -111 43 -195 137 -195z" />
    <glyph glyph-name="seven" unicode="7" horiz-adv-x="525" 
d="M218 -13l-88 30c47 114 180 393 247 518l-319 -3l14 79h390v-65c-56 -107 -200 -439 -244 -559z" />
    <glyph glyph-name="eight" unicode="8" horiz-adv-x="525" 
d="M244 -12c-115 0 -190 59 -190 149c0 78 60 128 132 173c-70 41 -107 84 -107 154c0 86 78 159 201 159c87 0 166 -47 166 -131c0 -63 -46 -113 -119 -159c106 -53 143 -96 143 -165c0 -93 -88 -180 -226 -180zM162 476c0 -39 26 -73 110 -117c56 35 93 70 93 116
c0 42 -39 84 -113 84c-62 0 -90 -36 -90 -83zM276 54c65 0 111 37 111 93c0 42 -20 75 -146 135c-61 -42 -102 -69 -102 -127c0 -64 59 -101 137 -101z" />
    <glyph glyph-name="nine" unicode="9" horiz-adv-x="525" 
d="M268 305c43 0 84 12 112 25c1 10 1 22 1 33c0 111 -47 193 -141 193c-67 0 -96 -46 -96 -121c0 -66 33 -130 124 -130zM173 -12c-35 0 -78 7 -106 15l14 75c36 -14 85 -20 123 -20c87 0 153 65 172 214c-28 -15 -79 -37 -142 -37c-110 0 -178 79 -178 178
c0 123 87 211 207 211c128 0 206 -96 206 -275c0 -232 -136 -361 -296 -361z" />
    <glyph glyph-name="onesuperior" unicode="&#xb9;" horiz-adv-x="211" 
d="M158 390h-58v255l-69 -28l-14 47c27 7 67 20 103 32h38v-306z" />
    <glyph glyph-name="twosuperior" unicode="&#xb2;" horiz-adv-x="273" 
d="M237 390h-210v40c81 66 150 131 150 173c0 36 -26 53 -58 53c-26 0 -53 -8 -78 -20l-15 43c31 15 71 24 112 24c62 0 103 -37 103 -88c0 -53 -50 -105 -148 -181l154 5z" />
    <glyph glyph-name="threesuperior" unicode="&#xb3;" horiz-adv-x="271" 
d="M108 383c-33 0 -65 6 -84 11l12 42c31 -8 67 -11 81 -11c42 0 65 15 65 50c0 36 -30 54 -72 54c-10 0 -20 -1 -28 -2l-9 40c72 0 101 18 101 48c0 29 -25 45 -55 45c-25 0 -47 -6 -73 -17l-14 40c24 9 66 20 102 20c48 0 98 -22 98 -72c0 -38 -30 -65 -68 -77
c50 -8 78 -32 78 -72c0 -68 -76 -99 -134 -99z" />
    <glyph glyph-name="underscore" unicode="_" horiz-adv-x="440" 
d="M440 -101v-55h-440v55h440z" />
    <glyph glyph-name="hyphen" unicode="-" horiz-adv-x="320" 
d="M275 275v-15l-19 -47h-211v15l20 47h210z" />
    <glyph glyph-name="endash" unicode="&#x2013;" horiz-adv-x="455" 
d="M410 273v-15l-19 -45h-346v15l20 45h345z" />
    <glyph glyph-name="emdash" unicode="&#x2014;" horiz-adv-x="655" 
d="M610 273v-15l-19 -45h-546v15l20 45h545z" />
    <glyph glyph-name="parenleft" unicode="(" horiz-adv-x="320" 
d="M305 -89l-43 -40c-136 99 -193 244 -193 412s55 307 193 412l43 -40c-118 -95 -168 -226 -168 -372s50 -277 168 -372z" />
    <glyph glyph-name="parenright" unicode=")" horiz-adv-x="320" 
d="M15 654l43 40c136 -99 193 -244 193 -412s-55 -307 -193 -412l-43 40c118 95 168 226 168 372s-50 277 -168 372z" />
    <glyph glyph-name="bracketleft" unicode="[" horiz-adv-x="320" 
d="M280 -66v-53h-182v802h182v-53h-117v-696h117z" />
    <glyph glyph-name="bracketright" unicode="]" horiz-adv-x="320" 
d="M222 -119h-182v53h117v696h-117v53h182v-802z" />
    <glyph glyph-name="braceleft" unicode="{" horiz-adv-x="320" 
d="M56 305c48 10 75 33 75 68c0 54 -14 102 -14 191c0 81 51 130 158 130v-55c-46 0 -93 -21 -93 -68c0 -70 15 -141 15 -199c0 -47 -33 -81 -69 -91c36 -10 69 -44 69 -91c0 -58 -15 -129 -15 -199c0 -47 47 -68 93 -68v-55c-107 0 -158 49 -158 130c0 89 14 137 14 191
c0 35 -27 58 -75 68v48z" />
    <glyph glyph-name="braceright" unicode="}" horiz-adv-x="320" 
d="M192 282c-36 10 -69 44 -69 91c0 58 15 129 15 199c0 47 -47 68 -93 68v55c107 0 158 -49 158 -130c0 -89 -14 -137 -14 -191c0 -35 27 -58 75 -68v-48c-48 -10 -75 -33 -75 -68c0 -54 14 -102 14 -191c0 -81 -51 -130 -158 -130v55c46 0 93 21 93 68
c0 70 -15 141 -15 199c0 47 33 81 69 91z" />
    <glyph glyph-name="numbersign" unicode="#" horiz-adv-x="528" 
d="M309 237l29 120h-114l-29 -120h114zM251 0l45 185h-114l-45 -185h-60l45 185h-104v15l16 37h101l29 120h-116v15l16 36h112l50 204h60l-50 -204h114l50 204h60l-50 -204h101v-15l-16 -36h-97l-29 -120h112v-15l-16 -37h-109l-45 -185h-60z" />
    <glyph glyph-name="percent" unicode="%" horiz-adv-x="611" 
d="M301 486c0 -86 -61 -153 -144 -153c-78 0 -127 58 -127 139c0 84 60 153 144 153c76 0 127 -58 127 -139zM50 0l445 612h67l-444 -612h-68zM239 478c0 67 -30 99 -81 99c-50 0 -67 -35 -67 -97c0 -67 29 -99 81 -99c48 0 67 35 67 97zM581 141c0 -86 -61 -153 -144 -153
c-78 0 -127 58 -127 139c0 84 60 153 144 153c76 0 127 -58 127 -139zM519 133c0 67 -30 99 -81 99c-50 0 -67 -35 -67 -97c0 -67 29 -99 81 -99c48 0 67 35 67 97z" />
    <glyph glyph-name="quotesingle" unicode="'" horiz-adv-x="190" 
d="M70 477l-15 216h80l-15 -216h-50z" />
    <glyph glyph-name="quotedbl" unicode="&#x22;" horiz-adv-x="326" 
d="M206 477l-15 216h80l-15 -216h-50zM70 477l-15 216h80l-15 -216h-50z" />
    <glyph glyph-name="quoteleft" unicode="&#x2018;" horiz-adv-x="235" 
d="M170 504c0 -23 -30 -48 -50 -48c-19 0 -63 33 -63 70c0 29 23 87 68 180l53 -19c-22 -54 -45 -110 -45 -130c0 -12 37 -29 37 -53z" />
    <glyph glyph-name="quoteright" unicode="&#x2019;" horiz-adv-x="235" 
d="M65 644c0 23 30 48 50 48c19 0 63 -33 63 -70c0 -29 -23 -87 -68 -180l-53 19c22 54 45 110 45 130c0 12 -37 29 -37 53z" />
    <glyph glyph-name="quotedblleft" unicode="&#x201c;" horiz-adv-x="393" 
d="M328 504c0 -23 -30 -48 -50 -48c-19 0 -63 33 -63 70c0 29 23 87 68 180l53 -19c-22 -54 -45 -110 -45 -130c0 -12 37 -29 37 -53zM170 504c0 -23 -30 -48 -50 -48c-19 0 -63 33 -63 70c0 29 23 87 68 180l53 -19c-22 -54 -45 -110 -45 -130c0 -12 37 -29 37 -53z" />
    <glyph glyph-name="quotedblright" unicode="&#x201d;" horiz-adv-x="388" 
d="M218 644c0 23 30 48 50 48c19 0 63 -33 63 -70c0 -29 -23 -87 -68 -180l-53 19c22 54 45 110 45 130c0 12 -37 29 -37 53zM65 644c0 23 30 48 50 48c19 0 63 -33 63 -70c0 -29 -23 -87 -68 -180l-53 19c22 54 45 110 45 130c0 12 -37 29 -37 53z" />
    <glyph glyph-name="quotesinglbase" unicode="&#x201a;" horiz-adv-x="235" 
d="M65 49c0 23 30 48 50 48c19 0 63 -33 63 -70c0 -29 -23 -87 -68 -180l-53 19c22 54 45 110 45 130c0 12 -37 29 -37 53z" />
    <glyph glyph-name="quotedblbase" unicode="&#x201e;" horiz-adv-x="390" 
d="M220 49c0 23 30 48 50 48c19 0 63 -33 63 -70c0 -29 -23 -87 -68 -180l-53 19c22 54 45 110 45 130c0 12 -37 29 -37 53zM65 49c0 23 30 48 50 48c19 0 63 -33 63 -70c0 -29 -23 -87 -68 -180l-53 19c22 54 45 110 45 130c0 12 -37 29 -37 53z" />
    <glyph glyph-name="guilsinglleft" unicode="&#x2039;" horiz-adv-x="332" 
d="M227 32l-182 200l182 200l45 -35l-126 -165l126 -165z" />
    <glyph glyph-name="guilsinglright" unicode="&#x203a;" horiz-adv-x="332" 
d="M105 432l182 -200l-182 -200l-45 35l126 165l-126 165z" />
    <glyph glyph-name="guillemotleft" unicode="&#xab;" horiz-adv-x="527" 
d="M422 32l-182 200l182 200l45 -35l-126 -165l126 -165zM232 32l-182 200l182 200l45 -35l-126 -165l126 -165z" />
    <glyph glyph-name="guillemotright" unicode="&#xbb;" horiz-adv-x="527" 
d="M295 432l182 -200l-182 -200l-45 35l126 165l-126 165zM105 432l182 -200l-182 -200l-45 35l126 165l-126 165z" />
    <glyph glyph-name="asterisk" unicode="*" horiz-adv-x="421" 
d="M210 688c9 -20 15 -49 15 -80c0 -24 -3 -49 -11 -72l-20 -4c-5 38 -22 95 -41 134zM363 592c-21 -33 -76 -70 -130 -81l-14 19c29 22 72 65 96 100zM51 603c39 -2 98 -32 134 -72l-8 -19c-35 15 -93 27 -136 30zM357 413c-39 2 -98 32 -135 73l8 18
c34 -14 94 -27 136 -30zM45 423c21 33 77 70 130 81l12 -17c-30 -23 -70 -67 -94 -103zM197 329c-10 19 -15 48 -15 78c0 25 3 52 11 75l21 3c5 -37 22 -95 41 -133z" />
    <glyph glyph-name="period" unicode="." horiz-adv-x="235" 
d="M56 40c0 23 38 62 58 62c19 0 65 -30 65 -53s-39 -61 -59 -61c-19 0 -64 29 -64 52z" />
    <glyph glyph-name="comma" unicode="," horiz-adv-x="235" 
d="M65 54c0 23 30 48 50 48c19 0 63 -33 63 -70c0 -29 -23 -87 -68 -180l-53 19c22 54 45 110 45 130c0 12 -37 29 -37 53z" />
    <glyph glyph-name="colon" unicode=":" horiz-adv-x="235" 
d="M56 320c0 23 38 62 58 62c19 0 65 -30 65 -53s-39 -61 -59 -61c-19 0 -64 29 -64 52zM56 40c0 23 38 62 58 62c19 0 65 -30 65 -53s-39 -61 -59 -61c-19 0 -64 29 -64 52z" />
    <glyph glyph-name="semicolon" unicode=";" horiz-adv-x="235" 
d="M56 320c0 23 38 62 58 62c19 0 65 -30 65 -53s-39 -61 -59 -61c-19 0 -64 29 -64 52zM64 54c0 23 30 48 50 48c19 0 63 -33 63 -70c0 -29 -23 -87 -68 -180l-53 19c22 54 45 110 45 130c0 12 -37 29 -37 53z" />
    <glyph glyph-name="ellipsis" unicode="&#x2026;" horiz-adv-x="742" 
d="M56 40c0 23 38 62 58 62c19 0 65 -30 65 -53s-39 -61 -59 -61c-19 0 -64 29 -64 52zM563 40c0 23 38 62 58 62c19 0 65 -30 65 -53s-39 -61 -59 -61c-19 0 -64 29 -64 52zM309 40c0 23 38 62 58 62c19 0 65 -30 65 -53s-39 -61 -59 -61c-19 0 -64 29 -64 52z" />
    <glyph glyph-name="exclam" unicode="!" horiz-adv-x="306" 
d="M183 173l-67 -19c1 140 -6 343 -21 455l102 31c-8 -155 -14 -341 -14 -467zM90 43c0 24 43 64 63 64c18 0 63 -36 63 -59c0 -25 -43 -63 -61 -63c-20 0 -65 36 -65 58z" />
    <glyph glyph-name="exclamdown" unicode="&#xa1;" horiz-adv-x="306" 
d="M216 403c0 -24 -43 -64 -63 -64c-18 0 -63 36 -63 59c0 25 43 63 61 63c20 0 65 -36 65 -58zM123 273l67 19c-1 -140 6 -343 21 -455l-102 -31c8 155 14 341 14 467z" />
    <glyph glyph-name="question" unicode="?" horiz-adv-x="400" 
d="M243 176l-71 -23c-21 24 -43 51 -43 85c0 41 20 60 70 102c55 46 75 72 75 123c0 55 -46 96 -105 96c-30 0 -57 -14 -109 -46l-29 64c46 25 104 47 168 47c95 0 168 -60 168 -149c0 -63 -47 -106 -101 -150c-40 -32 -59 -49 -59 -70c0 -15 18 -53 36 -79zM130 42
c0 22 41 60 61 60c16 0 59 -34 59 -57s-44 -59 -60 -59c-20 0 -60 34 -60 56z" />
    <glyph glyph-name="questiondown" unicode="&#xbf;" horiz-adv-x="370" 
d="M247 406c0 -22 -41 -60 -61 -60c-16 0 -59 34 -59 57s44 59 60 59c20 0 60 -34 60 -56zM134 272l71 23c21 -24 43 -51 43 -85c0 -41 -20 -60 -70 -102c-55 -46 -75 -72 -75 -123c0 -55 46 -96 105 -96c30 0 57 14 109 46l29 -64c-46 -25 -104 -47 -168 -47
c-95 0 -168 60 -168 149c0 63 47 106 101 150c40 32 59 49 59 70c0 15 -18 53 -36 79z" />
    <glyph glyph-name="slash" unicode="/" horiz-adv-x="329" 
d="M35 -110l194 803h65l-194 -803h-65z" />
    <glyph glyph-name="backslash" unicode="\" horiz-adv-x="329" 
d="M100 693l194 -803h-65l-194 803h65z" />
    <glyph glyph-name="fraction" unicode="&#x2044;" horiz-adv-x="211" 
d="M-60 4l278 629l53 -24l-278 -629z" />
    <glyph glyph-name="bar" unicode="|" horiz-adv-x="273" 
d="M105 -220v913h63v-913h-63z" />
    <glyph glyph-name="at" unicode="@" horiz-adv-x="827" 
d="M385 -151c-145 0 -342 85 -342 376c0 270 197 439 404 439c198 0 337 -103 337 -285c0 -165 -132 -291 -281 -325l-18 123c-44 -78 -91 -120 -127 -120c-63 0 -95 63 -95 176c0 110 56 236 196 236c38 0 67 -10 94 -24v-328c79 42 155 120 155 251
c0 142 -106 231 -274 231c-184 0 -309 -139 -309 -365c0 -217 130 -316 283 -316c93 0 151 29 186 43l21 -58c-49 -21 -124 -54 -230 -54zM386 120c26 0 98 51 98 237v49c-14 5 -31 8 -55 8c-77 0 -92 -76 -92 -169c0 -98 20 -125 49 -125z" />
    <glyph glyph-name="ampersand" unicode="&#x26;" horiz-adv-x="634" 
d="M625 0l-95 -14c-31 24 -63 52 -95 81c-64 -49 -143 -80 -214 -80c-119 1 -181 71 -181 153c0 78 48 118 134 178c-42 40 -81 88 -81 150c0 88 77 156 184 156c63 0 118 -17 144 -31l-29 -71c-45 21 -90 34 -139 34c-50 0 -79 -29 -79 -76c0 -59 61 -104 147 -189
c42 -40 85 -82 126 -121c22 31 35 68 35 109c0 43 -11 77 -40 117l81 29c19 -25 38 -70 38 -126c0 -65 -26 -124 -67 -174c49 -45 94 -85 131 -113v-12zM250 55c42 0 95 20 140 54c-60 58 -113 114 -139 140c-10 10 -22 20 -34 31c-46 -29 -89 -66 -89 -119
c0 -72 65 -106 122 -106z" />
    <glyph glyph-name="section" unicode="&#xa7;" horiz-adv-x="486" 
d="M126 318c0 -44 28 -72 110 -105c75 14 124 48 124 92s-28 72 -110 105c-75 -14 -124 -48 -124 -92zM212 -80c-57 0 -107 12 -136 24l23 68c28 -10 93 -35 137 -35c61 0 85 26 85 64c0 37 -24 62 -79 84l-47 19c-110 45 -155 79 -155 156c0 67 55 116 133 142
c-58 27 -93 63 -93 120c0 78 72 141 194 141c57 0 98 -9 127 -21l-23 -68c-28 10 -84 32 -128 32c-61 0 -85 -26 -85 -64c0 -37 24 -62 79 -84l47 -19c110 -45 155 -79 155 -156c0 -67 -55 -116 -133 -142c58 -27 93 -63 93 -120c0 -78 -72 -141 -194 -141z" />
    <glyph glyph-name="paragraph" unicode="&#xb6;" horiz-adv-x="548" 
d="M301 551v-343h-68c-135 0 -213 80 -213 199s78 205 216 205h222v-584c0 -105 -78 -164 -185 -164c-38 0 -59 6 -76 12l12 70c120 -38 167 -4 167 67v538h-75z" />
    <glyph glyph-name="bullet" unicode="&#x2022;" horiz-adv-x="308" 
d="M55 263c0 38 61 103 94 103c31 0 104 -50 104 -89c0 -37 -63 -102 -94 -102c-32 0 -104 50 -104 88z" />
    <glyph glyph-name="plus" unicode="+" horiz-adv-x="525" 
d="M463 235h-168v-171h-66v171h-168v61h168v165h66v-165h168v-61z" />
    <glyph glyph-name="minus" unicode="&#x2212;" horiz-adv-x="525" 
d="M448 298v-65h-372v65h372z" />
    <glyph glyph-name="divide" unicode="&#xf7;" horiz-adv-x="525" 
d="M202 419c0 25 36 62 58 62c24 0 65 -28 65 -53s-37 -61 -59 -61s-64 27 -64 52zM475 295v-61h-426v61h426zM202 101c0 25 36 62 58 62c21 0 65 -28 65 -53s-37 -61 -59 -61c-21 0 -64 27 -64 52z" />
    <glyph glyph-name="multiply" unicode="&#xd7;" horiz-adv-x="525" 
d="M387 99l-124 125l-125 -125l-42 43l124 124l-124 124l43 42l124 -123l123 123l43 -42l-124 -124l124 -124z" />
    <glyph glyph-name="equal" unicode="=" horiz-adv-x="525" 
d="M437 355v-15l-18 -44h-331v15l18 44h331zM437 235v-15l-18 -44h-331v15l18 44h331z" />
    <glyph glyph-name="dollar" unicode="$" horiz-adv-x="525" 
d="M299 -140h-79l11 128h-15c-46 0 -115 12 -149 26l19 83c54 -22 107 -38 163 -38c65 0 113 32 113 90c0 54 -20 86 -125 128c-112 45 -157 98 -157 178c0 82 57 148 155 165l-11 125h79l-11 -121c68 0 120 -12 149 -23l-22 -79c-51 19 -100 32 -156 32
c-62 0 -96 -31 -96 -83c0 -55 31 -81 122 -119c129 -54 162 -103 162 -176c0 -94 -60 -161 -164 -182z" />
    <glyph glyph-name="cent" unicode="&#xa2;" horiz-adv-x="525" 
d="M437 100c-28 -14 -76 -27 -122 -31l13 -129h-75l9 130c-107 12 -175 94 -175 224c0 135 74 225 176 244l-11 127h75l-11 -123c52 -1 93 -10 112 -20l-15 -67c-28 10 -70 22 -110 23c-75 -1 -128 -52 -128 -169c0 -120 61 -173 139 -173c42 0 84 11 111 21z" />
    <glyph glyph-name="sterling" unicode="&#xa3;" horiz-adv-x="525" 
d="M485 75l-15 -75h-403h-1l-26 66c90 24 118 48 118 121c0 23 -5 51 -12 83h-93v13l21 41l45 6h15c-5 32 -10 64 -10 96c0 117 81 198 204 198c42 0 95 -7 129 -25l-25 -75c-43 17 -82 30 -119 30c-65 0 -102 -28 -102 -111c0 -36 5 -75 11 -113h186l-16 -60h-160
c4 -27 7 -51 7 -71c0 -49 -19 -94 -57 -132z" />
    <glyph glyph-name="Euro" unicode="&#x20ac;" horiz-adv-x="525" 
d="M518 29c-35 -20 -108 -41 -181 -41c-143 0 -224 75 -246 219h-80l15 50l51 10h9c-1 9 -1 18 -1 28c0 13 0 25 1 37h-75l15 50l51 10h16c28 150 122 232 254 232c58 0 131 -13 164 -28l-24 -76c-37 17 -105 31 -161 31c-75 0 -128 -38 -143 -159h249l-17 -60h-236v-16
c0 -17 1 -34 2 -49h221l-17 -60h-196c22 -104 80 -143 166 -143c52 0 109 14 150 34z" />
    <glyph glyph-name="acute" unicode="&#xb4;" horiz-adv-x="344" 
d="M63 511l129 145l89 -17l-148 -128h-70z" />
    <glyph glyph-name="grave" unicode="`" horiz-adv-x="344" 
d="M281 511h-70l-148 128l89 17z" />
    <glyph glyph-name="hungarumlaut" unicode="&#x2dd;" horiz-adv-x="442" 
d="M175 511l129 145l89 -17l-148 -128h-70zM50 511l129 145l89 -17l-148 -128h-70z" />
    <glyph glyph-name="circumflex" unicode="&#x2c6;" horiz-adv-x="443" 
d="M308 511l-87 77l-87 -77h-67l124 145h60l124 -145h-67z" />
    <glyph glyph-name="caron" unicode="&#x2c7;" horiz-adv-x="443" 
d="M251 515h-60l-124 145h67l87 -77l87 77h67z" />
    <glyph glyph-name="breve" unicode="&#x2d8;" horiz-adv-x="435" 
d="M217 577c55 0 83 39 93 89h50c0 -84 -68 -155 -148 -155c-90 0 -137 71 -137 155h50c10 -50 37 -89 92 -89z" />
    <glyph glyph-name="tilde" unicode="&#x2dc;" horiz-adv-x="454" 
d="M353 631l33 -35c-21 -28 -58 -69 -100 -69c-36 0 -97 33 -123 33s-60 -30 -65 -35l-30 35c18 20 61 67 103 67s88 -30 117 -30c26 0 48 17 65 34z" />
    <glyph glyph-name="macron" unicode="&#xaf;" horiz-adv-x="423" 
d="M343 615v-15l-18 -46h-245v15l18 46h245z" />
    <glyph glyph-name="dieresis" unicode="&#xa8;" horiz-adv-x="425" 
d="M249 595c0 20 33 54 50 54c16 0 56 -25 56 -45s-34 -54 -50 -54c-17 0 -56 26 -56 45zM70 595c0 20 33 54 50 54c16 0 56 -25 56 -45s-34 -54 -50 -54c-17 0 -56 26 -56 45z" />
    <glyph glyph-name="dotaccent" unicode="&#x2d9;" horiz-adv-x="215" 
d="M49 590c0 22 37 60 56 60c18 0 62 -28 62 -51c0 -22 -38 -59 -56 -59c-19 0 -62 28 -62 50z" />
    <glyph glyph-name="ring" unicode="&#x2da;" horiz-adv-x="339" 
d="M263 593c0 -49 -45 -89 -94 -89s-93 32 -93 89c0 50 45 90 94 90s93 -31 93 -90zM124 593c0 -27 21 -45 45 -45s46 18 46 45c0 29 -22 47 -46 47s-45 -18 -45 -47z" />
    <glyph glyph-name="cedilla" unicode="&#xb8;" horiz-adv-x="294" 
d="M86 -91l43 91h47l-25 -54c46 -21 78 -35 78 -74c0 -43 -44 -92 -153 -102l-11 43c59 7 100 16 100 45c0 19 -24 32 -76 46z" />
    <glyph glyph-name="ogonek" unicode="&#x2db;" horiz-adv-x="320" 
d="M81 -135c0 55 54 107 96 135h57c-53 -39 -93 -88 -93 -126c0 -27 21 -41 43 -41c16 0 32 8 41 13l14 -41c-18 -10 -41 -21 -74 -21c-54 0 -84 32 -84 81z" />
    <glyph glyph-name="copyright" unicode="&#xa9;" horiz-adv-x="584" 
d="M36 244c0 160 120 256 256 256c160 0 256 -112 256 -256c0 -160 -120 -256 -256 -256c-160 0 -256 112 -256 256zM82 244c0 -133 92 -214 210 -214c131 0 210 94 210 214c0 134 -91 214 -210 214c-131 0 -210 -93 -210 -214zM385 156l9 -40c-23 -10 -65 -22 -111 -22
c-83 0 -138 55 -138 149c0 95 59 163 160 163c36 0 67 -8 81 -14l-11 -44c-20 6 -50 15 -88 15c-42 0 -84 -22 -84 -113c0 -78 46 -110 99 -110c28 0 63 9 83 16z" />
    <glyph glyph-name="registered" unicode="&#xae;" horiz-adv-x="584" 
d="M36 516c0 160 120 256 256 256c160 0 256 -112 256 -256c0 -160 -120 -256 -256 -256c-160 0 -256 112 -256 256zM82 516c0 -133 92 -214 210 -214c131 0 210 94 210 214c0 134 -91 214 -210 214c-131 0 -210 -93 -210 -214zM287 534c34 0 57 13 57 48s-19 54 -64 54h-30
v-101c12 -1 23 -1 37 -1zM276 497c-6 0 -16 0 -26 1v-124h-56v300h101c64 0 106 -26 106 -83c0 -37 -23 -63 -54 -78l78 -139h-62l-62 125c-9 -1 -17 -2 -25 -2z" />
    <glyph glyph-name=".null" horiz-adv-x="0" 
 />
    <glyph glyph-name="idotaccent" horiz-adv-x="230" 
d="M58 598c0 22 37 60 56 60c18 0 62 -28 62 -51c0 -22 -38 -59 -56 -59c-19 0 -62 28 -62 50zM72 448l86 14v-462h-86v448z" />
    <glyph glyph-name="caron.alt" horiz-adv-x="251" 
d="M88 661c2 16 30 32 51 32s40 -44 40 -78c0 -38 -20 -79 -72 -152l-35 22c24 44 39 74 39 101c0 34 -23 62 -23 75z" />
    <glyph glyph-name="caron.alt.sc" horiz-adv-x="211" 
d="M68 521c2 16 30 32 51 32s40 -44 40 -78c0 -38 -20 -79 -72 -152l-35 22c24 44 39 74 39 101c0 34 -23 62 -23 75z" />
    <glyph glyph-name="caron.alt.case" horiz-adv-x="211" 
d="M68 581c2 16 30 32 51 32s40 -44 40 -78c0 -38 -20 -79 -72 -152l-35 22c24 44 39 74 39 101c0 34 -23 62 -23 75z" />
    <glyph glyph-name="commaaccent.case" horiz-adv-x="252" 
d="M79 -84c0 18 24 40 44 40s55 -36 55 -61s-17 -63 -61 -143l-44 17c25 52 37 86 37 99c0 11 -31 28 -31 48z" />
    <glyph glyph-name="acute.case" horiz-adv-x="344" 
d="M63 661l129 145l89 -17l-148 -128h-70z" />
    <glyph glyph-name="grave.case" horiz-adv-x="344" 
d="M281 661h-70l-148 128l89 17z" />
    <glyph glyph-name="hungarumlaut.case" horiz-adv-x="442" 
d="M175 661l129 145l89 -17l-148 -128h-70zM50 661l129 145l89 -17l-148 -128h-70z" />
    <glyph glyph-name="circumflex.case" horiz-adv-x="443" 
d="M308 661l-87 77l-87 -77h-67l124 145h60l124 -145h-67z" />
    <glyph glyph-name="caron.case" horiz-adv-x="443" 
d="M251 665h-60l-124 145h67l87 -77l87 77h67z" />
    <glyph glyph-name="breve.case" horiz-adv-x="435" 
d="M217 727c55 0 83 39 93 89h50c0 -84 -68 -155 -148 -155c-90 0 -137 71 -137 155h50c10 -50 37 -89 92 -89z" />
    <glyph glyph-name="tilde.case" horiz-adv-x="454" 
d="M353 781l33 -35c-21 -28 -58 -69 -100 -69c-36 0 -97 33 -123 33s-60 -30 -65 -35l-30 35c18 20 61 67 103 67s88 -30 117 -30c26 0 48 17 65 34z" />
    <glyph glyph-name="macron.case" horiz-adv-x="423" 
d="M343 765v-15l-18 -46h-245v15l18 46h245z" />
    <glyph glyph-name="dieresis.case" horiz-adv-x="425" 
d="M249 745c0 20 33 54 50 54c16 0 56 -25 56 -45s-34 -54 -50 -54c-17 0 -56 26 -56 45zM70 745c0 20 33 54 50 54c16 0 56 -25 56 -45s-34 -54 -50 -54c-17 0 -56 26 -56 45z" />
    <glyph glyph-name="dotaccent.case" horiz-adv-x="215" 
d="M49 740c0 22 37 60 56 60c18 0 62 -28 62 -51c0 -22 -38 -59 -56 -59c-19 0 -62 28 -62 50z" />
    <glyph glyph-name="ring.case" horiz-adv-x="339" 
d="M263 743c0 -49 -45 -89 -94 -89s-93 32 -93 89c0 50 45 90 94 90s93 -31 93 -90zM124 743c0 -27 21 -45 45 -45s46 18 46 45c0 29 -22 47 -46 47s-45 -18 -45 -47z" />
    <glyph glyph-name="cedilla.case" horiz-adv-x="294" 
d="M86 -91l43 91h47l-25 -54c46 -21 78 -35 78 -74c0 -43 -44 -92 -153 -102l-11 43c59 7 100 16 100 45c0 19 -24 32 -76 46z" />
    <glyph glyph-name="ogonek.case" horiz-adv-x="320" 
d="M81 -135c0 55 54 107 96 135h57c-53 -39 -93 -88 -93 -126c0 -27 21 -41 43 -41c16 0 32 8 41 13l14 -41c-18 -10 -41 -21 -74 -21c-54 0 -84 32 -84 81z" />
    <glyph glyph-name="zero.fit" horiz-adv-x="543" 
d="M498 318c0 -210 -95 -330 -242 -330c-135 0 -211 111 -211 306c0 210 95 330 242 330c135 0 211 -111 211 -306zM406 306c0 185 -63 248 -146 248c-76 0 -125 -58 -125 -248c0 -185 63 -249 146 -249c76 0 125 59 125 249z" />
    <glyph glyph-name="one.fit" horiz-adv-x="364" 
d="M274 0h-89v534l-133 -58l-22 73c49 14 116 39 182 63h62v-612z" />
    <glyph glyph-name="two.fit" horiz-adv-x="479" 
d="M424 0h-376v74c190 174 276 279 276 370c0 64 -47 109 -113 109c-39 0 -93 -16 -138 -35l-24 65c65 26 127 41 186 41c113 0 187 -65 187 -167c0 -116 -117 -237 -283 -385l300 7z" />
    <glyph glyph-name="three.fit" horiz-adv-x="458" 
d="M183 -12c-49 0 -105 7 -138 16l20 74c53 -15 115 -20 142 -20c75 0 121 35 121 104c0 76 -61 117 -141 117c-16 0 -34 -1 -47 -2l-14 67c122 0 185 42 185 111c0 68 -53 99 -107 99c-44 0 -83 -12 -128 -33l-23 64c43 19 114 39 175 39c96 0 171 -50 171 -139
c0 -77 -55 -137 -123 -161c90 -17 142 -69 142 -143c0 -119 -113 -193 -235 -193z" />
    <glyph glyph-name="four.fit" horiz-adv-x="541" 
d="M326 200v291l-218 -291h218zM496 131h-85v-131h-85v131h-307v57l329 436h63v-424h111z" />
    <glyph glyph-name="five.fit" horiz-adv-x="497" 
d="M168 -12c-39 0 -85 9 -118 17l22 75c50 -16 111 -24 146 -24c84 0 133 45 133 114c0 93 -88 126 -161 126c-38 0 -77 -5 -103 -10l17 326h330l-16 -74h-244l-11 -175c19 3 39 5 64 5c129 0 213 -71 213 -168c0 -123 -96 -212 -272 -212z" />
    <glyph glyph-name="six.fit" horiz-adv-x="507" 
d="M462 200c0 -116 -89 -212 -212 -212c-122 0 -205 96 -205 276c0 245 113 360 278 360c43 0 91 -8 118 -16l-19 -81c-27 8 -76 24 -129 24c-90 0 -145 -46 -157 -218c28 17 84 45 148 45c122 0 178 -79 178 -178zM270 55c64 0 104 43 104 123c0 66 -33 130 -124 130
c-42 0 -85 -15 -117 -32v-26c0 -111 43 -195 137 -195z" />
    <glyph glyph-name="seven.fit" horiz-adv-x="474" 
d="M195 -13l-88 30c47 114 180 393 247 518l-319 -3l14 79h390v-65c-56 -107 -200 -439 -244 -559z" />
    <glyph glyph-name="eight.fit" horiz-adv-x="496" 
d="M230 -12c-115 0 -190 59 -190 149c0 78 60 128 132 173c-70 41 -107 84 -107 154c0 86 78 159 201 159c87 0 166 -47 166 -131c0 -63 -46 -113 -119 -159c106 -53 143 -96 143 -165c0 -93 -88 -180 -226 -180zM148 476c0 -39 26 -73 110 -117c56 35 93 70 93 116
c0 42 -39 84 -113 84c-62 0 -90 -36 -90 -83zM262 54c65 0 111 37 111 93c0 42 -20 75 -146 135c-61 -42 -102 -69 -102 -127c0 -64 59 -101 137 -101z" />
    <glyph glyph-name="nine.fit" horiz-adv-x="500" 
d="M254 305c43 0 84 12 112 25c1 10 1 22 1 33c0 111 -47 193 -141 193c-67 0 -96 -46 -96 -121c0 -66 33 -130 124 -130zM159 -12c-35 0 -78 7 -106 15l14 75c36 -14 85 -20 123 -20c87 0 153 65 172 214c-28 -15 -79 -37 -142 -37c-110 0 -178 79 -178 178
c0 123 87 211 207 211c128 0 206 -96 206 -275c0 -232 -136 -361 -296 -361z" />
    <glyph glyph-name="zero.osf" horiz-adv-x="515" 
d="M485 255c0 -164 -111 -267 -241 -267c-122 0 -214 90 -214 247c0 163 111 265 241 265c122 0 214 -92 214 -245zM405 234c0 120 -65 194 -158 194c-82 0 -137 -66 -137 -176c0 -120 65 -192 156 -192c84 0 139 64 139 174z" />
    <glyph glyph-name="one.osf" horiz-adv-x="322" 
d="M242 0h-85v410c-39 -21 -87 -46 -120 -63l-27 66c48 21 119 53 170 77h62v-490z" />
    <glyph glyph-name="two.osf" horiz-adv-x="445" 
d="M396 0h-346v69c170 131 238 195 238 267c0 58 -48 94 -99 94c-42 0 -81 -8 -126 -25l-21 64c42 17 109 32 168 32c91 0 170 -49 170 -148c0 -92 -72 -174 -241 -287l270 7z" />
    <glyph glyph-name="three.osf" horiz-adv-x="427" 
d="M40 -136l-20 75c234 7 280 61 280 122c0 64 -64 103 -145 103c-20 0 -37 -1 -48 -2l-12 68c68 2 193 19 193 107c0 60 -49 92 -106 92c-49 0 -94 -10 -127 -23l-19 68c64 20 127 26 166 26c65 0 174 -35 174 -138c0 -74 -55 -124 -125 -149c94 -18 140 -70 140 -132
c0 -115 -117 -203 -351 -217z" />
    <glyph glyph-name="four.osf" horiz-adv-x="502" 
d="M310 69v298l-204 -298h204zM394 -122l-84 -14v136h-295v58l302 433h77v-422h104l-17 -69h-87v-122z" />
    <glyph glyph-name="five.osf" horiz-adv-x="440" 
d="M407 95c0 -120 -123 -213 -351 -231l-22 78c170 3 283 42 283 126c0 81 -60 113 -145 113c-54 0 -83 -6 -105 -12l17 321h320l-16 -75h-231l-11 -165c21 2 43 4 61 4c127 0 200 -67 200 -159z" />
    <glyph glyph-name="six.osf" horiz-adv-x="483" 
d="M235 -12c-119 0 -199 85 -199 218c0 160 100 309 309 419l41 -62c-121 -60 -200 -132 -237 -219c30 16 74 34 122 34c118 0 182 -79 182 -178c0 -117 -86 -212 -218 -212zM260 56c69 0 105 47 105 117c0 67 -33 135 -129 135c-43 0 -78 -13 -107 -29
c-3 -19 -5 -40 -5 -61c0 -89 37 -162 136 -162z" />
    <glyph glyph-name="seven.osf" horiz-adv-x="440" 
d="M178 -136l-88 30c47 113 173 390 241 517h-313l14 79h390v-65c-53 -102 -196 -430 -244 -561z" />
    <glyph glyph-name="eight.osf" horiz-adv-x="488" 
d="M226 -12c-111 0 -190 58 -190 154c0 79 62 128 132 171c-67 38 -107 79 -107 154c0 86 79 157 203 157c87 0 164 -48 164 -132c0 -64 -47 -114 -122 -161c110 -52 146 -92 146 -167c0 -92 -88 -176 -226 -176zM146 478c0 -45 24 -80 103 -120c59 35 98 71 98 118
c0 42 -39 83 -113 83c-62 0 -88 -29 -88 -81zM258 55c68 0 111 36 111 86c0 56 -22 87 -143 143c-63 -42 -103 -68 -103 -127c0 -64 57 -102 135 -102z" />
    <glyph glyph-name="nine.osf" horiz-adv-x="483" 
d="M129 -136l-44 65c120 53 210 124 251 215c-29 -17 -75 -34 -124 -34c-116 0 -182 79 -182 178c0 120 93 212 212 212c139 0 205 -104 205 -225c0 -179 -138 -323 -318 -411zM247 178c44 0 81 16 110 33c3 16 4 32 4 49c0 89 -40 172 -139 172c-69 0 -106 -47 -106 -122
c0 -62 35 -132 131 -132z" />
    <glyph glyph-name="zero.tosf" horiz-adv-x="490" 
d="M472 255c0 -164 -111 -267 -241 -267c-122 0 -214 90 -214 247c0 163 111 265 241 265c122 0 214 -92 214 -245zM392 234c0 120 -65 194 -158 194c-82 0 -137 -66 -137 -176c0 -120 65 -192 156 -192c84 0 139 64 139 174z" />
    <glyph glyph-name="one.tosf" horiz-adv-x="490" 
d="M322 0h-85v410c-39 -21 -87 -46 -120 -63l-27 66c48 21 119 53 170 77h62v-490z" />
    <glyph glyph-name="two.tosf" horiz-adv-x="490" 
d="M415 0h-346v69c170 131 238 195 238 267c0 58 -48 94 -99 94c-42 0 -81 -8 -126 -25l-21 64c42 17 109 32 168 32c91 0 170 -49 170 -148c0 -92 -72 -174 -241 -287l270 7z" />
    <glyph glyph-name="three.tosf" horiz-adv-x="490" 
d="M65 -136l-20 75c234 7 280 61 280 122c0 64 -64 103 -145 103c-20 0 -37 -1 -48 -2l-12 68c68 2 193 19 193 107c0 60 -49 92 -106 92c-49 0 -94 -10 -127 -23l-19 68c64 20 127 26 166 26c65 0 174 -35 174 -138c0 -74 -55 -124 -125 -149c94 -18 140 -70 140 -132
c0 -115 -117 -203 -351 -217z" />
    <glyph glyph-name="four.tosf" horiz-adv-x="490" 
d="M308 69v298l-204 -298h204zM392 -122l-84 -14v136h-295v58l302 433h77v-422h104l-17 -69h-87v-122z" />
    <glyph glyph-name="five.tosf" horiz-adv-x="490" 
d="M427 95c0 -120 -123 -213 -351 -231l-22 78c170 3 283 42 283 126c0 81 -60 113 -145 113c-54 0 -83 -6 -105 -12l17 321h320l-16 -75h-231l-11 -165c21 2 43 4 61 4c127 0 200 -67 200 -159z" />
    <glyph glyph-name="six.tosf" horiz-adv-x="490" 
d="M235 -12c-119 0 -199 85 -199 218c0 160 100 309 309 419l41 -62c-121 -60 -200 -132 -237 -219c30 16 74 34 122 34c118 0 182 -79 182 -178c0 -117 -86 -212 -218 -212zM260 56c69 0 105 47 105 117c0 67 -33 135 -129 135c-43 0 -78 -13 -107 -29
c-3 -19 -5 -40 -5 -61c0 -89 37 -162 136 -162z" />
    <glyph glyph-name="seven.tosf" horiz-adv-x="490" 
d="M192 -136l-88 30c47 113 173 390 241 517h-313l14 79h390v-65c-53 -102 -196 -430 -244 -561z" />
    <glyph glyph-name="eight.tosf" horiz-adv-x="490" 
d="M227 -12c-111 0 -190 58 -190 154c0 79 62 128 132 171c-67 38 -107 79 -107 154c0 86 79 157 203 157c87 0 164 -48 164 -132c0 -64 -47 -114 -122 -161c110 -52 146 -92 146 -167c0 -92 -88 -176 -226 -176zM147 478c0 -45 24 -80 103 -120c59 35 98 71 98 118
c0 42 -39 83 -113 83c-62 0 -88 -29 -88 -81zM259 55c68 0 111 36 111 86c0 56 -22 87 -143 143c-63 -42 -103 -68 -103 -127c0 -64 57 -102 135 -102z" />
    <glyph glyph-name="nine.tosf" horiz-adv-x="490" 
d="M136 -136l-44 65c120 53 210 124 251 215c-29 -17 -75 -34 -124 -34c-116 0 -182 79 -182 178c0 120 93 212 212 212c139 0 205 -104 205 -225c0 -179 -138 -323 -318 -411zM254 178c44 0 81 16 110 33c3 16 4 32 4 49c0 89 -40 172 -139 172c-69 0 -106 -47 -106 -122
c0 -62 35 -132 131 -132z" />
    <glyph glyph-name="A.sc" horiz-adv-x="491" 
d="M319 198l-75 213l-78 -213h153zM388 0l-47 134h-198l-49 -134h-82l191 490h98l178 -490h-91z" />
    <glyph glyph-name="Agrave.sc" horiz-adv-x="491" 
d="M330 541h-70l-148 128l89 17zM319 198l-75 213l-78 -213h153zM388 0l-47 134h-198l-49 -134h-82l191 490h98l178 -490h-91z" />
    <glyph glyph-name="Aacute.sc" horiz-adv-x="491" 
d="M197 541l129 145l89 -17l-148 -128h-70zM319 198l-75 213l-78 -213h153zM388 0l-47 134h-198l-49 -134h-82l191 490h98l178 -490h-91z" />
    <glyph glyph-name="Acircumflex.sc" horiz-adv-x="491" 
d="M343 541l-87 77l-87 -77h-67l124 145h60l124 -145h-67zM319 198l-75 213l-78 -213h153zM388 0l-47 134h-198l-49 -134h-82l191 490h98l178 -490h-91z" />
    <glyph glyph-name="Atilde.sc" horiz-adv-x="491" 
d="M385 661l33 -35c-21 -28 -58 -69 -100 -69c-36 0 -97 33 -123 33s-60 -30 -65 -35l-30 35c18 20 61 67 103 67s88 -30 117 -30c26 0 48 17 65 34zM319 198l-75 213l-78 -213h153zM388 0l-47 134h-198l-49 -134h-82l191 490h98l178 -490h-91z" />
    <glyph glyph-name="Adieresis.sc" horiz-adv-x="491" 
d="M291 625c0 20 33 54 50 54c16 0 56 -25 56 -45s-34 -54 -50 -54c-17 0 -56 26 -56 45zM112 625c0 20 33 54 50 54c16 0 56 -25 56 -45s-34 -54 -50 -54c-17 0 -56 26 -56 45zM319 198l-75 213l-78 -213h153zM388 0l-47 134h-198l-49 -134h-82l191 490h98l178 -490h-91z
" />
    <glyph glyph-name="Aring.sc" horiz-adv-x="491" 
d="M348 623c0 -49 -45 -89 -94 -89s-93 32 -93 89c0 50 45 90 94 90s93 -31 93 -90zM209 623c0 -27 21 -45 45 -45s46 18 46 45c0 29 -22 47 -46 47s-45 -18 -45 -47zM319 198l-75 213l-78 -213h153zM388 0l-47 134h-198l-49 -134h-82l191 490h98l178 -490h-91z" />
    <glyph glyph-name="Amacron.sc" horiz-adv-x="491" 
d="M389 645v-15l-18 -46h-245v15l18 46h245zM319 198l-75 213l-78 -213h153zM388 0l-47 134h-198l-49 -134h-82l191 490h98l178 -490h-91z" />
    <glyph glyph-name="Abreve.sc" horiz-adv-x="491" 
d="M255 607c55 0 83 39 93 89h50c0 -84 -68 -155 -148 -155c-90 0 -137 71 -137 155h50c10 -50 37 -89 92 -89zM319 198l-75 213l-78 -213h153zM388 0l-47 134h-198l-49 -134h-82l191 490h98l178 -490h-91z" />
    <glyph glyph-name="Aogonek.sc" horiz-adv-x="491" 
d="M319 198l-75 213l-78 -213h153zM420 0h-32l-47 134h-198l-49 -134h-82l191 490h98l178 -490h-2c-53 -39 -93 -88 -93 -126c0 -27 21 -41 43 -41c16 0 32 8 41 13l14 -41c-18 -10 -41 -21 -74 -21c-54 0 -84 32 -84 81c0 55 54 107 96 135z" />
    <glyph glyph-name="Acaron.sc" horiz-adv-x="491" 
d="M289 545h-60l-124 145h67l87 -77l87 77h67zM319 198l-75 213l-78 -213h153zM388 0l-47 134h-198l-49 -134h-82l191 490h98l178 -490h-91z" />
    <glyph glyph-name="B.sc" horiz-adv-x="479" 
d="M220 275c76 0 102 30 102 73c0 52 -30 87 -113 87c-10 0 -26 0 -41 -1v-158c18 0 37 -1 52 -1zM259 58c52 0 94 21 94 76s-46 91 -124 91c-17 0 -40 -1 -61 -1v-164c27 -1 60 -2 91 -2zM80 0v490h159c107 0 166 -42 166 -116c0 -36 -19 -85 -80 -115
c72 -12 116 -53 116 -114c0 -88 -81 -145 -218 -145h-143z" />
    <glyph glyph-name="C.sc" horiz-adv-x="477" 
d="M425 84l16 -59c-36 -20 -102 -35 -157 -35c-141 0 -244 85 -244 250c0 156 102 260 260 260c61 0 114 -10 137 -21l-21 -69c-32 11 -83 25 -135 25c-77 0 -150 -46 -150 -182c0 -148 93 -195 179 -195c45 0 93 13 115 26z" />
    <glyph glyph-name="Ccedilla.sc" horiz-adv-x="477" 
d="M357 -128c0 -43 -44 -92 -153 -102l-11 43c59 7 100 16 100 45c0 19 -24 32 -76 46l-3 5l39 82c-125 12 -213 96 -213 249c0 156 102 260 260 260c61 0 114 -10 137 -21l-21 -69c-32 11 -83 25 -135 25c-77 0 -150 -46 -150 -182c0 -148 93 -195 179 -195
c45 0 93 13 115 26l16 -59c-33 -18 -90 -32 -141 -35l-21 -44c46 -21 78 -35 78 -74z" />
    <glyph glyph-name="Cacute.sc" horiz-adv-x="477" 
d="M205 541l129 145l89 -17l-148 -128h-70zM425 84l16 -59c-36 -20 -102 -35 -157 -35c-141 0 -244 85 -244 250c0 156 102 260 260 260c61 0 114 -10 137 -21l-21 -69c-32 11 -83 25 -135 25c-77 0 -150 -46 -150 -182c0 -148 93 -195 179 -195c45 0 93 13 115 26z" />
    <glyph glyph-name="Ccircumflex.sc" horiz-adv-x="477" 
d="M383 541l-87 77l-87 -77h-67l124 145h60l124 -145h-67zM425 84l16 -59c-36 -20 -102 -35 -157 -35c-141 0 -244 85 -244 250c0 156 102 260 260 260c61 0 114 -10 137 -21l-21 -69c-32 11 -83 25 -135 25c-77 0 -150 -46 -150 -182c0 -148 93 -195 179 -195
c45 0 93 13 115 26z" />
    <glyph glyph-name="Cdotaccent.sc" horiz-adv-x="477" 
d="M229 620c0 22 37 60 56 60c18 0 62 -28 62 -51c0 -22 -38 -59 -56 -59c-19 0 -62 28 -62 50zM425 84l16 -59c-36 -20 -102 -35 -157 -35c-141 0 -244 85 -244 250c0 156 102 260 260 260c61 0 114 -10 137 -21l-21 -69c-32 11 -83 25 -135 25c-77 0 -150 -46 -150 -182
c0 -148 93 -195 179 -195c45 0 93 13 115 26z" />
    <glyph glyph-name="Ccaron.sc" horiz-adv-x="477" 
d="M334 545h-60l-124 145h67l87 -77l87 77h67zM425 84l16 -59c-36 -20 -102 -35 -157 -35c-141 0 -244 85 -244 250c0 156 102 260 260 260c61 0 114 -10 137 -21l-21 -69c-32 11 -83 25 -135 25c-77 0 -150 -46 -150 -182c0 -148 93 -195 179 -195c45 0 93 13 115 26z" />
    <glyph glyph-name="D.sc" horiz-adv-x="538" 
d="M80 490h170c151 0 248 -83 248 -230c0 -165 -124 -263 -288 -263c-42 0 -95 5 -130 8v485zM168 430v-364c22 -2 51 -4 74 -4c87 0 166 48 166 186c0 130 -84 182 -186 182h-54z" />
    <glyph glyph-name="Dcaron.sc" horiz-adv-x="538" 
d="M291 545h-60l-124 145h67l87 -77l87 77h67zM80 490h170c151 0 248 -83 248 -230c0 -165 -124 -263 -288 -263c-42 0 -95 5 -130 8v485zM168 430v-364c22 -2 51 -4 74 -4c87 0 166 48 166 186c0 130 -84 182 -186 182h-54z" />
    <glyph glyph-name="E.sc" 
d="M80 0v490h307l-8 -65c-70 1 -141 2 -211 3v-146h195l-9 -59l-186 3v-162l233 3l-8 -67h-313z" />
    <glyph glyph-name="Egrave.sc" 
d="M341 541h-70l-148 128l89 17zM80 0v490h307l-8 -65c-70 1 -141 2 -211 3v-146h195l-9 -59l-186 3v-162l233 3l-8 -67h-313z" />
    <glyph glyph-name="Eacute.sc" 
d="M158 541l129 145l89 -17l-148 -128h-70zM80 0v490h307l-8 -65c-70 1 -141 2 -211 3v-146h195l-9 -59l-186 3v-162l233 3l-8 -67h-313z" />
    <glyph glyph-name="Ecircumflex.sc" 
d="M324 541l-87 77l-87 -77h-67l124 145h60l124 -145h-67zM80 0v490h307l-8 -65c-70 1 -141 2 -211 3v-146h195l-9 -59l-186 3v-162l233 3l-8 -67h-313z" />
    <glyph glyph-name="Edieresis.sc" 
d="M278 625c0 20 33 54 50 54c16 0 56 -25 56 -45s-34 -54 -50 -54c-17 0 -56 26 -56 45zM99 625c0 20 33 54 50 54c16 0 56 -25 56 -45s-34 -54 -50 -54c-17 0 -56 26 -56 45zM80 0v490h307l-8 -65c-70 1 -141 2 -211 3v-146h195l-9 -59l-186 3v-162l233 3l-8 -67h-313z
" />
    <glyph glyph-name="Emacron.sc" 
d="M376 645v-15l-18 -46h-245v15l18 46h245zM80 0v490h307l-8 -65c-70 1 -141 2 -211 3v-146h195l-9 -59l-186 3v-162l233 3l-8 -67h-313z" />
    <glyph glyph-name="Ebreve.sc" 
d="M242 607c55 0 83 39 93 89h50c0 -84 -68 -155 -148 -155c-90 0 -137 71 -137 155h50c10 -50 37 -89 92 -89zM80 0v490h307l-8 -65c-70 1 -141 2 -211 3v-146h195l-9 -59l-186 3v-162l233 3l-8 -67h-313z" />
    <glyph glyph-name="Edotaccent.sc" 
d="M182 620c0 22 37 60 56 60c18 0 62 -28 62 -51c0 -22 -38 -59 -56 -59c-19 0 -62 28 -62 50zM80 0v490h307l-8 -65c-70 1 -141 2 -211 3v-146h195l-9 -59l-186 3v-162l233 3l-8 -67h-313z" />
    <glyph glyph-name="Eogonek.sc" 
d="M80 0v490h307l-8 -65c-70 1 -141 2 -211 3v-146h195l-9 -59l-186 3v-162l233 3l-8 -67h-313zM238 -135c0 55 54 107 96 135h57c-53 -39 -93 -88 -93 -126c0 -27 21 -41 43 -41c16 0 32 8 41 13l14 -41c-18 -10 -41 -21 -74 -21c-54 0 -84 32 -84 81z" />
    <glyph glyph-name="Ecaron.sc" 
d="M275 545h-60l-124 145h67l87 -77l87 77h67zM80 0v490h307l-8 -65c-70 1 -141 2 -211 3v-146h195l-9 -59l-186 3v-162l233 3l-8 -67h-313z" />
    <glyph glyph-name="F.sc" horiz-adv-x="422" 
d="M353 214l-185 2v-216h-88v490h307l-8 -65l-211 3v-154h194z" />
    <glyph glyph-name="G.sc" horiz-adv-x="498" 
d="M447 26c-40 -18 -111 -36 -177 -36c-138 0 -230 91 -230 245c0 158 100 265 259 265c64 0 113 -10 148 -27l-22 -66c-34 15 -91 28 -141 28c-85 0 -153 -48 -153 -182c0 -144 75 -199 158 -199c26 0 56 5 82 11l-7 178h84z" />
    <glyph glyph-name="Gcircumflex.sc" horiz-adv-x="498" 
d="M370 541l-87 77l-87 -77h-67l124 145h60l124 -145h-67zM447 26c-40 -18 -111 -36 -177 -36c-138 0 -230 91 -230 245c0 158 100 265 259 265c64 0 113 -10 148 -27l-22 -66c-34 15 -91 28 -141 28c-85 0 -153 -48 -153 -182c0 -144 75 -199 158 -199c26 0 56 5 82 11
l-7 178h84z" />
    <glyph glyph-name="Gbreve.sc" horiz-adv-x="498" 
d="M283 607c55 0 83 39 93 89h50c0 -84 -68 -155 -148 -155c-90 0 -137 71 -137 155h50c10 -50 37 -89 92 -89zM447 26c-40 -18 -111 -36 -177 -36c-138 0 -230 91 -230 245c0 158 100 265 259 265c64 0 113 -10 148 -27l-22 -66c-34 15 -91 28 -141 28
c-85 0 -153 -48 -153 -182c0 -144 75 -199 158 -199c26 0 56 5 82 11l-7 178h84z" />
    <glyph glyph-name="Gdotaccent.sc" horiz-adv-x="498" 
d="M234 620c0 22 37 60 56 60c18 0 62 -28 62 -51c0 -22 -38 -59 -56 -59c-19 0 -62 28 -62 50zM447 26c-40 -18 -111 -36 -177 -36c-138 0 -230 91 -230 245c0 158 100 265 259 265c64 0 113 -10 148 -27l-22 -66c-34 15 -91 28 -141 28c-85 0 -153 -48 -153 -182
c0 -144 75 -199 158 -199c26 0 56 5 82 11l-7 178h84z" />
    <glyph glyph-name="Gcommaaccent.sc" horiz-adv-x="498" 
d="M447 26c-40 -18 -111 -36 -177 -36c-138 0 -230 91 -230 245c0 158 100 265 259 265c64 0 113 -10 148 -27l-22 -66c-34 15 -91 28 -141 28c-85 0 -153 -48 -153 -182c0 -144 75 -199 158 -199c26 0 56 5 82 11l-7 178h84zM240 -84c0 18 24 40 44 40s55 -36 55 -61
s-17 -63 -61 -143l-44 17c25 52 37 86 37 99c0 11 -31 28 -31 48z" />
    <glyph glyph-name="H.sc" horiz-adv-x="568" 
d="M398 0v222h-228v-222h-90v490h90v-204h228v204h90v-490h-90z" />
    <glyph glyph-name="Hcircumflex.sc" horiz-adv-x="568" 
d="M377 541l-87 77l-87 -77h-67l124 145h60l124 -145h-67zM398 0v222h-228v-222h-90v490h90v-204h228v204h90v-490h-90z" />
    <glyph glyph-name="I.sc" horiz-adv-x="248" 
d="M168 490v-490h-88v490h88z" />
    <glyph glyph-name="Igrave.sc" horiz-adv-x="248" 
d="M185 541h-70l-148 128l89 17zM168 490v-490h-88v490h88z" />
    <glyph glyph-name="Iacute.sc" horiz-adv-x="248" 
d="M72 541l129 145l89 -17l-148 -128h-70zM168 490v-490h-88v490h88z" />
    <glyph glyph-name="Icircumflex.sc" horiz-adv-x="248" 
d="M211 541l-87 77l-87 -77h-67l124 145h60l124 -145h-67zM168 490v-490h-88v490h88z" />
    <glyph glyph-name="Idieresis.sc" horiz-adv-x="248" 
d="M162 625c0 20 33 54 50 54c16 0 56 -25 56 -45s-34 -54 -50 -54c-17 0 -56 26 -56 45zM-17 625c0 20 33 54 50 54c16 0 56 -25 56 -45s-34 -54 -50 -54c-17 0 -56 26 -56 45zM168 490v-490h-88v490h88z" />
    <glyph glyph-name="Itilde.sc" horiz-adv-x="248" 
d="M250 661l33 -35c-21 -28 -58 -69 -100 -69c-36 0 -97 33 -123 33s-60 -30 -65 -35l-30 35c18 20 61 67 103 67s88 -30 117 -30c26 0 48 17 65 34zM168 490v-490h-88v490h88z" />
    <glyph glyph-name="Imacron.sc" horiz-adv-x="248" 
d="M259 645v-15l-18 -46h-245v15l18 46h245zM168 490v-490h-88v490h88z" />
    <glyph glyph-name="Ibreve.sc" horiz-adv-x="248" 
d="M124 607c55 0 83 39 93 89h50c0 -84 -68 -155 -148 -155c-90 0 -137 71 -137 155h50c10 -50 37 -89 92 -89zM168 490v-490h-88v490h88z" />
    <glyph glyph-name="Iogonek.sc" horiz-adv-x="248" 
d="M109 0h-29v490h88v-490h-2c-53 -39 -93 -88 -93 -126c0 -27 21 -41 43 -41c16 0 32 8 41 13l14 -41c-18 -10 -41 -21 -74 -21c-54 0 -84 32 -84 81c0 55 54 107 96 135z" />
    <glyph glyph-name="Idotaccent.sc" horiz-adv-x="248" 
d="M66 620c0 22 37 60 56 60c18 0 62 -28 62 -51c0 -22 -38 -59 -56 -59c-19 0 -62 28 -62 50zM168 490v-490h-88v490h88z" />
    <glyph glyph-name="J.sc" horiz-adv-x="315" 
d="M243 490v-348c0 -99 -67 -152 -150 -152c-33 0 -64 6 -81 14l15 67c23 -9 48 -17 69 -17c35 0 59 22 59 68v368h88z" />
    <glyph glyph-name="Jcircumflex.sc" horiz-adv-x="315" 
d="M286 541l-87 77l-87 -77h-67l124 145h60l124 -145h-67zM243 490v-348c0 -99 -67 -152 -150 -152c-33 0 -64 6 -81 14l15 67c23 -9 48 -17 69 -17c35 0 59 22 59 68v368h88z" />
    <glyph glyph-name="K.sc" horiz-adv-x="506" 
d="M494 0h-113l-213 254l202 236h104l-211 -228zM168 490v-490h-88v490h88z" />
    <glyph glyph-name="Kcommaaccent.sc" horiz-adv-x="506" 
d="M494 0h-113l-213 254l202 236h104l-211 -228zM168 490v-490h-88v490h88zM209 -84c0 18 24 40 44 40s55 -36 55 -61s-17 -63 -61 -143l-44 17c25 52 37 86 37 99c0 11 -31 28 -31 48z" />
    <glyph glyph-name="L.sc" horiz-adv-x="400" 
d="M80 0v490h88v-426l214 3l-9 -67h-293z" />
    <glyph glyph-name="Lacute.sc" horiz-adv-x="400" 
d="M77 541l129 145l89 -17l-148 -128h-70zM80 0v490h88v-426l214 3l-9 -67h-293z" />
    <glyph glyph-name="Lcommaaccent.sc" horiz-adv-x="400" 
d="M80 0v490h88v-426l214 3l-9 -67h-293zM172 -84c0 18 24 40 44 40s55 -36 55 -61s-17 -63 -61 -143l-44 17c25 52 37 86 37 99c0 11 -31 28 -31 48z" />
    <glyph glyph-name="Lcaron.sc" horiz-adv-x="400" 
d="M284 521c2 16 30 32 51 32s40 -44 40 -78c0 -38 -20 -79 -72 -152l-35 22c24 44 39 74 39 101c0 34 -23 62 -23 75zM80 0v490h88v-426l214 3l-9 -67h-293z" />
    <glyph glyph-name="M.sc" horiz-adv-x="701" 
d="M307 0l-143 380l-37 -380h-82l55 490h107l145 -379l146 379h105l53 -490h-88l-38 383l-146 -383h-77z" />
    <glyph glyph-name="N.sc" horiz-adv-x="576" 
d="M412 0l-251 368v-368h-81v490h91l245 -365v365h80v-490h-84z" />
    <glyph glyph-name="Ntilde.sc" horiz-adv-x="576" 
d="M427 661l33 -35c-21 -28 -58 -69 -100 -69c-36 0 -97 33 -123 33s-60 -30 -65 -35l-30 35c18 20 61 67 103 67s88 -30 117 -30c26 0 48 17 65 34zM412 0l-251 368v-368h-81v490h91l245 -365v365h80v-490h-84z" />
    <glyph glyph-name="Nacute.sc" horiz-adv-x="576" 
d="M215 541l129 145l89 -17l-148 -128h-70zM412 0l-251 368v-368h-81v490h91l245 -365v365h80v-490h-84z" />
    <glyph glyph-name="Ncommaaccent.sc" horiz-adv-x="576" 
d="M412 0l-251 368v-368h-81v490h91l245 -365v365h80v-490h-84zM240 -84c0 18 24 40 44 40s55 -36 55 -61s-17 -63 -61 -143l-44 17c25 52 37 86 37 99c0 11 -31 28 -31 48z" />
    <glyph glyph-name="Ncaron.sc" horiz-adv-x="576" 
d="M337 545h-60l-124 145h67l87 -77l87 77h67zM412 0l-251 368v-368h-81v490h91l245 -365v365h80v-490h-84z" />
    <glyph glyph-name="O.sc" horiz-adv-x="569" 
d="M529 254c0 -166 -110 -264 -265 -264c-132 0 -224 89 -224 245c0 167 110 265 265 265c132 0 224 -90 224 -246zM438 232c0 145 -69 203 -168 203c-77 0 -139 -52 -139 -177c0 -146 68 -204 167 -204c78 0 140 51 140 178z" />
    <glyph glyph-name="Ograve.sc" horiz-adv-x="569" 
d="M406 541h-70l-148 128l89 17zM529 254c0 -166 -110 -264 -265 -264c-132 0 -224 89 -224 245c0 167 110 265 265 265c132 0 224 -90 224 -246zM438 232c0 145 -69 203 -168 203c-77 0 -139 -52 -139 -177c0 -146 68 -204 167 -204c78 0 140 51 140 178z" />
    <glyph glyph-name="Oacute.sc" horiz-adv-x="569" 
d="M193 541l129 145l89 -17l-148 -128h-70zM529 254c0 -166 -110 -264 -265 -264c-132 0 -224 89 -224 245c0 167 110 265 265 265c132 0 224 -90 224 -246zM438 232c0 145 -69 203 -168 203c-77 0 -139 -52 -139 -177c0 -146 68 -204 167 -204c78 0 140 51 140 178z" />
    <glyph glyph-name="Ocircumflex.sc" horiz-adv-x="569" 
d="M382 541l-87 77l-87 -77h-67l124 145h60l124 -145h-67zM529 254c0 -166 -110 -264 -265 -264c-132 0 -224 89 -224 245c0 167 110 265 265 265c132 0 224 -90 224 -246zM438 232c0 145 -69 203 -168 203c-77 0 -139 -52 -139 -177c0 -146 68 -204 167 -204
c78 0 140 51 140 178z" />
    <glyph glyph-name="Otilde.sc" horiz-adv-x="569" 
d="M421 661l33 -35c-21 -28 -58 -69 -100 -69c-36 0 -97 33 -123 33s-60 -30 -65 -35l-30 35c18 20 61 67 103 67s88 -30 117 -30c26 0 48 17 65 34zM529 254c0 -166 -110 -264 -265 -264c-132 0 -224 89 -224 245c0 167 110 265 265 265c132 0 224 -90 224 -246zM438 232
c0 145 -69 203 -168 203c-77 0 -139 -52 -139 -177c0 -146 68 -204 167 -204c78 0 140 51 140 178z" />
    <glyph glyph-name="Odieresis.sc" horiz-adv-x="569" 
d="M327 625c0 20 33 54 50 54c16 0 56 -25 56 -45s-34 -54 -50 -54c-17 0 -56 26 -56 45zM148 625c0 20 33 54 50 54c16 0 56 -25 56 -45s-34 -54 -50 -54c-17 0 -56 26 -56 45zM529 254c0 -166 -110 -264 -265 -264c-132 0 -224 89 -224 245c0 167 110 265 265 265
c132 0 224 -90 224 -246zM438 232c0 145 -69 203 -168 203c-77 0 -139 -52 -139 -177c0 -146 68 -204 167 -204c78 0 140 51 140 178z" />
    <glyph glyph-name="Omacron.sc" horiz-adv-x="569" 
d="M422 645v-15l-18 -46h-245v15l18 46h245zM529 254c0 -166 -110 -264 -265 -264c-132 0 -224 89 -224 245c0 167 110 265 265 265c132 0 224 -90 224 -246zM438 232c0 145 -69 203 -168 203c-77 0 -139 -52 -139 -177c0 -146 68 -204 167 -204c78 0 140 51 140 178z" />
    <glyph glyph-name="Obreve.sc" horiz-adv-x="569" 
d="M294 607c55 0 83 39 93 89h50c0 -84 -68 -155 -148 -155c-90 0 -137 71 -137 155h50c10 -50 37 -89 92 -89zM529 254c0 -166 -110 -264 -265 -264c-132 0 -224 89 -224 245c0 167 110 265 265 265c132 0 224 -90 224 -246zM438 232c0 145 -69 203 -168 203
c-77 0 -139 -52 -139 -177c0 -146 68 -204 167 -204c78 0 140 51 140 178z" />
    <glyph glyph-name="Ohungarumlaut.sc" horiz-adv-x="569" 
d="M285 541l129 145l89 -17l-148 -128h-70zM160 541l129 145l89 -17l-148 -128h-70zM529 254c0 -166 -110 -264 -265 -264c-132 0 -224 89 -224 245c0 167 110 265 265 265c132 0 224 -90 224 -246zM438 232c0 145 -69 203 -168 203c-77 0 -139 -52 -139 -177
c0 -146 68 -204 167 -204c78 0 140 51 140 178z" />
    <glyph glyph-name="P.sc" horiz-adv-x="454" 
d="M224 248c73 0 111 26 111 90c0 61 -40 96 -125 96h-42v-184c18 -1 35 -2 56 -2zM205 188c-13 0 -25 0 -37 1v-189h-88v490h157c119 0 189 -44 189 -137c0 -109 -107 -165 -221 -165z" />
    <glyph glyph-name="Q.sc" horiz-adv-x="569" 
d="M529 254c0 -166 -110 -264 -265 -264c-132 0 -224 89 -224 245c0 167 110 265 265 265c132 0 224 -90 224 -246zM438 232c0 145 -69 203 -168 203c-77 0 -139 -52 -139 -177c0 -146 68 -204 167 -204c78 0 140 51 140 178zM533 -64v-64c-29 -17 -56 -23 -83 -23
c-72 0 -164 56 -222 56c-30 0 -59 -17 -83 -34l-24 54c41 21 89 33 118 33c89 0 159 -43 224 -43c24 0 47 5 70 21z" />
    <glyph glyph-name="R.sc" horiz-adv-x="486" 
d="M233 261c48 0 93 21 93 80c0 58 -33 92 -107 92c-18 0 -35 0 -51 -1v-168c20 -2 41 -3 65 -3zM213 202c-11 0 -28 1 -45 1v-203h-88v490h165c106 0 171 -42 171 -131c0 -63 -38 -107 -90 -132l130 -227h-97l-107 205c-13 -2 -26 -3 -39 -3z" />
    <glyph glyph-name="Racute.sc" horiz-adv-x="486" 
d="M157 541l129 145l89 -17l-148 -128h-70zM233 261c48 0 93 21 93 80c0 58 -33 92 -107 92c-18 0 -35 0 -51 -1v-168c20 -2 41 -3 65 -3zM213 202c-11 0 -28 1 -45 1v-203h-88v490h165c106 0 171 -42 171 -131c0 -63 -38 -107 -90 -132l130 -227h-97l-107 205
c-13 -2 -26 -3 -39 -3z" />
    <glyph glyph-name="Rcommaaccent.sc" horiz-adv-x="486" 
d="M233 261c48 0 93 21 93 80c0 58 -33 92 -107 92c-18 0 -35 0 -51 -1v-168c20 -2 41 -3 65 -3zM213 202c-11 0 -28 1 -45 1v-203h-88v490h165c106 0 171 -42 171 -131c0 -63 -38 -107 -90 -132l130 -227h-97l-107 205c-13 -2 -26 -3 -39 -3zM199 -84c0 18 24 40 44 40
s55 -36 55 -61s-17 -63 -61 -143l-44 17c25 52 37 86 37 99c0 11 -31 28 -31 48z" />
    <glyph glyph-name="Rcaron.sc" horiz-adv-x="486" 
d="M268 545h-60l-124 145h67l87 -77l87 77h67zM233 261c48 0 93 21 93 80c0 58 -33 92 -107 92c-18 0 -35 0 -51 -1v-168c20 -2 41 -3 65 -3zM213 202c-11 0 -28 1 -45 1v-203h-88v490h165c106 0 171 -42 171 -131c0 -63 -38 -107 -90 -132l130 -227h-97l-107 205
c-13 -2 -26 -3 -39 -3z" />
    <glyph glyph-name="S.sc" 
d="M199 216c-101 39 -143 73 -143 148c0 77 75 136 181 136c59 0 114 -8 149 -19l-16 -71c-47 17 -99 28 -151 28c-50 0 -82 -21 -82 -60s27 -61 108 -92c121 -46 151 -86 151 -150c0 -87 -81 -148 -207 -148c-51 0 -107 10 -144 21l17 74c49 -19 99 -31 153 -31
c60 0 97 22 97 62c0 41 -22 67 -113 102z" />
    <glyph glyph-name="Sacute.sc" 
d="M159 541l129 145l89 -17l-148 -128h-70zM199 216c-101 39 -143 73 -143 148c0 77 75 136 181 136c59 0 114 -8 149 -19l-16 -71c-47 17 -99 28 -151 28c-50 0 -82 -21 -82 -60s27 -61 108 -92c121 -46 151 -86 151 -150c0 -87 -81 -148 -207 -148c-51 0 -107 10 -144 21
l17 74c49 -19 99 -31 153 -31c60 0 97 22 97 62c0 41 -22 67 -113 102z" />
    <glyph glyph-name="Scircumflex.sc" 
d="M327 541l-87 77l-87 -77h-67l124 145h60l124 -145h-67zM199 216c-101 39 -143 73 -143 148c0 77 75 136 181 136c59 0 114 -8 149 -19l-16 -71c-47 17 -99 28 -151 28c-50 0 -82 -21 -82 -60s27 -61 108 -92c121 -46 151 -86 151 -150c0 -87 -81 -148 -207 -148
c-51 0 -107 10 -144 21l17 74c49 -19 99 -31 153 -31c60 0 97 22 97 62c0 41 -22 67 -113 102z" />
    <glyph glyph-name="Scedilla.sc" 
d="M137 -230l-11 43c59 7 100 16 100 45c0 19 -24 32 -76 46l-3 5l37 79c-49 1 -103 10 -139 21l17 74c49 -19 99 -31 153 -31c60 0 97 22 97 62c0 41 -22 67 -113 102c-101 39 -143 73 -143 148c0 77 75 136 181 136c59 0 114 -8 149 -19l-16 -71c-47 17 -99 28 -151 28
c-50 0 -82 -21 -82 -60s27 -61 108 -92c121 -46 151 -86 151 -150c0 -76 -63 -133 -163 -145l-21 -45c46 -21 78 -35 78 -74c0 -43 -44 -92 -153 -102z" />
    <glyph glyph-name="Scaron.sc" 
d="M273 545h-60l-124 145h67l87 -77l87 77h67zM199 216c-101 39 -143 73 -143 148c0 77 75 136 181 136c59 0 114 -8 149 -19l-16 -71c-47 17 -99 28 -151 28c-50 0 -82 -21 -82 -60s27 -61 108 -92c121 -46 151 -86 151 -150c0 -87 -81 -148 -207 -148
c-51 0 -107 10 -144 21l17 74c49 -19 99 -31 153 -31c60 0 97 22 97 62c0 41 -22 67 -113 102z" />
    <glyph glyph-name="Scommaaccent.sc" 
d="M199 216c-101 39 -143 73 -143 148c0 77 75 136 181 136c59 0 114 -8 149 -19l-16 -71c-47 17 -99 28 -151 28c-50 0 -82 -21 -82 -60s27 -61 108 -92c121 -46 151 -86 151 -150c0 -87 -81 -148 -207 -148c-51 0 -107 10 -144 21l17 74c49 -19 99 -31 153 -31
c60 0 97 22 97 62c0 41 -22 67 -113 102zM178 -84c0 18 24 40 44 40s55 -36 55 -61s-17 -63 -61 -143l-44 17c25 52 37 86 37 99c0 11 -31 28 -31 48z" />
    <glyph glyph-name="T.sc" horiz-adv-x="444" 
d="M423 425l-155 2v-427h-88v427l-168 -2l10 65h410z" />
    <glyph glyph-name="Tcommaaccent.sc" horiz-adv-x="444" 
d="M423 425l-155 2v-427h-88v427l-168 -2l10 65h410zM171 -84c0 18 24 40 44 40s55 -36 55 -61s-17 -63 -61 -143l-44 17c25 52 37 86 37 99c0 11 -31 28 -31 48z" />
    <glyph glyph-name="Tcaron.sc" horiz-adv-x="444" 
d="M256 545h-60l-124 145h67l87 -77l87 77h67zM423 425l-155 2v-427h-88v427l-168 -2l10 65h410z" />
    <glyph glyph-name="U.sc" horiz-adv-x="568" 
d="M75 174v316h87v-299c0 -94 57 -130 131 -130c71 0 116 36 116 111v318h84v-304c0 -123 -81 -196 -218 -196c-118 0 -200 62 -200 184z" />
    <glyph glyph-name="Ugrave.sc" horiz-adv-x="568" 
d="M408 541h-70l-148 128l89 17zM75 174v316h87v-299c0 -94 57 -130 131 -130c71 0 116 36 116 111v318h84v-304c0 -123 -81 -196 -218 -196c-118 0 -200 62 -200 184z" />
    <glyph glyph-name="Uacute.sc" horiz-adv-x="568" 
d="M191 541l129 145l89 -17l-148 -128h-70zM75 174v316h87v-299c0 -94 57 -130 131 -130c71 0 116 36 116 111v318h84v-304c0 -123 -81 -196 -218 -196c-118 0 -200 62 -200 184z" />
    <glyph glyph-name="Ucircumflex.sc" horiz-adv-x="568" 
d="M380 541l-87 77l-87 -77h-67l124 145h60l124 -145h-67zM75 174v316h87v-299c0 -94 57 -130 131 -130c71 0 116 36 116 111v318h84v-304c0 -123 -81 -196 -218 -196c-118 0 -200 62 -200 184z" />
    <glyph glyph-name="Udieresis.sc" horiz-adv-x="568" 
d="M327 625c0 20 33 54 50 54c16 0 56 -25 56 -45s-34 -54 -50 -54c-17 0 -56 26 -56 45zM148 625c0 20 33 54 50 54c16 0 56 -25 56 -45s-34 -54 -50 -54c-17 0 -56 26 -56 45zM75 174v316h87v-299c0 -94 57 -130 131 -130c71 0 116 36 116 111v318h84v-304
c0 -123 -81 -196 -218 -196c-118 0 -200 62 -200 184z" />
    <glyph glyph-name="Utilde.sc" horiz-adv-x="568" 
d="M414 661l33 -35c-21 -28 -58 -69 -100 -69c-36 0 -97 33 -123 33s-60 -30 -65 -35l-30 35c18 20 61 67 103 67s88 -30 117 -30c26 0 48 17 65 34zM75 174v316h87v-299c0 -94 57 -130 131 -130c71 0 116 36 116 111v318h84v-304c0 -123 -81 -196 -218 -196
c-118 0 -200 62 -200 184z" />
    <glyph glyph-name="Umacron.sc" horiz-adv-x="568" 
d="M422 645v-15l-18 -46h-245v15l18 46h245zM75 174v316h87v-299c0 -94 57 -130 131 -130c71 0 116 36 116 111v318h84v-304c0 -123 -81 -196 -218 -196c-118 0 -200 62 -200 184z" />
    <glyph glyph-name="Ubreve.sc" horiz-adv-x="568" 
d="M291 607c55 0 83 39 93 89h50c0 -84 -68 -155 -148 -155c-90 0 -137 71 -137 155h50c10 -50 37 -89 92 -89zM75 174v316h87v-299c0 -94 57 -130 131 -130c71 0 116 36 116 111v318h84v-304c0 -123 -81 -196 -218 -196c-118 0 -200 62 -200 184z" />
    <glyph glyph-name="Uring.sc" horiz-adv-x="568" 
d="M388 623c0 -49 -45 -89 -94 -89s-93 32 -93 89c0 50 45 90 94 90s93 -31 93 -90zM249 623c0 -27 21 -45 45 -45s46 18 46 45c0 29 -22 47 -46 47s-45 -18 -45 -47zM75 174v316h87v-299c0 -94 57 -130 131 -130c71 0 116 36 116 111v318h84v-304
c0 -123 -81 -196 -218 -196c-118 0 -200 62 -200 184z" />
    <glyph glyph-name="Uhungarumlaut.sc" horiz-adv-x="568" 
d="M275 541l129 145l89 -17l-148 -128h-70zM150 541l129 145l89 -17l-148 -128h-70zM75 174v316h87v-299c0 -94 57 -130 131 -130c71 0 116 36 116 111v318h84v-304c0 -123 -81 -196 -218 -196c-118 0 -200 62 -200 184z" />
    <glyph glyph-name="Uogonek.sc" horiz-adv-x="568" 
d="M352 -186c-54 0 -84 32 -84 81c0 36 23 70 50 98c-13 -2 -28 -3 -43 -3c-118 0 -200 62 -200 184v316h87v-299c0 -94 57 -130 131 -130c71 0 116 36 116 111v318h84v-304c0 -69 -26 -123 -72 -156c-53 -39 -93 -88 -93 -126c0 -27 21 -41 43 -41c16 0 32 8 41 13l14 -41
c-18 -10 -41 -21 -74 -21z" />
    <glyph glyph-name="V.sc" horiz-adv-x="503" 
d="M295 0h-95l-188 490h95l148 -398l147 398h89z" />
    <glyph glyph-name="W.sc" horiz-adv-x="758" 
d="M513 0l-134 378l-129 -378h-97l-129 490h91l97 -388l128 388h88l135 -388l90 388h81l-124 -490h-97z" />
    <glyph glyph-name="Wcircumflex.sc" horiz-adv-x="758" 
d="M476 541l-87 77l-87 -77h-67l124 145h60l124 -145h-67zM513 0l-134 378l-129 -378h-97l-129 490h91l97 -388l128 388h88l135 -388l90 388h81l-124 -490h-97z" />
    <glyph glyph-name="Wgrave.sc" horiz-adv-x="758" 
d="M483 541h-70l-148 128l89 17zM513 0l-134 378l-129 -378h-97l-129 490h91l97 -388l128 388h88l135 -388l90 388h81l-124 -490h-97z" />
    <glyph glyph-name="Wacute.sc" horiz-adv-x="758" 
d="M335 541l129 145l89 -17l-148 -128h-70zM513 0l-134 378l-129 -378h-97l-129 490h91l97 -388l128 388h88l135 -388l90 388h81l-124 -490h-97z" />
    <glyph glyph-name="Wdieresis.sc" horiz-adv-x="758" 
d="M422 625c0 20 33 54 50 54c16 0 56 -25 56 -45s-34 -54 -50 -54c-17 0 -56 26 -56 45zM243 625c0 20 33 54 50 54c16 0 56 -25 56 -45s-34 -54 -50 -54c-17 0 -56 26 -56 45zM513 0l-134 378l-129 -378h-97l-129 490h91l97 -388l128 388h88l135 -388l90 388h81l-124 -490
h-97z" />
    <glyph glyph-name="X.sc" horiz-adv-x="486" 
d="M366 0l-130 190l-122 -190h-96l175 253l-163 237h103l119 -175l111 175h97l-165 -238l173 -252h-102z" />
    <glyph glyph-name="Y.sc" horiz-adv-x="467" 
d="M281 187v-187h-88v187l-181 303h101l133 -227l126 227h83z" />
    <glyph glyph-name="Yacute.sc" horiz-adv-x="467" 
d="M178 541l129 145l89 -17l-148 -128h-70zM281 187v-187h-88v187l-181 303h101l133 -227l126 227h83z" />
    <glyph glyph-name="Ycircumflex.sc" horiz-adv-x="467" 
d="M337 541l-87 77l-87 -77h-67l124 145h60l124 -145h-67zM281 187v-187h-88v187l-181 303h101l133 -227l126 227h83z" />
    <glyph glyph-name="Ydieresis.sc" horiz-adv-x="467" 
d="M284 625c0 20 33 54 50 54c16 0 56 -25 56 -45s-34 -54 -50 -54c-17 0 -56 26 -56 45zM105 625c0 20 33 54 50 54c16 0 56 -25 56 -45s-34 -54 -50 -54c-17 0 -56 26 -56 45zM281 187v-187h-88v187l-181 303h101l133 -227l126 227h83z" />
    <glyph glyph-name="Ygrave.sc" horiz-adv-x="467" 
d="M338 541h-70l-148 128l89 17zM281 187v-187h-88v187l-181 303h101l133 -227l126 227h83z" />
    <glyph glyph-name="Z.sc" horiz-adv-x="457" 
d="M415 0h-379v55l273 368h-266l13 67h358v-56l-273 -368h287z" />
    <glyph glyph-name="Zacute.sc" horiz-adv-x="457" 
d="M163 541l129 145l89 -17l-148 -128h-70zM415 0h-379v55l273 368h-266l13 67h358v-56l-273 -368h287z" />
    <glyph glyph-name="Zdotaccent.sc" horiz-adv-x="457" 
d="M180 620c0 22 37 60 56 60c18 0 62 -28 62 -51c0 -22 -38 -59 -56 -59c-19 0 -62 28 -62 50zM415 0h-379v55l273 368h-266l13 67h358v-56l-273 -368h287z" />
    <glyph glyph-name="Zcaron.sc" horiz-adv-x="457" 
d="M273 545h-60l-124 145h67l87 -77l87 77h67zM415 0h-379v55l273 368h-266l13 67h358v-56l-273 -368h287z" />
    <glyph glyph-name="AE.sc" horiz-adv-x="692" 
d="M327 416l-117 -208h121v208h-4zM331 0v144h-158l-81 -144h-88l284 490h350l-8 -65c-70 1 -141 2 -211 3v-146h195l-9 -59l-186 3v-162l233 3l-8 -67h-313z" />
    <glyph glyph-name="AEacute.sc" horiz-adv-x="692" 
d="M336 541l129 145l89 -17l-148 -128h-70zM327 416l-117 -208h121v208h-4zM331 0v144h-158l-81 -144h-88l284 490h350l-8 -65c-70 1 -141 2 -211 3v-146h195l-9 -59l-186 3v-162l233 3l-8 -67h-313z" />
    <glyph glyph-name="Eth.sc" horiz-adv-x="541" 
d="M213 -3c-42 0 -95 5 -130 8v222h-51v55h51v208h170c151 0 248 -83 248 -230c0 -165 -124 -263 -288 -263zM245 62c87 0 166 48 166 186c0 130 -84 182 -186 182h-54v-148h139l-8 -55h-131v-161c22 -2 51 -4 74 -4z" />
    <glyph glyph-name="Oslash.sc" horiz-adv-x="569" 
d="M131 258c0 -74 18 -126 48 -158l158 324c-20 7 -42 11 -67 11c-77 0 -139 -52 -139 -177zM298 54c78 0 140 51 140 178c0 78 -20 131 -54 163l-160 -327c22 -10 47 -14 74 -14zM264 -10c-26 0 -50 3 -73 10l-32 -66h-61l43 88c-63 39 -101 112 -101 213
c0 167 110 265 265 265c23 0 45 -3 66 -8l30 62h61l-41 -83c67 -38 108 -113 108 -217c0 -166 -110 -264 -265 -264z" />
    <glyph glyph-name="Oslashacute.sc" horiz-adv-x="569" 
d="M203 541l129 145l89 -17l-148 -128h-70zM131 258c0 -74 18 -126 48 -158l158 324c-20 7 -42 11 -67 11c-77 0 -139 -52 -139 -177zM298 54c78 0 140 51 140 178c0 78 -20 131 -54 163l-160 -327c22 -10 47 -14 74 -14zM264 -10c-26 0 -50 3 -73 10l-32 -66h-61l43 88
c-63 39 -101 112 -101 213c0 167 110 265 265 265c23 0 45 -3 66 -8l30 62h61l-41 -83c67 -38 108 -113 108 -217c0 -166 -110 -264 -265 -264z" />
    <glyph glyph-name="Thorn.sc" horiz-adv-x="454" 
d="M224 160c73 0 111 26 111 90c0 61 -40 96 -125 96h-42v-184c18 -1 35 -2 56 -2zM205 100c-13 0 -25 0 -37 1v-101h-88v490h88v-88h69c119 0 189 -44 189 -137c0 -109 -107 -165 -221 -165z" />
    <glyph glyph-name="Dcroat.sc" horiz-adv-x="541" 
d="M213 -3c-42 0 -95 5 -130 8v222h-51v55h51v208h170c151 0 248 -83 248 -230c0 -165 -124 -263 -288 -263zM245 62c87 0 166 48 166 186c0 130 -84 182 -186 182h-54v-148h139l-8 -55h-131v-161c22 -2 51 -4 74 -4z" />
    <glyph glyph-name="Hbar.sc" horiz-adv-x="568" 
d="M398 286v76h-228v-76h228zM398 0v222h-228v-222h-90v362h-43v14l16 36h27v78h90v-78h228v78h90v-78h43v-14l-16 -36h-27v-362h-90z" />
    <glyph glyph-name="IJ.sc" horiz-adv-x="561" 
d="M168 490v-490h-88v490h88zM489 490v-348c0 -99 -67 -152 -150 -152c-33 0 -64 6 -81 14l15 67c23 -9 48 -17 69 -17c35 0 59 22 59 68v368h88z" />
    <glyph glyph-name="Ldot.sc" horiz-adv-x="400" 
d="M256 276c0 22 37 60 56 60c18 0 62 -28 62 -51c0 -22 -38 -59 -56 -59c-19 0 -62 28 -62 50zM80 0v490h88v-426l214 3l-9 -67h-293z" />
    <glyph glyph-name="Lslash.sc" horiz-adv-x="400" 
d="M80 0v204l-64 -25v61l64 25v225h88v-190l108 43v-61l-108 -43v-175l214 3l-9 -67h-293z" />
    <glyph glyph-name="Eng.sc" horiz-adv-x="576" 
d="M347 -150c-24 0 -53 5 -72 11l15 73c23 -9 48 -17 74 -17c36 0 53 19 53 65v15l-257 368v-365h-80v490h88l249 -361v361h79v-488c0 -96 -63 -152 -149 -152z" />
    <glyph glyph-name="OE.sc" horiz-adv-x="732" 
d="M298 54c30 0 54 7 73 18v334c-24 18 -57 29 -101 29c-77 0 -139 -49 -139 -177c0 -149 68 -204 167 -204zM371 0v9c-32 -12 -69 -19 -107 -19c-135 0 -224 89 -224 245c0 167 115 265 253 265c30 0 56 -5 78 -12v2h307l-8 -65l-211 3v-146h195l-9 -59l-186 2v-161l233 3
l-9 -67h-312z" />
    <glyph glyph-name="Tbar.sc" horiz-adv-x="444" 
d="M373 248h-105v-248h-88v248h-128v14l16 40h112v125l-168 -2l10 65h410l-9 -65l-155 2v-125h121v-14z" />
    <glyph glyph-name="commaaccent.sc" horiz-adv-x="252" 
d="M79 -84c0 18 24 40 44 40s55 -36 55 -61s-17 -63 -61 -143l-44 17c25 52 37 86 37 99c0 11 -31 28 -31 48z" />
    <glyph glyph-name="acute.sc" horiz-adv-x="344" 
d="M63 541l129 145l89 -17l-148 -128h-70z" />
    <glyph glyph-name="grave.sc" horiz-adv-x="344" 
d="M281 541h-70l-148 128l89 17z" />
    <glyph glyph-name="hungarumlaut.sc" horiz-adv-x="442" 
d="M175 541l129 145l89 -17l-148 -128h-70zM50 541l129 145l89 -17l-148 -128h-70z" />
    <glyph glyph-name="circumflex.sc" horiz-adv-x="443" 
d="M308 541l-87 77l-87 -77h-67l124 145h60l124 -145h-67z" />
    <glyph glyph-name="caron.sc" horiz-adv-x="443" 
d="M251 545h-60l-124 145h67l87 -77l87 77h67z" />
    <glyph glyph-name="breve.sc" horiz-adv-x="435" 
d="M217 607c55 0 83 39 93 89h50c0 -84 -68 -155 -148 -155c-90 0 -137 71 -137 155h50c10 -50 37 -89 92 -89z" />
    <glyph glyph-name="tilde.sc" horiz-adv-x="454" 
d="M353 661l33 -35c-21 -28 -58 -69 -100 -69c-36 0 -97 33 -123 33s-60 -30 -65 -35l-30 35c18 20 61 67 103 67s88 -30 117 -30c26 0 48 17 65 34z" />
    <glyph glyph-name="macron.sc" horiz-adv-x="423" 
d="M343 645v-15l-18 -46h-245v15l18 46h245z" />
    <glyph glyph-name="dieresis.sc" horiz-adv-x="425" 
d="M249 625c0 20 33 54 50 54c16 0 56 -25 56 -45s-34 -54 -50 -54c-17 0 -56 26 -56 45zM70 625c0 20 33 54 50 54c16 0 56 -25 56 -45s-34 -54 -50 -54c-17 0 -56 26 -56 45z" />
    <glyph glyph-name="dotaccent.sc" horiz-adv-x="215" 
d="M49 620c0 22 37 60 56 60c18 0 62 -28 62 -51c0 -22 -38 -59 -56 -59c-19 0 -62 28 -62 50z" />
    <glyph glyph-name="ring.sc" horiz-adv-x="339" 
d="M263 623c0 -49 -45 -89 -94 -89s-93 32 -93 89c0 50 45 90 94 90s93 -31 93 -90zM124 623c0 -27 21 -45 45 -45s46 18 46 45c0 29 -22 47 -46 47s-45 -18 -45 -47z" />
    <glyph glyph-name="cedilla.sc" horiz-adv-x="294" 
d="M86 -91l43 91h47l-25 -54c46 -21 78 -35 78 -74c0 -43 -44 -92 -153 -102l-11 43c59 7 100 16 100 45c0 19 -24 32 -76 46z" />
    <glyph glyph-name="ogonek.sc" horiz-adv-x="320" 
d="M81 -135c0 55 54 107 96 135h57c-53 -39 -93 -88 -93 -126c0 -27 21 -41 43 -41c16 0 32 8 41 13l14 -41c-18 -10 -41 -21 -74 -21c-54 0 -84 32 -84 81z" />
    <glyph glyph-name="Dotlessi.sc" horiz-adv-x="248" 
d="M168 490v-490h-88v490h88z" />
    <glyph glyph-name="Tcedilla.sc" horiz-adv-x="444" 
d="M201 0h-21v427l-168 -2l10 65h410l-9 -65l-155 2v-427h-20l-25 -54c46 -21 78 -35 78 -74c0 -43 -44 -92 -153 -102l-11 43c59 7 100 16 100 45c0 19 -24 32 -76 46l-3 5z" />
    <glyph glyph-name="f_f.sc" horiz-adv-x="798" 
d="M353 214l-185 2v-216h-88v490h307l-8 -65l-211 3v-154h194zM746 214l-185 2v-216h-88v490h307l-8 -65l-211 3v-154h194z" />
    <glyph glyph-name="f_f_i.sc" horiz-adv-x="1039" 
d="M959 490v-490h-88v490h88zM353 214l-185 2v-216h-88v490h307l-8 -65l-211 3v-154h194zM747 214l-185 2v-216h-88v490h307l-8 -65l-211 3v-154h194z" />
    <glyph glyph-name="f_f_l.sc" horiz-adv-x="1200" 
d="M353 214l-185 2v-216h-88v490h307l-8 -65l-211 3v-154h194zM753 214l-185 2v-216h-88v490h307l-8 -65l-211 3v-154h194zM880 0v490h88v-426l214 3l-9 -67h-293z" />
    <glyph glyph-name="fi.sc" horiz-adv-x="648" 
d="M568 490v-490h-88v490h88zM353 214l-185 2v-216h-88v490h307l-8 -65l-211 3v-154h194z" />
    <glyph glyph-name="fl.sc" horiz-adv-x="798" 
d="M353 214l-185 2v-216h-88v490h307l-8 -65l-211 3v-154h194zM478 0v490h88v-426l214 3l-9 -67h-293z" />
    </font>
</defs>
</svg>
