<svg width="446" height="121" viewBox="0 0 446 121" fill="none" xmlns="http://www.w3.org/2000/svg">
<g clip-path="url(#clip0_157_184863)">
<path d="M95.8202 48.0829L90.768 50.0423L90.2806 51.4372L89.1435 52.1926C88.8267 47.9002 88.6155 46.1982 88.5261 46.1982H90.3537L93.7165 42.0469L88.8429 44.1889L88.4043 45.6502L83.6038 49.3698C83.8501 51.5077 83.9153 53.6632 83.7988 55.8125L84.8628 55.082C85.3258 75.5147 76.1879 83.2029 76.1879 83.2029C73.873 82.1152 73.28 81.3098 73.28 81.3098C81.6138 71.82 81.232 58.0626 81.2158 57.6059L80.3385 58.1955C80.5249 56.07 80.5656 53.9337 80.4604 51.8024L78.9252 52.9981C78.9252 51.5949 78.8115 50.4242 78.714 49.6105C79.6527 49.7232 80.6 49.4907 81.3864 48.9547C82.1986 48.3403 82.6616 46.5221 82.7997 45.7416C82.9378 44.9612 82.7997 44.7037 82.3124 44.4048C81.667 43.9156 81.0587 43.3772 80.4929 42.7942C80.4929 42.7942 81.3051 42.4455 83.1408 43.3422C85.1471 44.3136 86.6742 43.8403 88.3881 41.2416L86.333 41.5488L86.5117 40.1041C86.5493 40.1186 86.5848 40.1381 86.6173 40.1622C87.1583 40.456 87.7345 40.6765 88.3312 40.8181C88.7942 40.9095 88.786 40.8181 89.0703 41.0257C89.1685 41.1026 89.2816 41.1572 89.4021 41.1858C89.5226 41.2145 89.6476 41.2164 89.7689 41.1917C89.7689 41.1917 90.9142 41.8559 91.3934 41.1917C91.61 41.3262 91.8352 41.4455 92.0676 41.5488C92.4104 41.7033 92.775 41.8014 93.1479 41.8393C93.3882 41.8552 93.6229 41.9201 93.8383 42.0303C94.5612 42.4039 95.008 42.2129 95.1136 42.0303C95.2192 41.8476 94.6587 41.2665 94.2282 40.9011C93.9955 40.6906 93.717 40.5398 93.416 40.4611C93.5622 40.3698 93.5215 40.2287 93.2454 39.8883C92.8919 39.5537 92.4924 39.2739 92.0595 39.058C92.0595 38.784 91.0279 38.1281 90.435 37.6466C89.842 37.165 90.0613 37.1816 89.4034 36.4925C87.7572 34.9871 86.0327 33.5736 84.2374 32.2581C82.7347 31.1622 78.6166 27.9491 75.0995 26.7951C71.5824 25.641 69.503 25.8984 68.0166 26.8449C66.5301 27.7914 66.8956 29.0451 67.2043 29.8255C67.5103 30.6348 67.8685 31.4225 68.2765 32.1834C68.577 32.7895 68.3334 32.773 68.1953 32.8726C68.0572 32.9722 68.1953 33.2047 68.0734 33.1798C67.9516 33.1549 67.846 33.3292 67.6754 33.5284C67.4775 33.6747 67.2445 33.7637 67.0012 33.7859C66.9835 33.6999 66.9837 33.6111 67.0019 33.5252C67.0201 33.4393 67.0558 33.3585 67.1068 33.2877C66.906 33.1943 66.6923 33.1326 66.4733 33.105C66.522 33.0054 66.7088 32.939 66.7088 32.939C66.464 32.8991 66.2145 32.8991 65.9696 32.939C66.0509 32.8062 66.1159 32.7895 66.1159 32.7895C65.9259 32.751 65.7291 32.768 65.5481 32.8385C65.3671 32.9089 65.2092 33.0301 65.0924 33.188C64.8979 32.8627 64.657 32.569 64.3776 32.3163C64.1015 32.0589 63.9634 31.677 63.671 31.3864C63.7384 31.2758 63.7794 31.1506 63.7907 31.0207C63.802 30.8909 63.7832 30.7602 63.7359 30.6392C63.5317 30.2819 63.2045 30.0154 62.8181 29.8919C62.8887 29.853 62.9464 29.7936 62.9839 29.7212C63.0215 29.6488 63.0373 29.5666 63.0293 29.4851C63.0293 29.2028 62.7369 29.0949 62.4526 29.1862C62.1662 29.2245 61.8902 29.3204 61.6403 29.4685C61.508 29.4823 61.3746 29.4823 61.2423 29.4685C61.4403 28.9841 61.4506 28.4409 61.2711 27.949C61.0916 27.4572 60.7357 27.0535 60.2757 26.82C58.7893 25.8735 56.718 25.6161 53.1928 26.7701C49.6676 27.9242 45.5576 31.1373 44.063 32.225C42.2674 33.5429 40.5429 34.9592 38.897 36.4676C38.231 37.1567 38.4909 37.1318 37.8654 37.6217C37.24 38.1115 36.2409 38.7591 36.2409 39.0331C35.8091 39.2509 35.4098 39.5305 35.055 39.8633C34.7788 40.212 34.7382 40.3532 34.8763 40.4446C34.5759 40.525 34.2979 40.6756 34.0641 40.8845C33.6417 41.2498 33.0893 41.8393 33.1868 42.0137C33.2843 42.188 33.731 42.3873 34.4621 42.0137C34.6774 41.9035 34.9122 41.8386 35.1525 41.8227C35.5246 41.7806 35.8886 41.6827 36.2328 41.5321C36.4652 41.4289 36.6904 41.3097 36.907 41.1752C37.3618 41.8394 38.5315 41.1752 38.5315 41.1752C38.652 41.2016 38.7768 41.1995 38.8964 41.1693C39.016 41.1391 39.1273 41.0815 39.2219 41.0008C39.5143 40.8264 39.4981 40.8928 39.9611 40.8015C40.5608 40.6572 41.1396 40.434 41.6831 40.1374L41.7968 40.0792L41.9836 41.5321L39.9286 41.225C41.6343 43.8237 43.1776 44.2969 45.1595 43.3255C47.0277 42.4289 47.8156 42.7775 47.8156 42.7775C47.248 43.3586 46.6399 43.897 45.9962 44.3883C45.5332 44.6872 45.3707 44.9529 45.5088 45.725C45.6469 46.4971 46.0855 48.3237 46.9222 48.9381C47.7094 49.4721 48.6559 49.7044 49.5945 49.5939C49.497 50.4242 49.4239 51.5783 49.3833 52.9814L47.8319 51.7775C47.7269 53.9116 47.7675 56.0506 47.9537 58.1789L47.0765 57.5893C47.0765 58.0792 46.6785 71.8034 55.0204 81.2932C55.0204 81.2932 54.4193 82.1235 52.1125 83.1862C52.1125 83.1862 42.9664 75.4981 43.4375 55.0654L44.4935 55.796C44.3766 53.6439 44.4419 51.4855 44.6885 49.3449L39.9042 45.6337L39.4656 44.1724L34.5921 42.0303L37.9548 46.1816H39.7824C39.6849 46.1816 39.4819 47.8837 39.157 52.1761L38.0279 51.4205L37.5405 50.0257L32.4883 48.0663L36.0622 52.1512L37.8411 52.0349C37.8411 52.0349 36.0216 70.118 42.0323 79.8569C47.0359 87.9519 54.3137 88.0183 60.9417 83.4685C60.0837 86.0552 58.9961 88.5564 57.6927 90.9408C58.5881 90.9529 59.4814 91.0334 60.3651 91.1816C60.3651 91.1816 60.0889 92.3606 59.9427 92.7176C59.7965 93.0746 59.829 93.6806 60.5113 93.7139C61.1936 93.7471 62.0789 93.8218 62.0789 93.8218C62.0789 93.8218 61.9571 94.6521 61.9409 95.117C61.9409 95.7314 61.8596 95.9472 64.2396 96.0884C66.7251 95.9804 66.5626 95.7314 66.5382 95.117C66.5382 94.6687 66.4083 93.8218 66.4083 93.8218C66.4083 93.8218 67.3018 93.7305 67.9841 93.7139C68.6664 93.6973 68.6826 93.0829 68.5445 92.7176C68.4065 92.3523 68.114 91.1816 68.114 91.1816C69.0004 91.0335 69.8964 90.953 70.7945 90.9408C69.494 88.5549 68.4065 86.054 67.5454 83.4685C74.1816 88.0183 81.4595 87.9602 86.4711 79.8569C92.4737 70.118 90.6543 52.0349 90.6543 52.0349L92.4331 52.1512L95.8202 48.0829ZM66.9038 41.0838C67.0987 40.1705 67.2611 39.4233 67.4398 39.5395C67.6185 39.6557 67.9516 39.6806 68.0653 39.5395C68.179 39.3984 68.2196 39.3652 68.309 39.5395C68.3804 39.6167 68.47 39.6739 68.5691 39.7057C68.6683 39.7375 68.7738 39.7429 68.8756 39.7212C68.9773 39.6996 69.072 39.6518 69.1506 39.5822C69.2291 39.5126 69.2889 39.4235 69.3243 39.3236C69.6979 38.676 69.5923 39.0082 69.6979 39.2572C69.8035 39.5063 70.0878 39.6059 70.4127 39.3486C70.6669 39.1243 70.9385 38.9216 71.225 38.7425C71.4524 38.6263 71.4687 38.6844 71.5905 38.4519C71.7124 38.2194 71.9317 38.1032 71.9398 37.9538C71.9479 37.8043 71.8017 37.6216 72.021 37.5054C72.2403 37.3892 72.3459 37.3061 72.5409 37.3975C72.7358 37.4888 72.7927 37.3061 72.8982 37.3975C72.9168 37.4302 72.9435 37.4574 72.9755 37.4763C73.0076 37.4952 73.044 37.5052 73.081 37.5052C73.118 37.5052 73.1544 37.4952 73.1865 37.4763C73.2186 37.4574 73.2452 37.4302 73.2638 37.3975C73.3937 37.2563 73.4912 37.0322 73.6374 37.2978C73.7836 37.5635 74.1167 37.6133 74.1898 37.4805C74.2629 37.3476 74.3197 37.3393 74.409 37.5469C74.5002 37.6732 74.6264 37.7685 74.7713 37.8203C74.9162 37.8721 75.073 37.8782 75.2213 37.8375C75.2213 37.8375 75.5544 38.3108 75.9605 38.236C76.3666 38.1613 76.5209 37.9537 76.529 37.6797C76.5372 37.4057 76.391 36.4427 76.6671 36.6502C76.9433 36.8578 76.9352 36.7665 77.0164 36.6005C77.0976 36.4344 77.2276 36.6005 77.3657 36.6005C77.5038 36.6005 77.4794 36.3846 77.7068 36.6005C77.9342 36.8163 77.9586 36.9492 78.1861 37.0156C78.4021 37.0671 78.5925 37.1969 78.7221 37.3809C78.9577 37.6216 79.2095 37.8957 79.6237 37.7379C79.6237 37.7379 79.8918 38.0948 80.168 38.0699C80.168 38.0699 80.7365 38.7009 81.0533 38.6013C81.2891 38.7069 81.5378 38.7795 81.7925 38.8172C81.9793 38.8172 82.0118 38.6678 82.1336 38.7342C82.2555 38.8006 82.1986 38.51 82.3692 38.7342C82.5398 38.9583 82.8566 39.2904 83.0515 39.2323C83.2864 39.4396 83.5641 39.59 83.8638 39.6724C84.2212 39.7222 84.3268 39.8301 84.4405 39.8301C84.5542 39.8301 84.4973 39.7139 84.7085 39.8799C84.8057 39.9617 84.9201 40.0193 85.0427 40.0481C85.1653 40.0769 85.2928 40.0761 85.4152 40.046C85.5529 39.9733 85.7121 39.9556 85.8619 39.9962C85.9348 40.0041 86.0083 40.0041 86.0812 39.9962C85.782 40.4304 85.3481 40.7486 84.8498 40.8993C84.3515 41.05 83.818 41.0244 83.3358 40.8264C81.4676 40.237 80.899 40.5192 80.5254 40.9178C79.9022 41.5865 79.399 42.3622 79.0389 43.2093C78.8196 43.9399 78.9333 44.5045 80.3061 46.1567C78.8902 46.1796 77.481 45.9549 76.1392 45.4925C73.7592 44.7204 71.5662 44.4298 69.3568 45.4925C68.9669 45.6668 68.6095 45.8329 68.2846 45.9989C68.0328 45.7416 67.4236 45.094 67.1962 44.8034C67.2731 44.4121 67.3194 44.015 67.3343 43.6161C67.3713 43.2747 67.297 42.9303 67.1231 42.6364C66.9615 42.4255 66.8563 42.1754 66.8178 41.9105C66.7794 41.6456 66.809 41.375 66.9038 41.1253V41.0838ZM76.4072 49.0709C74.7591 50.0827 72.8626 50.5926 70.9407 50.5404C69.2945 50.5637 67.6636 50.215 66.1646 49.5192C67.548 48.6618 69.1212 48.1763 70.7377 48.1078C72.4631 47.9885 74.1937 48.246 75.8143 48.8633L76.4072 49.0709ZM65.4742 45.2185H65.5229C65.8262 45.3338 66.152 45.3736 66.4733 45.3347C66.6276 45.4343 67.2855 46.0653 67.5211 46.2978C66.8648 46.6511 66.2468 47.0741 65.6772 47.5598C65.5062 46.9546 65.4107 46.3298 65.393 45.7001C65.4255 45.5423 65.4579 45.368 65.4742 45.2185ZM62.2251 32.3163C62.6123 32.5315 62.9351 32.85 63.1593 33.2379C63.208 33.3707 63.2486 33.4952 63.2811 33.6114C62.9986 33.5298 62.7025 33.5101 62.412 33.5534C62.1166 33.0389 61.7146 32.5968 61.2342 32.2581C61.5514 32.1704 61.8879 32.1909 62.1927 32.3163H62.2251ZM59.9995 32.142C60.4872 32.9075 61.2378 33.4585 62.1033 33.6862C62.0052 33.7354 61.917 33.803 61.8434 33.8855C61.402 33.8699 60.9706 33.7475 60.5844 33.5284C60.4138 33.3292 60.3326 33.1466 60.1945 33.1715C60.0564 33.1964 60.1945 32.9556 60.0645 32.8726C59.9346 32.7896 59.6746 32.7481 59.9508 32.142H59.9995ZM59.5447 39.7056C59.5935 40.0586 59.692 40.4026 59.8371 40.7268L59.7153 40.9676C59.6641 40.5108 59.5142 40.0712 59.2766 39.6807C59.3528 39.7044 59.4329 39.7129 59.5122 39.7056H59.5447ZM47.8806 46.1069C49.2615 44.4464 49.3752 43.89 49.1478 43.1594C48.7924 42.3117 48.2917 41.5357 47.6694 40.8679C47.2795 40.4694 46.7272 40.1871 44.859 40.7766C44.3768 40.9745 43.8433 41.0002 43.345 40.8496C42.8467 40.6989 42.4128 40.3806 42.1136 39.9463C42.181 39.955 42.2492 39.955 42.3166 39.9463C42.4694 39.9103 42.6296 39.9279 42.7715 39.9962C42.8926 40.025 43.0186 40.025 43.1397 39.9962C43.2608 39.9674 43.3738 39.9106 43.4701 39.8301C43.6812 39.6723 43.6244 39.8301 43.7381 39.8301C43.8518 39.8301 43.9574 39.7222 44.3148 39.6724C44.6141 39.5847 44.8912 39.4317 45.1271 39.224C45.322 39.2821 45.6307 38.9334 45.8094 38.7259C45.9881 38.5183 45.9312 38.8255 46.053 38.7259C46.1749 38.6262 46.1992 38.7923 46.386 38.8172C46.6405 38.7782 46.889 38.7057 47.1252 38.6013C47.442 38.7009 48.0106 38.0699 48.0106 38.0699C48.2867 38.0699 48.5548 37.7379 48.5548 37.7379C48.969 37.8957 49.2209 37.6216 49.4564 37.3725C49.5871 37.1896 49.7771 37.0602 49.9925 37.0073C50.2199 36.9492 50.2362 36.8329 50.4636 36.5921C50.691 36.3514 50.6748 36.5423 50.8129 36.5921C50.951 36.642 51.0809 36.4593 51.1621 36.5921C51.2434 36.725 51.2271 36.8578 51.5033 36.6419C51.7794 36.426 51.6333 37.3891 51.6414 37.6714C51.6495 37.9537 51.8201 38.1696 52.2181 38.236C52.6161 38.3025 52.9573 37.8375 52.9573 37.8375C53.1063 37.8773 53.2637 37.87 53.4087 37.8167C53.5536 37.7633 53.6794 37.6664 53.7695 37.5387C53.8589 37.3394 53.9157 37.3559 53.9888 37.4805C54.0619 37.605 54.395 37.5469 54.5412 37.2895C54.6874 37.0322 54.7848 37.2895 54.9148 37.3975C54.9348 37.4283 54.962 37.4536 54.9939 37.4711C55.0257 37.4885 55.0614 37.4977 55.0976 37.4977C55.1338 37.4977 55.1693 37.4885 55.2012 37.4711C55.2331 37.4536 55.2603 37.4283 55.2803 37.3975C55.3859 37.2646 55.4428 37.4556 55.6377 37.3975C55.8327 37.3394 55.9383 37.3975 56.1576 37.5054C56.3769 37.6133 56.2307 37.796 56.2388 37.9538C56.2469 38.1115 56.4581 38.2111 56.588 38.4519C56.718 38.6927 56.7261 38.6263 56.9536 38.7425C57.2415 38.9162 57.5134 39.1162 57.7658 39.3403C57.8142 39.388 57.8729 39.4235 57.9371 39.4439C58.0013 39.4643 58.0693 39.469 58.1356 39.4577C58.2019 39.4464 58.2648 39.4195 58.3191 39.3789C58.3733 39.3383 58.4175 39.2852 58.4481 39.224C58.4969 39.4399 58.5618 39.7803 58.6593 39.7803C58.7568 39.7803 58.8461 39.5146 58.9192 39.3486C59.0167 39.4897 59.1304 39.4565 59.2441 39.4981C58.9893 40.0056 58.8666 40.5716 58.8879 41.1416C58.9093 41.7117 59.0739 42.2665 59.366 42.7526C59.4147 42.7526 59.4553 42.6862 59.4878 42.5866C59.5567 42.9783 59.5731 43.3776 59.5366 43.7738C59.1969 44.258 58.9389 44.7968 58.773 45.3679C56.588 44.3965 54.4193 44.7037 52.0719 45.4676C50.7192 45.9172 49.3028 46.1333 47.8806 46.1069ZM57.9933 48.1161C57.7383 48.9673 57.3576 49.7737 56.8642 50.5073C55.063 50.5035 53.2967 49.9983 51.7551 49.046L52.3562 48.8385C53.9773 48.2232 55.7074 47.9656 57.4328 48.0829L57.9933 48.1161ZM50.1387 49.3698C50.3626 49.3475 50.585 49.3115 50.8047 49.2619C51.487 49.9676 53.404 51.5285 57.0104 51.5285C61.6891 51.5285 64.0771 49.2287 64.0771 49.2287C64.0771 49.2287 66.4652 51.5368 71.1357 51.5368C74.7583 51.5368 76.6671 49.9925 77.3494 49.295C77.6012 49.3532 77.8043 49.3366 78.0155 49.3698C78.5841 54.177 77.6419 60.9935 77.6419 60.9935H50.5042C50.5042 60.9935 49.5701 54.2019 50.1387 49.4279V49.3698ZM50.5042 61.8237H77.6419C77.3146 65.205 76.4245 68.5043 75.0101 71.5792H53.1359C51.7278 68.5224 50.8379 65.2433 50.5042 61.8818V61.8237ZM64.0771 84.5396C55.9545 78.5202 53.5177 72.368 53.5177 72.368H74.5715C74.5715 72.368 72.216 78.545 64.0771 84.5644V84.5396Z" fill="white"/>
<path d="M69.1641 60.3707C69.6242 60.3582 70.0684 60.1952 70.4312 59.9057C70.6273 59.9732 70.8336 60.0041 71.0404 59.997C71.4083 59.9786 71.7637 59.8552 72.0666 59.641C72.3695 59.4268 72.6077 59.1303 72.7543 58.7849C73.0882 58.8378 73.4299 58.7795 73.729 58.6188C74.0535 58.4133 74.3065 58.1088 74.4522 57.7482C74.598 57.3876 74.6292 56.9893 74.5413 56.6096L74.6387 56.5266C74.9291 56.2174 75.0913 55.8054 75.0913 55.3767C75.0913 54.9481 74.9291 54.536 74.6387 54.2268L74.5819 54.1686C74.6847 54.0939 74.769 53.9957 74.8282 53.8819C74.8874 53.7681 74.9199 53.6417 74.923 53.5128C74.923 53.0395 74.3707 52.6825 73.8589 52.6825C73.3472 52.6825 72.7949 53.0561 72.7949 53.5128C72.6203 53.5907 72.452 53.6822 72.2913 53.7867C72.1753 53.9018 72.0836 54.0401 72.0221 54.1929C71.9606 54.3458 71.9306 54.5098 71.9339 54.6751C71.8477 54.7018 71.7656 54.741 71.6902 54.7913C71.5736 54.8548 71.469 54.9392 71.3816 55.0404C71.2367 54.9966 71.0858 54.977 70.9348 54.9823C70.7168 54.9875 70.5017 55.0354 70.3012 55.1234C69.9395 54.8588 69.5032 54.7218 69.0585 54.7332C68.4022 54.849 67.8082 55.2011 67.3841 55.726C66.96 56.2508 66.7338 56.9136 66.7466 57.5941C66.7594 58.2747 67.0102 58.9281 67.4537 59.436C67.8972 59.9438 68.504 60.2725 69.1641 60.3624V60.3707Z" fill="white"/>
<path d="M53.6086 56.5266L53.7142 56.6013C53.627 56.9822 53.6583 57.3814 53.804 57.7431C53.9496 58.1049 54.2022 58.411 54.5265 58.6188C54.825 58.7812 55.1673 58.8396 55.5012 58.7849C55.6493 59.1291 55.8879 59.4247 56.1904 59.6387C56.493 59.8527 56.8477 59.9767 57.215 59.997C57.4191 60.004 57.6228 59.973 57.8161 59.9057C58.179 60.1952 58.6231 60.3582 59.0832 60.3707C59.7528 60.2937 60.3722 59.9706 60.8261 59.4615C61.2799 58.9524 61.5373 58.2921 61.5502 57.6035C61.5631 56.9148 61.3307 56.2448 60.8963 55.7183C60.4619 55.1918 59.855 54.8447 59.1888 54.7415C58.7431 54.7323 58.3057 54.8658 57.938 55.1234C57.7352 55.0443 57.5212 54.9994 57.3044 54.9906C57.1539 54.9859 57.0036 55.0027 56.8576 55.0404C56.759 54.9437 56.6468 54.8625 56.5246 54.7996C56.4389 54.7468 56.3457 54.7076 56.2484 54.6834C56.2559 54.5198 56.2301 54.3566 56.1728 54.2037C56.1155 54.0508 56.0279 53.9116 55.9154 53.795C55.7445 53.6834 55.562 53.5915 55.3712 53.5211C55.3298 53.2785 55.2027 53.06 55.014 52.9069C54.8253 52.7538 54.5882 52.677 54.3477 52.6908C54.1124 52.6764 53.8805 52.7541 53.6994 52.9084C53.5183 53.0627 53.4016 53.2819 53.3731 53.5211C53.3734 53.6479 53.402 53.7729 53.4569 53.8866C53.5119 54.0002 53.5915 54.0996 53.6898 54.1769C53.6662 54.1939 53.6444 54.2134 53.6249 54.2351C53.3346 54.5418 53.171 54.9509 53.168 55.3775C53.165 55.8042 53.3228 56.2157 53.6086 56.5266Z" fill="white"/>
<path d="M64.169 71.0146L65.2899 69.2711L65.0787 68.4408L65.9641 68.5654C66.021 68.939 66.2646 69.3957 66.6139 69.3957C66.9297 69.4317 67.2484 69.4317 67.5642 69.3957L67.8973 68.997C67.6108 68.7205 67.3009 68.4705 66.9713 68.2499C66.9306 66.5831 66.6571 64.9308 66.159 63.343C65.8585 62.5128 65.4686 62.4464 64.7132 62.5128C63.737 62.8572 62.8023 63.314 61.9271 63.8744L61.7891 65.0783L62.4876 65.1613L61.9434 67.0045C61.8053 67.4944 61.9434 67.4694 62.1871 67.652C62.5801 67.837 62.9913 67.979 63.4136 68.0755L63.1293 69.3292L64.169 71.0146Z" fill="white"/>
<path d="M61.5195 55.7047C61.9257 58.0958 63.4284 58.3117 64.0213 58.2951C64.0169 58.8026 63.9652 59.3086 63.867 59.8061L64.6142 60.3209C64.6801 59.5141 64.6801 58.7032 64.6142 57.8965C66.3931 57.6308 66.7586 54.9242 66.7586 54.9242C66.1975 55.1317 65.7002 55.4878 65.3178 55.956C64.9353 56.4243 64.6813 56.9878 64.5818 57.5893C64.531 56.994 64.3712 56.4139 64.1106 55.879C64.5385 55.8301 64.9436 55.6567 65.278 55.3795C65.6123 55.1024 65.8619 54.733 65.997 54.3152C66.1321 53.8974 66.1471 53.4487 66.0402 53.0224C65.9333 52.5962 65.7091 52.2102 65.394 51.9103L65.7596 51.2046L64.9473 51.3623L64.6224 50.748L64.0456 51.2296L63.6964 50.748L63.3309 51.296L62.6405 50.8974L62.8273 51.5368C62.4024 51.7531 62.0554 52.1012 61.8358 52.5313C61.6163 52.9614 61.5354 53.4515 61.6048 53.9315C61.6742 54.4114 61.8903 54.8566 62.2222 55.2034C62.5541 55.5502 62.9848 55.7809 63.4527 55.8624C63.7822 56.4558 63.9636 57.123 63.9807 57.8052C63.3995 56.8555 62.5374 56.1198 61.5195 55.7047ZM63.9563 55.8458C63.4121 55.8458 62.9735 54.8495 62.9735 53.629C62.9735 52.4085 63.4121 51.4205 63.9563 51.4205C64.5005 51.4205 64.9392 52.4085 64.9392 53.629C64.9392 54.8495 64.5005 55.8458 63.9563 55.8458Z" fill="white"/>
<path d="M65.9238 75.3568C65.8236 75.1239 65.7718 74.8723 65.7718 74.6179C65.7718 74.3635 65.8236 74.1118 65.9238 73.8789H63.2028C63.1025 74.1118 63.0508 74.3635 63.0508 74.6179C63.0508 74.8723 63.1025 75.1239 63.2028 75.3568H65.9238Z" fill="white"/>
<path d="M63.1992 78.819C62.9961 79.4642 62.9961 80.1582 63.1992 80.8034H65.9041C65.7093 80.1569 65.7093 79.4655 65.9041 78.819H63.1992Z" fill="white"/>
<path d="M66.5657 76.843L67.1667 75.8467H63.0323L62.5775 75.3485H62.3906H60.8555L61.0667 75.8467H61.4809L61.9277 76.843H66.5657Z" fill="white"/>
<path d="M66.5296 81.2932H66.3752H65.6929H65.1081H64.4177H63.9791H63.248H63.0287L62.7769 80.795H61.8672L62.1434 81.3596L62.8825 81.7747H66.4565L67.1712 81.3513L67.2768 80.795H66.692L66.5296 81.2932Z" fill="white"/>
<path d="M139.984 38.319H145.499L147.424 43.4915H152.192L144.549 24.3458H140.755L133.559 43.4915H138.14L139.984 38.319ZM141.34 34.4002L142.664 30.6474L144.053 34.4002H141.34Z" fill="white"/>
<path d="M161.486 43.782C163.182 43.8569 164.861 43.4148 166.311 42.5118L166.635 43.4915H169.99V32.6981H161.38V36.8494H165.774V37.9952C165.231 38.5971 164.562 39.0652 163.816 39.3643C163.07 39.6634 162.268 39.7858 161.469 39.7222C160.836 39.7508 160.204 39.6353 159.62 39.3841C159.036 39.1328 158.513 38.752 158.09 38.2692C157.236 36.9865 156.779 35.4704 156.779 33.9186C156.779 32.3667 157.236 30.8507 158.09 29.568C158.511 29.0871 159.031 28.7079 159.612 28.458C160.194 28.2081 160.823 28.0938 161.453 28.1234C162.465 28.068 163.47 28.3255 164.337 28.8623C164.63 29.0601 164.874 29.3253 165.049 29.6367C165.224 29.9481 165.325 30.2972 165.344 30.6557L165.425 31.6353H169.82L169.706 30.4648C169.631 29.5258 169.355 28.6152 168.896 27.7984C168.436 26.9817 167.806 26.2789 167.05 25.7405C165.4 24.5899 163.433 24.0081 161.437 24.08C160.226 24.0412 159.021 24.2653 157.9 24.7376C156.78 25.2099 155.771 25.9196 154.939 26.8199C153.319 28.8264 152.434 31.3464 152.434 33.9476C152.434 36.5488 153.319 39.0689 154.939 41.0754C155.784 41.9697 156.803 42.6728 157.931 43.1391C159.059 43.6053 160.27 43.8243 161.486 43.782Z" fill="white"/>
<path d="M187.495 39.3319H177.293V35.7203H186.472V31.5607H177.293V28.5054H187.105V24.3458H172.996V43.4915H187.495V39.3319Z" fill="white"/>
<path d="M194.421 32.5404L201.529 43.4915H205.395V24.3458H201.204V35.2969L194.097 24.3458H190.238V43.4915H194.421V32.5404Z" fill="white"/>
<path d="M216.817 28.1234C217.686 28.0872 218.542 28.3439 219.254 28.854C219.537 29.0625 219.77 29.3336 219.936 29.647C220.102 29.9604 220.196 30.3081 220.213 30.6641L220.294 31.6354H224.68L224.566 30.4648C224.492 29.5425 224.226 28.647 223.786 27.8381C223.346 27.0292 222.743 26.3255 222.016 25.7738C220.503 24.6141 218.651 24.0086 216.76 24.0551C215.563 24.0084 214.37 24.2276 213.264 24.6978C212.157 25.1679 211.164 25.8778 210.352 26.7784C208.809 28.8247 207.973 31.3353 207.973 33.9186C207.973 36.5019 208.809 39.0126 210.352 41.0589C211.162 41.9613 212.156 42.6724 213.262 43.1427C214.369 43.6129 215.563 43.8311 216.76 43.7821C218.673 43.8494 220.55 43.2459 222.081 42.0718C222.817 41.469 223.419 40.7131 223.848 39.8543C224.276 38.9954 224.521 38.0532 224.566 37.0902L224.672 35.9279H220.302L220.213 36.8993C220.202 37.2903 220.11 37.6744 219.944 38.0265C219.777 38.3786 219.539 38.6905 219.246 38.9417C218.372 39.5281 217.326 39.7836 216.287 39.6638C215.249 39.544 214.284 39.0565 213.56 38.2858C212.663 37.0098 212.232 35.4528 212.342 33.8855C212.23 32.3193 212.664 30.7631 213.568 29.4934C213.969 29.023 214.471 28.6544 215.035 28.4166C215.599 28.1789 216.209 28.0785 216.817 28.1234Z" fill="white"/>
<path d="M231.883 24.3458H227.578V43.4915H231.883V24.3458Z" fill="white"/>
<path d="M240.341 24.3458L233.152 43.4915H237.734L239.569 38.319H245.085L247.018 43.4915H251.778L244.142 24.3458H240.341ZM240.926 34.4002L242.258 30.6474L243.647 34.4002H240.926Z" fill="white"/>
<path d="M275.39 30.3818C275.401 29.154 275.066 27.9488 274.423 26.9113C273.793 25.8642 272.797 25.1014 271.637 24.7776C270.426 24.4686 269.181 24.3235 267.933 24.3458H260.68V43.4915H264.968V36.7H268.112C270.002 36.8155 271.874 36.2581 273.408 35.1225C274.073 34.5414 274.597 33.8113 274.941 32.989C275.285 32.1668 275.438 31.2746 275.39 30.3818ZM270.687 29.2277C270.918 29.5931 271.034 30.0218 271.02 30.4565C271.045 30.7384 271.008 31.0223 270.913 31.288C270.817 31.5536 270.665 31.7943 270.467 31.9924C269.77 32.4301 268.951 32.6226 268.136 32.5404H264.968V28.5054H268.096C268.745 28.4792 269.394 28.5378 270.029 28.6797C270.169 28.7214 270.299 28.7913 270.412 28.8855C270.525 28.9796 270.619 29.096 270.687 29.2277Z" fill="white"/>
<path d="M286.572 24.3458H282.771L275.582 43.4915H280.163L281.999 38.319H287.514L289.447 43.4915H294.207L286.572 24.3458ZM283.323 34.4002L284.655 30.6474L286.044 34.4002H283.323Z" fill="white"/>
<path d="M303.63 24.3458H295.215V43.4915H299.512V36.2184H302.533C303.12 36.2071 303.693 36.4004 304.158 36.7664C304.642 37.1424 305.007 37.6567 305.206 38.2443L307.017 43.4915H315.952L317.788 38.319H323.303L325.236 43.4915H329.996L322.361 24.3458H318.559L311.493 43.1593L309.429 37.4223C309.122 36.5056 308.642 35.6594 308.016 34.9316C308.51 34.6275 308.954 34.2466 309.332 33.8024C310.174 32.7864 310.619 31.4885 310.583 30.1576C310.591 28.9805 310.264 27.8265 309.641 26.8365C309.059 25.8535 308.146 25.1214 307.074 24.7775C305.953 24.4618 304.792 24.3163 303.63 24.3458ZM319.16 34.4002L320.492 30.6474L321.881 34.4002H319.16ZM306.237 30.1824C306.237 31.2534 305.872 31.5109 305.758 31.5939C305.027 31.9851 304.199 32.1495 303.378 32.0671H299.512V28.3559H303.719C306.197 28.3559 306.197 29.5431 306.197 30.1824H306.237Z" fill="white"/>
<path d="M351.263 43.3006V39.3402H343.14V24.3458H338.852V43.4915H355.747L357.582 38.319H363.098L365.031 43.4915H369.791L362.147 24.3458H358.354L351.263 43.3006ZM358.963 34.4002L360.287 30.6474L361.684 34.4002H358.963Z" fill="white"/>
<path d="M151.306 55.9204C151.314 54.7434 150.987 53.5894 150.364 52.5994C149.782 51.6164 148.87 50.8842 147.797 50.5404C146.671 50.223 145.505 50.0775 144.337 50.1086H135.922V69.2544H140.211V61.9813H143.24C143.827 61.9701 144.4 62.1634 144.865 62.5293C145.347 62.9077 145.711 63.4212 145.913 64.0072L147.724 69.2544H152.346L150.161 63.1852C149.853 62.2685 149.373 61.4223 148.747 60.6944C149.24 60.3924 149.682 60.0111 150.055 59.5653C150.9 58.5509 151.346 57.2519 151.306 55.9204ZM146.944 55.9204C146.944 56.9914 146.579 57.2489 146.465 57.3319C145.734 57.7231 144.907 57.8875 144.085 57.8051H140.211V54.0939H144.426C146.944 54.0939 146.944 55.2811 146.944 55.9204Z" fill="white"/>
<path d="M168.948 65.0699H158.746V61.4583H167.925V57.2987H158.746V54.2351H168.558V50.0838H154.449V69.2295H168.948V65.0699Z" fill="white"/>
<path d="M176.278 50.0838H171.973V69.2295H176.278V50.0838Z" fill="white"/>
<path d="M190.864 61.0349L183.757 50.0838H179.898V69.2295H184.082V58.2784L191.189 69.2295H195.055V50.0838H190.864V61.0349Z" fill="white"/>
<path d="M211.774 67.8098C212.51 67.207 213.112 66.4511 213.541 65.5923C213.969 64.7334 214.214 63.7912 214.259 62.8283L214.365 61.6659H209.995L209.906 62.6373C209.895 63.0283 209.803 63.4124 209.637 63.7645C209.47 64.1166 209.232 64.4285 208.939 64.6797C208.065 65.2662 207.019 65.5216 205.98 65.4018C204.942 65.282 203.977 64.7945 203.253 64.0238C202.353 62.7489 201.919 61.1918 202.027 59.6235C201.917 58.0563 202.354 56.5 203.261 55.2314C203.654 54.7608 204.148 54.3894 204.705 54.146C205.261 53.9026 205.865 53.7939 206.47 53.8283C207.338 53.7933 208.194 54.0499 208.906 54.5589C209.189 54.7674 209.422 55.0384 209.588 55.3518C209.754 55.6652 209.849 56.0128 209.865 56.3688L209.946 57.3403H214.332L214.219 56.1696C214.144 55.2473 213.878 54.3518 213.438 53.5429C212.999 52.734 212.395 52.0302 211.668 51.4786C210.155 50.3188 208.304 49.7135 206.413 49.76C205.215 49.7132 204.022 49.9324 202.916 50.4026C201.81 50.8727 200.816 51.5826 200.004 52.4833C198.462 54.5296 197.625 57.0402 197.625 59.6235C197.625 62.2068 198.462 64.7174 200.004 66.7637C200.815 67.6661 201.808 68.3771 202.915 68.8474C204.022 69.3177 205.215 69.536 206.413 69.4869C208.335 69.5734 210.228 68.9812 211.774 67.8098Z" fill="white"/>
<path d="M225.222 69.5201C226.434 69.5595 227.64 69.3348 228.761 68.861C229.881 68.3872 230.89 67.6751 231.72 66.772C233.342 64.7728 234.229 62.2576 234.229 59.6608C234.229 57.064 233.342 54.5488 231.72 52.5496C230.868 51.676 229.855 50.9829 228.74 50.51C227.625 50.0371 226.429 49.7936 225.222 49.7936C224.015 49.7936 222.82 50.0371 221.705 50.51C220.589 50.9829 219.577 51.676 218.724 52.5496C217.098 54.548 216.207 57.0654 216.207 59.6649C216.207 62.2644 217.098 64.7819 218.724 66.7803C219.557 67.6797 220.566 68.3889 221.686 68.8611C222.806 69.3333 224.011 69.5579 225.222 69.5201ZM229.836 59.6566C229.936 61.2243 229.464 62.7743 228.512 64.0073C228.087 64.4671 227.574 64.8333 227.006 65.0837C226.437 65.334 225.825 65.4631 225.206 65.4631C224.587 65.4631 223.974 65.334 223.406 65.0837C222.838 64.8333 222.325 64.4671 221.9 64.0073C221.032 62.7344 220.567 61.2203 220.567 59.6691C220.567 58.1178 221.032 56.6038 221.9 55.331C222.318 54.8502 222.835 54.4698 223.413 54.2172C223.992 53.9645 224.618 53.8459 225.247 53.8697C225.859 53.8527 226.468 53.9741 227.03 54.2253C227.591 54.4764 228.092 54.8511 228.496 55.3227C229.453 56.547 229.931 58.0919 229.836 59.6566Z" fill="white"/>
<path d="M241.085 61.9564H244.115C244.702 61.9418 245.276 62.1354 245.74 62.5044C246.226 62.8782 246.591 63.3932 246.787 63.9823L248.599 69.2295H253.22L251.036 63.1603C250.731 62.2422 250.251 61.3954 249.622 60.6696C250.119 60.3699 250.563 59.9884 250.938 59.5404C251.78 58.5244 252.225 57.2265 252.189 55.8956C252.196 54.7198 251.872 53.5668 251.255 52.5745C250.67 51.591 249.755 50.859 248.68 50.5155C247.554 50.1982 246.388 50.0527 245.22 50.0838H236.805V69.2295H241.085V61.9564ZM247.811 55.9204C247.811 56.9914 247.453 57.2489 247.332 57.3319C246.6 57.7231 245.773 57.8875 244.952 57.8051H241.085V54.0939H245.293C247.811 54.0939 247.811 55.2811 247.811 55.9204Z" fill="white"/>
<path d="M266.266 50.5156C265.058 50.2061 263.815 50.0609 262.57 50.0838H255.316V69.2295H259.605V62.4381H262.749C264.639 62.5522 266.51 61.9948 268.044 60.8606C268.709 60.2795 269.234 59.5493 269.578 58.7271C269.922 57.9048 270.075 57.0126 270.026 56.1198C270.038 54.892 269.702 53.6869 269.06 52.6493C268.429 51.6 267.429 50.8368 266.266 50.5156ZM265.323 54.9658C265.551 55.3328 265.667 55.7603 265.656 56.1945C265.682 56.4764 265.645 56.7604 265.549 57.026C265.454 57.2916 265.302 57.5323 265.104 57.7305C264.406 58.1682 263.588 58.3606 262.773 58.2785H259.605V54.2434H262.732C263.381 54.2173 264.031 54.2758 264.666 54.4178C264.807 54.4584 264.939 54.5279 265.053 54.6221C265.168 54.7163 265.262 54.8332 265.332 54.9658H265.323Z" fill="white"/>
<path d="M280.822 69.5201C282.034 69.56 283.24 69.3356 284.361 68.8617C285.481 68.3878 286.49 67.6755 287.32 66.772C288.941 64.7728 289.829 62.2575 289.829 59.6608C289.829 57.064 288.941 54.5488 287.32 52.5496C286.468 51.675 285.455 50.9811 284.34 50.5075C283.225 50.034 282.029 49.7902 280.822 49.7902C279.614 49.7902 278.419 50.034 277.304 50.5075C276.188 50.9811 275.176 51.675 274.324 52.5496C272.691 54.5452 271.797 57.0637 271.797 59.6649C271.797 62.2662 272.691 64.7847 274.324 66.7803C275.156 67.6797 276.166 68.3889 277.286 68.8611C278.406 69.3333 279.611 69.5579 280.822 69.5201ZM285.444 59.6566C285.544 61.2242 285.072 62.7743 284.12 64.0072C283.694 64.4671 283.182 64.8333 282.614 65.0837C282.045 65.334 281.433 65.4631 280.814 65.4631C280.195 65.4631 279.582 65.334 279.014 65.0837C278.445 64.8333 277.933 64.4671 277.508 64.0072C276.64 62.7344 276.175 61.2203 276.175 59.6691C276.175 58.1178 276.64 56.6038 277.508 55.331C277.924 54.8504 278.439 54.47 279.017 54.2174C279.594 53.9647 280.219 53.8459 280.846 53.8697C281.459 53.8521 282.068 53.9733 282.63 54.2245C283.192 54.4756 283.692 54.8507 284.095 55.3227C285.056 56.5458 285.537 58.0909 285.444 59.6566Z" fill="white"/>
<path d="M315.004 64.057H320.527L322.452 69.2295H327.188L319.553 50.0838H315.759L308.685 68.8973L306.621 63.1603C306.314 62.2436 305.834 61.3974 305.208 60.6696C305.701 60.3655 306.146 59.9846 306.524 59.5404C307.366 58.5244 307.811 57.2265 307.775 55.8956C307.782 54.7198 307.458 53.5668 306.841 52.5745C306.256 51.591 305.341 50.859 304.266 50.5155C303.14 50.1982 301.974 50.0527 300.806 50.0838H292.391V69.2295H296.687V61.9564H299.717C300.304 61.9431 300.878 62.1366 301.342 62.5044C301.828 62.8782 302.193 63.3932 302.39 63.9823L304.201 69.2295H313.136L315.004 64.057ZM303.437 55.9204C303.437 56.9914 303.08 57.2489 302.958 57.3319C302.227 57.7231 301.4 57.8875 300.578 57.8051H296.712V54.0939H300.919C303.421 54.0939 303.421 55.2811 303.421 55.9204H303.437ZM316.369 60.1382L317.693 56.3854L319.081 60.1382H316.369Z" fill="white"/>
<path d="M336.22 53.8614C337.088 53.8265 337.944 54.0831 338.657 54.5921C338.939 54.8005 339.172 55.0716 339.338 55.385C339.504 55.6984 339.599 56.0461 339.615 56.4021L339.696 57.3734H344.082L343.969 56.2028C343.894 55.2805 343.628 54.385 343.188 53.5761C342.749 52.7672 342.145 52.0635 341.418 51.5118C339.904 50.3532 338.054 49.7479 336.163 49.7931C334.966 49.7464 333.773 49.9656 332.666 50.4358C331.56 50.9059 330.566 51.6158 329.754 52.5164C328.212 54.5627 327.375 57.0733 327.375 59.6566C327.375 62.2399 328.212 64.7506 329.754 66.7969C330.565 67.6993 331.558 68.4104 332.665 68.8807C333.772 69.351 334.965 69.5691 336.163 69.5201C338.075 69.5874 339.953 68.9839 341.483 67.8098C342.219 67.207 342.822 66.4511 343.25 65.5923C343.679 64.7334 343.924 63.7912 343.969 62.8283L344.074 61.6659H339.704L339.615 62.6373C339.604 63.0283 339.513 63.4124 339.346 63.7645C339.18 64.1166 338.942 64.4285 338.648 64.6797C337.775 65.2662 336.728 65.5216 335.69 65.4018C334.651 65.282 333.686 64.7945 332.963 64.0238C332.063 62.7489 331.628 61.1918 331.736 59.6235C331.626 58.0563 332.064 56.5 332.971 55.2314C333.371 54.761 333.873 54.3924 334.437 54.1546C335.001 53.9169 335.611 53.8165 336.22 53.8614Z" fill="white"/>
<path d="M351.285 50.0838H346.98V69.2295H351.285V50.0838Z" fill="white"/>
<path d="M369.652 52.5497C368.411 51.1812 366.764 50.268 364.965 49.9509L368.214 45.7498H362.724L360.709 50.1004C359.156 50.5022 357.747 51.349 356.648 52.5413C355.015 54.5369 354.121 57.0554 354.121 59.6566C354.121 62.2579 355.015 64.7764 356.648 66.772C357.501 67.6446 358.514 68.3368 359.629 68.8091C360.744 69.2814 361.939 69.5244 363.146 69.5244C364.353 69.5244 365.548 69.2814 366.663 68.8091C367.778 68.3368 368.791 67.6446 369.644 66.772C371.261 64.7708 372.146 62.2563 372.146 59.6608C372.146 57.0653 371.261 54.5509 369.644 52.5497H369.652ZM359.848 63.9989C358.981 62.7261 358.515 61.212 358.515 59.6608C358.515 58.1095 358.981 56.5955 359.848 55.3227C360.264 54.8421 360.78 54.4617 361.357 54.2091C361.934 53.9564 362.559 53.8376 363.187 53.8614C363.8 53.8427 364.409 53.9633 364.971 54.2145C365.533 54.4658 366.033 54.8415 366.436 55.3144C367.298 56.5924 367.76 58.1082 367.76 59.6608C367.76 61.2133 367.298 62.7292 366.436 64.0073C366.01 64.4671 365.498 64.8334 364.93 65.0837C364.361 65.334 363.749 65.4632 363.13 65.4632C362.511 65.4632 361.898 65.334 361.33 65.0837C360.761 64.8334 360.249 64.4671 359.824 64.0073L359.848 63.9989Z" fill="white"/>
<path d="M374.734 69.2295H378.909V58.2784L386.025 69.2295H389.891V50.0838H385.7V61.0349L378.585 50.0838H374.734V69.2295Z" fill="white"/>
<path d="M142.867 82.7544L138.465 75.8218H133.242L140.707 87.022V94.9675H145.004V87.022L152.468 75.8218H147.246L142.867 82.7544Z" fill="white"/>
<path d="M180.598 75.8218L173.474 94.7683V90.8162H165.352V75.8218H161.055V94.9675H177.95L179.785 89.795H185.309L187.234 94.9675H191.994L184.358 75.8218H180.598ZM181.183 85.8762L182.507 82.1234L183.896 85.8762H181.183Z" fill="white"/>
<path d="M211.895 86.7729L204.78 75.8218H200.93V94.9675H205.105V84.0164L212.22 94.9675H216.086V75.8218H211.895V86.7729Z" fill="white"/>
<path d="M227.716 75.5312C226.505 75.4965 225.3 75.7235 224.181 76.197C223.061 76.6706 222.051 77.3801 221.218 78.2794C219.586 80.2749 218.691 82.7934 218.691 85.3946C218.691 87.9959 219.586 90.5145 221.218 92.51C222.071 93.3826 223.084 94.0749 224.199 94.5471C225.314 95.0194 226.509 95.2625 227.716 95.2625C228.923 95.2625 230.118 95.0194 231.233 94.5471C232.348 94.0749 233.361 93.3826 234.214 92.51C235.831 90.5088 236.716 87.9943 236.716 85.3988C236.716 82.8033 235.831 80.2889 234.214 78.2877C233.384 77.3835 232.376 76.6701 231.256 76.1949C230.135 75.7197 228.929 75.4934 227.716 75.5312ZM224.394 89.737C223.527 88.4642 223.061 86.9501 223.061 85.3988C223.061 83.8475 223.527 82.3335 224.394 81.0607C224.81 80.5801 225.326 80.1997 225.903 79.9471C226.48 79.6944 227.105 79.5757 227.733 79.5994C228.346 79.5807 228.955 79.7013 229.517 79.9526C230.079 80.2038 230.579 80.5795 230.982 81.0524C231.844 82.3304 232.306 83.8462 232.306 85.3988C232.306 86.9513 231.844 88.4673 230.982 89.7453C230.557 90.2051 230.044 90.5714 229.476 90.8217C228.907 91.0721 228.295 91.2012 227.676 91.2012C227.057 91.2012 226.444 91.0721 225.876 90.8217C225.307 90.5714 224.795 90.2051 224.37 89.7453L224.394 89.737Z" fill="white"/>
<path d="M252.099 86.4324C252.595 86.1327 253.04 85.7512 253.415 85.3033C254.257 84.2873 254.702 82.9894 254.665 81.6584C254.673 80.4827 254.348 79.3297 253.731 78.3374C253.147 77.3538 252.231 76.6218 251.156 76.2784C250.03 75.961 248.864 75.8155 247.696 75.8466H239.281V94.9924H243.578V87.7193H246.608C247.195 87.7047 247.769 87.8984 248.232 88.2673C248.719 88.6412 249.084 89.1562 249.28 89.7452L251.091 94.9924H255.705L253.52 88.9232C253.21 88.0058 252.727 87.1596 252.099 86.4324ZM250.304 81.6584C250.304 82.7295 249.946 82.9869 249.824 83.0699C249.093 83.4611 248.266 83.6255 247.444 83.5431H243.578V79.8319H247.786C250.304 79.8319 250.304 81.0191 250.304 81.6584Z" fill="white"/>
<path d="M273.457 72.8827L272.498 75.8218H270.443L266.674 87.6197L262.922 75.8218H260.867L259.908 72.8827V75.8218H257.812V94.9675H261.996V85.9841L264.944 94.9675H268.421L271.369 85.9758V94.9675H275.552V75.8218H273.457V72.8827Z" fill="white"/>
<path d="M283.755 75.8218L276.566 94.9675H281.147L282.983 89.795H288.498L290.432 94.9675H295.191L287.556 75.8218H283.755ZM284.34 85.8762L285.672 82.1234L287.061 85.8762H284.34Z" fill="white"/>
<path d="M300.461 75.8218H296.172V94.9675H308.559V90.8079H300.461V75.8218Z" fill="white"/>
<path d="M315.414 75.8218H311.109V94.9675H315.414V75.8218Z" fill="white"/>
<path d="M339.825 75.8218L332.856 94.3864V90.8162H323.393L332.571 79.3836V75.8218H318.56V79.9731H326.78L317.609 91.3975V94.9592H337.209L339.053 89.7867H344.568L346.493 94.9592H351.261L343.618 75.8135L339.825 75.8218ZM340.41 85.8762L341.734 82.1234L343.123 85.8762H340.41Z" fill="white"/>
<path d="M360.279 79.5994C361.147 79.5662 362.002 79.8227 362.715 80.33C362.996 80.5402 363.227 80.8118 363.391 81.125C363.556 81.4382 363.649 81.785 363.666 82.14L363.755 83.1114H368.133L368.019 81.9408C367.945 81.0185 367.679 80.123 367.239 79.3141C366.799 78.5052 366.196 77.8014 365.469 77.2498C363.956 76.0889 362.105 75.4833 360.214 75.5311C359.016 75.4849 357.823 75.7044 356.717 76.1746C355.611 76.6447 354.617 77.3542 353.805 78.2544C352.262 80.3006 351.426 82.8113 351.426 85.3946C351.426 87.9779 352.262 90.4886 353.805 92.5349C354.616 93.4373 355.609 94.1483 356.715 94.6186C357.822 95.0889 359.016 95.3071 360.214 95.258C362.126 95.3267 364.004 94.7231 365.534 93.5478C366.271 92.9461 366.874 92.1904 367.303 91.3313C367.732 90.4723 367.976 89.5295 368.019 88.5662L368.125 87.4038H363.755L363.739 88.45C363.73 88.8413 363.64 89.2262 363.473 89.5786C363.306 89.931 363.067 90.2426 362.772 90.4924C361.899 91.0788 360.852 91.3343 359.813 91.2145C358.775 91.0947 357.81 90.6072 357.086 89.8365C356.288 88.5156 355.864 86.9933 355.864 85.4403C355.864 83.8873 356.288 82.365 357.086 81.044C357.474 80.5682 357.963 80.1903 358.517 79.9397C359.071 79.6891 359.674 79.5726 360.279 79.5994Z" fill="white"/>
<path d="M375.344 75.8218H371.039V94.9675H375.344V75.8218Z" fill="white"/>
<path d="M389.022 75.6889L392.271 71.4878H386.772L384.758 75.8384C383.204 76.2402 381.795 77.087 380.697 78.2794C379.07 80.2777 378.18 82.7951 378.18 85.3946C378.18 87.9941 379.07 90.5116 380.697 92.51C381.55 93.3826 382.563 94.0748 383.678 94.5471C384.793 95.0194 385.988 95.2625 387.195 95.2625C388.402 95.2625 389.597 95.0194 390.712 94.5471C391.827 94.0748 392.84 93.3826 393.693 92.51C395.314 90.5109 396.202 87.9956 396.202 85.3988C396.202 82.802 395.314 80.2868 393.693 78.2877C392.456 76.9224 390.815 76.0095 389.022 75.6889ZM383.905 89.737C383.037 88.4641 382.572 86.9501 382.572 85.3988C382.572 83.8475 383.037 82.3335 383.905 81.0607C384.323 80.5799 384.84 80.1995 385.418 79.9469C385.997 79.6942 386.623 79.5756 387.252 79.5994C387.864 79.5824 388.473 79.7038 389.035 79.955C389.597 80.2061 390.097 80.5808 390.501 81.0524C391.361 82.3313 391.821 83.8468 391.821 85.3988C391.821 86.9508 391.361 88.4664 390.501 89.7453C390.075 90.2051 389.563 90.5714 388.995 90.8217C388.426 91.072 387.814 91.2012 387.195 91.2012C386.576 91.2012 385.963 91.072 385.395 90.8217C384.827 90.5714 384.314 90.2051 383.889 89.7453L383.905 89.737Z" fill="white"/>
<path d="M409.758 86.7729L402.651 75.8218H398.793V94.9675H402.976V84.0164L410.083 94.9675H413.95V75.8218H409.758V86.7729Z" fill="white"/>
</g>
<defs>
<clipPath id="clip0_157_184863">
<rect width="381.6" height="72" fill="white" transform="translate(32.3516 24.0552)"/>
</clipPath>
</defs>
</svg>
