<svg width="482" height="121" viewBox="0 0 482 121" fill="none" xmlns="http://www.w3.org/2000/svg">
<g clip-path="url(#clip0_159_185436)">
<path d="M97.063 46.7379L91.8744 48.7517L91.3722 50.1827L90.2018 50.9598C89.8748 46.5484 89.6616 44.7999 89.5668 44.7999H91.4432L94.8975 40.5353L89.889 42.7339L89.4389 44.236L84.5062 48.0552C84.7574 50.249 84.8284 52.4666 84.7052 54.6747L85.7998 53.926C86.2736 74.9172 76.8869 82.8161 76.8869 82.8161C74.5082 81.6978 73.9017 80.8733 73.9017 80.8733C82.464 71.1264 82.0707 56.9918 82.0565 56.5227L81.1562 57.1292C81.3457 54.9448 81.3884 52.7509 81.2794 50.5618L79.7015 51.789C79.7015 50.3486 79.583 49.145 79.4835 48.311C80.4501 48.4248 81.4215 48.1878 82.2271 47.6382C83.061 47.008 83.5348 45.1411 83.677 44.3355C83.8191 43.5347 83.677 43.2694 83.1747 42.9614C82.5114 42.4591 81.8859 41.9047 81.3078 41.3077C81.3078 41.3077 82.1418 40.9476 84.0276 41.8716C86.0888 42.8714 87.6573 42.3833 89.4199 39.7156L87.3066 40.0331L87.4914 38.5499C87.5293 38.5642 87.5672 38.5831 87.6004 38.6115C88.1548 38.9148 88.7471 39.1422 89.3631 39.2844C89.8369 39.3792 89.8322 39.2844 90.1212 39.4976C90.2207 39.5782 90.3392 39.635 90.4624 39.6635C90.5856 39.6919 90.7135 39.6966 90.8415 39.6682C90.8415 39.6682 92.0166 40.3505 92.5094 39.6682C92.7321 39.8056 92.9643 39.9288 93.2012 40.0331C93.5518 40.1894 93.9262 40.2937 94.31 40.3316C94.5564 40.3458 94.798 40.4169 95.0207 40.5258C95.7647 40.9097 96.2243 40.7154 96.3285 40.5258C96.4375 40.3363 95.8594 39.7393 95.4188 39.3649C95.1818 39.147 94.8928 38.9953 94.5848 38.9148C94.7364 38.82 94.6938 38.6779 94.4095 38.3272C94.0446 37.9813 93.6371 37.697 93.1917 37.4743C93.1917 37.1948 92.1303 36.5172 91.5238 36.0244C90.9125 35.5316 91.14 35.5458 90.4624 34.8398C88.7708 33.295 86.9986 31.8404 85.1554 30.4899C83.6107 29.3622 79.3793 26.0643 75.7686 24.8796C72.1532 23.695 70.0209 23.9604 68.4904 24.9318C66.9647 25.9031 67.339 27.192 67.6565 27.9928C67.9692 28.822 68.3388 29.6323 68.7558 30.4141C69.0638 31.0348 68.8126 31.0206 68.6705 31.1201C68.5283 31.2244 68.6705 31.4613 68.5473 31.4376C68.4241 31.4139 68.3151 31.5892 68.1398 31.7977C67.936 31.9493 67.6991 32.0394 67.448 32.0631C67.429 31.973 67.429 31.883 67.448 31.793C67.4669 31.7029 67.5048 31.6224 67.557 31.5513C67.3485 31.4566 67.1305 31.3902 66.9078 31.3618C66.9599 31.2575 67.1495 31.1912 67.1495 31.1912C66.8983 31.1486 66.6424 31.1486 66.3913 31.1912C66.4766 31.0538 66.5429 31.0396 66.5429 31.0396C66.3487 31.0017 66.1449 31.0159 65.9601 31.0917C65.7753 31.1628 65.6142 31.2907 65.491 31.4518C65.292 31.1154 65.0456 30.8169 64.7566 30.5563C64.4723 30.2909 64.3301 29.8976 64.0316 29.5991C64.1027 29.4854 64.1453 29.3574 64.1548 29.2248C64.1643 29.0921 64.1453 28.9594 64.0979 28.8315C63.8894 28.4666 63.553 28.1918 63.155 28.0639C63.2261 28.0259 63.2877 27.9643 63.3256 27.8885C63.3635 27.8127 63.3824 27.7274 63.373 27.6469C63.373 27.3578 63.0744 27.2441 62.7807 27.3389C62.4869 27.3768 62.2026 27.4763 61.9467 27.6279C61.8093 27.6421 61.6719 27.6421 61.5392 27.6279C61.7429 27.1304 61.7524 26.5713 61.5676 26.069C61.3828 25.562 61.018 25.1497 60.5441 24.9081C59.0184 23.9367 56.8908 23.6714 53.2659 24.856C49.6458 26.0406 45.4239 29.3432 43.8886 30.4615C42.0454 31.8167 40.2732 33.2714 38.5816 34.8208C37.8993 35.5268 38.1647 35.5031 37.5202 36.0054C36.8758 36.5077 35.8523 37.1758 35.8523 37.4554C35.4069 37.6781 34.9994 37.9671 34.6346 38.3083C34.3502 38.6684 34.3076 38.8105 34.4498 38.9053C34.1418 38.9859 33.8575 39.1422 33.6158 39.3555C33.1799 39.7298 32.616 40.3363 32.7155 40.5164C32.815 40.6964 33.2746 40.9002 34.0233 40.5164C34.246 40.4027 34.4877 40.3363 34.7341 40.3221C35.1179 40.2795 35.4922 40.1799 35.8428 40.0236C36.0798 39.9193 36.3119 39.7961 36.5346 39.6587C37.0038 40.3411 38.2026 39.6587 38.2026 39.6587C38.3258 39.6872 38.4537 39.6824 38.5769 39.654C38.7001 39.6208 38.8138 39.564 38.9133 39.4787C39.2118 39.2986 39.1976 39.3697 39.6715 39.2749C40.2875 39.128 40.8845 38.8958 41.4389 38.5926L41.5574 38.531L41.7469 40.0236L39.6336 39.7061C41.3868 42.3738 42.9694 42.8619 45.0069 41.8621C46.926 40.9428 47.7362 41.2982 47.7362 41.2982C47.1534 41.8952 46.5279 42.4496 45.8693 42.9519C45.3955 43.2599 45.2249 43.53 45.367 44.326C45.5092 45.1174 45.9593 46.9938 46.817 47.6287C47.6272 48.1784 48.5986 48.4153 49.5605 48.3016C49.461 49.1545 49.3852 50.3391 49.3425 51.7795L47.7504 50.5428C47.6415 52.7367 47.6841 54.9306 47.8736 57.1197L46.9733 56.5132C46.9733 57.0155 46.5658 71.117 55.1329 80.8639C55.1329 80.8639 54.5169 81.7168 52.1477 82.8066C52.1477 82.8066 42.7514 74.9077 43.2347 53.9166L44.3198 54.6652C44.2014 52.4524 44.2677 50.2348 44.5189 48.0362L39.6051 44.2218L39.155 42.7197L34.1465 40.5211L37.6008 44.7857H39.4772C39.3777 44.7857 39.1692 46.5341 38.8328 50.9456L37.6719 50.1685L37.1696 48.7375L32 46.7189L35.6723 50.9172L37.5013 50.7987C37.5013 50.7987 35.6344 69.3732 41.8085 79.3807C46.9497 87.6966 54.4269 87.763 61.2359 83.0909C60.3546 85.7491 59.2363 88.3174 57.9001 90.7671C58.8193 90.7813 59.7386 90.8619 60.6436 91.0135C60.6436 91.0135 60.3593 92.2265 60.2077 92.5914C60.0561 92.9563 60.0892 93.5817 60.7905 93.6149C61.4918 93.6481 62.4016 93.7239 62.4016 93.7239C62.4016 93.7239 62.2784 94.5768 62.2594 95.0554C62.2594 95.6856 62.1741 95.9083 64.6191 96.0552C67.1731 95.9462 67.0073 95.6903 66.9789 95.0554C66.9789 94.5957 66.8462 93.7239 66.8462 93.7239C66.8462 93.7239 67.7654 93.6291 68.4667 93.6149C69.168 93.6007 69.1822 92.9657 69.0401 92.5914C68.8979 92.2171 68.5994 91.0135 68.5994 91.0135C69.5092 90.8619 70.4284 90.7766 71.3524 90.7671C70.0162 88.3174 68.8979 85.7491 68.0166 83.0909C74.8351 87.763 82.3123 87.7061 87.4582 79.3807C93.6229 69.378 91.756 50.7987 91.756 50.7987L93.585 50.9172L97.063 46.7379ZM67.3579 39.5497C67.557 38.6115 67.7228 37.8439 67.9076 37.9624C68.0924 38.0808 68.4336 38.1093 68.552 37.9624C68.6705 37.8155 68.7084 37.7823 68.8032 37.9624C68.8742 38.0429 68.969 38.0998 69.0685 38.133C69.1728 38.1661 69.277 38.1709 69.3812 38.1472C69.4855 38.1235 69.585 38.0761 69.6655 38.005C69.7461 37.9339 69.8077 37.8439 69.8456 37.7397C70.2294 37.0763 70.1204 37.4175 70.2294 37.6733C70.3384 37.9292 70.6322 38.0335 70.9639 37.7681C71.2245 37.5359 71.504 37.3274 71.7978 37.1474C72.03 37.0289 72.049 37.0858 72.1722 36.8489C72.2954 36.6119 72.5228 36.4887 72.5323 36.3371C72.5418 36.1855 72.3901 35.9959 72.6176 35.8775C72.845 35.759 72.9493 35.6737 73.153 35.7685C73.352 35.8633 73.4136 35.6737 73.5179 35.7685C73.5368 35.8017 73.5653 35.8301 73.5984 35.849C73.6316 35.868 73.6695 35.8775 73.7074 35.8775C73.7453 35.8775 73.7832 35.868 73.8164 35.849C73.8496 35.8301 73.878 35.8017 73.8969 35.7685C74.0296 35.6216 74.1291 35.3942 74.2808 35.6642C74.4324 35.9391 74.7735 35.9865 74.8494 35.8538C74.9252 35.7211 74.982 35.7069 75.0768 35.9201C75.1716 36.0481 75.2995 36.1476 75.4511 36.1997C75.598 36.2518 75.7591 36.2613 75.9155 36.2186C75.9155 36.2186 76.2567 36.7067 76.6736 36.6261C77.0906 36.5503 77.247 36.3371 77.2565 36.0528C77.2659 35.7732 77.1143 34.7829 77.3986 34.9961C77.6829 35.2094 77.6734 35.1146 77.7587 34.944C77.844 34.7734 77.9767 34.944 78.1189 34.944C78.261 34.944 78.2373 34.7213 78.4695 34.944C78.7017 35.1667 78.7301 35.3041 78.9623 35.3705C79.185 35.4226 79.3793 35.5553 79.5119 35.7448C79.7536 35.9912 80.0142 36.2755 80.4359 36.1097C80.4359 36.1097 80.7108 36.4745 80.9951 36.4508C80.9951 36.4508 81.5779 37.1 81.9048 36.9957C82.1465 37.1047 82.4024 37.1805 82.663 37.2184C82.8525 37.2184 82.8904 37.0668 83.0136 37.1332C83.1368 37.1995 83.08 36.901 83.2553 37.1332C83.4306 37.3653 83.7576 37.7065 83.9566 37.6449C84.1982 37.8581 84.4825 38.0145 84.7905 38.095C85.1554 38.1472 85.2644 38.2562 85.3828 38.2562C85.5013 38.2562 85.4397 38.1377 85.6576 38.3083C85.7572 38.3936 85.8756 38.4504 85.9988 38.4789C86.1268 38.5073 86.2547 38.5073 86.3826 38.4789C86.5248 38.403 86.6859 38.3841 86.8423 38.4267C86.9181 38.4362 86.9939 38.4362 87.0697 38.4267C86.7617 38.8721 86.3163 39.1991 85.8045 39.3555C85.2928 39.5118 84.7431 39.4834 84.2503 39.2796C82.3313 38.6731 81.7485 38.9622 81.3647 39.3744C80.725 40.0615 80.2085 40.8575 79.8389 41.7294C79.6115 42.4781 79.7299 43.0609 81.142 44.7572C79.6873 44.7809 78.2421 44.5487 76.8632 44.0749C74.4182 43.2836 72.1674 42.9851 69.8977 44.0749C69.495 44.255 69.1301 44.4256 68.7984 44.5961C68.5378 44.3308 67.9123 43.6674 67.6802 43.3689C67.7607 42.9661 67.8081 42.5586 67.8223 42.1511C67.8602 41.8005 67.7844 41.4451 67.6043 41.1466C67.4385 40.9286 67.3295 40.6727 67.2916 40.4026C67.2537 40.1326 67.2821 39.853 67.3816 39.5971V39.5545L67.3579 39.5497ZM77.1191 47.7566C75.4274 48.7944 73.48 49.3203 71.5041 49.2682C69.8124 49.2919 68.1398 48.9318 66.5998 48.221C68.0213 47.3397 69.6371 46.8421 71.2956 46.7711C73.0677 46.6479 74.8446 46.9132 76.5125 47.5482L77.1238 47.7614L77.1191 47.7566ZM65.889 43.8001H65.9412C66.2539 43.9185 66.5856 43.9612 66.9173 43.9185C67.0736 44.0228 67.7512 44.6672 67.9929 44.9089C67.32 45.2737 66.6851 45.7049 66.0975 46.2072C65.9222 45.5865 65.8227 44.942 65.8037 44.2976C65.8369 44.1365 65.8701 43.9564 65.889 43.8048V43.8001ZM62.5532 30.5468C62.9512 30.7695 63.2829 31.0964 63.5151 31.4945C63.5672 31.6319 63.6051 31.7598 63.6383 31.8783C63.3493 31.793 63.046 31.774 62.7475 31.8167C62.4442 31.286 62.032 30.8358 61.5392 30.4852C61.8661 30.3951 62.212 30.4141 62.5248 30.5468H62.5579H62.5532ZM60.2646 30.3667C60.7668 31.1533 61.5345 31.7172 62.4253 31.9541C62.3258 32.0062 62.2357 32.0725 62.1599 32.1578C61.705 32.1436 61.2644 32.0157 60.8663 31.793C60.691 31.5892 60.6057 31.3997 60.4636 31.4281C60.3214 31.4518 60.4636 31.2054 60.3309 31.1201C60.1982 31.0348 59.9281 30.9922 60.2124 30.3715H60.2646V30.3667ZM59.7955 38.1377C59.8476 38.5026 59.9471 38.8532 60.094 39.1849L59.9708 39.4313C59.9187 38.9622 59.7623 38.512 59.5206 38.1093C59.6012 38.133 59.6817 38.1424 59.7623 38.133H59.7955V38.1377ZM47.812 44.7146C49.2288 43.0088 49.3473 42.4354 49.1151 41.6868C48.7502 40.8149 48.2338 40.0188 47.5941 39.3318C47.1913 38.9243 46.6274 38.6305 44.7084 39.237C44.2109 39.4408 43.6659 39.4644 43.1542 39.3128C42.6424 39.1565 42.197 38.8295 41.889 38.3841C41.9601 38.3936 42.0265 38.3936 42.0975 38.3841C42.2539 38.3462 42.4197 38.3651 42.5666 38.4362C42.6898 38.4646 42.8225 38.4646 42.9457 38.4362C43.0689 38.4078 43.1874 38.3462 43.2869 38.2656C43.5048 38.1045 43.4432 38.2656 43.5617 38.2656C43.6802 38.2656 43.7891 38.1566 44.154 38.1045C44.462 38.0145 44.7463 37.8581 44.988 37.6449C45.187 37.7065 45.5044 37.3464 45.6892 37.1332C45.874 36.9199 45.8124 37.2374 45.9404 37.1332C46.0636 37.0289 46.092 37.1995 46.2815 37.2279C46.5422 37.19 46.798 37.1142 47.0397 37.0052C47.3666 37.1095 47.9495 36.4603 47.9495 36.4603C48.2338 36.4603 48.5086 36.1191 48.5086 36.1191C48.935 36.2802 49.1909 36.0007 49.4326 35.7448C49.5653 35.5553 49.7643 35.4226 49.9822 35.3705C50.2144 35.3089 50.2334 35.1904 50.4655 34.944C50.6977 34.6976 50.6835 34.8919 50.8257 34.944C50.9678 34.9961 51.1005 34.8066 51.1858 34.944C51.2711 35.0814 51.2521 35.2188 51.5364 34.9961C51.8207 34.7734 51.6691 35.7638 51.6786 36.0528C51.6881 36.3418 51.8634 36.5645 52.2709 36.6309C52.6784 36.6972 53.029 36.2234 53.029 36.2234C53.1807 36.266 53.3418 36.2565 53.4934 36.1997C53.6403 36.1428 53.773 36.0433 53.863 35.9154C53.953 35.7116 54.0146 35.7258 54.0904 35.8538C54.1662 35.9817 54.5074 35.9201 54.659 35.6595C54.8107 35.3942 54.9102 35.6595 55.0428 35.7685C55.0618 35.8017 55.0902 35.8254 55.1234 35.8443C55.1566 35.8633 55.1945 35.8727 55.2276 35.8727C55.2608 35.8727 55.3035 35.8633 55.3319 35.8443C55.3603 35.8254 55.3935 35.8017 55.4124 35.7685C55.5214 35.6311 55.5783 35.8301 55.7773 35.7685C55.9763 35.7069 56.0853 35.7685 56.3127 35.8775C56.5402 35.9865 56.3885 36.176 56.398 36.3371C56.4075 36.4982 56.6255 36.6025 56.7581 36.8489C56.8908 37.0952 56.9003 37.0289 57.1325 37.1474C57.4263 37.3274 57.7058 37.5312 57.9664 37.7634C58.0138 37.8107 58.0754 37.8487 58.1418 37.8676C58.2081 37.8866 58.2792 37.8913 58.3455 37.8818C58.4118 37.8723 58.4782 37.8439 58.535 37.8013C58.5919 37.7586 58.6346 37.7065 58.6677 37.6402C58.7198 37.8629 58.7862 38.2135 58.8857 38.2135C58.9852 38.2135 59.0752 37.9387 59.151 37.7681C59.2505 37.915 59.369 37.8771 59.4827 37.9197C59.2221 38.441 59.0942 39.0238 59.1179 39.6066C59.1416 40.1942 59.3074 40.7628 59.6107 41.2603C59.6628 41.2603 59.7007 41.194 59.7339 41.0897C59.8049 41.4925 59.8192 41.9 59.786 42.3075C59.4353 42.805 59.17 43.3594 58.9994 43.947C56.7534 42.9472 54.5264 43.2646 52.1145 44.0512C50.7262 44.5108 49.2715 44.7335 47.8073 44.7099L47.812 44.7146ZM58.1986 46.7805C57.938 47.6571 57.5447 48.4816 57.0377 49.235C55.185 49.235 53.3749 48.7138 51.7876 47.733L52.4036 47.5197C54.0667 46.8895 55.8484 46.6242 57.6205 46.7426L58.1986 46.7758V46.7805ZM50.1291 48.0694C50.3613 48.0457 50.5887 48.0078 50.8115 47.9604C51.5127 48.6854 53.4839 50.287 57.1846 50.287C61.9893 50.287 64.4438 47.9225 64.4438 47.9225C64.4438 47.9225 66.8983 50.2917 71.6936 50.2917C75.4132 50.2917 77.3749 48.7043 78.0762 47.9888C78.3368 48.0504 78.5453 48.0315 78.7585 48.0646C79.3414 53.0021 78.3747 60.0054 78.3747 60.0054H50.494C50.494 60.0054 49.5321 53.0305 50.1196 48.1262V48.0646L50.1291 48.0694ZM50.5035 60.8631H78.3842C78.0478 64.3363 77.1333 67.7243 75.6786 70.8848H53.2091C51.7639 67.7432 50.8494 64.3742 50.5035 60.9247V60.8631ZM64.4486 84.1997C56.1042 78.0161 53.6024 71.695 53.6024 71.695H75.2332C75.2332 71.695 72.8118 78.0398 64.4533 84.2234V84.1997H64.4486Z" fill="white"/>
<path d="M69.6749 59.361C70.1488 59.3468 70.6037 59.1809 70.978 58.8824C71.1818 58.9535 71.3902 58.9819 71.6035 58.9772C71.9825 58.9582 72.3474 58.8303 72.6554 58.6123C72.9681 58.3944 73.2098 58.0864 73.3614 57.731C73.7026 57.7831 74.0532 57.7262 74.3612 57.5604C74.6929 57.3472 74.9535 57.0344 75.1052 56.6648C75.2568 56.2953 75.2852 55.883 75.1952 55.4945L75.2947 55.4092C75.5932 55.0917 75.7591 54.67 75.7591 54.2293C75.7591 53.7886 75.5932 53.3669 75.2947 53.0494L75.2378 52.9878C75.3421 52.912 75.4321 52.8125 75.489 52.6941C75.5506 52.5756 75.5837 52.4477 75.5885 52.315C75.5885 51.8269 75.0199 51.4621 74.4939 51.4621C73.9679 51.4621 73.3993 51.8459 73.3993 52.315C73.2193 52.3955 73.0487 52.4903 72.8828 52.5946C72.7644 52.713 72.6696 52.8552 72.608 53.0115C72.5464 53.1679 72.5132 53.3385 72.518 53.5091C72.428 53.5375 72.3474 53.5754 72.2669 53.6275C72.1484 53.6939 72.0394 53.7792 71.9494 53.8834C71.8025 53.8408 71.6461 53.8171 71.4898 53.8218C71.267 53.8265 71.0443 53.8787 70.8406 53.9687C70.471 53.6986 70.0208 53.5565 69.566 53.5659C68.8931 53.6844 68.2819 54.0445 67.8459 54.5847C67.41 55.1249 67.1778 55.8025 67.192 56.5037C67.2062 57.205 67.4621 57.8731 67.917 58.3944C68.3719 58.9156 68.9974 59.252 69.6749 59.3468V59.3563V59.361Z" fill="white"/>
<path d="M53.6971 55.4139L53.8061 55.4897C53.716 55.883 53.7492 56.2905 53.8961 56.6648C54.0477 57.0344 54.3036 57.3519 54.64 57.5651C54.948 57.731 55.2987 57.7926 55.6398 57.7357C55.7914 58.0911 56.0378 58.3944 56.3458 58.6123C56.6586 58.8303 57.0234 58.9582 57.3978 58.9819C57.6063 58.9867 57.8147 58.9582 58.0138 58.8872C58.3881 59.1857 58.843 59.3515 59.3168 59.3657C60.0039 59.2852 60.6388 58.9535 61.1079 58.4323C61.5723 57.911 61.8376 57.2287 61.8519 56.5227C61.8661 55.8167 61.6244 55.1249 61.179 54.5847C60.7336 54.0445 60.1081 53.6891 59.4258 53.5801C58.9662 53.5707 58.5208 53.7081 58.1417 53.9734C57.9332 53.8929 57.7152 53.8455 57.4925 53.836C57.3362 53.8313 57.1845 53.8502 57.0329 53.8881C56.9334 53.7886 56.8149 53.7033 56.6917 53.6417C56.6017 53.5896 56.5069 53.547 56.4074 53.5233C56.4169 53.3574 56.3885 53.1869 56.3316 53.0305C56.2748 52.8741 56.1847 52.732 56.0663 52.6088C55.891 52.495 55.7014 52.4003 55.5071 52.3292C55.4645 52.0781 55.3318 51.8554 55.1423 51.699C54.948 51.5426 54.7064 51.4621 54.46 51.4763C54.2183 51.4621 53.9814 51.5426 53.7918 51.699C53.607 51.8554 53.4838 52.0828 53.4554 52.3292C53.4554 52.4571 53.4838 52.5898 53.5407 52.7035C53.5976 52.822 53.6781 52.9215 53.7776 53.0021C53.7539 53.021 53.7302 53.04 53.7113 53.0637C53.4128 53.3764 53.2469 53.7981 53.2422 54.2388C53.2422 54.6795 53.4033 55.1012 53.6971 55.4186V55.4139Z" fill="white"/>
<path d="M64.5427 70.2972L65.6941 68.5061L65.4761 67.6532L66.3859 67.7811C66.4428 68.1649 66.6939 68.634 67.054 68.634C67.3762 68.6719 67.7079 68.6719 68.0301 68.634L68.3713 68.2265C68.0775 67.9422 67.76 67.6864 67.4189 67.4589C67.3762 65.7484 67.0967 64.0473 66.5849 62.4173C66.2769 61.5643 65.8742 61.498 65.1018 61.5643C64.0973 61.9197 63.1401 62.3888 62.2398 62.9622L62.0977 64.1989L62.8132 64.2842L62.254 66.1795C62.1119 66.6818 62.254 66.6581 62.5052 66.8429C62.9079 67.0325 63.3296 67.1793 63.7656 67.2789L63.4718 68.5677L64.5379 70.2972H64.5427Z" fill="white"/>
<path d="M61.8251 54.5657C62.242 57.0202 63.7867 57.2429 64.3933 57.2287C64.3933 57.7499 64.3364 58.2712 64.2369 58.7829L65.0045 59.3136C65.0709 58.4844 65.0709 57.6504 65.0045 56.8212C66.8335 56.5464 67.2079 53.7697 67.2079 53.7697C66.6298 53.9829 66.1228 54.3478 65.7295 54.8311C65.3362 55.3144 65.0756 55.8925 64.9713 56.5085C64.9192 55.8972 64.7534 55.3002 64.488 54.7505C64.9287 54.6984 65.3457 54.5231 65.6868 54.2388C66.028 53.9545 66.2886 53.5754 66.426 53.1442C66.5635 52.713 66.5824 52.2534 66.4687 51.8175C66.3597 51.3815 66.1275 50.9835 65.8053 50.6755L66.1796 49.9505L65.3457 50.1116L65.014 49.4814L64.4217 49.9742L64.0616 49.4814L63.6872 50.0453L62.9765 49.6378L63.166 50.2964C62.7301 50.5191 62.3747 50.8745 62.1473 51.3199C61.9198 51.7606 61.8393 52.2676 61.9103 52.7604C61.9814 53.2532 62.2041 53.7128 62.5453 54.0682C62.8865 54.4236 63.3271 54.6605 63.8104 54.7458C64.1469 55.357 64.3364 56.0394 64.3506 56.7407C63.7536 55.7646 62.8675 55.0111 61.8203 54.5847L61.8251 54.5657ZM64.3269 54.7126C63.7678 54.7126 63.3176 53.6891 63.3176 52.4335C63.3176 51.1778 63.7678 50.1638 64.3269 50.1638C64.8861 50.1638 65.3362 51.1778 65.3362 52.4335C65.3362 53.6891 64.8861 54.7126 64.3269 54.7126Z" fill="white"/>
<path d="M66.3505 74.7561C66.2462 74.5191 66.1941 74.2585 66.1941 73.9979C66.1941 73.7373 66.2462 73.4767 66.3505 73.2398H63.5548C63.4506 73.4767 63.3984 73.7373 63.3984 73.9979C63.3984 74.2585 63.4506 74.5191 63.5548 74.7561H66.3505Z" fill="white"/>
<path d="M63.547 78.3146C63.3385 78.978 63.3385 79.6887 63.547 80.3521H66.3237C66.1247 79.6887 66.1247 78.978 66.3237 78.3146H63.547Z" fill="white"/>
<path d="M67.0068 76.2818L67.6228 75.2583H63.3772L62.9081 74.7466H61.1406L61.3586 75.2583H61.785L62.2447 76.2818H67.0115H67.0068Z" fill="white"/>
<path d="M66.9702 80.8544H63.3738L63.1132 80.3426H62.1797L62.464 80.9207L63.2221 81.3472H66.8944L67.6289 80.9112L67.7378 80.3379H67.1361L66.9702 80.8496V80.8544Z" fill="white"/>
<path d="M134.196 52.6704L142.446 31.1865H145.507L154.296 52.6704H151.06L148.553 46.1646H139.569L137.21 52.6704H134.191H134.196ZM140.394 43.8475H147.677L145.436 37.8961C144.753 36.0907 144.242 34.6029 143.91 33.442C143.635 34.8208 143.251 36.1855 142.754 37.5454L140.394 43.8475Z" fill="white"/>
<path d="M155.753 53.9592L158.316 54.3383C158.425 55.1296 158.724 55.7077 159.212 56.0678C159.865 56.5559 160.761 56.8023 161.893 56.8023C163.116 56.8023 164.059 56.5559 164.722 56.0678C165.386 55.5798 165.836 54.8974 166.068 54.0161C166.205 53.4806 166.267 52.3482 166.258 50.6329C165.106 51.9928 163.67 52.6704 161.95 52.6704C159.809 52.6704 158.155 51.898 156.985 50.3533C155.814 48.8086 155.227 46.9606 155.227 44.7999C155.227 43.3168 155.497 41.9426 156.032 40.6917C156.568 39.436 157.349 38.4647 158.368 37.7823C159.387 37.1 160.59 36.7541 161.965 36.7541C163.803 36.7541 165.315 37.498 166.509 38.9811V37.1047H168.939V50.5571C168.939 52.9784 168.693 54.6984 168.2 55.7077C167.708 56.717 166.926 57.5178 165.855 58.1053C164.784 58.6929 163.467 58.9867 161.908 58.9867C160.05 58.9867 158.553 58.5697 157.411 57.7357C156.269 56.9018 155.715 55.6414 155.753 53.964V53.9592ZM157.937 44.6104C157.937 46.6526 158.34 48.1405 159.155 49.0787C159.965 50.0169 160.984 50.486 162.201 50.486C163.419 50.486 164.429 50.0216 165.248 49.0881C166.068 48.1547 166.48 46.6905 166.48 44.7004C166.48 42.7103 166.059 41.3598 165.215 40.3932C164.372 39.4265 163.353 38.9432 162.159 38.9432C160.965 38.9432 159.989 39.4218 159.169 40.3742C158.349 41.3266 157.937 42.7387 157.937 44.6151V44.6104Z" fill="white"/>
<path d="M183.58 47.6619L186.305 47.9983C185.874 49.5904 185.077 50.8271 183.917 51.7038C182.756 52.5851 181.268 53.021 179.462 53.021C177.188 53.021 175.383 52.3197 174.046 50.9172C172.715 49.5146 172.047 47.5482 172.047 45.0179C172.047 42.4876 172.72 40.3695 174.07 38.9195C175.421 37.4743 177.169 36.7494 179.316 36.7494C181.462 36.7494 183.097 37.4601 184.414 38.8722C185.731 40.2889 186.39 42.2838 186.39 44.852C186.39 45.0084 186.385 45.2406 186.376 45.5533H174.771C174.871 47.2639 175.354 48.5717 176.221 49.4814C177.089 50.3912 178.174 50.8461 179.477 50.8461C180.443 50.8461 181.268 50.5902 181.955 50.0832C182.637 49.5762 183.182 48.7659 183.58 47.6524V47.6619ZM174.918 43.3973H183.609C183.49 42.0895 183.158 41.1087 182.614 40.45C181.775 39.436 180.685 38.9243 179.344 38.9243C178.131 38.9243 177.112 39.3318 176.288 40.1421C175.463 40.9523 175.004 42.0374 174.918 43.3973Z" fill="white"/>
<path d="M189.617 52.6704V37.1095H191.991V39.3223C193.133 37.6117 194.787 36.7588 196.943 36.7588C197.881 36.7588 198.743 36.9294 199.53 37.2658C200.316 37.6023 200.904 38.0429 201.297 38.5926C201.691 39.1423 201.961 39.7914 202.117 40.5401C202.217 41.0281 202.264 41.881 202.264 43.1036V52.6704H199.625V43.2031C199.625 42.1274 199.52 41.3267 199.317 40.7912C199.113 40.2605 198.748 39.8341 198.227 39.5166C197.706 39.1991 197.09 39.0427 196.388 39.0427C195.265 39.0427 194.294 39.3981 193.479 40.1136C192.664 40.8291 192.256 42.1796 192.256 44.1744V52.6751H189.617V52.6704Z" fill="white"/>
<path d="M216.465 46.9701L219.057 47.3065C218.772 49.0929 218.047 50.4955 216.882 51.5047C215.716 52.514 214.28 53.021 212.579 53.021C210.447 53.021 208.736 52.3245 207.443 50.9314C206.149 49.5383 205.5 47.5434 205.5 44.9468C205.5 43.2647 205.78 41.7957 206.334 40.5353C206.893 39.2749 207.737 38.332 208.878 37.7018C210.016 37.0716 211.252 36.7541 212.593 36.7541C214.285 36.7541 215.664 37.1805 216.739 38.0382C217.815 38.8911 218.502 40.1089 218.805 41.682L216.242 42.0753C215.996 41.0281 215.564 40.2416 214.944 39.7156C214.323 39.1896 213.574 38.9243 212.693 38.9243C211.366 38.9243 210.286 39.4029 209.457 40.3553C208.627 41.3077 208.21 42.8145 208.21 44.8757C208.21 46.9369 208.608 48.4864 209.414 49.4341C210.215 50.3817 211.262 50.8556 212.551 50.8556C213.584 50.8556 214.451 50.5381 215.143 49.9032C215.834 49.2682 216.275 48.2921 216.46 46.9701H216.465Z" fill="white"/>
<path d="M221.332 34.2238V31.1912H223.971V34.2238H221.332ZM221.332 52.6751V37.1095H223.971V52.6704H221.332V52.6751Z" fill="white"/>
<path d="M238.136 50.7513C237.16 51.5806 236.217 52.1681 235.317 52.5093C234.412 52.8505 233.445 53.021 232.407 53.021C230.697 53.021 229.384 52.6041 228.465 51.7701C227.546 50.9361 227.086 49.8653 227.086 48.5669C227.086 47.8041 227.261 47.1075 227.607 46.4773C227.953 45.8471 228.408 45.3401 228.972 44.961C229.536 44.5819 230.166 44.2929 230.867 44.0986C231.384 43.9612 232.165 43.8285 233.213 43.7053C235.34 43.4495 236.909 43.1462 237.918 42.7956C237.927 42.4354 237.932 42.2033 237.932 42.1085C237.932 41.0329 237.681 40.2747 237.183 39.8388C236.511 39.2418 235.506 38.9432 234.179 38.9432C232.938 38.9432 232.023 39.1612 231.431 39.5971C230.839 40.0331 230.403 40.8007 230.119 41.9047L227.541 41.5541C227.778 40.4501 228.162 39.5592 228.697 38.8816C229.232 38.2041 230.01 37.6781 231.028 37.3132C232.042 36.9484 233.222 36.7636 234.558 36.7636C235.895 36.7636 236.966 36.9199 237.795 37.2327C238.624 37.5454 239.235 37.9387 239.628 38.4125C240.017 38.8864 240.292 39.4834 240.448 40.2084C240.538 40.6585 240.581 41.4688 240.581 42.6392V46.1551C240.581 48.6048 240.638 50.159 240.751 50.8082C240.865 51.4574 241.088 52.0828 241.42 52.6751H238.667C238.392 52.1302 238.216 51.4905 238.141 50.7561L238.136 50.7513ZM237.918 44.8615C236.961 45.2501 235.525 45.5865 233.611 45.8566C232.526 46.0129 231.758 46.1883 231.308 46.3825C230.858 46.5768 230.512 46.8659 230.265 47.2402C230.019 47.6145 229.901 48.0362 229.901 48.4911C229.901 49.1924 230.166 49.78 230.701 50.2491C231.232 50.7182 232.014 50.9504 233.037 50.9504C234.061 50.9504 234.956 50.7276 235.748 50.2822C236.539 49.8368 237.122 49.2303 237.491 48.458C237.776 47.8609 237.918 46.9843 237.918 45.8187V44.852V44.8615Z" fill="white"/>
<path d="M263.104 52.6704V50.7087C262.118 52.2534 260.668 53.0258 258.754 53.0258C257.512 53.0258 256.371 52.6846 255.333 52.0023C254.29 51.3199 253.485 50.3628 252.916 49.1355C252.343 47.9083 252.059 46.501 252.059 44.9089C252.059 43.3168 252.319 41.9474 252.836 40.6822C253.352 39.4171 254.129 38.4457 255.167 37.7728C256.205 37.1 257.361 36.7636 258.64 36.7636C259.578 36.7636 260.412 36.9626 261.147 37.3559C261.881 37.7492 262.474 38.2656 262.933 38.9006V31.1912H265.558V52.6751H263.109L263.104 52.6704ZM254.764 44.9041C254.764 46.899 255.186 48.3869 256.025 49.3725C256.863 50.358 257.858 50.8508 259 50.8508C260.142 50.8508 261.133 50.3817 261.938 49.4388C262.744 48.4958 263.146 47.0554 263.146 45.1221C263.146 42.9946 262.734 41.4309 261.914 40.4311C261.095 39.436 260.081 38.9385 258.882 38.9385C257.683 38.9385 256.731 39.4171 255.944 40.3742C255.157 41.3314 254.764 42.8429 254.764 44.9041Z" fill="white"/>
<path d="M280.354 47.6619L283.078 47.9983C282.647 49.5904 281.851 50.8271 280.69 51.7038C279.529 52.5851 278.041 53.021 276.236 53.021C273.961 53.021 272.156 52.3197 270.82 50.9172C269.488 49.5146 268.82 47.5482 268.82 45.0179C268.82 42.4876 269.493 40.3695 270.844 38.9195C272.194 37.4743 273.943 36.7494 276.089 36.7494C278.236 36.7494 279.87 37.4601 281.188 38.8722C282.505 40.2889 283.163 42.2838 283.163 44.852C283.163 45.0084 283.159 45.2406 283.149 45.5533H271.545C271.644 47.2639 272.128 48.5717 272.995 49.4814C273.862 50.3912 274.947 50.8461 276.25 50.8461C277.217 50.8461 278.041 50.5902 278.728 50.0832C279.411 49.5762 279.956 48.7659 280.354 47.6524V47.6619ZM271.692 43.3973H280.382C280.264 42.0895 279.932 41.1087 279.387 40.45C278.548 39.436 277.458 38.9243 276.117 38.9243C274.904 38.9243 273.886 39.3318 273.061 40.1421C272.237 40.9523 271.777 42.0374 271.692 43.3973Z" fill="white"/>
<path d="M295.113 52.6704V31.1912H304.637C306.552 31.1912 308.006 31.3855 309.006 31.7693C310.001 32.1531 310.797 32.8354 311.394 33.8115C311.991 34.7877 312.29 35.868 312.29 37.0479C312.29 38.5736 311.797 39.8577 310.812 40.9002C309.826 41.9474 308.3 42.6108 306.239 42.8951C306.992 43.2552 307.561 43.6153 307.954 43.9659C308.784 44.7288 309.57 45.6812 310.314 46.8232L314.053 52.6704H310.475L307.632 48.2021C306.803 46.9132 306.116 45.9276 305.58 45.2406C305.045 44.5582 304.562 44.0797 304.135 43.8048C303.709 43.53 303.278 43.3405 302.837 43.2315C302.515 43.1651 301.989 43.1272 301.254 43.1272H297.956V52.6656H295.113V52.6704ZM297.956 40.668H304.069C305.367 40.668 306.386 40.5353 307.116 40.2652C307.85 39.9952 308.404 39.5687 308.788 38.9764C309.167 38.3841 309.362 37.7444 309.362 37.0479C309.362 36.0339 308.992 35.1952 308.258 34.5413C307.518 33.8874 306.353 33.5604 304.761 33.5604H297.961V40.668H297.956Z" fill="white"/>
<path d="M327.053 47.6619L329.777 47.9983C329.346 49.5904 328.55 50.8271 327.389 51.7038C326.228 52.5851 324.74 53.021 322.935 53.021C320.661 53.021 318.855 52.3197 317.519 50.9172C316.188 49.5146 315.52 47.5482 315.52 45.0179C315.52 42.4876 316.192 40.3695 317.543 38.9195C318.893 37.4743 320.642 36.7494 322.788 36.7494C324.935 36.7494 326.569 37.4601 327.887 38.8722C329.204 40.2889 329.863 42.2838 329.863 44.852C329.863 45.0084 329.858 45.2406 329.848 45.5533H318.244C318.344 47.2639 318.827 48.5717 319.694 49.4814C320.561 50.3912 321.646 50.8461 322.949 50.8461C323.916 50.8461 324.74 50.5902 325.428 50.0832C326.11 49.5762 326.655 48.7659 327.053 47.6524V47.6619ZM318.391 43.3973H327.081C326.963 42.0895 326.631 41.1087 326.086 40.45C325.247 39.436 324.158 38.9243 322.817 38.9243C321.604 38.9243 320.585 39.3318 319.76 40.1421C318.936 40.9523 318.476 42.0374 318.391 43.3973Z" fill="white"/>
<path d="M333.094 52.6704V37.1095H335.468V39.3223C336.61 37.6117 338.263 36.7588 340.419 36.7588C341.358 36.7588 342.22 36.9294 343.006 37.2658C343.793 37.6023 344.381 38.0429 344.774 38.5926C345.167 39.1423 345.437 39.7914 345.594 40.5401C345.693 41.0281 345.741 41.881 345.741 43.1036V52.6704H343.101V43.2031C343.101 42.1274 342.997 41.3267 342.793 40.7912C342.589 40.2605 342.225 39.8341 341.703 39.5166C341.182 39.1991 340.566 39.0427 339.865 39.0427C338.742 39.0427 337.771 39.3981 336.956 40.1136C336.141 40.8291 335.733 42.1796 335.733 44.1744V52.6751H333.094V52.6704Z" fill="white"/>
<path d="M348.805 44.8899C348.805 42.009 349.605 39.872 351.207 38.4884C352.543 37.3369 354.178 36.7588 356.102 36.7588C358.239 36.7588 359.992 37.4601 361.347 38.8627C362.707 40.2653 363.385 42.2033 363.385 44.672C363.385 46.6763 363.086 48.2495 362.484 49.3961C361.883 50.5428 361.011 51.4337 359.859 52.0686C358.713 52.7036 357.457 53.021 356.102 53.021C353.922 53.021 352.164 52.3245 350.819 50.9267C349.478 49.5288 348.805 47.5197 348.805 44.8899ZM351.515 44.8899C351.515 46.8848 351.951 48.3774 352.818 49.3677C353.685 50.358 354.78 50.8556 356.102 50.8556C357.424 50.8556 358.499 50.358 359.371 49.363C360.243 48.3679 360.674 46.8469 360.674 44.8046C360.674 42.8808 360.238 41.4214 359.362 40.4311C358.485 39.4408 357.4 38.9432 356.102 38.9432C354.803 38.9432 353.69 39.436 352.818 40.4216C351.951 41.4072 351.515 42.8998 351.515 44.8899Z" fill="white"/>
<path d="M370.797 52.6704L364.879 37.1095H367.665L371.006 46.4299C371.366 47.4345 371.697 48.4816 372.001 49.5667C372.238 48.747 372.565 47.7614 372.982 46.6052L376.441 37.1095H379.151L373.261 52.6704H370.797Z" fill="white"/>
<path d="M391.632 50.7513C390.656 51.5806 389.713 52.1681 388.813 52.5093C387.908 52.8505 386.941 53.021 385.903 53.021C384.193 53.021 382.88 52.6041 381.961 51.7701C381.042 50.9361 380.582 49.8653 380.582 48.5669C380.582 47.8041 380.757 47.1075 381.103 46.4773C381.449 45.8471 381.904 45.3401 382.468 44.961C383.032 44.5819 383.662 44.2929 384.363 44.0986C384.88 43.9612 385.662 43.8285 386.709 43.7053C388.836 43.4495 390.405 43.1462 391.414 42.7956C391.424 42.4354 391.428 42.2033 391.428 42.1085C391.428 41.0329 391.177 40.2747 390.68 39.8388C390.007 39.2418 389.002 38.9432 387.675 38.9432C386.434 38.9432 385.519 39.1612 384.927 39.5971C384.335 40.0331 383.899 40.8007 383.615 41.9047L381.037 41.5541C381.274 40.4501 381.658 39.5592 382.193 38.8816C382.729 38.2041 383.506 37.6781 384.524 37.3132C385.538 36.9484 386.718 36.7636 388.054 36.7636C389.391 36.7636 390.462 36.9199 391.291 37.2327C392.12 37.5454 392.731 37.9387 393.125 38.4125C393.513 38.8864 393.788 39.4834 393.944 40.2084C394.034 40.6585 394.077 41.4688 394.077 42.6392V46.1551C394.077 48.6048 394.134 50.159 394.248 50.8082C394.361 51.4574 394.584 52.0828 394.916 52.6751H392.163C391.888 52.1302 391.713 51.4905 391.637 50.7561L391.632 50.7513ZM391.414 44.8615C390.457 45.2501 389.021 45.5865 387.107 45.8566C386.022 46.0129 385.254 46.1883 384.804 46.3825C384.354 46.5768 384.008 46.8659 383.762 47.2402C383.515 47.6145 383.397 48.0362 383.397 48.4911C383.397 49.1924 383.662 49.78 384.197 50.2491C384.728 50.7182 385.51 50.9504 386.533 50.9504C387.557 50.9504 388.453 50.7276 389.244 50.2822C390.035 49.8368 390.618 49.2303 390.988 48.458C391.272 47.8609 391.414 46.9843 391.414 45.8187V44.852V44.8615Z" fill="white"/>
<path d="M408.328 46.9701L410.92 47.3065C410.636 49.0929 409.911 50.4955 408.745 51.5047C407.579 52.514 406.144 53.021 404.442 53.021C402.31 53.021 400.6 52.3245 399.306 50.9314C398.012 49.5383 397.363 47.5434 397.363 44.9468C397.363 43.2647 397.643 41.7957 398.197 40.5353C398.756 39.2749 399.6 38.332 400.742 37.7018C401.879 37.0716 403.116 36.7541 404.457 36.7541C406.148 36.7541 407.527 37.1805 408.603 38.0382C409.678 38.8911 410.365 40.1089 410.669 41.682L408.105 42.0753C407.859 41.0281 407.428 40.2416 406.807 39.7156C406.186 39.1896 405.438 38.9243 404.556 38.9243C403.229 38.9243 402.149 39.4029 401.32 40.3553C400.491 41.3077 400.074 42.8145 400.074 44.8757C400.074 46.9369 400.472 48.4864 401.277 49.4341C402.078 50.3817 403.125 50.8556 404.414 50.8556C405.447 50.8556 406.314 50.5381 407.006 49.9032C407.698 49.2682 408.138 48.2921 408.323 46.9701H408.328Z" fill="white"/>
<path d="M413.191 34.2238V31.1912H415.831V34.2238H413.191ZM413.191 52.6751V37.1095H415.831V52.6704H413.191V52.6751Z" fill="white"/>
<path d="M418.859 44.8899C418.859 42.009 419.66 39.872 421.262 38.4884C422.598 37.3369 424.233 36.7588 426.157 36.7588C428.294 36.7588 430.047 37.4601 431.402 38.8627C432.762 40.2653 433.439 42.2033 433.439 44.672C433.439 46.6763 433.141 48.2495 432.539 49.3961C431.937 50.5428 431.066 51.4337 429.914 52.0686C428.767 52.7036 427.512 53.021 426.157 53.021C423.977 53.021 422.219 52.3245 420.873 50.9267C419.532 49.5288 418.859 47.5197 418.859 44.8899ZM421.57 44.8899C421.57 46.8848 422.006 48.3774 422.873 49.3677C423.74 50.358 424.835 50.8556 426.157 50.8556C427.479 50.8556 428.554 50.358 429.426 49.363C430.298 48.3679 430.729 46.8469 430.729 44.8046C430.729 42.8808 430.293 41.4214 429.417 40.4311C428.54 39.4408 427.455 38.9432 426.157 38.9432C424.858 38.9432 423.745 39.436 422.873 40.4216C422.006 41.4072 421.57 42.8998 421.57 44.8899ZM424.692 35.1762L426.64 31.0728H430.099L426.877 35.1762H424.692Z" fill="white"/>
<path d="M436.535 52.6704V37.1095H438.909V39.3223C440.051 37.6117 441.705 36.7588 443.861 36.7588C444.799 36.7588 445.661 36.9294 446.448 37.2658C447.234 37.6023 447.822 38.0429 448.215 38.5926C448.609 39.1423 448.879 39.7914 449.035 40.5401C449.135 41.0281 449.182 41.881 449.182 43.1036V52.6704H446.543V43.2031C446.543 42.1274 446.438 41.3267 446.235 40.7912C446.031 40.2605 445.666 39.8341 445.145 39.5166C444.624 39.1991 444.008 39.0427 443.306 39.0427C442.183 39.0427 441.212 39.3981 440.397 40.1136C439.582 40.8291 439.174 42.1796 439.174 44.1744V52.6751H436.535V52.6704Z" fill="white"/>
<path d="M146.319 88.687V86.7253C145.333 88.27 143.883 89.0423 141.969 89.0423C140.727 89.0423 139.585 88.7012 138.548 88.0189C137.505 87.3365 136.7 86.3794 136.131 85.1521C135.558 83.9249 135.273 82.5176 135.273 80.9255C135.273 79.3334 135.534 77.964 136.051 76.6988C136.567 75.4337 137.344 74.4623 138.382 73.7894C139.42 73.1166 140.576 72.7802 141.855 72.7802C142.793 72.7802 143.627 72.9792 144.362 73.3725C145.096 73.7657 145.688 74.2822 146.148 74.9172V67.2078H148.773V88.6917H146.323L146.319 88.687ZM137.979 80.9207C137.979 82.9156 138.401 84.4035 139.239 85.389C140.078 86.3746 141.073 86.8674 142.215 86.8674C143.357 86.8674 144.347 86.3983 145.153 85.4554C145.959 84.5124 146.361 83.072 146.361 81.1387C146.361 79.0112 145.949 77.4475 145.129 76.4477C144.31 75.4526 143.296 74.9551 142.097 74.9551C140.898 74.9551 139.945 75.4337 139.159 76.3908C138.372 77.348 137.979 78.8595 137.979 80.9207Z" fill="white"/>
<path d="M163.565 83.6737L166.289 84.0102C165.858 85.6023 165.062 86.839 163.901 87.7156C162.74 88.5969 161.252 89.0329 159.447 89.0329C157.172 89.0329 155.367 88.3316 154.031 86.929C152.699 85.5265 152.031 83.56 152.031 81.0297C152.031 78.4994 152.704 76.3813 154.055 74.9314C155.405 73.4862 157.153 72.7612 159.3 72.7612C161.446 72.7612 163.081 73.472 164.398 74.884C165.716 76.3008 166.374 78.2957 166.374 80.8639C166.374 81.0202 166.37 81.2524 166.36 81.5652H154.756C154.855 83.2757 155.339 84.5835 156.206 85.4933C157.073 86.4031 158.158 86.8579 159.461 86.8579C160.428 86.8579 161.252 86.6021 161.939 86.0951C162.622 85.5881 163.166 84.7778 163.565 83.6643V83.6737ZM154.903 79.4092H163.593C163.474 78.1014 163.143 77.1205 162.598 76.4619C161.759 75.4479 160.669 74.9361 159.328 74.9361C158.115 74.9361 157.097 75.3436 156.272 76.1539C155.448 76.9642 154.988 78.0493 154.903 79.4092Z" fill="white"/>
<path d="M169.539 88.687V67.2031H172.178V88.687H169.539Z" fill="white"/>
<path d="M189.868 88.687V69.7381H182.789V67.2031H199.819V69.7381H192.711V88.687H189.868Z" fill="white"/>
<path d="M209.721 83.6737L212.445 84.0102C212.014 85.6023 211.218 86.839 210.057 87.7156C208.896 88.5969 207.408 89.0329 205.603 89.0329C203.329 89.0329 201.523 88.3316 200.187 86.929C198.856 85.5265 198.188 83.56 198.188 81.0297C198.188 78.4994 198.86 76.3813 200.211 74.9314C201.561 73.4862 203.31 72.7612 205.456 72.7612C207.603 72.7612 209.237 73.472 210.555 74.884C211.872 76.3008 212.531 78.2957 212.531 80.8639C212.531 81.0202 212.526 81.2524 212.516 81.5652H200.912C201.012 83.2757 201.495 84.5835 202.362 85.4933C203.229 86.4031 204.314 86.8579 205.617 86.8579C206.584 86.8579 207.408 86.6021 208.095 86.0951C208.778 85.5881 209.323 84.7778 209.721 83.6643V83.6737ZM201.059 79.4092H209.749C209.631 78.1014 209.299 77.1205 208.754 76.4619C207.915 75.4479 206.826 74.9361 205.485 74.9361C204.272 74.9361 203.253 75.3436 202.428 76.1539C201.604 76.9642 201.144 78.0493 201.059 79.4092Z" fill="white"/>
<path d="M215.731 88.687V73.1261H218.105V75.4858C218.712 74.3817 219.271 73.652 219.783 73.3014C220.294 72.9507 220.858 72.7754 221.474 72.7754C222.365 72.7754 223.265 73.0597 224.185 73.6236L223.275 76.0686C222.63 75.6895 221.986 75.4953 221.342 75.4953C220.763 75.4953 220.247 75.6706 219.787 76.0165C219.328 76.3624 219.001 76.8457 218.807 77.4617C218.513 78.3999 218.366 79.4234 218.366 80.5369V88.6822H215.727L215.731 88.687Z" fill="white"/>
<path d="M225.723 88.687V73.1261H228.097V75.4858C228.704 74.3817 229.263 73.652 229.775 73.3014C230.287 72.9507 230.85 72.7754 231.466 72.7754C232.357 72.7754 233.258 73.0597 234.177 73.6236L233.267 76.0686C232.623 75.6895 231.978 75.4953 231.334 75.4953C230.756 75.4953 230.239 75.6706 229.78 76.0165C229.32 76.3624 228.993 76.8457 228.799 77.4617C228.505 78.3999 228.358 79.4234 228.358 80.5369V88.6822H225.719L225.723 88.687Z" fill="white"/>
<path d="M235.766 70.2356V67.2031H238.405V70.2356H235.766ZM235.766 88.687V73.1261H238.405V88.687H235.766Z" fill="white"/>
<path d="M248.173 86.3272L248.552 88.6585C247.808 88.8149 247.145 88.8955 246.557 88.8955C245.6 88.8955 244.856 88.7438 244.33 88.4406C243.804 88.1373 243.43 87.7393 243.216 87.2465C243.003 86.7537 242.894 85.716 242.894 84.1334V75.1778H240.961V73.1261H242.894V69.2737L245.519 67.6911V73.1261H248.173V75.1778H245.519V84.2755C245.519 85.0289 245.567 85.5122 245.657 85.7255C245.751 85.9387 245.898 86.1093 246.112 86.2372C246.32 86.3652 246.623 86.4268 247.012 86.4268C247.306 86.4268 247.689 86.3936 248.168 86.3225L248.173 86.3272Z" fill="white"/>
<path d="M249.77 80.9018C249.77 78.0208 250.57 75.8838 252.172 74.5002C253.508 73.3488 255.143 72.7707 257.067 72.7707C259.204 72.7707 260.957 73.472 262.312 74.8745C263.672 76.2771 264.35 78.2151 264.35 80.6838C264.35 82.6882 264.051 84.2613 263.449 85.408C262.848 86.5547 261.976 87.4455 260.824 88.0805C259.678 88.7154 258.422 89.0329 257.067 89.0329C254.887 89.0329 253.129 88.3363 251.783 86.9385C250.442 85.5407 249.77 83.5316 249.77 80.9018ZM252.48 80.9018C252.48 82.8966 252.916 84.3892 253.783 85.3796C254.65 86.3699 255.745 86.8674 257.067 86.8674C258.389 86.8674 259.464 86.3699 260.336 85.3748C261.208 84.3798 261.639 82.8587 261.639 80.8165C261.639 78.8927 261.203 77.4333 260.327 76.4429C259.45 75.4526 258.365 74.9551 257.067 74.9551C255.768 74.9551 254.655 75.4479 253.783 76.4335C252.916 77.4191 252.48 78.9117 252.48 80.9018Z" fill="white"/>
<path d="M267.415 88.687V73.1261H269.789V75.4858C270.395 74.3817 270.954 73.652 271.466 73.3014C271.978 72.9507 272.542 72.7754 273.158 72.7754C274.049 72.7754 274.949 73.0597 275.868 73.6236L274.958 76.0686C274.314 75.6895 273.67 75.4953 273.025 75.4953C272.447 75.4953 271.931 75.6706 271.471 76.0165C271.011 76.3624 270.684 76.8457 270.49 77.4617C270.196 78.3999 270.049 79.4234 270.049 80.5369V88.6822H267.41L267.415 88.687Z" fill="white"/>
<path d="M277.453 70.2356V67.2031H280.092V70.2356H277.453ZM277.453 88.687V73.1261H280.092V88.687H277.453Z" fill="white"/>
<path d="M283.125 80.9018C283.125 78.0208 283.926 75.8838 285.527 74.5002C286.864 73.3488 288.498 72.7707 290.422 72.7707C292.559 72.7707 294.312 73.472 295.668 74.8745C297.027 76.2771 297.705 78.2151 297.705 80.6838C297.705 82.6882 297.407 84.2613 296.805 85.408C296.203 86.5547 295.331 87.4455 294.18 88.0805C293.033 88.7154 291.777 89.0329 290.422 89.0329C288.242 89.0329 286.485 88.3363 285.139 86.9385C283.798 85.5407 283.125 83.5316 283.125 80.9018ZM285.835 80.9018C285.835 82.8966 286.271 84.3892 287.138 85.3796C288.006 86.3699 289.1 86.8674 290.422 86.8674C291.744 86.8674 292.82 86.3699 293.692 85.3748C294.564 84.3798 294.995 82.8587 294.995 80.8165C294.995 78.8927 294.559 77.4333 293.682 76.4429C292.806 75.4526 291.72 74.9551 290.422 74.9551C289.124 74.9551 288.01 75.4479 287.138 76.4335C286.271 77.4191 285.835 78.9117 285.835 80.9018Z" fill="white"/>
<path d="M308.109 82.238V79.5845H316.212V82.238H308.109Z" fill="white"/>
<path d="M347.043 88.687H342.324L340.447 83.8064H331.861L330.089 88.687H325.488L333.856 67.2031H338.443L347.043 88.687ZM339.059 80.1863L336.098 72.2163L333.198 80.1863H339.059Z" fill="white"/>
<path d="M349.359 88.687V67.2031H358.49C360.784 67.2031 362.456 67.3973 363.494 67.7811C364.536 68.165 365.366 68.852 365.991 69.8376C366.617 70.8232 366.929 71.9509 366.929 73.2208C366.929 74.8319 366.456 76.1634 365.508 77.2153C364.56 78.2672 363.143 78.9259 361.257 79.2007C362.196 79.7456 362.968 80.3474 363.579 81.0013C364.191 81.6552 365.015 82.8161 366.048 84.4888L368.673 88.6775H363.485L360.348 84.0007C359.234 82.328 358.471 81.2761 358.064 80.8449C357.652 80.409 357.22 80.1105 356.761 79.9494C356.301 79.7883 355.576 79.7077 354.576 79.7077H353.695V88.6775H349.359V88.687ZM353.695 76.2913H356.903C358.983 76.2913 360.281 76.2013 360.803 76.026C361.319 75.8506 361.727 75.5474 362.02 75.1162C362.314 74.685 362.461 74.1496 362.461 73.5051C362.461 72.7802 362.267 72.1973 361.883 71.7519C361.499 71.3065 360.954 71.027 360.248 70.9085C359.898 70.8611 358.841 70.8374 357.083 70.8374H353.7V76.2866L353.695 76.2913Z" fill="white"/>
<path d="M375.854 88.687V70.8374H369.48V67.2031H386.553V70.8374H380.194V88.687H375.858H375.854Z" fill="white"/>
</g>
<defs>
<clipPath id="clip0_159_185436">
<rect width="417.183" height="72" fill="white" transform="translate(32 24.0552)"/>
</clipPath>
</defs>
</svg>
