<svg width="279" height="121" viewBox="0 0 279 121" fill="none" xmlns="http://www.w3.org/2000/svg">
<g clip-path="url(#clip0_157_185068)">
<path d="M102.809 41.3395C104.297 41.4996 105.953 40.3949 106.147 39.1157C105.156 38.629 102.601 40.1292 102.809 41.3395Z" fill="white"/>
<path d="M99.2599 42.2169C100.265 41.6949 101.245 39.9627 100.718 38.8708C99.4675 39.2919 98.634 41.2034 99.2599 42.2169Z" fill="white"/>
<path d="M98.2843 38.7395C97.1355 39.6265 96.7932 41.482 97.6045 42.3482C98.5996 41.514 98.9641 39.6297 98.2843 38.7395Z" fill="white"/>
<path d="M99.2969 42.401C99.4205 43.5217 100.953 44.407 102.431 44.2261C102.323 43.0558 100.484 42.1112 99.2969 42.401Z" fill="white"/>
<path d="M104.765 42.9853C104.687 42.8797 104.638 42.8012 104.576 42.7324C103.92 41.9991 102.421 41.6453 101.5 41.9911C101.283 42.0728 101.237 42.2057 101.359 42.3674C101.497 42.5752 101.674 42.7536 101.881 42.8925C102.739 43.3728 103.646 43.4064 104.574 43.1022C104.641 43.0692 104.705 43.0301 104.765 42.9853Z" fill="white"/>
<path d="M101.231 41.8983C102.367 41.2323 102.934 39.7161 102.511 38.4802C101.328 38.8852 100.622 40.768 101.231 41.8983Z" fill="white"/>
<path d="M59.8191 87.7766C59.7446 87.4564 59.6036 87.1362 59.6036 86.816C59.6036 84.6066 59.5133 82.3892 60.22 80.2391C60.3499 79.8436 60.239 79.3682 60.239 78.9279L59.9221 78.8318C59.5751 79.4258 59.0965 79.9781 58.9032 80.6185C57.8986 83.9614 57.5959 87.41 57.5341 90.8889C57.5246 91.4653 57.4296 92.0416 57.3757 92.618H57.0588C56.9716 92.3298 56.8607 92.048 56.8005 91.7567C55.7293 86.5102 55.6485 81.2109 56.0573 75.9068C56.3029 72.7048 57.363 69.7302 58.6085 66.7955C59.7494 64.1059 61.4607 61.8532 63.3875 59.7271C63.7425 59.3349 64.1798 59.0163 64.5395 58.6337C64.6869 58.4816 64.7487 58.2462 64.8564 58.0477C64.6156 57.9836 64.3715 57.8524 64.137 57.8668C63.2481 57.9244 62.356 58.1325 61.4734 58.0941C59.7653 57.9977 58.0765 57.6797 56.4487 57.1479C54.3184 56.4789 52.3005 55.4878 50.4638 54.2085C48.3357 52.7452 46.5515 50.9121 44.8687 48.97C44.6655 48.7034 44.5428 48.3832 44.5153 48.0479C46.8066 48.6338 48.7937 50.0475 51.2418 49.9947C46.4755 46.1875 41.4175 42.7502 37.3848 38.1345L37.5163 37.8703C37.8015 37.9136 38.109 37.9024 38.3688 38.0096C40.3654 38.8341 42.3477 39.6939 44.3474 40.5104C44.7023 40.6545 45.1191 40.6481 45.5057 40.7121L45.6103 40.4495C44.9437 39.934 44.2756 39.4196 43.6058 38.9062C42.476 38.0416 41.286 37.2475 40.2275 36.3014C38.8299 35.0526 37.4038 33.7958 36.2312 32.3421C34.7275 30.4769 33.2602 28.5349 32.5709 26.1494C32.4378 25.6932 32.1779 25.2737 32.048 24.8174C31.9862 24.5981 32.01 24.2122 32.1447 24.1178C32.2793 24.0233 32.6581 24.0569 32.8656 24.1626C33.7118 24.5949 34.5278 25.088 35.3677 25.5331C37.136 26.4712 38.9044 27.4126 40.6902 28.3188C42.9767 29.4843 45.2918 30.637 47.6132 31.7577C48.9902 32.4125 50.4147 32.9649 51.8154 33.5669C52.0088 33.6485 52.1942 33.751 52.3859 33.8342C53.9007 34.489 55.4092 35.1599 56.9352 35.7874C58.2757 36.3382 59.6289 36.8729 60.9917 37.35C62.9565 38.0352 64.9325 38.6868 66.9195 39.3048C68.1777 39.6971 69.4548 40.1053 70.7415 40.3295C73.4162 40.7826 76.1068 41.13 78.799 41.4806C79.8274 41.6119 80.5103 41.2709 80.935 40.1069C81.7907 37.7727 84.1913 36.6424 86.6569 37.001C88.3064 37.2411 89.5091 38.2626 90.8607 39.0583C91.3868 39.3673 91.9699 39.6747 92.5641 39.7403C93.9586 39.9004 95.307 40.0941 96.3116 41.1908C96.5477 41.4486 96.6143 41.8632 96.7601 42.2058C96.4452 42.3194 96.1234 42.4125 95.7966 42.4844C94.7128 42.6605 93.6036 42.7198 92.5467 42.9935C91.6498 43.2257 91.1349 43.9781 90.9067 44.8875C89.9147 48.8324 89.0052 52.7964 87.9166 56.7157C86.977 60.1178 85.1325 62.9596 82.0917 64.8455C81.4829 65.2187 80.823 65.4992 80.1332 65.678C78.6786 66.0575 77.1875 66.2944 75.736 66.6787C73.5287 67.263 71.5053 68.1948 69.7147 69.7206C67.8362 71.3222 66.2461 73.2402 65.0149 75.3897C63.2623 78.4204 61.7237 81.5695 60.9584 85.0437C60.7524 85.9835 60.3626 86.88 60.0568 87.7974L59.8191 87.7766Z" fill="white"/>
<path d="M106.271 81.6142C101.468 81.6142 97.6349 80.0186 94.77 76.8272C91.9051 73.6359 90.4727 69.318 90.4727 63.8736C90.4727 58.4302 91.9051 54.1123 94.77 50.9199C97.6349 47.7275 101.468 46.1319 106.271 46.1329C109.962 46.1329 113.104 47.1394 115.697 49.1524C118.291 51.1654 119.75 53.8177 120.076 57.1094H115.444C115.258 54.9416 114.327 53.2179 112.652 51.9381C110.976 50.6584 108.864 50.018 106.314 50.017C102.87 50.017 100.144 51.2145 98.1372 53.6096C96.1301 56.0047 95.1265 59.4255 95.1265 63.872C95.1265 68.3035 96.1227 71.719 98.115 74.1183C100.107 76.5177 102.81 77.719 106.223 77.7222C108.879 77.7222 111.026 77.0668 112.663 75.7562C114.3 74.4455 115.227 72.5734 115.442 70.1399H120.082C119.759 73.7901 118.338 76.6143 115.821 78.6123C113.304 80.6104 110.12 81.611 106.271 81.6142Z" fill="white"/>
<path d="M154.194 81.0282H149.124L145.186 70.5913H130.963L127.211 81.0282H122.457L135.498 46.7189H140.34L154.194 81.0282ZM143.865 66.9795L137.888 51.0656L132.183 66.9795H143.865Z" fill="white"/>
<path d="M157.953 46.7189H170.63C173.409 46.7189 175.737 46.9798 177.613 47.5018C179.489 48.0237 180.975 49.1551 182.072 50.8959C183.169 52.6396 183.741 54.6684 183.717 56.7347C183.717 60.1993 182.628 62.8286 180.451 64.6228C178.274 66.417 175.123 67.3141 171 67.3141H162.453V81.0282H157.953V46.7189ZM162.447 63.2412H171.04C173.927 63.2412 175.987 62.6952 177.22 61.6033C178.453 60.5115 179.066 58.9355 179.061 56.8756C179.084 55.5841 178.73 54.3143 178.042 53.2253C177.363 52.1644 176.502 51.4931 175.459 51.2113C174.417 50.9295 172.915 50.7891 170.954 50.7902H162.453L162.447 63.2412Z" fill="white"/>
<path d="M217.479 81.0282H212.409L208.471 70.5913H194.248L190.496 81.0282H185.742L198.783 46.7189H203.624L217.479 81.0282ZM207.148 66.9859L201.173 51.072L195.468 66.9859H207.148Z" fill="white"/>
<path d="M245.14 81.0282H218.293V76.7696L239.401 50.7902H220.239V46.7189H244.56V50.9775L223.459 76.9569H245.14V81.0282Z" fill="white"/>
<path d="M78.3212 94.0187H77.3594V86.7086H78.3212V94.0187Z" fill="white"/>
<path d="M80.8583 89.4015C81.3221 88.8678 81.8439 88.601 82.4239 88.601C83.6039 88.601 84.1944 89.2509 84.1955 90.551V94.0107H83.2621V90.591C83.2621 90.164 83.1856 89.8529 83.0324 89.6576C82.8792 89.4623 82.6283 89.3678 82.2797 89.3742C81.8054 89.3742 81.33 89.6565 80.8536 90.2212V94.0107H79.9219V88.7274H80.8536L80.8583 89.4015Z" fill="white"/>
<path d="M87.4172 94.1436C85.9869 94.1436 85.2384 93.5752 85.1719 92.4385H86.1036C86.111 93.0789 86.5457 93.3991 87.4077 93.3991C87.7199 93.4206 88.0302 93.3354 88.2887 93.1574C88.383 93.0879 88.4596 92.9968 88.5122 92.8916C88.5648 92.7864 88.5919 92.6701 88.5914 92.5522C88.5989 92.4474 88.5745 92.3428 88.5216 92.2524C88.4686 92.162 88.3896 92.09 88.295 92.0463C87.8997 91.8829 87.4909 91.7548 87.0734 91.6636C86.5976 91.5647 86.141 91.3879 85.7217 91.1401C85.4365 90.948 85.2955 90.6086 85.2955 90.1235C85.2927 89.9125 85.3392 89.7039 85.4312 89.5145C85.5231 89.325 85.658 89.1602 85.8247 89.0332C86.1797 88.7466 86.6519 88.6025 87.2508 88.6025C88.6241 88.6025 89.325 89.0962 89.3535 90.0835H88.425C88.3917 89.5839 88.0225 89.3358 87.3158 89.3358C87.0459 89.3254 86.778 89.3873 86.5394 89.5151C86.4442 89.564 86.3647 89.6391 86.31 89.7318C86.2553 89.8244 86.2277 89.9308 86.2304 90.0386C86.2248 90.1281 86.2441 90.2173 86.2861 90.2962C86.3281 90.3752 86.3911 90.4407 86.468 90.4853C86.8496 90.6503 87.2475 90.7737 87.6549 90.8535C88.1517 90.9543 88.6288 91.1371 89.0667 91.3947C89.3741 91.6007 89.5278 91.9566 89.5278 92.4625C89.5311 92.6934 89.4812 92.9218 89.3822 93.1299C89.2832 93.338 89.1378 93.52 88.9574 93.6617C88.5718 93.9829 88.0584 94.1436 87.4172 94.1436Z" fill="white"/>
<path d="M92.6362 94.0363C92.4167 94.0766 92.1939 94.0964 91.9707 94.0956C91.5883 94.0956 91.3084 94.0267 91.1309 93.889C90.9587 93.7599 90.8406 93.5703 90.7997 93.3575C90.7522 93.066 90.731 92.7707 90.7363 92.4754V89.4735H90.0898V88.7354H90.7363V87.4178H91.6649V88.7354H92.5111V89.4735H91.6633V92.525C91.6633 92.8868 91.7077 93.1174 91.798 93.215C91.8462 93.2648 91.9043 93.3037 91.9685 93.3291C92.0327 93.3545 92.1015 93.3658 92.1704 93.3623C92.326 93.3631 92.4814 93.3497 92.6347 93.3223L92.6362 94.0363Z" fill="white"/>
<path d="M94.3435 87.7252H93.4102V86.7086H94.3435V87.7252ZM94.3435 94.0187H93.4102V88.7354H94.3435V94.0187Z" fill="white"/>
<path d="M97.7479 94.0363C97.5284 94.0766 97.3056 94.0964 97.0824 94.0956C96.7011 94.0956 96.4211 94.0267 96.2426 93.889C96.0704 93.7599 95.9522 93.5703 95.9114 93.3575C95.8631 93.0661 95.8418 92.7708 95.848 92.4754V89.4735H95.2031V88.7354H95.8496V87.4178H96.7782V88.7354H97.6259V89.4735H96.7782V92.525C96.7782 92.8868 96.8225 93.1174 96.9129 93.215C96.9611 93.2648 97.0192 93.3037 97.0834 93.3291C97.1476 93.3545 97.2164 93.3658 97.2852 93.3623C97.4409 93.3631 97.5963 93.3497 97.7495 93.3223L97.7479 94.0363Z" fill="white"/>
<path d="M101.839 93.3463C101.376 93.88 100.854 94.1468 100.275 94.1468C99.0934 94.1468 98.5029 93.4952 98.5039 92.192V88.7322H99.4356V92.152C99.4356 92.5842 99.5117 92.8954 99.6638 93.0854C99.8159 93.2753 100.066 93.3698 100.413 93.3687C100.933 93.3687 101.408 93.0864 101.839 92.5218V88.7322H102.768V94.0155H101.839V93.3463Z" fill="white"/>
<path d="M106.179 94.0363C105.96 94.0766 105.737 94.0964 105.514 94.0956C105.132 94.0956 104.852 94.0267 104.674 93.889C104.502 93.7599 104.384 93.5703 104.343 93.3575C104.294 93.0661 104.273 92.7708 104.279 92.4754V89.4735H103.633V88.7354H104.279V87.4178H105.206V88.7354H106.056V89.4735H105.206V92.525C105.206 92.8868 105.252 93.1174 105.343 93.215C105.391 93.2648 105.449 93.3037 105.513 93.3291C105.577 93.3545 105.646 93.3658 105.715 93.3623C105.871 93.3631 106.026 93.3497 106.179 93.3223V94.0363Z" fill="white"/>
<path d="M109.074 88.6089C109.822 88.6089 110.419 88.8502 110.865 89.3326C111.31 89.815 111.533 90.4965 111.533 91.3771C111.533 92.2544 111.31 92.9348 110.865 93.4183C110.419 93.9018 109.822 94.1436 109.074 94.1436C108.335 94.1436 107.74 93.9018 107.29 93.4183C106.84 92.9348 106.617 92.2544 106.621 91.3771C106.621 90.4944 106.844 89.8129 107.29 89.3326C107.736 88.8523 108.33 88.6111 109.074 88.6089ZM109.074 93.4119C109.281 93.4178 109.487 93.3746 109.675 93.286C109.863 93.1973 110.028 93.0656 110.156 92.9012C110.432 92.5607 110.57 92.0548 110.57 91.3835C110.57 90.7121 110.432 90.2041 110.156 89.8593C110.024 89.6995 109.859 89.571 109.672 89.4829C109.485 89.3947 109.281 89.349 109.075 89.349C108.869 89.349 108.665 89.3947 108.478 89.4829C108.291 89.571 108.126 89.6995 107.993 89.8593C107.718 90.2009 107.58 90.7089 107.58 91.3835C107.58 92.058 107.718 92.564 107.993 92.9012C108.122 93.0643 108.287 93.1947 108.475 93.2822C108.662 93.3698 108.868 93.412 109.074 93.4055V93.4119Z" fill="white"/>
<path d="M118.414 94.1436C117.39 94.1436 116.573 93.8036 115.963 93.1238C115.352 92.4439 115.047 91.5238 115.047 90.3636C115.047 89.2045 115.352 88.2845 115.963 87.6035C116.573 86.9225 117.39 86.5826 118.414 86.5837C119.136 86.562 119.843 86.7877 120.422 87.2241C120.688 87.4232 120.909 87.6775 121.07 87.9699C121.231 88.2623 121.328 88.5861 121.355 88.9195H120.368C120.355 88.7032 120.295 88.4923 120.192 88.302C120.089 88.1117 119.947 87.9464 119.774 87.818C119.3 87.4985 118.729 87.359 118.163 87.424C117.597 87.4891 117.071 87.7546 116.681 88.1735C116.253 88.6836 116.041 89.4126 116.047 90.3604C116.052 91.3082 116.263 92.0361 116.681 92.5442C117.071 92.9663 117.598 93.2335 118.166 93.2978C118.734 93.3621 119.307 93.2192 119.78 92.8948C119.957 92.7485 120.101 92.5662 120.203 92.3599C120.305 92.1535 120.363 91.9277 120.373 91.6973H121.349C121.279 92.4753 120.976 93.0773 120.441 93.5032C119.905 93.9291 119.23 94.1425 118.414 94.1436Z" fill="white"/>
<path d="M124.676 88.6089C125.424 88.6089 126.02 88.8502 126.465 89.3326C126.909 89.815 127.132 90.4965 127.133 91.3771C127.133 92.2544 126.91 92.9348 126.465 93.4183C126.019 93.9018 125.422 94.1436 124.676 94.1436C123.936 94.1436 123.341 93.9018 122.891 93.4183C122.441 92.9348 122.218 92.2544 122.223 91.3771C122.223 90.4944 122.446 89.8129 122.891 89.3326C123.337 88.8523 123.932 88.6111 124.676 88.6089ZM124.676 93.4119C124.883 93.4179 125.088 93.3748 125.276 93.2861C125.464 93.1974 125.628 93.0656 125.756 92.9012C126.034 92.5607 126.172 92.0548 126.171 91.3835C126.17 90.7121 126.032 90.2041 125.756 89.8593C125.624 89.6996 125.459 89.5711 125.272 89.4829C125.085 89.3947 124.882 89.349 124.676 89.349C124.47 89.349 124.266 89.3947 124.079 89.4829C123.892 89.5711 123.727 89.6996 123.595 89.8593C123.319 90.2009 123.181 90.7089 123.181 91.3835C123.181 92.058 123.319 92.564 123.595 92.9012C123.724 93.0643 123.889 93.1947 124.076 93.2822C124.264 93.3698 124.469 93.412 124.676 93.4055V93.4119Z" fill="white"/>
<path d="M129.111 94.0187H128.18V86.7086H129.111V94.0187Z" fill="white"/>
<path d="M132.611 88.6089C133.358 88.6089 133.954 88.8502 134.4 89.3326C134.846 89.815 135.068 90.4965 135.068 91.3771C135.068 92.2544 134.846 92.9348 134.4 93.4183C133.954 93.9018 133.358 94.1436 132.611 94.1436C131.866 94.1436 131.271 93.9018 130.827 93.4183C130.382 92.9348 130.158 92.2544 130.156 91.3771C130.156 90.4944 130.38 89.8129 130.827 89.3326C131.273 88.8523 131.868 88.6111 132.611 88.6089ZM132.611 93.4119C132.818 93.4176 133.023 93.3744 133.211 93.2858C133.398 93.1971 133.563 93.0654 133.691 92.9012C133.967 92.5607 134.105 92.0548 134.105 91.3835C134.105 90.7121 133.967 90.2041 133.691 89.8593C133.559 89.6995 133.394 89.571 133.207 89.4829C133.02 89.3947 132.816 89.349 132.61 89.349C132.404 89.349 132.2 89.3947 132.013 89.4829C131.826 89.571 131.661 89.6995 131.528 89.8593C131.253 90.2009 131.115 90.7089 131.115 91.3835C131.115 92.058 131.253 92.564 131.528 92.9012C131.658 93.0644 131.823 93.1949 132.011 93.2824C132.199 93.37 132.404 93.4121 132.611 93.4055V93.4119Z" fill="white"/>
<path d="M143.185 94.0187H142.252V90.599C142.252 90.1592 142.189 89.8465 142.064 89.6608C141.991 89.5629 141.894 89.4858 141.783 89.437C141.672 89.3882 141.55 89.3693 141.43 89.3822C140.979 89.3822 140.536 89.6645 140.102 90.2291V94.0187H139.173V90.599C139.173 90.1592 139.111 89.8465 138.986 89.6608C138.913 89.5635 138.816 89.4868 138.705 89.4381C138.594 89.3893 138.473 89.3701 138.353 89.3822C137.902 89.3822 137.462 89.6645 137.031 90.2291V94.0187H136.098V88.7354H137.036V89.4078C137.476 88.8742 137.965 88.6073 138.501 88.6073C139.268 88.6073 139.757 88.9275 139.967 89.5679C140.316 89.1517 140.612 88.8891 140.855 88.777C141.079 88.673 141.323 88.6184 141.571 88.6169C142.643 88.6169 143.18 89.2669 143.181 90.5669L143.185 94.0187Z" fill="white"/>
<path d="M145.461 89.3614C145.636 89.1287 145.863 88.9397 146.122 88.8093C146.381 88.6788 146.667 88.6103 146.956 88.6089C147.641 88.6089 148.169 88.8539 148.541 89.3438C148.917 89.8353 149.104 90.4965 149.104 91.3322C149.104 92.1984 148.894 92.8852 148.47 93.3879C148.281 93.628 148.039 93.8211 147.765 93.9521C147.49 94.0831 147.189 94.1486 146.885 94.1436C146.36 94.1561 145.85 93.9654 145.459 93.6104V94.0187H144.527V86.7086H145.459L145.461 89.3614ZM145.461 92.7619C145.631 92.961 145.842 93.1211 146.078 93.2315C146.315 93.3419 146.572 93.4002 146.833 93.4023C147.022 93.4048 147.209 93.3582 147.375 93.2671C147.542 93.1761 147.682 93.0435 147.784 92.882C148.02 92.5346 148.139 92.0159 148.139 91.329C148.139 90.6758 148.026 90.1827 147.803 89.8449C147.704 89.6849 147.565 89.554 147.401 89.4652C147.236 89.3764 147.051 89.3329 146.865 89.339C146.348 89.339 145.877 89.6416 145.453 90.2468L145.461 92.7619Z" fill="white"/>
<path d="M152.273 88.6089C153.019 88.6089 153.615 88.8502 154.062 89.3326C154.509 89.815 154.732 90.4965 154.731 91.3771C154.731 92.2544 154.508 92.9348 154.062 93.4183C153.616 93.9018 153.02 94.1436 152.273 94.1436C151.528 94.1436 150.934 93.9018 150.489 93.4183C150.044 92.9348 149.821 92.2544 149.82 91.3771C149.82 90.4944 150.043 89.8129 150.489 89.3326C150.935 88.8523 151.53 88.6111 152.273 88.6089ZM152.273 93.4119C152.48 93.4176 152.686 93.3744 152.873 93.2858C153.061 93.1971 153.225 93.0654 153.354 92.9012C153.63 92.5607 153.768 92.0548 153.769 91.3835C153.77 90.7121 153.632 90.2041 153.354 89.8593C153.222 89.6996 153.056 89.5711 152.87 89.4829C152.683 89.3947 152.479 89.349 152.273 89.349C152.067 89.349 151.864 89.3947 151.677 89.4829C151.49 89.5711 151.325 89.6996 151.193 89.8593C150.916 90.2009 150.777 90.7089 150.777 91.3835C150.777 92.058 150.916 92.564 151.193 92.9012C151.321 93.0645 151.486 93.195 151.674 93.2826C151.861 93.3701 152.067 93.4122 152.273 93.4055V93.4119Z" fill="white"/>
<path d="M158.126 91.8253H155.418V90.9224H158.132L158.126 91.8253Z" fill="white"/>
<path d="M165.2 94.0187H164.12L163.281 91.7949H160.25L159.458 94.0187H158.445L161.225 86.7086H162.256L165.2 94.0187ZM162.999 91.0264L161.732 87.6355L160.516 91.0264H162.999Z" fill="white"/>
<path d="M166.811 94.0187H165.875V86.7086H166.808L166.811 94.0187Z" fill="white"/>
<path d="M170.407 94.1436C169.639 94.1436 169.021 93.9002 168.552 93.4135C168.083 92.9268 167.849 92.248 167.852 91.377C167.852 90.5125 168.078 89.8347 168.53 89.3438C168.757 89.1003 169.032 88.9088 169.338 88.7821C169.644 88.6553 169.974 88.5963 170.304 88.6089C171.051 88.6089 171.648 88.8501 172.093 89.3326C172.539 89.815 172.762 90.4965 172.762 91.377V91.6012H168.82C168.858 92.2128 169.026 92.6658 169.32 92.962C169.462 93.1069 169.632 93.2209 169.819 93.2971C170.006 93.3734 170.206 93.4103 170.407 93.4055C170.719 93.4099 171.025 93.3226 171.289 93.1541C171.412 93.0805 171.515 92.9761 171.588 92.8508C171.66 92.7255 171.699 92.5836 171.702 92.4385H172.664C172.638 92.6896 172.559 92.9323 172.433 93.1499C172.306 93.3676 172.135 93.5552 171.93 93.7001C171.481 94.006 170.949 94.1612 170.407 94.1436ZM171.78 90.8631C171.706 90.354 171.537 89.973 171.273 89.72C171.01 89.477 170.666 89.3422 170.31 89.3422C169.954 89.3422 169.61 89.477 169.347 89.72C169.081 89.9708 168.912 90.3524 168.839 90.8647L171.78 90.8631Z" fill="white"/>
<path d="M180.881 94.0187H179.948V90.599C179.948 90.1592 179.886 89.8465 179.761 89.6608C179.688 89.5632 179.591 89.4862 179.48 89.4374C179.369 89.3886 179.248 89.3696 179.127 89.3822C178.677 89.3822 178.235 89.6645 177.801 90.2291V94.0187H176.873V90.599C176.873 90.1592 176.81 89.8465 176.686 89.6608C176.612 89.5635 176.515 89.4868 176.405 89.4381C176.294 89.3893 176.172 89.3701 176.052 89.3822C175.601 89.3822 175.16 89.6645 174.729 90.2291V94.0187H173.797V88.7354H174.73V89.4078C175.171 88.8742 175.659 88.6073 176.196 88.6073C176.963 88.6073 177.451 88.9275 177.662 89.5679C178.01 89.1517 178.307 88.8891 178.551 88.777C178.775 88.673 179.02 88.6184 179.267 88.6169C180.339 88.6169 180.875 89.2669 180.875 90.5669L180.881 94.0187Z" fill="white"/>
<path d="M185.54 93.476C185.039 93.9312 184.383 94.1708 183.71 94.1436C183.245 94.1621 182.789 94.0109 182.426 93.7177C182.264 93.5857 182.135 93.4178 182.047 93.2271C181.96 93.0364 181.917 92.8279 181.922 92.6178C181.922 91.3819 182.979 90.7634 185.091 90.7623H185.545C185.553 90.4862 185.533 90.2099 185.486 89.9378C185.462 89.8477 185.421 89.7635 185.364 89.6903C185.307 89.6171 185.236 89.5564 185.155 89.5119C184.887 89.3793 184.589 89.3208 184.291 89.3422C183.462 89.3422 183.034 89.6411 183.008 90.2388H182.081C182.148 89.1522 182.902 88.6089 184.34 88.6089C185.012 88.6089 185.536 88.7434 185.911 89.0124C186.286 89.2814 186.473 89.8102 186.473 90.599V94.0187H185.545L185.54 93.476ZM185.54 92.6274V91.4555H184.906C183.557 91.4555 182.883 91.8264 182.883 92.5682C182.877 92.6885 182.901 92.8082 182.953 92.9167C183.005 93.0251 183.082 93.1188 183.179 93.1894C183.414 93.3432 183.691 93.4188 183.971 93.4055C184.279 93.4055 184.584 93.3337 184.86 93.1958C185.132 93.07 185.367 92.874 185.54 92.6274ZM185.614 86.5837L184.524 87.9846H183.794L184.45 86.5837H185.614Z" fill="white"/>
<path d="M188.782 89.4015C189.245 88.8731 189.767 88.601 190.346 88.601C191.526 88.601 192.116 89.2509 192.117 90.551V94.0107H191.184V90.591C191.184 90.164 191.108 89.8529 190.956 89.6576C190.804 89.4623 190.553 89.3678 190.203 89.3742C189.729 89.3742 189.253 89.6565 188.777 90.2212V94.0107H187.844V88.7274H188.777L188.782 89.4015Z" fill="white"/>
<path d="M197.093 89.3614C197.268 89.1286 197.494 88.9396 197.753 88.8092C198.012 88.6787 198.297 88.6102 198.587 88.6089C199.272 88.6089 199.8 88.8539 200.172 89.3438C200.547 89.8353 200.734 90.4965 200.734 91.3322C200.734 92.1984 200.525 92.8852 200.1 93.3879C199.911 93.6281 199.67 93.8212 199.395 93.9523C199.12 94.0833 198.819 94.1488 198.516 94.1436C197.99 94.1562 197.48 93.9654 197.09 93.6105V96.0536H196.156V88.729H197.093V89.3614ZM197.093 92.7619C197.263 92.9611 197.474 93.1212 197.71 93.2317C197.947 93.3421 198.204 93.4003 198.465 93.4023C198.654 93.4048 198.841 93.3582 199.007 93.2671C199.174 93.1761 199.314 93.0435 199.416 92.882C199.652 92.5346 199.771 92.0159 199.771 91.329C199.771 90.6758 199.658 90.1827 199.435 89.8449C199.336 89.6852 199.198 89.5544 199.033 89.4656C198.869 89.3768 198.685 89.3332 198.498 89.339C197.98 89.339 197.511 89.6416 197.086 90.2468L197.093 92.7619Z" fill="white"/>
<path d="M205.091 93.476C204.59 93.9315 203.932 94.1711 203.259 94.1436C202.794 94.1621 202.339 94.0109 201.975 93.7177C201.814 93.5854 201.685 93.4174 201.598 93.2267C201.511 93.0361 201.468 92.8278 201.473 92.6178C201.473 91.3819 202.529 90.7634 204.642 90.7623H205.097C205.105 90.4861 205.085 90.2098 205.037 89.9378C205.014 89.8477 204.973 89.7634 204.916 89.6901C204.859 89.6168 204.788 89.5561 204.707 89.5119C204.439 89.3793 204.141 89.3208 203.844 89.3422C203.013 89.3422 202.587 89.6416 202.56 90.2388H201.632C201.701 89.1522 202.455 88.6089 203.893 88.6089C204.563 88.6089 205.087 88.7434 205.461 89.0124C205.835 89.2814 206.024 89.8129 206.024 90.599V94.0187H205.097L205.091 93.476ZM205.091 92.6274V91.4555H204.457C203.108 91.4555 202.433 91.8264 202.433 92.5682C202.427 92.6885 202.452 92.8084 202.503 92.9169C202.555 93.0254 202.633 93.119 202.73 93.1894C202.965 93.3434 203.242 93.419 203.522 93.4055C203.83 93.4057 204.134 93.3339 204.411 93.1958C204.683 93.0703 204.918 92.8742 205.091 92.6274Z" fill="white"/>
<path d="M210.116 89.5856C209.93 89.5396 209.739 89.5197 209.547 89.5263C209.074 89.5263 208.668 89.7772 208.329 90.2788V94.0187H207.391V88.7354H208.324V89.4735C208.715 88.9003 209.169 88.6143 209.687 88.6154C209.829 88.6161 209.971 88.6295 210.111 88.6554L210.116 89.5856Z" fill="white"/>
<path d="M214.079 93.476C213.578 93.9315 212.921 94.1711 212.247 94.1436C211.783 94.1621 211.327 94.0109 210.964 93.7177C210.802 93.5854 210.673 93.4174 210.586 93.2267C210.499 93.0361 210.456 92.8278 210.461 92.6178C210.461 91.3819 211.518 90.7634 213.63 90.7623H214.085C214.093 90.4861 214.073 90.2098 214.025 89.9378C214.002 89.8477 213.961 89.7634 213.904 89.6901C213.848 89.6168 213.776 89.5561 213.695 89.5119C213.427 89.3793 213.129 89.3208 212.832 89.3422C212.002 89.3422 211.574 89.6411 211.548 90.2388H210.62C210.69 89.1522 211.443 88.6089 212.881 88.6089C213.551 88.6089 214.076 88.7434 214.45 89.0124C214.824 89.2814 215.012 89.8129 215.012 90.599V94.0187H214.085L214.079 93.476ZM214.079 92.6274V91.4555H213.445C212.097 91.4555 211.423 91.8264 211.422 92.5682C211.416 92.6885 211.44 92.8084 211.492 92.9169C211.543 93.0254 211.621 93.119 211.718 93.1894C211.953 93.3436 212.23 93.4192 212.51 93.4055C212.819 93.4057 213.123 93.3339 213.399 93.1958C213.671 93.0703 213.906 92.8742 214.079 92.6274Z" fill="white"/>
<path d="M220.004 94.0187H219.07V86.7086H220.004V94.0187Z" fill="white"/>
<path d="M224.69 93.476C224.189 93.9313 223.531 94.1709 222.858 94.1436C222.394 94.1621 221.938 94.0109 221.575 93.7177C221.413 93.5857 221.283 93.4179 221.196 93.2271C221.108 93.0364 221.066 92.8279 221.071 92.6178C221.071 91.3819 222.127 90.7634 224.24 90.7623H224.695C224.703 90.4861 224.683 90.2098 224.634 89.9378C224.611 89.8476 224.57 89.7633 224.513 89.69C224.456 89.6168 224.384 89.5561 224.303 89.5119C224.035 89.3792 223.737 89.3206 223.44 89.3422C222.61 89.3422 222.183 89.6411 222.158 90.2388H221.229C221.299 89.1522 222.053 88.6089 223.49 88.6089C224.161 88.6089 224.684 88.7434 225.059 89.0124C225.434 89.2814 225.622 89.8102 225.622 90.599V94.0187H224.695L224.69 93.476ZM224.69 92.6274V91.4555H224.056C222.706 91.4555 222.032 91.8264 222.033 92.5682C222.027 92.6885 222.051 92.8084 222.103 92.9169C222.154 93.0254 222.232 93.119 222.329 93.1894C222.564 93.3438 222.841 93.4194 223.121 93.4055C223.429 93.4055 223.734 93.3337 224.01 93.1958C224.282 93.0698 224.517 92.8738 224.69 92.6274Z" fill="white"/>
<path d="M229.805 86.7086H232.498C232.999 86.6959 233.499 86.7498 233.986 86.8687C234.383 86.978 234.724 87.237 234.937 87.5923C235.17 87.964 235.292 88.3961 235.287 88.8363C235.287 89.5749 235.055 90.1352 234.592 90.5173C234.128 90.8994 233.457 91.0905 232.578 91.0905H230.757V94.0123H229.806L229.805 86.7086ZM230.755 90.2307H232.587C233.204 90.2307 233.641 90.1139 233.902 89.8817C234.037 89.7535 234.142 89.5967 234.21 89.4226C234.278 89.2486 234.307 89.0614 234.295 88.8747C234.3 88.5995 234.225 88.3289 234.078 88.0966C233.956 87.8877 233.759 87.734 233.528 87.6675C233.213 87.5985 232.891 87.5685 232.568 87.5779H230.757L230.755 90.2307Z" fill="white"/>
<path d="M239.739 93.476C239.239 93.9312 238.582 94.1708 237.909 94.1436C237.444 94.1621 236.989 94.0109 236.625 93.7177C236.464 93.5857 236.334 93.4179 236.247 93.2271C236.159 93.0364 236.116 92.8279 236.122 92.6178C236.122 91.3819 237.178 90.7634 239.291 90.7623H239.744C239.752 90.4862 239.733 90.2099 239.685 89.9378C239.662 89.8477 239.62 89.7635 239.563 89.6903C239.506 89.6171 239.435 89.5564 239.354 89.5119C239.086 89.3793 238.788 89.3208 238.49 89.3422C237.661 89.3422 237.233 89.6411 237.207 90.2388H236.28C236.349 89.1522 237.102 88.6089 238.54 88.6089C239.211 88.6089 239.735 88.7434 240.11 89.0124C240.485 89.2814 240.672 89.8102 240.672 90.599V94.0187H239.744L239.739 93.476ZM239.739 92.6274V91.4555H239.105C237.755 91.4555 237.081 91.8264 237.082 92.5682C237.076 92.6883 237.1 92.8081 237.151 92.9165C237.203 93.025 237.28 93.1188 237.376 93.1894C237.612 93.3433 237.889 93.4188 238.169 93.4055C238.477 93.4055 238.781 93.3337 239.058 93.1958C239.331 93.0707 239.566 92.8746 239.739 92.6274Z" fill="white"/>
<path d="M246.198 94.0187H241.559V93.2182L244.821 89.5231H241.75V88.7226H246.029V89.5231L242.766 93.2182H246.192L246.198 94.0187Z" fill="white"/>
</g>
<defs>
<clipPath id="clip0_157_185068">
<rect width="214.2" height="72" fill="white" transform="translate(32 24.0552)"/>
</clipPath>
</defs>
</svg>
