<svg width="224" height="121" viewBox="0 0 224 121" fill="none" xmlns="http://www.w3.org/2000/svg">
<g clip-path="url(#clip0_157_185236)">
<path d="M90.4594 24.0552C90.9214 24.3008 91.3213 24.602 91.479 25.1342C91.6514 25.7187 91.4937 26.221 91.1067 26.6745C89.5639 28.4937 88.025 30.3147 86.4903 32.1373C83.6936 35.4398 80.899 38.7428 78.1064 42.0464C77.8288 42.375 77.5142 42.5941 77.0669 42.4794C76.6885 42.3818 76.3903 42.1277 76.3946 41.7435C76.4086 41.4245 76.5158 41.1165 76.7031 40.857C78.5847 38.2899 80.487 35.7424 82.3841 33.189C84.4527 30.4062 86.5127 27.6192 88.5968 24.8493C88.8338 24.5344 89.2001 24.3179 89.5113 24.0552H90.4594Z" fill="white"/>
<path d="M32.3086 28.3294C32.468 27.7407 32.7525 27.2538 33.3817 27.0587C34.0661 26.8456 34.6142 27.0587 35.0642 27.591C36.3725 29.1398 37.6841 30.6875 38.9988 32.234C42.3643 36.2148 45.729 40.1964 49.0928 44.1788C49.2281 44.3397 49.3746 44.5211 49.4298 44.7136C49.4836 44.8797 49.4747 45.0595 49.4048 45.2195C49.3348 45.3795 49.2086 45.5087 49.0497 45.583C48.7049 45.7696 48.3524 45.7362 48.0662 45.4427C47.3982 44.7581 46.7363 44.065 46.0726 43.3745L37.5844 34.5324C35.9821 32.863 34.3703 31.2003 32.787 29.5129C32.5577 29.2681 32.4646 28.8976 32.3086 28.5861V28.3294Z" fill="white"/>
<path d="M32.3103 88.0817C32.4146 87.5195 32.7766 87.1336 33.18 86.757C38.0171 82.2406 42.8499 77.7228 47.6784 73.2035C48.6075 72.3353 49.5369 71.4673 50.4667 70.5996C50.8537 70.2393 51.2424 70.1974 51.5174 70.4789C51.7923 70.7605 51.7509 71.1182 51.3984 71.4921C49.2246 73.8002 47.05 76.1075 44.8745 78.4139C41.5372 81.96 38.2001 85.5063 34.8633 89.0529C34.4513 89.4919 33.9514 89.657 33.3843 89.503C32.8344 89.3541 32.4715 88.9896 32.3767 88.4C32.3612 88.3474 32.3383 88.2973 32.3086 88.2511L32.3103 88.0817Z" fill="white"/>
<path d="M43.8516 24.0552C44.3421 24.3059 44.6351 24.7149 44.879 25.1984C47.5269 30.4593 50.1807 35.7165 52.8406 40.9699C52.9518 41.1907 53.0544 41.4543 53.0397 41.6904C53.0156 42.0601 52.7578 42.3117 52.3812 42.3844C51.9821 42.4614 51.6917 42.286 51.4882 41.9446C50.5924 40.4231 49.6963 38.9023 48.7999 37.3819C46.6451 33.7247 44.4903 30.0708 42.3553 26.4024C42.1527 26.0517 42.0413 25.6565 42.0312 25.2523C42.0312 24.6533 42.4751 24.3025 42.9897 24.0543L43.8516 24.0552Z" fill="white"/>
<path d="M79.1735 24.0552C79.3907 24.2315 79.651 24.3744 79.8157 24.5891C80.1915 25.0786 80.1604 25.604 79.8846 26.1499C78.1401 29.5842 76.3984 33.0213 74.6597 36.4612C74.158 37.4538 73.6598 38.4439 73.1565 39.4331C72.8626 40.0107 72.398 40.2118 71.9007 39.9859C71.418 39.7668 71.2663 39.2636 71.5197 38.6715C73.478 34.1009 75.4363 29.5306 77.3945 24.9605C77.5816 24.5224 77.9057 24.2563 78.3125 24.0552H79.1735Z" fill="white"/>
<path d="M32.3086 77.3965C32.4586 76.854 32.837 76.5348 33.3179 76.261C38.1395 73.5159 42.9553 70.763 47.7654 68.0025C48.2205 67.7458 48.5592 67.7869 48.7851 68.1249C49.023 68.4817 48.9221 68.8334 48.4774 69.1261C43.7627 72.2386 39.0468 75.3476 34.3298 78.4533C33.4756 79.0155 32.7413 78.71 32.3086 77.6523V77.3965Z" fill="white"/>
<path d="M53.3279 24.0552C53.889 24.329 54.1209 24.8082 54.2588 25.3909C55.3081 29.8406 56.3659 34.2877 57.4324 38.7323C57.5229 39.1156 57.5867 39.5418 57.2014 39.7813C56.9764 39.9217 56.6075 40.003 56.3757 39.9183C56.1438 39.8335 55.9102 39.5358 55.831 39.2833C54.6381 35.4763 53.471 31.6607 52.2971 27.8477C52.1178 27.2641 51.94 26.6799 51.7635 26.0952C51.43 24.9956 51.5127 24.726 52.379 24.0552H53.3279Z" fill="white"/>
<path d="M32.3086 40.1262C32.3363 40.0786 32.3594 40.0284 32.3775 39.9765C32.6361 38.9993 33.5894 38.657 34.4169 39.2654C37.4238 41.4777 40.4279 43.6945 43.4291 45.9159C44.4404 46.6638 45.4532 47.4114 46.4674 48.1587C46.7423 48.3615 46.8983 48.62 46.8276 48.9665C46.757 49.3131 46.5372 49.5578 46.1967 49.5758C45.944 49.5769 45.6965 49.5036 45.4856 49.3653C42.6551 47.5523 39.8303 45.7308 37.0112 43.9007C35.7614 43.0938 34.5211 42.2749 33.2567 41.4877C32.7818 41.1933 32.437 40.8416 32.3086 40.2974V40.1262Z" fill="white"/>
<path d="M70.0445 24.0552C70.9142 24.6798 71.0056 24.9434 70.7453 26.0344C69.7903 30.0374 68.8364 34.0407 67.8837 38.0443C67.7501 38.6048 67.3243 38.9222 66.8373 38.8255C66.3124 38.7203 66.0547 38.2958 66.1599 37.6891C66.8787 33.5201 67.6062 29.352 68.3147 25.1804C68.4086 24.6259 68.7456 24.3145 69.1844 24.0552H70.0445Z" fill="white"/>
<path d="M61.6846 24.0552C62.3155 24.3658 62.562 24.851 62.5577 25.5646C62.5336 29.6626 62.5465 33.7606 62.5448 37.8586C62.5448 38.4242 62.2207 38.7562 61.6897 38.7579C61.1812 38.7579 60.858 38.4336 60.8278 37.9022C60.8054 37.5197 60.7709 37.1372 60.7459 36.7547C60.5782 34.146 60.4112 31.5372 60.2452 28.9284C60.1754 27.822 60.1357 26.713 60.0435 25.6091C59.9831 24.8784 60.2486 24.3701 60.9106 24.0577L61.6846 24.0552Z" fill="white"/>
<path d="M32.3073 69.3606C32.465 68.7616 32.8822 68.4938 33.47 68.3218C37.4607 67.1554 41.4428 65.9592 45.4283 64.7731C45.5378 64.7406 45.6464 64.7021 45.7575 64.6782C46.1506 64.5926 46.4876 64.7637 46.5988 65.0863C46.7315 65.4757 46.5781 65.8299 46.1678 65.9857C45.3145 66.3126 44.4535 66.6223 43.595 66.9364L34.0932 70.4114C33.1132 70.7699 32.6667 70.5714 32.3047 69.6173L32.3073 69.3606Z" fill="white"/>
<path d="M32.3081 48.5891C32.3646 48.4153 32.4355 48.2464 32.5202 48.0842C32.8279 47.5948 33.3726 47.4853 34.0389 47.7711C36.8372 48.969 39.6353 50.167 42.4331 51.365C43.1951 51.691 43.9578 52.0145 44.7172 52.3465C45.2094 52.5622 45.3861 52.9361 45.2154 53.3665C45.0585 53.761 44.6569 53.9159 44.1673 53.7422C40.4898 52.4398 36.8122 51.1357 33.1347 49.8299C32.6813 49.6699 32.4641 49.3353 32.3047 48.928L32.3081 48.5891Z" fill="white"/>
<path d="M32.3081 62.4405C32.5202 61.7721 32.9615 61.5171 33.6812 61.4821C37.2004 61.3109 40.7179 61.085 44.2354 60.8831C44.3215 60.8779 44.4078 60.8779 44.494 60.8831C44.9077 60.9062 45.1723 61.1629 45.1835 61.5497C45.1973 61.9219 44.9396 62.2214 44.5379 62.2702C42.1648 62.5594 39.7916 62.8446 37.4185 63.1259C36.2247 63.2688 35.0309 63.4151 33.8363 63.5537C32.8882 63.6641 32.6615 63.5221 32.3047 62.6125L32.3081 62.4405Z" fill="white"/>
<path d="M32.3086 55.766C32.6706 54.8854 32.9671 54.7297 33.9264 54.8974C37.2649 55.4787 40.6034 56.0586 43.9419 56.6371C44.5341 56.7397 44.7987 57.0564 44.7099 57.5561C44.6384 57.954 44.2789 58.1482 43.7437 58.0892C40.7965 57.7657 37.8499 57.4437 34.9038 57.1231C34.3772 57.0658 33.8497 57.011 33.3239 56.9451C32.7275 56.8698 32.4448 56.4736 32.3086 55.9371V55.766Z" fill="white"/>
<path d="M145.973 60.9242C146.092 60.9165 146.188 60.9053 146.286 60.9053C148.295 60.9053 150.308 60.8198 152.311 60.9242C155.294 61.0799 157.476 62.6082 158.836 65.2027C161.186 69.6883 158.587 75.2367 153.628 76.3979C153.056 76.5262 152.471 76.5924 151.884 76.5956C150.019 76.6204 148.152 76.605 146.287 76.6041C146.19 76.6041 146.092 76.5887 145.973 76.5784V60.9242ZM150.073 73.0752C151.969 73.2001 153.651 72.904 154.742 71.2097C155.71 69.7063 155.644 67.5242 154.595 66.0918C153.47 64.5515 151.856 64.2854 150.073 64.4248V73.0752Z" fill="white"/>
<path d="M178.266 76.5972V60.9002H178.717C180.512 60.9002 182.306 60.9378 184.099 60.8925C187.374 60.8069 190.397 63.0275 191.512 66.0216C193.225 70.6313 190.296 75.6705 185.414 76.5057C185.074 76.5624 184.73 76.591 184.386 76.5913C182.362 76.6007 180.34 76.5972 178.266 76.5972ZM182.38 73.076C184.334 73.1984 186.047 72.8706 187.12 71.0891C188.032 69.5702 187.889 67.359 186.82 65.9745C185.807 64.6619 184.078 64.1895 182.382 64.4633L182.38 73.076Z" fill="white"/>
<path d="M139.386 70.1718L144.293 76.5699C144.098 76.587 143.981 76.605 143.862 76.605C142.427 76.605 140.991 76.5981 139.552 76.6135C139.266 76.6135 139.116 76.51 138.971 76.2832C137.866 74.5539 136.749 72.8313 135.636 71.1071C135.562 70.9924 135.482 70.882 135.332 70.6638V76.581H131.238V60.9327C131.352 60.9242 131.474 60.9053 131.597 60.9053C133.692 60.9053 135.789 60.8634 137.884 60.9156C139.889 60.9661 141.515 61.7362 142.351 63.6701C142.91 64.9631 142.919 66.3091 142.462 67.6303C141.971 69.0499 140.857 69.7918 139.386 70.1718ZM135.369 64.0167V67.9418C135.918 67.899 136.436 67.8922 136.941 67.8109C137.889 67.6577 138.503 67.0014 138.534 66.1731C138.575 65.0872 138.11 64.424 137.056 64.193C136.518 64.0749 135.955 64.074 135.369 64.0167Z" fill="white"/>
<path d="M176.49 76.6067H175.425C174.435 76.6067 173.443 76.5998 172.453 76.611C172.215 76.611 172.101 76.5459 172.022 76.3098C171.793 75.5927 171.52 74.8901 171.292 74.1705C171.216 73.9326 171.103 73.8633 170.866 73.8642C169.157 73.8727 167.448 73.8727 165.74 73.8642C165.472 73.8642 165.372 73.96 165.294 74.2064C165.064 74.9227 164.811 75.632 164.545 76.3363C164.503 76.4492 164.347 76.593 164.242 76.5981C162.907 76.6118 161.57 76.6024 160.237 76.5981C160.213 76.5981 160.19 76.5733 160.133 76.54C160.174 76.4039 160.209 76.2567 160.262 76.1121C162.149 71.1593 164.034 66.2064 165.92 61.2536C166.012 61.0106 166.11 60.8934 166.398 60.8976C167.662 60.9147 168.925 60.9113 170.191 60.8976C170.441 60.8976 170.57 60.9644 170.662 61.2074C172.558 66.2156 174.461 71.2226 176.371 76.2285C176.41 76.332 176.438 76.4381 176.49 76.6067ZM166.514 70.7152H170.086L168.299 65.6263C167.685 67.3745 167.108 69.0183 166.514 70.7152Z" fill="white"/>
<path d="M109.555 70.3763C110.079 69.0594 110.568 67.834 111.058 66.6112C111.77 64.8296 112.488 63.0506 113.188 61.2639C113.291 61.0029 113.407 60.8934 113.706 60.8985C114.941 60.9182 116.175 60.9062 117.412 60.907C117.521 60.907 117.631 60.919 117.794 60.9284C117.391 61.8928 117.007 62.8204 116.615 63.7463C114.863 67.8959 113.112 72.0469 111.364 76.1994C111.234 76.5066 111.082 76.6272 110.735 76.6161C109.917 76.5862 109.097 76.5981 108.281 76.6161C108.034 76.6161 107.893 76.5545 107.793 76.3158C105.684 71.2813 103.571 66.2484 101.453 61.2168C101.419 61.1159 101.39 61.013 101.367 60.9088C102.791 60.9088 104.182 60.8985 105.573 60.925C105.7 60.925 105.879 61.1407 105.941 61.2921C106.958 63.8241 107.96 66.3622 108.966 68.8985C109.15 69.3563 109.332 69.8184 109.555 70.3763Z" fill="white"/>
<path d="M119.434 60.9267H128.318V64.3855H123.554V66.9526H128.089V67.8314C128.089 68.5716 128.074 69.3126 128.096 70.0562C128.105 70.3788 128 70.4704 127.68 70.4653C126.474 70.449 125.267 70.4584 124.06 70.4584H123.554V73.1025H128.343V75.4874C128.343 76.6135 128.343 76.6135 127.2 76.6135H119.434V60.9267Z" fill="white"/>
<path d="M40.5717 96.0466C40.0054 96.0466 39.5753 95.8079 39.3021 95.3184C39.0108 94.7956 39.059 94.2787 39.384 93.7867C40.3281 92.3605 41.2736 90.9344 42.2206 89.5082L53.4454 72.5755C53.52 72.454 53.6011 72.3366 53.6884 72.2238C53.9211 71.9422 54.2133 71.8815 54.5262 72.0672C54.8391 72.2529 54.8649 72.5506 54.7408 72.8536C54.642 73.0589 54.5297 73.2575 54.4047 73.4483C50.2508 80.6693 46.0983 87.8912 41.9473 95.1139C41.6353 95.659 41.2414 96.0423 40.5717 96.0466Z" fill="white"/>
<path d="M50.408 96.0543C49.4151 96.068 48.8427 95.2251 49.2013 94.2573C50.3758 91.041 51.5538 87.8261 52.7352 84.6127C54.101 80.8909 55.4669 77.1694 56.8327 73.4483C56.9594 73.106 57.1456 72.8613 57.543 72.9075C57.9403 72.9537 58.1334 73.2994 58.0032 73.7418C57.3011 76.1241 56.5969 78.5066 55.8907 80.8895C54.4944 85.5999 53.096 90.31 51.6957 95.0198C51.488 95.7206 51.0837 96.0449 50.408 96.0543Z" fill="white"/>
<path d="M81.8404 46.1255C81.3284 46.1255 80.9026 45.8132 80.7733 45.4204C80.6388 45.0131 80.8069 44.7128 81.1181 44.4501C83.7354 42.2538 86.3499 40.0546 88.9616 37.8526C90.1544 36.8497 91.3479 35.8474 92.542 34.8456C93.2625 34.2415 94.1279 34.2851 94.6718 34.9492C95.1941 35.5875 95.0441 36.4834 94.3003 37.0328C90.3107 39.9833 86.3172 42.9295 82.3196 45.8714C82.1683 45.9709 82.0078 46.056 81.8404 46.1255Z" fill="white"/>
<path d="M83.5913 78.3463C83.837 78.4704 84.1171 78.5551 84.3248 78.7254C87.6858 81.4825 91.0409 84.2461 94.3903 87.0163C95.0859 87.5914 95.1833 88.5412 94.6205 89.1719C94.0421 89.8196 93.1009 89.8513 92.4407 89.2343C89.2797 86.2759 86.1191 83.3174 82.9587 80.3589C82.6872 80.1022 82.4924 79.8301 82.5088 79.4348C82.5329 78.8383 82.9492 78.4242 83.5913 78.3463Z" fill="white"/>
<path d="M86.0842 96.0457C85.8455 96.0483 85.6103 95.9893 85.4015 95.8745C85.1927 95.7598 85.0175 95.5932 84.893 95.3911C82.652 92.0179 80.4156 88.6419 78.1838 85.263C78.1009 85.1459 78.0425 85.0134 78.0122 84.8734C77.982 84.7334 77.9804 84.5888 78.0075 84.4482C78.0347 84.3076 78.0901 84.1739 78.1705 84.0549C78.2508 83.936 78.3544 83.8344 78.4751 83.7561C78.9725 83.407 79.5956 83.5105 79.9912 84.0325C82.246 86.9989 84.4974 89.9677 86.7453 92.9387C86.9607 93.2228 87.1883 93.5 87.3831 93.7944C87.708 94.2933 87.7046 94.8212 87.4107 95.3278C87.1167 95.8344 86.6634 96.0552 86.0842 96.0457Z" fill="white"/>
<path d="M125.609 48.6636C126.096 51.4284 126.583 54.1932 127.083 57.029C126.694 57.029 126.341 57.047 125.994 57.0144C125.915 57.0076 125.807 56.8322 125.789 56.7218C125.577 55.4613 125.381 54.1992 125.177 52.9379C125.154 52.789 125.11 52.6435 125.056 52.4133C124.288 54.0922 123.553 55.7009 122.772 57.4098C122.019 55.7129 121.302 54.1025 120.531 52.3697C120.37 53.2639 120.23 54.0289 120.093 54.7947C119.976 55.4511 119.872 56.1108 119.734 56.7629C119.709 56.8258 119.67 56.882 119.619 56.9267C119.568 56.9714 119.507 57.0033 119.442 57.0196C119.132 57.0538 118.817 57.0316 118.43 57.0316C118.982 54.2077 119.525 51.4335 120.067 48.6593L120.154 48.6499C121.024 50.618 121.895 52.5802 122.791 54.6031C123.724 52.5716 124.626 50.6069 125.528 48.6414L125.609 48.6636Z" fill="white"/>
<path d="M61.253 74.3108C61.1191 76.7387 60.9852 79.1661 60.8513 81.5929C60.7513 83.4378 60.6539 85.2835 60.5591 87.1302C60.5229 87.8258 60.5039 88.5224 60.4531 89.2172C60.4031 89.8924 59.8739 90.3485 59.2533 90.2809C58.6327 90.2133 58.2388 89.7041 58.3138 89.0341C58.5293 87.1139 58.7637 85.1954 58.9878 83.2761C59.2007 81.456 59.4084 79.635 59.6231 77.8141C59.7851 76.4449 59.948 75.0758 60.1238 73.7067C60.179 73.2788 60.4126 73.0914 60.766 73.1257C61.1194 73.1599 61.2788 73.4012 61.2633 73.8376C61.2581 73.9942 61.2633 74.1508 61.2633 74.3074L61.253 74.3108Z" fill="white"/>
<path d="M63.2327 73.3225C63.2111 72.9734 63.3456 72.7235 63.711 72.6799C64.0765 72.6362 64.2954 72.8099 64.3652 73.189C64.81 75.6329 65.2677 78.0734 65.7141 80.5173C66.1623 82.9749 66.6059 85.4333 67.045 87.8926C67.163 88.5481 66.8045 89.053 66.1572 89.1591C65.6012 89.2498 65.0651 88.8365 64.9841 88.2246C64.8789 87.422 64.8005 86.6159 64.7057 85.8107C64.4902 83.9766 64.273 82.1423 64.0541 80.3076C63.8352 78.473 63.6211 76.6384 63.412 74.8037C63.3542 74.31 63.2921 73.8162 63.2327 73.3225Z" fill="white"/>
<path d="M150.16 57.0024V48.6165C152.072 50.6129 153.918 52.5408 155.842 54.5483V49.1881H157.018V57.4774L151.365 51.5918V56.9999L150.16 57.0024Z" fill="white"/>
<path d="M140.486 53.1192C140.359 50.9004 142.403 48.9785 144.578 49.0118C146.832 49.0435 148.686 50.8208 148.691 53.0234C148.697 55.3689 146.899 57.1624 144.541 57.1642C142.286 57.1624 140.494 55.3757 140.486 53.1192ZM141.713 53.0944C141.713 54.6997 142.991 56.0184 144.551 56.0261C146.167 56.0346 147.477 54.7066 147.464 53.0739C147.451 51.4412 146.171 50.1414 144.573 50.1551C142.952 50.1688 141.711 51.4446 141.713 53.0944Z" fill="white"/>
<path d="M113.11 57.1616C110.83 57.1505 109.055 55.3646 109.047 53.0722C109.038 50.7977 110.896 49.0256 113.241 49.0102C115.381 48.9956 117.378 50.9492 117.27 53.281C117.177 55.404 115.355 57.1727 113.11 57.1616ZM110.275 53.0542C110.271 54.6715 111.568 56.0167 113.131 56.0252C114.737 56.0338 116.061 54.6955 116.047 53.0705C116.034 51.4455 114.736 50.1345 113.144 50.1534C112.377 50.1624 111.644 50.4727 111.107 51.0164C110.569 51.5602 110.27 52.2931 110.275 53.0551V53.0542Z" fill="white"/>
<path d="M72.0106 86.5423C71.5253 86.5423 71.2167 86.2984 71.0159 85.7516C70.0902 83.2302 69.1659 80.7084 68.2431 78.1863C67.5697 76.3466 66.8971 74.5065 66.2254 72.6662C66.2004 72.5994 66.178 72.5318 66.1538 72.4651C65.9745 71.9611 66.0573 71.671 66.4193 71.5401C66.7382 71.4245 66.9933 71.5965 67.2036 72.0715C67.5961 72.9563 67.9874 73.8405 68.3776 74.7241C69.8739 78.1196 71.3745 81.5125 72.8544 84.9156C72.9797 85.2104 73.02 85.5339 72.9707 85.85C72.8871 86.295 72.4674 86.5449 72.0106 86.5423Z" fill="white"/>
<path d="M94.983 45.7927C94.9606 46.437 94.6563 46.8195 94.1124 47.048C91.6416 48.0988 89.1708 49.1542 86.6999 50.2141C86.3845 50.3493 86.0724 50.4922 85.7518 50.6214C85.2036 50.8431 84.6632 50.6557 84.4408 50.1722C84.2098 49.6708 84.3969 49.1676 84.9399 48.8886C86.8275 47.9314 88.7165 46.9781 90.607 46.0289C91.45 45.601 92.2869 45.1672 93.1367 44.7564C94.0176 44.3363 94.9752 44.9079 94.983 45.7927Z" fill="white"/>
<path d="M162.141 49.0974C163.238 49.1701 164.327 49.1274 165.365 49.3362C167.17 49.7007 168.296 51.3565 168.189 53.2467C168.067 55.4005 166.711 56.8048 164.529 56.9759C163.748 57.0367 162.959 56.9853 162.141 56.9853V49.0974ZM163.347 55.8378C164.692 55.9508 165.887 55.7471 166.587 54.5106C167.173 53.4752 167.125 52.3936 166.433 51.4095C165.681 50.3399 164.531 50.2928 163.347 50.2971V55.8378Z" fill="white"/>
<path d="M76.985 82.7207C76.6118 82.7319 76.3471 82.5034 76.1282 82.1722C74.8009 80.1619 73.4698 78.1541 72.1349 76.1489C71.0093 74.45 69.8845 72.7506 68.7605 71.0506C68.7054 70.965 68.6467 70.8855 68.5942 70.8016C68.3563 70.4242 68.377 70.1282 68.6528 69.9373C68.9286 69.7465 69.2406 69.8415 69.4966 70.1786C70.3315 71.2814 71.1664 72.3849 72.0013 73.4894C73.9148 76.0143 75.8288 78.5386 77.7435 81.0624C78.0158 81.4192 78.1244 81.788 77.9064 82.209C77.7228 82.5616 77.4271 82.7207 76.985 82.7207Z" fill="white"/>
<path d="M86.6559 72.5737C86.835 72.6143 87.0105 72.6689 87.1808 72.7372C89.5063 73.8735 91.8291 75.0145 94.1494 76.16C94.9088 76.5348 95.1743 77.1586 94.9312 77.9655C94.7174 78.6723 93.8848 78.9522 93.1703 78.5466C92.0015 77.8825 90.8379 77.2108 89.6718 76.5425C88.5056 75.8742 87.3644 75.2196 86.2103 74.5598C85.8155 74.3339 85.6069 74.0165 85.6354 73.5467C85.6376 73.3679 85.6914 73.1934 85.7904 73.0441C85.8893 72.8947 86.0294 72.7766 86.1939 72.7038C86.3438 72.6472 86.4984 72.6037 86.6559 72.5737Z" fill="white"/>
<path d="M80.9255 78.1786C80.6953 78.0554 80.4247 77.9741 80.2359 77.8021C77.0365 74.8225 73.8454 71.8338 70.6626 68.836C70.493 68.675 70.378 68.4657 70.3333 68.237C70.3144 68.1155 70.5057 67.8665 70.6402 67.8391C70.8538 67.7998 71.0745 67.8453 71.2547 67.9657C72.2304 68.7359 73.1828 69.5377 74.143 70.3283C76.4702 72.2474 78.7974 74.1665 81.1246 76.0855C81.3069 76.223 81.4797 76.3725 81.6417 76.5331C81.7759 76.6644 81.8643 76.8348 81.8941 77.0195C81.9239 77.2043 81.8934 77.3936 81.8072 77.5599C81.6495 77.9039 81.3728 78.1136 80.9255 78.1786Z" fill="white"/>
<path d="M186.738 48.6302L190.514 57.0298C190.077 57.0298 189.709 57.0486 189.346 57.0178C189.243 57.0093 189.115 56.8741 189.064 56.7662C188.851 56.317 188.68 55.8481 188.46 55.4057C188.395 55.2756 188.202 55.1284 188.07 55.125C187.151 55.1005 186.233 55.1005 185.317 55.125C185.178 55.1293 184.988 55.2696 184.918 55.3988C184.688 55.8237 184.484 56.262 184.307 56.7115C184.204 56.9682 184.053 57.0538 183.79 57.0358C183.506 57.0178 183.22 57.0358 182.832 57.0358L186.738 48.6302ZM186.717 51.3924C186.306 52.2977 185.933 53.1158 185.554 53.9501H187.833L186.717 51.3924Z" fill="white"/>
<path d="M75.5642 95.9127C75.1212 95.9076 74.7084 95.6226 74.5041 95.0698C73.7657 93.0732 73.0334 91.072 72.307 89.0662C72.0804 88.4381 72.3657 87.9255 73.0474 87.6551C73.6042 87.4335 74.1335 87.6466 74.3886 88.2216C75.2591 90.1829 76.1288 92.145 76.9821 94.1132C77.3975 95.0784 76.7658 95.9598 75.5642 95.9127Z" fill="white"/>
<path d="M84.5402 71.9302C84.5402 72.7586 83.7895 73.1616 83.0948 72.7697C81.9743 72.1382 80.8607 71.4921 79.7445 70.8529L72.151 66.5034C72.0889 66.4674 72.0269 66.4315 71.9674 66.3913C71.7088 66.2201 71.5994 65.9899 71.7562 65.699C71.9131 65.4081 72.1708 65.3567 72.4544 65.4868C72.8965 65.687 73.3301 65.9061 73.7662 66.1209C77.126 67.7752 80.4875 69.4296 83.8507 71.084C84.2446 71.2799 84.5523 71.5238 84.5402 71.9302Z" fill="white"/>
<path d="M169.664 49.183H173.968V50.2894H170.865C170.865 50.867 170.848 51.3916 170.88 51.9153C170.885 52.0008 171.1 52.1403 171.225 52.1437C171.956 52.1651 172.69 52.1531 173.419 52.1557C173.573 52.1557 173.726 52.1677 173.899 52.1754V53.2784H170.892V55.8515H174.006C174.006 56.2058 174.024 56.5027 173.996 56.7928C173.988 56.8784 173.854 57.017 173.776 57.0178C172.417 57.0315 171.058 57.0281 169.669 57.0281L169.664 49.183Z" fill="white"/>
<path d="M85.0142 67.4994C84.7324 67.4198 84.36 67.3205 83.9911 67.211C80.3607 66.1317 76.7318 65.0495 73.1042 63.9644C72.9129 63.9071 72.681 63.7933 72.5871 63.635C72.3647 63.2542 72.6905 62.8589 73.1628 62.9504C73.9782 63.1036 74.785 63.2987 75.5935 63.4835C78.7992 64.2172 82.0041 64.9534 85.2082 65.6921C85.7589 65.8188 86.0899 66.2098 86.0382 66.6702C85.983 67.1622 85.5935 67.5105 85.0142 67.4994Z" fill="white"/>
<path d="M136.224 50.3545L135.393 50.8465C134.954 50.5949 134.61 50.3083 134.216 50.2021C133.957 50.132 133.588 50.2578 133.339 50.4092C132.827 50.7207 132.821 51.383 133.318 51.7321C133.593 51.9264 133.932 52.0308 134.235 52.1874C134.703 52.4287 135.205 52.6281 135.622 52.9387C136.466 53.5685 136.55 54.4713 136.311 55.4066C136.076 56.3264 135.217 57.0324 134.329 57.1308C132.691 57.3079 131.466 56.3649 131.398 54.8204L132.573 54.5526C132.612 54.7314 132.641 54.8803 132.677 55.0275C132.819 55.6265 133.252 55.9893 133.862 56.0227C134.136 56.0355 134.407 55.9587 134.632 55.8042C134.858 55.6496 135.027 55.4258 135.112 55.167C135.312 54.5919 135.145 54.0485 134.617 53.7174C134.294 53.5146 133.927 53.3751 133.583 53.2082C133.312 53.0782 133.027 52.9712 132.772 52.8172C131.904 52.2926 131.545 51.4917 131.761 50.6163C131.97 49.7726 132.809 49.1009 133.733 49.0187C134.835 48.9203 135.65 49.3481 136.224 50.3545Z" fill="white"/>
<path d="M84.9041 62.0126L78.1294 61.6104C76.5573 61.5171 74.986 61.4145 73.413 61.3332C73.0553 61.3152 72.8097 61.1894 72.8165 60.824C72.8278 60.433 73.1182 60.3192 73.4768 60.3192C75.8143 60.3152 78.1515 60.3086 80.4885 60.2995C82.0943 60.2935 83.6992 60.2781 85.3049 60.2764C85.9083 60.2764 86.2746 60.5613 86.322 61.0362C86.3823 61.6464 85.9772 62.0562 85.3334 62.0271C85.1903 62.0203 85.0481 62.01 84.9024 62.0006L84.9041 62.0126Z" fill="white"/>
<path d="M108.033 55.1481C108.033 55.6042 108.056 56.0038 108.018 56.3932C108.007 56.5173 107.855 56.673 107.727 56.7355C106.843 57.1798 105.826 57.2891 104.866 57.0429C103.906 56.7968 103.07 56.212 102.513 55.398C101.385 53.7627 101.651 51.4985 103.134 50.1054C103.741 49.5351 104.511 49.1647 105.338 49.0444C106.165 48.9242 107.01 49.0602 107.756 49.4337C107.966 49.5407 108.051 49.6571 108.038 49.889C108.018 50.2398 108.033 50.5915 108.033 51.0305C107.156 50.3459 106.252 49.9925 105.196 50.2518C104.567 50.4112 104.016 50.7887 103.642 51.3163C103.225 51.8828 103.019 52.576 103.06 53.2768C103.101 53.9776 103.387 54.6423 103.868 55.1567C104.896 56.2537 106.274 56.2648 108.033 55.1481Z" fill="white"/>
<path d="M73.0985 58.7703C72.7874 58.7832 72.5969 58.636 72.5538 58.3425C72.5021 57.9805 72.7469 57.8351 73.0503 57.7615C74.3564 57.446 75.663 57.1322 76.9703 56.8202L84.0975 55.1088C84.8681 54.9239 85.4007 55.2799 85.3775 55.9568C85.3619 56.3915 85.0861 56.6961 84.6017 56.7825C82.4607 57.1591 80.3191 57.5327 78.177 57.9035L73.4416 58.7276C73.3261 58.7413 73.2123 58.7541 73.0985 58.7703Z" fill="white"/>
<path d="M72.076 56.4214C71.9545 56.2922 71.714 56.1502 71.7148 56.0107C71.7148 55.813 71.8459 55.5281 72.0096 55.4357C72.7664 55.0078 73.5533 54.6313 74.3308 54.2377L82.0588 50.3416C82.5363 50.1003 82.7362 50.1525 83.0224 50.5984C83.0379 50.6223 83.0482 50.6488 83.0638 50.6737C83.5533 51.4678 83.5214 51.573 82.6483 51.9478C79.3023 53.382 75.9555 54.8144 72.6078 56.2452C72.4656 56.3059 72.3139 56.3436 72.076 56.4214Z" fill="white"/>
<path d="M87.8701 56.1938C87.2435 56.2007 86.8358 55.8567 86.7668 55.3381C86.6961 54.8341 87.0461 54.3968 87.6417 54.2514C89.1 53.9011 90.5587 53.5537 92.0176 53.2091C92.5348 53.0868 93.0459 52.9601 93.5622 52.848C94.2138 52.706 94.7956 53.0619 94.9413 53.6772C95.0964 54.3464 94.7741 54.9539 94.1113 55.0857C92.6951 55.3664 91.2669 55.5991 89.8491 55.8515C89.163 55.9722 88.4734 56.0911 87.8701 56.1938Z" fill="white"/>
<path d="M93.6626 70.0708L92.1378 69.6207C90.7958 69.2228 89.4504 68.8326 88.1127 68.4227C87.4843 68.2302 87.2146 67.6466 87.4533 67.0741C87.5424 66.8534 87.7086 66.672 87.9216 66.5632C88.1346 66.4544 88.3799 66.4256 88.6126 66.482C90.4528 66.8979 92.2921 67.318 94.1289 67.7561C94.721 67.8973 95.0606 68.4629 94.9701 69.0645C94.8796 69.6661 94.4349 70.0674 93.6626 70.0708Z" fill="white"/>
<path d="M70.1914 53.7978C70.3552 53.5976 70.4638 53.4162 70.6172 53.2844C72.7668 51.4686 74.9216 49.6565 77.0816 47.8481C77.5738 47.4348 78.065 47.0198 78.5589 46.6082C79.0063 46.2351 79.5251 46.2539 79.8518 46.6501C80.1785 47.0463 80.0794 47.5383 79.5958 47.8977C76.8032 49.9623 74.0074 52.0222 71.2085 54.0776C71.0156 54.1998 70.7855 54.2507 70.5586 54.2214C70.431 54.206 70.3353 53.9732 70.1914 53.7978Z" fill="white"/>
<path d="M76.1716 44.1865C76.0657 44.383 75.945 44.5712 75.8104 44.7496C74.259 46.5962 72.7012 48.4388 71.1371 50.2774C70.5648 50.9526 69.9968 51.6312 69.4227 52.3046C69.1452 52.6289 68.8418 52.6999 68.6151 52.4869C68.3358 52.2233 68.4427 51.9632 68.6375 51.6953C70.6487 48.9947 72.6561 46.2924 74.6597 43.5884C74.8787 43.294 75.1562 43.1605 75.5156 43.288C75.8751 43.4155 76.1457 43.626 76.1716 44.1865Z" fill="white"/>
<path d="M91.4785 60.2207C92.2543 60.2207 93.03 60.2096 93.8057 60.225C94.4367 60.237 94.8788 60.6323 94.9642 61.2176C95.0103 61.4797 94.9589 61.7494 94.8195 61.9766C94.6801 62.2038 94.4622 62.3729 94.2065 62.4524C94.0294 62.5061 93.8439 62.5267 93.6592 62.5132C92.0414 62.4276 90.4236 62.342 88.8066 62.2411C88.1731 62.2017 87.7947 61.8081 87.793 61.2442C87.7913 60.6803 88.1688 60.2952 88.8135 60.2789C89.7021 60.255 90.5916 60.2729 91.4803 60.2729L91.4785 60.2207Z" fill="white"/>
<path d="M71.7613 42.0943C71.7248 42.2126 71.6804 42.3284 71.6286 42.4409C70.192 45.2836 68.7535 48.1259 67.3129 50.968C67.1578 51.2761 66.9759 51.5294 66.5872 51.3377C66.2295 51.1623 66.2872 50.8722 66.4148 50.5675C67.679 47.6296 68.9405 44.6917 70.1995 41.7538C70.4012 41.284 70.6917 41.1342 71.1476 41.2403C71.5467 41.3353 71.7742 41.6151 71.7613 42.0943Z" fill="white"/>
<path d="M64.0007 50.1473C64.1886 49.0418 64.3765 47.9359 64.5644 46.8298C64.8994 44.8839 65.235 42.9383 65.5711 40.993C65.6573 40.4796 65.8892 40.2229 66.3201 40.2126C66.7511 40.2023 67.0666 40.4026 67.1467 40.797C67.1643 40.9216 67.1555 41.0483 67.1209 41.1693C66.4026 44.1928 65.6843 47.2163 64.9661 50.2398C64.8928 50.5478 64.7359 50.7472 64.4093 50.7018C64.1102 50.6625 63.968 50.4605 64.0007 50.1473Z" fill="white"/>
<path d="M182.196 57.0299C181.091 57.0299 180.018 57.0367 178.947 57.017C178.861 57.017 178.712 56.8339 178.706 56.7304C178.682 56.1913 178.694 55.6496 178.694 55.1096V49.1959H179.942V55.8515H182.196V57.0299Z" fill="white"/>
<path d="M62.5469 45.4675C62.5469 46.9607 62.5469 48.4548 62.5469 49.948C62.5469 50.2903 62.4719 50.553 62.066 50.5513C61.6859 50.5513 61.6152 50.2946 61.5954 49.9745C61.4075 47.0258 61.2153 44.0776 61.0187 41.13C60.9817 40.5814 61.2773 40.2255 61.7859 40.2135C62.2944 40.2015 62.5435 40.4882 62.5443 41.0692C62.5472 42.5382 62.5481 44.0043 62.5469 45.4675Z" fill="white"/>
<path d="M66.6737 90.5615C67.2193 90.5615 67.6029 90.8893 67.708 91.4506C67.9011 92.498 68.0942 93.5445 68.2804 94.5928C68.395 95.2388 67.9632 95.8883 67.3409 96.0218C66.6341 96.1733 65.9514 95.8019 65.8273 95.1122C65.6687 94.2325 65.5929 93.3383 65.4826 92.4501C65.4653 92.3089 65.4558 92.1668 65.4326 92.0222C65.286 91.1212 65.7584 90.559 66.6737 90.5615Z" fill="white"/>
<path d="M60.3014 50.6146C60.1488 50.743 60.0161 50.9338 59.8411 50.9868C59.5394 51.0784 59.3679 50.8756 59.2826 50.5966C58.9861 49.6183 58.6878 48.6408 58.3879 47.6641C57.8483 45.8997 57.3082 44.1355 56.7675 42.3716C56.6287 41.9181 56.7675 41.5861 57.1459 41.4132C57.6423 41.1864 58.0793 41.4329 58.2233 42.0276C58.4836 43.1041 58.7421 44.1806 58.999 45.257C59.392 46.9114 59.7836 48.5683 60.1738 50.2278C60.1962 50.3245 60.216 50.4212 60.2376 50.5179L60.3014 50.6146Z" fill="white"/>
<path d="M53.8242 43.4849C53.9397 43.585 54.2207 43.7219 54.3353 43.9435C55.5946 46.3831 56.8271 48.8347 58.0657 51.2838C58.2028 51.5542 58.2243 51.8254 57.9261 51.9889C57.6055 52.1652 57.39 51.9837 57.2279 51.7074C55.8489 49.3639 54.4715 47.0204 53.0959 44.6769C52.7658 44.1112 53.0778 43.4832 53.8242 43.4849Z" fill="white"/>
<path d="M49.8477 47.0377C50.0304 46.8401 50.1778 46.5953 50.395 46.4661C50.6889 46.295 50.9794 46.4268 51.1931 46.6766C51.8146 47.4031 52.4308 48.1313 53.0488 48.8638C54.1271 50.138 55.2088 51.4095 56.2767 52.6931C56.3896 52.8292 56.4965 53.0576 56.462 53.2108C56.3758 53.601 55.9587 53.6703 55.6639 53.3631C54.04 51.6757 52.4191 49.9865 50.8009 48.2956C50.5837 48.0689 50.3527 47.8532 50.1536 47.6111C50.0425 47.4733 49.9838 47.2945 49.8477 47.0377Z" fill="white"/>
<path d="M47.6836 50.5051C47.862 50.2638 47.9629 49.984 48.143 49.9181C48.3611 49.8376 48.7041 49.853 48.892 49.978C49.6315 50.4666 50.3306 51.0142 51.0468 51.5413C52.3474 52.5023 53.6515 53.4573 54.9401 54.4336C55.0927 54.5492 55.2521 54.7982 55.2332 54.9659C55.1883 55.3604 54.8884 55.4374 54.4954 55.1867C53.0266 54.2448 51.5614 53.2998 50.0996 52.3517C49.4626 51.9401 48.8162 51.5431 48.1947 51.1092C47.9965 50.974 47.8749 50.7413 47.6836 50.5051Z" fill="white"/>
<path d="M128.738 49.1838H129.883V57.0058H128.738V49.1838Z" fill="white"/>
<path d="M60.2288 93.4247C60.196 93.9382 60.1701 94.4473 60.1296 94.9573C60.0796 95.5683 59.5427 96.0406 58.904 96.0492C58.2653 96.0578 57.6352 95.57 57.6568 94.9496C57.6895 94.112 57.7811 93.2776 57.9309 92.4527C58.0266 91.9084 58.5877 91.6646 59.3203 91.7373C59.5652 91.7597 59.7936 91.8697 59.9629 92.0468C60.1322 92.2239 60.231 92.456 60.2408 92.7C60.2572 92.9404 60.2408 93.1826 60.2408 93.4247H60.2288Z" fill="white"/>
<path d="M137.844 49.1847H139.025V49.6545C139.025 51.9452 139.015 54.2351 139.035 56.5249C139.035 56.9408 138.919 57.0889 138.507 57.0384C138.286 57.025 138.065 57.025 137.844 57.0384V49.1847Z" fill="white"/>
<path d="M47.2554 53.4556C47.3537 53.4898 47.4761 53.5249 47.5933 53.5754C49.7731 54.5072 51.9546 55.4365 54.1292 56.3821C54.2896 56.4514 54.4792 56.6131 54.5188 56.7663C54.6162 57.1445 54.3146 57.3559 53.9069 57.213C52.6536 56.7731 51.4073 56.3222 50.1541 55.8764C49.1198 55.5067 48.0834 55.1382 47.0451 54.7708C46.7245 54.657 46.4969 54.4285 46.5676 54.1068C46.6167 53.8826 46.852 53.6943 47.0193 53.5026C47.0555 53.4616 47.1546 53.4735 47.2554 53.4556Z" fill="white"/>
<path d="M46.176 57.7812C46.176 57.3388 46.463 57.0846 46.8957 57.1599C49.1907 57.5592 51.4851 57.9629 53.779 58.3707C53.9393 58.399 54.1427 58.4606 54.2229 58.5761C54.2627 58.6478 54.2846 58.728 54.2869 58.8099C54.2891 58.8917 54.2716 58.973 54.2358 59.0467C54.1668 59.152 53.9427 59.2179 53.7945 59.2008C52.8964 59.1238 52 59.0245 51.1036 58.9235C49.653 58.7609 48.2032 58.5855 46.7517 58.4264C46.3466 58.3819 46.1691 58.1705 46.176 57.7812Z" fill="white"/>
<path d="M47.3922 61.9211C46.9466 61.9313 46.7026 61.7422 46.6708 61.37C46.6415 60.9806 46.8431 60.7402 47.2784 60.7068C48.392 60.6212 49.5065 60.5596 50.6218 60.492C51.6656 60.4296 52.7094 60.3731 53.7532 60.3149C53.8962 60.3063 54.0634 60.2584 54.1772 60.3149C54.335 60.3911 54.5427 60.5357 54.5608 60.6734C54.5772 60.7949 54.3815 61.0465 54.2496 61.0696C53.461 61.2057 52.6646 61.2955 51.869 61.3931C50.4486 61.5688 49.0278 61.7399 47.6068 61.9065C47.5361 61.9159 47.4637 61.9168 47.3922 61.9211Z" fill="white"/>
<path d="M48.5106 65.1454C48.3382 64.9485 48.0951 64.7774 48.0193 64.5464C47.9193 64.2477 48.1055 63.9901 48.4227 63.8917C49.1303 63.671 49.844 63.4639 50.5559 63.2542L54.5811 62.0605C54.6354 62.0451 54.6888 62.0237 54.744 62.01C55.0026 61.9484 55.2508 62.01 55.2706 62.283C55.281 62.4345 55.1129 62.6895 54.9646 62.7477C53.8088 63.2003 52.6374 63.6179 51.4721 64.0449C50.6545 64.3433 49.8359 64.6411 49.0165 64.9383C48.8829 64.987 48.7467 65.029 48.6123 65.0743L48.5106 65.1454Z" fill="white"/>
<path d="M49.8867 67.0416C50.0496 66.849 50.1505 66.6445 50.3177 66.5478C52.095 65.5124 53.8806 64.4916 55.6745 63.4853C55.8202 63.404 56.1563 63.4382 56.2615 63.5503C56.4787 63.7813 56.2813 63.9781 56.0589 64.1296C54.3515 65.2514 52.6509 66.3827 50.9322 67.4865C50.765 67.5935 50.4659 67.5935 50.2668 67.5276C50.1169 67.4788 50.0307 67.2427 49.8867 67.0416Z" fill="white"/>
<path d="M52.3203 69.0602C52.4324 68.8668 52.4832 68.7077 52.5892 68.6084C54.0329 67.2487 55.4793 65.8924 56.9454 64.5558C57.0548 64.4557 57.3617 64.4403 57.4927 64.5198C57.7289 64.6636 57.6211 64.881 57.4548 65.0572C56.1136 66.4777 54.7736 67.8996 53.4348 69.3229C53.2339 69.536 52.9986 69.69 52.7202 69.5172C52.5582 69.4171 52.4565 69.2211 52.3203 69.0602Z" fill="white"/>
<path d="M63.6644 59.1032C63.4756 58.9937 63.2498 58.9192 63.1059 58.7678C62.6956 58.3399 62.1483 58.4606 61.6716 58.4435C61.413 58.4349 61.1243 58.7404 60.883 58.9432C60.5235 59.2461 60.2607 59.6046 60.4201 60.1249C60.4261 60.1446 60.1986 60.2961 60.109 60.2712C59.8581 60.2079 59.784 59.5961 59.9607 59.4369C59.8745 59.3214 59.728 59.2119 59.7228 59.0946C59.7176 58.9612 59.8366 58.8234 59.9012 58.6873L59.9607 58.8302C59.932 58.6711 59.9032 58.5125 59.8745 58.3545L60.4951 58.4101C60.4546 58.3639 60.3417 58.2877 60.3081 58.185C60.2742 58.0339 60.2574 57.8795 60.2581 57.7247C60.3918 57.7603 60.5224 57.8067 60.6485 57.8633C60.7347 57.9078 60.7873 58.0002 60.9278 58.0344C60.8692 57.9215 60.7804 57.8137 60.7554 57.6921C60.7434 57.5432 60.7477 57.3935 60.7683 57.2455C60.9105 57.3233 61.0821 57.3747 61.1864 57.4868C61.3053 57.6143 61.3648 57.7974 61.5251 57.9275C61.4682 57.7426 61.3725 57.5595 61.3656 57.373C61.3605 57.2232 61.463 57.07 61.5182 56.9186C61.6259 57.0255 61.7828 57.1137 61.8319 57.242C61.9319 57.4988 61.9733 57.7837 62.1095 58.0481C62.0879 57.8085 62.0586 57.5689 62.0457 57.3285C62.0354 57.1351 61.9888 56.8741 62.2913 56.9006C62.3844 56.9083 62.5085 57.1453 62.5284 57.2891C62.5654 57.5681 62.5387 57.8547 62.599 58.1448C62.6378 57.8562 62.6954 57.5703 62.7714 57.2891C62.8068 57.1813 62.9766 57.118 63.0852 57.0324C63.1369 57.1471 63.2395 57.2669 63.23 57.3747C63.205 57.6391 63.1283 57.8984 63.1257 58.1833C63.2119 58.0028 63.2696 57.806 63.3843 57.6476C63.4748 57.5236 63.6696 57.343 63.7557 57.3713C64.0333 57.4637 63.9049 57.6844 63.8187 57.865C63.7243 58.0285 63.6618 58.2082 63.6342 58.3947C63.7282 58.2757 63.8023 58.1303 63.9212 58.0456C64.0402 57.9608 64.2203 57.9189 64.372 57.8599C64.3436 58.025 64.3419 58.2021 64.2798 58.3527C64.2177 58.5034 64.0945 58.6317 63.9979 58.7695L63.6644 59.1032Z" fill="white"/>
<path d="M54.9727 70.4233C55.0446 70.251 55.1267 70.083 55.2183 69.9202C56.2207 68.3996 57.2318 66.8841 58.2307 65.3618C58.3747 65.1428 58.5436 64.9922 58.7875 65.1291C59.0461 65.2737 58.972 65.5107 58.8496 65.7281C57.9213 67.3436 57.0033 68.9652 56.0483 70.5662C55.9501 70.7305 55.6277 70.846 55.4174 70.8341C55.2631 70.8264 55.1218 70.5697 54.9727 70.4233Z" fill="white"/>
<path d="M57.6992 71.149C57.7759 70.9188 57.8173 70.7836 57.8656 70.651L59.6213 65.859C59.7075 65.6246 59.7937 65.361 60.1169 65.462C60.4401 65.563 60.3617 65.8299 60.2893 66.0687C59.8026 67.7145 59.3142 69.3597 58.824 71.0044C58.7913 71.1131 58.7723 71.2611 58.6939 71.3124C58.5292 71.4211 58.312 71.5649 58.15 71.5315C57.9759 71.493 57.8363 71.2722 57.6992 71.149Z" fill="white"/>
<path d="M61.6782 66.4229C61.5926 67.9957 61.5064 69.5685 61.4196 71.1413C61.3981 71.5238 61.1929 71.7129 60.8482 71.665C60.5034 71.6171 60.3775 71.3749 60.4172 71.0506C60.6137 69.3608 60.8148 67.6711 61.0205 65.9814C61.0481 65.7546 61.08 65.4988 61.4041 65.521C61.7101 65.5424 61.6937 65.7777 61.6894 65.9976C61.6894 66.1397 61.6894 66.2817 61.6894 66.4255L61.6782 66.4229Z" fill="white"/>
<path d="M63.9424 70.8384C63.8183 70.9402 63.6614 71.1618 63.4597 71.2132C63.1658 71.2876 62.9753 71.0583 62.9322 70.7776C62.8529 70.2582 62.8004 69.7345 62.7418 69.2117C62.6133 68.0821 62.4918 66.9526 62.3582 65.8231C62.3306 65.592 62.3117 65.3807 62.6064 65.331C62.9012 65.2814 62.9555 65.4842 62.9977 65.7161C63.3003 67.3779 63.6097 69.0388 63.9424 70.8384Z" fill="white"/>
<path d="M65.5653 70.2359C65.4903 70.1683 65.2886 70.0699 65.2309 69.9176C64.6499 68.3962 64.0871 66.8684 63.5424 65.3344C63.501 65.2172 63.6484 65.0341 63.7087 64.8818C63.8587 64.9742 64.0862 65.0315 64.1474 65.165C64.693 66.3493 65.2093 67.5473 65.7334 68.7419C65.8592 69.0268 65.9963 69.3083 66.0997 69.6019C66.2152 69.9287 66.0092 70.2205 65.5653 70.2359Z" fill="white"/>
<path d="M68.0589 68.4039C67.9537 68.5339 67.877 68.7111 67.7477 68.765C67.6184 68.8189 67.4193 68.7872 67.278 68.7299C67.1737 68.688 67.1056 68.5493 67.0315 68.4432C66.2437 67.2549 65.4573 66.0655 64.6724 64.8749C64.6569 64.851 64.625 64.8279 64.625 64.8048C64.625 64.6276 64.625 64.4505 64.631 64.2734C64.8034 64.3264 65.0353 64.3273 65.1284 64.4445C65.6688 65.1085 66.1756 65.7991 66.6927 66.482C67.0642 66.9714 67.4366 67.4592 67.802 67.9529C67.8959 68.0985 67.9816 68.249 68.0589 68.4039Z" fill="white"/>
<path d="M69.536 66.7113C69.4119 66.8585 69.324 67.0587 69.2024 67.0818C69.1096 67.098 69.0144 67.0954 68.9226 67.0743C68.8308 67.0531 68.7442 67.0137 68.668 66.9586C68.0139 66.3835 67.3855 65.7786 66.7494 65.183C66.3331 64.7928 65.9047 64.4129 65.51 64.0004C65.4126 63.8986 65.3471 63.6521 65.404 63.5417C65.5263 63.303 65.7427 63.3988 65.9099 63.5366C67.0241 64.4539 68.1362 65.3747 69.2464 66.2988C69.3567 66.3904 69.4179 66.5401 69.536 66.7113Z" fill="white"/>
<path d="M70.1236 65.3071C69.9383 65.2146 69.8211 65.1642 69.7108 65.1008C68.5696 64.4471 67.4281 63.7927 66.2863 63.1378C66.0907 63.0257 65.883 62.9111 66.0054 62.6484C66.1277 62.3857 66.3501 62.4772 66.5518 62.5756C67.7697 63.1746 68.9936 63.7676 70.1995 64.394C70.3529 64.4736 70.4839 64.7363 70.4848 64.9186C70.4848 65.0486 70.2512 65.1787 70.1236 65.3071Z" fill="white"/>
<path d="M70.8297 63.2645C70.6048 63.214 70.4918 63.1952 70.3832 63.1627C69.1947 62.8093 68.0087 62.4499 66.8192 62.1025C66.5822 62.0332 66.346 61.9656 66.4322 61.6609C66.5141 61.3725 66.7554 61.453 66.9657 61.5009L70.7177 62.3566C70.9762 62.4174 71.2038 62.5509 71.1392 62.8418C71.1021 63.0112 70.9219 63.1464 70.8297 63.2645Z" fill="white"/>
<path d="M66.9239 59.8562C66.8661 59.7989 66.6713 59.6756 66.6886 59.6055C66.7248 59.4609 66.8523 59.2632 66.9808 59.229C67.8487 58.9962 68.727 58.8011 69.601 58.5932C69.9458 58.5076 70.2905 58.3775 70.6413 58.3638C70.8051 58.3579 71.0585 58.5495 71.118 58.7061C71.1568 58.8105 70.9456 59.134 70.8086 59.1579C69.5519 59.4112 68.284 59.6166 66.9239 59.8562Z" fill="white"/>
<path d="M69.0122 60.3594C69.6276 60.3594 70.243 60.3637 70.8584 60.3594C71.1618 60.3594 71.3756 60.4578 71.3557 60.7932C71.3359 61.1287 71.1256 61.2065 70.8231 61.1886C69.5672 61.1133 68.3114 61.0576 67.0573 60.9661C66.9099 60.9558 66.7763 60.7658 66.6367 60.6589C66.785 60.5596 66.9289 60.3825 67.0815 60.3756C67.7236 60.3414 68.3683 60.3602 69.0122 60.3594Z" fill="white"/>
<path d="M70.4632 56.9733C70.3916 57.0478 70.2908 57.2241 70.1486 57.2891C69.0798 57.7632 68.005 58.2244 66.9216 58.6634C66.7992 58.713 66.6087 58.5949 66.4492 58.5555C66.5199 58.4058 66.5492 58.1799 66.6664 58.1183C67.7007 57.5741 68.748 57.0538 69.7969 56.5386C70.1184 56.3803 70.4468 56.5592 70.4632 56.9733Z" fill="white"/>
<path d="M66.2044 57.7281C66.1113 57.6511 65.9803 57.5946 65.957 57.509C65.943 57.4507 65.9416 57.39 65.9527 57.3311C65.9638 57.2721 65.9873 57.2161 66.0217 57.1667C66.1581 57.0218 66.3076 56.8895 66.4682 56.7714C67.1577 56.1921 67.8472 55.6153 68.5299 55.0326C68.7617 54.8349 69.0065 54.7168 69.2358 54.9915C69.4849 55.2893 69.2987 55.505 69.041 55.6958C68.223 56.2948 67.4102 56.8998 66.5931 57.4979C66.4794 57.5817 66.3509 57.6425 66.2044 57.7281Z" fill="white"/>
<path d="M67.9611 53.9099C67.8907 54.0543 67.8098 54.1933 67.7189 54.3258C67.0879 55.0805 66.4596 55.837 65.8045 56.5712C65.7054 56.6824 65.4348 56.7637 65.3124 56.7081C65.0736 56.6002 65.165 56.3812 65.2951 56.2058C65.8985 55.3946 66.4915 54.5748 67.1147 53.779C67.2146 53.6523 67.4525 53.5719 67.6215 53.5805C67.7318 53.5864 67.8361 53.785 67.9611 53.9099Z" fill="white"/>
<path d="M66.2662 52.9583C66.2059 53.1244 66.18 53.221 66.1369 53.3092C65.7146 54.1444 65.3009 54.9838 64.8527 55.8053C64.7854 55.9294 64.5544 55.9653 64.3993 56.0423C64.357 55.8866 64.2364 55.7 64.2846 55.5785C64.6398 54.6843 65.0138 53.7961 65.4198 52.9258C65.4879 52.7804 65.7404 52.6529 65.9137 52.6452C66.0309 52.6375 66.1585 52.8565 66.2662 52.9583Z" fill="white"/>
<path d="M63.1133 55.2884C63.2857 54.2676 63.4339 53.3588 63.5994 52.4535C63.6459 52.1968 63.8278 52.041 64.0993 52.1112C64.3536 52.1797 64.4562 52.3679 64.3898 52.6383C64.1734 53.518 63.9769 54.4028 63.7416 55.2782C63.71 55.3526 63.6603 55.4181 63.597 55.4689C63.5337 55.5196 63.4587 55.5541 63.3788 55.5691C63.2762 55.5717 63.171 55.3552 63.1133 55.2884Z" fill="white"/>
<path d="M144.312 48.5044L143.781 48.0569L145.462 46.4037L146.416 47.0823L144.312 48.5044Z" fill="white"/>
<path d="M62.5451 53.7482C62.5451 54.176 62.5684 54.6039 62.5322 55.0317C62.5201 55.1704 62.3521 55.2953 62.2564 55.4271C62.1452 55.3073 61.9487 55.196 61.9375 55.0685C61.8599 54.2051 61.8228 53.3374 61.7711 52.4723C61.7547 52.2002 61.8634 52.0179 62.1521 52.0213C62.4408 52.0248 62.552 52.1925 62.5469 52.4706C62.54 52.8942 62.5451 53.3212 62.5451 53.7482Z" fill="white"/>
<path d="M61.3824 55.2653C61.3014 55.3458 61.21 55.5126 61.1049 55.522C60.9997 55.5315 60.7886 55.4194 60.7541 55.3175C60.4783 54.4986 60.2162 53.6737 59.9956 52.836C59.9646 52.7196 60.1525 52.4723 60.2947 52.4081C60.3912 52.3671 60.686 52.5151 60.717 52.6272C60.9566 53.4761 61.1514 54.3335 61.3824 55.2653Z" fill="white"/>
<path d="M63.3164 61.9964C63.3742 61.8766 63.4302 61.7559 63.4888 61.637C63.6543 61.3084 63.9525 61.0431 63.9266 60.6187C63.9266 60.5468 64.1956 60.3697 64.299 60.3962C64.592 60.4732 65.017 60.1326 65.1609 60.6392C65.1721 60.676 64.9937 60.8155 64.8937 60.8275C64.6989 60.8523 64.4972 60.8198 64.2835 60.8668C64.4197 60.9053 64.5714 60.919 64.6877 60.9892C64.8041 61.0594 64.9032 61.1929 65.0092 61.2973C64.8696 61.3435 64.7317 61.4213 64.5903 61.4273C64.449 61.4333 64.3197 61.3649 64.1542 61.3905C64.3024 61.4667 64.4697 61.5223 64.5929 61.6276C64.6688 61.6926 64.6791 61.8321 64.7196 61.9382C64.6007 61.9698 64.474 62.0417 64.3645 62.0238C64.224 61.9998 64.0964 61.9014 63.9335 61.8911C64.0352 61.981 64.1628 62.0554 64.2318 62.1658C64.3007 62.2762 64.299 62.4114 64.3292 62.5363C64.1904 62.532 64.0309 62.5697 63.9172 62.5149C63.7568 62.4371 63.631 62.2899 63.4862 62.1726L63.3164 61.9964Z" fill="white"/>
<path d="M60.2649 55.7523C60.2011 55.8224 60.1348 55.9593 60.0391 55.9842C59.9434 56.009 59.7572 55.9576 59.709 55.8798C59.278 55.1789 58.8471 54.4713 58.4618 53.7405C58.4075 53.6378 58.5394 53.3554 58.6635 53.2707C58.7497 53.2117 59.0608 53.3015 59.1203 53.4085C59.5064 54.1033 59.8529 54.8212 60.2098 55.5323C60.2347 55.6039 60.2532 55.6775 60.2649 55.7523Z" fill="white"/>
<path d="M57.5644 54.3523C57.6907 54.4333 57.8092 54.5255 57.9187 54.6278C58.3557 55.1327 58.7935 55.6367 59.2021 56.1681C59.2883 56.2785 59.2469 56.4856 59.265 56.6482C59.0926 56.6225 58.8564 56.6593 58.7521 56.5626C58.2574 56.0945 57.7868 55.5991 57.3343 55.0908C57.2891 55.0245 57.2577 54.95 57.242 54.8715C57.2263 54.793 57.2266 54.7122 57.2429 54.6338C57.2645 54.5269 57.4351 54.4567 57.5644 54.3523Z" fill="white"/>
<path d="M63.668 59.1032L64.0067 58.7771C64.105 58.7007 64.212 58.636 64.3256 58.5846C64.4955 58.5396 64.6683 58.5058 64.8428 58.4836C64.7778 58.6486 64.6988 58.8078 64.6066 58.9594C64.5282 59.0681 64.3946 59.1374 64.3127 59.2777C64.4489 59.2178 64.5799 59.1271 64.7212 59.1066C64.8479 59.0878 64.985 59.1468 65.1177 59.1725C65.0505 59.2923 65.0083 59.4395 64.91 59.525C64.8117 59.6106 64.6402 59.6645 64.5204 59.7946C64.6506 59.7681 64.779 59.709 64.9091 59.7244C65.0143 59.7338 65.1117 59.8228 65.2125 59.8767C65.1453 59.9828 65.1005 60.1463 65.0057 60.1822C64.8039 60.2523 64.5919 60.2892 64.3782 60.2918C64.1662 60.2995 63.7843 60.4783 63.9929 59.9495C64.0412 59.8262 63.8128 59.6072 63.7343 59.4198C63.6996 59.3172 63.6773 59.211 63.668 59.1032Z" fill="white"/>
<path d="M56.6807 55.7779C56.7841 55.8214 56.8838 55.8729 56.9789 55.932C57.4866 56.2999 58.0012 56.6619 58.4864 57.0581C58.5942 57.1437 58.5959 57.3627 58.6467 57.5202C58.4838 57.533 58.2804 57.6143 58.1641 57.5467C57.6099 57.2258 57.0686 56.8775 56.548 56.5053C56.4307 56.4197 56.3756 56.2032 56.3635 56.0424C56.3575 55.9166 56.4687 55.7856 56.5273 55.6556L56.6807 55.7779Z" fill="white"/>
<path d="M56.1391 57.2831C56.2324 57.3015 56.3245 57.3255 56.4149 57.355C56.9777 57.5938 57.5449 57.8222 58.0939 58.0884C58.2051 58.1423 58.243 58.3451 58.3146 58.4769C58.175 58.529 58.0112 58.6565 57.8983 58.6215C57.3018 58.4366 56.7114 58.227 56.1357 57.9857C56.0115 57.9343 55.9029 57.7221 55.8909 57.5758C55.8831 57.4774 56.065 57.3687 56.1391 57.2831Z" fill="white"/>
<path d="M57.9904 59.6868C57.3078 59.6081 56.7251 59.5619 56.1519 59.4583C56.0132 59.4335 55.9089 59.2179 55.7891 59.0904C55.9511 58.9963 56.1226 58.8097 56.2735 58.8251C56.8382 58.8878 57.3984 58.9858 57.9508 59.1186C58.0663 59.1452 58.2007 59.3266 58.2162 59.4506C58.2266 59.5311 58.0404 59.6389 57.9904 59.6868Z" fill="white"/>
<path d="M62.9035 62.2693C63.0164 62.5739 63.1543 62.8683 63.2302 63.1849C63.2595 63.3064 63.144 63.4621 63.1009 63.6016C62.9863 63.5229 62.8225 63.469 62.7682 63.3603C62.657 63.1404 62.6053 62.8914 62.4519 62.6758C62.5177 62.947 62.5655 63.2223 62.595 63.4998C62.601 63.6213 62.4812 63.7497 62.4183 63.8746C62.3131 63.789 62.1407 63.7171 62.1149 63.6119C62.0462 63.2789 61.9987 62.9419 61.9727 62.603C61.9785 62.5341 61.9959 62.4667 62.0244 62.4036C62.3476 62.5542 62.57 61.9612 62.9156 62.2856C62.9113 62.2804 62.9072 62.2749 62.9035 62.2693Z" fill="white"/>
<path d="M56.4105 60.836C56.345 60.771 56.1442 60.6649 56.1088 60.5168C56.0416 60.2336 56.2899 60.1686 56.5165 60.1532C57.0165 60.1181 57.5181 60.0727 58.018 60.0779C58.1568 60.0779 58.2938 60.2421 58.4309 60.3346C58.3042 60.4364 58.1895 60.6033 58.0482 60.6289C57.5526 60.7162 57.0518 60.7581 56.4105 60.836Z" fill="white"/>
<path d="M58.5716 60.8737C58.6448 60.931 58.8077 60.9986 58.8112 61.073C58.8155 61.1834 58.7345 61.3606 58.6388 61.3999C58.1416 61.6138 57.6332 61.8009 57.1158 61.9604C57.0063 61.9929 56.7934 61.8748 56.7202 61.7619C56.6779 61.6977 56.7891 61.4307 56.8839 61.3973C57.4218 61.2048 57.9725 61.0542 58.5716 60.8737Z" fill="white"/>
<path d="M59.427 61.7953C59.3667 61.8847 59.2952 61.9661 59.2141 62.0374C58.8469 62.3048 58.4663 62.5535 58.0738 62.7827C57.9523 62.8495 57.7506 62.7725 57.5859 62.7622C57.6463 62.5996 57.6583 62.3694 57.7756 62.2873C58.1496 62.03 58.5442 61.8036 58.9555 61.6104C59.0745 61.5531 59.2598 61.6327 59.4141 61.6498L59.427 61.7953Z" fill="white"/>
<path d="M58.7829 63.5529C58.6864 63.4904 58.5588 63.4536 58.5364 63.3817C58.5037 63.2747 58.4959 63.1002 58.5606 63.0343C58.8872 62.6966 59.2325 62.3772 59.5949 62.0776C59.6724 62.0134 59.8535 62.0691 59.9836 62.0691C59.9603 62.1931 59.9776 62.3506 59.906 62.4362C59.6423 62.7528 59.3535 63.0488 59.0657 63.3449C58.9779 63.4225 58.8833 63.4921 58.7829 63.5529Z" fill="white"/>
<path d="M59.6045 63.9721C59.5623 63.7616 59.458 63.5691 59.5183 63.463C59.7267 63.0903 59.9621 62.7331 60.2225 62.3942C60.2786 62.3181 60.4432 62.2855 60.5492 62.2984C60.5949 62.3044 60.6776 62.5072 60.6449 62.5705C60.4268 62.9847 60.1872 63.3886 59.9424 63.7882C59.9028 63.8481 59.8002 63.8677 59.6045 63.9721Z" fill="white"/>
<path d="M61.3022 62.6424C61.1643 63.0899 61.0583 63.4887 60.9101 63.872C60.8756 63.9576 60.6946 63.9918 60.5817 64.05C60.5239 63.9354 60.3955 63.8002 60.4214 63.7077C60.5398 63.3131 60.6819 62.9259 60.8472 62.5483C60.8808 62.4704 61.0445 62.3771 61.1057 62.3977C61.1962 62.4319 61.2471 62.5679 61.3022 62.6424Z" fill="white"/>
<path d="M61.8314 63.1499C61.8314 63.3475 61.871 63.5572 61.8176 63.7394C61.7805 63.8644 61.6124 63.9508 61.503 64.0543C61.4306 63.9345 61.2927 63.8122 61.297 63.6958C61.3143 63.3432 61.3607 62.9926 61.4357 62.6476C61.4538 62.556 61.5866 62.4875 61.6667 62.4088C61.7297 62.5004 61.8279 62.5842 61.8486 62.6844C61.8667 62.8389 61.8693 62.9948 61.8564 63.1499H61.8314Z" fill="white"/>
<path d="M63.3162 61.9963L63.4886 62.1718C63.611 62.3406 63.7186 62.5195 63.8101 62.7066C63.8523 62.8093 63.7972 62.9513 63.786 63.0762C63.661 63.0472 63.4912 63.0574 63.4205 62.9804C63.2335 62.7533 63.0592 62.5162 62.8982 62.2702C62.8982 62.2702 62.9102 62.2847 62.9111 62.2847C62.8215 61.8791 63.0387 61.8954 63.3162 61.9963Z" fill="white"/>
</g>
<defs>
<clipPath id="clip0_157_185236">
<rect width="159.692" height="72" fill="white" transform="translate(32.3086 24.0552)"/>
</clipPath>
</defs>
</svg>
