<svg width="341" height="121" viewBox="0 0 341 121" fill="none" xmlns="http://www.w3.org/2000/svg">
<g clip-path="url(#clip0_159_185500)">
<path d="M112.97 56.4717C112.966 55.3739 112.851 54.2761 112.783 53.1783C112.712 52.6231 112.644 52.0701 112.573 51.5149C112.573 51.4484 112.56 51.3839 112.531 51.3257C112.486 50.702 112.44 50.0803 112.392 49.4565C112.325 49.1093 112.259 48.7642 112.192 48.4169C112.043 47.9263 111.893 47.4356 111.741 46.9449L110.675 42.8136C110.483 42.4622 110.292 42.1087 110.101 41.7573C109.895 41.3415 109.687 40.9257 109.481 40.5098C109.394 40.304 109.309 40.0981 109.221 39.8923C108.818 39.123 108.417 38.3537 108.013 37.5823C107.674 36.9627 107.335 36.3431 106.996 35.7235C106.464 34.8981 105.963 34.0519 105.385 33.2597C105.084 32.8439 104.651 32.5258 104.277 32.164C102.562 33.1183 102.684 36.1789 103.847 37.4222C104.05 37.8339 104.254 38.2456 104.458 38.6573C105.154 40.1148 105.849 41.5744 106.545 43.0319C106.558 43.1005 106.549 43.167 106.516 43.2273C106.737 43.7679 106.959 44.3106 107.179 44.8512C107.258 45.0695 107.34 45.2857 107.419 45.504C108.837 52.3799 109.666 61.2725 106.354 67.7804C105.119 72.051 102.52 75.8892 99.6029 79.1889C96.8043 82.3534 93.5005 84.3619 90.205 86.886C90.1572 86.9317 90.1385 86.9879 90.151 87.0523C89.8391 87.15 89.5168 87.2228 89.2174 87.3517C87.8036 87.9651 86.396 88.5951 84.9863 89.2188C84.14 89.4642 83.2938 89.7095 82.275 90.0048V87.1188C80.7967 85.9753 78.1167 87.7925 77.0105 86.8319C76.2246 86.1499 76.4388 83.2557 76.3265 82.2265C77.416 81.7171 80.5077 80.9707 80.9173 79.8001C81.2833 78.7543 79.4099 76.1574 78.9587 75.2592C77.3578 75.7831 75.8982 76.3757 74.3824 77.1117C73.6547 76.0098 72.9395 74.9244 72.2284 73.8474C72.7794 73.1862 73.3886 72.4544 73.9978 71.7225C74.1912 71.5083 74.3824 71.2942 74.5758 71.08C74.5259 70.7973 74.4781 70.5166 74.4282 70.2338C74.4303 70.2338 74.4323 70.2338 74.4344 70.2338C73.5861 68.8491 72.3968 67.8615 70.8437 67.0714C69.9309 68.086 69.0535 69.0591 68.1782 70.03C67.8226 69.9656 67.4671 69.9011 67.1115 69.8367C66.1219 69.2732 65.1322 68.7098 64.0427 68.0902C64.2943 67.0568 64.5853 65.8613 64.8764 64.6658C65.3754 63.9484 65.128 63.4806 64.3649 63.2332C63.3628 62.9088 62.3481 62.6198 61.3397 62.3163C61.267 62.2664 61.1942 62.2165 61.1235 62.1687C59.1815 61.8006 59.4872 64.7073 58.8281 65.8343C57.8841 67.4456 56.62 66.8323 54.6926 66.7429C54.5678 66.3187 54.4452 65.8925 54.3204 65.4683C54.0314 64.437 53.7424 63.4058 53.4534 62.3745C52.3078 62.2456 49.6818 62.2269 48.6962 63.0336C47.8666 63.7135 48.1411 64.1023 48.3365 65.1835C48.4945 66.0567 49.3013 67.6431 48.8314 68.4041C48.4675 68.9925 46.2199 69.7535 45.5712 70.0924C45.041 69.2275 44.0846 66.7948 43.0762 66.3977C42.0179 65.9819 40.444 67.4539 39.5665 67.9904C38.0924 68.7056 37.5435 64.0108 37.2774 62.9962C36.7596 61.021 36.6869 58.6652 39.3628 58.4365C41.6229 58.4947 43.885 58.5779 46.1451 58.5966C47.0578 58.6049 47.9706 58.4677 48.8854 58.3991C50.5072 57.7275 52.2142 57.2493 53.6468 56.1931C55.2165 55.035 56.0295 53.4444 57.1876 51.9412C57.3165 51.6002 57.4433 51.2592 57.5723 50.9182C57.9216 50.1531 58.2729 49.3858 58.6222 48.6207C58.641 48.4856 58.6576 48.3504 58.6763 48.2153C58.7761 47.5832 58.9133 46.9553 58.9674 46.3211C59.1774 43.9322 59.2148 41.566 57.8322 39.437C57.7615 39.3018 57.6929 39.1667 57.6222 39.0315C57.2105 38.5533 56.7967 38.0751 56.385 37.5969C56.6657 38.5699 56.9485 39.543 57.2292 40.514C57.2292 40.5847 57.2271 40.6574 57.2271 40.7281C57.2687 40.7801 57.3103 40.8404 57.3519 40.909C57.4142 41.013 57.4725 41.1315 57.5307 41.2666C57.6055 41.4454 57.6762 41.6471 57.7344 41.8613C57.6762 41.6471 57.6076 41.4454 57.5307 41.2666C57.4745 41.1336 57.4142 41.013 57.3519 40.909C57.3103 40.8404 57.2687 40.7801 57.2271 40.7281C57.067 41.907 56.909 43.0859 56.7489 44.2627C56.7697 44.4707 56.7926 44.6786 56.8134 44.8865C56.4724 45.6163 56.1251 46.3419 55.7904 47.0738C55.622 47.4439 55.4764 47.8244 55.3205 48.1986C54.3495 49.0303 53.3806 49.862 52.4096 50.6916C51.7693 49.9119 52.7527 49.6104 52.8899 49.0615C53.4368 47.8784 53.9815 46.6933 54.5283 45.5103C54.5013 45.4479 54.4909 45.3834 54.4992 45.3169C54.888 43.7429 55.4245 42.2355 55.5056 40.6013C55.5742 39.2457 55.0377 37.5844 55.5326 36.3203C54.9712 35.0894 54.0106 33.6714 54.3329 32.2492C54.6635 30.7855 56.2832 29.5359 57.2375 28.463C57.2375 28.253 57.2396 28.043 57.2417 27.831C56.4744 26.912 54.7259 27.885 53.7944 28.0763C54.4161 26.9244 55.0918 26.0013 55.9318 24.995C55.8403 24.8764 55.7488 24.7579 55.6573 24.6394C52.2537 25.8038 48.8293 29.5213 46.1763 31.9415C42.9826 34.8565 40.0448 38.0605 37.5144 41.5723C37.2171 42.1212 36.9197 42.668 36.6224 43.2169C36.4395 43.4997 36.2586 43.7845 36.0756 44.0673C35.6494 44.9011 35.2252 45.7348 34.799 46.5686L33.5078 50.2965C33.302 51.2654 33.0961 52.2343 32.8924 53.2032C32.8487 53.6898 32.805 54.1763 32.7593 54.6649C31.8694 57.3616 32.7863 61.0916 33.3061 63.8071L33.2978 64.0191C34.0006 66.3104 34.7033 68.6037 35.4061 70.895C35.8781 70.737 36.1546 70.7183 36.3001 70.7993C36.1546 70.7183 35.876 70.7349 35.4061 70.895C35.6099 71.3774 35.8115 71.8576 36.0153 72.34C36.1005 72.681 36.1858 73.022 36.271 73.363C36.4852 73.7102 36.6993 74.0574 36.9135 74.4046C37.3772 75.1781 37.8429 75.9495 38.3066 76.7229C38.5166 77.066 38.7245 77.4091 38.9345 77.7542C40.4835 80.3012 42.3048 82.6257 44.5337 84.6155C44.8123 84.89 45.0909 85.1623 45.3695 85.4368C45.8519 85.8568 46.3322 86.2789 46.8146 86.6989C47.5776 87.3039 48.3407 87.9089 49.1058 88.514C50.212 89.2188 51.3181 89.9257 52.4242 90.6306C53.1852 91.0319 53.9462 91.4332 54.7071 91.8344C55.1251 92.0403 55.543 92.2482 55.9609 92.454C60.6141 94.1943 65.0407 95.9886 70.0848 96.0573C74.921 96.1217 79.4224 95.4085 84.1588 94.5436C86.3066 93.6579 88.4543 92.7701 90.6021 91.8843C90.9431 91.7346 91.2841 91.5849 91.6251 91.4373C95.0474 89.7844 98.0227 87.4848 100.744 84.8754C104.206 81.557 106.953 77.6835 109.078 73.3734C109.953 70.9241 110.88 68.4915 111.683 66.0172C112.043 64.909 112.161 63.7197 112.388 62.5679C112.456 62.0148 112.525 61.4638 112.596 60.9108C112.594 60.9108 112.592 60.9108 112.589 60.9108C112.656 60.3598 112.725 59.8067 112.791 59.2557C112.858 58.3284 112.98 57.4032 112.976 56.4759L112.97 56.4717ZM57.9174 43.219C57.9174 43.1067 57.9153 42.9924 57.907 42.8759C57.9153 42.9903 57.9195 43.1067 57.9174 43.219ZM72.559 89.8239C72.6235 89.9008 72.7045 89.9715 72.8023 90.0359C72.7025 89.9715 72.6235 89.9008 72.559 89.8239ZM47.0308 73.3671C46.8146 73.1363 46.5983 72.9035 46.3779 72.6685C46.5983 72.9035 46.8146 73.1343 47.0308 73.3671ZM58.2272 81.058C58.3353 81.293 58.4414 81.5279 58.5495 81.7629C58.4414 81.5279 58.3332 81.293 58.2272 81.058ZM51.3617 36.26C51.4075 36.2267 51.4511 36.1934 51.4927 36.1602C51.4511 36.1955 51.4075 36.2288 51.3617 36.26ZM51.0312 36.4596C51.1081 36.418 51.185 36.3764 51.2557 36.3307C51.1829 36.3764 51.1081 36.418 51.0312 36.4596ZM51.6799 35.9647C51.7152 35.919 51.7464 35.8712 51.7693 35.8192C51.7443 35.8691 51.7131 35.9169 51.6799 35.9647ZM44.8934 50.2154C44.2509 50.6375 43.5565 50.9764 42.8849 51.3548C42.2113 51.49 41.5397 51.6272 40.866 51.7644C40.8619 51.6937 40.8577 51.6251 40.8536 51.5544C41.8162 50.7207 42.7789 49.8849 43.7415 49.0511C44.5649 48.0198 45.3883 46.9886 46.2137 45.9552C46.353 45.7369 46.4923 45.5206 46.6316 45.3023C46.8354 44.822 47.0412 44.3418 47.245 43.8615C47.3926 43.6452 47.5402 43.4311 47.6878 43.2148C47.8895 42.6639 48.0912 42.1108 48.2929 41.5598C48.3656 41.487 48.4384 41.4163 48.5112 41.3436C48.5694 41.0005 48.6297 40.6554 48.6879 40.3123C48.8335 39.9006 48.9769 39.4889 49.1225 39.0773C49.1183 38.9359 49.1141 38.7924 49.11 38.651C49.11 38.651 49.1037 38.6448 49.0954 38.6386C49.1017 38.6448 49.11 38.651 49.11 38.651C49.1744 38.6344 49.2389 38.6302 49.3034 38.6386C49.3595 38.3412 49.4156 38.0439 49.4697 37.7466C49.5133 37.6738 49.557 37.599 49.6007 37.5262C49.6589 37.6156 49.715 37.705 49.7732 37.7944C49.8231 37.8027 49.8751 37.8069 49.9271 37.8069C49.8751 37.8069 49.8252 37.8006 49.7732 37.7944L49.6859 37.8152C49.6963 37.9524 49.7067 38.0876 49.7171 38.2248C49.7816 38.2248 49.846 38.229 49.9105 38.2373C49.8959 38.3516 49.8834 38.466 49.8689 38.5824C49.8356 38.5824 49.8044 38.5824 49.7712 38.5824C49.7504 38.466 49.7296 38.3516 49.7109 38.2352C49.6485 38.2352 49.5861 38.2373 49.5237 38.2477C49.451 38.3766 49.3782 38.5055 49.3054 38.6344C49.3054 38.6344 49.3034 38.6344 49.3013 38.6344C49.3013 38.6386 49.3013 38.6406 49.3013 38.6448C49.3013 38.6448 49.3034 38.6427 49.3054 38.6406C49.3075 38.6386 49.3096 38.6365 49.3096 38.6365C49.3179 38.7633 49.3262 38.8901 49.3325 39.017C50.1101 39.2561 49.9417 39.8923 49.9126 40.4516C49.8793 41.0961 49.8086 41.7386 49.7545 42.3811C49.4801 43.2834 49.2056 44.1879 48.9312 45.0903C47.9768 47.1091 46.7979 48.9575 44.8872 50.2113L44.8934 50.2154ZM53.6904 30.4694C53.1997 31.1805 52.7091 31.8895 52.2184 32.6006C52.2184 32.1203 52.2184 31.6421 52.2184 31.1618C52.6134 30.8458 53.0105 30.5318 53.4056 30.2158C53.5012 30.301 53.5969 30.3842 53.6925 30.4694H53.6904ZM36.375 70.8555C36.4124 70.9033 36.4332 70.9657 36.4374 71.0405C36.4332 70.9657 36.4145 70.9033 36.375 70.8555ZM63.5478 90.3457C63.4855 90.4081 63.4231 90.4601 63.3524 90.5017C63.421 90.458 63.4855 90.406 63.5478 90.3457C63.6414 90.2522 63.7308 90.1378 63.8285 90.0006C63.8971 89.8738 63.9678 89.749 64.0364 89.6222C62.9657 89.4954 62.687 88.9776 63.0156 87.5118C63.4958 85.3661 62.5269 83.7797 61.1256 82.3409C60.4997 81.8481 59.876 81.3554 59.2502 80.8626C58.9092 80.7337 58.5703 80.6048 58.2293 80.4759C57.2042 80.4634 56.1771 80.4093 55.1542 80.4592C54.7903 80.4759 54.4389 80.7399 54.0813 80.8917C53.732 81.1495 52.9544 81.8918 52.2225 82.4157C52.2142 82.4157 52.2038 82.4178 52.1955 82.4199C52.1996 82.4199 52.2038 82.4241 52.208 82.4261C51.7235 82.7713 51.2599 83.0208 50.9605 82.9605C49.3803 82.6444 50.6943 81.3366 51.2474 80.7877C53.1602 78.8957 55.6511 78.5027 58.2293 78.9477L60.5372 79.8001C62.5145 80.8397 63.789 82.4573 64.4627 84.5739C65.0365 85.8734 64.9159 87.202 64.6207 88.5368C64.4252 88.8986 64.2319 89.2604 64.0364 89.6222C63.9678 89.749 63.8971 89.8738 63.8285 90.0006C63.7308 90.1399 63.6414 90.2542 63.5478 90.3457ZM59.2772 78.1992C59.061 78.2678 58.8593 78.3364 58.6909 78.4175C58.8593 78.3364 59.061 78.2657 59.2772 78.1992ZM58.5349 78.5027C58.4393 78.5609 58.3623 78.6275 58.3104 78.7002C58.3623 78.6275 58.4393 78.563 58.5349 78.5027ZM69.1575 92.5933C69.2593 92.6204 69.3591 92.6412 69.461 92.6536C69.3612 92.6412 69.2593 92.6204 69.1575 92.5933ZM70.1742 92.6141C70.3509 92.5642 70.511 92.4831 70.6482 92.3667C70.5131 92.4831 70.3509 92.5663 70.1742 92.6141ZM71.0786 91.2232C70.2927 91.2315 69.5068 91.2543 68.7208 91.2481C67.6937 91.2398 67.5648 90.9986 68.0201 90.0068C68.0721 89.3789 68.1844 88.7468 68.1657 88.121C68.1345 87.0814 68.0201 86.046 67.9411 85.0085C67.8143 85.1935 67.7187 85.3848 67.648 85.5844C67.6002 85.7175 67.5648 85.8505 67.5378 85.9878C67.5107 86.125 67.492 86.2601 67.4796 86.3995C67.492 86.2622 67.5107 86.125 67.5378 85.9878C67.5648 85.8505 67.6002 85.7175 67.648 85.5844C67.7187 85.3869 67.8143 85.1935 67.9411 85.0085C67.8954 84.9357 67.8497 84.8629 67.8039 84.7902C67.569 84.7943 67.386 84.8359 67.2425 84.9024C67.3881 84.8338 67.571 84.7943 67.8039 84.7902C67.8039 84.5843 67.8039 84.3785 67.8039 84.1747C66.7539 80.2617 63.527 77.8852 60.3022 75.8289C59.9508 75.7665 59.5953 75.7145 59.246 75.6418C58.3519 75.4546 57.4621 75.2571 56.5701 75.0637C52.9087 74.7602 49.9583 76.3133 47.4009 78.7273C46.1908 79.8687 46.1783 79.9665 45.0078 78.7273C44.8685 78.5796 44.7084 78.4507 44.5566 78.3135C44.4214 78.1846 44.2842 78.0578 44.1491 77.9289C43.8829 77.4028 43.8268 76.9059 44.3403 76.4838C45.5858 75.5149 46.8333 74.546 48.0787 73.5771C48.8355 73.2154 49.5944 72.8557 50.3513 72.4939L50.3367 72.5646C50.4074 72.5479 50.476 72.5292 50.5467 72.5126C50.896 72.3691 51.2432 72.2257 51.5925 72.0843C53.391 71.8078 55.1874 71.5291 56.9859 71.2526C57.0545 71.2526 57.1252 71.2526 57.1938 71.2526C57.8883 71.5312 58.5827 71.8098 59.2793 72.0905C60.3126 72.365 61.346 72.6394 62.3793 72.9139C62.6559 73.0615 62.9345 73.2112 63.211 73.3588C63.6289 73.6312 64.0468 73.9036 64.4647 74.1759C66.4441 75.2883 67.9266 76.9205 69.2115 78.7543C69.538 79.22 69.802 79.7336 70.0952 80.2243C70.6233 81.6818 71.1514 83.1393 71.6774 84.5968C71.6774 86.3974 71.6774 88.1979 71.6774 89.9985C71.5444 90.3416 71.4113 90.6846 71.2782 91.0277C71.2138 91.0922 71.1472 91.1587 71.0828 91.2232H71.0786ZM73.1599 90.2064C73.0892 90.1815 73.0247 90.1544 72.9665 90.1253C73.0268 90.1544 73.0913 90.1815 73.1599 90.2064C73.1599 90.483 73.1599 90.7595 73.1599 91.0381C73.1599 90.7616 73.1599 90.485 73.1599 90.2064ZM112.7 56.2867C112.675 56.139 112.648 55.9893 112.623 55.8417C112.648 55.9893 112.673 56.139 112.7 56.2867ZM112.529 57.2057C112.454 57.3699 112.388 57.5425 112.332 57.7192C112.39 57.5425 112.456 57.3699 112.529 57.2057C112.604 57.0414 112.685 56.8813 112.772 56.7337C112.685 56.8834 112.602 57.0414 112.529 57.2057Z" fill="white"/>
<path d="M70.6871 41.1065L70.9179 41.5556C71.1154 42.1025 71.315 42.6493 71.5125 43.194C71.5811 43.3396 71.6518 43.483 71.7204 43.6286C73.022 45.9406 74.6791 47.9304 76.9246 49.3838C77.2303 49.5813 77.565 49.7289 77.8873 49.9015C77.9101 49.338 77.9309 48.7725 77.9538 48.209C77.9309 48.1446 77.9101 48.0801 77.8914 48.0136C77.7459 47.9367 77.5629 47.8868 77.434 47.7974C77.5629 47.8847 77.7459 47.9367 77.8914 48.0136C77.827 46.974 77.7625 45.9344 77.6981 44.8927C77.6502 43.7804 77.6003 42.668 77.5525 41.5556L77.5234 38.2394C77.6378 37.9753 77.7542 37.7112 77.9018 37.3723C78.7896 38.2726 78.7148 39.4515 78.9539 40.5161C79.2886 41.7656 79.6213 43.0173 79.9561 44.2669C79.9831 44.4727 80.0122 44.6765 80.0392 44.8823C80.2264 45.9926 80.4114 47.1029 80.5985 48.2132C80.6879 48.8349 80.7773 49.4586 80.8647 50.0803C81.5882 49.4461 82.4511 48.9118 83.0041 48.1508C83.7298 47.1507 84.2121 45.9739 84.8006 44.874C84.7777 44.8158 84.7714 44.7555 84.7818 44.6931C84.8401 44.6765 84.8983 44.6661 84.9565 44.6661C85.1706 43.5163 85.4368 42.3748 85.5886 41.2167C85.8194 39.464 85.3328 37.8048 84.7652 36.1706C84.6321 36.0188 84.4991 35.8649 84.3681 35.7131C83.368 34.1309 82.3741 32.5445 81.3637 30.9685C81.1682 30.6628 80.9021 30.4029 80.6671 30.1201C79.403 28.9537 78.1409 27.7894 76.8768 26.623C76.2198 26.2321 73.8287 24.3088 72.97 24.5271C72.0177 24.7683 72.3275 25.8453 71.7391 26.6022C71.2235 28.9496 70.5665 31.3178 70.3107 33.713C70.0404 36.2517 70.6081 38.6032 70.6829 41.1065H70.6871ZM80.611 42.3686C80.5902 42.2626 80.5694 42.1586 80.5445 42.0526C80.5195 41.9465 80.4925 41.8426 80.4634 41.7386C80.4343 41.6347 80.4052 41.5307 80.374 41.4288C80.4052 41.5307 80.4363 41.6347 80.4634 41.7386C80.4925 41.8426 80.5195 41.9465 80.5445 42.0526C80.5694 42.1586 80.5923 42.2626 80.611 42.3686C80.6297 42.4746 80.6484 42.5786 80.6609 42.6826C80.6463 42.5786 80.6297 42.4726 80.611 42.3686Z" fill="white"/>
<path d="M86.0533 83.0956C87.9516 83.264 89.7646 82.8815 91.4238 81.898C92.1162 81.4198 92.8064 80.9416 93.4988 80.4634C94.5322 79.4259 95.5676 78.3904 96.601 77.3529C95.6217 77.7313 94.6424 78.1097 93.6631 78.4861C93.0497 78.721 92.4363 78.956 91.8251 79.1888C92.7732 78.0411 95.2744 76.9766 95.7672 75.6833C95.5863 75.6168 95.3846 75.4609 95.2245 75.4941C92.3906 76.0971 89.7563 77.1138 87.6813 79.2512C87.3216 79.5776 86.9598 79.902 86.6001 80.2284C86.1364 80.8543 85.6707 81.4801 85.207 82.1059C85.4877 82.4511 85.7455 83.0686 86.0533 83.0956Z" fill="white"/>
<path d="M99.9525 68.3667C99.9442 69.3335 99.9379 70.3024 99.9296 71.2692C100.009 71.4127 100.086 71.5582 100.165 71.7017C100.41 71.08 100.653 70.4584 100.896 69.8388C100.938 69.6412 100.969 69.4416 101.023 69.2462C101.716 66.7512 102.169 64.252 101.194 61.7196C101.038 61.3079 100.88 60.8962 100.724 60.4845C100.56 60.2121 100.387 59.9439 100.235 59.6653C99.7903 58.8482 99.3869 58.7879 98.6364 59.4345C98.443 59.788 98.2476 60.1435 98.0542 60.497C97.1061 63.1209 96.7131 65.8051 97.183 68.5829C97.1976 68.7181 97.2142 68.8532 97.2288 68.9884V68.9842C97.2828 69.1256 97.341 69.2691 97.3992 69.4104C97.4096 69.5435 97.42 69.6766 97.4325 69.8097C97.5656 70.028 97.7007 70.2442 97.8338 70.4625C98.0396 70.4584 98.2476 70.4542 98.4534 70.45C98.5137 70.3066 98.5761 70.1631 98.6364 70.0196C98.8443 68.531 99.0522 67.0423 99.2601 65.5536C99.3079 65.5577 99.3537 65.5598 99.4015 65.564C99.5845 66.4954 99.7674 67.429 99.9525 68.3605C100.171 68.2357 100.304 68.2191 100.387 68.2752C100.41 68.2918 100.431 68.3126 100.447 68.3397C100.431 68.3126 100.41 68.2898 100.387 68.2752C100.304 68.2191 100.171 68.2357 99.9525 68.3605V68.3667Z" fill="white"/>
<path d="M66.3479 49.0386C66.4144 49.7871 66.4809 50.5356 66.5495 51.2821C66.6826 51.648 66.8136 52.0139 66.9467 52.3799C67.2211 52.0992 67.4956 51.8164 67.7679 51.5357C69.0841 50.0075 69.8721 48.2652 69.6163 46.2193C69.4292 44.7243 69.0653 43.2523 68.7805 41.7719C68.5185 41.2812 68.2586 40.7905 67.9966 40.2998C67.6577 39.5409 67.3188 38.7799 66.9716 38.0002C66.4809 38.2581 66.1004 38.4577 65.722 38.6573L65.5183 39.0606C65.3062 39.2706 65.092 39.4806 64.88 39.6906C63.988 41.0629 63.0919 42.431 62.2082 43.8074C62.0336 44.0798 61.9171 44.3896 61.7737 44.6807C61.7633 44.7493 61.7466 44.8158 61.7238 44.8823C61.6635 45.3813 61.6032 45.8803 61.5429 46.3793C61.3682 47.8452 61.6884 49.207 62.4078 50.4837C62.5409 50.6833 62.6739 50.8849 62.807 51.0845C63.4224 51.5835 64.04 52.0825 64.6554 52.5795C64.8612 52.7063 65.065 52.831 65.2708 52.9579C65.2168 51.858 65.1606 50.7602 65.1066 49.6603C65.0858 48.8307 65.065 48.0032 65.0421 47.1736C65.169 46.9075 65.2937 46.6413 65.5661 46.0695C65.8738 47.2339 66.1108 48.1342 66.3499 49.0365L66.3479 49.0386Z" fill="white"/>
<path d="M59.6413 35.7298C60.0779 35.0436 60.5166 34.3554 60.9533 33.6672C60.8743 33.661 60.7932 33.6568 60.7142 33.6506C60.6352 33.5154 60.5582 33.3824 60.4584 33.2119C60.5582 33.3824 60.6372 33.5154 60.7142 33.6506C60.7932 33.6568 60.8743 33.661 60.9533 33.6672C61.3712 33.1121 61.787 32.559 62.2049 32.0039C62.5584 31.7752 62.9119 31.5485 63.2632 31.3198C63.3277 31.3697 63.3921 31.4196 63.4566 31.4695C62.8183 33.4323 60.4335 36.2537 60.5354 38.1957C68.0953 37.3806 69.4072 30.4882 70.7025 24.2901L69.6297 24.051C68.5069 24.2007 67.3696 24.288 66.2656 24.5251C65.5046 24.6893 64.7873 25.0615 64.0512 25.3422C63.6292 25.5626 63.2092 25.7809 62.7871 26.0013C62.3796 26.1967 61.9721 26.3942 61.5645 26.5897C61.0531 27.0138 60.5166 27.411 60.0363 27.8684C58.7369 29.1076 57.7596 30.5318 57.637 32.4031C57.637 32.8875 57.637 33.3741 57.637 33.8585C57.637 33.9978 57.6349 34.135 57.6328 34.2744C57.9073 35.1788 58.1817 36.0853 58.4562 36.9898C58.8491 36.5677 59.2442 36.1477 59.6371 35.7256L59.6413 35.7298Z" fill="white"/>
<path d="M84.8001 32.191C89.0167 35.7942 90.6697 44.4748 87.2494 49.0033C86.9687 49.2923 86.688 49.5813 86.4073 49.8703C86.2119 50.0865 86.0164 50.3028 85.8231 50.519C85.5486 50.7914 85.2742 51.0637 84.9976 51.3361C84.5111 51.754 84.0246 52.1719 83.5381 52.5919C83.1181 52.9267 82.7002 53.2594 82.2802 53.5941C82.434 53.8062 82.5858 54.0162 82.7397 54.2283L86.0123 51.7249C86.5757 50.9723 87.1413 50.2217 87.7047 49.469C90.4014 45.4832 90.4077 41.2479 88.5697 37.0064C87.6964 34.9917 86.3387 33.1911 85.2264 31.2782C85.1598 31.1618 85.322 30.9123 85.3761 30.7252C85.4592 30.7252 85.5424 30.7252 85.6256 30.7252C86.0331 30.8583 86.4427 30.9913 86.8502 31.1244C89.4159 32.5715 90.4555 33.8876 91.8132 36.4658C91.9317 36.4429 92.0482 36.4221 92.1667 36.3993C91.7862 33.7171 91.4057 31.0329 91.0106 28.251C92.2789 29.1866 94.067 30.1264 95.1129 31.2949C96.693 33.0663 98.5394 34.555 100.122 36.3307C104.037 40.7198 104.357 46.4708 102.188 51.7249C100.305 53.985 98.6953 56.2866 95.7345 57.1599C92.9568 57.977 89.4554 57.7837 86.8523 56.4966C86.0767 56.087 85.295 55.6878 84.5257 55.2658C83.9227 54.9352 83.3364 54.5776 82.7417 54.2324C82.5879 54.0203 82.4361 53.8103 82.2822 53.5983C82.0099 53.7563 81.7354 53.9143 81.463 54.0723L81.2385 53.6523C80.7603 52.8893 80.1906 52.2801 79.1801 52.384C79.1863 52.5109 79.1926 52.6377 79.1988 52.7645C79.2529 52.8456 79.309 52.9267 79.3631 53.0057C79.3631 53.0743 79.3631 53.1408 79.3631 53.2095C79.5065 53.4153 79.6479 53.6191 79.7914 53.8249C79.5876 53.8145 79.3839 53.8041 79.1801 53.7937C78.7705 54.116 78.3588 54.4362 77.9492 54.7584C77.9846 54.8603 78.0178 54.9643 78.0532 55.0662H79.6126L79.5523 55.9062C79.702 56.112 79.8537 56.3158 80.0034 56.5216C80.3548 55.8396 80.7041 55.1556 81.0555 54.4736C81.1865 54.4736 81.3175 54.4757 81.4485 54.4778C84.5735 55.7752 87.2744 58.0768 90.7965 58.4324C91.4494 58.422 92.1001 58.4074 92.753 58.4012C94.9819 58.3804 97.0278 57.7649 98.872 56.5008C99.1486 56.297 99.4272 56.0954 99.7037 55.8916C100.323 55.2637 100.945 54.6358 101.565 54.0079C101.924 53.328 102.282 52.6481 102.642 51.9682C102.716 51.8954 102.789 51.8226 102.864 51.7499C105.228 46.161 104.498 39.7779 100.18 35.3451C98.4562 33.5737 96.5184 31.4113 94.6014 29.8935C92.8985 28.5462 90.5407 25.8329 88.3056 25.5563C88.316 25.6894 88.3264 25.8225 88.3368 25.9555C88.8129 26.7144 89.2891 27.4754 89.7652 28.2343C89.838 28.3778 89.9087 28.5212 89.9814 28.6647C90.68 29.8852 90.8339 31.2096 90.8152 32.7711C90.3682 32.426 90.0625 32.191 89.7569 31.9581C89.4762 31.8396 89.1976 31.7232 88.9169 31.6047L86.4406 30.3696C85.3366 30.0869 84.2304 29.8062 83.1264 29.5234C83.2449 29.881 83.2948 30.2865 83.4986 30.5859C83.8874 31.1556 84.3614 31.665 84.8022 32.1972L84.8001 32.191Z" fill="white"/>
<path d="M49.7148 38.231V38.2435C49.7148 38.2435 49.7211 38.2435 49.7232 38.2435L49.7148 38.231Z" fill="white"/>
<path d="M49.7232 38.2435C49.7232 38.2435 49.7232 38.2352 49.7232 38.2331C49.7211 38.2331 49.719 38.2331 49.7148 38.2331L49.7232 38.2456V38.2435Z" fill="white"/>
<path d="M97.8359 70.4667C97.8962 70.6704 97.9565 70.8763 98.0168 71.08C98.1104 71.2942 98.2039 71.5083 98.2996 71.7225C98.364 71.5832 98.4264 71.4439 98.4909 71.3067C98.5408 71.2942 98.5907 71.2838 98.6406 71.2713C98.6406 70.8555 98.6406 70.4396 98.6406 70.0259C98.5803 70.1694 98.5179 70.3128 98.4576 70.4563C98.2518 70.4604 98.0439 70.4646 97.838 70.4688L97.8359 70.4667Z" fill="white"/>
<path d="M96.1778 69.8492C96.1217 69.8284 96.0635 69.8201 96.0053 69.8221C95.92 69.6205 95.8369 69.4188 95.7516 69.2171L91.8282 64.8882L91.0007 64.4662C90.9321 64.4537 90.8655 64.4391 90.7969 64.4267C90.0359 64.0025 89.2729 63.5783 88.5119 63.1542C87.2415 62.6697 85.9919 62.1167 84.6945 61.7154C81.4157 60.7008 78.116 59.7547 74.8226 58.7817C74.336 58.6611 73.8495 58.5405 73.363 58.4199C73.0885 58.4053 72.8141 58.3908 72.5375 58.3762C72.0926 58.6382 71.9762 58.9418 72.3629 59.368C74.0158 61.1935 75.6584 63.0294 77.3051 64.8591C78.6171 66.1794 79.927 67.4997 81.2389 68.82C81.7296 69.2878 82.2203 69.7556 82.711 70.2234C83.2682 70.6455 83.8233 71.0676 84.3806 71.4896C86.4348 72.6852 88.6471 73.4233 90.9986 73.7456C92.7306 73.7393 94.4646 73.7331 96.1966 73.7268C95.9263 73.5335 95.6539 73.3401 95.3836 73.1467C94.475 72.6103 93.5643 72.0739 92.6557 71.5375C92.1796 71.2443 91.7014 70.949 91.2252 70.6559C90.7325 70.3191 90.2397 69.9822 89.7469 69.6454L86.0252 67.323C85.7466 67.1088 85.4701 66.8967 85.1915 66.6826C84.5448 66.1649 83.4387 66.1752 83.3202 65.0504C84.1103 64.9444 84.7091 65.275 85.1935 65.8717C85.258 65.8779 85.3245 65.8821 85.389 65.8862C85.6655 66.0255 85.942 66.1649 86.2186 66.3042C86.7051 66.5682 87.1937 66.8323 87.6802 67.0942C88.2416 67.3146 88.8051 67.533 89.3664 67.7533C89.8363 68.1214 90.3042 68.4873 90.7741 68.8553C90.8447 68.8428 90.9175 68.8304 90.9882 68.8179C91.3978 69.4105 91.8885 69.7868 92.6474 69.4416C93.1817 69.9282 93.6745 70.475 94.265 70.8825C94.7786 71.236 95.4002 71.4314 95.9762 71.6955C96.1196 71.6913 96.2631 71.6872 96.4066 71.683C96.4689 71.552 96.5334 71.4189 96.5958 71.288C96.4606 70.8721 96.3234 70.4584 96.1882 70.0425C96.182 69.9781 96.1779 69.9157 96.1758 69.8512L96.1778 69.8492ZM93.0736 69.0009C93.3169 69.03 93.5622 69.0591 93.8159 69.0882C93.5622 69.0591 93.319 69.03 93.0736 69.0009Z" fill="white"/>
<path d="M96.8008 72.5459C96.9318 72.5978 97.0648 72.6477 97.1958 72.6997C97.1231 72.5168 97.0503 72.3359 96.9775 72.1529C96.9193 72.2839 96.859 72.4149 96.8008 72.5459Z" fill="white"/>
<path d="M78.9883 53.224C79.0486 53.3488 79.1089 53.4735 79.1692 53.5983C79.1671 53.4652 79.1629 53.3342 79.1609 53.2011C79.1026 53.2011 79.0444 53.2074 78.9883 53.224Z" fill="white"/>
<path d="M78.8242 52.8872C78.87 52.9101 78.9157 52.935 78.9614 52.9579C78.9531 52.9101 78.9531 52.8643 78.9614 52.8165C78.9157 52.8394 78.87 52.8643 78.8242 52.8872Z" fill="white"/>
<path d="M95.5359 49.8641C99.345 47.4751 100.898 43.2024 99.4676 39.2727C99.1869 38.6032 98.9063 37.9316 98.6256 37.2621C98.5736 37.2808 98.5195 37.2996 98.4675 37.3183C98.4759 37.4804 98.4842 37.6447 98.4925 37.8069C98.5486 37.9545 98.6027 38.1042 98.6588 38.2518C98.7212 38.6552 98.7857 39.0606 98.848 39.464C98.717 41.9133 98.715 44.3605 97.3385 46.4999C95.8519 48.8099 93.124 49.8495 90.8203 51.1303C91.4337 51.1427 92.045 51.1552 92.6583 51.1698C93.621 50.7415 94.6502 50.4192 95.5359 49.8661V49.8641Z" fill="white"/>
<path d="M87.2644 52.9891C87.6089 52.9891 87.8881 52.7098 87.8881 52.3653C87.8881 52.0208 87.6089 51.7416 87.2644 51.7416C86.9199 51.7416 86.6406 52.0208 86.6406 52.3653C86.6406 52.7098 86.9199 52.9891 87.2644 52.9891Z" fill="white"/>
<path d="M141.104 48.4918C142.048 49.3547 142.518 50.5544 142.518 52.0929C142.518 53.6315 142.059 54.8458 141.14 55.7419C140.221 56.638 138.817 57.0851 136.932 57.0851H133.551V47.1965H137.044C138.807 47.1965 140.161 47.6289 141.104 48.4918ZM139.485 54.3697C140.027 53.8603 140.298 53.1201 140.298 52.1491C140.298 51.1781 140.027 50.4296 139.485 49.9077C138.942 49.3838 138.11 49.1218 136.988 49.1218H135.757V55.1327H137.158C138.167 55.1327 138.942 54.8791 139.485 54.3697Z" fill="white"/>
<path d="M144.309 48.5064C144.068 48.2652 143.949 47.972 143.949 47.6227C143.949 47.2734 144.07 46.9782 144.309 46.739C144.548 46.4999 144.843 46.3793 145.193 46.3793C145.542 46.3793 145.837 46.4999 146.076 46.739C146.317 46.9802 146.438 47.2734 146.438 47.6227C146.438 47.972 146.317 48.2672 146.076 48.5064C145.835 48.7475 145.542 48.8661 145.193 48.8661C144.843 48.8661 144.548 48.7455 144.309 48.5064ZM146.253 57.0851H144.13V49.4753H146.253V57.0851Z" fill="white"/>
<path d="M152.266 51.3424C151.634 51.3424 151.162 51.5669 150.852 52.0139C150.541 52.463 150.385 53.0535 150.385 53.7896V57.0851H148.262V49.4752H150.385V50.4795C150.659 50.1676 151 49.9036 151.41 49.6873C151.819 49.4711 152.237 49.3567 152.661 49.3484L152.676 51.3424H152.266Z" fill="white"/>
<path d="M160.666 55.981C159.807 56.7919 158.801 57.1973 157.645 57.1973C156.489 57.1973 155.534 56.8418 154.78 56.1286C154.025 55.4176 153.648 54.4611 153.648 53.2635C153.648 52.0659 154.033 51.1136 154.8 50.4067C155.57 49.6998 156.476 49.3463 157.524 49.3463C158.572 49.3463 159.46 49.6624 160.19 50.2945C160.919 50.9265 161.285 51.7935 161.285 52.8976V54.0287H155.74C155.807 54.4445 156.023 54.7834 156.391 55.0475C156.759 55.3115 157.173 55.4446 157.636 55.4446C158.381 55.4446 158.994 55.1951 159.474 54.694L160.662 55.981H160.666ZM158.628 51.4692C158.335 51.2238 157.979 51.1012 157.559 51.1012C157.139 51.1012 156.755 51.228 156.408 51.4837C156.058 51.7395 155.857 52.0825 155.8 52.5171H159.14C159.092 52.0638 158.923 51.7145 158.63 51.4692H158.628Z" fill="white"/>
<path d="M166.467 55.3178C167.174 55.3178 167.81 54.9643 168.375 54.2574L169.635 55.6712C168.654 56.69 167.594 57.1994 166.452 57.1994C165.311 57.1994 164.346 56.8397 163.56 56.1182C162.772 55.3968 162.379 54.4549 162.379 53.2885C162.379 52.122 162.778 51.176 163.574 50.4441C164.371 49.7144 165.317 49.3484 166.41 49.3484C166.957 49.3484 167.51 49.4607 168.072 49.6873C168.633 49.914 169.126 50.2487 169.55 50.6916L168.446 52.1345C168.201 51.8414 167.901 51.6168 167.548 51.4546C167.194 51.2945 166.843 51.2134 166.494 51.2134C165.936 51.2134 165.458 51.3943 165.057 51.7582C164.656 52.122 164.456 52.6252 164.456 53.2718C164.456 53.9185 164.656 54.4195 165.057 54.7792C165.458 55.1369 165.926 55.3178 166.465 55.3178H166.467Z" fill="white"/>
<path d="M174.701 55.3178C175.408 55.3178 176.044 54.9643 176.61 54.2574L177.87 55.6712C176.888 56.69 175.828 57.1994 174.686 57.1994C173.545 57.1994 172.58 56.8397 171.794 56.1182C171.006 55.3968 170.613 54.4549 170.613 53.2885C170.613 52.122 171.012 51.176 171.809 50.4441C172.605 49.7144 173.551 49.3484 174.645 49.3484C175.192 49.3484 175.745 49.4607 176.306 49.6873C176.867 49.914 177.36 50.2487 177.784 50.6916L176.68 52.1345C176.435 51.8414 176.136 51.6168 175.782 51.4546C175.429 51.2945 175.077 51.2134 174.728 51.2134C174.171 51.2134 173.693 51.3943 173.291 51.7582C172.89 52.122 172.69 52.6252 172.69 53.2718C172.69 53.9185 172.89 54.4195 173.291 54.7792C173.693 55.1369 174.16 55.3178 174.699 55.3178H174.701Z" fill="white"/>
<path d="M179.461 48.5064C179.22 48.2652 179.102 47.972 179.102 47.6227C179.102 47.2734 179.222 46.9782 179.461 46.739C179.7 46.4999 179.996 46.3793 180.345 46.3793C180.694 46.3793 180.989 46.4999 181.229 46.739C181.47 46.9802 181.59 47.2734 181.59 47.6227C181.59 47.972 181.47 48.2672 181.229 48.5064C180.987 48.7475 180.694 48.8661 180.345 48.8661C179.996 48.8661 179.7 48.7455 179.461 48.5064ZM181.405 57.0851H179.282V49.4753H181.405V57.0851Z" fill="white"/>
<path d="M191.023 53.2802C191.023 54.3842 190.64 55.3115 189.877 56.0663C189.114 56.821 188.154 57.1973 187 57.1973C185.846 57.1973 184.885 56.821 184.122 56.0663C183.359 55.3115 182.977 54.3821 182.977 53.2802C182.977 52.1782 183.359 51.2446 184.122 50.4857C184.885 49.7268 185.846 49.3463 187 49.3463C188.154 49.3463 189.114 49.7268 189.877 50.4857C190.64 51.2446 191.023 52.1761 191.023 53.2802ZM185.11 53.2802C185.11 53.9018 185.287 54.4092 185.64 54.8C185.993 55.1909 186.447 55.3864 186.998 55.3864C187.549 55.3864 188.002 55.1909 188.355 54.8C188.709 54.4092 188.886 53.9018 188.886 53.2802C188.886 52.6585 188.709 52.1491 188.355 51.752C188.002 51.3569 187.549 51.1573 186.998 51.1573C186.447 51.1573 185.993 51.3548 185.64 51.752C185.287 52.1491 185.11 52.6564 185.11 53.2802ZM187.798 48.4419H185.775L187.572 45.9386L189.765 46.8576L187.798 48.4419Z" fill="white"/>
<path d="M194.701 52.8414V57.0851H192.578V49.4752H194.701V50.3236C195.341 49.6728 196.063 49.3484 196.865 49.3484C197.668 49.3484 198.34 49.6312 198.882 50.1967C199.425 50.7623 199.695 51.517 199.695 52.461V57.0871H197.572V52.7874C197.572 51.6189 197.144 51.0326 196.285 51.0326C195.861 51.0326 195.491 51.1864 195.175 51.4921C194.859 51.7977 194.701 52.2489 194.701 52.8435V52.8414Z" fill="white"/>
<path d="M208.402 57.1973C207.502 57.1973 206.697 56.8148 205.99 56.0517C205.283 55.2887 204.93 54.3405 204.93 53.2095C204.93 52.0784 205.275 51.1511 205.963 50.4296C206.651 49.7081 207.458 49.3484 208.381 49.3484C209.304 49.3484 210.059 49.6728 210.645 50.3236V46.5894H212.768V57.0851H210.645V56.0808C210.051 56.8252 209.304 57.1973 208.404 57.1973H208.402ZM207.065 53.2926C207.065 53.906 207.248 54.4071 207.616 54.8C207.984 55.1909 208.412 55.3864 208.903 55.3864C209.394 55.3864 209.81 55.1909 210.155 54.8C210.5 54.4092 210.67 53.9039 210.67 53.2864C210.67 52.6689 210.498 52.1553 210.155 51.7436C209.81 51.334 209.387 51.1282 208.888 51.1282C208.389 51.1282 207.959 51.3361 207.601 51.7499C207.244 52.1657 207.065 52.6793 207.065 53.2926Z" fill="white"/>
<path d="M221.365 55.981C220.506 56.7919 219.5 57.1973 218.344 57.1973C217.188 57.1973 216.233 56.8418 215.479 56.1286C214.724 55.4176 214.348 54.4611 214.348 53.2635C214.348 52.0659 214.732 51.1136 215.5 50.4067C216.269 49.6998 217.175 49.3463 218.223 49.3463C219.271 49.3463 220.159 49.6624 220.889 50.2945C221.619 50.9265 221.985 51.7935 221.985 52.8976V54.0287H216.439C216.506 54.4445 216.722 54.7834 217.09 55.0475C217.458 55.3115 217.872 55.4446 218.336 55.4446C219.08 55.4446 219.693 55.1951 220.174 54.694L221.361 55.981H221.365ZM219.327 51.4692C219.034 51.2238 218.679 51.1012 218.259 51.1012C217.839 51.1012 217.454 51.228 217.107 51.4837C216.757 51.7395 216.556 52.0825 216.5 52.5171H219.839C219.791 52.0638 219.623 51.7145 219.329 51.4692H219.327Z" fill="white"/>
<path d="M229.775 49.1696C229.563 49.3443 229.457 49.5751 229.457 49.862C229.457 50.1489 229.586 50.3776 229.846 50.5481C230.106 50.7186 230.704 50.9182 231.642 51.149C232.58 51.3798 233.31 51.727 233.827 52.1886C234.345 52.6502 234.605 53.3259 234.605 54.2116C234.605 55.0974 234.272 55.8168 233.607 56.3698C232.942 56.9208 232.068 57.1973 230.983 57.1973C229.417 57.1973 228.008 56.6172 226.754 55.4571L228.07 53.8436C229.135 54.7772 230.122 55.245 231.027 55.245C231.432 55.245 231.75 55.1577 231.981 54.983C232.212 54.8084 232.328 54.5734 232.328 54.2761C232.328 53.9788 232.206 53.7438 231.96 53.5692C231.715 53.3945 231.228 53.2178 230.503 53.039C229.353 52.7666 228.511 52.409 227.979 51.9703C227.446 51.5316 227.18 50.8434 227.18 49.9056C227.18 48.9679 227.517 48.2444 228.191 47.735C228.864 47.2256 229.706 46.9719 230.715 46.9719C231.374 46.9719 232.035 47.0842 232.694 47.3108C233.353 47.5375 233.929 47.8577 234.42 48.2735L233.303 49.8869C232.445 49.2362 231.559 48.9118 230.644 48.9118C230.276 48.9118 229.987 48.9991 229.775 49.1738V49.1696Z" fill="white"/>
<path d="M241.082 53.5775V49.4753H243.217V57.0851H241.082V56.0808C240.554 56.8252 239.872 57.1973 239.038 57.1973C238.204 57.1973 237.504 56.9354 236.938 56.4114C236.373 55.8875 236.09 55.1119 236.09 54.0848V49.4732H238.225V53.617C238.225 54.7855 238.653 55.3718 239.512 55.3718C239.936 55.3718 240.304 55.218 240.616 54.9123C240.928 54.6067 241.084 54.1597 241.084 53.5754L241.082 53.5775Z" fill="white"/>
<path d="M250.959 54.7148C250.959 55.4654 250.683 56.0663 250.132 56.5174C249.581 56.9707 248.88 57.1973 248.032 57.1973C247.466 57.1973 246.876 57.0955 246.264 56.8938C245.651 56.69 245.1 56.3906 244.609 55.9956L245.543 54.6649C246.335 55.2783 247.179 55.5839 248.075 55.5839C248.35 55.5839 248.566 55.5298 248.726 55.4217C248.886 55.3136 248.967 55.1701 248.967 54.9892C248.967 54.8084 248.857 54.6462 248.635 54.4944C248.412 54.3447 248.092 54.2012 247.672 54.0702C247.252 53.9393 246.932 53.8249 246.709 53.7313C246.487 53.6378 246.235 53.5005 245.953 53.3217C245.377 52.9641 245.09 52.4339 245.09 51.7312C245.09 51.0284 245.372 50.4566 245.938 50.0117C246.504 49.5688 247.235 49.3463 248.129 49.3463C249.023 49.3463 249.922 49.6478 250.818 50.2508L250.026 51.6646C249.367 51.2114 248.707 50.9847 248.053 50.9847C247.398 50.9847 247.069 51.1636 247.069 51.5212C247.069 51.7187 247.173 51.8746 247.381 51.989C247.589 52.1013 247.932 52.2343 248.414 52.3861C248.895 52.5379 249.238 52.6522 249.439 52.7333C249.641 52.8144 249.884 52.9392 250.167 53.1076C250.695 53.4278 250.959 53.9642 250.959 54.7127V54.7148Z" fill="white"/>
<path d="M255.059 51.0014V54.4112C255.059 54.7044 255.133 54.9331 255.285 55.0974C255.437 55.2616 255.616 55.3448 255.824 55.3448C256.219 55.3448 256.553 55.166 256.828 54.8084L257.62 56.2929C256.961 56.8959 256.264 57.1973 255.533 57.1973C254.801 57.1973 254.183 56.9562 253.68 56.4759C253.175 55.9956 252.923 55.3406 252.923 54.509V51.0014H252.031V49.4732H252.923V47.1965H255.059V49.4732H256.897V51.0014H255.059Z" fill="white"/>
<path d="M258.926 48.5064C258.685 48.2652 258.566 47.972 258.566 47.6227C258.566 47.2734 258.687 46.9782 258.926 46.739C259.165 46.4999 259.46 46.3793 259.81 46.3793C260.159 46.3793 260.454 46.4999 260.693 46.739C260.935 46.9802 261.055 47.2734 261.055 47.6227C261.055 47.972 260.935 48.2672 260.693 48.5064C260.452 48.7475 260.159 48.8661 259.81 48.8661C259.46 48.8661 259.165 48.7455 258.926 48.5064ZM260.87 57.0851H258.747V49.4753H260.87V57.0851Z" fill="white"/>
<path d="M265.414 51.0014V54.4112C265.414 54.7044 265.489 54.9331 265.641 55.0974C265.792 55.2616 265.971 55.3448 266.179 55.3448C266.574 55.3448 266.909 55.166 267.183 54.8084L267.976 56.2929C267.316 56.8959 266.62 57.1973 265.888 57.1973C265.156 57.1973 264.539 56.9562 264.036 56.4759C263.53 55.9956 263.279 55.3406 263.279 54.509V51.0014H262.387V49.4732H263.279V47.1965H265.414V49.4732H267.252V51.0014H265.414Z" fill="white"/>
<path d="M274.016 53.5775V49.4753H276.151V57.0851H274.016V56.0808C273.487 56.8252 272.805 57.1973 271.972 57.1973C271.138 57.1973 270.437 56.9354 269.872 56.4114C269.306 55.8875 269.023 55.1119 269.023 54.0848V49.4732H271.159V53.617C271.159 54.7855 271.587 55.3718 272.446 55.3718C272.87 55.3718 273.238 55.218 273.55 54.9123C273.862 54.6067 274.018 54.1597 274.018 53.5754L274.016 53.5775Z" fill="white"/>
<path d="M281.81 55.3178C282.517 55.3178 283.153 54.9643 283.719 54.2574L284.979 55.6712C283.998 56.69 282.937 57.1994 281.796 57.1994C280.654 57.1994 279.69 56.8397 278.904 56.1182C278.116 55.3968 277.723 54.4549 277.723 53.2885C277.723 52.122 278.122 51.176 278.918 50.4441C279.715 49.7144 280.661 49.3484 281.754 49.3484C282.301 49.3484 282.854 49.4607 283.415 49.6873C283.977 49.914 284.47 50.2487 284.894 50.6916L283.79 52.1345C283.544 51.8414 283.245 51.6168 282.891 51.4546C282.538 51.2945 282.187 51.2134 281.837 51.2134C281.28 51.2134 280.802 51.3943 280.401 51.7582C279.999 52.122 279.8 52.6252 279.8 53.2718C279.8 53.9185 279.999 54.4195 280.401 54.7792C280.802 55.1369 281.27 55.3178 281.808 55.3178H281.81Z" fill="white"/>
<path d="M286.567 48.5064C286.326 48.2652 286.207 47.972 286.207 47.6227C286.207 47.2734 286.328 46.9782 286.567 46.739C286.806 46.4999 287.101 46.3793 287.45 46.3793C287.8 46.3793 288.095 46.4999 288.334 46.739C288.575 46.9802 288.696 47.2734 288.696 47.6227C288.696 47.972 288.575 48.2672 288.334 48.5064C288.093 48.7475 287.8 48.8661 287.45 48.8661C287.101 48.8661 286.806 48.7455 286.567 48.5064ZM288.511 57.0851H286.388V49.4753H288.511V57.0851Z" fill="white"/>
<path d="M298.128 53.2802C298.128 54.3842 297.746 55.3115 296.983 56.0663C296.22 56.821 295.259 57.1973 294.105 57.1973C292.951 57.1973 291.991 56.821 291.228 56.0663C290.465 55.3115 290.082 54.3821 290.082 53.2802C290.082 52.1782 290.465 51.2446 291.228 50.4857C291.991 49.7268 292.951 49.3463 294.105 49.3463C295.259 49.3463 296.22 49.7268 296.983 50.4857C297.746 51.2446 298.128 52.1761 298.128 53.2802ZM292.215 53.2802C292.215 53.9018 292.392 54.4092 292.745 54.8C293.099 55.1909 293.552 55.3864 294.103 55.3864C294.654 55.3864 295.107 55.1909 295.461 54.8C295.814 54.4092 295.991 53.9018 295.991 53.2802C295.991 52.6585 295.814 52.1491 295.461 51.752C295.107 51.3569 294.654 51.1573 294.103 51.1573C293.552 51.1573 293.099 51.3548 292.745 51.752C292.392 52.1491 292.215 52.6564 292.215 53.2802ZM294.904 48.4419H292.881L294.677 45.9386L296.871 46.8576L294.904 48.4419Z" fill="white"/>
<path d="M301.806 52.8414V57.0851H299.684V49.4752H301.806V50.3236C302.447 49.6728 303.168 49.3484 303.971 49.3484C304.773 49.3484 305.445 49.6312 305.988 50.1967C306.53 50.7623 306.801 51.517 306.801 52.461V57.0871H304.678V52.7874C304.678 51.6189 304.249 51.0326 303.391 51.0326C302.967 51.0326 302.597 51.1864 302.28 51.4921C301.964 51.7977 301.806 52.2489 301.806 52.8435V52.8414Z" fill="white"/>
<path d="M136.386 74.1718C135.486 74.1718 134.681 73.7892 133.974 73.0261C133.268 72.2631 132.914 71.315 132.914 70.1839C132.914 69.0528 133.259 68.1255 133.947 67.404C134.636 66.6826 135.442 66.3208 136.366 66.3208C137.289 66.3208 138.043 66.6472 138.63 67.2959V63.5617H140.753V74.0574H138.63V73.0532C138.035 73.7975 137.289 74.1697 136.388 74.1697L136.386 74.1718ZM135.049 70.2671C135.049 70.8804 135.232 71.3815 135.6 71.7745C135.968 72.1654 136.397 72.3608 136.887 72.3608C137.378 72.3608 137.794 72.1654 138.139 71.7745C138.484 71.3836 138.655 70.8783 138.655 70.2608C138.655 69.6433 138.482 69.1298 138.139 68.7181C137.794 68.3085 137.372 68.1026 136.873 68.1026C136.374 68.1026 135.943 68.3106 135.586 68.7243C135.228 69.1402 135.049 69.6537 135.049 70.2671Z" fill="white"/>
<path d="M149.353 72.9555C148.494 73.7663 147.488 74.1718 146.332 74.1718C145.176 74.1718 144.222 73.8162 143.467 73.1031C142.712 72.392 142.336 71.4356 142.336 70.238C142.336 69.0404 142.721 68.0881 143.488 67.3812C144.257 66.6742 145.164 66.3208 146.212 66.3208C147.259 66.3208 148.147 66.6368 148.877 67.2689C149.607 67.901 149.973 68.768 149.973 69.872V71.0031H144.428C144.494 71.4189 144.71 71.7578 145.078 72.0219C145.446 72.286 145.86 72.419 146.324 72.419C147.068 72.419 147.682 72.1695 148.162 71.6684L149.349 72.9555H149.353ZM147.316 68.4436C147.022 68.1983 146.667 68.0756 146.247 68.0756C145.827 68.0756 145.442 68.2024 145.095 68.4582C144.746 68.7118 144.544 69.057 144.488 69.4915H147.827C147.779 69.0383 147.611 68.6911 147.318 68.4436H147.316Z" fill="white"/>
<path d="M159.991 72.1072C161.076 72.1072 161.962 71.6788 162.65 70.8201L164.064 72.2776C162.941 73.5418 161.619 74.1739 160.097 74.1739C158.575 74.1739 157.319 73.6936 156.334 72.7309C155.348 71.7682 154.855 70.5561 154.855 69.0882C154.855 67.6203 155.359 66.3977 156.363 65.4184C157.367 64.4371 158.596 63.9464 160.047 63.9464C161.669 63.9464 163.027 64.5639 164.12 65.7989L162.748 67.3541C162.049 66.4871 161.182 66.0526 160.145 66.0526C159.315 66.0526 158.604 66.3229 158.016 66.8655C157.427 67.4082 157.132 68.138 157.132 69.057C157.132 69.976 157.411 70.7141 157.966 71.2713C158.523 71.8285 159.197 72.1051 159.989 72.1051L159.991 72.1072Z" fill="white"/>
<path d="M170.387 70.5519V66.4497H172.522V74.0595H170.387V73.0553C169.859 73.7996 169.177 74.1718 168.343 74.1718C167.509 74.1718 166.808 73.9098 166.243 73.3858C165.677 72.8619 165.395 72.0864 165.395 71.0592V66.4476H167.53V70.5914C167.53 71.7599 167.958 72.3463 168.817 72.3463C169.241 72.3463 169.609 72.1924 169.921 71.8868C170.233 71.5811 170.389 71.1341 170.389 70.5498L170.387 70.5519Z" fill="white"/>
<path d="M176.65 74.0595H174.527V63.5638H176.65V74.0595Z" fill="white"/>
<path d="M181.191 67.9779V71.3877C181.191 71.6809 181.266 71.9096 181.418 72.0739C181.57 72.2381 181.749 72.3213 181.956 72.3213C182.352 72.3213 182.686 72.1425 182.961 71.7849L183.753 73.2694C183.094 73.8724 182.397 74.1739 181.665 74.1739C180.934 74.1739 180.316 73.9327 179.813 73.4524C179.308 72.9721 179.056 72.3171 179.056 71.4855V67.9779H178.164V66.4497H179.056V64.173H181.191V66.4497H183.029V67.9779H181.191Z" fill="white"/>
<path d="M185.063 65.4808C184.822 65.2396 184.703 64.9464 184.703 64.5971C184.703 64.2478 184.824 63.9526 185.063 63.7135C185.302 63.4744 185.597 63.3517 185.946 63.3517C186.296 63.3517 186.591 63.4723 186.83 63.7135C187.071 63.9547 187.192 64.2478 187.192 64.5971C187.192 64.9464 187.071 65.2417 186.83 65.4808C186.589 65.722 186.296 65.8426 185.946 65.8426C185.597 65.8426 185.302 65.722 185.063 65.4808ZM187.007 74.0595H184.884V66.4497H187.007V74.0595Z" fill="white"/>
<path d="M191.067 74.0595L188.055 66.4352H190.261L192.157 71.2297L194.053 66.4352H196.259L193.246 74.0595H191.067Z" fill="white"/>
<path d="M204.742 70.2546C204.742 71.3586 204.359 72.286 203.596 73.0407C202.833 73.7954 201.872 74.1718 200.719 74.1718C199.565 74.1718 198.604 73.7954 197.841 73.0407C197.078 72.286 196.695 71.3566 196.695 70.2546C196.695 69.1526 197.078 68.2191 197.841 67.4602C198.604 66.7013 199.565 66.3208 200.719 66.3208C201.872 66.3208 202.833 66.7013 203.596 67.4602C204.359 68.2191 204.742 69.1506 204.742 70.2546ZM198.829 70.2546C198.829 70.8763 199.005 71.3836 199.359 71.7745C199.712 72.1654 200.165 72.3608 200.716 72.3608C201.267 72.3608 201.721 72.1654 202.074 71.7745C202.428 71.3836 202.604 70.8763 202.604 70.2546C202.604 69.6329 202.428 69.1235 202.074 68.7264C201.721 68.3293 201.267 68.1318 200.716 68.1318C200.165 68.1318 199.712 68.3293 199.359 68.7264C199.005 69.1214 198.829 69.6308 198.829 70.2546Z" fill="white"/>
<path d="M211.975 71.6892C211.975 72.4398 211.698 73.0407 211.147 73.4919C210.596 73.9451 209.896 74.1718 209.047 74.1718C208.482 74.1718 207.891 74.0699 207.28 73.8682C206.667 73.6645 206.116 73.3651 205.625 72.97L206.559 71.6393C207.351 72.2527 208.195 72.5583 209.091 72.5583C209.365 72.5583 209.582 72.5043 209.742 72.3962C209.902 72.288 209.983 72.1446 209.983 71.9637C209.983 71.7828 209.873 71.6206 209.65 71.4688C209.428 71.3191 209.108 71.1757 208.688 71.0447C208.268 70.9137 207.947 70.7993 207.725 70.7058C207.502 70.6122 207.251 70.475 206.968 70.2962C206.392 69.9386 206.105 69.4084 206.105 68.7056C206.105 68.0028 206.388 67.4311 206.954 66.9861C207.519 66.5433 208.251 66.3208 209.145 66.3208C210.039 66.3208 210.937 66.6223 211.833 67.2252L211.041 68.6391C210.382 68.1858 209.723 67.9592 209.068 67.9592C208.413 67.9592 208.085 68.138 208.085 68.4956C208.085 68.6931 208.189 68.8491 208.397 68.9634C208.604 69.0757 208.948 69.2088 209.43 69.3605C209.91 69.5123 210.253 69.6267 210.455 69.7078C210.657 69.7889 210.9 69.9136 211.183 70.082C211.711 70.4022 211.975 70.9386 211.975 71.6872V71.6892Z" fill="white"/>
<path d="M220.382 74.1718C219.482 74.1718 218.677 73.7892 217.971 73.0261C217.264 72.2631 216.91 71.315 216.91 70.1839C216.91 69.0528 217.255 68.1255 217.944 67.404C218.632 66.6826 219.438 66.3208 220.362 66.3208C221.285 66.3208 222.039 66.6472 222.626 67.2959V63.5617H224.749V74.0574H222.626V73.0532C222.031 73.7975 221.285 74.1697 220.384 74.1697L220.382 74.1718ZM219.045 70.2671C219.045 70.8804 219.228 71.3815 219.596 71.7745C219.964 72.1654 220.393 72.3608 220.883 72.3608C221.374 72.3608 221.79 72.1654 222.135 71.7745C222.48 71.3836 222.651 70.8783 222.651 70.2608C222.651 69.6433 222.478 69.1298 222.135 68.7181C221.79 68.3085 221.368 68.1026 220.869 68.1026C220.37 68.1026 219.94 68.3106 219.582 68.7243C219.224 69.1402 219.045 69.6537 219.045 70.2671Z" fill="white"/>
<path d="M233.345 72.9555C232.487 73.7663 231.48 74.1718 230.324 74.1718C229.168 74.1718 228.214 73.8162 227.459 73.1031C226.704 72.392 226.328 71.4356 226.328 70.238C226.328 69.0404 226.713 68.0881 227.48 67.3812C228.249 66.6742 229.156 66.3208 230.204 66.3208C231.252 66.3208 232.139 66.6368 232.869 67.2689C233.599 67.901 233.965 68.768 233.965 69.872V71.0031H228.42C228.486 71.4189 228.703 71.7578 229.071 72.0219C229.439 72.286 229.852 72.419 230.316 72.419C231.06 72.419 231.674 72.1695 232.154 71.6684L233.341 72.9555H233.345ZM231.308 68.4436C231.015 68.1983 230.659 68.0756 230.239 68.0756C229.819 68.0756 229.434 68.2024 229.087 68.4582C228.738 68.7118 228.536 69.057 228.48 69.4915H231.819C231.771 69.0383 231.603 68.6911 231.31 68.4436H231.308Z" fill="white"/>
<path d="M242.06 71.5063C242.428 71.9637 242.923 72.1924 243.544 72.1924C244.166 72.1924 244.659 71.9637 245.023 71.5063C245.387 71.0488 245.567 70.4251 245.567 69.6329V64.173H247.773V69.7036C247.773 71.1362 247.376 72.2381 246.586 73.0074C245.794 73.7767 244.779 74.1593 243.544 74.1593C242.309 74.1593 241.293 73.7726 240.496 72.9991C239.7 72.2257 239.301 71.1279 239.301 69.7036V64.173H241.507V69.6329C241.507 70.4251 241.69 71.0509 242.058 71.5063H242.06Z" fill="white"/>
<path d="M255.385 71.6892C255.385 72.4398 255.108 73.0407 254.557 73.4919C254.006 73.9451 253.306 74.1718 252.457 74.1718C251.892 74.1718 251.301 74.0699 250.69 73.8682C250.077 73.6645 249.526 73.3651 249.035 72.97L249.969 71.6393C250.761 72.2527 251.605 72.5583 252.501 72.5583C252.776 72.5583 252.992 72.5043 253.152 72.3962C253.312 72.288 253.393 72.1446 253.393 71.9637C253.393 71.7828 253.283 71.6206 253.06 71.4688C252.838 71.3191 252.518 71.1757 252.098 71.0447C251.678 70.9137 251.358 70.7993 251.135 70.7058C250.913 70.6122 250.661 70.475 250.378 70.2962C249.802 69.9386 249.515 69.4084 249.515 68.7056C249.515 68.0028 249.798 67.4311 250.364 66.9861C250.929 66.5433 251.661 66.3208 252.555 66.3208C253.449 66.3208 254.347 66.6223 255.244 67.2252L254.451 68.6391C253.792 68.1858 253.133 67.9592 252.478 67.9592C251.823 67.9592 251.495 68.138 251.495 68.4956C251.495 68.6931 251.599 68.8491 251.807 68.9634C252.015 69.0757 252.358 69.2088 252.84 69.3605C253.32 69.5123 253.663 69.6267 253.865 69.7078C254.067 69.7889 254.31 69.9136 254.593 70.082C255.121 70.4022 255.385 70.9386 255.385 71.6872V71.6892Z" fill="white"/>
<path d="M264.621 70.2546C264.621 71.3586 264.238 72.286 263.475 73.0407C262.712 73.7954 261.751 74.1718 260.597 74.1718C259.443 74.1718 258.483 73.7954 257.72 73.0407C256.957 72.286 256.574 71.3566 256.574 70.2546C256.574 69.1526 256.957 68.2191 257.72 67.4602C258.483 66.7013 259.443 66.3208 260.597 66.3208C261.751 66.3208 262.712 66.7013 263.475 67.4602C264.238 68.2191 264.621 69.1506 264.621 70.2546ZM258.707 70.2546C258.707 70.8763 258.884 71.3836 259.238 71.7745C259.591 72.1654 260.044 72.3608 260.595 72.3608C261.146 72.3608 261.6 72.1654 261.953 71.7745C262.307 71.3836 262.483 70.8763 262.483 70.2546C262.483 69.6329 262.307 69.1235 261.953 68.7264C261.6 68.3293 261.146 68.1318 260.595 68.1318C260.044 68.1318 259.591 68.3293 259.238 68.7264C258.884 69.1214 258.707 69.6308 258.707 70.2546Z" fill="white"/>
<path d="M270.137 64.1709H272.343V74.0595H270.137V64.1709Z" fill="white"/>
<path d="M276.615 74.0595H274.492V63.5638H276.615V74.0595Z" fill="white"/>
<path d="M278.625 66.4497H280.748V74.0595H278.625V66.4497ZM280.719 65.4163H278.696L280.492 62.913L282.686 63.832L280.719 65.4163Z" fill="white"/>
<path d="M286.404 72.2922C287.111 72.2922 287.747 71.9387 288.313 71.2318L289.573 72.6457C288.591 73.6645 287.531 74.1739 286.39 74.1739C285.248 74.1739 284.283 73.8142 283.497 73.0927C282.709 72.3712 282.316 71.4293 282.316 70.2629C282.316 69.0965 282.716 68.1505 283.512 67.4207C284.308 66.6909 285.254 66.325 286.348 66.325C286.895 66.325 287.448 66.4372 288.009 66.6639C288.571 66.8905 289.063 67.2252 289.488 67.6681L288.383 69.1111C288.138 68.8179 287.839 68.5933 287.485 68.4312C287.132 68.2711 286.78 68.19 286.431 68.19C285.874 68.19 285.396 68.3709 284.994 68.7347C284.593 69.0986 284.394 69.6017 284.394 70.2484C284.394 70.895 284.593 71.3961 284.994 71.7558C285.396 72.1134 285.863 72.2943 286.402 72.2943L286.404 72.2922Z" fill="white"/>
<path d="M291.164 65.4808C290.923 65.2396 290.805 64.9464 290.805 64.5971C290.805 64.2478 290.925 63.9526 291.164 63.7135C291.403 63.4744 291.699 63.3517 292.048 63.3517C292.397 63.3517 292.693 63.4723 292.932 63.7135C293.173 63.9547 293.293 64.2478 293.293 64.5971C293.293 64.9464 293.173 65.2417 292.932 65.4808C292.691 65.722 292.397 65.8426 292.048 65.8426C291.699 65.8426 291.403 65.722 291.164 65.4808ZM293.108 74.0595H290.986V66.4497H293.108V74.0595Z" fill="white"/>
<path d="M297.648 67.9779V71.3877C297.648 71.6809 297.723 71.9096 297.875 72.0739C298.027 72.2381 298.206 72.3213 298.414 72.3213C298.809 72.3213 299.143 72.1425 299.418 71.7849L300.21 73.2694C299.551 73.8724 298.854 74.1739 298.122 74.1739C297.391 74.1739 296.773 73.9327 296.27 73.4524C295.765 72.9721 295.513 72.3171 295.513 71.4855V67.9779H294.621V66.4497H295.513V64.173H297.648V66.4497H299.486V67.9779H297.648Z" fill="white"/>
<path d="M308.867 70.2546C308.867 71.3586 308.484 72.286 307.721 73.0407C306.958 73.7954 305.997 74.1718 304.844 74.1718C303.69 74.1718 302.729 73.7954 301.966 73.0407C301.203 72.286 300.82 71.3566 300.82 70.2546C300.82 69.1526 301.203 68.2191 301.966 67.4602C302.729 66.7013 303.69 66.3208 304.844 66.3208C305.997 66.3208 306.958 66.7013 307.721 67.4602C308.484 68.2191 308.867 69.1506 308.867 70.2546ZM302.954 70.2546C302.954 70.8763 303.13 71.3836 303.484 71.7745C303.837 72.1654 304.29 72.3608 304.841 72.3608C305.392 72.3608 305.846 72.1654 306.199 71.7745C306.553 71.3836 306.729 70.8763 306.729 70.2546C306.729 69.6329 306.553 69.1235 306.199 68.7264C305.846 68.3293 305.392 68.1318 304.841 68.1318C304.29 68.1318 303.837 68.3293 303.484 68.7264C303.13 69.1214 302.954 69.6308 302.954 70.2546Z" fill="white"/>
</g>
<defs>
<clipPath id="clip0_159_185500">
<rect width="276.481" height="72" fill="white" transform="translate(32.3867 24.0552)"/>
</clipPath>
</defs>
</svg>
