<svg width="180" height="121" viewBox="0 0 180 121" fill="none" xmlns="http://www.w3.org/2000/svg">
<g clip-path="url(#clip0_157_184812)">
<path d="M65.4182 35.547C65.4182 32.1491 65.4246 28.7512 65.4133 25.3533C65.4133 24.8039 65.6477 24.596 66.1195 24.596C69.2489 24.596 72.3784 24.5753 75.5071 24.6206C75.9309 24.6267 76.5397 24.6075 76.6979 25.321C76.7092 25.3686 76.8448 25.4323 76.8928 25.4108C76.9987 25.3632 77.1414 25.285 77.1703 25.1852C77.2911 24.7771 77.5517 24.5937 77.919 24.593C80.0717 24.5883 82.2272 24.5546 84.377 24.6083C86.1208 24.652 87.8186 25.1668 89.347 25.9893C90.6436 26.6882 91.7341 27.8436 92.6169 29.1455C92.7928 29.4048 92.9785 29.3266 93.1692 29.3028C93.3755 29.2767 93.3585 29.0726 93.3592 28.9077C93.3634 27.9372 93.4666 26.9498 93.338 25.9992C93.1749 24.7947 93.9165 24.6436 94.6093 24.6183C96.6186 24.55 98.635 24.537 100.643 24.6183C101.773 24.6643 102.941 24.7901 104.017 25.1477C105.721 25.7138 107.106 26.7895 107.629 28.811C107.68 29.0097 107.912 29.2821 108.071 29.2905C108.347 29.3059 108.308 28.9775 108.309 28.7535C108.309 27.7316 108.309 26.7097 108.309 25.6847C108.309 24.7932 109.021 24.316 109.758 24.7395C110.167 24.975 110.481 24.5914 110.829 24.6106C111.686 24.6574 112.54 24.7756 113.392 24.8906C113.643 24.9244 113.655 25.1722 113.654 25.4031C113.654 26.8079 113.654 28.2134 113.659 29.6181C113.659 29.7715 113.721 29.9196 113.754 30.0708C113.886 29.9802 114.073 29.9242 114.142 29.7938C115.213 27.7845 116.685 26.3307 118.662 25.3379C120.326 24.5009 122.002 23.9278 123.813 24.072C125.262 24.1871 126.702 24.5009 127.974 25.3763C128.031 25.4154 128.208 25.3816 128.221 25.341C128.486 24.5116 129.053 24.8492 129.607 24.7932C130.756 24.6766 131.883 24.9367 133.02 24.8446C133.49 24.8062 133.701 25.1054 133.701 25.5988C133.701 27.8597 133.707 30.1206 133.701 32.3815C133.701 32.8158 133.831 32.9953 134.254 32.9953C136.242 32.9789 138.23 32.9789 140.218 32.9953C140.729 32.9953 140.938 32.7283 140.938 32.2105C140.938 30.1646 140.938 28.1208 140.938 26.079C140.938 24.672 141.209 24.4395 142.515 24.5914C143.542 24.7111 144.575 24.7871 145.608 24.8308C146.089 24.8507 146.286 24.9842 146.285 25.5581C146.267 32.2644 146.266 38.9708 146.281 45.6771C146.281 46.1658 146.128 46.3377 145.691 46.3323C144.256 46.3149 142.82 46.3121 141.383 46.3238C141.047 46.3238 140.931 46.198 140.932 45.8328C140.941 43.252 140.932 40.6719 140.941 38.091C140.941 37.6115 140.806 37.4006 140.33 37.4075C138.272 37.4284 136.213 37.4284 134.154 37.4075C133.797 37.4075 133.693 37.5241 133.694 37.9054C133.708 40.4371 133.699 42.9643 133.705 45.4937C133.705 46.0553 133.502 46.3377 132.954 46.3292C131.612 46.3131 130.27 46.3254 128.929 46.3223C128.787 46.3223 128.567 46.3584 128.52 46.2801C127.621 44.7956 126.834 46.3875 126.078 46.5103C124.611 46.755 123.171 46.9622 121.714 46.745C120.35 46.541 119.065 45.9732 117.842 45.295C117.291 44.9881 116.806 44.5278 116.32 44.1028C115.454 43.3356 114.673 42.4863 114.137 41.4C114.101 41.3271 113.888 41.3094 113.779 41.3447C113.716 41.3654 113.662 41.5427 113.661 41.6516C113.652 42.8906 113.626 44.1312 113.661 45.3687C113.684 46.1129 113.413 46.3983 112.749 46.3307C112.49 46.3039 112.184 46.2479 112.176 46.7143C112.168 47.1808 112.451 47.1547 112.746 47.1854C114.229 47.3389 115.387 48.2595 116.585 49.0942C117.912 50.0148 118.88 51.3367 119.804 52.6732C120.268 53.3452 120.542 54.1869 120.838 54.9794C121.433 56.58 121.708 58.3001 121.644 60.0252C121.598 61.5128 121.314 62.9245 120.862 64.3215C120.409 65.7158 119.71 67.0005 118.804 68.1031C117.747 69.4145 116.472 70.4971 115.046 71.2938C112.979 72.4446 110.826 72.9939 108.575 72.7753C106.684 72.5912 104.861 72.0296 103.203 70.8281C101.912 69.8929 100.75 68.8687 99.854 67.5154C99.1562 66.4517 98.5941 65.2904 98.183 64.063C97.5473 62.2071 97.4668 60.3283 97.5417 58.4103C97.5925 57.106 97.9393 55.8709 98.368 54.6587C98.5093 54.2513 98.5658 53.8961 97.9534 53.8915C95.026 53.8646 95.021 53.8539 95.0175 57.0217C95.0123 61.3144 95.0123 65.6066 95.0175 69.8983C95.0175 70.4553 94.8466 70.7008 94.2964 70.687C92.9679 70.6548 91.6374 70.6601 90.3089 70.687C89.8703 70.6954 89.7439 70.5335 89.7439 70.0694C89.7559 64.9974 89.7439 59.9263 89.7566 54.8551C89.7566 54.1961 89.5843 53.8454 88.8942 53.8838C87.9556 53.936 87.0128 53.8899 86.0692 53.9045C85.774 53.9084 85.6377 53.8079 85.6405 53.4695C85.6504 52.2052 85.6497 50.9378 85.6447 49.6757C85.6447 49.3643 85.762 49.2553 86.0494 49.2561C90.2729 49.2632 94.4963 49.2632 98.7197 49.2561C99.0566 49.2561 99.1498 49.4095 99.1435 49.7363C99.135 50.3877 99.1435 51.0406 99.1435 51.6904C99.1435 51.8776 99.1809 52.041 99.3638 52.1292C99.5467 52.2175 99.6357 52.0886 99.7346 51.9543C100.663 50.6827 101.765 49.573 103.002 48.6638C103.949 47.9733 104.974 47.4324 106.105 47.19C106.378 47.1317 106.419 46.9729 106.419 46.7412C106.419 46.5095 106.362 46.3169 106.082 46.3231C105.683 46.3315 105.262 46.2287 104.887 46.3323C103.474 46.7213 102.966 45.5651 102.382 44.613C101.575 43.2896 100.841 41.9132 100.064 40.5683C99.7812 40.0819 99.4479 39.6308 99.1731 39.1398C99.0771 38.9687 98.9789 38.9365 98.8363 38.9603C98.6244 38.9956 98.6908 39.1904 98.6901 39.3285C98.6844 41.4491 98.6759 43.5696 98.6901 45.6901C98.6901 46.1505 98.5488 46.3307 98.1201 46.3261C96.7076 46.3113 95.2951 46.3131 93.8825 46.3315C93.4644 46.3369 93.3324 46.1696 93.3401 45.7231C93.3606 44.5102 93.3465 43.2957 93.3401 42.0828C93.3401 41.914 93.3861 41.69 93.1516 41.6531C92.963 41.624 92.754 41.5611 92.6134 41.7958C91.8203 43.1223 90.6599 44.0261 89.479 44.8738C88.8095 45.3549 88.015 45.5743 87.219 45.8067C84.0846 46.7274 80.8966 46.1543 77.7382 46.3223C77.474 46.3361 77.2021 46.3752 77.1266 45.9441C77.0905 45.7377 76.7318 45.6909 76.7078 45.8282C76.5757 46.5916 76.041 46.31 75.6695 46.3123C72.4208 46.3323 69.1755 46.3123 65.9288 46.3315C65.5051 46.3315 65.3885 46.1896 65.3907 45.7392C65.4246 42.3436 65.4182 38.9449 65.4182 35.547ZM128.364 35.5785C128.364 35.1949 128.299 34.7967 128.375 34.4323C128.745 32.657 127.919 31.5722 126.632 30.7321C125.191 29.7907 123.658 29.3787 121.999 29.8736C121.284 30.0869 120.573 30.3876 120.022 30.9362C119.174 31.7801 118.525 32.7897 118.338 34.0686C118.151 35.3475 118.051 36.694 118.539 37.867C119.121 39.2679 120.016 40.385 121.512 40.9358C123.215 41.5595 124.726 41.3194 126.268 40.4954C126.874 40.1701 127.172 39.35 127.9 39.2932C128.253 39.2649 128.361 39.1398 128.361 38.7992C128.362 37.7246 128.363 36.651 128.364 35.5785ZM82.2893 35.4818C82.2893 37.142 82.2999 38.8022 82.2844 40.4625C82.278 41.0946 82.4334 41.4261 83.105 41.3831C84.0521 41.3225 84.9526 41.2204 85.8905 40.9067C87.6752 40.3082 89.1061 37.8885 89.0645 35.9697C89.0468 35.158 89.032 34.3717 88.8166 33.5584C88.5948 32.7199 88.2452 31.968 87.7353 31.3957C86.4852 29.9917 84.8855 29.4509 83.0817 29.5007C82.4461 29.5176 82.2935 29.816 82.2935 30.3868C82.2931 32.0849 82.2917 33.7832 82.2893 35.4818ZM77.003 35.3215C77.003 33.3267 77.003 31.3359 76.9973 29.3435C76.9973 29.2268 76.9168 29.1133 76.8737 28.9944C76.8144 29.0205 76.7035 29.0427 76.7021 29.0711C76.6654 29.6672 76.2515 29.5161 75.9365 29.5199C75.0664 29.5307 74.1956 29.5199 73.3234 29.5199C70.6304 29.5138 70.6396 29.5138 70.6629 32.4429C70.6629 32.8641 70.7723 33.0229 71.1827 33.0168C72.7117 32.9945 74.2408 33.0168 75.7698 33.0053C76.0361 33.0053 76.207 33.0759 76.207 33.4012C76.207 34.7553 76.207 36.1086 76.2028 37.4627C76.2028 37.8072 76.0439 37.9583 75.7133 37.9522C74.9018 37.9376 74.0889 37.9483 73.2789 37.9483C70.6149 37.9483 70.6205 37.9483 70.6657 40.8637C70.6721 41.2511 70.7964 41.3685 71.1424 41.3662C72.824 41.3532 74.5063 41.3578 76.1879 41.3662C76.3343 41.379 76.4776 41.4187 76.6117 41.4836C76.7078 41.5325 76.7996 41.5911 76.8857 41.6585C76.9239 41.5381 76.9938 41.4169 76.9945 41.2956C77.0037 39.3063 77.0023 37.3139 77.003 35.3215ZM103.578 59.7483C102.262 59.7483 100.934 59.8664 99.6322 59.7153C98.2861 59.5618 97.9979 60.1756 98.2126 61.4185C98.2169 61.443 98.2126 61.4691 98.2126 61.4952C98.3539 62.557 98.5862 63.2789 99.9076 63.183C102.189 63.0158 104.488 63.1385 106.78 63.1385C109.124 63.1385 109.103 63.1385 109.132 60.5761C109.139 59.9002 108.842 59.7475 108.336 59.7475C106.751 59.7444 105.165 59.7447 103.578 59.7483ZM115.368 59.9385H113.712C113.147 59.9385 112.582 59.9385 112.017 59.9385C109.771 59.9516 109.777 59.9524 109.783 62.3897C109.783 62.913 109.952 63.1431 110.462 63.1401C113.223 63.124 115.985 63.1117 118.746 63.1401C119.859 63.1531 121.021 63.3587 120.729 61.4591C120.712 61.3517 120.828 61.229 120.845 61.1039C120.932 60.4817 121.139 59.8572 120.124 59.9101C118.543 59.9953 116.954 59.9355 115.368 59.9385ZM114.991 63.8612C113.451 63.8612 111.911 63.8612 110.372 63.8612C110.201 63.8612 110.059 63.8428 109.969 64.1014C109.652 65.009 109.814 65.9357 109.852 66.8502C109.864 67.1387 110.101 67.3543 110.477 67.3504C112.968 67.3266 115.46 67.3389 117.952 67.3274C118.124 67.3308 118.293 67.2746 118.434 67.1671C119.083 66.5886 119.282 65.6894 119.725 64.9675C120.472 63.7523 119.72 63.8482 118.975 63.8558C117.647 63.8697 116.319 63.8605 114.991 63.8612ZM104.049 63.8566V63.862C102.556 63.862 101.063 63.862 99.5701 63.8658C99.4168 63.8658 99.1993 63.8167 99.1625 64.0569C99.1315 64.2617 99.1131 64.5087 99.1887 64.6867C99.3906 65.1835 99.6316 65.6604 99.9091 66.1122C100.24 66.6293 100.512 67.319 101.202 67.3274C103.623 67.3581 106.046 67.3481 108.467 67.3274C108.848 67.3274 109.118 67.0842 109.116 66.6086C109.116 65.9833 109.107 65.3573 109.116 64.732C109.125 64.1328 108.884 63.8451 108.315 63.8505C106.894 63.8658 105.472 63.8566 104.049 63.8566ZM103.625 59.2066C105.273 59.2066 106.919 59.2066 108.564 59.2066C108.748 59.2066 109.033 59.2481 109.05 59.0171C109.102 58.309 109.191 57.5702 109.05 56.8935C108.98 56.5375 108.429 56.7478 108.075 56.7455C106.224 56.7363 104.373 56.6641 102.522 56.6342C102.088 56.6265 101.662 56.7194 101.216 56.7109C100.228 56.6933 99.0545 56.1417 98.3129 57.3454C97.7733 58.2208 98.2861 59.2097 99.2148 59.2097C100.684 59.2087 102.154 59.2077 103.623 59.2066H103.625ZM115.316 59.212C116.729 59.212 118.146 59.1176 119.548 59.2412C120.72 59.3447 121.102 58.9044 120.89 57.7029C120.829 57.3584 120.929 56.9656 120.495 56.79C119.53 56.3995 118.554 56.7784 117.581 56.7247C115.647 56.6173 113.702 56.948 111.76 56.6381C110.263 56.3987 109.783 56.879 109.774 58.4793C109.774 59.0164 109.926 59.2266 110.446 59.2174C112.068 59.1898 113.691 59.2082 115.314 59.212H115.316ZM115.007 56.0511C116.583 56.0511 118.159 56.0511 119.734 56.0511C120.088 56.0511 120.427 55.9437 120.451 55.5141C120.497 54.6426 119.613 53.7043 118.802 53.7043C116.321 53.7043 113.835 53.8079 111.361 53.6652C109.987 53.5884 109.557 54.0488 109.766 55.4612C109.831 55.8931 109.947 56.0634 110.352 56.0596C111.901 56.0419 113.454 56.0511 115.005 56.0511H115.007ZM108.32 38.2192C108.32 36.7615 108.324 35.3084 108.315 33.853C108.315 33.6229 108.431 33.2539 108.09 33.2316C107.797 33.2124 107.687 33.5699 107.616 33.8185C107.121 35.5424 106.039 36.618 104.508 37.2233C104.332 37.2932 104.06 37.4136 104.041 37.5448C104.013 37.742 104.137 37.9959 104.253 38.1785C104.481 38.5245 104.764 38.8268 105.001 39.1651C105.881 40.4195 106.746 41.6869 107.636 42.9328C107.696 43.0059 107.769 43.0643 107.851 43.104C107.933 43.1437 108.022 43.1638 108.112 43.163C108.358 43.1361 108.311 42.8561 108.311 42.6628C108.316 41.1805 108.314 39.6999 108.318 38.2192H108.32ZM113.632 68.0793V68.0747C112.526 68.0747 111.42 68.0831 110.312 68.0701C109.951 68.0701 109.79 68.2342 109.79 68.614C109.79 69.5584 109.785 70.5036 109.79 71.4488C109.79 71.7941 109.988 72.091 110.269 71.9859C111.187 71.6352 112.159 71.7281 113.11 71.3567C114.632 70.7637 115.93 69.8868 117.17 68.8319C117.352 68.6785 117.306 68.4659 117.282 68.2665C117.254 68.0447 117.079 68.0846 116.948 68.0846C115.841 68.077 114.736 68.0793 113.63 68.0793H113.632ZM105.333 68.0724C104.203 68.0724 103.077 68.0724 101.949 68.0793C101.839 68.0793 101.687 68.1391 101.632 68.2273C101.578 68.3156 101.585 68.5243 101.646 68.5864C102.601 69.5638 103.663 70.4039 104.849 70.9916C105.94 71.5286 107.133 71.7848 108.323 71.9889C108.805 72.071 109.177 72.0656 109.135 71.3222C109.084 70.42 109.106 69.5109 109.126 68.6056C109.136 68.1836 108.985 68.0563 108.612 68.0624C107.518 68.0846 106.424 68.0724 105.331 68.0724H105.333ZM103.997 55.7788C105.551 55.7788 107.1 55.7512 108.65 55.7918C109.267 55.8079 109.177 55.366 109.099 55.0484C109.001 54.6503 109.561 53.893 108.636 53.8923C105.78 53.8923 102.925 53.8991 100.069 53.8823C99.7092 53.8823 99.4267 53.959 99.2529 54.3019C99.0411 54.7208 98.7536 55.1834 98.9563 55.6468C99.0976 55.9621 99.5135 55.7665 99.8038 55.7704C101.198 55.7888 102.596 55.7788 103.995 55.7788H103.997ZM98.6999 31.6773C98.6999 32.3409 98.7105 33.0053 98.695 33.672C98.6872 34.008 98.8871 34.1837 99.1096 34.252C99.8766 34.4867 100.682 34.2282 101.282 33.8776C102.805 32.9869 102.827 30.8088 101.449 29.7347C100.636 29.101 99.6725 29.1133 98.8511 29.3964C98.4429 29.5376 98.7621 30.5119 98.7014 31.1049C98.6901 31.2963 98.6894 31.4882 98.6992 31.6796L98.6999 31.6773ZM115.601 51.2953C114.919 51.2953 114.237 51.2953 113.553 51.2953C113.284 51.2953 113.068 51.4886 113.223 51.7019C113.555 52.1622 113.923 52.7077 114.389 52.901C115.656 53.4281 117.012 53.0644 118.329 53.0997C118.508 53.1051 119.068 52.9332 118.917 52.733C118.466 52.1354 118.239 51.1603 117.222 51.283C116.688 51.3475 116.142 51.2937 115.601 51.2953H115.601ZM111.826 48.7114H113.13C113.271 48.7114 113.412 48.6822 113.401 48.4965C113.391 48.3109 113.384 48.06 113.284 47.9871C113.044 47.8172 112.776 47.698 112.495 47.6357C110.812 47.266 109.109 47.1678 107.41 47.4278C106.804 47.5199 106.217 47.78 105.626 47.9764C105.442 48.037 105.38 48.2173 105.418 48.4083C105.438 48.5142 105.534 48.6983 105.571 48.6914C106.814 48.4651 108.225 49.3612 109.309 48.0439C109.35 47.994 109.521 47.9825 109.546 48.0194C110.127 48.9492 111.017 48.6699 111.826 48.7114ZM102.433 53.1335C103.308 53.0828 104.242 53.3475 104.992 52.6172C105.291 52.3256 105.628 52.0356 105.698 51.5661C105.71 51.4963 105.58 51.3229 105.539 51.3313C103.766 51.685 101.635 50.2396 100.253 52.5589C100.207 52.6356 100.126 52.7299 100.139 52.7982C100.153 52.8665 100.266 52.9102 100.342 52.9455C101.021 53.257 101.735 53.0844 102.433 53.1312V53.1335ZM104.51 50.7628V50.7537C105.133 50.7537 105.76 50.8127 106.374 50.7337C106.813 50.6769 107.315 50.5388 107.412 49.9174C107.453 49.6573 107.47 49.2898 107.13 49.2921C105.743 49.3013 104.332 49.0113 102.982 49.4908C102.639 49.6128 102.072 49.9021 102.141 50.4069C102.207 50.891 102.745 50.7444 103.102 50.7582C103.571 50.7736 104.041 50.7605 104.51 50.7605V50.7628ZM114.186 50.5672C114.995 50.5672 115.654 50.5734 116.312 50.5603C116.404 50.5603 116.554 50.4836 116.574 50.4069C116.606 50.2903 116.594 50.0785 116.524 50.0233C116.118 49.7103 115.747 49.385 115.161 49.431C114.144 49.5077 113.113 49.4456 112.093 49.4563C111.89 49.4563 111.587 49.3405 111.528 49.6696C111.475 49.9588 111.675 50.1752 111.899 50.3271C112.675 50.8534 113.533 50.3992 114.188 50.5649L114.186 50.5672ZM111.418 53.1335C111.7 53.1335 111.983 53.1412 112.265 53.1335C112.492 53.1258 112.768 53.2041 112.895 52.9179C113.036 52.5995 112.776 52.407 112.634 52.186C112.163 51.4503 111.519 51.2615 110.702 51.2654C109.933 51.2692 109.756 51.5492 109.759 52.3287C109.759 53.1519 110.196 53.1488 110.716 53.1389C110.951 53.1312 111.185 53.1343 111.42 53.1312L111.418 53.1335ZM107.604 53.1673V53.1312C107.92 53.1312 108.239 53.1588 108.553 53.1251C109.054 53.0714 109.33 52.7046 109.254 52.1998C109.193 51.7894 109.17 51.3674 108.518 51.2516C107.266 51.0283 106.697 51.9896 105.947 52.6678C105.825 52.7775 105.885 53.0368 106.109 53.0606C106.608 53.1097 107.107 53.1312 107.604 53.165L107.604 53.1673ZM110.433 50.7698C110.581 50.6777 111.074 51.0076 111.002 50.4061C110.926 49.7785 110.495 49.4018 109.942 49.3788C109.53 49.3619 109.583 49.8269 109.585 50.146C109.592 50.7007 109.898 50.8542 110.434 50.7675L110.433 50.7698ZM109.314 50.0294C109.314 49.744 109.289 49.3965 108.903 49.4671C108.48 49.5438 108.172 49.8453 108.095 50.3271C108.045 50.6447 108.262 50.802 108.505 50.7345C108.847 50.637 109.364 50.7176 109.314 50.0271L109.314 50.0294Z" fill="white"/>
<path d="M32.794 59.9892C32.794 56.6044 32.7982 53.2202 32.7876 49.8354C32.7876 49.4042 32.9183 49.2569 33.3208 49.2584C36.7434 49.2715 40.1666 49.2661 43.5898 49.2661C46.6536 49.2661 49.718 49.2408 52.7818 49.2761C54.4267 49.2953 55.8674 49.866 56.9953 51.2785C58.0406 52.5873 58.2475 56.0758 57.4897 57.37C57.1853 57.891 56.9078 58.4195 56.5045 58.8661C56.2283 59.1729 56.5137 59.4844 57.3061 59.7445C57.3393 59.7552 57.3838 59.7445 57.4092 59.7652C59.1092 61.1078 58.624 59.4698 58.6317 58.6681C58.66 55.7052 58.6473 52.7423 58.6374 49.7786C58.6374 49.4011 58.749 49.2592 59.1063 49.26C62.5764 49.2702 66.0465 49.2722 69.5166 49.2661C72.5267 49.2661 75.5382 49.2968 78.5482 49.2546C80.3082 49.2293 81.9383 49.7149 83.2802 50.8795C83.7926 51.3167 84.2192 51.861 84.5346 52.4804C84.85 53.0997 85.0478 53.7815 85.1164 54.4854C85.2259 55.7014 85.3128 56.9718 84.9046 58.1426C84.3396 59.7675 83.3939 61.0748 81.862 61.7776C81.6028 61.8957 81.3577 62.0522 81.1063 62.1911C81.3563 62.6 81.5866 63.0258 81.8606 63.4186C82.5506 64.3975 83.266 65.3558 83.9596 66.334C84.6327 67.2837 85.2895 68.2474 85.9576 69.2017C86.2302 69.5915 86.5304 69.9597 86.7853 70.3625C86.9216 70.5789 86.7853 70.6901 86.5735 70.6901C84.6207 70.6901 82.6657 70.7423 80.7164 70.6579C80.0808 70.6303 79.9502 69.7725 79.6352 69.2831C78.7305 67.8806 77.9225 66.4038 77.0743 64.9584C76.8101 64.508 76.5389 64.0638 76.272 63.6158C76.1794 63.4623 76.0325 63.3465 75.8984 63.4623C75.8058 63.5437 75.7705 63.7477 75.7698 63.8973C75.7599 65.9918 75.755 68.0862 75.7656 70.1807C75.7656 70.5643 75.6547 70.6993 75.298 70.6939C74.1454 70.6763 72.9928 70.6878 71.8374 70.6878C67.6168 70.6878 63.3962 70.6824 59.1749 70.6962C58.7511 70.6962 58.6332 70.5428 58.6275 70.0963C58.6226 69.6858 58.8584 69.0989 58.5011 68.8949C58.0886 68.6586 57.8358 69.2984 57.5208 69.5278C56.6111 70.1907 55.6259 70.6341 54.5686 70.6594C51.6292 70.7285 48.6876 70.687 45.7468 70.6878C41.637 70.6878 37.5273 70.6801 33.4169 70.7009C32.9091 70.7009 32.7812 70.5213 32.7812 69.9958C32.8031 66.6546 32.7947 63.3204 32.794 59.9892ZM44.5963 59.9662C44.5963 58.319 44.6167 56.6673 44.5857 55.0247C44.5744 54.4309 45.0355 53.4581 43.6675 53.847C42.7105 54.1202 41.6342 53.9007 40.6108 53.9007C38.0542 53.9007 38.0761 53.9008 38.0478 56.6995C38.0401 57.4299 38.3346 57.5956 38.9059 57.5894C40.329 57.5764 41.7521 57.6025 43.1746 57.5726C43.6838 57.5618 43.8858 57.7107 43.8653 58.3029C43.825 59.4637 43.842 60.6268 43.8603 61.7883C43.8667 62.2018 43.7403 62.3522 43.3525 62.3484C41.7988 62.333 40.245 62.3484 38.6962 62.3438C38.2724 62.3438 38.0464 62.5225 38.0605 63.0273C38.0796 63.8713 38.0838 64.7152 38.0528 65.5545C38.0365 65.9695 38.1693 66.044 38.5281 66.0639C40.4131 66.1659 42.3129 65.7869 44.1859 66.2718C44.4734 66.3485 44.6033 66.2174 44.6005 65.8652C44.5871 63.8966 44.5941 61.9302 44.5963 59.9639V59.9662ZM70.4277 60.0706C70.4277 58.1526 70.4277 56.2346 70.4319 54.3227C70.4319 54.0227 70.3613 53.8885 70.0569 53.8923C68.2206 53.9107 66.3843 53.9115 64.5523 53.9184C64.363 53.9184 64.1865 53.9061 64.0932 54.1616C63.726 55.159 63.94 56.1839 63.9986 57.1959C64.0113 57.4145 64.2677 57.3923 64.4457 57.3915C66.0453 57.3915 67.645 57.3846 69.2447 57.3961C69.6932 57.3961 69.9622 57.6431 69.9601 58.171C69.9552 59.2566 69.9079 60.346 69.975 61.427C70.0322 62.3476 69.5731 62.5402 68.8972 62.5432C67.4141 62.5486 65.9309 62.5432 64.4478 62.5432C64.2698 62.5432 64.024 62.5195 63.9986 62.7412C63.8729 63.7217 63.8136 64.7098 64.0226 65.6864C64.0862 65.9856 64.3122 66.0455 64.5876 66.0439C66.2459 66.0309 67.907 66.0378 69.5632 66.0439C69.7108 66.0439 69.8839 66.0493 70.0004 66.1299C70.3443 66.3662 70.4241 66.2258 70.4241 65.8521C70.427 63.9257 70.4298 61.997 70.4277 60.0659V60.0706ZM49.92 64.1183C49.92 66.2795 49.92 66.2795 51.9187 66.2787C52.1539 66.2787 52.3891 66.2787 52.625 66.268C53.5431 66.2197 54.7099 64.8333 54.5037 64.0431C54.1011 62.5033 53.4803 62.0223 51.8827 62.0131C49.9222 62.0046 49.9222 62.0047 49.92 64.1183ZM76.772 58.685C79.2347 58.6904 80.316 56.8184 79.1394 54.6956C78.6153 53.7504 77.5856 53.8961 76.7423 53.679C75.9796 53.4819 75.815 54.045 75.7981 54.681C75.7733 55.6246 75.7769 56.5698 75.7931 57.5142C75.808 58.2738 75.9174 58.9643 76.772 58.685ZM49.92 55.6392H49.8734C49.9214 56.2668 49.8141 56.9818 50.0599 57.4997C50.3226 58.0536 52.6843 57.2357 52.8567 56.5882C53.2013 55.2917 53.1342 54.3173 51.6821 53.8041C50.4879 53.3821 49.9165 53.6223 49.9165 54.9464C49.9207 55.1797 49.92 55.4098 49.92 55.6392Z" fill="white"/>
<path d="M107.925 84.5473C107.925 81.1716 107.932 77.8028 107.917 74.431C107.917 73.9707 108.058 73.8341 108.469 73.8418C109.633 73.8633 110.811 73.9661 111.959 73.8157C113.032 73.6745 113.573 74.3182 114.116 75.067C114.964 76.2301 115.777 77.4161 116.61 78.5892C117.611 80.0008 118.617 81.4097 119.626 82.8157C120.37 83.8483 121.126 84.8713 121.892 85.8845C121.952 85.9612 122.144 85.9904 122.241 85.9474C122.318 85.9129 122.363 85.7441 122.39 85.6252C122.774 83.8936 122.314 82.1605 122.39 80.4228C122.47 78.4872 122.394 76.5438 122.406 74.6044C122.406 74.1724 122.539 73.8372 123.064 73.8441C124.452 73.8694 125.84 73.8556 127.231 73.8441C127.551 73.8441 127.668 73.9661 127.662 74.3159C127.646 75.1844 127.638 76.0536 127.668 76.9244C127.679 77.2259 127.469 77.6455 127.82 77.8212C128.319 78.0698 128.439 77.4821 128.652 77.2182C129.699 75.9232 130.896 74.889 132.346 74.1433C134.408 73.083 136.575 72.928 138.77 73.1314C140.157 73.2595 141.464 73.7842 142.675 74.6128C144.229 75.6769 145.342 77.1162 146.145 78.8784C146.245 79.0986 145.813 79.4339 145.269 79.6656C144.188 80.1259 143.132 80.6583 142.05 81.1148C141.608 81.302 141.167 81.302 140.937 80.6744C140.235 78.7649 137.72 77.4399 135.9 78.0928C134.225 78.6928 133.158 79.9717 132.496 81.77C131.853 83.5192 131.989 85.2477 132.255 87.01C132.558 89.0146 134.5 90.8153 136.331 91.2464C137.826 91.5986 138.975 91.0869 140.096 90.2322C140.732 89.7481 140.912 88.9072 141.173 88.1608C141.287 87.8332 140.98 87.7772 140.749 87.7772C139.689 87.7703 138.63 87.7618 137.571 87.7772C137.251 87.7818 137.13 87.6698 137.134 87.3168C137.148 86.1415 137.146 84.9661 137.134 83.7916C137.134 83.4739 137.224 83.3389 137.532 83.3182C139.821 83.1648 142.115 82.9162 144.402 83.1164C145.253 83.1931 146.109 83.2699 146.963 83.3397C147.051 83.3474 147.195 83.5069 147.198 83.6005C147.25 85.4042 147.099 87.1519 146.611 88.9188C146.046 90.9572 144.987 92.5583 143.546 93.8419C142.661 94.6336 141.574 95.196 140.439 95.6064C139.432 95.9739 138.378 95.9831 137.374 96.0414C136.369 96.0997 135.305 95.944 134.266 95.7108C133.302 95.4929 132.457 95.0832 131.609 94.6129C130.458 93.9746 129.436 93.1644 128.682 92.0044C128.477 91.6868 128.278 91.3423 127.855 91.472C127.463 91.5924 127.67 91.9714 127.662 92.2215C127.632 93.1015 127.642 93.9861 127.653 94.8645C127.658 95.2228 127.529 95.3709 127.195 95.3686C125.771 95.3594 124.347 95.3954 122.925 95.354C121.907 95.3241 121.742 94.2078 121.238 93.5695C119.935 91.9139 118.733 90.1639 117.508 88.437C116.396 86.8703 115.306 85.2853 114.205 83.7095C114.082 83.533 113.974 83.3328 113.821 83.197C113.697 83.0947 113.543 83.0438 113.388 83.0535C113.135 83.0781 113.191 83.3328 113.191 83.5138C113.186 87.2179 113.18 90.9219 113.191 94.6259C113.191 95.1768 112.979 95.377 112.498 95.3732C111.193 95.3632 109.885 95.3548 108.581 95.3732C108.101 95.3816 107.912 95.2036 107.914 94.6651C107.929 91.2909 107.925 87.9191 107.925 84.5473Z" fill="white"/>
<path d="M32.8028 35.5624C32.8028 32.2635 32.8452 28.9714 32.7739 25.6778C32.7541 24.7802 33.4257 24.5432 33.7146 24.6766C34.4103 24.9989 34.971 24.5685 35.5911 24.5792C38.0376 24.6206 40.4912 24.4687 42.9292 24.6291C45.875 24.8217 48.8066 24.4411 51.7475 24.5807C52.8726 24.629 53.9885 24.8219 55.0719 25.1554C56.7556 25.684 58.0841 26.7573 58.6477 28.6929C58.6793 28.8112 58.752 28.9115 58.8505 28.9726C58.9489 29.0337 59.0654 29.0509 59.1752 29.0205C59.4577 28.9592 59.349 28.7221 59.3504 28.5602C59.3617 27.5511 59.3633 26.542 59.3553 25.5328C59.3469 24.5079 59.9549 24.4288 60.6118 24.6598C61.1436 24.8477 61.6111 24.7365 62.1295 24.7089C62.7355 24.6743 63.3633 24.5846 63.9658 24.6506C64.3408 24.6912 64.6141 25.0541 64.6134 25.5973C64.5993 32.2775 64.5972 38.9573 64.6071 45.6365C64.6071 46.1068 64.4319 46.3308 63.9771 46.327C61.1189 46.3185 58.2564 46.2503 55.4038 46.3561C54.2455 46.3976 54.033 45.4808 53.5739 44.7742C53.071 44.0008 52.624 43.1845 52.1614 42.3836C51.6599 41.5243 51.1677 40.6582 50.6641 39.8004C50.5045 39.5144 50.3231 39.2433 50.1217 38.9903C50.0645 38.9212 49.8477 38.9281 49.7601 38.9903C49.6838 39.0455 49.6584 39.2296 49.6577 39.357C49.6511 41.4637 49.6511 43.5709 49.6577 45.6787C49.6577 46.1298 49.4762 46.3247 49.0658 46.3232C47.6533 46.317 46.2408 46.3132 44.8283 46.3293C44.4794 46.3331 44.3925 46.1827 44.3932 45.8275C44.401 40.629 44.3883 35.4305 44.4109 30.2327C44.4109 29.6343 44.2527 29.4916 43.7223 29.5031C42.0054 29.5407 40.2878 29.5269 38.5708 29.5138C38.2036 29.5138 38.0814 29.655 38.0765 30.0509C38.0157 33.0138 38.0108 33.0138 40.7249 33.013C41.5251 33.013 42.3246 33.0238 43.1262 33.013C43.5217 33.0069 43.7068 33.1611 43.7004 33.6176C43.6849 34.7922 43.6947 35.9675 43.6962 37.1467C43.6962 37.6837 43.4596 37.9569 42.9546 37.9561C41.5082 37.9561 40.0589 37.9684 38.6146 37.9453C38.205 37.9384 38.068 38.0604 38.0715 38.523C38.0906 40.9497 38.0715 43.3763 38.0849 45.803C38.0849 46.2096 37.9557 46.34 37.5905 46.3339C36.1554 46.3201 34.7194 46.3201 33.2824 46.3339C32.9081 46.3385 32.7986 46.1889 32.8 45.7968C32.8085 42.3828 32.8035 38.9726 32.8028 35.5624ZM59.3582 38.3573C59.3582 36.8997 59.3624 35.4473 59.3532 33.992C59.3532 33.8339 59.32 33.5961 59.2254 33.5355C59.0135 33.4005 58.8115 33.557 58.7084 33.7603C58.558 34.0564 58.4068 34.3687 58.3404 34.694C58.2246 35.2648 56.483 37.0984 55.9667 37.192C55.6277 37.2533 55.1051 37.3247 55.0168 37.5525C54.8664 37.9407 55.3494 38.2215 55.5627 38.5376C56.4731 39.8879 57.399 41.2266 58.368 42.527C58.565 42.7925 58.7211 43.3357 59.1738 43.1715C59.5517 43.0342 59.3412 42.593 59.3469 42.3C59.3716 40.9865 59.3574 39.6715 59.3574 38.3543L59.3582 38.3573ZM49.6061 31.642H49.6478C49.6478 32.2558 49.64 32.8696 49.652 33.4795C49.6563 33.6774 49.5814 33.8846 49.8117 34.0533C50.7164 34.7262 51.5356 33.9943 52.386 33.8838C52.8577 33.8224 53.1946 33.4143 53.3472 32.9455C53.9193 31.181 53.6142 30.1545 52.0357 29.4248C51.3824 29.1233 50.3809 28.3991 49.7876 29.3358C49.4373 29.8898 49.6471 30.8603 49.6054 31.642H49.6061Z" fill="white"/>
<path d="M54.2506 87.0444C54.2506 89.6245 54.2442 92.2046 54.2548 94.7847C54.2548 95.2105 54.1241 95.3769 53.7216 95.3716C52.3691 95.3532 51.0159 95.3486 49.6634 95.3716C49.1507 95.38 48.9826 95.1353 48.9826 94.6167C48.9882 89.534 48.9769 84.4505 48.9967 79.3678C48.9967 78.7464 48.8025 78.5707 48.2608 78.5876C47.2014 78.6198 46.1314 78.695 45.0904 78.5485C44.5254 78.4717 44.305 78.4717 43.9766 79.0402C43.507 79.8573 43.0966 78.8983 42.7647 78.7103C41.7413 78.1326 40.6847 77.8518 39.5865 78.0858C38.8202 78.2492 38.1034 78.817 38.1676 79.7675C38.2143 80.4979 38.7948 80.9137 39.4594 81.2597C41.2462 82.1911 43.3579 82.2955 44.9166 83.7915C45.9054 84.742 46.409 85.9266 46.5778 87.3597C46.7543 88.8527 46.5206 90.2551 46.0544 91.6246C45.5311 93.1628 44.4837 94.131 43.1411 94.8905C41.4567 95.8426 39.6896 96.0352 37.8887 95.8611C36.3285 95.7076 34.7755 95.3585 33.4308 94.352C33.107 94.1102 32.7541 93.9181 32.382 93.7812C32.0288 93.6523 31.9398 93.3569 32.0557 93.1014C32.6348 91.8279 33.2231 90.5551 33.8856 89.3322C34.1956 88.7606 34.6441 89.165 34.945 89.4365C35.5806 90.0058 36.2417 90.4707 37.0638 90.6641C37.4522 90.7538 37.806 91.0154 38.1938 91.1244C39.1592 91.4029 41.3013 90.5229 41.1876 88.9655C41.0937 87.7134 40.1127 87.3014 39.1952 86.9332C37.4797 86.2427 35.5446 86.1023 34.1391 84.6484C32.6765 83.1355 32.3968 79.6747 33.185 77.66C33.7556 76.2024 34.5064 75.0431 35.7416 74.3059C37.7262 73.1205 39.8252 72.7285 42.0408 73.5287C42.7202 73.7742 43.4229 73.9437 44.1143 74.1501C44.5861 74.2913 44.8912 73.8156 45.3807 73.821C49.4501 73.8678 53.5196 73.8517 57.5898 73.8363C57.9951 73.8363 58.1548 73.9476 58.1442 74.4125C58.1194 75.6508 58.1279 76.8898 58.1392 78.1288C58.1392 78.4733 58.0298 78.6068 57.707 78.6014C56.8249 78.5861 55.9413 78.6014 55.0606 78.593C54.5147 78.5876 54.2329 78.7871 54.2393 79.4568C54.2633 81.987 54.2506 84.5157 54.2506 87.0444Z" fill="white"/>
<path d="M107.396 81.8145C107.396 84.0746 107.477 86.341 107.371 88.5934C107.277 90.5966 106.639 92.4087 105.14 93.7459C103.959 94.7985 102.642 95.364 101.114 95.6639C99.8684 95.9076 98.5986 95.9693 97.3382 95.8473C95.6198 95.6869 93.9926 95.1154 92.6006 93.8526C90.8738 92.2829 90.099 90.2529 90.2848 87.9329C90.6471 83.4064 90.318 78.8799 90.4536 74.3535C90.4649 73.9821 90.5694 73.8387 90.9282 73.8441C92.2333 73.8615 93.5387 73.8615 94.8444 73.8441C95.2201 73.8379 95.3232 73.986 95.3225 74.3811C95.3112 78.1358 95.2589 81.892 95.3486 85.6443C95.3797 86.934 95.3684 88.3211 96.081 89.475C96.4624 90.0933 96.9723 90.4723 97.7111 90.7025C98.9237 91.0753 99.9619 90.895 100.945 90.1693C101.453 89.7949 101.768 89.2532 101.863 88.5236C102.486 83.8491 101.962 79.1523 102.126 74.4701C102.141 74.0098 102.264 73.8402 102.698 73.8479C104.062 73.8694 105.427 73.8778 106.794 73.8418C107.301 73.8279 107.434 74.019 107.43 74.5414C107.41 76.9681 107.421 79.3947 107.421 81.8214L107.396 81.8145Z" fill="white"/>
<path d="M64.642 84.5579C64.642 81.1869 64.6484 77.8158 64.6328 74.4447C64.6328 73.9698 64.7741 73.8371 65.1978 73.8386C68.4786 73.8555 71.7594 73.8555 75.0402 73.8386C75.3976 73.8386 75.4308 74.0036 75.5191 74.3419C75.8376 75.5587 75.3898 76.7532 75.5106 77.9554C75.5593 78.4395 75.3792 78.616 74.9068 78.606C73.4377 78.573 71.9673 78.5953 70.4976 78.5945C69.9799 78.5945 69.684 78.8147 69.7108 79.4384C69.7341 79.9992 69.7299 80.5624 69.7108 81.1262C69.691 81.7346 69.9227 82.0001 70.499 81.9924C71.992 81.9725 73.4858 81.997 74.9788 81.9801C75.3708 81.9755 75.4951 82.1443 75.4908 82.5479C75.4781 83.8368 75.4781 85.1262 75.4908 86.4161C75.4908 86.7958 75.3552 86.9385 75.0085 86.9362C73.4914 86.9255 71.9715 86.9424 70.4573 86.927C69.9262 86.9209 69.7228 87.2201 69.7214 87.7372C69.7158 90.0741 69.7115 92.411 69.7214 94.7471C69.7214 95.1982 69.5971 95.3854 69.1564 95.377C67.838 95.3509 66.5211 95.3509 65.2056 95.377C64.7684 95.3846 64.6363 95.212 64.6406 94.7525C64.6483 91.3507 64.6427 87.9543 64.642 84.5579Z" fill="white"/>
<path d="M80.3918 86.9309C80.3918 84.3378 80.3862 81.7446 80.3982 79.1523C80.3982 78.738 80.2704 78.5815 79.8869 78.5884C78.9574 78.6053 78.028 78.5823 77.0993 78.5953C76.7871 78.5991 76.6861 78.4564 76.6875 78.135C76.6936 76.8451 76.6936 75.5557 76.6875 74.2668C76.6875 73.9599 76.8026 73.841 77.0901 73.8417C81.1129 73.8479 85.136 73.8479 89.1593 73.8417C89.4602 73.8417 89.5428 73.9814 89.5407 74.2813C89.5337 75.5718 89.5322 76.8614 89.5407 78.1519C89.5407 78.4894 89.4164 78.5976 89.117 78.5938C88.1762 78.5823 87.2348 78.5938 86.2919 78.5876C85.8449 78.5876 85.6393 78.7764 85.6401 79.2911C85.6499 84.4383 85.6401 89.5862 85.6535 94.7341C85.6535 95.1982 85.5122 95.3731 85.0835 95.3678C83.707 95.3494 82.3291 95.3555 80.954 95.364C80.5536 95.364 80.3834 95.1798 80.3848 94.7448C80.3954 92.1425 80.3918 89.5371 80.3918 86.9309Z" fill="white"/>
<path d="M59.1321 84.6071C59.1321 81.2099 59.137 77.8135 59.125 74.4172C59.125 73.996 59.2211 73.8279 59.637 73.8371C60.8476 73.864 62.0602 73.8694 63.2707 73.841C64.0836 73.8218 64.0956 74.3167 64.0024 74.9749C63.8753 75.8695 63.9947 76.7778 63.9791 77.6777C63.8979 82.3369 63.9177 86.9992 63.9579 91.6592C63.9671 92.7424 64.0173 93.8219 63.9332 94.9044C63.9078 95.2389 63.8068 95.3732 63.484 95.3693C62.1789 95.355 60.8737 95.355 59.5685 95.3693C59.2154 95.3739 59.1271 95.2251 59.1278 94.8714C59.1363 91.4507 59.1377 88.0293 59.1321 84.6071Z" fill="white"/>
</g>
<defs>
<clipPath id="clip0_157_184812">
<rect width="115.2" height="72" fill="white" transform="translate(32 24.0552)"/>
</clipPath>
</defs>
</svg>
