<svg width="222" height="121" viewBox="0 0 222 121" fill="none" xmlns="http://www.w3.org/2000/svg">
<g clip-path="url(#clip0_157_185138)">
<path d="M43.8274 79.7923C30.3522 69.003 28.1617 49.2658 38.9509 35.7848C49.7401 22.3094 69.4772 20.1189 82.9582 30.9082L80.7789 33.6281C68.8015 24.0438 51.2605 25.9866 41.6707 37.964C32.0865 49.9415 34.0293 67.4826 46.0067 77.0724L43.8274 79.7923Z" fill="white"/>
<path d="M47.9152 74.6906C37.2498 66.1537 35.5211 50.5329 44.0522 39.8675C52.5834 29.2021 68.2098 27.4733 78.8751 36.0101L76.6959 38.73C67.534 31.3982 54.1094 32.8848 46.7777 42.0467C39.446 51.2086 40.9326 64.6333 50.0944 71.9651L47.9152 74.6849V74.6906Z" fill="white"/>
<path d="M51.1869 70.6023C42.7796 63.8731 41.4113 51.5521 48.1405 43.1448C54.8697 34.7375 67.1906 33.3691 75.5978 40.0983L73.4186 42.8182C66.5092 37.2884 56.3901 38.409 50.8603 45.3184C45.3305 52.2278 46.4511 62.347 53.3605 67.8712L51.1813 70.5911L51.1869 70.6023Z" fill="white"/>
<path d="M54.8978 65.9623C49.0471 61.2771 48.0954 52.7121 52.7805 46.8614C57.4656 41.0106 66.0305 40.0589 71.8813 44.744L69.702 47.4639C65.3548 43.9838 58.9804 44.6877 55.5003 49.0406C52.0203 53.3879 52.7242 59.7623 57.0771 63.2424L54.8978 65.9623Z" fill="white"/>
<path d="M58.0969 61.9641C54.4479 59.0472 53.8566 53.7032 56.7792 50.0542C59.7017 46.4052 65.04 45.814 68.689 48.7365L66.5098 51.4564C64.3643 49.7389 61.2221 50.088 59.5046 52.2335C57.7871 54.379 58.1363 57.5212 60.2817 59.2387L58.1025 61.9585L58.0969 61.9641Z" fill="white"/>
<path d="M76.0956 40.318C89.5708 51.1073 91.7614 70.8501 80.9721 84.3255C70.1829 97.8008 50.4401 99.9914 36.9648 89.2021L39.1441 86.4822C51.1215 96.0664 68.6625 94.1237 78.2523 82.1462C87.8365 70.1687 85.8937 52.6277 73.9163 43.0378L76.0956 40.318Z" fill="white"/>
<path d="M72.0068 45.4198C82.6722 53.9566 84.4009 69.5775 75.8698 80.2429C67.333 90.9083 51.7122 92.6371 41.0469 84.1002L43.2261 81.3804C52.388 88.7122 65.8126 87.2255 73.1443 78.0636C80.476 68.9017 78.9894 55.4771 69.8276 48.1453L72.0068 45.4254V45.4198Z" fill="white"/>
<path d="M68.7352 49.5136C77.1424 56.2429 78.5108 68.5639 71.7816 76.9712C65.0524 85.3785 52.7315 86.7469 44.3242 80.0176L46.5035 77.2978C53.4129 82.8276 63.532 81.707 69.0618 74.7975C74.5915 67.8881 73.4709 57.7689 66.5615 52.2448L68.7408 49.5249L68.7352 49.5136Z" fill="white"/>
<path d="M65.0225 54.1537C70.8733 58.8389 71.8249 67.4039 67.1398 73.2546C62.4547 79.1054 53.8898 80.0571 48.0391 75.372L50.2183 72.6521C54.5655 76.1322 60.94 75.4283 64.42 71.0754C67.9 66.7281 67.1962 60.3537 62.8433 56.8736L65.0225 54.1537Z" fill="white"/>
<path d="M61.8226 58.1462C65.4716 61.0631 66.0629 66.4071 63.1403 70.0561C60.2177 73.7051 54.8794 74.2964 51.2305 71.3738L53.4097 68.6539C55.5552 70.3715 58.6973 70.0223 60.4148 67.8769C62.1323 65.7314 61.7832 62.5892 59.6377 60.8717L61.817 58.1518L61.8226 58.1462Z" fill="white"/>
<path d="M99.4256 68.0177C100.496 68.6934 102.038 69.2171 103.733 69.2171C105.845 69.234 107.58 68.0008 107.58 65.9398C107.58 64.4869 106.69 63.5015 104.798 62.2964C102.545 60.8717 100.924 59.1542 100.924 56.7497C100.924 52.7178 104.246 50.088 108.509 50.088C110.648 50.088 112.062 50.6061 112.805 51.0622L111.668 54.0749C110.986 53.6976 109.753 53.1964 108.221 53.2133C105.975 53.2133 104.651 54.5817 104.646 56.1528C104.646 57.5775 105.687 58.4897 107.591 59.7173C109.945 61.1476 111.335 62.9327 111.335 65.3429C111.335 69.6451 108.053 72.3536 103.429 72.3536C101.008 72.3536 99.0878 71.6779 98.2656 71.036L99.4256 68.0233V68.0177Z" fill="white"/>
<path d="M121.004 50.3809L118.51 63.5127C118.335 64.3743 118.245 65.2359 118.245 66.0974C118.256 68.1021 119.411 69.3016 121.314 69.3016C123.662 69.3016 125.25 67.7023 126.033 63.5859L128.55 50.3865H132.154L129.676 63.4226C128.499 69.5719 125.779 72.3874 120.869 72.3874C117.085 72.3874 114.652 70.3546 114.652 66.2495C114.652 65.3316 114.771 64.256 114.968 63.1749L117.4 50.3865H121.004V50.3809Z" fill="white"/>
<path d="M144.691 62.3302H137.736L136.469 68.9468H144.325L143.728 72.0552H132.285L136.402 50.3809H147.405L146.797 53.478H139.431L138.305 59.2837H145.287L144.696 62.3302H144.691Z" fill="white"/>
<path d="M91.8587 77.6751C92.0727 77.8046 92.3768 77.9116 92.7034 77.9116C93.1877 77.9116 93.4692 77.6582 93.4692 77.2865C93.4692 76.943 93.2721 76.7516 92.7822 76.5601C92.1853 76.3461 91.8193 76.042 91.8193 75.524C91.8193 74.9552 92.2923 74.5329 93.0018 74.5329C93.3735 74.5329 93.6494 74.6174 93.8071 74.7131L93.6776 75.096C93.5593 75.0284 93.3115 74.9214 92.9849 74.9214C92.4838 74.9214 92.2979 75.2199 92.2979 75.4677C92.2979 75.8112 92.5176 75.9801 93.0244 76.1716C93.6438 76.4081 93.9591 76.7065 93.9591 77.2471C93.9591 77.8102 93.5424 78.3001 92.6809 78.3001C92.3261 78.3001 91.9432 78.1988 91.7461 78.0693L91.8643 77.6751H91.8587Z" fill="white"/>
<path d="M95.1108 74.8933C95.1108 75.0566 94.9982 75.1861 94.8067 75.1861C94.6378 75.1861 94.5195 75.0566 94.5195 74.8933C94.5195 74.73 94.6434 74.5948 94.818 74.5948C94.9925 74.5948 95.1108 74.7244 95.1108 74.8933ZM94.5815 78.2551V75.631H95.0601V78.2551H94.5815Z" fill="white"/>
<path d="M95.7828 77.7652C95.9235 77.8553 96.1713 77.9566 96.4135 77.9566C96.7626 77.9566 96.9259 77.7821 96.9259 77.5681C96.9259 77.3428 96.7907 77.2133 96.436 77.0838C95.963 76.9149 95.7434 76.6558 95.7434 76.3405C95.7434 75.9182 96.0869 75.569 96.65 75.569C96.9146 75.569 97.1511 75.6422 97.2975 75.7323L97.1793 76.0815C97.0779 76.0139 96.8865 75.9294 96.6443 75.9294C96.3628 75.9294 96.2051 76.0927 96.2051 76.2898C96.2051 76.5094 96.3628 76.6052 96.7063 76.7347C97.1624 76.9092 97.3933 77.1345 97.3933 77.5287C97.3933 77.9904 97.0329 78.317 96.4135 78.317C96.1263 78.317 95.8616 78.2495 95.6758 78.1368L95.794 77.7708L95.7828 77.7652Z" fill="white"/>
<path d="M98.572 74.8764V75.631H99.2534V75.997H98.572V77.4104C98.572 77.737 98.6621 77.9172 98.9324 77.9172C99.0563 77.9172 99.152 77.9003 99.2084 77.8834L99.2309 78.2438C99.1408 78.2833 98.9944 78.3114 98.8086 78.3114C98.5833 78.3114 98.4087 78.2438 98.2905 78.1087C98.1553 77.9679 98.1047 77.737 98.1047 77.4273V75.997H97.6992V75.631H98.1047V75.0003L98.572 74.8764Z" fill="white"/>
<path d="M100.023 77.0275C100.034 77.6751 100.445 77.9397 100.924 77.9397C101.267 77.9397 101.47 77.8778 101.65 77.8046L101.729 78.1481C101.56 78.2213 101.273 78.3114 100.856 78.3114C100.051 78.3114 99.5664 77.7821 99.5664 76.9881C99.5664 76.1941 100.034 75.5746 100.8 75.5746C101.656 75.5746 101.886 76.3292 101.886 76.8135C101.886 76.9092 101.875 76.9881 101.87 77.0387H100.028L100.023 77.0275ZM101.419 76.684C101.419 76.3799 101.295 75.9069 100.76 75.9069C100.276 75.9069 100.068 76.3517 100.028 76.684H101.419Z" fill="white"/>
<path d="M102.476 76.3405C102.476 76.0702 102.476 75.8449 102.453 75.631H102.87L102.892 76.0533H102.909C103.056 75.8055 103.298 75.569 103.731 75.569C104.092 75.569 104.362 75.7886 104.475 76.0927H104.486C104.565 75.9463 104.672 75.8337 104.779 75.7492C104.936 75.631 105.111 75.5634 105.359 75.5634C105.708 75.5634 106.22 75.7886 106.22 76.7009V78.2438H105.753V76.7572C105.753 76.2504 105.567 75.9519 105.184 75.9519C104.914 75.9519 104.7 76.1547 104.621 76.3855C104.599 76.4531 104.582 76.5376 104.582 76.622V78.2438H104.114V76.6727C104.114 76.256 103.928 75.9519 103.568 75.9519C103.27 75.9519 103.05 76.1884 102.977 76.4306C102.949 76.5038 102.937 76.5826 102.937 76.6615V78.2438H102.47V76.3292L102.476 76.3405Z" fill="white"/>
<path d="M108.454 78.2551L108.415 77.9229H108.398C108.251 78.1312 107.97 78.3114 107.598 78.3114C107.069 78.3114 106.793 77.9397 106.793 77.5568C106.793 76.9205 107.356 76.577 108.37 76.5826V76.5263C108.37 76.3123 108.308 75.9182 107.773 75.9182C107.531 75.9182 107.272 75.9914 107.091 76.1152L106.984 75.7999C107.204 75.6591 107.514 75.569 107.846 75.569C108.646 75.569 108.843 76.1153 108.843 76.6446V77.6244C108.843 77.8496 108.854 78.0749 108.888 78.2551H108.454ZM108.387 76.9149C107.869 76.9036 107.277 76.9937 107.277 77.5061C107.277 77.8159 107.486 77.9623 107.728 77.9623C108.071 77.9623 108.285 77.7427 108.364 77.523C108.381 77.4724 108.392 77.4217 108.392 77.371V76.9149H108.387Z" fill="white"/>
<path d="M111.252 74.6005V76.7628C111.252 77.5793 111.618 77.9285 112.102 77.9285C112.643 77.9285 112.992 77.5681 112.992 76.7628V74.6005H113.471V76.729C113.471 77.8496 112.879 78.3114 112.085 78.3114C111.337 78.3114 110.773 77.8834 110.773 76.7516V74.6005H111.252Z" fill="white"/>
<path d="M114.276 76.3405C114.276 76.0702 114.276 75.845 114.254 75.631H114.676L114.704 76.0646H114.716C114.845 75.8168 115.149 75.569 115.583 75.569C115.949 75.569 116.512 75.7886 116.512 76.684V78.2495H116.033V76.7347C116.033 76.3123 115.876 75.9576 115.425 75.9576C115.11 75.9576 114.868 76.1772 114.783 76.4475C114.761 76.5094 114.749 76.5883 114.749 76.6727V78.2495H114.271V76.3349L114.276 76.3405Z" fill="white"/>
<path d="M117.81 74.8933C117.81 75.0566 117.697 75.1861 117.506 75.1861C117.337 75.1861 117.219 75.0566 117.219 74.8933C117.219 74.73 117.343 74.5948 117.517 74.5948C117.692 74.5948 117.81 74.7244 117.81 74.8933ZM117.281 78.2551V75.631H117.759V78.2551H117.281Z" fill="white"/>
<path d="M118.737 75.631L119.25 77.1063C119.334 77.3429 119.407 77.5625 119.464 77.7765H119.481C119.543 77.5568 119.616 77.3429 119.706 77.1063L120.213 75.631H120.714L119.683 78.2551H119.227L118.23 75.631H118.743H118.737Z" fill="white"/>
<path d="M121.37 77.0275C121.381 77.6751 121.793 77.9397 122.271 77.9397C122.615 77.9397 122.817 77.8778 122.998 77.8046L123.076 78.1481C122.907 78.2213 122.62 78.3114 122.204 78.3114C121.398 78.3114 120.914 77.7821 120.914 76.9881C120.914 76.1941 121.381 75.5746 122.147 75.5746C123.003 75.5746 123.234 76.3292 123.234 76.8135C123.234 76.9092 123.223 76.9881 123.217 77.0387H121.376L121.37 77.0275ZM122.767 76.684C122.767 76.3799 122.643 75.9069 122.108 75.9069C121.624 75.9069 121.415 76.3517 121.376 76.684H122.767Z" fill="white"/>
<path d="M123.827 76.4475C123.827 76.1378 123.827 75.8731 123.805 75.631H124.221L124.238 76.1434H124.261C124.379 75.7886 124.666 75.569 124.987 75.569C125.044 75.569 125.077 75.569 125.122 75.5859V76.0364C125.072 76.0252 125.027 76.0195 124.959 76.0195C124.621 76.0195 124.385 76.2729 124.317 76.6333C124.306 76.7009 124.295 76.7741 124.295 76.8586V78.2551H123.822V76.4475H123.827Z" fill="white"/>
<path d="M125.533 77.7652C125.674 77.8553 125.921 77.9566 126.163 77.9566C126.513 77.9566 126.676 77.7821 126.676 77.5681C126.676 77.3428 126.541 77.2133 126.186 77.0838C125.713 76.9149 125.493 76.6558 125.493 76.3405C125.493 75.9182 125.837 75.569 126.4 75.569C126.665 75.569 126.901 75.6422 127.048 75.7323L126.929 76.0815C126.828 76.0139 126.636 75.9294 126.394 75.9294C126.113 75.9294 125.955 76.0927 125.955 76.2898C125.955 76.5094 126.113 76.6052 126.456 76.7347C126.912 76.9092 127.143 77.1345 127.143 77.5287C127.143 77.9904 126.783 78.317 126.163 78.317C125.876 78.317 125.612 78.2495 125.426 78.1368L125.544 77.7708L125.533 77.7652Z" fill="white"/>
<path d="M128.279 74.8933C128.279 75.0566 128.166 75.1861 127.975 75.1861C127.806 75.1861 127.688 75.0566 127.688 74.8933C127.688 74.73 127.811 74.5948 127.986 74.5948C128.161 74.5948 128.279 74.7244 128.279 74.8933ZM127.749 78.2551V75.631H128.228V78.2551H127.749Z" fill="white"/>
<path d="M129.592 74.8764V75.631H130.273V75.997H129.592V77.4104C129.592 77.737 129.682 77.9172 129.952 77.9172C130.076 77.9172 130.172 77.9003 130.228 77.8834L130.25 78.2438C130.16 78.2833 130.014 78.3114 129.828 78.3114C129.603 78.3114 129.428 78.2438 129.31 78.1087C129.175 77.9679 129.124 77.737 129.124 77.4273V75.997H128.719V75.631H129.124V75.0003L129.592 74.8764Z" fill="white"/>
<path d="M132.263 78.2551L132.223 77.9229H132.206C132.06 78.1312 131.778 78.3114 131.407 78.3114C130.877 78.3114 130.602 77.9397 130.602 77.5568C130.602 76.9205 131.165 76.577 132.178 76.5826V76.5263C132.178 76.3123 132.116 75.9182 131.581 75.9182C131.339 75.9182 131.08 75.9914 130.9 76.1152L130.793 75.7999C131.013 75.6591 131.322 75.569 131.655 75.569C132.454 75.569 132.651 76.1153 132.651 76.6446V77.6244C132.651 77.8496 132.663 78.0749 132.696 78.2551H132.263ZM132.195 76.9149C131.677 76.9036 131.086 76.9937 131.086 77.5061C131.086 77.8159 131.294 77.9623 131.536 77.9623C131.88 77.9623 132.094 77.7427 132.173 77.523C132.19 77.4724 132.201 77.4217 132.201 77.371V76.9149H132.195Z" fill="white"/>
<path d="M133.429 76.4475C133.429 76.1378 133.429 75.8731 133.406 75.631H133.823L133.84 76.1434H133.862C133.981 75.7886 134.268 75.569 134.589 75.569C134.645 75.569 134.679 75.569 134.724 75.5859V76.0364C134.673 76.0252 134.628 76.0195 134.561 76.0195C134.223 76.0195 133.986 76.2729 133.919 76.6333C133.907 76.7009 133.896 76.7741 133.896 76.8586V78.2551H133.423V76.4475H133.429Z" fill="white"/>
<path d="M135.755 74.8933C135.755 75.0566 135.643 75.1861 135.451 75.1861C135.282 75.1861 135.164 75.0566 135.164 74.8933C135.164 74.73 135.288 74.5948 135.463 74.5948C135.637 74.5948 135.755 74.7244 135.755 74.8933ZM135.226 78.2551V75.631H135.705V78.2551H135.226Z" fill="white"/>
<path d="M138.867 76.9205C138.867 77.8891 138.197 78.3114 137.56 78.3114C136.851 78.3114 136.305 77.7933 136.305 76.9599C136.305 76.0815 136.879 75.569 137.605 75.569C138.332 75.569 138.867 76.1152 138.867 76.9205ZM136.783 76.9487C136.783 77.523 137.116 77.9566 137.583 77.9566C138.05 77.9566 138.383 77.5287 138.383 76.9374C138.383 76.4925 138.157 75.9294 137.594 75.9294C137.031 75.9294 136.789 76.4475 136.789 76.9487H136.783Z" fill="white"/>
<path d="M142.529 76.5376H141.11V77.8553H142.692V78.2495H140.637V74.5948H142.608V74.989H141.104V76.1434H142.523V76.532L142.529 76.5376Z" fill="white"/>
<path d="M143.22 77.7652C143.361 77.8553 143.609 77.9566 143.851 77.9566C144.2 77.9566 144.363 77.7821 144.363 77.5681C144.363 77.3428 144.228 77.2133 143.873 77.0838C143.4 76.9149 143.181 76.6558 143.181 76.3405C143.181 75.9182 143.524 75.569 144.087 75.569C144.352 75.569 144.589 75.6422 144.735 75.7323L144.617 76.0815C144.515 76.0139 144.324 75.9294 144.082 75.9294C143.8 75.9294 143.643 76.0927 143.643 76.2898C143.643 76.5094 143.8 76.6052 144.144 76.7347C144.6 76.9092 144.831 77.1345 144.831 77.5287C144.831 77.9904 144.47 78.317 143.851 78.317C143.564 78.317 143.299 78.2495 143.113 78.1368L143.232 77.7708L143.22 77.7652Z" fill="white"/>
<path d="M146.006 74.8764V75.631H146.687V75.997H146.006V77.4104C146.006 77.737 146.096 77.9172 146.366 77.9172C146.49 77.9172 146.586 77.9003 146.642 77.8834L146.664 78.2438C146.574 78.2833 146.428 78.3114 146.242 78.3114C146.017 78.3114 145.842 78.2438 145.724 78.1087C145.589 77.9679 145.538 77.737 145.538 77.4273V75.997H145.133V75.631H145.538V75.0003L146.006 74.8764Z" fill="white"/>
<path d="M148.681 78.2551L148.641 77.9229H148.624C148.478 78.1312 148.196 78.3114 147.825 78.3114C147.295 78.3114 147.02 77.9397 147.02 77.5568C147.02 76.9205 147.583 76.577 148.596 76.5826V76.5263C148.596 76.3123 148.534 75.9182 147.999 75.9182C147.757 75.9182 147.498 75.9914 147.318 76.1152L147.211 75.7999C147.431 75.6591 147.74 75.569 148.073 75.569C148.872 75.569 149.069 76.1153 149.069 76.6446V77.6244C149.069 77.8496 149.081 78.0749 149.114 78.2551H148.681ZM148.613 76.9149C148.095 76.9036 147.504 76.9937 147.504 77.5061C147.504 77.8159 147.712 77.9623 147.954 77.9623C148.298 77.9623 148.512 77.7427 148.591 77.523C148.608 77.4724 148.619 77.4217 148.619 77.371V76.9149H148.613Z" fill="white"/>
<path d="M150.4 74.8764V75.631H151.082V75.997H150.4V77.4104C150.4 77.737 150.49 77.9172 150.761 77.9172C150.884 77.9172 150.98 77.9003 151.036 77.8834L151.059 78.2438C150.969 78.2833 150.823 78.3114 150.637 78.3114C150.411 78.3114 150.237 78.2438 150.119 78.1087C149.983 77.9679 149.933 77.737 149.933 77.4273V75.997H149.527V75.631H149.933V75.0003L150.4 74.8764Z" fill="white"/>
<path d="M153.067 78.2551L153.028 77.9229H153.011C152.865 78.1312 152.583 78.3114 152.212 78.3114C151.682 78.3114 151.406 77.9397 151.406 77.5568C151.406 76.9205 151.969 76.577 152.983 76.5826V76.5263C152.983 76.3123 152.921 75.9182 152.386 75.9182C152.144 75.9182 151.885 75.9914 151.705 76.1152L151.598 75.7999C151.817 75.6591 152.127 75.569 152.459 75.569C153.259 75.569 153.456 76.1153 153.456 76.6446V77.6244C153.456 77.8496 153.467 78.0749 153.501 78.2551H153.067ZM153 76.9149C152.482 76.9036 151.891 76.9937 151.891 77.5061C151.891 77.8159 152.099 77.9623 152.341 77.9623C152.685 77.9623 152.899 77.7427 152.977 77.523C152.994 77.4724 153.005 77.4217 153.005 77.371V76.9149H153Z" fill="white"/>
<path d="M154.234 74.4034H154.713V78.2551H154.234V74.4034Z" fill="white"/>
<path d="M96.5762 84.883C96.5481 84.2241 96.5143 83.4301 96.5143 82.7375H96.4918C96.3228 83.3625 96.1088 84.0495 95.8892 84.6971L95.1403 86.9045H94.4251L93.7494 84.7253C93.5523 84.0721 93.3665 83.3794 93.2313 82.7375H93.2144C93.1919 83.4076 93.1638 84.2185 93.1244 84.9167L93.0117 86.9665H92.1445L92.4824 81.8647H93.7044L94.3688 83.9144C94.5547 84.5169 94.718 85.1251 94.8362 85.6882H94.8587C94.9939 85.1307 95.1684 84.5057 95.3712 83.9088L96.0807 81.8647H97.2914L97.5842 86.9665H96.6776L96.5762 84.883Z" fill="white"/>
<path d="M99.1944 85.3785C99.2169 86.0486 99.735 86.3358 100.332 86.3358C100.76 86.3358 101.07 86.2682 101.351 86.1669L101.492 86.8088C101.177 86.944 100.737 87.0453 100.202 87.0453C99.0086 87.0453 98.3047 86.3076 98.3047 85.1758C98.3047 84.1565 98.9241 83.1936 100.107 83.1936C101.289 83.1936 101.695 84.1791 101.695 84.9843C101.695 85.1589 101.678 85.294 101.661 85.3785H99.1944ZM100.816 84.7309C100.816 84.3874 100.67 83.8356 100.05 83.8356C99.476 83.8356 99.2395 84.3536 99.1944 84.7309H100.816Z" fill="white"/>
<path d="M102.405 86.1049C102.613 86.2344 103.013 86.3752 103.345 86.3752C103.756 86.3752 103.936 86.2063 103.936 85.9642C103.936 85.722 103.784 85.5869 103.334 85.4292C102.613 85.1814 102.314 84.7872 102.314 84.3536C102.314 83.7061 102.855 83.1992 103.711 83.1992C104.116 83.1992 104.471 83.3006 104.691 83.4189L104.505 84.0721C104.347 83.982 104.054 83.8581 103.728 83.8581C103.401 83.8581 103.21 84.0214 103.21 84.2466C103.21 84.4719 103.39 84.5958 103.852 84.7647C104.522 85.0012 104.832 85.3447 104.837 85.8853C104.837 86.5554 104.314 87.0397 103.339 87.0397C102.894 87.0397 102.489 86.9327 102.219 86.7807L102.405 86.0993V86.1049Z" fill="white"/>
<path d="M107.675 86.9609L107.613 86.5498H107.591C107.365 86.8426 106.982 87.0453 106.504 87.0453C105.755 87.0453 105.344 86.5104 105.344 85.9472C105.344 85.0181 106.172 84.5451 107.529 84.5507V84.4888C107.529 84.2466 107.433 83.8412 106.78 83.8468C106.419 83.8468 106.042 83.9651 105.789 84.1227L105.603 83.5202C105.879 83.3513 106.357 83.1936 106.937 83.1936C108.12 83.1936 108.458 83.9369 108.458 84.7478V86.0768C108.458 86.409 108.475 86.7356 108.514 86.9665H107.675V86.9609ZM107.551 85.1532C106.892 85.142 106.267 85.2828 106.267 85.8459C106.267 86.2063 106.504 86.3752 106.797 86.3752C107.168 86.3752 107.439 86.1331 107.523 85.8628C107.546 85.8008 107.551 85.7276 107.551 85.6601V85.1532Z" fill="white"/>
<path d="M114.417 81.5887V85.9304C114.417 86.3076 114.428 86.7131 114.445 86.9665H113.618L113.578 86.3808H113.561C113.342 86.7919 112.897 87.0453 112.362 87.0453C111.483 87.0453 110.785 86.2964 110.785 85.1645C110.785 83.9313 111.551 83.1936 112.435 83.1936C112.942 83.1936 113.302 83.402 113.466 83.6723H113.482V81.5831H114.412L114.417 81.5887ZM113.488 84.8154C113.488 84.7422 113.488 84.6464 113.466 84.5732C113.381 84.2128 113.083 83.92 112.666 83.92C112.063 83.92 111.731 84.4494 111.731 85.1307C111.731 85.8121 112.069 86.302 112.655 86.302C113.038 86.302 113.364 86.043 113.46 85.6375C113.482 85.5531 113.488 85.463 113.488 85.3672V84.8154Z" fill="white"/>
<path d="M116.077 85.3785C116.1 86.0486 116.618 86.3358 117.215 86.3358C117.643 86.3358 117.952 86.2682 118.234 86.1669L118.375 86.8088C118.059 86.944 117.62 87.0453 117.085 87.0453C115.891 87.0453 115.188 86.3076 115.188 85.1758C115.188 84.1565 115.807 83.1936 116.989 83.1936C118.172 83.1936 118.577 84.1791 118.577 84.9843C118.577 85.1589 118.561 85.294 118.544 85.3785H116.077ZM117.699 84.7309C117.699 84.3874 117.553 83.8356 116.933 83.8356C116.359 83.8356 116.122 84.3536 116.077 84.7309H117.699Z" fill="white"/>
<path d="M125.019 86.73C124.692 86.8482 124.056 87.0115 123.374 87.0115C122.513 87.0115 121.86 86.7975 121.375 86.3302C120.919 85.8966 120.655 85.2264 120.66 84.455C120.66 82.8388 121.815 81.8027 123.504 81.8027C124.129 81.8027 124.619 81.9322 124.855 82.0448L124.647 82.7938C124.371 82.6699 124.028 82.5742 123.487 82.5742C122.4 82.5742 121.634 83.2161 121.634 84.4043C121.634 85.5925 122.35 86.2513 123.408 86.2513C123.746 86.2513 123.994 86.2063 124.112 86.15V84.8773H123.211V84.1453H125.013V86.7243L125.019 86.73Z" fill="white"/>
<path d="M129.483 85.0857C129.483 86.4428 128.532 87.0453 127.591 87.0453C126.55 87.0453 125.75 86.3302 125.75 85.1476C125.75 83.9651 126.544 83.1936 127.659 83.1936C128.774 83.1936 129.489 83.9651 129.489 85.0857H129.483ZM126.702 85.1251C126.702 85.8346 127.056 86.3696 127.62 86.3696C128.183 86.3696 128.526 85.8515 128.526 85.1138C128.526 84.5338 128.267 83.875 127.625 83.875C126.983 83.875 126.702 84.5113 126.702 85.1251Z" fill="white"/>
<path d="M130.223 86.9609C130.24 86.7131 130.251 86.302 130.251 85.9247V81.5831H131.18V83.7792H131.197C131.422 83.4189 131.828 83.188 132.374 83.188C133.275 83.188 133.917 83.9313 133.911 85.0575C133.911 86.3808 133.072 87.0397 132.239 87.0397C131.766 87.0397 131.343 86.8595 131.079 86.4034H131.062L131.022 86.9609H130.228H130.223ZM131.186 85.4348C131.186 85.5136 131.191 85.5869 131.208 85.6544C131.304 86.0317 131.63 86.3076 132.03 86.3076C132.616 86.3076 132.965 85.8403 132.965 85.0969C132.965 84.4494 132.65 83.9144 132.036 83.9144C131.659 83.9144 131.309 84.1847 131.208 84.5958C131.191 84.669 131.18 84.7478 131.18 84.8379V85.4348H131.186Z" fill="white"/>
<path d="M135.358 85.3785C135.381 86.0486 135.899 86.3358 136.496 86.3358C136.924 86.3358 137.234 86.2682 137.515 86.1669L137.656 86.8088C137.341 86.944 136.901 87.0453 136.366 87.0453C135.173 87.0453 134.469 86.3076 134.469 85.1758C134.469 84.1565 135.088 83.1936 136.271 83.1936C137.453 83.1936 137.859 84.1791 137.859 84.9843C137.859 85.1589 137.842 85.294 137.825 85.3785H135.358ZM136.98 84.7309C136.98 84.3874 136.834 83.8356 136.214 83.8356C135.64 83.8356 135.404 84.3536 135.358 84.7309H136.98Z" fill="white"/>
<path d="M138.606 84.4606C138.606 83.9651 138.595 83.6047 138.578 83.2781H139.383L139.417 83.9763H139.445C139.626 83.4583 140.059 83.1936 140.453 83.1936C140.543 83.1936 140.6 83.1936 140.673 83.2161V84.0946C140.594 84.0777 140.51 84.0664 140.403 84.0664C139.958 84.0664 139.648 84.348 139.569 84.7703C139.552 84.8548 139.547 84.9505 139.547 85.0519V86.9609H138.612V84.4606H138.606Z" fill="white"/>
<path d="M141.309 84.3762C141.309 83.9482 141.298 83.599 141.281 83.2781H142.098L142.143 83.8299H142.165C142.329 83.5427 142.728 83.1936 143.342 83.1936C143.984 83.1936 144.654 83.6047 144.654 84.776V86.9665H143.72V84.8886C143.72 84.3593 143.528 83.9594 143.016 83.9594C142.644 83.9594 142.391 84.2241 142.289 84.5057C142.261 84.5845 142.244 84.6971 142.244 84.7985V86.9665H141.309V84.3762Z" fill="white"/>
<path d="M147.718 86.9609L147.656 86.5498H147.634C147.408 86.8426 147.025 87.0453 146.547 87.0453C145.798 87.0453 145.387 86.5104 145.387 85.9472C145.387 85.0181 146.214 84.5451 147.572 84.5507V84.4888C147.572 84.2466 147.476 83.8412 146.823 83.8468C146.462 83.8468 146.085 83.9651 145.832 84.1227L145.646 83.5202C145.922 83.3513 146.4 83.1936 146.98 83.1936C148.163 83.1936 148.501 83.9369 148.501 84.7478V86.0768C148.501 86.409 148.518 86.7356 148.557 86.9665H147.718V86.9609ZM147.594 85.1532C146.935 85.142 146.31 85.2828 146.31 85.8459C146.31 86.2063 146.547 86.3752 146.84 86.3752C147.211 86.3752 147.482 86.1331 147.572 85.8628C147.594 85.8008 147.6 85.7276 147.6 85.6601V85.1532H147.594Z" fill="white"/>
<path d="M149.457 86.9609C149.474 86.7131 149.485 86.302 149.485 85.9247V81.5831H150.414V83.7792H150.431C150.656 83.4189 151.062 83.188 151.608 83.188C152.509 83.188 153.151 83.9313 153.145 85.0575C153.145 86.3808 152.306 87.0397 151.473 87.0397C151 87.0397 150.578 86.8595 150.313 86.4034H150.296L150.257 86.9609H149.463H149.457ZM150.42 85.4348C150.42 85.5136 150.426 85.5869 150.442 85.6544C150.538 86.0317 150.865 86.3076 151.265 86.3076C151.85 86.3076 152.199 85.8403 152.199 85.0969C152.199 84.4494 151.884 83.9144 151.27 83.9144C150.893 83.9144 150.544 84.1847 150.442 84.5958C150.426 84.669 150.414 84.7478 150.414 84.8379V85.4348H150.42Z" fill="white"/>
<path d="M154.909 82.2476C154.909 82.5235 154.706 82.7487 154.38 82.7487C154.07 82.7487 153.867 82.5235 153.867 82.2476C153.867 81.966 154.076 81.7464 154.391 81.7464C154.706 81.7464 154.909 81.966 154.909 82.2476ZM153.923 86.9665V83.2837H154.858V86.9665H153.923Z" fill="white"/>
<path d="M155.859 81.5887H156.794V86.9608H155.859V81.5887Z" fill="white"/>
<path d="M158.796 82.2476C158.796 82.5235 158.593 82.7487 158.266 82.7487C157.957 82.7487 157.754 82.5235 157.754 82.2476C157.754 81.966 157.962 81.7464 158.278 81.7464C158.593 81.7464 158.796 81.966 158.796 82.2476ZM157.81 86.9665V83.2837H158.745V86.9665H157.81Z" fill="white"/>
<path d="M163.14 81.5887V85.9304C163.14 86.3076 163.151 86.7131 163.168 86.9665H162.34L162.301 86.3808H162.284C162.064 86.7919 161.619 87.0453 161.085 87.0453C160.206 87.0453 159.508 86.2964 159.508 85.1645C159.508 83.9313 160.274 83.1936 161.158 83.1936C161.665 83.1936 162.025 83.402 162.188 83.6723H162.205V81.5831H163.134L163.14 81.5887ZM162.211 84.8154C162.211 84.7422 162.211 84.6464 162.188 84.5732C162.104 84.2128 161.805 83.92 161.389 83.92C160.786 83.92 160.454 84.4494 160.454 85.1307C160.454 85.8121 160.792 86.302 161.377 86.302C161.76 86.302 162.087 86.043 162.183 85.6375C162.205 85.5531 162.211 85.463 162.211 85.3672V84.8154Z" fill="white"/>
<path d="M166.214 86.9609L166.152 86.5498H166.13C165.904 86.8426 165.521 87.0453 165.043 87.0453C164.294 87.0453 163.883 86.5104 163.883 85.9472C163.883 85.0181 164.711 84.5451 166.068 84.5507V84.4888C166.068 84.2466 165.972 83.8412 165.319 83.8468C164.958 83.8468 164.581 83.9651 164.328 84.1227L164.142 83.5202C164.418 83.3513 164.896 83.1936 165.476 83.1936C166.659 83.1936 166.997 83.9369 166.997 84.7478V86.0768C166.997 86.409 167.014 86.7356 167.053 86.9665H166.214V86.9609ZM166.09 85.1532C165.431 85.142 164.806 85.2828 164.806 85.8459C164.806 86.2063 165.043 86.3752 165.336 86.3752C165.707 86.3752 165.978 86.1331 166.068 85.8628C166.09 85.8008 166.096 85.7276 166.096 85.6601V85.1532H166.09Z" fill="white"/>
<path d="M171.386 81.5887V85.9304C171.386 86.3076 171.397 86.7131 171.414 86.9665H170.586L170.547 86.3808H170.53C170.31 86.7919 169.866 87.0453 169.331 87.0453C168.452 87.0453 167.754 86.2964 167.754 85.1645C167.754 83.9313 168.52 83.1936 169.404 83.1936C169.911 83.1936 170.271 83.402 170.434 83.6723H170.451V81.5831H171.38L171.386 81.5887ZM170.457 84.8154C170.457 84.7422 170.457 84.6464 170.434 84.5732C170.35 84.2128 170.051 83.92 169.635 83.92C169.032 83.92 168.7 84.4494 168.7 85.1307C168.7 85.8121 169.038 86.302 169.623 86.302C170.006 86.302 170.333 86.043 170.429 85.6375C170.451 85.5531 170.457 85.463 170.457 85.3672V84.8154Z" fill="white"/>
<path d="M174.544 83.2781L175.209 85.2546C175.282 85.4855 175.361 85.767 175.417 85.9698H175.44C175.496 85.7614 175.564 85.4855 175.637 85.249L176.211 83.2837H177.208L176.284 85.8008C175.778 87.1748 175.434 87.7886 175.001 88.1716C174.634 88.4925 174.257 88.6108 174.021 88.6446L173.812 87.8618C173.97 87.8224 174.161 87.738 174.353 87.6084C174.528 87.4902 174.736 87.2762 174.865 87.0228C174.899 86.9609 174.922 86.9045 174.922 86.8595C174.922 86.8201 174.91 86.7638 174.871 86.6793L173.52 83.295H174.544V83.2781Z" fill="white"/>
<path d="M179.348 81.9266C179.686 81.8703 180.147 81.8196 180.772 81.8196C181.454 81.8196 181.949 81.9604 182.276 82.2363C182.58 82.4841 182.777 82.8839 182.777 83.3682C182.777 83.8525 182.625 84.2523 182.343 84.5226C181.966 84.8942 181.392 85.0744 180.733 85.0744C180.558 85.0744 180.401 85.0632 180.277 85.0406V86.9665H179.353V81.9322L179.348 81.9266ZM180.271 84.3029C180.389 84.3367 180.536 84.348 180.727 84.348C181.426 84.348 181.848 83.9989 181.848 83.402C181.848 82.8388 181.454 82.5348 180.812 82.5348C180.553 82.5348 180.373 82.5573 180.271 82.5798V84.3029Z" fill="white"/>
<path d="M185.464 86.9609L185.402 86.5498H185.38C185.154 86.8426 184.771 87.0453 184.293 87.0453C183.544 87.0453 183.133 86.5104 183.133 85.9472C183.133 85.0181 183.961 84.5451 185.318 84.5507V84.4888C185.318 84.2466 185.222 83.8412 184.569 83.8468C184.208 83.8468 183.831 83.9651 183.578 84.1227L183.392 83.5202C183.668 83.3513 184.146 83.1936 184.726 83.1936C185.909 83.1936 186.247 83.9369 186.247 84.7478V86.0768C186.247 86.409 186.264 86.7356 186.303 86.9665H185.464V86.9609ZM185.34 85.1532C184.681 85.142 184.056 85.2828 184.056 85.8459C184.056 86.2063 184.293 86.3752 184.586 86.3752C184.957 86.3752 185.228 86.1331 185.318 85.8628C185.34 85.8008 185.346 85.7276 185.346 85.6601V85.1532H185.34Z" fill="white"/>
<path d="M186.887 86.4259L188.272 84.6577C188.463 84.4325 188.621 84.2523 188.813 84.0383V84.0214H187.022V83.2781H189.95V83.8468L188.599 85.5756C188.418 85.7952 188.244 86.0092 188.052 86.2063V86.2232H189.995V86.9665H186.887V86.4259Z" fill="white"/>
</g>
<defs>
<clipPath id="clip0_157_185138">
<rect width="157.897" height="72" fill="white" transform="translate(32.1016 24.0552)"/>
</clipPath>
</defs>
</svg>
