<svg width="204" height="121" viewBox="0 0 204 121" fill="none" xmlns="http://www.w3.org/2000/svg">
<g clip-path="url(#clip0_159_185387)">
<path d="M72.8445 61.9783C73.2542 60.8732 73.7072 59.7883 74.1977 58.7178C74.2035 58.6889 74.2122 58.6629 74.2179 58.6341C74.4372 58.106 74.6594 57.5751 74.8787 57.0471C74.8787 56.9317 74.9797 56.9721 75.0374 56.9461C75.0662 56.9461 75.0951 56.9461 75.1239 56.9461H84.0053C84.0341 56.9461 84.063 56.9461 84.0918 56.9461C84.1755 56.9865 84.2996 56.9086 84.3544 57.0356C84.5189 57.0413 84.692 57.024 84.7959 57.1971C84.894 57.2145 84.9228 57.2895 84.9488 57.3703C85.5807 58.7986 86.2126 60.224 86.8445 61.6522C87.2398 62.5179 87.6352 63.3806 88.0305 64.2462C89.277 64.2462 90.5206 64.2491 91.7671 64.2462C91.894 64.2462 92.0498 64.3126 92.1451 64.1597C90.8755 61.2281 89.6088 58.2936 88.3392 55.362C88.3075 55.287 88.2815 55.2062 88.2526 55.1283C86.8907 52.0005 85.5317 48.8727 84.1726 45.742C84.1611 45.716 84.164 45.6872 84.1582 45.6612C84.0053 45.3467 83.8552 45.0351 83.7023 44.7206C83.5523 44.3628 83.4109 44.0021 83.2551 43.6472C82.5568 42.0544 81.8585 40.4617 81.1574 38.866C80.4793 38.866 79.7983 38.866 79.1203 38.866C78.9875 38.866 78.8404 38.9093 78.725 38.7968C78.2229 38.6612 78.22 39.0622 78.119 39.3594C77.9574 39.6999 77.7959 40.0404 77.6372 40.3809C77.6198 40.4473 77.6083 40.5136 77.5823 40.5771C77.1293 41.6851 76.6763 42.7902 76.2233 43.8982C75.6693 45.2082 75.1095 46.5124 74.5642 47.8253C73.9611 49.2766 73.3725 50.7338 72.7781 52.188C71.924 54.205 71.0699 56.2248 70.2245 58.2445C69.3993 60.2182 68.3692 62.2062 67.7344 64.2462C69.1078 64.2462 70.4784 64.2462 71.8519 64.2462C72.1837 63.4902 72.5155 62.7372 72.8445 61.9812V61.9783ZM76.4714 53.1604C76.9071 52.3612 77.1322 51.4725 77.5477 50.6674C77.5362 50.6386 77.5419 50.6155 77.5679 50.5953C77.9603 49.5767 78.3354 48.5524 78.8029 47.5627C78.8231 47.4819 78.7654 47.3752 78.8808 47.3232C79.1433 46.6596 79.4059 45.9988 79.6945 45.2659C80.3668 46.8385 81.0073 48.3389 81.6508 49.8422C81.9047 50.3587 82.1528 50.8809 82.3346 51.4292C82.5857 51.989 82.8396 52.5458 83.0906 53.1056C83.1483 53.1691 83.206 53.2297 83.0877 53.2903C81.2122 53.2845 79.3338 53.2816 77.4583 53.2758C77.2361 53.2758 77.0139 53.2701 76.7917 53.2643C76.7109 53.273 76.6301 53.2787 76.5493 53.2874C76.4916 53.2643 76.4455 53.2153 76.4743 53.1633L76.4714 53.1604ZM83.5667 53.3884C83.5927 53.3566 83.6158 53.322 83.6359 53.2787C83.6158 53.3191 83.5927 53.3566 83.5667 53.3884C83.5494 53.4086 83.5292 53.4259 83.509 53.4403C83.5292 53.4259 83.5465 53.4086 83.5667 53.3884ZM83.6965 53.0941C83.6908 53.1287 83.6821 53.1604 83.6706 53.1922C83.6821 53.1604 83.6879 53.1287 83.6965 53.0941Z" fill="white"/>
<path d="M92.5552 57.4741C93.1842 58.7697 94.0181 59.9845 95.0424 61.003C95.5704 61.5282 96.1533 62.0043 96.7737 62.4198C97.0622 62.6131 98.1442 63.4845 98.5107 63.395C100.138 64.1135 101.826 64.5665 103.615 64.5925C104.178 64.5925 104.743 64.5896 105.306 64.5867C105.444 64.5867 105.583 64.5896 105.721 64.5925C107.346 64.4973 108.947 64.2203 110.485 63.6894C111.192 63.447 113.76 62.8151 113.613 61.8138C113.613 60.8357 113.613 59.8575 113.613 58.8822C113.613 58.7986 113.613 58.7149 113.613 58.6312V57.7425C112.453 58.484 111.299 59.1765 110.021 59.6988C109.06 60.0912 107.453 60.8357 106.388 60.6395C106.215 60.7895 106.001 60.7001 105.808 60.7404C105.216 60.853 104.622 60.8703 104.03 60.7404C103.895 60.7318 103.756 60.7203 103.621 60.7116C103.439 60.7693 103.28 60.6856 103.119 60.6308C103.09 60.6308 103.061 60.6308 103.032 60.6279L102.951 60.6539C102.897 60.6539 102.839 60.6539 102.784 60.6539C102.291 60.5125 101.8 60.3596 101.304 60.2297C100.877 60.1201 100.493 59.9181 100.106 59.7161C98.1529 58.7639 96.8169 57.2491 96.0292 55.2351C95.8445 54.759 95.6714 54.28 95.5906 53.7721C95.5791 53.6914 95.5675 53.6106 95.556 53.5269C94.4538 47.7907 98.8569 42.1035 104.882 42.4757C104.911 42.4757 104.939 42.4757 104.965 42.4757C105.136 42.4815 105.317 42.3949 105.47 42.5421C105.721 42.5478 105.972 42.5536 106.223 42.5594C106.371 42.519 106.506 42.5738 106.642 42.62C106.725 42.62 106.809 42.62 106.893 42.62C109.268 43.2086 111.244 44.0396 113.362 45.2544V44.4782C113.362 44.4522 113.362 44.4234 113.362 44.3974C113.353 43.1711 113.345 41.9448 113.336 40.7185C110.805 39.6653 108.269 38.9122 105.551 38.6064C105.522 38.6064 105.496 38.6064 105.467 38.6064C105.075 38.6064 104.685 38.6064 104.293 38.6064C104.181 38.6064 104.071 38.6035 103.958 38.6006C103.93 38.6006 103.904 38.6006 103.875 38.6006C103.488 38.7853 103.061 38.7102 102.654 38.7593C100.868 38.9786 99.1945 39.5383 97.6508 40.4386C94.8433 42.0746 92.9245 44.4436 91.9261 47.5454C91.8482 47.7849 91.7386 48.0157 91.6434 48.2494C91.5539 49.8105 91.1153 51.2561 91.2654 52.8488C91.4183 54.4531 91.8511 56.0228 92.5552 57.4741Z" fill="white"/>
<path d="M44.0114 50.0442C43.8671 50.9791 43.9364 51.9168 43.9537 52.8546C43.9537 52.9094 43.9508 52.9671 43.9479 53.022C44.6606 58.0311 47.6182 62.7026 52.8148 64.0068C52.8495 64.102 52.9187 64.076 52.988 64.0616C53.591 64.2982 54.2373 64.3559 54.8635 64.5002C55.2703 64.5925 55.6974 64.5059 56.0956 64.6618C57.016 64.6675 57.9393 64.6848 58.8569 64.5896C60.4266 64.3703 61.9414 64.1568 63.462 63.6836C64.1834 63.4585 64.8932 63.1988 65.5886 62.9074C66.3273 62.5987 66.4831 62.5987 66.4917 61.8254C66.4889 58.3917 66.486 54.9581 66.4831 51.5273C63.6352 51.5273 60.7873 51.5273 57.9393 51.5273C57.9336 52.113 57.9278 52.6959 57.922 53.2816C57.9307 53.8097 57.9422 54.3377 57.9509 54.8657C58.2135 54.8253 58.3318 54.658 58.375 54.4185C58.401 54.2685 58.3952 54.0924 58.375 53.902C58.3952 54.0924 58.3981 54.2685 58.375 54.4185C58.3346 54.658 58.2135 54.8253 57.9509 54.8657C57.948 55.0014 57.9451 55.137 57.9422 55.2726C59.4513 55.2726 60.9575 55.2726 62.4666 55.2755L62.455 55.2986C62.6051 55.3303 62.7118 59.8114 62.455 59.8835C62.2531 60.0047 62.028 60.048 61.8 60.0912C61.1883 60.2759 60.5882 60.4779 59.9332 60.4923C59.6591 60.4981 59.4051 60.7232 59.1051 60.6337C58.9002 60.7578 58.6665 60.726 58.4443 60.7434C57.8528 60.879 57.2584 60.853 56.6669 60.7434C56.5024 60.7347 56.3379 60.726 56.1735 60.7174C55.3944 60.6164 54.6182 60.5039 53.9055 60.1461C53.6314 60.1461 53.4092 59.9989 53.1784 59.8893C50.1141 58.4206 48.4463 55.9824 48.1174 52.6151C48.1 52.6122 48.0827 52.6065 48.0683 52.5978C48.0625 52.0207 48.0568 51.4407 48.051 50.8637C48.0712 50.8521 48.0914 50.8435 48.1145 50.8377C48.4838 45.2342 53.7122 41.7977 59.0271 42.6258C59.056 42.6258 59.0849 42.6229 59.1137 42.62C61.6298 43.1711 63.7564 43.9098 66.0676 45.0611C66.0734 43.7222 66.0791 42.3834 66.082 41.0446C66.082 40.9897 66.082 40.9349 66.082 40.8801C63.3062 39.2094 59.8495 38.6929 56.6784 38.6035C56.5399 38.6121 56.4014 38.6179 56.2629 38.6266C55.8792 38.8026 55.4608 38.7045 55.0597 38.7651C53.063 39.0623 51.2221 39.7519 49.5543 40.8772C47.3816 42.3459 45.8234 44.3311 44.828 46.7462C44.5827 47.3406 44.3807 47.9638 44.2711 48.6073C44.2278 48.8612 44.1701 49.118 44.0143 49.3373C43.9854 49.395 43.9566 49.4498 43.9248 49.5075C43.9335 49.5335 43.9421 49.5594 43.9479 49.5854C44.0922 49.721 44.0374 49.8999 44.0172 50.0471L44.0114 50.0442ZM58.3087 53.4259C58.3231 53.5067 58.3346 53.5875 58.3462 53.6683C58.3346 53.5875 58.3202 53.5067 58.3087 53.4259Z" fill="white"/>
<path d="M38.8598 67.8732C38.6434 67.6453 38.023 67.8299 38.0519 68.1819C38.0519 68.7388 38.0519 69.2986 38.0519 69.8555V71.4829C37.293 70.623 36.5342 69.766 35.7868 68.8975C35.4839 68.5455 35.129 67.9021 34.6384 67.8444C34.0556 67.7751 34.2835 67.9453 34.1133 68.2685C34.1133 69.7776 34.1133 71.2838 34.1133 72.7929C34.1219 72.8188 34.1335 72.8448 34.1421 72.8708C35.0164 72.8881 34.8808 72.487 34.8837 71.7051C34.8837 71.3905 34.7365 69.264 35.0568 69.3419C35.8936 70.3114 36.7332 71.2809 37.57 72.2533C37.6681 72.3687 37.7605 72.4928 37.8528 72.6111L37.9971 72.7871C38.5078 73.3988 38.8483 72.7871 38.9031 72.386C39.0156 71.5694 38.9089 70.6605 38.9089 69.8353C38.9089 69.4977 39.1339 68.1618 38.8627 67.8761L38.8598 67.8732Z" fill="white"/>
<path d="M56.1705 72.1292C56.1445 72.1177 56.1186 72.1177 56.0926 72.1292C55.9801 72.2677 55.8618 72.2013 55.729 72.1552C55.2645 71.9936 54.9182 71.7281 54.849 71.203C54.8432 70.0863 54.8346 68.9697 54.8288 67.853C54.5518 67.853 54.2719 67.853 53.9949 67.853C53.9891 68.9668 53.9862 70.0834 53.9805 71.1972C54.0843 73.1016 56.9813 73.6181 58.0431 72.2071C58.6722 71.3703 58.4385 70.0892 58.4356 69.1168C58.4356 68.231 58.5683 67.8328 57.5988 67.8472C57.5988 68.7648 57.5988 69.6824 57.5959 70.5999C57.5959 70.7442 57.6565 70.9087 57.5065 71.027C57.492 71.8003 56.837 72.337 56.1676 72.1234L56.1705 72.1292Z" fill="white"/>
<path d="M44.6766 76.5583C44.6593 76.1775 44.3823 76.3333 44.1861 76.3217C43.736 76.2121 43.1243 78.1886 42.9742 78.5406C42.8444 78.8436 41.6902 81.4001 41.9211 81.4289C42.1692 81.4232 42.4202 81.4174 42.6684 81.4116C42.8732 80.9413 43.0752 80.4681 43.2801 79.9978C43.384 79.8246 43.5571 79.9025 43.6898 79.9112C44.238 79.9516 44.7978 79.79 45.3345 79.9978C45.5769 80.4681 45.7096 80.9904 46.027 81.4261C46.3069 81.4203 46.5839 81.4116 46.8638 81.4059C46.3646 80.067 45.6548 78.8205 45.1123 77.5019C44.9796 77.1816 44.8209 76.87 44.6737 76.5555L44.6766 76.5583ZM43.684 79.1495C43.6898 79.1206 43.6927 79.0946 43.6985 79.0658C43.7735 78.8436 43.8456 78.6214 43.9207 78.4021C44.0447 78.3098 44.0361 77.8568 44.1746 77.8395C44.4458 77.802 44.616 78.4685 44.7026 78.656C44.7545 78.7686 44.8065 78.8782 44.8555 78.9908C44.9911 79.1264 44.8786 79.1495 44.7719 79.1754C44.4083 79.1668 44.0476 79.161 43.684 79.1523V79.1495Z" fill="white"/>
<path d="M76.8563 80.4508C76.0397 80.0295 75.5146 78.7715 76.1263 77.9809L76.1436 77.8972C76.6716 77.0431 77.52 77.0344 78.3769 77.0691C78.4664 77.072 78.5529 77.1816 78.6395 77.2422C78.6684 77.2422 78.6972 77.2422 78.7261 77.2451C79.0954 77.3143 79.5628 77.4903 79.5801 76.971C79.5975 76.4747 78.8386 76.4285 78.4721 76.3073C78.2875 76.1919 78.0855 76.2179 77.8864 76.2323C77.7162 76.1861 77.5488 76.2121 77.3815 76.2381C76.4697 76.3131 75.8147 76.7863 75.3559 77.5567C75.0529 77.9838 74.9664 78.4743 74.9375 78.985C75.1222 80.0497 75.6617 80.8519 76.6572 81.3222L76.689 81.3164L76.712 81.3395C77.4247 81.5646 78.4548 81.5963 79.1416 81.2529C79.7215 80.9615 79.6465 80.6441 79.6465 80.0584C78.8184 80.5345 77.7768 80.9269 76.8563 80.4508Z" fill="white"/>
<path d="M102.522 80.4883C102.768 80.1536 103.013 79.8189 103.258 79.4842C104.023 78.4252 104.787 77.3663 105.552 76.3102H101.036C101.036 76.5353 101.036 76.7546 101.036 76.9767C101.882 76.9767 102.73 76.9767 103.576 76.9825C103.703 76.9825 103.861 76.9133 103.945 77.0835C103.697 77.4124 103.449 77.7385 103.2 78.0674C102.416 79.1783 101.645 80.3036 100.771 81.3482C100.592 81.1693 100.791 80.9442 100.696 80.7538C100.583 80.5951 100.413 80.6701 100.275 80.6672C99.4956 80.6585 98.7165 80.6672 97.9374 80.6557C97.8653 80.6557 97.6027 80.774 97.7441 80.4883C97.7759 80.4335 97.8076 80.3758 97.8365 80.3209C98.2231 79.8189 98.6098 79.3168 98.9964 78.8148C99.0108 78.7888 99.0253 78.7628 99.0397 78.7368C99.3715 78.2463 99.712 77.7616 100.096 77.3115C100.318 76.9796 100.54 76.6478 100.762 76.316C99.2792 76.3073 97.7932 76.2987 96.3101 76.29C95.4387 77.5163 98.7511 77.0633 99.1811 77.0633C98.1423 78.48 97.1324 79.8593 96.0908 81.2789C95.8744 80.7999 95.6868 80.2719 95.4387 79.8131C95.2684 79.4986 94.9337 79.2101 94.9424 78.8234C94.7029 78.2665 94.4605 77.7068 94.221 77.1499C94.0969 76.919 94.1489 76.5814 93.8113 76.4804C93.794 76.4602 93.7738 76.4574 93.7536 76.4689C93.719 76.44 93.6843 76.4112 93.6497 76.3823C93.4968 76.2612 93.3467 76.264 93.1938 76.3823C93.1044 76.5468 93.0063 76.7055 92.9832 76.8959C92.6571 77.3807 92.5677 77.9693 92.3051 78.4829C92.2445 78.5233 92.2156 78.581 92.2301 78.6561C91.8059 79.5621 91.402 80.4768 91.0586 81.4174C91.3356 81.4232 91.6126 81.429 91.8896 81.4318C92.2041 80.9961 92.2964 80.4537 92.5706 80.0007C92.7841 79.8016 93.0409 79.9343 93.2746 79.917C93.6497 79.8881 94.0277 79.8997 94.4028 79.8968C94.4576 79.9285 94.5644 79.8824 94.5673 79.9978C94.8558 80.4393 95.003 80.9471 95.2425 81.4116C95.7157 81.4116 96.1918 81.4059 96.665 81.403C98.0356 81.403 99.4032 81.403 100.774 81.403C101.083 81.403 101.388 81.403 101.697 81.403C102.952 81.403 104.21 81.4059 105.466 81.4088C105.468 81.1895 105.474 80.9731 105.477 80.7538C105.422 80.6412 105.315 80.6672 105.223 80.6672C104.326 80.6672 103.431 80.6759 102.534 80.6787C102.433 80.621 102.398 80.5604 102.522 80.4912V80.4883ZM92.9774 79.1495C92.9341 78.9331 93.1361 78.7772 93.1274 78.5695C93.139 78.5464 93.1448 78.5204 93.1448 78.4916C93.3035 78.4339 93.2659 78.2809 93.3208 78.1684C93.3871 78.0299 93.3496 77.7558 93.6439 77.8193C93.6209 78.0155 93.742 78.1598 93.8286 78.3156C93.8892 78.4743 93.9354 78.633 94.045 78.7744C94.1402 78.8955 94.221 79.0744 93.9815 79.1697C93.6468 79.1639 93.3121 79.1552 92.9774 79.1495Z" fill="white"/>
<path d="M102.378 70.6172C102.822 70.6172 103.264 70.623 103.708 70.6259C104.106 70.6047 104.301 70.3931 104.294 69.9911C104.294 69.9507 104.288 69.9074 104.282 69.867C103.771 69.867 103.258 69.867 102.747 69.8555C102.617 69.8555 102.47 69.9132 102.357 69.7891C101.786 68.6148 102.58 68.6177 103.414 68.6032C104.123 68.5917 104.322 68.6148 104.279 67.853C103.76 67.853 101.881 67.5616 101.558 67.9829C101.35 68.2541 101.526 69.1832 101.529 69.5121C101.529 70.0113 101.529 70.5076 101.529 71.0068C101.529 71.3559 101.226 73.3382 102.13 72.8506C102.733 72.5245 101.838 70.9722 102.378 70.6172Z" fill="white"/>
<path d="M61.468 72.79C61.468 71.3963 61.4622 70.0055 61.4593 68.6119C61.6815 68.508 64.0245 68.5426 62.8674 67.853C62.5125 67.6395 61.4334 67.8501 61.0323 67.8501C60.3109 67.8501 59.5896 67.8501 58.8711 67.8501C58.8711 68.0723 58.8711 68.2916 58.8711 68.5138C59.4222 68.5484 59.9791 68.4589 60.5273 68.5657C60.6716 68.684 60.6139 68.8485 60.6139 68.9928C60.6225 70.3085 60.6225 71.6243 60.6254 72.94C60.888 72.7929 61.2112 72.9689 61.468 72.7871V72.79Z" fill="white"/>
<path d="M62.801 76.3102C62.4201 76.3102 61.0524 76.0851 60.7985 76.3679C59.979 77.2855 62.4749 76.8036 62.3047 77.1441C62.2931 77.1672 62.2902 77.1931 62.2989 77.2162C62.4518 77.3345 62.371 77.5019 62.371 77.6433C62.3826 78.8984 62.3826 80.1536 62.3855 81.4088C62.4114 81.4088 62.4345 81.4174 62.4576 81.4289C62.4865 81.4203 62.5124 81.4116 62.5413 81.4001H63.0433C63.0722 81.4088 63.0982 81.4174 63.127 81.4289C63.1501 81.4174 63.1732 81.4116 63.1992 81.4088C63.2078 80.2373 63.2136 79.0658 63.2222 77.8943C63.2424 77.6115 63.1155 77.3143 63.2915 77.046C63.8397 76.8902 64.4024 77.02 64.9564 76.9739C64.9564 76.7517 64.9564 76.5324 64.9564 76.3102C64.2379 76.3102 63.5165 76.3102 62.7981 76.3102H62.801Z" fill="white"/>
<path d="M32.6881 67.8444C32.5554 67.8674 32.4169 67.8501 32.2812 67.8501C32.2841 69.5468 32.287 71.2463 32.2899 72.9429C32.5756 72.9112 32.9016 73.1016 33.1353 72.79C33.1353 71.2809 33.1353 69.7747 33.1353 68.2656C33.1902 67.9107 33.0372 67.7838 32.691 67.8444H32.6881Z" fill="white"/>
<path d="M71.5643 76.3073C71.5239 76.3073 71.4806 76.3102 71.4403 76.3131C71.4403 77.0777 71.4402 77.8395 71.4316 78.6041C71.4316 78.7339 71.4922 78.884 71.3623 78.9936C71.3623 79.2158 71.3623 79.4351 71.3623 79.6573C71.3566 79.7121 71.3508 79.764 71.345 79.8189C71.3191 79.816 71.2902 79.8131 71.2642 79.8073C70.9266 79.4755 70.5891 79.1408 70.3294 78.7397C69.6744 78.001 69.0194 77.2595 68.3644 76.5208C68.2663 76.4112 68.1884 76.2525 67.9922 76.3188C67.7671 76.3188 67.493 76.189 67.418 76.5554C67.5392 76.6853 67.4843 76.8469 67.4872 76.994C67.493 78.4627 67.493 79.9343 67.493 81.403C67.7152 81.4116 67.9373 81.4203 68.1595 81.4318C68.1826 81.4203 68.2057 81.4145 68.2317 81.4116C68.2403 80.4623 68.249 79.5159 68.2576 78.5666C68.2576 78.4829 68.2576 78.4021 68.2576 78.3184C68.249 78.2059 68.2374 78.0934 68.2288 77.9837C68.3442 77.8106 68.425 77.9116 68.5115 78.0155C68.8116 78.3704 69.1117 78.7224 69.4118 79.0744C70.0524 79.7727 70.69 80.4767 71.2729 81.227C71.3248 81.2818 71.3768 81.3366 71.4316 81.3914C71.4604 81.3914 71.4893 81.3972 71.5182 81.4001C71.7144 81.4116 71.9077 81.4203 72.1039 81.4318C72.1299 81.4232 72.153 81.4145 72.1789 81.4058C72.1847 79.8997 72.1905 78.3935 72.1962 76.8844C72.1808 76.4958 71.9692 76.3035 71.5614 76.3073H71.5643Z" fill="white"/>
<path d="M65.632 76.3275C65.3579 76.2813 65.531 76.5785 65.4848 76.717C65.6377 76.8353 65.557 77.0027 65.557 77.1441C65.5685 78.5666 65.5685 79.9891 65.5714 81.4116C65.6233 81.4116 65.6753 81.4058 65.7272 81.403C65.8657 81.403 66.0071 81.403 66.1456 81.403C66.2264 81.403 66.3072 81.4087 66.3851 81.4087C66.3937 79.79 66.4024 78.1713 66.4082 76.5554C66.2985 76.0072 65.883 76.3708 65.6262 76.3275H65.632Z" fill="white"/>
<path d="M106.352 76.3073C106.283 76.3073 106.214 76.3131 106.145 76.316C106.145 76.4516 106.147 76.5872 106.15 76.7257C106.15 78.2867 106.147 79.8448 106.145 81.4059C106.171 81.4116 106.196 81.4203 106.22 81.4318C106.358 81.4232 106.499 81.4145 106.638 81.403C106.918 81.478 106.981 81.3655 106.978 81.0913C106.97 79.6919 106.981 78.2925 106.987 76.893C106.966 76.4987 106.753 76.3035 106.349 76.3073H106.352Z" fill="white"/>
<path d="M92.9828 70.7817C93.5455 70.6807 93.8513 71.0501 94.1283 71.4309C94.4659 71.8984 94.7718 72.386 95.092 72.8679C95.698 72.8419 96.3097 72.9689 96.9099 72.79C97.4004 71.705 97.5966 71.252 98.9268 71.4078C99.778 71.5088 99.5991 72.0109 99.9915 72.5995C100.179 72.8823 100.664 73.2112 101.016 72.8159C100.447 71.5435 99.8732 70.2768 99.3105 69.0014C98.8344 67.9251 98.367 67.1865 97.764 68.6148C97.5129 69.2092 97.259 69.8064 97.0051 70.4008C96.8002 70.8827 96.5376 72.0311 96.1625 72.386C95.799 72.7294 95.7615 72.3687 95.4672 71.9157C95.144 71.4165 94.8122 70.9664 94.4082 70.5307C94.5986 70.3604 94.7891 70.1931 94.9766 70.0228C95.5133 68.6436 94.6073 67.7491 93.4878 67.8443C92.2528 67.8501 92.1345 67.7376 92.1374 69.0158C92.1374 69.9103 92.1374 70.8019 92.1374 71.6964C92.1374 71.9705 92.0883 73.5344 92.8385 72.7496C93.2223 72.3485 92.5096 71.1568 92.9799 70.7817H92.9828ZM97.9025 70.5018C98.0756 70.0719 98.2516 69.642 98.4536 69.1428C98.6671 69.6506 98.8489 70.0806 99.0307 70.5076C99.1201 70.5999 99.1345 70.6894 98.9787 70.6923C98.6353 70.7038 98.2891 70.7038 97.9457 70.6923C97.7842 70.6865 97.8188 70.5913 97.8996 70.5047L97.9025 70.5018ZM92.9886 68.609C93.4041 68.5946 93.9667 68.5369 94.1774 68.9956C94.3909 69.4631 93.9927 69.8497 93.5657 69.9565C92.9568 70.1383 92.8789 70.095 92.902 69.4862C92.9136 69.1947 92.7866 68.8831 92.9886 68.609Z" fill="white"/>
<path d="M114.594 67.7491C110.99 67.602 110.987 73.3065 114.444 72.9544C118.065 72.9544 118.221 67.8963 114.594 67.7491ZM114.487 72.1177C112.929 72.1206 112.072 70.2623 113.192 69.1313C114.144 68.1675 116.372 68.5773 116.377 70.1383C116.38 71.4887 115.786 72.1119 114.49 72.1177H114.487Z" fill="white"/>
<path d="M110.83 71.8003C109.831 72.3803 108.363 72.3283 107.74 71.2607C107.211 70.3576 107.592 69.2496 108.521 68.785C108.946 68.5715 109.433 68.5542 109.898 68.6292C110.146 68.6696 110.974 69.1313 111.153 68.9755C111.364 68.7908 111.101 68.2195 110.937 68.0781C110.538 67.729 109.578 67.703 109.078 67.7549C106.727 67.9915 105.728 70.8712 107.575 72.4351C108.348 73.0901 109.364 73.0526 110.31 72.8823C111.191 72.7236 111.283 72.4639 111.237 71.5983C111.072 71.682 110.951 71.7397 110.833 71.8061L110.83 71.8003Z" fill="white"/>
<path d="M104.965 67.853C104.968 69.5525 104.971 71.2521 104.973 72.9516C105.251 72.9314 105.539 73.0324 105.802 72.8708C105.802 71.1972 105.802 69.5266 105.802 67.853C105.522 67.853 105.245 67.853 104.965 67.853Z" fill="white"/>
<path d="M98.5939 67.4923C98.8795 67.1288 99.1536 66.7537 99.4682 66.3382C98.3371 66.3382 98.4236 66.5373 97.9648 67.5962C98.2101 67.5674 98.4352 67.6972 98.5939 67.4952V67.4923Z" fill="white"/>
<path d="M65.7491 67.7665C64.0755 67.5472 62.4683 69.4083 63.2156 71.3386C63.8937 73.0872 66.5512 73.5488 67.8352 72.1985C69.4914 70.4614 68.1295 67.5818 65.7462 67.7636L65.7491 67.7665ZM67.6707 70.4095C67.6881 71.2059 66.8888 72.2648 65.7779 72.1177C64.2284 72.1177 63.3166 70.271 64.465 69.1139C65.6134 67.9569 67.639 68.8023 67.6707 70.4095Z" fill="white"/>
<path d="M42.3234 70.7327C41.9887 70.2133 40.445 69.7805 40.4248 69.1226C40.3902 68.0781 41.9945 68.7475 42.3436 69.1457C42.3436 68.6696 42.4562 68.1964 42.0349 67.9021C41.7377 67.6943 41.1693 67.7347 40.8461 67.7982C40.0757 67.9482 39.4149 68.5513 39.6025 69.3967C39.8391 70.4586 41.6511 70.6028 41.7262 71.5521C41.8272 72.8333 40.0959 71.8984 39.7381 71.4569C39.5592 71.806 39.7064 72.1754 39.666 72.5332C40.9615 73.5142 43.4776 72.5332 42.3234 70.7356V70.7327Z" fill="white"/>
<path d="M53.4795 67.8501C52.0367 67.8501 50.5911 67.8501 49.1484 67.8501C49.1484 68.0723 49.1484 68.2916 49.1484 68.5138C49.437 68.5138 49.7284 68.4965 50.0141 68.5224C50.3055 68.5484 50.6142 68.407 50.8855 68.6119C50.8912 70.0575 50.897 71.5031 50.9028 72.9487C51.1798 72.9314 51.4683 73.0295 51.728 72.865C51.728 71.4454 51.7338 70.0286 51.7367 68.609C51.8319 68.4619 51.9848 68.5196 52.1147 68.5167C52.5677 68.5109 53.0236 68.5138 53.4766 68.5109C53.4766 68.2887 53.4766 68.0694 53.4766 67.8473L53.4795 67.8501Z" fill="white"/>
<path d="M43.4775 68.5224C43.8237 68.5542 44.1844 68.4157 44.5162 68.6061C44.9029 68.9033 44.6028 71.0183 44.6028 71.5031C44.6028 72.4639 44.3835 72.8852 45.4251 72.8708C45.4309 71.4512 45.4396 70.0315 45.4453 68.6148C45.5406 68.4619 45.6935 68.5253 45.8204 68.5224C46.2475 68.5138 46.6745 68.5167 47.1016 68.5167C47.1016 68.2945 47.1016 68.0752 47.1016 67.853C45.6589 67.853 44.2161 67.853 42.7734 67.853C42.7734 68.0752 42.7734 68.2945 42.7734 68.5167C43.0072 68.5167 43.2438 68.5022 43.4746 68.5224H43.4775Z" fill="white"/>
<path d="M80.8481 68.6956C80.1152 69.8065 80.1007 70.9145 80.8481 72.0253C82.6226 73.9528 86.2842 72.6919 85.7908 69.8844C85.4013 67.6712 82.2388 66.9557 80.8481 68.6956ZM83.0237 72.1177C81.327 72.3774 80.7298 70.0373 81.8291 69.0476C82.9544 68.0319 84.9281 68.785 84.9309 70.3489C84.9309 71.4136 84.1778 72.1148 83.0266 72.1177H83.0237Z" fill="white"/>
<path d="M89.1021 72.9833C89.6013 73.0064 90.819 72.9977 91.1161 72.5216C91.3499 72.1465 91.1248 70.8192 91.1219 70.3691C90.516 70.3691 89.9072 70.3691 89.3012 70.3691C89.3012 70.6144 89.2983 70.8596 89.2954 71.102C89.4339 71.1049 89.5725 71.1107 89.7081 71.1107C90.3342 71.1107 90.4814 71.379 90.2044 72.0225C88.7934 72.5159 86.9381 71.682 87.3795 69.9392C87.8066 68.2541 89.8523 68.381 91.0469 69.1024C91.0469 68.1358 90.9315 67.9569 89.8985 67.7866C89.281 67.6857 88.5568 67.6914 87.9768 67.9482C86.7736 68.4791 86.234 69.7689 86.5139 71.0097C86.8024 72.2793 87.8412 72.9256 89.0992 72.9804L89.1021 72.9833Z" fill="white"/>
<path d="M75.8861 70.3518C75.2917 70.346 74.6973 70.3431 74.1 70.3403C73.9961 70.6057 73.973 70.8712 74.1115 71.1337C74.2212 71.128 74.3337 71.1164 74.4433 71.1135C75.081 71.1078 75.2282 71.3732 74.9512 72.0225C73.6816 72.4553 72.1408 71.9647 72.0917 70.421C72.0513 69.1774 73.5921 67.9973 74.7867 68.6869C75.1474 68.71 75.4331 68.9581 75.7995 69.0534C75.7447 68.7158 75.8918 68.3955 75.7072 68.0983C73.8086 67.3077 71.0818 67.9627 71.1742 70.447C71.2636 72.9169 73.9673 73.4305 75.863 72.5995C75.8716 71.8493 75.8803 71.0991 75.8861 70.3489V70.3518Z" fill="white"/>
<path d="M49.6381 78.8263L49.6323 78.8176C49.6294 79.6977 49.7218 79.3774 50.3364 79.6573C50.8471 79.891 50.7605 80.4133 50.1431 80.6153C48.7523 81.0712 46.8883 79.3572 47.8982 77.9866C48.2098 77.5105 48.6253 77.1816 49.188 77.0748C49.8314 76.9508 50.3248 77.2912 50.9192 77.3259C51.2857 77.349 51.6608 77.4615 51.3463 76.818C51.1328 76.3823 50.5614 76.3419 50.1344 76.2063C49.8978 76.2092 49.6612 76.215 49.4246 76.2179C48.4955 76.2208 47.7914 76.6334 47.2692 77.3865C47.1941 77.6664 46.9518 77.877 46.8767 78.1396C46.4872 79.539 47.3298 80.9731 48.6686 81.3539C49.6583 81.6367 50.5586 81.3914 51.4675 81.0683C51.4675 80.3209 51.4675 79.5736 51.4646 78.8263C50.8557 78.8263 50.2469 78.8263 49.6381 78.8263Z" fill="white"/>
<path d="M56.7486 79.4899C56.7486 78.431 56.7515 77.3749 56.7544 76.316C55.9205 76.3044 55.9176 76.3592 55.9262 77.1729C55.932 77.9174 55.9349 78.6618 55.9378 79.4063C55.7762 79.689 55.9205 80.0641 55.6319 80.3209C55.1212 80.7826 53.7708 80.8634 53.3986 80.0786C53.2053 79.8881 53.3553 79.6111 53.2284 79.4063C53.237 79.3774 53.2457 79.3514 53.2572 79.3226C53.2572 78.5406 53.2572 77.7587 53.2572 76.9767C53.2515 76.7546 53.2457 76.5353 53.2399 76.3131C52.96 76.3131 52.683 76.3131 52.4031 76.3131C52.4089 77.3172 52.4118 78.3213 52.4147 79.3226C52.3829 79.4063 52.4349 79.5217 52.3281 79.5794C52.458 80.0093 52.5128 80.4565 52.8331 80.8201C53.6987 81.7954 55.9551 81.7636 56.6765 80.3267C56.7082 80.0786 56.8063 79.8362 56.7717 79.5794C56.763 79.5476 56.7544 79.5188 56.7486 79.487V79.4899Z" fill="white"/>
<path d="M36.4836 64.2434C37.707 64.2434 38.9333 64.2462 40.1567 64.2462C40.2779 64.2462 40.4106 64.2809 40.5058 64.1626C40.5058 64.1077 40.4972 64.05 40.4972 63.9952C40.4972 55.8785 40.4972 47.7589 40.4972 39.6422C40.4972 39.521 40.4597 39.3883 40.5664 39.2873C40.1307 38.7535 39.444 38.9584 38.7024 38.9584C38.4168 38.9584 36.3855 38.7651 36.4836 39.1979C36.6019 39.2758 36.5557 39.3999 36.5557 39.5037C36.5557 47.5743 36.5557 55.6419 36.5557 63.7124C36.5557 63.7528 36.5499 63.7961 36.547 63.8365C36.4662 63.9635 36.4605 64.102 36.4864 64.2462L36.4836 64.2434Z" fill="white"/>
<path d="M90.9783 77.7038C90.5224 76.7113 89.6626 76.3419 88.6267 76.2929C88.5401 76.3015 88.4536 76.3102 88.367 76.3188C88.3814 76.3333 88.3959 76.3477 88.4103 76.365C88.4363 76.3939 88.4593 76.4256 88.4766 76.4545C88.494 76.4833 88.5084 76.5151 88.517 76.5439C88.5257 76.5728 88.5315 76.6045 88.5344 76.6334C88.5344 76.6045 88.5286 76.5728 88.517 76.5439C88.5055 76.5151 88.494 76.4833 88.4766 76.4545C88.4593 76.4256 88.4363 76.3939 88.4103 76.365C88.3959 76.3506 88.3814 76.3362 88.367 76.3188H87.0253C86.832 76.3188 86.6415 76.316 86.4482 76.3131C86.4482 76.4458 86.4482 76.5814 86.4453 76.7142C86.4742 76.7459 86.5059 76.7776 86.5348 76.8065C86.5348 78.3386 86.5348 79.8737 86.5319 81.4059C86.5578 81.4059 86.5809 81.4145 86.604 81.4261C86.9503 81.4203 87.2965 81.4261 87.6428 81.4087C88.1621 81.3857 88.6873 81.4809 89.2038 81.3424C89.2903 81.3135 89.3971 81.3424 89.4577 81.2472C90.935 80.8345 91.6622 79.1841 90.9783 77.6981V77.7038ZM87.2071 76.8613C87.184 76.8671 87.1609 76.8729 87.1436 76.8815C87.1638 76.8729 87.184 76.8642 87.2071 76.8613ZM87.0888 76.9161C87.0743 76.9306 87.0599 76.945 87.0513 76.9623C87.0599 76.945 87.0714 76.9277 87.0888 76.9161ZM87.0455 77.0979C87.0541 77.1239 87.0657 77.1556 87.0859 77.1874C87.0686 77.1556 87.0541 77.1268 87.0455 77.0979ZM89.2875 80.4941C88.6786 80.6326 88.0612 80.5806 87.4466 80.5604C87.2677 80.4767 87.3629 80.3152 87.3629 80.1969C87.3484 79.2908 87.3485 78.3848 87.3427 77.4759C87.2648 77.4067 87.2042 77.3461 87.158 77.2912C87.2042 77.3461 87.2648 77.4095 87.3427 77.4759L87.3715 77.3114C87.3109 77.0979 87.4408 77.0546 87.6081 77.046C87.8592 77.046 88.1102 77.046 88.3612 77.046C88.4449 77.0835 88.5661 77.0171 88.6209 77.1383C88.7883 77.1672 88.9701 77.0835 89.1259 77.2018C89.2903 77.2739 89.4519 77.3489 89.6164 77.4211C90.2137 77.7818 90.3204 78.3588 90.306 78.9879C90.2858 79.2764 90.1819 79.5448 90.0867 79.8131C89.853 80.0843 89.6077 80.3354 89.2817 80.4969L89.2875 80.4941Z" fill="white"/>
<path d="M84.1723 76.4862C83.7135 76.2987 83.2317 76.241 82.744 76.2063C82.1958 76.3621 81.6014 76.391 81.1542 76.8094C80.8483 77.0229 80.6319 77.3114 80.4703 77.6433C80.1789 78.203 80.0606 78.7859 80.2193 79.4091C80.2251 79.464 80.2308 79.5188 80.2366 79.5736C80.5453 80.3585 81.0474 80.9644 81.8351 81.3106C81.8871 81.3251 81.9419 81.3395 81.9938 81.3539C82.5709 81.628 83.1624 81.4434 83.7511 81.4116C83.7972 81.3885 83.8434 81.3539 83.8924 81.3395C85.3582 80.8865 86.0623 79.4265 85.5169 77.9001C85.3178 77.1931 84.8475 76.743 84.1723 76.4891V76.4862ZM84.4349 79.9343C83.7424 80.9182 82.1843 80.9211 81.4802 79.9372C81.0503 79.3572 80.8916 78.7426 81.2494 78.0674C81.3533 77.8972 81.5148 77.7616 81.5668 77.5625C82.1987 76.9652 82.946 76.9912 83.7193 77.1556C83.8953 77.2682 84.0713 77.3836 84.2473 77.4961C84.8821 78.154 84.9687 79.288 84.432 79.9343H84.4349Z" fill="white"/>
<path d="M66.7352 74.8675C66.5246 74.9627 66.2187 74.7174 66.0745 75.0493C65.9302 75.3753 65.7888 75.7014 65.6445 76.0332C66.2562 76.0794 66.6313 75.762 67.0266 74.8963C66.9574 74.8877 66.891 74.879 66.8218 74.8704C66.7929 74.8704 66.767 74.8704 66.7381 74.8704L66.7352 74.8675Z" fill="white"/>
<path d="M59.5076 78.6532C59.3345 78.4454 59.0806 78.3617 58.8555 78.2377C57.4994 77.1037 59.297 76.7488 60.2001 77.5913C60.2001 76.3593 59.8972 76.3073 58.691 76.2063C58.1572 76.2929 57.7735 76.5901 57.5167 77.0604C57.4041 77.3316 57.433 77.6144 57.433 77.8972C57.5715 78.0039 57.5196 78.2232 57.684 78.3156C57.8225 78.5522 58.013 78.7282 58.2611 78.8436C58.5929 79.06 58.9248 79.2764 59.2595 79.4957C59.3864 79.6717 59.5711 79.8189 59.5538 80.0699C59.5538 80.0988 59.5538 80.1276 59.5509 80.1594C59.5711 80.3411 59.4499 80.4508 59.3432 80.5691C59.2393 80.5489 59.1816 80.6268 59.1094 80.673C58.792 80.6816 58.4775 80.6672 58.189 80.5171C58.1717 80.4912 58.1457 80.4825 58.114 80.4912C57.9437 80.3238 57.7735 80.1565 57.6032 79.992C57.4301 80.1998 57.5455 80.4392 57.5253 80.6643C57.5513 80.774 57.5744 80.8865 57.6004 80.9961C57.912 81.4491 58.6333 81.628 59.2768 81.4116L59.5163 81.3885C59.5538 81.3193 59.623 81.3251 59.6865 81.3135C59.7385 81.2068 59.9145 81.2299 59.9289 81.0827C60.0241 80.9673 60.154 80.8692 60.2146 80.7364C60.6127 79.8679 60.379 79.2591 59.5076 78.6561V78.6532ZM59.7009 81.0336C59.6692 81.0365 59.6375 81.0452 59.6115 81.0596C59.6404 81.0481 59.6692 81.0394 59.7009 81.0336C59.7183 81.0336 59.7327 81.0336 59.75 81.0336C59.7327 81.0336 59.7154 81.0336 59.7009 81.0336Z" fill="white"/>
<path d="M48.1778 72.8823C48.8732 72.8679 48.5443 70.8596 48.5443 70.3605C48.5443 69.8613 48.8732 67.853 48.1778 67.8386C47.4478 67.8242 47.794 69.8613 47.794 70.3605C47.794 70.8596 47.4449 72.8968 48.1778 72.8823Z" fill="white"/>
<path d="M78.2218 68.6148C78.7239 68.6148 79.2288 68.6148 79.7309 68.6148C79.8348 68.3436 79.9415 68.0752 79.6559 67.8415C79.5693 67.8444 79.4799 67.8501 79.3933 67.853C79.2779 68.055 79.0326 68.1416 78.7931 68.1156C79.0326 68.1416 79.2779 68.0521 79.3933 67.853C79.0297 67.853 78.6662 67.853 78.3055 67.853C78.0256 67.853 77.7457 67.853 77.4658 67.853C77.4745 67.8905 77.4774 67.9309 77.4803 67.9713C77.4803 67.9309 77.4745 67.8905 77.4658 67.853C77.2754 67.853 77.085 67.853 76.8945 67.853V72.8621C77.1109 72.8621 77.3302 72.8621 77.5466 72.8621C77.7977 72.8621 78.0487 72.8621 78.3026 72.8621C78.695 72.8621 79.0846 72.8621 79.477 72.8621C79.5318 72.8679 79.5895 72.8708 79.6443 72.8766C79.9242 72.6169 79.8867 72.311 79.5607 72.1927C79.0586 72.1927 78.5565 72.2014 78.0574 72.1956C77.9419 72.1956 77.8006 72.2504 77.7226 72.1033L77.7025 71.9475C77.7082 71.5608 77.714 71.1713 77.7226 70.7846C77.9073 70.6028 78.1381 70.7009 78.3488 70.6952C78.8047 70.6779 79.2606 70.6865 79.7136 70.6865C79.7626 69.8469 79.4193 69.9305 78.672 69.9421C77.5409 69.9594 77.8063 69.7084 77.7025 68.7648C77.7948 68.4445 78.0429 68.6523 78.2189 68.6119L78.2218 68.6148ZM77.5034 68.5773C77.486 68.5427 77.4745 68.5023 77.4658 68.4647C77.4716 68.5023 77.4832 68.5427 77.5034 68.5773ZM77.4572 72.3803C77.4572 72.3601 77.4572 72.3399 77.4572 72.3226C77.463 72.2562 77.4832 72.1956 77.5178 72.135C77.4803 72.1956 77.463 72.2591 77.4572 72.3226C77.4572 72.3428 77.4572 72.3601 77.4572 72.3803ZM77.4918 72.6111C77.4918 72.6111 77.4918 72.6198 77.4947 72.6255C77.4947 72.6198 77.4947 72.6169 77.4918 72.6111Z" fill="white"/>
<path d="M121.609 24.0552V96.0552H171.998V24.0552H121.609ZM146.456 94.9356V80.9644L122.616 64.9099L146.456 25.1747V40.7214L170.991 55.3188L146.456 94.9356Z" fill="white"/>
<path d="M142.801 55.5986L153.001 62.3534L154.368 47.3261L142.801 55.5986Z" fill="white"/>
<path d="M154.661 52.2111L153.623 63.6288L143.425 56.874L152.347 50.4943C150.694 49.5652 148.789 49.0314 146.758 49.0314C140.442 49.0314 135.32 54.153 135.32 60.4692C135.32 66.7854 140.442 71.907 146.758 71.907C153.074 71.907 158.196 66.7854 158.196 60.4692C158.196 57.2231 156.837 54.2973 154.664 52.2169L154.661 52.2111Z" fill="white"/>
</g>
<defs>
<clipPath id="clip0_159_185387">
<rect width="139.718" height="72" fill="white" transform="translate(32.2812 24.0552)"/>
</clipPath>
</defs>
</svg>
