<svg width="210" height="121" viewBox="0 0 210 121" fill="none" xmlns="http://www.w3.org/2000/svg">
<path d="M32.9366 71.4483L39.0654 63.4688C40.1913 64.5184 41.0269 65.3497 41.914 66.1176C43.6612 67.6257 45.6092 68.7222 47.9315 69.0343C52.815 69.6917 56.0706 67.0705 56.4992 62.0463C56.5779 61.1349 56.5969 60.2151 56.5969 59.2981C56.5969 49.5776 56.5969 39.8589 56.5969 30.142C56.5969 26.2752 58.789 24.1152 62.5846 24.1125H68.9276C68.9602 24.7036 69.0117 25.1869 69.0117 25.673C69.0117 37.6382 69.0958 49.6061 68.9846 61.5796C68.914 69.1006 66.2933 75.3014 59.1851 78.7208C55.8942 80.3062 52.3619 80.6956 48.7563 80.6045C44.1279 80.4885 39.8793 79.1931 36.0756 76.4614C34.7381 75.5002 33.5009 74.47 32.9258 72.8349L32.9366 71.4483Z" fill="white"/>
<path d="M146.137 63.7118V65.3691C146.137 69.1282 146.137 72.8846 146.137 76.6437C146.124 78.903 144.87 80.4526 142.651 80.5962C139.998 80.7702 137.331 80.7067 134.672 80.6597C134.382 80.6597 134.029 80.1073 133.839 79.7565C133.709 79.5052 133.809 79.1268 133.809 78.8064C133.809 62.7175 133.872 46.6286 133.766 30.5397C133.739 26.6535 136.27 23.9247 140.084 24.06C145.942 24.2671 151.813 24.06 157.678 24.129C162.09 24.1732 166.262 25.2339 169.979 27.7363C174.96 31.0977 177.494 35.9616 177.804 41.9249C177.969 44.4809 177.746 47.0476 177.142 49.5343C175.153 57.0995 169.762 61.121 162.565 62.8556C160.261 63.408 157.844 63.5737 155.467 63.6842C152.453 63.8168 149.415 63.7118 146.137 63.7118ZM146.221 52.741C150.562 52.5449 154.824 52.6664 158.973 52.0726C162.999 51.4953 165.421 47.9986 165.408 43.8997C165.408 39.6241 163.151 36.4201 158.945 35.8401C154.74 35.2601 150.521 35.4147 146.21 35.2435L146.221 52.741Z" fill="white"/>
<path d="M122.607 68.7388C122.607 71.545 122.653 74.1965 122.586 76.8481C122.553 78.1711 121.747 79.0356 120.516 79.4361C120.127 79.5526 119.724 79.6076 119.319 79.5991C106.693 79.5991 94.0663 79.5991 81.4399 79.5991C81.1306 79.5991 80.8213 79.5439 80.4062 79.5024V68.7305L122.607 68.7388Z" fill="white"/>
<path d="M80.3594 35.7351V24.8472C80.902 24.8168 81.3958 24.7698 81.8814 24.7698C94.0231 24.7698 106.163 24.7698 118.301 24.7698C121.247 24.7698 122.297 25.847 122.3 28.8356C122.3 30.5784 122.221 32.324 122.327 34.0613C122.409 35.365 122.034 35.7766 120.699 35.7683C112.349 35.7075 104.001 35.7379 95.6527 35.7379H80.3594V35.7351Z" fill="white"/>
<path d="M118.96 57.6271H80.2834V55.2103C80.2834 52.8266 80.3186 50.443 80.2671 48.0621C80.2454 47.0982 80.4543 46.6811 81.5259 46.6811C93.6125 46.717 105.699 46.6949 117.785 46.7336C118.179 46.7336 118.909 47.1755 118.914 47.4241C118.987 50.8103 118.96 54.1883 118.96 57.6271Z" fill="white"/>
<path d="M38.9806 92.1968H39.8894V94.7903C39.9053 94.9588 39.8845 95.1287 39.8284 95.2881C39.7723 95.4474 39.6823 95.5921 39.5649 95.7119C39.4475 95.8317 39.3056 95.9236 39.1492 95.9811C38.9928 96.0385 38.8259 96.0601 38.6604 96.0443C37.8926 96.0443 37.3555 95.5886 37.3555 94.7296H38.2589C38.2589 95.0555 38.4 95.2129 38.6333 95.2129C38.8666 95.2129 38.9806 95.072 38.9806 94.7903V92.1968Z" fill="white"/>
<path d="M41.7773 92.1968H42.6889V94.4755C42.6889 94.9257 42.906 95.1853 43.3373 95.1853C43.4293 95.1932 43.5219 95.18 43.6081 95.1465C43.6944 95.1131 43.7722 95.0604 43.8358 94.9922C43.8993 94.9241 43.947 94.8422 43.9753 94.7528C44.0036 94.6633 44.0118 94.5686 43.9993 94.4755V92.1968H44.9109V94.4699C44.9109 95.5223 44.1865 96.0443 43.3211 96.0443C42.4556 96.0443 41.7773 95.5223 41.7773 94.4699V92.1968Z" fill="white"/>
<path d="M48.2501 92.1968C49.1671 92.1968 49.6256 92.7354 49.6256 93.3955C49.6325 93.6486 49.5539 93.8965 49.4027 94.0976C49.2516 94.2987 49.0372 94.4409 48.7954 94.5003L49.6581 96.0084H48.6299L47.8513 94.5721H47.6315V96.0084H46.7227V92.1968H48.2501ZM48.1985 92.9674H47.6315V93.912H48.1985C48.2638 93.9224 48.3306 93.9175 48.3937 93.8976C48.4569 93.8777 48.5147 93.8434 48.5629 93.7973C48.611 93.7513 48.6482 93.6946 48.6716 93.6316C48.695 93.5687 48.7039 93.5012 48.6977 93.4342C48.6977 93.1524 48.5458 92.9674 48.1985 92.9674Z" fill="white"/>
<path d="M51.3672 92.1968H52.276V96.0056H51.3672V92.1968Z" fill="white"/>
<path d="M55.4596 96.0443C54.6457 96.0443 54.0271 95.6355 54 94.8677H54.9713C54.9711 94.9278 54.9831 94.9872 55.0067 95.0423C55.0303 95.0974 55.0649 95.1469 55.1082 95.1877C55.1516 95.2285 55.2028 95.2596 55.2586 95.2792C55.3144 95.2987 55.3736 95.3063 55.4325 95.3013C55.7038 95.3013 55.872 95.166 55.872 94.9422C55.872 94.2379 54 94.6163 54.0109 93.2657C54.0109 92.5448 54.5914 92.1443 55.3674 92.1443C56.1433 92.1443 56.7239 92.5558 56.7673 93.2822H55.7825C55.7804 93.2272 55.7675 93.1731 55.7446 93.1233C55.7216 93.0734 55.6891 93.0287 55.6488 92.9919C55.6086 92.955 55.5615 92.9268 55.5104 92.9088C55.4592 92.8909 55.4051 92.8835 55.3511 92.8873C55.3027 92.879 55.2532 92.8818 55.206 92.8955C55.1589 92.9093 55.1154 92.9336 55.0787 92.9667C55.042 92.9998 55.0131 93.0409 54.994 93.0869C54.9749 93.1329 54.9662 93.1827 54.9685 93.2325C54.9685 93.8954 56.8161 93.5971 56.8161 94.8704C56.8243 95.5112 56.3332 96.0443 55.4596 96.0443Z" fill="white"/>
<path d="M61.9161 94.1026C61.9161 95.2295 61.1483 96.0056 59.9546 96.0056H58.5547V92.1968H59.9546C61.1483 92.1968 61.9161 92.9674 61.9161 94.1026ZM59.8976 95.2074C60.1854 95.2074 60.4615 95.091 60.665 94.8838C60.8685 94.6766 60.9828 94.3956 60.9828 94.1026C60.9828 93.8096 60.8685 93.5285 60.665 93.3214C60.4615 93.1142 60.1854 92.9978 59.8976 92.9978H59.4635V95.2074H59.8976Z" fill="white"/>
<path d="M63.5977 92.1968H64.5092V96.0056H63.5977V92.1968Z" fill="white"/>
<path d="M68.0779 92.1553C68.4775 92.1365 68.8713 92.2587 69.1926 92.5012C69.5139 92.7438 69.7431 93.0919 69.8414 93.4866H68.8403C68.7732 93.3342 68.6625 93.2059 68.5226 93.1187C68.3826 93.0315 68.2201 92.9893 68.0562 92.9978C67.4973 92.9978 67.1121 93.4204 67.1121 94.1026C67.1121 94.7848 67.4973 95.2074 68.0562 95.2074C68.2198 95.2161 68.3821 95.1743 68.522 95.0876C68.6619 95.0009 68.7728 94.8732 68.8403 94.7213H69.8414C69.7427 95.1177 69.5117 95.467 69.1881 95.7093C68.8645 95.9516 68.4682 96.072 68.0671 96.0498C67.5634 96.0498 67.0804 95.8461 66.7242 95.4835C66.3681 95.1209 66.168 94.6292 66.168 94.1164C66.168 93.6036 66.3681 93.1118 66.7242 92.7493C67.0804 92.3867 67.5634 92.183 68.0671 92.183L68.0779 92.1553Z" fill="white"/>
<path d="M73.2976 92.1554C73.6993 92.134 74.0959 92.2554 74.4195 92.4987C74.7431 92.742 74.9737 93.0922 75.0719 93.4894H74.0708C74.0037 93.337 73.893 93.2087 73.753 93.1215C73.6131 93.0342 73.4506 92.9921 73.2867 93.0005C72.7278 93.0005 72.3426 93.4231 72.3426 94.1054C72.3426 94.7876 72.7278 95.2102 73.2867 95.2102C73.4503 95.2189 73.6126 95.1771 73.7525 95.0904C73.8924 95.0037 74.0033 94.876 74.0708 94.724H75.0719C74.9731 95.1205 74.7422 95.4697 74.4186 95.7121C74.0949 95.9544 73.6987 96.0747 73.2976 96.0526C72.7939 96.0526 72.3108 95.8489 71.9547 95.4863C71.5985 95.1237 71.3984 94.6319 71.3984 94.1192C71.3984 93.6064 71.5985 93.1146 71.9547 92.752C72.3108 92.3894 72.7939 92.1857 73.2976 92.1857V92.1554Z" fill="white"/>
<path d="M76.8008 92.1968H77.7124V96.0056H76.8008V92.1968Z" fill="white"/>
<path d="M81.3126 96.0443C80.9338 96.0448 80.5633 95.931 80.248 95.7172C79.9328 95.5034 79.6868 95.1992 79.5414 94.8431C79.3959 94.487 79.3574 94.0949 79.4308 93.7166C79.5042 93.3382 79.6861 92.9905 79.9536 92.7174C80.2211 92.4443 80.5621 92.2581 80.9336 92.1823C81.305 92.1065 81.6902 92.1446 82.0404 92.2917C82.3906 92.4388 82.6901 92.6883 82.901 93.0086C83.1119 93.329 83.2248 93.7059 83.2253 94.0915C83.2301 94.3488 83.1839 94.6045 83.0895 94.8432C82.9952 95.082 82.8546 95.299 82.6761 95.4812C82.4976 95.6634 82.2849 95.8072 82.0506 95.9039C81.8164 96.0007 81.5654 96.0484 81.3126 96.0443ZM81.3126 95.1964C81.9095 95.1964 82.3002 94.7572 82.3002 94.0915C82.3002 93.4259 81.9095 92.9867 81.3126 92.9867C80.7158 92.9867 80.3224 93.4148 80.3224 94.0915C80.3224 94.7682 80.7049 95.1964 81.3126 95.1964ZM81.9312 90.7246V91.4455L80.6479 91.9979V91.3571L81.9312 90.7246Z" fill="white"/>
<path d="M88.2502 92.1968V96.0056H87.3441L85.8193 93.6579V96.0056H84.9023V92.1968H85.8139L87.3386 94.5583V92.1968H88.2502Z" fill="white"/>
<path d="M94.6675 92.9342H93.2866V93.7048H94.5074V94.4202H93.2866V95.2488H94.6675V95.9918H92.375V92.1968H94.6675V92.9342Z" fill="white"/>
<path d="M97.7838 96.0443C96.9699 96.0443 96.3513 95.6355 96.3242 94.8677H97.2928C97.2929 94.9279 97.3054 94.9874 97.3292 95.0425C97.3531 95.0976 97.3879 95.1471 97.4315 95.1878C97.4751 95.2286 97.5265 95.2597 97.5824 95.2792C97.6384 95.2987 97.6977 95.3063 97.7567 95.3013C98.028 95.3013 98.1935 95.166 98.1935 94.9422C98.1935 94.2379 96.3242 94.6163 96.3351 93.2657C96.3351 92.5448 96.9157 92.1443 97.6916 92.1443C98.4675 92.1443 99.0481 92.5558 99.0915 93.2822H98.1067C98.1046 93.2272 98.0917 93.1731 98.0688 93.1233C98.0458 93.0734 98.0133 93.0287 97.973 92.9919C97.9328 92.955 97.8857 92.9268 97.8346 92.9088C97.7835 92.8909 97.7293 92.8835 97.6753 92.8873C97.6268 92.879 97.5772 92.8819 97.5299 92.8956C97.4826 92.9094 97.439 92.9337 97.4021 92.9667C97.3652 92.9998 97.336 93.0408 97.3166 93.0868C97.2973 93.1327 97.2882 93.1825 97.2901 93.2325C97.2901 93.8954 99.1403 93.5971 99.1403 94.8704C99.1485 95.5112 98.6574 96.0443 97.7838 96.0443Z" fill="white"/>
<path d="M102.355 94.6384H101.79V96.0194H100.879V92.1968H102.355C103.272 92.1968 103.73 92.7243 103.73 93.4231C103.73 94.0529 103.31 94.6384 102.355 94.6384ZM102.287 93.901C102.648 93.901 102.802 93.7159 102.802 93.4231C102.802 93.1303 102.648 92.9453 102.287 92.9453H101.79V93.901H102.287Z" fill="white"/>
<path d="M107.664 92.9342H106.283V93.7048H107.504V94.4202H106.283V95.2488H107.664V95.9918H105.371V92.1968H107.664V92.9342Z" fill="white"/>
<path d="M111.153 92.1553C111.555 92.1334 111.952 92.2546 112.275 92.498C112.599 92.7414 112.83 93.0919 112.927 93.4894H111.926C111.859 93.3369 111.748 93.2087 111.609 93.1214C111.469 93.0342 111.306 92.992 111.142 93.0005C110.583 93.0005 110.201 93.4231 110.201 94.1053C110.201 94.7875 110.583 95.2101 111.142 95.2101C111.306 95.2188 111.468 95.1771 111.608 95.0903C111.748 95.0036 111.859 94.8759 111.926 94.724H112.927C112.829 95.1204 112.598 95.4697 112.274 95.712C111.95 95.9543 111.554 96.0747 111.153 96.0525C110.649 96.0525 110.166 95.8488 109.81 95.4862C109.454 95.1237 109.254 94.6319 109.254 94.1191C109.254 93.6063 109.454 93.1146 109.81 92.752C110.166 92.3894 110.649 92.1857 111.153 92.1857V92.1553Z" fill="white"/>
<path d="M114.66 92.1968H115.572V96.0056H114.66V92.1968Z" fill="white"/>
<path d="M119.728 95.3317H118.334L118.109 96.0056H117.156L118.513 92.1968H119.568L120.925 96.0056H119.962L119.728 95.3317ZM119.031 93.2104L118.572 94.6053H119.495L119.031 93.2104Z" fill="white"/>
<path d="M123.409 92.1968V95.2903H124.603V96.0056H122.5V92.1968H123.409Z" fill="white"/>
<path d="M129.984 94.6384H129.419V96.0194H128.508V92.1968H129.984C130.901 92.1968 131.359 92.7243 131.359 93.4231C131.359 94.0529 130.936 94.6384 129.984 94.6384ZM129.913 93.901C130.277 93.901 130.431 93.7159 130.431 93.4231C130.431 93.1303 130.277 92.9453 129.913 92.9453H129.419V93.901H129.913Z" fill="white"/>
<path d="M135.334 95.3317H133.939L133.714 96.0056H132.762L134.118 92.1968H135.174L136.53 96.0056H135.567L135.334 95.3317ZM134.636 93.2104L134.178 94.6053H135.089L134.636 93.2104Z" fill="white"/>
<path d="M139.632 92.1968C140.549 92.1968 141.007 92.7354 141.007 93.3955C141.014 93.649 140.935 93.8972 140.783 94.0983C140.632 94.2995 140.417 94.4414 140.174 94.5003L141.04 96.0084H140.012L139.233 94.5721H139.013V96.0084H138.102V92.1968H139.632ZM139.577 92.9674H139.013V93.912H139.577C139.919 93.912 140.079 93.7325 140.079 93.4342C140.079 93.1359 139.919 92.9674 139.577 92.9674Z" fill="white"/>
<path d="M145.079 95.3317H143.681L143.456 96.0056H142.504L143.86 92.1968H144.916L146.272 96.0056H145.309L145.079 95.3317ZM144.379 93.2104L143.92 94.6053H144.843L144.379 93.2104Z" fill="white"/>
<path d="M151.056 92.1968V95.2903H152.25V96.0056H150.145V92.1968H151.056Z" fill="white"/>
<path d="M156.184 95.3317H154.787L154.562 96.0056H153.609L154.966 92.1968H156.021L157.378 96.0056H156.415L156.184 95.3317ZM155.484 93.2104L155.026 94.6053H155.948L155.484 93.2104Z" fill="white"/>
<path d="M162.73 94.6384H162.165V96.0194H161.254V92.1968H162.73C163.647 92.1968 164.105 92.7243 164.105 93.4231C164.119 94.0529 163.685 94.6384 162.73 94.6384ZM162.662 93.901C163.023 93.901 163.177 93.7159 163.177 93.4231C163.177 93.1303 163.034 92.9342 162.662 92.9342H162.165V93.8899L162.662 93.901Z" fill="white"/>
<path d="M168.076 95.3317H166.681L166.456 96.0056H165.504L166.86 92.1968H167.916L169.272 96.0056H168.309L168.076 95.3317ZM167.373 93.2104L166.915 94.6053H167.837L167.373 93.2104Z" fill="white"/>
<path d="M173.424 92.9039L171.815 95.2461H173.424V96.0056H170.781V95.3013L172.379 92.9563H170.781V92.1968H173.424V92.9039Z" fill="white"/>
</svg>
