<svg width="314" height="121" viewBox="0 0 314 121" fill="none" xmlns="http://www.w3.org/2000/svg">
<g clip-path="url(#clip0_159_185587)">
<path d="M77.4375 46.7897L78.9734 48.2884C80.534 50.7161 82.5282 52.8465 84.8505 54.562C84.3923 53.6082 84.3799 52.4935 83.903 51.5336C82.9493 48.8644 79.8899 47.5701 77.4437 46.7526" fill="white"/>
<path d="M46.23 47.087C44.335 47.8487 42.2851 48.4619 40.8669 50.2331C39.7707 51.6636 39.4363 53.3791 38.8789 55.0141L40.551 53.5835C43.1025 51.8123 43.759 48.9201 46.23 47.087Z" fill="white"/>
<path d="M83.3224 49.5766C85.4342 50.97 85.2918 53.5401 86.0473 55.6334C86.2455 56.5066 86.7843 57.3055 86.8462 58.1787C85.7129 54.8964 81.8918 54.5372 80.4922 51.4283L80.9319 53.2429C82.0095 56.7667 86.2083 57.6275 87.7999 60.8107C87.3045 58.5007 88.1777 56.0855 87.4779 53.8188C86.871 51.8061 85.3165 50.2207 83.3162 49.5828" fill="white"/>
<path d="M37.0057 52.7226C35.3955 55.1008 36.7085 58.3769 36.2502 61.1885C36.9314 59.9932 37.8356 58.9404 38.9194 58.092C41.1736 56.6366 43.1802 54.3266 43.2545 51.738C42.0592 54.8345 38.1143 55.206 37.142 58.4698H37.0615C38.5168 55.7634 37.6808 51.9361 40.4676 49.9234C39.0123 50.3817 37.7799 51.3726 37.0181 52.6917" fill="white"/>
<path d="M87.9043 53.4348C89.3782 55.5838 88.5236 58.6184 88.4431 61.1266C88.5731 62.3404 88.6351 63.5542 88.6227 64.7743C88.4802 64.2788 88.3688 63.7834 88.2883 63.2755C87.669 60.5444 84.4857 59.2129 83.1914 56.9215C83.3586 57.6956 83.563 58.4636 83.8107 59.2129C84.9255 62.4395 88.2697 64.6132 88.7342 68.1185C89.0314 64.7743 91.3848 62.1051 90.5054 58.4574C90.109 56.5809 89.2172 54.8469 87.9167 53.4348" fill="white"/>
<path d="M35.939 53.8622C34.7933 55.2494 33.9882 56.8843 33.6043 58.6432C32.8301 62.3218 35.0411 65.1458 35.5179 68.4962C36.1372 64.2912 40.5776 61.6406 40.8191 57.2621C39.5372 59.634 36.3787 61.0089 35.8214 63.8143C35.7904 64.2664 35.7099 64.7123 35.5798 65.1458L35.4808 65.0467L35.6418 63.2322C36.1558 59.9932 34.2669 56.6428 35.939 53.8622Z" fill="white"/>
<path d="M91.2486 61.1885C91.806 64.3903 89.8552 66.8675 89.0811 69.6543C88.6414 70.7319 88.821 72.1315 88.1645 73.0419C88.2264 72.4907 88.3255 71.9396 88.4618 71.4008C88.9572 67.7964 85.8297 65.666 85.1175 62.6191C85.0804 63.3994 85.1299 64.1797 85.2538 64.9477C85.4086 68.7254 87.9044 71.8219 87.186 75.8102C87.8425 74.8379 88.5485 73.8966 89.2978 72.9986C92.1776 70.0135 92.9022 65.0096 91.2486 61.1885Z" fill="white"/>
<path d="M32.8837 61.6034C31.8494 64.0001 31.9114 67.1771 32.6855 69.6543C33.3419 72.2244 35.8191 74.0142 37.0887 76.2437C36.8967 75.2219 36.8843 74.1752 37.0516 73.1472C37.8876 69.8216 39.2005 66.6136 39.0024 62.9287C38.5069 65.6289 36.135 67.4868 35.8563 70.2117C35.7696 71.2893 35.8563 72.3669 36.0978 73.4197C35.8006 72.8933 35.6148 72.305 35.559 71.7042C35.1565 68.1061 32.2644 65.4864 32.8837 61.6034Z" fill="white"/>
<path d="M85.5701 69.4933C83.6812 73.5745 85.0561 78.9934 82.7461 82.8764L83.1239 82.5544C87.6076 80.0772 93.0327 75.9836 92.1037 69.964C92.0232 70.7567 91.7817 71.5246 91.3915 72.2183C89.6389 74.9494 86.6477 77.1727 85.1985 80.0091C85.1614 80.1082 85.0189 80.1701 84.957 80.071L85.2543 79.6932C87.3661 76.6463 85.471 72.8809 85.5949 69.4933" fill="white"/>
<path d="M38.6655 69.8897C38.907 71.2088 38.4859 72.3669 38.2877 73.556C37.5879 75.8783 37.9533 78.3865 39.2848 80.4116C38.8575 80.1082 38.5169 79.6932 38.3001 79.2164C36.6466 76.0455 32.4849 74.262 32.1071 70.4471C32.0142 71.8157 32.1443 73.1906 32.5035 74.5159C33.6554 78.7767 38.3559 80.969 41.5267 83.118C39.2786 79.2349 40.4739 73.9585 38.6593 69.8959" fill="white"/>
<path d="M83.6625 75.5377L81.9904 77.7239C79.7424 80.8204 80.0025 85.075 76.875 87.7194C78.4914 87.2054 80.2626 86.9886 81.9347 86.6232C85.7001 85.6695 89.6636 81.9599 90.2024 78.1016C89.5273 79.7118 88.1091 80.9071 86.6785 81.8174C84.127 82.9198 81.7489 84.3813 79.6061 86.1525H79.3584L79.4946 85.9482C83.099 83.5577 82.1205 78.9377 83.6564 75.5315" fill="white"/>
<path d="M40.5756 75.866L41.1516 77.3399C41.709 80.647 41.9691 84.2885 44.9789 86.3817L44.9417 86.4188C43.9632 85.9977 43.2325 85.1802 42.353 84.6476C39.5352 82.8145 35.615 82.0032 34.0234 78.498C34.4631 81.0681 36.2158 83.3595 38.2966 84.9511C40.8296 87.1806 44.3534 87.0072 47.4437 87.899C46.4095 87.0939 45.6168 86.0225 45.1523 84.8025C44.019 81.675 43.0219 78.4051 40.5509 75.8783" fill="white"/>
<path d="M79.3933 81.9784C77.1019 83.4772 75.1325 86.0225 73.0393 87.6574C71.8874 88.543 70.5001 88.7908 69.1562 89.1623C72.1475 89.3853 74.6371 90.7973 77.7645 90.5991C81.1335 90.4381 84.1619 88.5121 85.7473 85.5394C83.4373 88.2891 79.7339 88.1281 76.3278 88.4502C75.213 88.6731 74.0797 88.8341 72.9464 88.927C72.9835 88.8899 73.0269 88.8093 73.0826 88.8279C76.7984 88.5121 77.8636 84.4928 79.3933 81.9537" fill="white"/>
<path d="M44.8367 82.22C46.3664 84.016 46.4283 86.3817 48.5525 87.8556C49.37 88.574 50.4599 88.7165 51.3765 89.0942C50.3609 89.1933 49.4257 88.7722 48.4101 88.7165C44.9791 88.2953 41.059 88.7165 38.5508 85.9482C39.7275 87.9919 41.5916 89.5525 43.8087 90.3452C47.7908 91.8625 51.3951 89.6268 55.2038 89.2924C50.782 89.0942 48.3915 84.2699 44.8305 82.2262" fill="white"/>
<path d="M73.5172 91.5405C70.111 89.986 66.1661 88.252 62.1839 89.7259C60.0164 89.0694 57.7002 89.0694 55.5326 89.7259C52.0274 91.3237 47.2464 93.7266 43.543 91.0636C44.2056 91.7696 44.9674 92.3765 45.7972 92.8782C48.1877 94.4326 51.631 94.2716 54.1021 93.0144C56.3749 92.0607 58.1027 89.2119 60.9949 90.1099C58.4929 91.3175 56.2139 92.9463 54.2631 94.928L55.5017 95.9809C57.2791 93.6151 59.62 91.7201 62.314 90.4815C64.8222 91.7201 67.1136 93.7885 69.0086 95.888L70.2473 94.829C68.2593 92.9401 66.005 91.3485 63.5526 90.1099C64.2153 89.9798 64.8965 89.9612 65.5653 90.0479C68.154 91.1813 70.1482 93.4541 73.0775 93.7638C76.0253 94.2282 79.0042 93.0763 80.8621 90.7354L79.3881 91.5157C77.6541 92.2898 75.3255 92.0916 73.5481 91.5157" fill="white"/>
<path d="M63.0715 24.532C62.9725 29.6599 64.9294 33.9578 67.0289 38.2248C71.0853 45.7431 77.4889 52.3015 79.6688 60.5816C81.4153 67.7841 80.0404 75.7111 75.0426 81.161C71.4879 84.9511 66.6263 86.5055 61.5666 87.2115L61.4676 87.0877C64.1491 84.6105 64.7499 80.7151 63.6785 77.3089C62.3965 73.2277 59.1142 69.964 57.4978 66.0005C55.4851 62.0493 54.1474 57.7823 54.6119 52.9951C54.8658 49.9296 55.3798 46.895 56.1539 43.9224C56.2221 43.8604 56.3212 43.9224 56.3893 43.9224C54.5314 52.4563 60.3095 58.9528 65.877 65.0344C68.2923 68.0256 70.1687 71.2274 70.8314 74.9432C71.1349 73.6365 70.8004 72.1439 70.466 70.8682C68.3542 64.1178 64.6322 57.9681 62.3532 51.2797C61.0278 46.8207 60.2847 42.2007 60.1422 37.5498C60.1794 37.4816 60.2661 37.4507 60.3404 37.4878C60.4395 44.3001 64.8675 49.4651 68.4904 54.9088C72.2062 59.6898 75.6 64.5947 76.1016 70.6452H76.1698C77.1111 66.1863 75.9344 61.6282 74.2252 57.7761L69.3017 47.3966C66.1681 40.0084 62.6318 32.8059 62.7991 24.1357C63.0715 23.8508 63.0344 24.3834 63.0715 24.5196" fill="white"/>
<path d="M46.6878 55.8439C45.3873 59.1014 45.2387 62.712 46.2543 66.0686C47.3257 70.4966 51.7166 74.4106 56.1074 75.7854C51.7723 70.831 50.6761 63.9692 51.8157 57.3426C51.8466 57.2807 51.9147 57.3117 51.9829 57.2807C51.6546 60.1728 52.0448 63.1083 53.1224 65.8147C54.361 69.3509 56.8382 72.4412 59.6622 75.2157C61.5201 77.5381 62.8454 80.8823 61.3343 83.7806C60.7026 84.8334 59.8728 85.75 58.8881 86.487L58.6837 86.456C59.0491 85.3041 58.0087 84.5176 57.2036 83.8425C52.3111 81.0743 46.1738 77.4761 44.5327 71.9334C42.7924 66.4526 44.5636 60.724 46.3906 55.8315L46.5888 55.7077L46.6569 55.8315" fill="white"/>
<path d="M113.011 61.9688L101.734 49.9791V61.5229H100.879V47.8983L112.156 59.8013V48.0903H113.011V61.9688Z" fill="white"/>
<path d="M113.235 62.5634L101.97 50.5737V61.7583H100.645V47.3161L111.922 59.2191V47.8549H113.235V62.5634ZM101.468 49.3784L112.746 61.3681V48.3256H112.362V60.4082L101.115 48.5052V61.2938H101.499V49.3846H101.468V49.3784Z" fill="white"/>
<path d="M117.66 57.1073L115.858 61.5291H114.984L120.62 47.6691L126.237 61.5229H125.364L123.562 57.1011H117.66V57.1073ZM120.62 49.8243L117.982 56.3084H123.24L120.62 49.8243Z" fill="white"/>
<path d="M126.585 61.7583H125.204L123.401 57.3364H117.828L116.026 61.7583H114.645L120.627 47.0127L126.591 61.7583H126.585ZM125.519 61.2938H125.885L120.621 48.2884L115.338 61.2938H115.71L117.512 56.872H123.705L125.519 61.2938ZM123.587 56.5437H117.63L120.621 49.1926L123.587 56.5437ZM118.329 56.0731H122.887L120.615 50.4498L118.329 56.0731Z" fill="white"/>
<path d="M138.886 50.8338C137.753 49.5209 136.112 48.7529 134.378 48.7158C131.003 48.7839 128.29 51.5336 128.265 54.9088C128.284 56.4756 128.934 57.9743 130.067 59.0581C131.232 60.1976 132.774 60.8603 134.403 60.916C136.118 60.8665 137.747 60.1295 138.911 58.8661V60.0552C136.038 62.5757 131.665 62.2847 129.151 59.4111C126.637 56.5375 126.921 52.1653 129.795 49.6509C131.083 48.5238 132.749 47.9107 134.458 47.9354C136.106 47.9478 137.691 48.5671 138.911 49.6819L138.886 50.8338Z" fill="white"/>
<path d="M134.415 61.9131C130.482 62.1422 127.107 59.1448 126.872 55.2122C126.643 51.2797 129.64 47.9045 133.573 47.6691C133.851 47.6506 134.136 47.6506 134.415 47.6691C136.124 47.6753 137.771 48.3194 139.029 49.4775L139.103 49.5456V51.4902L138.682 50.9762C137.592 49.7128 136.013 48.9759 134.347 48.9449C131.102 49.0068 128.494 51.6451 128.469 54.8902C128.482 56.3951 129.107 57.8319 130.197 58.8723C131.312 59.9623 132.792 60.6002 134.347 60.6559C135.994 60.6125 137.561 59.9065 138.682 58.6927L139.103 58.1849V60.1295L139.016 60.1976C137.734 61.2938 136.105 61.9007 134.415 61.9131ZM134.415 48.1212C130.736 48.0903 127.733 51.0505 127.708 54.7292C127.677 58.4078 130.637 61.4114 134.316 61.4362C135.895 61.4486 137.425 60.8974 138.632 59.888V59.4359C137.449 60.4825 135.938 61.077 134.359 61.1328C132.681 61.077 131.083 60.3896 129.881 59.2129C128.699 58.0796 128.03 56.5128 128.024 54.8778C127.968 51.4159 130.73 48.5609 134.192 48.499C135.839 48.4742 137.431 49.0935 138.626 50.2331V49.7624C137.462 48.7282 135.963 48.1522 134.409 48.146V48.1212H134.415Z" fill="white"/>
<path d="M142.683 61.5229H141.828V48.0903H142.683V61.5229Z" fill="white"/>
<path d="M142.915 61.7583H141.59V47.8549H142.915V61.7583ZM142.061 61.2938H142.444V48.3256H142.061V61.2938Z" fill="white"/>
<path d="M159.15 54.8097C159.193 58.6556 156.103 61.8078 152.257 61.8512C148.411 61.8945 145.259 58.8042 145.215 54.9583C145.172 51.1125 148.262 47.9602 152.108 47.9169C152.133 47.9169 152.158 47.9169 152.182 47.9169C155.997 47.9354 159.094 51.001 159.15 54.8097ZM146.07 54.8097C146.058 58.1849 148.789 60.9284 152.164 60.9408C155.539 60.9532 158.283 58.222 158.295 54.8469C158.307 51.4717 155.576 48.7282 152.201 48.7158C152.201 48.7158 152.189 48.7158 152.182 48.7158C148.82 48.7343 146.089 51.4469 146.058 54.8097H146.07Z" fill="white"/>
<path d="M152.176 61.9131C148.237 61.8759 145.073 58.6494 145.11 54.7106C145.147 50.7718 148.373 47.6072 152.312 47.6444C156.226 47.6815 159.378 50.8647 159.378 54.7787C159.31 58.7175 156.115 61.8821 152.176 61.9131ZM152.176 48.1212C148.497 48.1646 145.549 51.1744 145.593 54.853C145.636 58.5317 148.646 61.4796 152.325 61.4362C155.972 61.3929 158.908 58.4264 158.908 54.7787C158.827 51.1063 155.848 48.1646 152.176 48.1212ZM152.176 61.1266C148.683 61.1142 145.853 58.2716 145.865 54.7787C145.878 51.2859 148.72 48.4557 152.213 48.468C155.7 48.4804 158.524 51.3106 158.524 54.7973C158.474 58.2778 155.656 61.0894 152.176 61.1266ZM152.176 48.9387C148.943 48.9511 146.324 51.5831 146.336 54.8159C146.348 58.0486 148.98 60.6683 152.213 60.6559C155.44 60.6435 158.053 58.0239 158.053 54.7973C158.004 51.5769 155.396 48.9759 152.176 48.9387Z" fill="white"/>
<path d="M173.808 61.9688L162.53 49.9791V61.5229H161.676V47.8983L172.959 59.8013V48.0903H173.814V61.9688H173.808Z" fill="white"/>
<path d="M174.044 62.5634L162.778 50.5737V61.7583H161.453V47.3161L172.731 59.2191V47.8549H174.056V62.5634H174.044ZM162.277 49.3784L173.554 61.3681V48.3256H173.17V60.4082L161.911 48.5052V61.2938H162.295V49.3846H162.277V49.3784Z" fill="white"/>
<path d="M177.995 48.9077V53.7878H183.414V54.5929H177.995V60.7426H183.569V61.5477H177.141V48.0903H183.557V48.9077H177.995Z" fill="white"/>
<path d="M183.789 61.7583H176.902V47.8549H183.789V49.1307H178.215V53.5401H183.634V54.8159H178.259V60.4887H183.832V61.7644H183.789V61.7583ZM177.373 61.2876H183.318V60.9594H177.745V54.3328H183.163V54.0046H177.745V48.6476H183.318V48.3194H177.373V61.2876Z" fill="white"/>
<path d="M192.84 50.3012C192.289 49.3165 191.243 48.7096 190.116 48.7158C188.722 48.7158 187.589 49.8429 187.583 51.2363C187.583 51.2487 187.583 51.2673 187.583 51.2797C187.583 52.6855 188.92 53.2738 190.004 53.794L192.574 55.1008C193.553 55.6272 194.147 56.6676 194.11 57.7761C194.11 60.0056 192.079 61.6777 189.905 61.6777C188.103 61.6839 186.499 60.532 185.941 58.8166L186.691 58.476C187.261 59.9003 188.313 60.8974 189.936 60.8974C191.719 60.9222 193.193 59.5102 193.249 57.7266C193.249 56.2155 191.701 55.5714 190.543 55.0017L188.121 53.7197C187.248 53.2367 186.709 52.3139 186.728 51.3168C186.66 49.5085 188.072 47.9788 189.88 47.9107C189.973 47.9107 190.072 47.9107 190.165 47.9107C191.509 47.8983 192.76 48.6105 193.441 49.7686L192.84 50.3012Z" fill="white"/>
<path d="M189.897 61.9131C187.989 61.9255 186.292 60.7054 185.692 58.8971L185.617 58.6927L186.788 58.1601L186.881 58.3893C187.289 59.7393 188.528 60.6621 189.934 60.6745C191.6 60.7178 192.987 59.4049 193.03 57.739C193.03 56.5004 191.792 55.8811 190.702 55.3423L190.46 55.2246L188.032 53.9365C187.085 53.4101 186.497 52.4068 186.515 51.323C186.447 49.3722 187.977 47.7373 189.928 47.6691C190.008 47.6691 190.082 47.6691 190.163 47.6691C191.6 47.6691 192.931 48.4371 193.65 49.6819L193.742 49.8553L192.776 50.648L192.634 50.4188C192.132 49.4961 191.16 48.9263 190.107 48.9449C188.844 48.9387 187.816 49.9544 187.81 51.2177C187.81 51.2363 187.81 51.2549 187.81 51.2735C187.81 52.5121 188.968 53.0385 189.996 53.5215L190.101 53.5711L192.671 54.9088C193.736 55.4723 194.393 56.5933 194.362 57.8009C194.362 60.0552 192.306 61.9131 189.897 61.9131ZM186.243 58.9157C187.035 60.947 189.321 61.9564 191.358 61.1699C192.776 60.6187 193.755 59.2996 193.866 57.7761C193.903 56.7481 193.352 55.7882 192.442 55.2989L189.797 53.9241C188.701 53.4039 187.32 52.7598 187.32 51.2487C187.295 49.7252 188.509 48.4742 190.033 48.4495C190.051 48.4495 190.07 48.4495 190.089 48.4495C191.209 48.4309 192.256 48.9883 192.869 49.9234L193.117 49.719C192.46 48.722 191.34 48.1212 190.144 48.1212C188.466 48.0345 187.029 49.3289 186.943 51.0072C186.943 51.1001 186.943 51.193 186.943 51.2859C186.93 52.2024 187.419 53.0447 188.218 53.4906L190.863 54.8778C192.021 55.4414 193.458 56.1164 193.458 57.6956C193.414 59.6155 191.829 61.139 189.909 61.1018C188.435 61.0956 187.11 60.1914 186.571 58.8166L186.249 58.9652V58.9157H186.243Z" fill="white"/>
<path d="M209.707 48.0903H210.562V56.4632C210.562 57.8381 210.562 59.0086 209.652 60.1357C207.732 62.1546 204.542 62.2351 202.524 60.3153C202.462 60.2595 202.4 60.1976 202.344 60.1357C201.434 59.0147 201.434 57.8381 201.434 56.4632V48.0903H202.288V56.2155C202.288 57.4541 202.288 58.6927 202.982 59.6031C204.549 61.2628 207.168 61.3433 208.828 59.7765C208.89 59.7208 208.946 59.665 209.001 59.6031C209.695 58.7113 209.695 57.4293 209.695 56.2155L209.707 48.0903Z" fill="white"/>
<path d="M206.007 61.9131C204.551 61.9317 203.158 61.3309 202.173 60.2657C201.207 59.0705 201.207 57.8505 201.207 56.4385V47.8549H202.532V56.2155C202.532 57.4046 202.532 58.6308 203.152 59.4545C204.638 61.0151 207.109 61.0708 208.67 59.5845C208.713 59.5412 208.756 59.4978 208.8 59.4545C209.419 58.6246 209.419 57.3984 209.419 56.2155V47.8549H210.744V56.4632C210.744 57.8752 210.744 59.0953 209.784 60.2843C208.806 61.3309 207.437 61.9193 206.007 61.9131ZM201.672 48.2884V56.4632C201.672 57.8381 201.672 58.9404 202.526 59.9871C204.359 61.9069 207.406 61.9688 209.32 60.1357C209.369 60.0861 209.419 60.0366 209.469 59.9871C210.317 58.9342 210.317 57.8505 210.317 56.4694V48.3256H209.933V56.2155C209.933 57.4541 209.933 58.7918 209.19 59.7455C207.549 61.5105 204.787 61.6158 203.022 59.9747C202.941 59.9003 202.867 59.826 202.792 59.7455C202.049 58.7918 202.049 57.4851 202.049 56.2155V48.3256L201.672 48.2884Z" fill="white"/>
<path d="M225.909 61.9688L214.632 49.9791V61.5229H213.777V47.8983L225.055 59.8013V48.0903H225.909V61.9688Z" fill="white"/>
<path d="M226.143 62.5634L214.865 50.5737V61.7583H213.559V47.3161L224.836 59.2191V47.8549H226.161V62.5634H226.143ZM214.376 49.3784L225.654 61.3681V48.3256H225.27V60.4082L214.011 48.5052V61.2938H214.395V49.3846H214.376V49.3784Z" fill="white"/>
<path d="M230.097 61.5229H229.242V48.0903H230.097V61.5229Z" fill="white"/>
<path d="M230.333 61.7583H229.008V47.8549H230.333V61.7583ZM229.478 61.2938H229.862V48.3256H229.478V61.2938Z" fill="white"/>
<path d="M233.43 48.0903H235.857C237.821 48.0903 239.369 48.4123 240.849 49.781C243.617 52.4378 243.71 56.8348 241.053 59.6031C241.01 59.6464 240.967 59.6898 240.923 59.7393C239.443 61.1637 237.858 61.5229 235.864 61.5229H233.442L233.43 48.0903ZM235.857 60.724C237.622 60.724 239.084 60.371 240.366 59.1015C242.738 56.7295 242.732 52.8775 240.36 50.5117C240.304 50.456 240.248 50.4065 240.192 50.3507C238.997 49.3103 237.437 48.7963 235.857 48.9077H234.309V60.7364L235.857 60.724Z" fill="white"/>
<path d="M235.854 61.7583H233.191V47.8549H235.854C237.811 47.8549 239.434 48.1522 241.007 49.6138C243.874 52.3635 243.967 56.9153 241.218 59.7827C241.174 59.8322 241.125 59.8756 241.081 59.9189C239.397 61.5415 237.576 61.7768 235.854 61.7768V61.7583ZM233.662 61.2938H235.854C237.712 61.2938 239.273 61.0027 240.753 59.5783C242.041 58.3335 242.766 56.6181 242.747 54.8283C242.772 52.9889 242.023 51.2239 240.685 49.9606C239.23 48.6105 237.7 48.3318 235.854 48.3318H233.668V61.2938H233.662ZM235.83 60.9655H234.04V48.6538H235.854C239.267 48.4619 242.196 51.0753 242.388 54.4877C242.487 56.2774 241.812 58.0177 240.53 59.2687C239.329 60.4515 237.929 60.9594 235.854 60.9594H235.83V60.9655ZM234.517 60.5011H235.854C237.793 60.5011 239.093 60.0366 240.19 58.9466C242.469 56.6676 242.469 52.9766 240.19 50.6975C240.14 50.648 240.084 50.5922 240.029 50.5427C238.945 49.5332 237.706 49.1307 235.848 49.1307H234.535V60.4949H234.511L234.517 60.5011Z" fill="white"/>
<path d="M246.812 57.1073L245.01 61.5291H244.137L249.766 47.6691L255.377 61.5477H254.504L252.702 57.1259L246.812 57.1073ZM249.772 49.8181L247.134 56.3022H252.392L249.772 49.8181Z" fill="white"/>
<path d="M255.731 61.7583H254.349L252.578 57.3426H247.005L245.147 61.7583H243.766L249.748 47.0127L255.712 61.7583H255.731ZM254.672 61.2938H255.055L249.791 48.2884L244.509 61.2938H244.874L246.676 56.872H252.869L254.672 61.2938ZM252.739 56.5437H246.782L249.773 49.1926L252.739 56.5437ZM247.481 56.0731H252.039L249.767 50.4498L247.481 56.0731Z" fill="white"/>
<path d="M263.576 50.3012C263.025 49.3165 261.979 48.7096 260.852 48.7158C259.458 48.7158 258.325 49.8429 258.319 51.2363C258.319 51.2487 258.319 51.2673 258.319 51.2797C258.319 52.6855 259.656 53.2738 260.74 53.794L263.31 55.1008C264.289 55.6272 264.883 56.6676 264.846 57.7761C264.846 60.0056 262.815 61.6777 260.641 61.6777C258.839 61.6777 257.241 60.5258 256.684 58.8166L257.433 58.476C258.003 59.9003 259.056 60.8974 260.678 60.8974C262.462 60.9222 263.936 59.5102 263.991 57.7266C263.991 56.2155 262.443 55.5714 261.285 55.0017L258.864 53.7197C257.99 53.2367 257.458 52.3139 257.476 51.3168C257.408 49.5085 258.82 47.9788 260.629 47.9107C260.721 47.9107 260.821 47.9107 260.913 47.9107C262.257 47.8983 263.508 48.6105 264.19 49.7686L263.576 50.3012Z" fill="white"/>
<path d="M260.626 61.9131C258.718 61.9131 257.034 60.6869 256.445 58.8723L256.371 58.6679L257.542 58.1353L257.634 58.3645C258.031 59.7146 259.263 60.6497 260.669 60.6745C262.335 60.7178 263.722 59.4049 263.766 57.739C263.766 56.5004 262.527 55.8811 261.437 55.3423L261.195 55.2246L258.768 53.9303C257.82 53.4039 257.232 52.4006 257.251 51.3168C257.189 49.366 258.718 47.7311 260.669 47.6691C260.75 47.6691 260.824 47.6691 260.904 47.6691C262.341 47.6691 263.673 48.4371 264.391 49.6819L264.484 49.8553L263.518 50.648L263.375 50.4188C262.874 49.4961 261.901 48.9263 260.849 48.9449C259.585 48.9387 258.557 49.9544 258.551 51.2177C258.551 51.2363 258.551 51.2549 258.551 51.2735C258.551 52.5121 259.709 53.0385 260.737 53.5215L260.842 53.5711L263.413 54.9088C264.465 55.4785 265.103 56.5933 265.072 57.7885C265.072 60.0552 263.041 61.9131 260.626 61.9131ZM256.972 58.9157C257.765 60.947 260.05 61.9564 262.087 61.1699C263.505 60.6187 264.484 59.2996 264.595 57.7761C264.633 56.7481 264.081 55.7882 263.171 55.2989L260.527 53.9241C259.43 53.4039 258.049 52.7598 258.049 51.2487C258.025 49.7252 259.238 48.4742 260.762 48.4495C260.781 48.4495 260.799 48.4495 260.818 48.4495C261.932 48.4371 262.979 48.9883 263.592 49.9234L263.84 49.719C263.183 48.722 262.062 48.1212 260.867 48.1212C259.189 48.0345 257.752 49.3289 257.665 51.0072C257.665 51.1001 257.665 51.193 257.665 51.2859C257.653 52.2024 258.142 53.0447 258.941 53.4906L261.586 54.8778C262.744 55.4414 264.18 56.1164 264.18 57.6956C264.137 59.6155 262.552 61.139 260.632 61.1018C259.158 61.0894 257.845 60.1852 257.306 58.8166L256.984 58.9652L256.972 58.9157Z" fill="white"/>
<path d="M100.848 67.7036H104.563C108.446 67.7036 111.048 70.6081 111.048 74.4416C111.048 78.275 108.385 81.1114 104.563 81.1114H100.848V67.7036ZM103.467 78.851H103.895C107.121 78.851 108.366 77.0674 108.366 74.4168C108.366 71.4937 106.867 69.9826 103.895 69.9826H103.467V78.851Z" fill="white"/>
<path d="M115.315 69.964V72.9243H119.483V75.2281H115.315V78.8634H119.65V81.1114H112.695V67.7036H119.644V69.964H115.315Z" fill="white"/>
<path d="M130.834 81.1114H127.664L124.381 75.7235V81.1114H121.762V67.7036H125.31C127.967 67.7036 129.8 68.8802 129.8 71.7476C129.8 73.4569 128.853 75.1661 127.057 75.4634L130.834 81.1114ZM124.381 73.8904H124.722C126.165 73.8904 127.199 73.4631 127.199 71.8219C127.199 70.1808 126.146 69.8463 124.759 69.8463H124.381V73.8904Z" fill="white"/>
<path d="M134.667 69.964V72.9243H138.834V75.2281H134.667V78.8634H139.002V81.1114H132.047V67.7036H138.995V69.964H134.667Z" fill="white"/>
<path d="M150.077 71.2707C149.352 70.3789 148.269 69.8587 147.117 69.8463C144.602 69.8463 143.159 72.1625 143.159 74.4787C143.159 76.7949 144.658 79.0058 147.098 79.0058C148.244 78.9686 149.328 78.4546 150.077 77.5814V80.6779C149.136 81.1734 148.095 81.4459 147.03 81.4768C143.252 81.4768 140.453 78.2193 140.453 74.5097C140.453 70.8001 143.141 67.332 147.08 67.332C148.126 67.332 149.161 67.5983 150.077 68.1061V71.2707Z" fill="white"/>
<path d="M159.627 72.9986V67.7036H162.246V81.1114H159.627V75.1042H154.784V81.1114H152.164V67.7036H154.784V72.9986H159.627Z" fill="white"/>
<path d="M170.536 81.4954C166.436 81.4954 163.891 78.3617 163.891 74.4044C163.891 70.4471 166.529 67.3506 170.536 67.3506C174.543 67.3506 177.181 70.4161 177.181 74.4044C177.181 78.3927 174.629 81.4954 170.536 81.4954ZM170.536 69.933C168.059 69.933 166.597 72.1254 166.597 74.2682C166.597 76.4109 167.631 78.8819 170.536 78.8819C173.44 78.8819 174.474 76.3366 174.474 74.2682C174.474 72.1254 173.007 69.964 170.536 69.964V69.933Z" fill="white"/>
<path d="M185.146 70.6638C184.7 69.9826 183.945 69.5677 183.133 69.5615C182.266 69.5367 181.536 70.2117 181.492 71.0787C181.492 73.3392 186.818 72.3979 186.818 76.9064C186.818 79.5941 185.146 81.5016 182.403 81.5016C180.545 81.5016 179.195 80.4302 178.266 78.8819L179.956 77.2222C180.285 78.3122 181.244 79.0925 182.378 79.1854C183.369 79.1482 184.143 78.3184 184.112 77.3275C184.112 77.2965 184.112 77.2718 184.112 77.2408C184.112 75.8536 182.83 75.4572 181.777 75.0485C180.049 74.3363 178.786 73.4631 178.786 71.376C178.724 69.2208 180.415 67.4187 182.576 67.3506C182.619 67.3506 182.663 67.3506 182.706 67.3506C184.075 67.3753 185.381 67.9141 186.378 68.8493L185.152 70.6638H185.146Z" fill="white"/>
<path d="M201.176 72.9986V67.7036H203.795V81.1114H201.176V75.1042H196.327V81.1114H193.707V67.7036H196.327V72.9986H201.176Z" fill="white"/>
<path d="M205.994 67.7036H208.608V75.2281C208.608 76.8878 208.75 79.2164 210.98 79.2164C213.209 79.2164 213.352 76.8816 213.352 75.2281V67.7036H215.971V75.7545C215.971 79.0306 214.584 81.5078 210.98 81.5078C207.376 81.5078 205.988 79.0306 205.988 75.7545V67.7036H205.994Z" fill="white"/>
<path d="M228.215 72.8004H228.178L225.131 81.3158H224.22L221.279 72.8004H221.241L220.052 81.1114H217.414L219.681 67.3196H221.539L224.852 76.1756L228.023 67.3196H229.881L231.918 81.1114H229.28L228.215 72.8004Z" fill="white"/>
<path d="M236.177 78.306L235.075 81.1114H232.312L237.552 67.3196H239.571L244.674 81.1114H241.875L240.84 78.2812L236.177 78.306ZM238.444 71.2831H238.406L236.926 76.157H240.116L238.444 71.2831Z" fill="white"/>
<path d="M245.832 67.3506H247.69L254.762 76.7392H254.8V67.7036H257.419V81.4087H255.561L248.489 72.0201H248.452V81.1114H245.832V67.3506Z" fill="white"/>
<path d="M265.719 81.4954C261.62 81.4954 259.074 78.3617 259.074 74.4044C259.074 70.4471 261.712 67.3506 265.719 67.3506C269.726 67.3506 272.395 70.4161 272.395 74.4044C272.395 78.3927 269.819 81.4954 265.719 81.4954ZM265.719 69.933C263.242 69.933 261.781 72.1254 261.781 74.2682C261.781 76.4109 262.815 78.8819 265.719 78.8819C268.624 78.8819 269.658 76.3366 269.658 74.2682C269.658 72.1997 268.197 69.964 265.719 69.964V69.933Z" fill="white"/>
<path d="M280.326 70.6638C279.886 69.9826 279.124 69.5677 278.313 69.5615C277.446 69.5367 276.715 70.2117 276.672 71.0787C276.672 73.3392 281.998 72.3979 281.998 76.9064C281.998 79.5941 280.326 81.5016 277.582 81.5016C275.724 81.5016 274.374 80.4302 273.445 78.8819L275.136 77.2222C275.464 78.3122 276.424 79.0925 277.557 79.1854C278.548 79.1482 279.322 78.3184 279.292 77.3275C279.292 77.2965 279.292 77.2718 279.292 77.2408C279.292 75.8536 278.01 75.4572 276.957 75.0485C275.229 74.3363 273.959 73.4631 273.959 71.376C273.897 69.2147 275.6 67.4125 277.762 67.3506C277.799 67.3506 277.842 67.3506 277.88 67.3506C279.248 67.3753 280.555 67.9141 281.552 68.8493L280.332 70.6638H280.326Z" fill="white"/>
<path d="M104.495 92.2589C104.495 93.5904 104.495 96.0552 102.402 96.0552C100.309 96.0552 100.309 93.578 100.309 92.2589C100.309 90.9397 100.309 88.4625 102.402 88.4625C104.495 88.4625 104.495 90.915 104.495 92.2589ZM101.467 92.2589C101.467 93.8257 101.584 95.1324 102.427 95.1324C103.269 95.1324 103.387 93.8257 103.387 92.2589C103.387 90.692 103.269 89.3853 102.427 89.3853C101.584 89.3853 101.467 90.6796 101.467 92.2589Z" fill="white"/>
<path d="M109.556 88.543V89.3977H107.729V91.7201H109.37V92.5747H107.729V95.9747H106.664V88.543H109.556Z" fill="white"/>
<path d="M112.446 95.9747H111.375V88.543H112.44V95.9747H112.446Z" fill="white"/>
<path d="M117.932 89.5649C117.722 89.4534 117.487 89.3915 117.251 89.3791C115.759 89.3791 115.746 91.3794 115.746 92.3022C115.746 93.225 115.833 95.1262 117.295 95.1262C117.511 95.1262 117.722 95.0705 117.914 94.9776V95.8384C117.654 95.9871 117.357 96.0552 117.059 96.0428C114.885 96.0428 114.582 93.9186 114.582 92.3641C114.582 90.8097 114.786 88.4502 116.973 88.4502C117.295 88.4378 117.617 88.5121 117.901 88.6669L117.932 89.5649Z" fill="white"/>
<path d="M120.889 95.9747H119.824V88.543H120.889V95.9747Z" fill="white"/>
<path d="M124.166 90.7478L124.327 93.225V95.9747H123.262V88.543H124.284L126.141 94.1601L125.888 91.1998V88.543H126.953V95.9747H125.962L124.104 90.2771L124.166 90.7478Z" fill="white"/>
<path d="M131.349 88.543L133.052 95.9747H131.999L131.702 94.5317H130.098L129.801 95.9747H128.754L130.507 88.543H131.349ZM131.349 92.6614L130.94 89.9736L130.321 93.7266H131.603L131.349 92.6614Z" fill="white"/>
<path d="M139.301 88.543C140.539 88.543 141.988 88.6236 141.988 92.3641C141.988 95.7765 140.75 95.9313 138.842 95.9313H138.105V88.543H139.301ZM139.171 89.3729V95.1015C140.929 95.151 140.855 93.6213 140.855 92.3641C140.861 91.237 140.973 89.2862 139.171 89.3853V89.3729Z" fill="white"/>
<path d="M147.016 88.543V89.3977H145.214V91.7201H146.824V92.5747H145.214V95.0829H147.016V95.9747H144.148V88.543H147.016Z" fill="white"/>
<path d="M149.983 88.543V95.0829H151.779V95.9747H148.918V88.543H149.983Z" fill="white"/>
<path d="M158.751 88.543L160.479 95.9747H159.401L159.104 94.5317H157.506L157.203 95.9747H156.156L157.909 88.543H158.751ZM158.751 92.6614L158.349 89.9736L157.729 93.7266H159.011L158.751 92.6614Z" fill="white"/>
<path d="M163.321 88.543V95.0829H165.111V95.9747H162.25V88.543H163.321Z" fill="white"/>
<path d="M169.078 88.543V89.3977H167.87V95.9747H166.805V89.4039H165.566V88.543H169.078Z" fill="white"/>
<path d="M174.731 92.2589C174.731 93.5904 174.731 96.0552 172.638 96.0552C170.545 96.0552 170.551 93.578 170.551 92.2589C170.551 90.9397 170.551 88.4625 172.638 88.4625C174.725 88.4625 174.731 90.915 174.731 92.2589ZM171.678 92.2589C171.678 93.8257 171.796 95.1324 172.638 95.1324C173.48 95.1324 173.598 93.8257 173.598 92.2589C173.598 90.692 173.48 89.3853 172.638 89.3853C171.796 89.3853 171.678 90.6796 171.678 92.2589Z" fill="white"/>
<path d="M183.272 89.5649C183.062 89.4534 182.826 89.3915 182.591 89.3791C181.099 89.3791 181.086 91.3794 181.086 92.3022C181.086 93.225 181.173 95.1262 182.634 95.1262C182.851 95.1262 183.062 95.0705 183.254 94.9776V95.8384C182.994 95.9871 182.696 96.0552 182.399 96.0428C180.225 96.0428 179.922 93.9186 179.922 92.3641C179.922 90.8097 180.126 88.4502 182.312 88.4502C182.634 88.4378 182.956 88.5121 183.241 88.6669L183.272 89.5649Z" fill="white"/>
<path d="M189.136 92.2589C189.136 93.5904 189.136 96.0552 187.042 96.0552C184.949 96.0552 184.949 93.578 184.949 92.2589C184.949 90.9397 184.949 88.4625 187.042 88.4625C189.136 88.4625 189.136 90.915 189.136 92.2589ZM186.083 92.2589C186.083 93.8257 186.2 95.1324 187.042 95.1324C187.885 95.1324 188.002 93.8257 188.002 92.2589C188.002 90.692 187.885 89.3853 187.042 89.3853C186.2 89.3853 186.089 90.6796 186.089 92.2589H186.083Z" fill="white"/>
<path d="M192.503 88.543L193.642 93.8752L193.673 93.5718L193.995 91.7944L194.689 88.543H195.63L196.373 95.9375H195.327L195.135 93.1816L195.073 91.8068V90.8345L194.893 91.8935L194.026 95.9747H193.289L192.255 90.8778L191.945 95.9747H190.93L191.568 88.543H192.503Z" fill="white"/>
<path d="M199.428 95.9747H198.363V88.543H199.428V95.9747Z" fill="white"/>
<path d="M204.272 89.6888C204.011 89.4906 203.689 89.3791 203.361 89.3729C202.853 89.3605 202.426 89.7631 202.414 90.2709C202.414 90.2895 202.414 90.3081 202.414 90.3266C202.401 90.6239 202.513 90.915 202.711 91.1317L203.522 91.943C204.247 92.618 204.668 93.1073 204.668 94.1106C204.711 95.1386 203.912 95.9994 202.884 96.0428C202.86 96.0428 202.835 96.0428 202.81 96.0428C202.395 96.049 201.98 95.9251 201.64 95.6898V94.6989C201.943 94.9342 202.308 95.0643 202.692 95.0829C203.2 95.1014 203.621 94.7051 203.64 94.1973C203.64 94.1477 203.64 94.0982 203.634 94.0548C203.634 92.5871 201.379 92.2898 201.379 90.339C201.287 89.3915 201.98 88.543 202.928 88.4502C203.014 88.444 203.095 88.4378 203.182 88.444C203.572 88.4316 203.962 88.5121 204.315 88.6917L204.272 89.6888Z" fill="white"/>
<path d="M207.71 95.9747H206.645V88.543H207.71V95.9747Z" fill="white"/>
<path d="M214.058 92.2589C214.058 93.5904 214.058 96.0552 211.964 96.0552C209.871 96.0552 209.871 93.578 209.871 92.2589C209.871 90.9397 209.871 88.4625 211.964 88.4625C214.058 88.4625 214.058 90.915 214.058 92.2589ZM211.004 92.2589C211.004 93.8257 211.122 95.1324 211.964 95.1324C212.807 95.1324 212.943 93.8195 212.943 92.2589C212.943 90.6982 212.825 89.3853 211.983 89.3853C211.141 89.3853 211.004 90.6796 211.004 92.2589Z" fill="white"/>
<path d="M217.133 90.7478L217.294 93.225V95.9747H216.223V88.543H217.275L219.133 94.1601L218.879 91.1998V88.543H219.945V95.9747H218.954L217.096 90.2771L217.133 90.7478Z" fill="white"/>
<path d="M224.311 88.543L226.039 95.9747H224.962L224.664 94.5317H223.067L222.769 95.9747H221.723L223.469 88.543H224.311ZM224.311 92.6614L223.909 89.9736L223.289 93.7266H224.571L224.311 92.6614Z" fill="white"/>
<path d="M229.012 88.543C230.251 88.543 231.7 88.6236 231.7 92.3641C231.7 95.7765 230.462 95.9313 228.554 95.9313H227.805V88.543H229.012ZM228.882 89.3729V95.1015C230.641 95.151 230.567 93.6213 230.567 92.3641C230.567 91.237 230.684 89.2862 228.882 89.3853V89.3729Z" fill="white"/>
<path d="M237.837 92.2589C237.837 93.5904 237.837 96.0552 235.743 96.0552C233.65 96.0552 233.656 93.578 233.656 92.2589C233.656 90.9397 233.656 88.4625 235.743 88.4625C237.83 88.4625 237.837 90.915 237.837 92.2589ZM234.783 92.2589C234.783 93.8257 234.901 95.1324 235.743 95.1324C236.586 95.1324 236.703 93.8257 236.703 92.2589C236.703 90.692 236.586 89.3853 235.743 89.3853C234.901 89.3853 234.783 90.6796 234.783 92.2589Z" fill="white"/>
</g>
<defs>
<clipPath id="clip0_159_185587">
<rect width="249.925" height="72" fill="white" transform="translate(32.0742 24.0552)"/>
</clipPath>
</defs>
</svg>
