<svg width="245" height="121" viewBox="0 0 245 121" fill="none" xmlns="http://www.w3.org/2000/svg">
<g clip-path="url(#clip0_159_185664)">
<path d="M84.5695 82.5877C84.2013 82.5635 83.8379 82.5684 83.4843 82.6023C81.7403 82.7621 80.0084 82.2099 78.7174 81.0254L77.8067 80.1922C76.4308 78.9302 75.7042 77.1087 75.8398 75.2485C75.8519 75.0862 75.8568 74.919 75.8568 74.7543C75.8568 74.5484 75.8471 74.3425 75.8301 74.1415C75.6509 72.148 76.4187 70.1885 77.8527 68.7933L77.9035 68.7448C79.369 67.3206 81.3939 66.6835 83.4262 66.8894C83.8186 66.9282 84.2182 66.9354 84.6276 66.904C87.9097 66.6569 90.5717 64.0046 90.8284 60.7225C91.1433 56.6798 87.8903 53.3154 83.8864 53.4438C80.3912 53.5552 77.516 56.4037 77.3731 59.8965C77.361 60.1799 77.3682 60.4585 77.39 60.7322C77.5523 62.745 76.8208 64.7288 75.3723 66.1361L75.3142 66.1918C73.8682 67.5991 71.8674 68.2749 69.8618 68.0545C69.6172 68.0279 69.3677 68.0133 69.1158 68.0133C68.7573 68.0133 68.4037 68.0424 68.0597 68.0957C66.214 68.3863 64.3344 67.8414 62.9561 66.577L62.7236 66.3638C61.2436 65.0074 60.5654 63.0115 60.8125 61.018C60.8755 60.5118 60.8827 59.9861 60.8246 59.4508C60.4976 56.3383 58.0027 53.8265 54.8926 53.4825C54.04 53.3881 53.214 53.4535 52.4438 53.6521C50.6949 54.1002 48.8371 53.6327 47.5073 52.4119L47.4831 52.3901C46.1606 51.1766 45.572 49.3866 45.8142 47.6087C45.8554 47.3108 45.8748 47.008 45.8748 46.7004C45.8748 46.3443 45.8481 45.9955 45.7948 45.6564C45.4606 43.5103 46.163 41.3328 47.6987 39.7971L48.0281 39.4677C49.4596 38.0361 51.4555 37.3167 53.4708 37.5105C53.7614 37.5396 54.057 37.5493 54.3597 37.5372C57.8768 37.4185 60.7544 34.5288 60.8633 31.0117C60.9845 27.1168 57.8065 23.9389 53.9165 24.0576C50.3994 24.1642 47.5122 27.0442 47.3911 30.5612C47.3814 30.8616 47.3911 31.1595 47.4177 31.4502C47.6115 33.4654 46.8921 35.4613 45.4606 36.8929L44.3778 37.9756C43.0602 39.2933 41.258 40.032 39.3978 39.9618C39.1071 39.9497 38.814 39.9569 38.5161 39.9836C35.2316 40.2791 32.6083 42.9847 32.4073 46.2765C32.1699 50.1908 35.2728 53.4365 39.1362 53.4365C39.4874 53.4365 39.8314 53.4099 40.168 53.359C41.757 53.1144 43.3775 53.5455 44.5619 54.6331L45.7633 55.7352C46.9066 56.784 47.471 58.2979 47.3959 59.8481C47.3911 59.9571 47.3886 60.0685 47.3886 60.1799C47.3886 60.3858 47.3983 60.5893 47.4153 60.7927C47.5945 62.7838 46.8291 64.7434 45.3952 66.1385L45.3394 66.1918C43.8764 67.6161 41.8491 68.2531 39.8192 68.0497C39.4268 68.0109 39.0272 68.0036 38.6178 68.0351C35.297 68.2846 32.618 70.9975 32.4097 74.3232C32.1651 78.2423 35.2703 81.4977 39.1362 81.4977C39.3784 81.4977 39.6206 81.4856 39.8556 81.459C41.883 81.2434 43.9031 81.9192 45.3661 83.341C46.8315 84.7629 47.5606 86.766 47.4056 88.8031C47.3862 89.0623 47.3814 89.3263 47.3911 89.5952C47.5315 93.1388 50.4866 96.0092 54.0303 96.06C57.7968 96.1109 60.8658 93.0734 60.8658 89.319C60.8658 89.1253 60.8585 88.9315 60.8416 88.7425C60.672 86.7297 61.435 84.7508 62.8835 83.341C64.3465 81.9192 66.3666 81.2434 68.3916 81.459C68.6289 81.4856 68.8712 81.4977 69.1158 81.4977C69.5009 81.4977 69.8788 81.4662 70.2445 81.4033C72.1072 81.0884 74.0135 81.6479 75.4063 82.9244L75.508 83.0165C77.0122 84.3947 77.6831 86.4245 77.4215 88.4495C77.3707 88.854 77.3537 89.2682 77.3755 89.6896C77.5572 93.0298 80.2313 95.7766 83.5667 96.0358C87.7135 96.358 91.1482 92.9233 90.826 88.7765C90.5693 85.4726 87.8709 82.8106 84.567 82.5901L84.5695 82.5877ZM54.1272 82.5732C53.885 82.5732 53.6428 82.5853 53.4078 82.6119C51.3804 82.8275 49.3603 82.1517 47.8973 80.7299C46.4464 79.3202 45.6834 77.3412 45.853 75.326C45.8699 75.137 45.8772 74.9457 45.8772 74.7543C45.8772 74.5484 45.8675 74.345 45.8505 74.1415C45.6713 72.1505 46.4367 70.1909 47.8706 68.7957L47.9264 68.7424C49.3724 67.3351 51.3732 66.6569 53.3787 66.8797C53.6234 66.9064 53.8753 66.9209 54.1272 66.9209C54.3476 66.9209 54.568 66.9112 54.7836 66.8894C56.5518 66.7174 58.3152 67.2455 59.6232 68.4469L60.4516 69.2051C61.8225 70.4622 62.5758 72.2812 62.4087 74.1367C62.3893 74.3401 62.3797 74.546 62.3797 74.7543C62.3797 74.9481 62.3869 75.137 62.4039 75.326C62.5734 77.3388 61.8104 79.3178 60.362 80.7251L60.3571 80.7299C58.8941 82.1493 56.8764 82.8275 54.849 82.6119C54.6141 82.5877 54.3743 82.5732 54.1296 82.5732H54.1272Z" fill="white"/>
<path d="M119.721 46.0851C120.343 45.0339 120.658 43.7937 120.658 42.4009C120.658 40.1919 120.07 38.4721 118.907 37.2949C117.742 36.1153 116.034 35.517 113.83 35.517H107.375V57.6027H111.224V49.1589H113.893L117.606 57.6027H121.431V56.6944L117.57 48.2215C118.469 47.6959 119.191 46.9813 119.719 46.0875L119.721 46.0851ZM111.224 38.9784H113.772C115.872 38.9784 116.807 40.032 116.807 42.3937C116.807 43.4328 116.538 44.2297 115.986 44.8256C115.446 45.4093 114.731 45.6927 113.801 45.6927H111.224V38.9759V38.9784Z" fill="white"/>
<path d="M131.999 52.9714C131.561 53.5116 131.091 53.9088 130.602 54.1511C130.12 54.3909 129.548 54.512 128.899 54.512C127.903 54.512 127.172 54.214 126.663 53.5988C126.162 52.9932 125.895 51.988 125.866 50.6049H134.523V48.3305C134.504 45.7242 134.01 43.8349 133.019 42.5584C132.004 41.2528 130.473 40.5891 128.47 40.5891C126.467 40.5891 124.893 41.3328 123.766 42.7982C122.679 44.2152 122.129 46.1699 122.129 48.6066V50.4911C122.148 52.86 122.732 54.6985 123.861 55.958C125.009 57.2369 126.656 57.8861 128.756 57.8861C131.207 57.8861 133.068 57.0189 134.281 55.3089L134.55 54.931L132.467 52.395L131.999 52.9714ZM126.629 44.8062C127.019 44.2515 127.622 43.9802 128.47 43.9802C129.219 43.9802 129.752 44.2079 130.096 44.6802C130.347 45.0218 130.66 45.7387 130.759 47.2139H125.922C126.024 46.1384 126.261 45.3294 126.629 44.8062Z" fill="white"/>
<path d="M144.741 57.6003H148.229V34.3665H144.48V41.4878C143.685 40.8895 142.726 40.5867 141.617 40.5867C139.744 40.5867 138.284 41.3037 137.274 42.7183C136.31 44.0698 135.82 46.0246 135.82 48.5315V50.1278C135.84 52.5209 136.351 54.4175 137.334 55.7642C138.364 57.1691 139.798 57.8837 141.6 57.8837C142.816 57.8837 143.845 57.5276 144.678 56.8203L144.739 57.5978L144.741 57.6003ZM144.482 45.4626V52.9811C143.964 53.9645 143.256 54.4248 142.263 54.4248C141.27 54.4248 140.653 54.1171 140.253 53.4825C139.802 52.768 139.572 51.5884 139.572 49.9752V48.4322C139.582 46.8651 139.815 45.7097 140.267 44.9927C140.67 44.3581 141.326 44.0505 142.278 44.0505C143.23 44.0505 143.942 44.4986 144.482 45.4602V45.4626Z" fill="white"/>
<path d="M114.22 72.5646C112.987 72.1262 112.074 71.6321 111.507 71.0992C110.998 70.622 110.751 70.0407 110.751 69.3286C110.751 68.413 110.981 67.7348 111.454 67.2528C111.921 66.7756 112.587 66.543 113.488 66.543C114.481 66.543 115.208 66.8216 115.714 67.3981C116.233 67.9891 116.497 68.8611 116.497 69.9947V70.6002H120.346V69.9947C120.346 68.7327 120.062 67.558 119.5 66.5019C118.931 65.4313 118.11 64.5811 117.059 63.9804C116.015 63.3845 114.813 63.0817 113.488 63.0817C111.546 63.0817 109.947 63.68 108.731 64.8572C107.51 66.0417 106.89 67.5628 106.89 69.377C106.89 70.4283 107.108 71.3778 107.539 72.2013C107.968 73.02 108.615 73.7564 109.465 74.3861C110.298 75.0062 111.456 75.5754 112.999 76.1253C114.38 76.6194 115.334 77.116 115.833 77.6077C116.281 78.0485 116.497 78.6904 116.497 79.5697C116.497 80.4489 116.267 81.0884 115.797 81.568C115.334 82.0379 114.603 82.2753 113.619 82.2753C112.534 82.2753 111.708 81.9822 111.1 81.3766C110.492 80.7735 110.197 79.9281 110.197 78.7946V78.189H106.348V78.7946C106.348 80.1437 106.675 81.3621 107.319 82.4157C107.963 83.4694 108.859 84.2954 109.981 84.8743C111.09 85.4459 112.314 85.7366 113.622 85.7366C115.663 85.7366 117.311 85.1698 118.519 84.0483C119.742 82.9147 120.363 81.3984 120.363 79.5406C120.363 77.7893 119.866 76.3433 118.883 75.2388C117.931 74.1681 116.359 73.2671 114.225 72.5598L114.22 72.5646Z" fill="white"/>
<path d="M133.575 81.5098V73.674C133.553 72.0027 133.064 70.6971 132.119 69.7961C131.179 68.8999 129.821 68.4469 128.081 68.4469C127.013 68.4469 126.027 68.677 125.151 69.1324C124.266 69.5902 123.552 70.2321 123.029 71.0387C122.498 71.8574 122.229 72.7318 122.229 73.6401V74.2457H125.979V73.6401C125.979 73.1096 126.151 72.6906 126.507 72.3515C126.87 72.0051 127.345 71.838 127.953 71.838C128.629 71.838 129.121 71.9785 129.414 72.2594C129.695 72.5283 129.842 73.0588 129.842 73.8V74.8439H128.578C126.575 74.8633 124.964 75.3914 123.787 76.4111C122.583 77.4551 121.973 78.8721 121.973 80.6257C121.973 82.2196 122.43 83.4839 123.334 84.3874C124.237 85.2909 125.487 85.7487 127.052 85.7487C128.215 85.7487 129.232 85.3515 130.089 84.5642C130.143 84.7774 130.203 84.9591 130.271 85.1092L130.433 85.4629H134.067V84.5231L134.03 84.4238C133.74 83.6123 133.587 82.6337 133.577 81.5171L133.575 81.5098ZM129.84 77.9298V80.8704C129.629 81.2337 129.322 81.5365 128.898 81.7957C128.425 82.0839 127.948 82.222 127.435 82.222C126.982 82.222 126.383 82.1542 126.095 81.8296C125.848 81.5534 125.717 81.0302 125.717 80.3181C125.717 79.606 125.979 79.0198 126.522 78.6177C127.113 78.1769 127.953 77.9444 129.012 77.9274H129.84V77.9298Z" fill="white"/>
<path d="M140.242 62.2218H136.492V85.4532H140.242V62.2218Z" fill="white"/>
<path d="M150.859 80.6936C150.363 81.7739 149.542 82.2801 148.282 82.2801C147.851 82.2801 146.708 82.2801 146.708 79.2596V68.7327H142.973V79.4486C142.982 81.4251 143.389 82.9704 144.181 84.041C145.015 85.1698 146.25 85.7414 147.851 85.7414C149.091 85.7414 150.14 85.4411 150.988 84.8501L151.014 85.4556H154.609V68.7327H150.859V80.6936Z" fill="white"/>
<path d="M165.339 69.3455C164.545 68.7473 163.585 68.4445 162.476 68.4445C160.604 68.4445 159.143 69.1614 158.133 70.576C157.169 71.9276 156.68 73.8823 156.68 76.3893V77.9855C156.699 80.3787 157.21 82.2753 158.194 83.622C159.223 85.0269 160.657 85.7414 162.459 85.7414C163.675 85.7414 164.704 85.3854 165.538 84.6781L165.598 85.4556H169.086V62.2243H165.337V69.3455H165.339ZM163.135 71.9082C164.094 71.9082 164.799 72.3563 165.339 73.318V80.8365C164.821 81.8199 164.113 82.2801 163.12 82.2801C162.127 82.2801 161.51 81.9725 161.11 81.3379C160.659 80.6233 160.429 79.4437 160.429 77.8305V76.2876C160.439 74.7204 160.671 73.565 161.124 72.848C161.527 72.2134 162.183 71.9058 163.135 71.9058V71.9082Z" fill="white"/>
<path d="M179.39 63.37H172.133V85.4556H175.967V77.2831H179.588C181.664 77.2419 183.309 76.6146 184.476 75.4156C185.641 74.219 186.232 72.5162 186.232 70.3556C186.232 68.195 185.617 66.5721 184.401 65.3005C183.178 64.0191 181.492 63.3724 179.39 63.3724V63.37ZM182.398 70.3774C182.398 71.5207 182.137 72.3951 181.621 72.9764C181.114 73.5456 180.385 73.8218 179.392 73.8218H175.97V66.8313H179.407C180.347 66.8313 181.059 67.1316 181.582 67.7517C182.124 68.3912 182.398 69.2753 182.398 70.3774Z" fill="white"/>
<path d="M199.235 81.5098V73.674C199.213 72.0027 198.724 70.6971 197.779 69.7961C196.84 68.8999 195.481 68.4469 193.742 68.4469C192.673 68.4469 191.688 68.677 190.811 69.1324C189.927 69.5902 189.212 70.2321 188.689 71.0387C188.158 71.8574 187.89 72.7318 187.89 73.6401V74.2457H191.639V73.6401C191.639 73.1096 191.811 72.6906 192.167 72.3515C192.531 72.0051 193.005 71.838 193.613 71.838C194.289 71.838 194.781 71.9785 195.074 72.2594C195.355 72.5283 195.503 73.0588 195.503 73.8V74.8439H194.238C192.235 74.8633 190.624 75.3914 189.447 76.4111C188.243 77.4551 187.633 78.8721 187.633 80.6257C187.633 82.2196 188.091 83.4839 188.994 84.3874C189.898 85.2909 191.147 85.7487 192.712 85.7487C193.875 85.7487 194.892 85.3515 195.75 84.5642C195.803 84.7774 195.863 84.9591 195.931 85.1092L196.094 85.4629H199.727V84.5231L199.691 84.4238C199.4 83.6123 199.247 82.6337 199.238 81.5171L199.235 81.5098ZM195.5 77.9298V80.8704C195.289 81.2337 194.982 81.5365 194.558 81.7957C194.086 82.0839 193.608 82.222 193.095 82.222C192.642 82.222 192.044 82.1542 191.755 81.8296C191.508 81.5534 191.378 81.0302 191.378 80.3181C191.378 79.606 191.639 79.0198 192.182 78.6177C192.773 78.1769 193.613 77.9444 194.672 77.9274H195.5V77.9298Z" fill="white"/>
<path d="M206.005 82.0791L212.715 71.3899V68.7327H201.466V72.1359H208.032L201.41 82.7258V85.4556H213V82.0791H206.005Z" fill="white"/>
</g>
<defs>
<clipPath id="clip0_159_185664">
<rect width="180.604" height="72" fill="white" transform="translate(32.3945 24.0552)"/>
</clipPath>
</defs>
</svg>
