<svg width="158" height="73" viewBox="0 0 158 73" fill="none" xmlns="http://www.w3.org/2000/svg">
<g id="Capa_1" clip-path="url(#clip0_157_185069)">
<g id="Group">
<path id="Vector" d="M11.8274 55.7923C-1.64784 45.003 -3.83835 25.2658 6.95089 11.7848C17.7401 -1.69058 37.4772 -3.8811 50.9582 6.90821L48.7789 9.62805C36.8015 0.0438216 19.2605 1.98657 9.67073 13.964C0.0865463 25.9415 2.02929 43.4826 14.0067 53.0724L11.8274 55.7923Z" fill="white"/>
<path id="Vector_2" d="M15.9152 50.6906C5.24982 42.1537 3.52106 26.5329 12.0522 15.8675C20.5834 5.20206 36.2098 3.4733 46.8751 12.0101L44.6959 14.73C35.534 7.39821 22.1094 8.88484 14.7777 18.0467C7.44596 27.2086 8.93258 40.6333 18.0944 47.9651L15.9152 50.6849V50.6906Z" fill="white"/>
<path id="Vector_3" d="M19.1869 46.6023C10.7796 39.8731 9.41126 27.5521 16.1405 19.1448C22.8697 10.7375 35.1906 9.3691 43.5978 16.0983L41.4186 18.8182C34.5092 13.2884 24.3901 14.409 18.8603 21.3184C13.3305 28.2278 14.4511 38.347 21.3605 43.8712L19.1813 46.5911L19.1869 46.6023Z" fill="white"/>
<path id="Vector_4" d="M22.8978 41.9623C17.0471 37.2771 16.0954 28.7121 20.7805 22.8614C25.4656 17.0106 34.0305 16.0589 39.8813 20.744L37.702 23.4639C33.3548 19.9838 26.9804 20.6877 23.5003 25.0406C20.0203 29.3879 20.7242 35.7623 25.0771 39.2424L22.8978 41.9623Z" fill="white"/>
<path id="Vector_5" d="M26.0969 37.9641C22.4479 35.0472 21.8566 29.7032 24.7792 26.0542C27.7017 22.4052 33.04 21.814 36.689 24.7365L34.5098 27.4564C32.3643 25.7389 29.2221 26.088 27.5046 28.2335C25.7871 30.379 26.1363 33.5212 28.2817 35.2387L26.1025 37.9585L26.0969 37.9641Z" fill="white"/>
<path id="Vector_6" d="M44.0956 16.318C57.5708 27.1073 59.7614 46.8501 48.9721 60.3255C38.1829 73.8008 18.4401 75.9914 4.96484 65.2021L7.14409 62.4822C19.1215 72.0664 36.6625 70.1237 46.2523 58.1462C55.8365 46.1687 53.8937 28.6277 41.9163 19.0378L44.0956 16.318Z" fill="white"/>
<path id="Vector_7" d="M40.0068 21.4198C50.6722 29.9566 52.4009 45.5775 43.8698 56.2429C35.333 66.9083 19.7122 68.6371 9.04688 60.1002L11.2261 57.3804C20.388 64.7122 33.8126 63.2255 41.1443 54.0636C48.476 44.9017 46.9894 31.4771 37.8276 24.1453L40.0068 21.4254V21.4198Z" fill="white"/>
<path id="Vector_8" d="M36.7352 25.5136C45.1424 32.2429 46.5108 44.5639 39.7816 52.9712C33.0524 61.3785 20.7315 62.7469 12.3242 56.0176L14.5035 53.2978C21.4129 58.8276 31.532 57.707 37.0618 50.7975C42.5915 43.8881 41.4709 33.7689 34.5615 28.2448L36.7408 25.5249L36.7352 25.5136Z" fill="white"/>
<path id="Vector_9" d="M33.0225 30.1537C38.8733 34.8389 39.8249 43.4039 35.1398 49.2546C30.4547 55.1054 21.8898 56.0571 16.0391 51.372L18.2183 48.6521C22.5655 52.1322 28.94 51.4283 32.42 47.0754C35.9 42.7281 35.1962 36.3537 30.8433 32.8736L33.0225 30.1537Z" fill="white"/>
<path id="Vector_10" d="M29.8226 34.1462C33.4716 37.0631 34.0629 42.4071 31.1403 46.0561C28.2177 49.7051 22.8794 50.2964 19.2305 47.3738L21.4097 44.6539C23.5552 46.3715 26.6973 46.0223 28.4148 43.8769C30.1323 41.7314 29.7832 38.5892 27.6377 36.8717L29.817 34.1518L29.8226 34.1462Z" fill="white"/>
</g>
<g id="Group_2">
<path id="Vector_11" d="M67.4256 44.0177C68.4956 44.6934 70.0385 45.2171 71.7334 45.2171C73.8451 45.234 75.5795 44.0008 75.5795 41.9398C75.5795 40.4869 74.6898 39.5015 72.7977 38.2964C70.5453 36.8717 68.9235 35.1542 68.9235 32.7497C68.9235 28.7178 72.2459 26.088 76.5086 26.088C78.6485 26.088 80.0619 26.6061 80.8052 27.0622L79.6677 30.0749C78.9863 29.6976 77.7531 29.1964 76.2215 29.2133C73.9746 29.2133 72.6513 30.5817 72.6457 32.1528C72.6457 33.5775 73.6874 34.4897 75.5908 35.7173C77.9446 37.1476 79.3355 38.9327 79.3355 41.3429C79.3355 45.6451 76.0525 48.3536 71.4294 48.3536C69.008 48.3536 67.0878 47.6779 66.2656 47.036L67.4256 44.0233V44.0177Z" fill="white"/>
<path id="Vector_12" d="M89.0043 26.3809L86.5097 39.5127C86.3351 40.3743 86.245 41.2359 86.245 42.0974C86.2563 44.1021 87.4106 45.3016 89.314 45.3016C91.6621 45.3016 93.2501 43.7023 94.0328 39.5859L96.55 26.3865H100.154L97.6762 39.4226C96.4993 45.5719 93.7794 48.3874 88.8691 48.3874C85.085 48.3874 82.6523 46.3546 82.6523 42.2495C82.6523 41.3316 82.7706 40.256 82.9677 39.1749L85.4003 26.3865H89.0043V26.3809Z" fill="white"/>
<path id="Vector_13" d="M112.691 38.3302H105.736L104.469 44.9468H112.325L111.728 48.0552H100.285L104.402 26.3809H115.405L114.797 29.478H107.431L106.305 35.2837H113.287L112.696 38.3302H112.691Z" fill="white"/>
</g>
<g id="Group_3">
<path id="Vector_14" d="M59.8587 53.6751C60.0727 53.8046 60.3768 53.9116 60.7034 53.9116C61.1877 53.9116 61.4692 53.6582 61.4692 53.2865C61.4692 52.943 61.2721 52.7516 60.7822 52.5601C60.1853 52.3461 59.8193 52.042 59.8193 51.524C59.8193 50.9552 60.2923 50.5329 61.0018 50.5329C61.3735 50.5329 61.6494 50.6174 61.8071 50.7131L61.6776 51.096C61.5593 51.0284 61.3115 50.9214 60.9849 50.9214C60.4838 50.9214 60.2979 51.2199 60.2979 51.4677C60.2979 51.8112 60.5176 51.9801 61.0244 52.1716C61.6438 52.4081 61.9591 52.7065 61.9591 53.2471C61.9591 53.8102 61.5424 54.3001 60.6809 54.3001C60.3261 54.3001 59.9432 54.1988 59.7461 54.0693L59.8643 53.6751H59.8587Z" fill="white"/>
<path id="Vector_15" d="M63.1108 50.8933C63.1108 51.0566 62.9982 51.1861 62.8067 51.1861C62.6378 51.1861 62.5195 51.0566 62.5195 50.8933C62.5195 50.73 62.6434 50.5948 62.818 50.5948C62.9925 50.5948 63.1108 50.7244 63.1108 50.8933ZM62.5815 54.2551V51.631H63.0601V54.2551H62.5815Z" fill="white"/>
<path id="Vector_16" d="M63.7828 53.7652C63.9235 53.8553 64.1713 53.9566 64.4135 53.9566C64.7626 53.9566 64.9259 53.7821 64.9259 53.5681C64.9259 53.3428 64.7907 53.2133 64.436 53.0838C63.963 52.9149 63.7434 52.6558 63.7434 52.3405C63.7434 51.9182 64.0869 51.569 64.65 51.569C64.9146 51.569 65.1511 51.6422 65.2975 51.7323L65.1793 52.0815C65.0779 52.0139 64.8865 51.9294 64.6443 51.9294C64.3628 51.9294 64.2051 52.0927 64.2051 52.2898C64.2051 52.5094 64.3628 52.6052 64.7063 52.7347C65.1624 52.9092 65.3933 53.1345 65.3933 53.5287C65.3933 53.9904 65.0329 54.317 64.4135 54.317C64.1263 54.317 63.8616 54.2495 63.6758 54.1368L63.794 53.7708L63.7828 53.7652Z" fill="white"/>
<path id="Vector_17" d="M66.572 50.8764V51.631H67.2534V51.997H66.572V53.4104C66.572 53.737 66.6621 53.9172 66.9324 53.9172C67.0563 53.9172 67.152 53.9003 67.2084 53.8834L67.2309 54.2438C67.1408 54.2833 66.9944 54.3114 66.8086 54.3114C66.5833 54.3114 66.4087 54.2438 66.2905 54.1087C66.1553 53.9679 66.1047 53.737 66.1047 53.4273V51.997H65.6992V51.631H66.1047V51.0003L66.572 50.8764Z" fill="white"/>
<path id="Vector_18" d="M68.0225 53.0275C68.0338 53.6751 68.4449 53.9397 68.9235 53.9397C69.267 53.9397 69.4697 53.8778 69.6499 53.8046L69.7288 54.1481C69.5598 54.2213 69.2726 54.3114 68.8559 54.3114C68.0507 54.3114 67.5664 53.7821 67.5664 52.9881C67.5664 52.1941 68.0338 51.5746 68.7996 51.5746C69.6556 51.5746 69.8864 52.3292 69.8864 52.8135C69.8864 52.9092 69.8752 52.9881 69.8695 53.0387H68.0282L68.0225 53.0275ZM69.419 52.684C69.419 52.3799 69.2952 51.9069 68.7602 51.9069C68.2759 51.9069 68.0676 52.3517 68.0282 52.684H69.419Z" fill="white"/>
<path id="Vector_19" d="M70.4757 52.3405C70.4757 52.0702 70.4756 51.8449 70.4531 51.631H70.8698L70.8924 52.0533H70.9092C71.0557 51.8055 71.2978 51.569 71.7314 51.569C72.0918 51.569 72.3621 51.7886 72.4747 52.0927H72.486C72.5648 51.9463 72.6718 51.8337 72.7788 51.7492C72.9365 51.631 73.111 51.5634 73.3588 51.5634C73.7079 51.5634 74.2203 51.7886 74.2203 52.7009V54.2438H73.753V52.7572C73.753 52.2504 73.5671 51.9519 73.1842 51.9519C72.9139 51.9519 72.6999 52.1547 72.6211 52.3855C72.5986 52.4531 72.5817 52.5376 72.5817 52.622V54.2438H72.1143V52.6727C72.1143 52.256 71.9285 51.9519 71.5681 51.9519C71.2696 51.9519 71.05 52.1884 70.9768 52.4306C70.9487 52.5038 70.9374 52.5826 70.9374 52.6615V54.2438H70.47V52.3292L70.4757 52.3405Z" fill="white"/>
<path id="Vector_20" d="M76.4541 54.2551L76.4147 53.9229H76.3978C76.2514 54.1312 75.9699 54.3114 75.5982 54.3114C75.0689 54.3114 74.793 53.9397 74.793 53.5568C74.793 52.9205 75.3561 52.577 76.3697 52.5826V52.5263C76.3697 52.3123 76.3077 51.9182 75.7728 51.9182C75.5306 51.9182 75.2716 51.9914 75.0914 52.1152L74.9844 51.7999C75.204 51.6591 75.5138 51.569 75.846 51.569C76.6456 51.569 76.8427 52.1153 76.8427 52.6446V53.6244C76.8427 53.8496 76.854 54.0749 76.8877 54.2551H76.4541ZM76.3866 52.9149C75.8685 52.9036 75.2772 52.9937 75.2772 53.5061C75.2772 53.8159 75.4856 53.9623 75.7277 53.9623C76.0712 53.9623 76.2852 53.7427 76.364 53.523C76.3809 53.4724 76.3922 53.4217 76.3922 53.371V52.9149H76.3866Z" fill="white"/>
<path id="Vector_21" d="M79.2521 50.6005V52.7628C79.2521 53.5793 79.6181 53.9285 80.1024 53.9285C80.643 53.9285 80.9921 53.5681 80.9921 52.7628V50.6005H81.4707V52.729C81.4707 53.8496 80.8795 54.3114 80.0855 54.3114C79.3365 54.3114 78.7734 53.8834 78.7734 52.7516V50.6005H79.2521Z" fill="white"/>
<path id="Vector_22" d="M82.2764 52.3405C82.2764 52.0702 82.2764 51.845 82.2539 51.631H82.6762L82.7044 52.0646H82.7157C82.8452 51.8168 83.1493 51.569 83.5829 51.569C83.9489 51.569 84.512 51.7886 84.512 52.684V54.2495H84.0333V52.7347C84.0333 52.3123 83.8757 51.9576 83.4252 51.9576C83.1098 51.9576 82.8677 52.1772 82.7832 52.4475C82.7607 52.5094 82.7494 52.5883 82.7494 52.6727V54.2495H82.2708V52.3349L82.2764 52.3405Z" fill="white"/>
<path id="Vector_23" d="M85.81 50.8933C85.81 51.0566 85.6974 51.1861 85.5059 51.1861C85.337 51.1861 85.2188 51.0566 85.2188 50.8933C85.2188 50.73 85.3426 50.5948 85.5172 50.5948C85.6918 50.5948 85.81 50.7244 85.81 50.8933ZM85.2807 54.2551V51.631H85.7593V54.2551H85.2807Z" fill="white"/>
<path id="Vector_24" d="M86.7373 51.631L87.2497 53.1063C87.3342 53.3429 87.4074 53.5625 87.4637 53.7765H87.4806C87.5425 53.5568 87.6157 53.3429 87.7058 53.1063L88.2126 51.631H88.7138L87.6833 54.2551H87.2272L86.2305 51.631H86.7429H86.7373Z" fill="white"/>
<path id="Vector_25" d="M89.3702 53.0275C89.3814 53.6751 89.7925 53.9397 90.2712 53.9397C90.6147 53.9397 90.8174 53.8778 90.9976 53.8046L91.0764 54.1481C90.9075 54.2213 90.6203 54.3114 90.2036 54.3114C89.3983 54.3114 88.9141 53.7821 88.9141 52.9881C88.9141 52.1941 89.3814 51.5746 90.1473 51.5746C91.0032 51.5746 91.2341 52.3292 91.2341 52.8135C91.2341 52.9092 91.2228 52.9881 91.2172 53.0387H89.3758L89.3702 53.0275ZM90.7667 52.684C90.7667 52.3799 90.6428 51.9069 90.1079 51.9069C89.6236 51.9069 89.4152 52.3517 89.3758 52.684H90.7667Z" fill="white"/>
<path id="Vector_26" d="M91.8272 52.4475C91.8272 52.1378 91.8272 51.8731 91.8047 51.631H92.2214L92.2383 52.1434H92.2608C92.3791 51.7886 92.6662 51.569 92.9872 51.569C93.0435 51.569 93.0773 51.569 93.1224 51.5859V52.0364C93.0717 52.0252 93.0266 52.0195 92.9591 52.0195C92.6212 52.0195 92.3847 52.2729 92.3171 52.6333C92.3059 52.7009 92.2946 52.7741 92.2946 52.8586V54.2551H91.8216V52.4475H91.8272Z" fill="white"/>
<path id="Vector_27" d="M93.5328 53.7652C93.6736 53.8553 93.9213 53.9566 94.1635 53.9566C94.5126 53.9566 94.6759 53.7821 94.6759 53.5681C94.6759 53.3428 94.5407 53.2133 94.186 53.0838C93.713 52.9149 93.4934 52.6558 93.4934 52.3405C93.4934 51.9182 93.8369 51.569 94.4 51.569C94.6646 51.569 94.9011 51.6422 95.0475 51.7323L94.9293 52.0815C94.8279 52.0139 94.6365 51.9294 94.3943 51.9294C94.1128 51.9294 93.9551 52.0927 93.9551 52.2898C93.9551 52.5094 94.1128 52.6052 94.4563 52.7347C94.9124 52.9092 95.1433 53.1345 95.1433 53.5287C95.1433 53.9904 94.7829 54.317 94.1635 54.317C93.8763 54.317 93.6116 54.2495 93.4258 54.1368L93.544 53.7708L93.5328 53.7652Z" fill="white"/>
<path id="Vector_28" d="M96.2788 50.8933C96.2788 51.0566 96.1661 51.1861 95.9747 51.1861C95.8058 51.1861 95.6875 51.0566 95.6875 50.8933C95.6875 50.73 95.8114 50.5948 95.9859 50.5948C96.1605 50.5948 96.2788 50.7244 96.2788 50.8933ZM95.7494 54.2551V51.631H96.2281V54.2551H95.7494Z" fill="white"/>
<path id="Vector_29" d="M97.5916 50.8764V51.631H98.2729V51.997H97.5916V53.4104C97.5916 53.737 97.6817 53.9172 97.952 53.9172C98.0759 53.9172 98.1716 53.9003 98.2279 53.8834L98.2504 54.2438C98.1603 54.2833 98.0139 54.3114 97.8281 54.3114C97.6028 54.3114 97.4283 54.2438 97.31 54.1087C97.1749 53.9679 97.1242 53.737 97.1242 53.4273V51.997H96.7188V51.631H97.1242V51.0003L97.5916 50.8764Z" fill="white"/>
<path id="Vector_30" d="M100.263 54.2551L100.223 53.9229H100.206C100.06 54.1312 99.7785 54.3114 99.4068 54.3114C98.8775 54.3114 98.6016 53.9397 98.6016 53.5568C98.6016 52.9205 99.1647 52.577 100.178 52.5826V52.5263C100.178 52.3123 100.116 51.9182 99.5814 51.9182C99.3392 51.9182 99.0802 51.9914 98.9 52.1152L98.793 51.7999C99.0126 51.6591 99.3223 51.569 99.6546 51.569C100.454 51.569 100.651 52.1153 100.651 52.6446V53.6244C100.651 53.8496 100.663 54.0749 100.696 54.2551H100.263ZM100.195 52.9149C99.6771 52.9036 99.0858 52.9937 99.0858 53.5061C99.0858 53.8159 99.2942 53.9623 99.5363 53.9623C99.8798 53.9623 100.094 53.7427 100.173 53.523C100.19 53.4724 100.201 53.4217 100.201 53.371V52.9149H100.195Z" fill="white"/>
<path id="Vector_31" d="M101.429 52.4475C101.429 52.1378 101.429 51.8731 101.406 51.631H101.823L101.84 52.1434H101.862C101.981 51.7886 102.268 51.569 102.589 51.569C102.645 51.569 102.679 51.569 102.724 51.5859V52.0364C102.673 52.0252 102.628 52.0195 102.561 52.0195C102.223 52.0195 101.986 52.2729 101.919 52.6333C101.907 52.7009 101.896 52.7741 101.896 52.8586V54.2551H101.423V52.4475H101.429Z" fill="white"/>
<path id="Vector_32" d="M103.755 50.8933C103.755 51.0566 103.643 51.1861 103.451 51.1861C103.282 51.1861 103.164 51.0566 103.164 50.8933C103.164 50.73 103.288 50.5948 103.463 50.5948C103.637 50.5948 103.755 50.7244 103.755 50.8933ZM103.226 54.2551V51.631H103.705V54.2551H103.226Z" fill="white"/>
<path id="Vector_33" d="M106.867 52.9205C106.867 53.8891 106.197 54.3114 105.56 54.3114C104.851 54.3114 104.305 53.7933 104.305 52.9599C104.305 52.0815 104.879 51.569 105.605 51.569C106.332 51.569 106.867 52.1152 106.867 52.9205ZM104.783 52.9487C104.783 53.523 105.116 53.9566 105.583 53.9566C106.05 53.9566 106.383 53.5287 106.383 52.9374C106.383 52.4925 106.157 51.9294 105.594 51.9294C105.031 51.9294 104.789 52.4475 104.789 52.9487H104.783Z" fill="white"/>
<path id="Vector_34" d="M110.529 52.5376H109.11V53.8553H110.692V54.2495H108.637V50.5948H110.608V50.989H109.104V52.1434H110.523V52.532L110.529 52.5376Z" fill="white"/>
<path id="Vector_35" d="M111.22 53.7652C111.361 53.8553 111.609 53.9566 111.851 53.9566C112.2 53.9566 112.363 53.7821 112.363 53.5681C112.363 53.3428 112.228 53.2133 111.873 53.0838C111.4 52.9149 111.181 52.6558 111.181 52.3405C111.181 51.9182 111.524 51.569 112.087 51.569C112.352 51.569 112.589 51.6422 112.735 51.7323L112.617 52.0815C112.515 52.0139 112.324 51.9294 112.082 51.9294C111.8 51.9294 111.643 52.0927 111.643 52.2898C111.643 52.5094 111.8 52.6052 112.144 52.7347C112.6 52.9092 112.831 53.1345 112.831 53.5287C112.831 53.9904 112.47 54.317 111.851 54.317C111.564 54.317 111.299 54.2495 111.113 54.1368L111.232 53.7708L111.22 53.7652Z" fill="white"/>
<path id="Vector_36" d="M114.006 50.8764V51.631H114.687V51.997H114.006V53.4104C114.006 53.737 114.096 53.9172 114.366 53.9172C114.49 53.9172 114.586 53.9003 114.642 53.8834L114.664 54.2438C114.574 54.2833 114.428 54.3114 114.242 54.3114C114.017 54.3114 113.842 54.2438 113.724 54.1087C113.589 53.9679 113.538 53.737 113.538 53.4273V51.997H113.133V51.631H113.538V51.0003L114.006 50.8764Z" fill="white"/>
<path id="Vector_37" d="M116.681 54.2551L116.641 53.9229H116.624C116.478 54.1312 116.196 54.3114 115.825 54.3114C115.295 54.3114 115.02 53.9397 115.02 53.5568C115.02 52.9205 115.583 52.577 116.596 52.5826V52.5263C116.596 52.3123 116.534 51.9182 115.999 51.9182C115.757 51.9182 115.498 51.9914 115.318 52.1152L115.211 51.7999C115.431 51.6591 115.74 51.569 116.073 51.569C116.872 51.569 117.069 52.1153 117.069 52.6446V53.6244C117.069 53.8496 117.081 54.0749 117.114 54.2551H116.681ZM116.613 52.9149C116.095 52.9036 115.504 52.9937 115.504 53.5061C115.504 53.8159 115.712 53.9623 115.954 53.9623C116.298 53.9623 116.512 53.7427 116.591 53.523C116.608 53.4724 116.619 53.4217 116.619 53.371V52.9149H116.613Z" fill="white"/>
<path id="Vector_38" d="M118.4 50.8764V51.631H119.082V51.997H118.4V53.4104C118.4 53.737 118.49 53.9172 118.761 53.9172C118.884 53.9172 118.98 53.9003 119.036 53.8834L119.059 54.2438C118.969 54.2833 118.823 54.3114 118.637 54.3114C118.411 54.3114 118.237 54.2438 118.119 54.1087C117.983 53.9679 117.933 53.737 117.933 53.4273V51.997H117.527V51.631H117.933V51.0003L118.4 50.8764Z" fill="white"/>
<path id="Vector_39" d="M121.067 54.2551L121.028 53.9229H121.011C120.865 54.1312 120.583 54.3114 120.212 54.3114C119.682 54.3114 119.406 53.9397 119.406 53.5568C119.406 52.9205 119.969 52.577 120.983 52.5826V52.5263C120.983 52.3123 120.921 51.9182 120.386 51.9182C120.144 51.9182 119.885 51.9914 119.705 52.1152L119.598 51.7999C119.817 51.6591 120.127 51.569 120.459 51.569C121.259 51.569 121.456 52.1153 121.456 52.6446V53.6244C121.456 53.8496 121.467 54.0749 121.501 54.2551H121.067ZM121 52.9149C120.482 52.9036 119.891 52.9937 119.891 53.5061C119.891 53.8159 120.099 53.9623 120.341 53.9623C120.685 53.9623 120.899 53.7427 120.977 53.523C120.994 53.4724 121.005 53.4217 121.005 53.371V52.9149H121Z" fill="white"/>
<path id="Vector_40" d="M122.234 50.4034H122.713V54.2551H122.234V50.4034Z" fill="white"/>
</g>
<g id="Group_4">
<path id="Vector_41" d="M64.5762 60.883C64.5481 60.2241 64.5143 59.4301 64.5143 58.7375H64.4918C64.3228 59.3625 64.1088 60.0495 63.8892 60.6971L63.1403 62.9045H62.4251L61.7494 60.7253C61.5523 60.0721 61.3665 59.3794 61.2313 58.7375H61.2144C61.1919 59.4076 61.1638 60.2185 61.1244 60.9167L61.0117 62.9665H60.1445L60.4824 57.8647H61.7044L62.3688 59.9144C62.5547 60.5169 62.718 61.1251 62.8362 61.6882H62.8587C62.9939 61.1307 63.1684 60.5057 63.3712 59.9088L64.0807 57.8647H65.2914L65.5842 62.9665H64.6776L64.5762 60.883Z" fill="white"/>
<path id="Vector_42" d="M67.1944 61.3785C67.2169 62.0486 67.735 62.3358 68.3319 62.3358C68.7599 62.3358 69.0696 62.2682 69.3511 62.1669L69.4919 62.8088C69.1766 62.944 68.7373 63.0453 68.2024 63.0453C67.0086 63.0453 66.3047 62.3076 66.3047 61.1758C66.3047 60.1565 66.9241 59.1936 68.1066 59.1936C69.2892 59.1936 69.6946 60.1791 69.6946 60.9843C69.6946 61.1589 69.6777 61.294 69.6608 61.3785H67.1944ZM68.8162 60.7309C68.8162 60.3874 68.6698 59.8356 68.0503 59.8356C67.476 59.8356 67.2395 60.3536 67.1944 60.7309H68.8162Z" fill="white"/>
<path id="Vector_43" d="M70.4046 62.1049C70.6129 62.2344 71.0127 62.3752 71.345 62.3752C71.756 62.3752 71.9362 62.2063 71.9362 61.9642C71.9362 61.722 71.7842 61.5869 71.3337 61.4292C70.6129 61.1814 70.3145 60.7872 70.3145 60.3536C70.3145 59.7061 70.8551 59.1992 71.711 59.1992C72.1164 59.1992 72.4712 59.3006 72.6908 59.4189L72.505 60.0721C72.3473 59.982 72.0545 59.8581 71.7279 59.8581C71.4013 59.8581 71.2098 60.0214 71.2098 60.2466C71.2098 60.4719 71.39 60.5958 71.8518 60.7647C72.5219 61.0012 72.8316 61.3447 72.8372 61.8853C72.8372 62.5554 72.3135 63.0397 71.3393 63.0397C70.8945 63.0397 70.489 62.9327 70.2188 62.7807L70.4046 62.0993V62.1049Z" fill="white"/>
<path id="Vector_44" d="M75.675 62.9609L75.6131 62.5498H75.5906C75.3653 62.8426 74.9824 63.0453 74.5038 63.0453C73.7548 63.0453 73.3438 62.5104 73.3438 61.9472C73.3438 61.0181 74.1715 60.5451 75.5286 60.5507V60.4888C75.5286 60.2466 75.4329 59.8412 74.7797 59.8468C74.4193 59.8468 74.042 59.9651 73.7886 60.1227L73.6028 59.5202C73.8787 59.3513 74.3573 59.1936 74.9374 59.1936C76.1199 59.1936 76.4578 59.9369 76.4578 60.7478V62.0768C76.4578 62.409 76.4747 62.7356 76.5141 62.9665H75.675V62.9609ZM75.5512 61.1532C74.8923 61.142 74.2673 61.2828 74.2673 61.8459C74.2673 62.2063 74.5038 62.3752 74.7966 62.3752C75.1682 62.3752 75.4385 62.1331 75.523 61.8628C75.5455 61.8008 75.5512 61.7276 75.5512 61.6601V61.1532Z" fill="white"/>
<path id="Vector_45" d="M82.4172 57.5887V61.9304C82.4172 62.3076 82.4285 62.7131 82.4454 62.9665H81.6176L81.5782 62.3808H81.5613C81.3417 62.7919 80.8968 63.0453 80.3619 63.0453C79.4834 63.0453 78.7852 62.2964 78.7852 61.1645C78.7852 59.9313 79.551 59.1936 80.4351 59.1936C80.9419 59.1936 81.3023 59.402 81.4656 59.6723H81.4825V57.5831H82.4116L82.4172 57.5887ZM81.4881 60.8154C81.4881 60.7422 81.4881 60.6464 81.4656 60.5732C81.3811 60.2128 81.0827 59.92 80.666 59.92C80.0634 59.92 79.7312 60.4494 79.7312 61.1307C79.7312 61.8121 80.0691 62.302 80.6547 62.302C81.0376 62.302 81.3642 62.043 81.4599 61.6375C81.4825 61.5531 81.4881 61.463 81.4881 61.3672V60.8154Z" fill="white"/>
<path id="Vector_46" d="M84.0772 61.3785C84.0997 62.0486 84.6178 62.3358 85.2147 62.3358C85.6427 62.3358 85.9524 62.2682 86.2339 62.1669L86.3747 62.8088C86.0594 62.944 85.6201 63.0453 85.0852 63.0453C83.8914 63.0453 83.1875 62.3076 83.1875 61.1758C83.1875 60.1565 83.8069 59.1936 84.9895 59.1936C86.172 59.1936 86.5774 60.1791 86.5774 60.9843C86.5774 61.1589 86.5605 61.294 86.5436 61.3785H84.0772ZM85.699 60.7309C85.699 60.3874 85.5526 59.8356 84.9331 59.8356C84.3588 59.8356 84.1223 60.3536 84.0772 60.7309H85.699Z" fill="white"/>
<path id="Vector_47" d="M93.0187 62.73C92.6921 62.8482 92.0558 63.0115 91.3744 63.0115C90.5129 63.0115 89.8597 62.7975 89.3754 62.3302C88.9193 61.8966 88.6546 61.2264 88.6602 60.455C88.6602 58.8388 89.8146 57.8027 91.504 57.8027C92.129 57.8027 92.6189 57.9322 92.8554 58.0448L92.6471 58.7938C92.3712 58.6699 92.0277 58.5742 91.4871 58.5742C90.4003 58.5742 89.6344 59.2161 89.6344 60.4043C89.6344 61.5925 90.3496 62.2513 91.4082 62.2513C91.7461 62.2513 91.9939 62.2063 92.1121 62.15V60.8773H91.2111V60.1453H93.0131V62.7243L93.0187 62.73Z" fill="white"/>
<path id="Vector_48" d="M97.4834 61.0857C97.4834 62.4428 96.5318 63.0453 95.5914 63.0453C94.5496 63.0453 93.75 62.3302 93.75 61.1476C93.75 59.9651 94.544 59.1936 95.659 59.1936C96.7739 59.1936 97.4891 59.9651 97.4891 61.0857H97.4834ZM94.7017 61.1251C94.7017 61.8346 95.0564 62.3696 95.6195 62.3696C96.1827 62.3696 96.5262 61.8515 96.5262 61.1138C96.5262 60.5338 96.2671 59.875 95.6252 59.875C94.9832 59.875 94.7017 60.5113 94.7017 61.1251Z" fill="white"/>
<path id="Vector_49" d="M98.2227 62.9609C98.2395 62.7131 98.2508 62.302 98.2508 61.9247V57.5831H99.1799V59.7792H99.1968C99.4221 59.4189 99.8275 59.188 100.374 59.188C101.275 59.188 101.917 59.9313 101.911 61.0575C101.911 62.3808 101.072 63.0397 100.239 63.0397C99.7656 63.0397 99.3433 62.8595 99.0786 62.4034H99.0617L99.0223 62.9609H98.2283H98.2227ZM99.1856 61.4348C99.1856 61.5136 99.1912 61.5869 99.2081 61.6544C99.3038 62.0317 99.6304 62.3076 100.03 62.3076C100.616 62.3076 100.965 61.8403 100.965 61.0969C100.965 60.4494 100.65 59.9144 100.036 59.9144C99.6586 59.9144 99.3095 60.1847 99.2081 60.5958C99.1912 60.669 99.1799 60.7478 99.1799 60.8379V61.4348H99.1856Z" fill="white"/>
<path id="Vector_50" d="M103.358 61.3785C103.381 62.0486 103.899 62.3358 104.496 62.3358C104.924 62.3358 105.234 62.2682 105.515 62.1669L105.656 62.8088C105.341 62.944 104.901 63.0453 104.366 63.0453C103.173 63.0453 102.469 62.3076 102.469 61.1758C102.469 60.1565 103.088 59.1936 104.271 59.1936C105.453 59.1936 105.859 60.1791 105.859 60.9843C105.859 61.1589 105.842 61.294 105.825 61.3785H103.358ZM104.98 60.7309C104.98 60.3874 104.834 59.8356 104.214 59.8356C103.64 59.8356 103.404 60.3536 103.358 60.7309H104.98Z" fill="white"/>
<path id="Vector_51" d="M106.606 60.4606C106.606 59.9651 106.595 59.6047 106.578 59.2781H107.383L107.417 59.9763H107.445C107.626 59.4583 108.059 59.1936 108.453 59.1936C108.543 59.1936 108.6 59.1936 108.673 59.2161V60.0946C108.594 60.0777 108.51 60.0664 108.403 60.0664C107.958 60.0664 107.648 60.348 107.569 60.7703C107.552 60.8548 107.547 60.9505 107.547 61.0519V62.9609H106.612V60.4606H106.606Z" fill="white"/>
<path id="Vector_52" d="M109.309 60.3762C109.309 59.9482 109.298 59.599 109.281 59.2781H110.098L110.143 59.8299H110.165C110.329 59.5427 110.728 59.1936 111.342 59.1936C111.984 59.1936 112.654 59.6047 112.654 60.776V62.9665H111.72V60.8886C111.72 60.3593 111.528 59.9594 111.016 59.9594C110.644 59.9594 110.391 60.2241 110.289 60.5057C110.261 60.5845 110.244 60.6971 110.244 60.7985V62.9665H109.309V60.3762Z" fill="white"/>
<path id="Vector_53" d="M115.718 62.9609L115.656 62.5498H115.634C115.408 62.8426 115.025 63.0453 114.547 63.0453C113.798 63.0453 113.387 62.5104 113.387 61.9472C113.387 61.0181 114.214 60.5451 115.572 60.5507V60.4888C115.572 60.2466 115.476 59.8412 114.823 59.8468C114.462 59.8468 114.085 59.9651 113.832 60.1227L113.646 59.5202C113.922 59.3513 114.4 59.1936 114.98 59.1936C116.163 59.1936 116.501 59.9369 116.501 60.7478V62.0768C116.501 62.409 116.518 62.7356 116.557 62.9665H115.718V62.9609ZM115.594 61.1532C114.935 61.142 114.31 61.2828 114.31 61.8459C114.31 62.2063 114.547 62.3752 114.84 62.3752C115.211 62.3752 115.482 62.1331 115.572 61.8628C115.594 61.8008 115.6 61.7276 115.6 61.6601V61.1532H115.594Z" fill="white"/>
<path id="Vector_54" d="M117.457 62.9609C117.474 62.7131 117.485 62.302 117.485 61.9247V57.5831H118.414V59.7792H118.431C118.656 59.4189 119.062 59.188 119.608 59.188C120.509 59.188 121.151 59.9313 121.145 61.0575C121.145 62.3808 120.306 63.0397 119.473 63.0397C119 63.0397 118.578 62.8595 118.313 62.4034H118.296L118.257 62.9609H117.463H117.457ZM118.42 61.4348C118.42 61.5136 118.426 61.5869 118.442 61.6544C118.538 62.0317 118.865 62.3076 119.265 62.3076C119.85 62.3076 120.199 61.8403 120.199 61.0969C120.199 60.4494 119.884 59.9144 119.27 59.9144C118.893 59.9144 118.544 60.1847 118.442 60.5958C118.426 60.669 118.414 60.7478 118.414 60.8379V61.4348H118.42Z" fill="white"/>
<path id="Vector_55" d="M122.909 58.2476C122.909 58.5235 122.706 58.7487 122.38 58.7487C122.07 58.7487 121.867 58.5235 121.867 58.2476C121.867 57.966 122.076 57.7464 122.391 57.7464C122.706 57.7464 122.909 57.966 122.909 58.2476ZM121.923 62.9665V59.2837H122.858V62.9665H121.923Z" fill="white"/>
<path id="Vector_56" d="M123.859 57.5887H124.794V62.9608H123.859V57.5887Z" fill="white"/>
<path id="Vector_57" d="M126.796 58.2476C126.796 58.5235 126.593 58.7487 126.266 58.7487C125.957 58.7487 125.754 58.5235 125.754 58.2476C125.754 57.966 125.962 57.7464 126.278 57.7464C126.593 57.7464 126.796 57.966 126.796 58.2476ZM125.81 62.9665V59.2837H126.745V62.9665H125.81Z" fill="white"/>
<path id="Vector_58" d="M131.14 57.5887V61.9304C131.14 62.3076 131.151 62.7131 131.168 62.9665H130.34L130.301 62.3808H130.284C130.064 62.7919 129.619 63.0453 129.085 63.0453C128.206 63.0453 127.508 62.2964 127.508 61.1645C127.508 59.9313 128.274 59.1936 129.158 59.1936C129.665 59.1936 130.025 59.402 130.188 59.6723H130.205V57.5831H131.134L131.14 57.5887ZM130.211 60.8154C130.211 60.7422 130.211 60.6464 130.188 60.5732C130.104 60.2128 129.805 59.92 129.389 59.92C128.786 59.92 128.454 60.4494 128.454 61.1307C128.454 61.8121 128.792 62.302 129.377 62.302C129.76 62.302 130.087 62.043 130.183 61.6375C130.205 61.5531 130.211 61.463 130.211 61.3672V60.8154Z" fill="white"/>
<path id="Vector_59" d="M134.214 62.9609L134.152 62.5498H134.13C133.904 62.8426 133.521 63.0453 133.043 63.0453C132.294 63.0453 131.883 62.5104 131.883 61.9472C131.883 61.0181 132.711 60.5451 134.068 60.5507V60.4888C134.068 60.2466 133.972 59.8412 133.319 59.8468C132.958 59.8468 132.581 59.9651 132.328 60.1227L132.142 59.5202C132.418 59.3513 132.896 59.1936 133.476 59.1936C134.659 59.1936 134.997 59.9369 134.997 60.7478V62.0768C134.997 62.409 135.014 62.7356 135.053 62.9665H134.214V62.9609ZM134.09 61.1532C133.431 61.142 132.806 61.2828 132.806 61.8459C132.806 62.2063 133.043 62.3752 133.336 62.3752C133.707 62.3752 133.978 62.1331 134.068 61.8628C134.09 61.8008 134.096 61.7276 134.096 61.6601V61.1532H134.09Z" fill="white"/>
<path id="Vector_60" d="M139.386 57.5887V61.9304C139.386 62.3076 139.397 62.7131 139.414 62.9665H138.586L138.547 62.3808H138.53C138.31 62.7919 137.866 63.0453 137.331 63.0453C136.452 63.0453 135.754 62.2964 135.754 61.1645C135.754 59.9313 136.52 59.1936 137.404 59.1936C137.911 59.1936 138.271 59.402 138.434 59.6723H138.451V57.5831H139.38L139.386 57.5887ZM138.457 60.8154C138.457 60.7422 138.457 60.6464 138.434 60.5732C138.35 60.2128 138.051 59.92 137.635 59.92C137.032 59.92 136.7 60.4494 136.7 61.1307C136.7 61.8121 137.038 62.302 137.623 62.302C138.006 62.302 138.333 62.043 138.429 61.6375C138.451 61.5531 138.457 61.463 138.457 61.3672V60.8154Z" fill="white"/>
<path id="Vector_61" d="M142.544 59.2781L143.209 61.2546C143.282 61.4855 143.361 61.767 143.417 61.9698H143.44C143.496 61.7614 143.564 61.4855 143.637 61.249L144.211 59.2837H145.208L144.284 61.8008C143.778 63.1748 143.434 63.7886 143.001 64.1716C142.634 64.4925 142.257 64.6108 142.021 64.6446L141.812 63.8618C141.97 63.8224 142.161 63.738 142.353 63.6084C142.528 63.4902 142.736 63.2762 142.865 63.0228C142.899 62.9609 142.922 62.9045 142.922 62.8595C142.922 62.8201 142.91 62.7638 142.871 62.6793L141.52 59.295H142.544V59.2781Z" fill="white"/>
<path id="Vector_62" d="M147.348 57.9266C147.686 57.8703 148.147 57.8196 148.772 57.8196C149.454 57.8196 149.949 57.9604 150.276 58.2363C150.58 58.4841 150.777 58.8839 150.777 59.3682C150.777 59.8525 150.625 60.2523 150.343 60.5226C149.966 60.8942 149.392 61.0744 148.733 61.0744C148.558 61.0744 148.401 61.0632 148.277 61.0406V62.9665H147.353V57.9322L147.348 57.9266ZM148.271 60.3029C148.389 60.3367 148.536 60.348 148.727 60.348C149.426 60.348 149.848 59.9989 149.848 59.402C149.848 58.8388 149.454 58.5348 148.812 58.5348C148.553 58.5348 148.373 58.5573 148.271 58.5798V60.3029Z" fill="white"/>
<path id="Vector_63" d="M153.464 62.9609L153.402 62.5498H153.38C153.154 62.8426 152.771 63.0453 152.293 63.0453C151.544 63.0453 151.133 62.5104 151.133 61.9472C151.133 61.0181 151.961 60.5451 153.318 60.5507V60.4888C153.318 60.2466 153.222 59.8412 152.569 59.8468C152.208 59.8468 151.831 59.9651 151.578 60.1227L151.392 59.5202C151.668 59.3513 152.146 59.1936 152.726 59.1936C153.909 59.1936 154.247 59.9369 154.247 60.7478V62.0768C154.247 62.409 154.264 62.7356 154.303 62.9665H153.464V62.9609ZM153.34 61.1532C152.681 61.142 152.056 61.2828 152.056 61.8459C152.056 62.2063 152.293 62.3752 152.586 62.3752C152.957 62.3752 153.228 62.1331 153.318 61.8628C153.34 61.8008 153.346 61.7276 153.346 61.6601V61.1532H153.34Z" fill="white"/>
<path id="Vector_64" d="M154.887 62.4259L156.272 60.6577C156.463 60.4325 156.621 60.2523 156.813 60.0383V60.0214H155.022V59.2781H157.95V59.8468L156.599 61.5756C156.418 61.7952 156.244 62.0092 156.052 62.2063V62.2232H157.995V62.9665H154.887V62.4259Z" fill="white"/>
</g>
</g>
<defs>
<clipPath id="clip0_157_185069">
<rect width="157.897" height="72" fill="white" transform="translate(0.101562 0.0551758)"/>
</clipPath>
</defs>
</svg>
