<svg width="496" height="121" viewBox="0 0 496 121" fill="none" xmlns="http://www.w3.org/2000/svg">
<g clip-path="url(#clip0_157_185175)">
<path d="M82.0467 64.4385C80.3614 62.1403 79.0002 60.2382 77.5801 58.348C73.3315 52.5594 67.367 48.316 60.5678 46.245C54.7811 44.4449 48.9296 42.7047 43.4788 40.1425C39.9727 38.4984 37.0322 35.5221 34.0505 32.9419C33.4141 32.3899 33.6026 30.8537 33.4141 29.7676C34.4512 29.9416 35.7063 29.7676 36.4842 30.3677C44.2626 35.8281 52.9131 36.2242 61.8229 35.0001C62.589 34.8981 63.243 33.962 63.9502 33.4099C63.3197 32.8939 62.7068 32.3478 62.0527 31.8678C59.8135 30.2237 57.48 28.7056 55.3763 26.9054C54.8695 26.4734 55.1229 25.1052 55.0227 24.2172C55.8728 24.29 56.7137 24.4488 57.533 24.6912C63.0604 26.9294 68.5878 29.1676 74.0621 31.5258C79.2123 33.74 82.9012 37.4003 84.1269 43.1008C85.6708 50.2534 84.1387 57.1419 82.0467 64.4385Z" fill="white"/>
<path d="M101.102 64.4925C99.0044 57.2919 97.4369 50.5354 98.8394 43.5268C99.3062 41.0157 100.375 38.661 101.951 36.672C103.527 34.683 105.561 33.1213 107.873 32.1258C111.691 30.3677 115.687 28.9936 119.576 27.3734C121.733 26.4674 123.813 25.3573 125.964 24.4272C126.635 24.2275 127.327 24.1106 128.026 24.0792C128.026 24.8232 128.391 25.8313 128.026 26.2694C126.785 27.8735 125.382 29.3415 123.842 30.6497C122.976 31.3698 121.644 31.4778 120.625 32.0538C120.036 32.3838 119.67 33.0919 119.199 33.6319C119.788 34.088 120.324 34.8801 120.967 34.9641C129.564 36.1282 137.991 36.0141 145.622 30.9677C146.249 30.4985 146.923 30.0963 147.631 29.7676C148.22 29.5516 149.252 29.3836 149.399 29.6476C149.602 29.9504 149.737 30.2951 149.794 30.6572C149.851 31.0192 149.829 31.3895 149.729 31.7418C149.069 33.0379 148.338 34.574 147.195 35.3001C143.375 37.815 139.394 40.0681 135.28 42.0447C131.682 43.6041 127.96 44.8467 124.155 45.759C115.463 48.0452 108.898 53.1996 103.866 60.5682C103.088 61.6903 102.287 62.8064 101.102 64.4925Z" fill="white"/>
<path d="M150.024 35.9962C150.13 40.1965 148.256 43.1968 145.11 44.6429C141.554 46.2057 137.824 47.3162 134.002 47.9492C131.256 48.4532 128.345 48.0452 125.41 47.8411C133.996 44.8169 143.253 43.2448 150.024 35.9962Z" fill="white"/>
<path d="M33.4895 35.6181C39.9126 43.2747 49.1288 44.8889 57.7617 47.8651C52.1754 48.1772 46.6539 48.4352 41.3209 46.443C37.7853 45.1229 34.9273 42.9867 33.3599 39.4104C33.0219 38.4332 32.7618 37.4299 32.582 36.4102L33.4895 35.6181Z" fill="white"/>
<path d="M91.4458 30.6077C92.1012 30.5851 92.7545 30.6973 93.3664 30.9376C93.9783 31.178 94.5364 31.5414 95.0073 32.0063C95.4781 32.4712 95.8521 33.028 96.1068 33.6434C96.3616 34.2589 96.4919 34.9203 96.4899 35.5881C96.5116 36.8865 96.038 38.1428 95.1687 39.0929C94.2994 40.043 93.1022 40.6128 91.8288 40.6825C90.5038 40.7366 89.211 40.2578 88.2298 39.3495C87.2485 38.4412 86.6575 37.1764 86.5843 35.8281C86.5646 35.1598 86.6751 34.494 86.9092 33.8693C87.1433 33.2445 87.4964 32.6731 87.9482 32.1878C88.4001 31.7026 88.9417 31.3132 89.542 31.042C90.1422 30.7708 90.7893 30.6232 91.4458 30.6077Z" fill="white"/>
<path d="M87.3945 67.0128C88.8206 62.3444 90.0345 58.342 91.2543 54.3457H91.8435L95.7327 67.0427L87.3945 67.0128Z" fill="white"/>
<path d="M46.9917 50.0313C41.812 52.0535 35.3359 49.4313 33.6211 44.1868L46.9917 50.0313Z" fill="white"/>
<path d="M136 50.0373L149.182 44.3489C148.746 49.0293 141.486 52.1075 136 50.0373Z" fill="white"/>
<path d="M58.2266 77.6816H62.5813V88.5606C62.5813 90.7147 63.6243 91.9568 65.6809 91.9568C67.7374 91.9568 68.8394 90.7147 68.8394 88.5606V77.6816H73.1882V88.5365C73.1882 93.5649 69.7292 96.0492 65.6043 96.0492C61.4793 96.0492 58.2266 93.5649 58.2266 88.5365V77.6816Z" fill="white"/>
<path d="M84.5666 95.8692H76.2461V77.6816H84.2838C87.9255 77.6816 90.0881 79.5178 90.0881 82.398C90.122 83.337 89.8403 84.2596 89.2896 85.0135C88.7389 85.7673 87.9521 86.3074 87.0592 86.5444C88.0413 86.7545 88.9211 87.3058 89.5478 88.1038C90.1746 88.9019 90.5093 89.897 90.4947 90.9187C90.4947 93.925 88.3321 95.8692 84.5666 95.8692ZM83.447 81.2279H80.5949V85.0383H83.447C84.873 85.0383 85.6568 84.3902 85.6568 83.1481C85.6568 81.906 84.873 81.2279 83.447 81.2279ZM83.7357 88.2785H80.5949V92.2928H83.8006C85.2502 92.2928 86.0928 91.6208 86.0928 90.3247C86.0928 89.0286 85.203 88.2785 83.7357 88.2785Z" fill="white"/>
<path d="M100.067 89.3406H97.3684V95.8692H93.0195V77.6816H100.091C104.469 77.6816 106.655 80.1959 106.655 83.5381C106.632 86.5444 104.622 89.3406 100.067 89.3406ZM99.7372 85.8183C101.464 85.8183 102.206 84.9363 102.206 83.5381C102.206 82.14 101.464 81.2579 99.7372 81.2579H97.3802V85.8483L99.7372 85.8183Z" fill="white"/>
<path d="M124.952 86.7724C124.952 92.1728 121.287 95.8692 115.589 95.8692H108.895V77.6816H115.589C121.287 77.6816 124.952 81.3599 124.952 86.7724ZM115.312 92.0348C118.594 92.0348 120.527 90.1147 120.527 86.7724C120.527 83.4301 118.594 81.4619 115.312 81.4619H113.249V92.0348H115.312Z" fill="white"/>
<path d="M164.469 45.0089H166.761V56.3198C166.761 59.6021 168.499 61.0122 171.092 61.0122C173.685 61.0122 175.4 59.6021 175.4 56.3198V45.0089H177.692V56.2958C177.692 60.9402 174.693 63.0644 171.069 63.0644C167.445 63.0644 164.469 60.9402 164.469 56.2958V45.0089Z" fill="white"/>
<path d="M195.338 44.9849V62.8844H193.046L183.829 48.6452V62.8784H181.555V44.9849H183.847L193.063 59.1941V44.9849H195.338Z" fill="white"/>
<path d="M199.234 45.0089H201.527V62.8844H199.234V45.0089Z" fill="white"/>
<path d="M220.218 53.9857C220.218 59.5301 216.683 62.8844 210.902 62.8844H205.434V45.0089H210.902C216.671 45.0089 220.218 48.4472 220.218 53.9857ZM210.902 60.9643C215.487 60.9643 217.879 58.348 217.879 53.9857C217.879 49.6233 215.487 46.9111 210.902 46.9111H207.726V60.9643H210.902Z" fill="white"/>
<path d="M233.618 58.9121H225.957L224.572 62.8844H222.156L228.503 45.1109H231.149L237.466 62.8844H235.05L233.618 58.9121ZM229.787 47.9852L226.611 57.0459H232.958L229.787 47.9852Z" fill="white"/>
<path d="M254.996 53.9857C254.996 59.5301 251.46 62.8844 245.679 62.8844H240.211V45.0089H245.679C251.442 45.0089 254.996 48.4472 254.996 53.9857ZM245.679 60.9643C250.258 60.9643 252.65 58.348 252.65 53.9857C252.65 49.6233 250.258 46.9111 245.679 46.9111H242.503V60.9643H245.679Z" fill="white"/>
<path d="M279.521 53.9857C279.521 59.5301 275.986 62.8844 270.205 62.8844H264.742V45.0089H270.205C275.974 45.0089 279.521 48.4472 279.521 53.9857ZM270.205 60.9643C274.789 60.9643 277.182 58.348 277.182 53.9857C277.182 49.6233 274.789 46.9111 270.205 46.9111H267.029V60.9643H270.205Z" fill="white"/>
<path d="M291.991 46.9111H284.837V52.8816H291.231V54.8077H284.837V60.9643H291.991V62.8844H282.562V44.9849H291.991V46.9111Z" fill="white"/>
<path d="M308.734 62.8844H302.188V45.0089H308.487C312.187 45.0089 314.05 47.0611 314.05 49.5513C314.064 50.4898 313.77 51.4063 313.214 52.1545C312.657 52.9028 311.871 53.4397 310.979 53.6796C311.97 53.893 312.857 54.4488 313.491 55.2527C314.125 56.0567 314.466 57.0591 314.456 58.09C314.456 60.7842 312.376 62.8844 308.734 62.8844ZM308.281 46.9351H304.48V52.7316H308.334C310.473 52.7316 311.71 51.6515 311.71 49.8333C311.71 48.0151 310.526 46.9351 308.281 46.9351ZM308.457 54.6517H304.48V60.9643H308.534C310.803 60.9643 312.164 59.8061 312.164 57.862C312.164 55.9178 310.703 54.6457 308.457 54.6457V54.6517Z" fill="white"/>
<path d="M317.57 45.0089H319.863V56.3198C319.863 59.6021 321.63 61.0122 324.194 61.0122C326.757 61.0122 328.501 59.6021 328.501 56.3198V45.0089H330.794V56.2959C330.794 60.9402 327.794 63.0644 324.17 63.0644C320.546 63.0644 317.57 60.9402 317.57 56.2959V45.0089ZM326.639 39.1104V41.1386L321.277 44.0608V42.3207L326.639 39.1104Z" fill="white"/>
<path d="M340.187 63.0464C336.651 63.0464 334.17 61.0482 334.117 58.096H336.563C336.71 59.5841 337.741 61.0962 340.187 61.0962C342.402 61.0962 343.722 59.8121 343.722 58.096C343.722 53.2956 334.229 56.3558 334.229 49.6953C334.229 46.743 336.586 44.7449 340.045 44.7449C343.398 44.7449 345.59 46.617 345.867 49.3353H343.345C343.198 48.1352 342.09 46.7731 339.945 46.743C338.059 46.695 336.574 47.6911 336.574 49.6173C336.574 54.2317 346.044 51.3634 346.044 57.976C346.032 60.5502 343.988 63.0464 340.187 63.0464Z" fill="white"/>
<path d="M362.022 61.7863L366.453 66.2747H363.507L360.006 62.6744C359.154 62.9135 358.274 63.0346 357.39 63.0344C352.452 63.0344 348.551 59.2661 348.551 53.9077C348.551 48.5492 352.428 44.7749 357.39 44.7749C362.352 44.7749 366.2 48.5492 366.2 53.9077C366.248 55.4795 365.887 57.0364 365.153 58.4202C364.419 59.8039 363.339 60.9653 362.022 61.7863ZM357.366 61.0422C361.067 61.0422 363.848 58.294 363.848 53.9377C363.848 49.5813 361.079 46.8331 357.366 46.8331C353.654 46.8331 350.884 49.5513 350.884 53.9377C350.884 58.324 353.66 61.0422 357.366 61.0422Z" fill="white"/>
<path d="M369.199 45.0089H371.491V56.3198C371.491 59.6021 373.23 61.0122 375.823 61.0122C378.415 61.0122 380.13 59.6021 380.13 56.3198V45.0089H382.423V56.2958C382.423 60.9402 379.423 63.0644 375.799 63.0644C372.175 63.0644 369.199 60.9402 369.199 56.2958V45.0089Z" fill="white"/>
<path d="M395.69 46.9111H388.536V52.8816H394.936V54.8077H388.536V60.9643H395.69V62.8844H386.262V44.9849H395.69V46.9111Z" fill="white"/>
<path d="M413.949 53.9857C413.949 59.5301 410.413 62.8844 404.632 62.8844H399.164V45.0089H404.632C410.401 45.0089 413.949 48.4472 413.949 53.9857ZM404.632 60.9643C409.217 60.9643 411.61 58.348 411.61 53.9857C411.61 49.6233 409.217 46.9111 404.632 46.9111H401.456V60.9643H404.632Z" fill="white"/>
<path d="M427.348 58.9121H419.688L418.279 62.8844H415.863L422.21 45.1109H424.856L431.173 62.8844H428.757L427.348 58.9121ZM423.518 47.9852L420.348 57.0459H426.694L423.518 47.9852Z" fill="white"/>
<path d="M172.383 75.6835C172.383 78.9238 170.303 80.8859 166.932 80.8859H163.738V70.433H166.932C170.303 70.433 172.383 72.4432 172.383 75.6835ZM166.932 79.7638C169.613 79.7638 171.01 78.2337 171.01 75.6835C171.01 73.1333 169.613 71.5431 166.932 71.5431H165.058V79.7638H166.932Z" fill="white"/>
<path d="M179.67 71.5431H175.492V75.0474H179.228V76.1695H175.492V79.7698H179.67V80.8919H174.148V70.421H179.67V71.5431Z" fill="white"/>
<path d="M188.958 76.5236H186.984V80.8859H185.641V70.433H188.958C191.368 70.433 192.494 71.7831 192.494 73.4933C192.506 75.0834 191.504 76.5236 188.958 76.5236ZM188.958 75.4015C190.484 75.4015 191.133 74.6634 191.133 73.4933C191.133 72.3232 190.484 71.5611 188.958 71.5611H186.984V75.4015H188.958Z" fill="white"/>
<path d="M199.695 71.5431H195.512V75.0474H199.236V76.1695H195.494V79.7698H199.678V80.8919H194.156V70.421H199.678L199.695 71.5431Z" fill="white"/>
<path d="M205.038 70.433C207.454 70.433 208.574 71.8012 208.574 73.5113C208.595 74.2289 208.359 74.9298 207.908 75.4823C207.458 76.0347 206.825 76.4008 206.128 76.5116L208.709 80.8859H207.13L204.685 76.6136H203.07V80.8859H201.727V70.433H205.038ZM205.038 71.5611H203.07V75.5215H205.038C206.559 75.5215 207.219 74.6814 207.219 73.5113C207.219 72.3412 206.57 71.5611 205.038 71.5611Z" fill="white"/>
<path d="M213.965 80.9939C211.909 80.9939 210.43 79.8238 210.43 78.1017H211.856C211.944 78.9657 212.551 79.8358 213.977 79.8358C215.274 79.8358 216.04 79.0858 216.04 78.1017C216.04 75.2814 210.489 77.0816 210.489 73.1932C210.489 71.4711 211.856 70.301 213.889 70.301C215.922 70.301 217.13 71.3931 217.295 72.9832H215.822C215.736 72.5127 215.479 72.0926 215.102 71.8075C214.725 71.5224 214.255 71.3936 213.789 71.4471C212.687 71.4471 211.814 71.9991 211.814 73.1272C211.814 75.8275 217.354 74.1473 217.354 78.0117C217.354 79.5238 216.163 80.9939 213.965 80.9939Z" fill="white"/>
<path d="M223.985 80.9939C222.944 81.0118 221.922 80.7138 221.048 80.138C220.174 79.5621 219.488 78.7344 219.077 77.7603C218.667 76.7862 218.55 75.7097 218.743 74.6679C218.935 73.6261 219.427 72.6661 220.157 71.9102C220.887 71.1543 221.821 70.6366 222.841 70.4232C223.86 70.2097 224.919 70.3101 225.883 70.7115C226.846 71.1129 227.671 71.7972 228.251 72.6773C228.831 73.5574 229.141 74.5934 229.141 75.6535C229.166 76.354 229.051 77.0524 228.802 77.7059C228.552 78.3593 228.175 78.9542 227.692 79.4541C227.21 79.9539 226.632 80.3483 225.995 80.6131C225.357 80.8778 224.674 81.0074 223.985 80.9939ZM223.985 79.7938C226.154 79.7938 227.774 78.1917 227.774 75.6415C227.774 73.0913 226.154 71.4891 223.985 71.4891C221.817 71.4891 220.202 73.0792 220.202 75.6415C220.202 78.2037 221.823 79.8058 223.985 79.8058V79.7938Z" fill="white"/>
<path d="M238.981 70.421V80.8859H237.644L232.234 72.5632V80.8859H230.891V70.421H232.234L237.626 78.7317V70.421H238.981Z" fill="white"/>
<path d="M247.337 78.5637H242.841L242.016 80.8859H240.602L244.314 70.493H245.858L249.558 80.8859H248.144L247.337 78.5637ZM245.098 72.1732L243.241 77.4536H246.966L245.098 72.1732Z" fill="white"/>
<path d="M254.45 80.9939C252.387 80.9939 250.914 79.8238 250.914 78.1017H252.34C252.428 78.9657 253.035 79.8358 254.461 79.8358C255.758 79.8358 256.524 79.0858 256.524 78.1017C256.524 75.2814 250.973 77.0816 250.973 73.1932C250.973 71.4711 252.34 70.301 254.373 70.301C256.406 70.301 257.614 71.3931 257.779 72.9832H256.306C256.216 72.5251 255.963 72.1171 255.595 71.8378C255.227 71.5586 254.771 71.4279 254.314 71.4711C253.212 71.4711 252.34 72.0232 252.34 73.1513C252.34 75.8515 257.879 74.1713 257.879 78.0356C257.867 79.5238 256.677 80.9939 254.45 80.9939Z" fill="white"/>
<path d="M272.422 75.6835C272.422 78.9238 270.348 80.8859 266.971 80.8859H263.777V70.433H267.001C270.348 70.433 272.422 72.4432 272.422 75.6835ZM266.971 79.7638C269.652 79.7638 271.055 78.2337 271.055 75.6835C271.055 73.1333 269.652 71.5431 266.971 71.5431H265.115V79.7638H266.971Z" fill="white"/>
<path d="M280.261 78.5637H275.782L274.957 80.8859H273.543L277.255 70.493H278.787L282.482 80.8859H281.068L280.261 78.5637ZM278.021 72.1732L276.165 77.4536H279.878L278.021 72.1732Z" fill="white"/>
<path d="M292.762 75.6835C292.762 78.9238 290.688 80.8859 287.317 80.8859H284.117V70.433H287.317C290.688 70.433 292.762 72.4432 292.762 75.6835ZM287.317 79.7638C289.998 79.7638 291.395 78.2337 291.395 75.6835C291.395 73.1333 289.998 71.5431 287.317 71.5431H285.461V79.7638H287.317Z" fill="white"/>
<path d="M300.589 78.5637H296.11L295.285 80.8859H293.871L297.584 70.493H299.127L302.828 80.8859H301.414L300.589 78.5637ZM298.35 72.1732L296.493 77.4536H300.206L298.35 72.1732Z" fill="white"/>
<path d="M307.719 80.9939C305.657 80.9939 304.184 79.8238 304.184 78.1017H305.61C305.698 78.9657 306.305 79.8358 307.731 79.8358C309.027 79.8358 309.793 79.0858 309.793 78.1017C309.793 75.2814 304.243 77.0816 304.243 73.1932C304.243 71.4711 305.61 70.301 307.643 70.301C309.676 70.301 310.884 71.3931 311.049 72.9832H309.575C309.486 72.5251 309.232 72.1171 308.865 71.8378C308.497 71.5586 308.041 71.4279 307.584 71.4711C306.482 71.4711 305.61 72.0232 305.61 73.1513C305.61 75.8515 311.149 74.1713 311.149 78.0356C311.137 79.5238 309.947 80.9939 307.719 80.9939Z" fill="white"/>
<path d="M320.359 76.5236H318.385V80.8859H317.047V70.433H320.359C322.775 70.433 323.894 71.7831 323.894 73.4933C323.906 75.0834 322.91 76.5236 320.359 76.5236ZM320.359 75.4015C321.891 75.4015 322.539 74.6634 322.539 73.4933C322.539 72.3232 321.891 71.5611 320.359 71.5611H318.385V75.4015H320.359Z" fill="white"/>
<path d="M330.231 80.9939C329.191 81.0118 328.168 80.7138 327.294 80.138C326.42 79.5621 325.734 78.7344 325.323 77.7603C324.913 76.7862 324.796 75.7097 324.989 74.6679C325.181 73.6261 325.673 72.6661 326.403 71.9102C327.133 71.1543 328.067 70.6366 329.087 70.4232C330.107 70.2097 331.166 70.3101 332.129 70.7115C333.092 71.1129 333.917 71.7972 334.497 72.6773C335.077 73.5574 335.387 74.5934 335.387 75.6535C335.412 76.3538 335.295 77.0518 335.046 77.7049C334.797 78.358 334.419 78.9525 333.937 79.4522C333.454 79.9519 332.877 80.3463 332.24 80.6113C331.603 80.8764 330.919 81.0066 330.231 80.9939ZM330.231 79.7938C332.394 79.7938 334.014 78.1917 334.014 75.6415C334.014 73.0913 332.394 71.4891 330.231 71.4891C328.069 71.4891 326.448 73.0793 326.448 75.6415C326.448 78.2037 328.069 79.8058 330.231 79.8058V79.7938Z" fill="white"/>
<path d="M340.47 70.433C342.886 70.433 344.006 71.8012 344.006 73.5113C344.027 74.2281 343.791 74.9282 343.342 75.4805C342.893 76.0329 342.262 76.3994 341.566 76.5116L344.141 80.8859H342.538L340.093 76.6136H338.472V80.8859H337.129V70.433H340.47ZM340.47 71.5611H338.496V75.5215H340.47C341.985 75.5215 342.65 74.6814 342.65 73.5113C342.65 72.3412 342.002 71.5611 340.47 71.5611Z" fill="white"/>
<path d="M358.691 75.6835C358.691 78.9238 356.617 80.8859 353.241 80.8859H350.047V70.433H353.241C356.617 70.433 358.691 72.4432 358.691 75.6835ZM353.241 79.7638C355.922 79.7638 357.319 78.2337 357.319 75.6835C357.319 73.1333 355.922 71.5431 353.241 71.5431H351.385V79.7638H353.241Z" fill="white"/>
<path d="M366 71.5431H361.822V75.0474H365.558V76.1695H361.822V79.7698H366V80.8919H360.461V70.421H366V71.5431Z" fill="white"/>
<path d="M371.301 80.9939C369.239 80.9939 367.766 79.8238 367.766 78.1017H369.192C369.28 78.9657 369.887 79.8358 371.313 79.8358C372.609 79.8358 373.376 79.0858 373.376 78.1017C373.376 75.2814 367.825 77.0816 367.825 73.1932C367.825 71.4711 369.192 70.301 371.225 70.301C373.258 70.301 374.466 71.3931 374.625 72.9832H373.152C373.067 72.5139 372.81 72.0947 372.434 71.8097C372.058 71.5248 371.59 71.3952 371.124 71.4471C370.023 71.4471 369.15 71.9991 369.15 73.1272C369.15 75.8275 374.69 74.1473 374.69 78.0117C374.69 79.5238 373.493 80.9939 371.301 80.9939Z" fill="white"/>
<path d="M382.733 78.5637H378.255L377.43 80.8859H376.016L379.728 70.493H381.272L384.973 80.8859H383.558L382.733 78.5637ZM380.494 72.1732L378.638 77.4536H382.35L380.494 72.1732Z" fill="white"/>
<path d="M389.903 76.5236H387.935V80.8859H386.621V70.433H389.933C392.349 70.433 393.468 71.7831 393.468 73.4933C393.457 75.0834 392.455 76.5236 389.903 76.5236ZM389.903 75.4015C391.435 75.4015 392.084 74.6634 392.084 73.4933C392.084 72.3232 391.435 71.5611 389.903 71.5611H387.935V75.4015H389.903Z" fill="white"/>
<path d="M401.188 78.5637H396.71L395.891 80.8859H394.477L398.183 70.493H399.733L403.428 80.8859H402.013L401.188 78.5637ZM398.949 72.1732L397.093 77.4536H400.805L398.949 72.1732Z" fill="white"/>
<path d="M408.366 70.433C410.782 70.433 411.931 71.8012 411.931 73.5113C411.952 74.2286 411.714 74.9288 411.264 75.481C410.814 76.0332 410.182 76.3995 409.486 76.5116L412.061 80.8859H410.458L408.013 76.6136H406.392V80.8859H405.055V70.433H408.366ZM408.366 71.5611H406.392V75.5215H408.366C409.881 75.5215 410.547 74.6814 410.547 73.5113C410.547 72.3412 409.899 71.5611 408.366 71.5611Z" fill="white"/>
<path d="M419.533 71.5431H415.349V75.0474H419.091V76.1695H415.349V79.7698H419.533V80.8919H414.012V70.421H419.533V71.5431Z" fill="white"/>
<path d="M426.194 70.3011C427.213 70.2494 428.222 70.5276 429.076 71.0956C429.93 71.6637 430.586 72.4925 430.949 73.4633H429.346C429.081 72.8471 428.637 72.3286 428.073 71.9777C427.509 71.6268 426.853 71.4605 426.194 71.5012C424.043 71.5012 422.44 73.0913 422.44 75.6535C422.44 78.2157 424.043 79.7938 426.194 79.7938C426.852 79.8329 427.505 79.6672 428.068 79.3189C428.632 78.9706 429.077 78.456 429.346 77.8437H430.949C430.582 78.8094 429.924 79.6323 429.07 80.1948C428.216 80.7573 427.209 81.0307 426.194 80.9759C424.834 80.9295 423.545 80.3468 422.599 79.3509C421.654 78.355 421.125 77.0239 421.125 75.6385C421.125 74.2531 421.654 72.9219 422.599 71.926C423.545 70.9301 424.834 70.3475 426.194 70.3011Z" fill="white"/>
<path d="M432.941 70.433H434.279V80.8859H432.941V70.433Z" fill="white"/>
<path d="M445.207 75.6835C445.207 78.9238 443.133 80.8859 439.756 80.8859H436.562V70.433H439.756C443.133 70.433 445.207 72.4432 445.207 75.6835ZM439.756 79.7638C442.438 79.7638 443.84 78.2337 443.84 75.6835C443.84 73.1333 442.438 71.5431 439.756 71.5431H437.888V79.7638H439.756Z" fill="white"/>
<path d="M453.046 78.5637H448.567L447.742 80.8859H446.328L450.041 70.493H451.59L455.285 80.8859H453.871L453.046 78.5637ZM450.807 72.1732L448.95 77.4536H452.663L450.807 72.1732Z" fill="white"/>
<path d="M460.165 80.9939C458.102 80.9939 456.629 79.8238 456.629 78.1017H458.061C458.149 78.9657 458.75 79.8358 460.182 79.8358C461.479 79.8358 462.245 79.0858 462.245 78.1017C462.245 75.2814 456.688 77.0816 456.688 73.1932C456.688 71.4711 458.061 70.301 460.094 70.301C462.127 70.301 463.335 71.3931 463.494 72.9832H462.021C461.931 72.5262 461.679 72.1191 461.312 71.84C460.946 71.5609 460.491 71.4295 460.035 71.4711C458.927 71.4711 458.061 72.0232 458.061 73.1513C458.061 75.8515 463.6 74.1713 463.6 78.0356C463.582 79.5238 462.386 80.9939 460.165 80.9939Z" fill="white"/>
</g>
<defs>
<clipPath id="clip0_157_185175">
<rect width="431" height="72" fill="white" transform="translate(32.582 24.0552)"/>
</clipPath>
</defs>
</svg>
