<svg width="398" height="121" viewBox="0 0 398 121" fill="none" xmlns="http://www.w3.org/2000/svg">
<path d="M58.433 53.6627V48.9644C59.9016 48.0812 60.8866 46.4711 60.8866 44.6266V39.5709H61.7611C62.4298 39.5709 63.0327 39.0812 63.0984 38.4113C63.176 37.6423 62.57 36.9844 61.8208 36.9844H60.8866V34.8035C62.4477 33.662 63.3968 32.163 63.3968 30.5198C63.3968 26.948 58.9255 24.0552 53.4095 24.0552C47.8935 24.0552 43.4222 26.951 43.4222 30.5198C43.4222 32.163 44.3714 33.665 45.9324 34.8035V36.9844H45.0579C44.3893 36.9844 43.7863 37.4741 43.7207 38.144C43.6431 38.913 44.249 39.5709 44.9982 39.5709H45.9324V44.6266C45.9324 46.4711 46.9174 48.0812 48.386 48.9644V53.6627C39.0135 55.9367 32.0469 64.426 32.0469 74.5585C32.0469 74.5585 32.5812 82.1256 36.6704 79.6563C37.3778 79.2297 38.136 78.8663 38.9031 78.5568C42.5685 77.0789 46.4817 76.8356 46.4817 76.8356C46.4817 76.8356 44.6131 74.2491 47.5323 74.0148C50.4515 73.7805 48.9352 72.3686 51.8544 70.8396C54.3259 69.5448 61.6537 69.5989 63.8446 69.647C64.1938 69.653 64.4684 69.9414 64.4684 70.2898C64.4684 70.5992 64.2475 70.8666 63.9431 70.9237C58.5077 71.921 58.433 76.0125 58.433 76.0125H68.3786C68.3249 76.5832 68.2383 77.145 68.1249 77.6947C61.8537 91.2398 52.9081 88.1186 44.6131 86.8299C36.3869 85.5502 38.2106 89.6236 38.2405 89.6897C42.1118 93.6189 47.4786 96.0552 53.4095 96.0552C60.3971 96.0552 66.6026 92.6757 70.5008 87.4547C73.1812 83.8619 74.7721 79.398 74.7721 74.5585C74.7721 64.426 67.8055 55.9367 58.433 53.6627ZM61.9014 67.7815C60.7344 67.43 52.5588 64.3719 45.1982 70.3679C41.4432 73.429 39.4523 73.8826 38.4046 73.5972C38.8971 65.6847 45.425 59.4213 53.4095 59.4213C59.5732 59.4213 64.8654 63.1523 67.1906 68.4934C64.8385 68.3733 62.8954 68.0819 61.9014 67.7815Z" fill="white"/>
<path d="M141.397 67.1365C140.439 69.4706 139.094 71.4011 137.362 72.9282C135.637 74.4552 133.572 75.5866 131.19 76.3304C128.801 77.0741 126.158 77.438 123.254 77.438C120.351 77.438 117.763 77.082 115.35 76.362C112.937 75.642 110.872 74.5185 109.147 72.9994C107.422 71.4723 106.077 69.5339 105.112 67.1761C104.155 64.8183 103.672 62.0253 103.672 58.7972V29.657H115.572V56.8508C115.572 60.3084 116.157 63.0539 117.328 65.0952C118.499 67.1365 120.477 68.1572 123.246 68.1572C124.655 68.1572 125.849 67.8802 126.831 67.3185C127.812 66.7567 128.611 65.9813 129.228 65.0002C129.845 64.0112 130.28 62.8244 130.541 61.4319C130.795 60.0394 130.921 58.5123 130.921 56.8587V29.6649H142.821V58.8763C142.821 62.0649 142.338 64.8262 141.381 67.1523L141.397 67.1365Z" fill="white"/>
<path d="M177.007 76.6231L161.396 44.5159H161.27L161.657 76.6231H150.715V29.6411H165.882L180.986 61.5427H181.113L180.923 29.6411H191.802V76.6231H177.023H177.007Z" fill="white"/>
<path d="M200.883 76.6231V29.6411H212.783V76.6231H200.883Z" fill="white"/>
<path d="M254.052 51.4547C253.245 53.3378 252.066 54.9361 250.531 56.2336C248.996 57.5391 247.137 58.5202 244.961 59.1927C242.785 59.8653 240.333 60.2055 237.603 60.2055H232.935V76.631H221.035V29.649H235.174C242.129 29.649 247.216 30.8912 250.436 33.3835C253.657 35.8758 255.271 39.7686 255.271 45.0617C255.271 47.4433 254.867 49.5717 254.052 51.4547ZM242.762 41.7624C242.358 40.9554 241.812 40.3145 241.132 39.8477C240.451 39.3809 239.652 39.0407 238.734 38.8349C237.817 38.6292 236.844 38.5343 235.823 38.5343H232.943V51.3202H235.886C238.276 51.3202 240.119 50.8138 241.425 49.809C242.722 48.7963 243.379 47.1505 243.379 44.8639C243.379 43.6059 243.173 42.5774 242.77 41.7703L242.762 41.7624Z" fill="white"/>
<path d="M260.453 76.6231V29.6411H291.935V38.5264H272.353V48.2187H290.843V57.104H272.353V67.7378H292.64V76.6231H260.453Z" fill="white"/>
<path d="M332.255 51.4547C331.44 53.3378 330.269 54.9361 328.735 56.2336C327.2 57.5391 325.34 58.5202 323.164 59.1927C320.989 59.8653 318.536 60.2055 315.806 60.2055H311.138V76.631H299.238V29.649H313.377C320.332 29.649 325.419 30.8912 328.64 33.3835C331.86 35.8758 333.474 39.7686 333.474 45.0617C333.474 47.4433 333.07 49.5717 332.255 51.4547ZM320.965 41.7624C320.561 40.9554 320.015 40.3145 319.335 39.8477C318.655 39.3809 317.855 39.0407 316.938 38.8349C316.02 38.6292 315.047 38.5343 314.026 38.5343H311.146V51.3202H314.089C316.479 51.3202 318.322 50.8138 319.628 49.809C320.925 48.7963 321.582 47.1505 321.582 44.8639C321.582 43.6059 321.376 42.5774 320.973 41.7703L320.965 41.7624Z" fill="white"/>
<path d="M109.574 88.9343C109.424 89.2824 109.21 89.5673 108.941 89.7967C108.672 90.0262 108.348 90.1923 107.976 90.3031C107.604 90.4139 107.185 90.4693 106.734 90.4693C106.283 90.4693 105.871 90.4139 105.5 90.311C105.12 90.2082 104.795 90.0341 104.526 89.8126C104.257 89.5831 104.044 89.2983 103.893 88.9501C103.743 88.602 103.672 88.1827 103.672 87.7V83.3642H105.531V87.4073C105.531 87.9216 105.626 88.333 105.808 88.6336C105.99 88.9343 106.299 89.0926 106.734 89.0926C106.955 89.0926 107.137 89.053 107.296 88.966C107.446 88.8789 107.573 88.7682 107.667 88.6178C107.762 88.4675 107.834 88.2934 107.873 88.0877C107.913 87.882 107.936 87.6526 107.936 87.4073V83.3642H109.796V87.7079C109.796 88.1827 109.717 88.5941 109.566 88.9422L109.574 88.9343Z" fill="white"/>
<path d="M115.146 90.3427L112.701 85.5637H112.677L112.74 90.3427H111.031V83.3563H113.405L115.771 88.1035H115.794L115.763 83.3563H117.464V90.3427H115.153H115.146Z" fill="white"/>
<path d="M118.883 90.3427V83.3563H120.742V90.3427H118.883Z" fill="white"/>
<path d="M128.534 88.4042C128.344 88.8473 128.075 89.2112 127.719 89.504C127.363 89.7888 126.927 90.0024 126.413 90.1369C125.899 90.2714 125.321 90.3427 124.68 90.3427H122.141V83.3563H124.704C125.329 83.3563 125.899 83.4117 126.405 83.5224C126.912 83.6332 127.347 83.831 127.703 84.1C128.059 84.369 128.336 84.7251 128.526 85.1681C128.716 85.6112 128.818 86.1572 128.818 86.8139C128.818 87.431 128.723 87.9611 128.534 88.4042ZM126.658 85.7378C126.5 85.4609 126.31 85.2394 126.089 85.089C125.867 84.9387 125.63 84.8437 125.385 84.7963C125.139 84.7488 124.926 84.733 124.744 84.733H124V88.958H124.752C124.981 88.958 125.218 88.9264 125.472 88.871C125.725 88.8156 125.954 88.7128 126.168 88.5545C126.382 88.4042 126.548 88.1906 126.69 87.9136C126.825 87.6367 126.896 87.2886 126.896 86.8534C126.896 86.3866 126.817 86.0148 126.658 85.7299V85.7378Z" fill="white"/>
<path d="M134.942 90.3427L134.419 88.8473H131.792L131.239 90.3427H129.348L131.998 83.3563H134.285L136.975 90.3427H134.934H134.942ZM133.145 84.7963H133.13L132.228 87.526H133.976L133.145 84.7963Z" fill="white"/>
<path d="M144.108 88.4042C143.918 88.8473 143.649 89.2112 143.293 89.504C142.937 89.7888 142.502 90.0024 141.987 90.1369C141.473 90.2714 140.896 90.3427 140.255 90.3427H137.715V83.3563H140.278C140.903 83.3563 141.473 83.4117 141.979 83.5224C142.486 83.6332 142.921 83.831 143.277 84.1C143.633 84.369 143.91 84.7251 144.1 85.1681C144.29 85.6112 144.393 86.1572 144.393 86.8139C144.393 87.431 144.298 87.9611 144.108 88.4042ZM142.233 85.7378C142.074 85.4609 141.885 85.2394 141.663 85.089C141.441 84.9387 141.204 84.8437 140.959 84.7963C140.714 84.7488 140.5 84.733 140.318 84.733H139.574V88.958H140.326C140.555 88.958 140.793 88.9264 141.046 88.871C141.299 88.8156 141.528 88.7128 141.742 88.5545C141.956 88.4042 142.122 88.1906 142.264 87.9136C142.399 87.6367 142.47 87.2886 142.47 86.8534C142.47 86.3866 142.391 86.0148 142.233 85.7299V85.7378Z" fill="white"/>
<path d="M153.635 86.6002C153.509 86.8772 153.327 87.1145 153.081 87.3123C152.844 87.5101 152.551 87.6526 152.211 87.7554C151.871 87.8583 151.483 87.9058 151.056 87.9058H150.328V90.3506H148.469V83.3642H150.684C151.776 83.3642 152.567 83.5462 153.074 83.9181C153.58 84.2899 153.833 84.8675 153.833 85.6587C153.833 86.0148 153.77 86.3312 153.643 86.6082L153.635 86.6002ZM151.871 85.1603C151.808 85.0416 151.721 84.9466 151.618 84.8754C151.507 84.8042 151.388 84.7567 151.246 84.7251C151.103 84.6934 150.953 84.6776 150.787 84.6776H150.336V86.5765H150.795C151.167 86.5765 151.46 86.5053 151.657 86.355C151.863 86.2046 151.966 85.9594 151.966 85.6191C151.966 85.4293 151.934 85.2789 151.871 85.1603Z" fill="white"/>
<path d="M161.21 88.3488C161.06 88.7998 160.838 89.1796 160.538 89.4882C160.237 89.8047 159.873 90.042 159.438 90.2082C159.003 90.3743 158.497 90.4613 157.935 90.4613C157.373 90.4613 156.859 90.3743 156.424 90.2082C155.988 90.042 155.624 89.8047 155.324 89.4882C155.023 89.1717 154.802 88.7919 154.651 88.3488C154.501 87.9058 154.43 87.3994 154.43 86.8455C154.43 86.2917 154.501 85.809 154.643 85.366C154.786 84.9229 155.007 84.5352 155.292 84.2266C155.585 83.9101 155.949 83.6728 156.384 83.4987C156.819 83.3247 157.333 83.2376 157.935 83.2376C158.536 83.2376 159.042 83.3247 159.486 83.4987C159.921 83.6728 160.285 83.918 160.577 84.2266C160.87 84.5431 161.084 84.9229 161.226 85.366C161.369 85.817 161.44 86.3075 161.44 86.8455C161.44 87.3836 161.361 87.8978 161.21 88.3488ZM159.414 85.9594C159.351 85.6824 159.256 85.453 159.122 85.2552C158.995 85.0574 158.829 84.9071 158.631 84.7884C158.433 84.6776 158.196 84.6143 157.927 84.6143C157.658 84.6143 157.42 84.6697 157.223 84.7884C157.025 84.8992 156.859 85.0574 156.732 85.2552C156.606 85.453 156.503 85.6904 156.439 85.9594C156.376 86.2284 156.344 86.529 156.344 86.8534C156.344 87.1304 156.376 87.4073 156.431 87.6763C156.487 87.9453 156.582 88.1827 156.708 88.3884C156.835 88.602 157.001 88.7682 157.199 88.8948C157.397 89.0214 157.642 89.0847 157.927 89.0847C158.212 89.0847 158.457 89.0214 158.655 88.8948C158.853 88.7682 159.019 88.602 159.145 88.3884C159.272 88.1748 159.367 87.9374 159.422 87.6763C159.478 87.4152 159.509 87.1383 159.509 86.8534C159.509 86.537 159.478 86.2363 159.414 85.9594Z" fill="white"/>
<path d="M162.477 90.3427V83.3563H164.336V88.966H167.224V90.3506H162.477V90.3427Z" fill="white"/>
<path d="M168.141 90.3427V83.3563H170V90.3427H168.141Z" fill="white"/>
<path d="M176.157 90.398C175.849 90.4376 175.516 90.4613 175.16 90.4613C174.678 90.4613 174.203 90.398 173.72 90.2714C173.246 90.1449 172.81 89.9391 172.423 89.6543C172.035 89.3695 171.719 89.0055 171.481 88.5466C171.244 88.0956 171.117 87.5418 171.117 86.8851C171.117 86.2758 171.22 85.7457 171.418 85.2868C171.616 84.8279 171.9 84.4481 172.257 84.1396C172.613 83.831 173.032 83.6016 173.515 83.4512C173.997 83.3009 174.527 83.2218 175.105 83.2218C175.39 83.2218 175.69 83.2455 176.015 83.293C176.331 83.3404 176.727 83.4354 177.202 83.5778L177.051 85.089C176.703 84.8991 176.387 84.7646 176.094 84.7013C175.801 84.638 175.516 84.5985 175.239 84.5985C174.907 84.5985 174.606 84.6539 174.329 84.7725C174.06 84.8833 173.831 85.0415 173.641 85.2393C173.451 85.4371 173.301 85.6745 173.198 85.9515C173.095 86.2284 173.04 86.529 173.04 86.8613C173.04 87.2095 173.095 87.518 173.214 87.795C173.333 88.0719 173.491 88.3013 173.697 88.4833C173.902 88.6732 174.148 88.8156 174.432 88.9106C174.717 89.0134 175.026 89.0609 175.366 89.0609C175.627 89.0609 175.896 89.0372 176.173 88.9818C176.45 88.9264 176.759 88.8393 177.107 88.7048L177.194 90.1686C176.798 90.2714 176.45 90.3426 176.141 90.3822L176.157 90.398Z" fill="white"/>
<path d="M178.16 90.3427V83.3563H180.019V90.3427H178.16Z" fill="white"/>
<path d="M186.434 90.3427L185.911 88.8473H183.285L182.731 90.3427H180.84L183.49 83.3563H185.777L188.467 90.3427H186.426H186.434ZM184.638 84.7963H184.622L183.72 87.526H185.468L184.638 84.7963Z" fill="white"/>
<path d="M189.203 90.3427V83.3563H191.062V88.966H193.95V90.3506H189.203V90.3427Z" fill="white"/>
<path d="M202.893 86.6002C202.767 86.8772 202.585 87.1145 202.339 87.3123C202.102 87.5101 201.809 87.6526 201.469 87.7554C201.129 87.8583 200.741 87.9058 200.314 87.9058H199.586V90.3506H197.727V83.3642H199.942C201.034 83.3642 201.825 83.5462 202.331 83.9181C202.838 84.2899 203.091 84.8675 203.091 85.6587C203.091 86.0148 203.028 86.3312 202.901 86.6082L202.893 86.6002ZM201.129 85.1603C201.065 85.0416 200.978 84.9466 200.876 84.8754C200.765 84.8042 200.646 84.7567 200.504 84.7251C200.361 84.6934 200.211 84.6776 200.045 84.6776H199.594V86.5765H200.053C200.425 86.5765 200.717 86.5053 200.915 86.355C201.121 86.2046 201.224 85.9594 201.224 85.6191C201.224 85.4293 201.192 85.2789 201.129 85.1603Z" fill="white"/>
<path d="M208.231 90.3427L207.708 88.8473H205.082L204.528 90.3427H202.637L205.287 83.3563H207.574L210.264 90.3427H208.223H208.231ZM206.435 84.7963H206.419L205.517 87.526H207.265L206.435 84.7963Z" fill="white"/>
<path d="M214.921 90.3427L214.541 89.14C214.446 88.8552 214.359 88.6099 214.28 88.4121C214.201 88.2143 214.114 88.0482 214.011 87.9295C213.916 87.8029 213.805 87.7158 213.679 87.6684C213.552 87.613 213.41 87.5892 213.236 87.5892H212.816V90.3506H210.957V83.3642H214.28C214.581 83.3642 214.866 83.3958 215.143 83.4671C215.419 83.5383 215.657 83.6411 215.863 83.7835C216.068 83.926 216.234 84.1079 216.353 84.3295C216.472 84.551 216.535 84.8121 216.535 85.1207C216.535 85.5796 216.424 85.9594 216.211 86.26C215.997 86.5607 215.657 86.7664 215.19 86.8772V86.9009C215.301 86.9325 215.412 86.988 215.514 87.0671C215.617 87.1462 215.704 87.249 215.768 87.3914C215.839 87.5418 215.91 87.7 215.973 87.8899C216.037 88.0719 216.108 88.2618 216.179 88.4438L216.859 90.3427H214.913H214.921ZM214.565 85.0653C214.494 84.9625 214.399 84.8833 214.288 84.8279C214.169 84.7726 214.035 84.733 213.869 84.7093C213.71 84.6855 213.536 84.6776 213.354 84.6776H212.816V86.26H213.457C213.631 86.26 213.79 86.2521 213.94 86.2284C214.09 86.2046 214.217 86.1651 214.328 86.1018C214.438 86.0385 214.525 85.9594 214.581 85.8565C214.644 85.7537 214.668 85.6192 214.668 85.4609C214.668 85.3027 214.636 85.1682 214.565 85.0732V85.0653Z" fill="white"/>
<path d="M222.691 90.3427L222.169 88.8473H219.542L218.989 90.3427H217.098L219.748 83.3563H222.035L224.725 90.3427H222.684H222.691ZM220.895 84.7963H220.88L219.978 87.526H221.726L220.895 84.7963Z" fill="white"/>
<path d="M228.535 90.3427V83.3563H230.395V88.966H233.282V90.3506H228.535V90.3427Z" fill="white"/>
<path d="M239.121 90.3427L238.599 88.8473H235.972L235.418 90.3427H233.527L236.178 83.3563H238.464L241.155 90.3427H239.113H239.121ZM237.325 84.7963H237.309L236.407 87.526H238.156L237.325 84.7963Z" fill="white"/>
<path d="M244.902 90.3427V83.3563H249.832V84.6776H246.77V86.1176H249.665V87.4389H246.77V89.0214H249.942V90.3427H244.902Z" fill="white"/>
<path d="M257.467 88.4042C257.277 88.8473 257.008 89.2112 256.652 89.504C256.296 89.7888 255.861 90.0024 255.347 90.1369C254.832 90.2714 254.255 90.3427 253.614 90.3427H251.074V83.3563H253.638C254.263 83.3563 254.832 83.4117 255.339 83.5224C255.845 83.6332 256.28 83.831 256.636 84.1C256.992 84.369 257.269 84.7251 257.459 85.1681C257.649 85.6112 257.752 86.1572 257.752 86.8139C257.752 87.431 257.657 87.9611 257.467 88.4042ZM255.592 85.7378C255.434 85.4609 255.244 85.2394 255.022 85.089C254.801 84.9387 254.563 84.8437 254.318 84.7963C254.073 84.7488 253.859 84.733 253.677 84.733H252.934V88.958H253.685C253.915 88.958 254.152 88.9264 254.405 88.871C254.658 88.8156 254.888 88.7128 255.101 88.5545C255.315 88.4042 255.481 88.1906 255.624 87.9136C255.758 87.6367 255.829 87.2886 255.829 86.8534C255.829 86.3866 255.75 86.0148 255.592 85.7299V85.7378Z" fill="white"/>
<path d="M258.957 90.3427V83.3563H260.816V90.3427H258.957Z" fill="white"/>
<path d="M264.016 84.6776V86.2126H266.706V87.5339H264.016V90.3506H262.156V83.3642H266.832V84.6855H264.016V84.6776Z" fill="white"/>
<path d="M267.859 90.3427V83.3563H269.719V90.3427H267.859Z" fill="white"/>
<path d="M275.899 90.398C275.591 90.4376 275.258 90.4613 274.902 90.4613C274.42 90.4613 273.945 90.398 273.462 90.2714C272.988 90.1449 272.553 89.9391 272.165 89.6543C271.777 89.3695 271.461 89.0055 271.223 88.5466C270.986 88.0956 270.859 87.5418 270.859 86.8851C270.859 86.2758 270.962 85.7457 271.16 85.2868C271.358 84.8279 271.643 84.4481 271.999 84.1396C272.355 83.831 272.774 83.6016 273.257 83.4512C273.739 83.3009 274.269 83.2218 274.847 83.2218C275.132 83.2218 275.433 83.2455 275.757 83.293C276.073 83.3404 276.469 83.4354 276.944 83.5778L276.793 85.089C276.445 84.8991 276.129 84.7646 275.836 84.7013C275.543 84.638 275.258 84.5985 274.982 84.5985C274.649 84.5985 274.349 84.6539 274.072 84.7725C273.803 84.8833 273.573 85.0415 273.383 85.2393C273.193 85.4371 273.043 85.6745 272.94 85.9515C272.837 86.2284 272.782 86.529 272.782 86.8613C272.782 87.2095 272.837 87.518 272.956 87.795C273.075 88.0719 273.233 88.3013 273.439 88.4833C273.644 88.6732 273.89 88.8156 274.175 88.9106C274.459 89.0134 274.768 89.0609 275.108 89.0609C275.369 89.0609 275.638 89.0372 275.915 88.9818C276.192 88.9264 276.501 88.8393 276.849 88.7048L276.936 90.1686C276.54 90.2714 276.192 90.3426 275.884 90.3822L275.899 90.398Z" fill="white"/>
<path d="M282.82 90.3427L282.298 88.8473H279.671L279.118 90.3427H277.227L279.877 83.3563H282.164L284.854 90.3427H282.812H282.82ZM281.024 84.7963H281.009L280.107 87.526H281.863L281.032 84.7963H281.024Z" fill="white"/>
<path d="M290.36 90.398C290.052 90.4376 289.719 90.4613 289.363 90.4613C288.881 90.4613 288.406 90.398 287.923 90.2714C287.449 90.1449 287.013 89.9391 286.626 89.6543C286.238 89.3695 285.922 89.0055 285.684 88.5466C285.447 88.0956 285.32 87.5418 285.32 86.8851C285.32 86.2758 285.423 85.7457 285.621 85.2868C285.819 84.8279 286.104 84.4481 286.46 84.1396C286.816 83.831 287.235 83.6016 287.718 83.4512C288.2 83.3009 288.73 83.2218 289.308 83.2218C289.593 83.2218 289.901 83.2455 290.218 83.293C290.534 83.3404 290.93 83.4354 291.405 83.5778L291.254 85.089C290.906 84.8991 290.59 84.7646 290.297 84.7013C290.004 84.638 289.719 84.5985 289.443 84.5985C289.11 84.5985 288.81 84.6539 288.533 84.7725C288.256 84.8912 288.034 85.0415 287.844 85.2393C287.654 85.4371 287.504 85.6745 287.401 85.9515C287.298 86.2284 287.243 86.529 287.243 86.8613C287.243 87.2095 287.298 87.518 287.417 87.795C287.536 88.0719 287.694 88.3013 287.9 88.4833C288.105 88.6732 288.351 88.8156 288.635 88.9106C288.92 89.0134 289.229 89.0609 289.569 89.0609C289.83 89.0609 290.099 89.0372 290.376 88.9818C290.653 88.9264 290.97 88.8393 291.31 88.7048L291.397 90.1686C291.001 90.2714 290.653 90.3426 290.337 90.3822L290.36 90.398Z" fill="white"/>
<path d="M292.359 90.3427V83.3563H294.219V90.3427H292.359Z" fill="white"/>
<path d="M302.14 88.3488C301.99 88.7998 301.768 89.1796 301.468 89.4882C301.167 89.8047 300.803 90.042 300.368 90.2082C299.933 90.3743 299.426 90.4613 298.865 90.4613C298.303 90.4613 297.788 90.3743 297.353 90.2082C296.918 90.042 296.554 89.8047 296.254 89.4882C295.953 89.1717 295.731 88.7919 295.581 88.3488C295.431 87.9058 295.352 87.3994 295.352 86.8455C295.352 86.2917 295.423 85.809 295.565 85.366C295.708 84.9229 295.929 84.5352 296.214 84.2266C296.507 83.9101 296.871 83.6728 297.306 83.4987C297.741 83.3247 298.255 83.2376 298.857 83.2376C299.458 83.2376 299.964 83.3247 300.407 83.4987C300.85 83.6728 301.207 83.918 301.499 84.2266C301.792 84.5352 302.006 84.9229 302.148 85.366C302.29 85.817 302.362 86.3075 302.362 86.8455C302.362 87.3836 302.29 87.8978 302.132 88.3488H302.14ZM300.352 85.9594C300.289 85.6824 300.194 85.453 300.059 85.2552C299.925 85.0574 299.767 84.9071 299.569 84.7884C299.371 84.6776 299.134 84.6143 298.865 84.6143C298.596 84.6143 298.358 84.6697 298.16 84.7884C297.963 84.8992 297.796 85.0574 297.67 85.2552C297.543 85.453 297.44 85.6904 297.377 85.9594C297.314 86.2363 297.282 86.529 297.282 86.8534C297.282 87.1304 297.314 87.4073 297.369 87.6763C297.425 87.9453 297.519 88.1827 297.646 88.3884C297.773 88.602 297.939 88.7682 298.137 88.8948C298.334 89.0214 298.58 89.0847 298.865 89.0847C299.149 89.0847 299.395 89.0214 299.592 88.8948C299.79 88.7682 299.956 88.602 300.083 88.3884C300.21 88.1748 300.305 87.9374 300.36 87.6763C300.415 87.4073 300.447 87.1383 300.447 86.8534C300.447 86.537 300.415 86.2363 300.352 85.9594ZM299.316 82.9844H298.057L298.738 81.5444H300.613L299.323 82.9844H299.316Z" fill="white"/>
<path d="M307.548 90.3427L305.103 85.5637H305.079L305.143 90.3427H303.434V83.3563H305.807L308.173 88.1035H308.197L308.165 83.3563H309.866V90.3427H307.556H307.548Z" fill="white"/>
<path d="M320.651 88.4042C320.461 88.8473 320.192 89.2112 319.836 89.504C319.48 89.7888 319.045 90.0024 318.53 90.1369C318.016 90.2714 317.438 90.3427 316.798 90.3427H314.258V83.3563H316.821C317.446 83.3563 318.016 83.4117 318.522 83.5224C319.029 83.6332 319.464 83.831 319.82 84.1C320.176 84.369 320.453 84.7251 320.643 85.1681C320.841 85.6112 320.936 86.1572 320.936 86.8139C320.936 87.431 320.841 87.9611 320.651 88.4042ZM318.776 85.7378C318.617 85.4609 318.427 85.2394 318.206 85.089C317.984 84.9387 317.747 84.8437 317.502 84.7963C317.256 84.7488 317.043 84.733 316.861 84.733H316.117V88.958H316.869C317.098 88.958 317.336 88.9264 317.589 88.871C317.842 88.8156 318.071 88.7128 318.285 88.5545C318.499 88.4042 318.673 88.1906 318.807 87.9136C318.942 87.6367 319.013 87.2886 319.013 86.8534C319.013 86.3866 318.934 86.0148 318.776 85.7299V85.7378Z" fill="white"/>
<path d="M322 90.3427V83.3563H326.929V84.6776H323.867V86.1176H326.763V87.4389H323.867V89.0214H327.04V90.3427H322Z" fill="white"/>
<path d="M331.234 90.3427V83.3563H333.094V88.966H335.974V90.3506H331.227L331.234 90.3427Z" fill="white"/>
<path d="M341.813 90.3427L341.29 88.8473H338.664L338.11 90.3427H336.219L338.869 83.3563H341.156L343.846 90.3427H341.805H341.813ZM340.017 84.7963H339.993L339.091 87.526H340.839L340.009 84.7963H340.017Z" fill="white"/>
<path d="M352.713 86.6002C352.587 86.8772 352.405 87.1145 352.16 87.3123C351.922 87.5101 351.629 87.6526 351.289 87.7554C350.949 87.8583 350.561 87.9058 350.134 87.9058H349.406V90.3506H347.547V83.3642H349.762C350.854 83.3642 351.645 83.5462 352.152 83.9181C352.658 84.2899 352.911 84.8675 352.911 85.6587C352.911 86.0148 352.848 86.3312 352.721 86.6082L352.713 86.6002ZM350.949 85.1603C350.886 85.0416 350.799 84.9466 350.696 84.8754C350.593 84.8042 350.466 84.7567 350.324 84.7251C350.182 84.6934 350.031 84.6776 349.865 84.6776H349.414V86.5765H349.873C350.245 86.5765 350.538 86.5053 350.735 86.355C350.941 86.2046 351.044 85.9594 351.044 85.6191C351.044 85.4293 351.012 85.2789 350.949 85.1603Z" fill="white"/>
<path d="M358.043 90.3427L357.521 88.8473H354.894L354.34 90.3427H352.449L355.1 83.3563H357.386L360.076 90.3427H358.035H358.043ZM356.247 84.7963H356.223L355.321 87.526H357.07L356.239 84.7963H356.247Z" fill="white"/>
<path d="M360.43 90.3427V88.8631L363.753 84.7409H360.517V83.3563H365.873V84.8358L362.447 88.958H365.889V90.3427H360.422H360.43Z" fill="white"/>
</svg>
