<svg width="488" height="121" viewBox="0 0 488 121" fill="none" xmlns="http://www.w3.org/2000/svg">
<g clip-path="url(#clip0_159_185649)">
<path d="M161.322 27.7134V50.6048C161.322 55.5933 159.992 59.3623 157.387 61.8011C154.782 64.2399 150.791 65.5148 145.526 65.5148C140.26 65.5148 136.158 64.2954 133.498 61.8011C130.837 59.3069 129.562 55.5933 129.562 50.6048V27.7134H137.322V49.3854C137.322 52.4339 137.987 54.7064 139.318 56.2584C140.648 57.8104 142.643 58.5864 145.304 58.5309C147.964 58.5309 150.015 57.7549 151.401 56.203C152.787 54.651 153.452 52.3785 153.452 49.3854V27.7134H161.322Z" fill="white"/>
<path d="M169.469 64.4617V27.7134H177.617L193.912 49.1083C194.522 49.8843 195.021 50.7711 195.464 51.658C196.018 52.7665 196.628 54.0413 197.182 55.5379C197.016 54.4293 196.85 53.3762 196.794 52.3231C196.684 51.27 196.684 49.8843 196.684 48.2769V27.7134H204.222V64.5171H196.517L179.778 42.6787C179.169 41.9028 178.67 41.0159 178.226 40.1291C177.672 39.0205 177.062 37.6903 176.453 36.1937C176.619 37.2469 176.785 38.3 176.841 39.4085C176.896 40.5171 176.951 41.8473 176.951 43.5101V64.5171H169.469" fill="white"/>
<path d="M230.439 58.4755C233.599 58.5864 236.592 57.3115 238.698 54.9836C240.915 52.6002 242.079 49.4409 241.968 46.2261C242.079 42.9559 240.915 39.7965 238.698 37.4131C236.592 35.0852 233.599 33.7549 230.439 33.8658C227.28 33.8104 224.231 35.0852 222.125 37.4131C219.908 39.7965 218.744 42.9559 218.8 46.2261C218.8 49.7734 219.908 52.7111 222.07 55.039C224.231 57.3115 227.28 58.5864 230.439 58.4755ZM250.061 46.1706C250.061 48.7203 249.562 51.27 248.564 53.6533C247.622 55.9813 246.181 58.0875 244.351 59.8612C242.467 61.6348 240.305 63.076 237.867 64.0737C235.483 65.0159 232.989 65.5148 230.439 65.5148C228.167 65.5148 225.95 65.1268 223.843 64.3508C221.682 63.5748 219.686 62.4663 217.913 61.0806C213.368 57.4778 210.707 51.9905 210.763 46.1706C210.763 43.621 211.261 41.0713 212.204 38.688C213.201 36.36 214.642 34.2538 216.472 32.4801C222.125 26.9374 230.55 25.2746 237.922 28.3231C240.305 29.3208 242.467 30.7064 244.351 32.4801C246.181 34.2538 247.622 36.36 248.619 38.688C249.562 41.0713 250.061 43.621 250.061 46.1706Z" fill="white"/>
<path d="M264.582 57.8658H268.96C273.117 57.8658 276.11 56.9235 277.995 55.039C279.88 53.1545 280.822 50.1614 280.822 46.1152C280.822 42.069 279.88 39.076 277.995 37.1914C276.11 35.3069 273.117 34.3646 268.96 34.3646H264.582V57.8658ZM256.711 64.4616V27.7134H266.743C269.903 27.6579 273.007 27.9351 276.11 28.5448C278.272 29.0436 280.323 29.9859 282.152 31.3161C284.369 32.9235 286.087 35.0852 287.196 37.5794C288.36 40.2954 288.97 43.233 288.914 46.1707C288.97 49.1637 288.36 52.1014 287.14 54.8727C285.977 57.367 284.203 59.5286 281.986 61.0806C280.323 62.3 278.383 63.1868 276.388 63.6857C274.337 64.2399 271.344 64.4616 267.353 64.4616H256.711Z" fill="white"/>
<path d="M325.111 37.3023C323.67 35.972 322.007 34.9189 320.233 34.1984C318.515 33.5332 316.686 33.2007 314.857 33.2007C310.922 33.2007 307.818 34.3646 305.49 36.748C303.162 39.1314 301.998 42.2353 301.998 46.1707C301.998 50.106 303.106 53.0991 305.268 55.3716C307.43 57.6441 310.367 58.7526 314.136 58.7526C318.238 58.8081 322.173 57.2561 325.166 54.4847L325.111 62.5771C323.448 63.5748 321.675 64.2954 319.845 64.7942C317.961 65.2931 316.021 65.5148 314.026 65.5148C308.15 65.5148 303.328 63.6857 299.615 60.0275C295.845 56.3693 293.961 51.7688 293.961 46.1707C293.961 40.5725 295.845 35.972 299.615 32.3138C303.384 28.6556 308.261 26.8265 314.192 26.882C316.132 26.882 318.072 27.1037 319.956 27.4917C321.841 27.9351 323.725 28.6002 325.444 29.4316L325.111 37.3023Z" fill="white"/>
<path d="M101.516 41.2376C96.5278 30.8173 85.9966 24.1106 74.4123 24.0552C69.6456 24.1106 64.9897 25.2191 60.7218 27.27C53.35 30.8173 47.253 38.4663 45.2576 46.1152C41.9319 58.9189 46.4215 71.8889 57.4516 79.427C65.3777 85.0806 77.9597 86.1891 86.828 81.8104C94.6987 78.5402 101.461 70.3924 103.512 62.3554C105.507 55.3161 104.786 47.778 101.516 41.2376ZM102.957 51.8242C103.013 52.3231 102.902 52.9328 103.179 53.3762L98.8557 53.487L98.5232 53.5979L98.634 53.4316C98.5232 50.2168 97.6918 47.0021 96.3061 44.1198C96.2506 42.845 95.0313 41.9582 94.477 40.7942C93.5347 40.1291 93.2021 38.9651 92.149 38.3554C91.9273 38.1337 91.8719 37.7457 91.5393 37.6903L92.0382 37.5794C93.0913 36.5817 94.089 35.5286 95.0313 34.3646C99.5209 39.4085 102.403 45.1175 102.957 51.8242ZM90.7079 68.0644C90.3199 67.6764 90.3199 67.0113 89.6548 67.0113C89.4331 66.9559 89.3222 67.1776 89.3222 67.3993L89.2668 67.6764L87.8811 66.457C88.5463 66.1245 88.9897 65.2376 89.4885 64.6279C90.6525 62.8543 91.5393 60.9143 92.149 58.9189C92.3707 59.0852 92.6479 59.0852 92.8142 58.9743C93.0359 58.8081 93.0359 58.5309 92.925 58.3092L92.4262 57.7549C92.5924 56.8681 92.6479 55.9813 92.6479 55.039L92.9804 55.1499C94.3661 55.1499 95.8072 55.2053 97.1375 55.0944L96.9158 55.3161C96.5832 60.748 94.6987 65.6256 90.8742 69.6164C91.1513 69.1175 90.6525 68.6741 90.7079 68.0644ZM87.1606 72.3877C86.3846 71.6672 87.6594 71.0575 87.8811 70.3924C87.7703 69.6718 86.9389 69.2838 86.3846 69.1175C86.1075 68.9513 86.1629 68.5633 86.1629 68.3416C86.44 68.1198 86.7172 67.8427 86.828 67.5101L86.9389 67.7873L88.768 69.7272C88.7125 70.1152 88.8788 70.5032 89.2668 70.7249C89.4885 70.8358 89.7102 70.6141 89.8765 70.7249H89.7657C88.9343 71.5563 88.0474 72.2769 87.1052 72.942L86.8834 73.2191C86.828 72.942 87.4377 72.7757 87.1606 72.3877ZM78.7911 49.1083C78.5694 49.2191 78.2922 49.3854 78.0151 49.2192C77.7934 48.8866 77.4054 48.6649 77.0174 48.554C76.7403 48.6094 76.5185 48.9974 76.186 48.7757C76.7403 48.166 77.6825 48.0552 78.0705 47.2792C78.1814 46.8912 78.2368 46.5032 78.2368 46.0598C78.0705 45.8935 77.8488 45.7272 77.6825 45.8935C77.35 46.3924 76.6848 46.5032 76.3523 47.0021L75.2437 46.6141C75.0774 45.6164 75.2991 44.3415 75.022 43.5101C75.6317 43.6764 76.2414 43.7873 76.8511 43.8981C78.3476 44.3416 79.7888 44.9513 81.119 45.8381C80.7864 46.0044 80.4539 46.2815 80.2322 46.5586C80.2322 46.8358 80.5093 46.7803 80.6202 46.9466L80.8973 46.8358C80.5093 48.0552 78.9573 47.8889 78.7911 49.1083ZM80.0659 61.5794C80.0105 62.1337 79.2345 62.1337 78.9019 62.4663C78.6802 62.3554 78.8465 62.1891 78.9019 62.0228C79.1791 61.7457 79.6225 61.524 80.0659 61.5794ZM88.5463 47.1683C89.0451 47.2792 89.3222 47.8335 89.8211 47.9443C90.2091 48.6649 90.4862 49.4409 90.6525 50.2168C90.2645 50.6603 90.2091 51.6579 89.3222 51.4917C89.1005 50.9928 89.7102 50.7157 89.5994 50.2723C89.7657 50.1614 89.9874 50.106 90.0428 49.8843C90.0428 49.4409 89.4331 49.4963 89.3777 49.0529C89.2114 48.7757 88.8788 48.8312 88.6571 48.7203C88.1028 48.4432 87.5486 49.8843 87.3823 48.7203C87.5486 48.6094 87.6594 48.3877 87.5486 48.166C87.0497 47.8889 86.9943 47.1683 86.44 46.9466C85.7195 46.9466 84.9989 46.6141 84.2784 46.7803C83.8349 46.6695 83.2807 46.3369 82.8927 46.8358C82.8373 47.2238 82.671 47.5009 82.6155 47.8889C82.4493 47.778 82.283 47.6672 82.1721 47.4455C83.5024 45.9489 84.9989 44.5078 86.3846 43.0113L86.44 42.845C87.216 43.6764 87.8811 44.5633 88.4354 45.5055C88.6571 46.1707 87.5486 46.7803 88.5463 47.1683ZM91.1513 55.1499C90.9296 55.9813 90.9296 56.8681 90.7079 57.6995L90.5971 58.1429C90.3199 57.6441 90.1537 56.979 89.544 56.6464C89.0451 56.3693 89.3777 55.7041 88.8788 55.3716L88.4354 54.9282C89.2114 55.2607 90.2645 55.1499 91.1513 55.1499ZM84.8881 42.4016C84.1121 43.2884 83.059 44.1198 82.3938 45.0621L82.283 44.7295C80.343 43.1776 78.0151 42.2353 75.5209 41.9582L75.1329 42.0136L75.1883 37.9674L75.022 37.6349C76.6848 37.8011 78.2922 38.1891 79.8442 38.6325C81.8396 39.3531 83.6687 40.4062 85.2761 41.7919L85.6086 41.9582L84.8881 42.4016ZM81.0082 59.2515L80.9527 59.4732C81.2299 59.7503 81.6733 59.8058 81.7841 60.2492C81.6733 60.4155 82.0058 60.6926 81.6733 60.8034C81.119 60.8589 81.3961 60.0829 80.7864 60.1383C80.6202 59.9166 80.5647 59.6949 80.5647 59.4178C80.731 59.2515 80.8419 59.0852 81.0082 59.2515ZM84.5555 65.5148C84.8326 65.5702 85.1652 65.4593 85.3869 65.2376C85.3315 64.7388 85.9412 64.5171 85.8303 64.0182C86.1075 63.5748 85.8858 63.0205 86.2737 62.6325C86.3292 62.0783 86.2183 61.5794 85.8858 61.136C85.5532 60.9143 85.2761 61.1914 84.9435 61.2469C84.5555 61.524 84.7218 62.3 84.0567 62.1337C83.8904 62.3 83.6132 62.3554 83.3915 62.3L83.2807 62.1337C83.7241 61.912 84.5001 62.0783 84.6109 61.3577C84.9435 61.0806 85.4423 61.1914 85.7749 60.8589C85.9412 60.5263 86.1629 60.1383 86.44 59.8612L86.4955 59.4178C86.6063 59.6395 86.6063 59.9166 86.8834 60.0275C87.1606 60.1383 87.3823 59.8612 87.5486 59.6395L87.7703 59.4732C88.1583 59.7503 88.6571 59.5286 89.1005 59.5286C89.4885 59.4178 89.8765 59.3623 90.3199 59.3069C89.8765 60.9697 89.156 62.5771 88.1028 63.9628C87.7149 64.4062 87.3823 64.9051 86.9943 65.4039C86.8834 65.0713 86.8834 64.5725 86.6063 64.2954L86.3292 64.2399C86.1075 64.7388 85.6086 65.1268 85.664 65.681C85.2761 66.2353 84.3892 65.7919 83.8349 66.069C83.1698 66.2353 82.8373 65.6256 82.3384 65.5148C81.7841 65.2931 81.119 65.2376 80.5647 64.9605L80.731 64.6834C82.0613 64.7388 83.3361 65.0159 84.5555 65.5148ZM77.9597 25.8843C83.9458 26.6048 89.544 29.2653 93.9227 33.4224L93.4239 33.6441C92.5925 34.5309 91.6502 35.2515 91.1513 36.2492C91.0959 35.972 90.6525 35.7503 90.5416 35.4732C90.4308 34.6418 89.6548 33.8658 88.9343 33.4778C88.3246 33.367 88.2137 32.4801 87.4931 32.7573C86.8834 32.2584 86.1629 32.6464 85.5532 32.8681V32.9235C82.671 31.2607 79.4008 30.263 76.0751 30.0413C75.9088 30.0413 75.8534 30.1522 75.6317 30.1522C75.798 30.0413 75.7426 29.6533 75.6871 29.4316C75.6317 29.2099 75.4654 29.2099 75.2437 29.3208L75.0774 29.6533C75.1883 28.2676 75.1883 26.882 75.022 25.4963C75.9643 25.8288 77.0174 25.718 77.9597 25.8843ZM76.7957 31.9258C79.3453 32.2584 81.7841 32.9235 84.1121 34.0321C84.4446 34.5864 85.1098 34.8081 85.2206 35.4732C84.8881 36.36 86.44 36.36 85.7195 37.3023C85.664 37.5794 85.9412 37.7457 86.052 37.9674C86.1629 38.1891 85.9966 38.6325 86.3292 38.7434C86.8834 38.8543 87.1052 38.1337 87.604 38.3554C88.2137 38.8543 88.5463 39.6857 88.4908 40.5171C88.6017 41.0159 88.9897 41.3485 89.4331 41.5148C90.3199 41.2376 89.8765 42.2353 90.4862 42.5125C91.2068 42.6233 91.5393 43.5101 92.3153 43.3993C92.9804 43.8981 93.3684 44.6741 93.9781 45.2284L94.1444 45.5055C94.5324 45.6164 94.6987 45.3392 95.0313 45.3392C96.1398 47.778 96.8049 50.4385 96.9712 53.0991L97.0821 53.3762C95.6409 53.3762 94.1444 53.3762 92.7033 53.487C92.6479 52.6556 92.7033 51.7134 92.2599 51.0482C92.4816 50.5494 92.5925 50.0506 92.537 49.4963C92.4262 49.2746 92.2599 49.4963 92.149 49.4963C91.6502 49.9397 91.5948 50.6048 91.3731 51.1591C90.9851 51.8242 90.8742 52.6002 91.1513 53.3208L91.3176 53.487L89.6548 53.4316C90.0428 53.1545 89.3222 52.7111 89.7102 52.2676L90.4862 52.1014C90.7079 51.5471 91.3176 51.1037 91.3176 50.494C91.7056 50.106 91.8719 49.5517 91.7056 49.0529C91.3176 48.2215 92.3153 47.39 91.5948 46.6141C91.6502 46.3924 91.5393 46.1707 91.3176 46.0598H91.2068C90.9851 46.0044 90.7079 46.0598 90.7079 45.7272C90.8188 45.5055 91.2068 45.2838 91.0959 44.9513C90.9296 44.7295 90.6525 44.9513 90.4308 44.8958C90.3754 44.5633 91.0405 44.1753 90.4862 43.8427C90.0982 43.7873 89.8765 44.2861 89.4331 44.1198C89.2114 44.009 89.156 43.7318 89.2668 43.5101L88.38 42.4016C88.2691 42.2907 88.0474 42.457 87.992 42.2353C88.0474 41.3485 86.9943 40.8496 86.8834 39.9628C86.5509 39.6857 86.828 39.1314 86.3846 38.8543C86.1629 38.688 85.8858 38.4663 85.5532 38.5771C85.1652 38.0228 84.7218 37.4686 84.2229 37.0252L83.8904 37.1914C83.9458 37.6349 84.4446 37.8566 84.4446 38.3L84.2784 38.3554C84.3892 38.7988 84.6109 39.1868 84.9989 39.464C82.6155 37.7457 79.8442 36.5817 76.9065 36.1937C76.3523 36.1937 75.7426 35.9166 75.1883 36.1383C75.3546 34.8081 75.2437 33.367 75.2437 31.9258L75.0774 31.6487C75.5763 31.9813 76.186 31.815 76.7957 31.9258ZM74.3015 49.2192L74.5786 49.33C74.246 49.33 73.9135 49.1637 73.6363 49.3854C73.47 49.4963 73.5809 49.7734 73.6363 49.9397C74.1906 50.1614 74.3015 51.0482 75.022 50.7157C75.2991 50.7711 75.6871 50.8265 75.798 51.1591C76.2414 51.3254 76.2968 52.1014 76.9065 51.9351C76.8511 52.2122 76.7957 52.7111 77.1282 52.9328C77.0174 53.2099 76.7403 53.3208 76.7403 53.6533L76.6294 53.9859C77.1837 54.0413 77.1282 54.651 77.4054 55.039C77.2945 55.4824 77.4608 55.9258 77.7934 56.1476C77.7379 56.6464 77.5162 57.0898 77.2945 57.5332C76.7403 57.8104 75.7426 57.0898 75.5209 58.1429C75.1883 58.4755 75.4654 59.3069 74.8557 59.3069C73.6918 59.4178 72.4724 59.1406 71.5301 58.4201C72.1398 58.0875 73.1929 58.5309 73.4146 57.6441C73.5809 57.5332 73.6363 57.3115 73.5809 57.0898C73.8026 56.8127 74.0243 56.4247 74.1352 56.0921C73.9135 55.8704 74.0243 55.7596 74.0797 55.4824C73.47 54.8727 72.6386 55.2053 71.8627 55.2053C71.4192 55.4824 71.8627 55.9813 71.5301 56.3138C70.9204 56.3693 70.9204 56.979 70.477 57.3115C70.1998 57.2007 70.089 56.9235 70.089 56.6464H70.1444L70.2553 56.9235C70.8095 57.0344 70.6433 56.3693 70.8095 56.0921C70.9758 55.815 71.7518 55.2607 71.0867 54.9836C71.0312 54.8173 71.1975 54.651 70.9758 54.5402C70.7541 54.651 70.4215 54.651 70.3661 54.9282C70.477 55.2053 70.3661 55.4824 70.1444 55.6487H70.0336C70.0336 55.4824 69.9781 55.3161 69.8118 55.2607C69.4793 55.2607 69.1467 55.5379 68.8142 55.427C68.3153 55.5379 67.8165 55.5933 67.3176 55.6487C67.2622 55.3716 67.7056 55.4824 67.8165 55.2053C67.761 54.7619 68.0382 54.4847 68.2599 54.1522H68.7587C68.8696 54.3185 69.0359 54.3739 69.2022 54.3185L69.3684 54.0413C69.8118 54.3185 69.5347 55.5933 70.4215 55.039C70.5324 54.4847 70.4215 53.8196 70.6987 53.3208C70.477 52.8219 71.0312 52.6556 71.1421 52.3231C71.5855 52.3785 71.5855 51.8242 71.7518 51.6025C72.4724 51.3808 73.1929 51.2145 73.6363 50.494C73.47 50.106 73.5809 49.5517 73.2483 49.2746C73.5255 49.1083 74.0243 48.942 74.3015 49.2192ZM73.8026 61.8566C73.858 62.0783 73.6363 62.0228 73.5809 62.1891C73.7472 62.4663 73.5255 62.9097 73.9689 63.0205C74.0243 63.1314 74.0243 63.2977 73.9135 63.4085C73.858 63.4085 73.858 63.464 73.8026 63.464C73.5255 63.4085 73.0821 63.3531 72.9158 63.6857C72.7495 64.0182 72.8603 64.5171 72.7495 64.9605C70.7541 64.6279 68.8696 63.7411 67.3176 62.4663C68.2045 61.4686 69.4793 60.5263 70.089 59.4732C70.1998 59.972 70.7541 60.1937 71.1421 60.4155C71.9735 60.8034 73.0266 61.4131 73.9689 60.8589L73.6363 61.0806C73.9135 61.3577 73.47 61.6349 73.8026 61.8566ZM73.5809 77.0991L73.1375 76.8219C67.5948 76.5448 62.828 74.2168 58.6155 70.6141C59.2807 70.5586 59.5578 71.4455 60.2784 71.2238C61.1098 71.1129 61.7195 70.5032 62.6063 70.6141C63.0497 70.6141 63.5486 70.6141 63.8257 70.2261C63.9366 69.7827 63.4931 69.561 63.3823 69.173C66.1537 71.3346 69.5347 72.6095 73.0821 72.7757L73.47 72.6094V76.6002L73.5809 77.0991ZM57.8396 55.427L57.6179 55.0944C58.0613 55.3716 58.5601 55.427 59.059 55.2053C58.3384 55.4824 58.6155 56.3693 58.3384 56.9235C58.283 57.2007 58.671 57.2561 58.671 57.5332C58.283 57.6995 58.283 58.0875 58.1167 58.3646C58.283 57.367 57.895 56.4247 57.8396 55.427ZM53.2945 60.6372C52.9065 60.6926 53.0174 61.136 52.8511 61.3577C52.8511 60.3046 52.4077 59.2515 52.2968 58.1984L51.9643 55.427L51.798 55.1499C53.1837 55.2607 54.5694 55.3161 55.955 55.2607L56.2876 55.0944C56.1767 55.7596 56.1213 56.7018 56.6202 57.3115C56.4539 57.1452 56.2322 56.591 55.8442 56.591C55.0682 56.6464 55.0128 57.6441 54.2368 57.6995C53.6271 58.2538 53.5162 58.9743 53.4054 59.6949C53.6271 59.972 53.1282 60.3046 53.2945 60.6372ZM56.343 53.7088L55.955 53.5425L51.798 53.5979C52.186 48.9974 53.4608 44.785 56.1213 41.1268L57.7287 39.076V38.7988C58.7264 39.9074 59.7795 41.0159 60.8881 41.9582C58.0613 45.0621 56.3985 49.0529 56.1767 53.2653L56.343 53.7088ZM73.4146 36.1383C72.6386 35.972 71.8627 36.2492 71.0312 36.3046C67.6502 36.9143 64.5463 38.5217 61.9966 40.8496L61.9412 40.5725C60.9435 39.6302 60.0012 38.4663 58.8927 37.7457C59.8349 37.1914 60.7218 36.36 61.664 35.6949C65.156 33.367 69.2022 31.9813 73.4146 31.7596C73.3038 33.2561 73.3038 34.6972 73.4146 36.1383ZM66.7079 58.8081L67.0959 58.9743C67.2622 58.7526 66.7079 58.3646 67.1513 58.2538C67.373 58.5309 67.2622 58.9743 67.4285 59.3069C67.5393 59.4732 67.5948 59.6395 67.5393 59.8612C67.0959 60.3046 66.6525 60.8034 66.2645 61.3577C65.9874 60.6926 65.3777 60.1383 65.1005 59.4178C64.6571 58.6418 64.4354 57.7549 64.0474 56.979C64.4354 57.4224 65.3777 56.9235 65.3777 57.7549L65.5994 57.8104L65.8765 57.7549C65.9874 57.9212 66.3199 57.9767 66.0428 58.1429C66.0428 58.4755 66.3199 58.7526 66.7079 58.8081ZM71.1421 70.5032L71.8627 70.8358C69.2576 70.1707 66.4308 69.2838 64.1583 67.3993C63.7703 67.1776 63.4931 66.6787 63.0497 66.6233C64.1583 65.681 65.156 64.6833 66.0428 63.5194C66.4308 64.2399 67.2622 64.6279 67.9273 65.1268C69.2021 65.7365 70.5324 66.845 72.0289 66.2353C71.4192 66.3462 70.865 66.6787 70.477 67.1222C70.3107 67.5101 70.3661 68.1198 69.8118 68.3416C69.8118 69.173 70.5878 69.9489 71.1421 70.5032ZM61.5532 65.2376L61.3869 64.2954C60.5555 63.5194 60.7772 62.1891 60.6664 61.2469C60.0567 60.748 60.5555 59.972 60.1121 59.4732C60.1121 58.5864 58.7264 58.3092 59.1698 57.367C59.0035 57.1452 58.7818 56.8127 59.0035 56.5355C59.2252 56.2584 59.8904 56.5355 60.0567 56.0921L60.1675 55.2607C60.5001 55.0944 60.9435 55.4824 61.1098 55.039C61.3869 54.3185 60.0012 53.3762 61.2206 52.9882C61.6086 52.9328 62.1629 52.8773 62.3292 53.3762C62.4955 53.9305 62.5509 54.5956 62.3846 55.1499C62.7726 55.3161 62.3846 55.6487 62.3846 55.9258C62.1629 56.0367 61.9412 56.2584 61.664 56.203C61.5532 56.0367 61.3315 55.6487 61.0543 55.7041C60.8326 56.0367 61.1098 56.3693 61.1098 56.7018C61.0543 56.9235 61.1098 57.1452 60.9435 57.3115L60.6109 57.2007C60.3338 57.3115 60.5001 57.5887 60.5555 57.7549C60.8326 57.9212 60.9989 58.1984 61.3315 58.1984L61.4423 58.0321C61.4423 57.5332 61.664 57.1452 61.664 56.7018L62.1075 56.9235C62.5509 58.7526 63.3269 60.5263 64.4354 62.0783L64.9897 62.6325C63.604 63.8519 62.3292 65.1822 61.1098 66.5679V66.6233C61.1098 66.5679 61.0543 66.2907 60.8881 66.4016C60.7772 65.7365 61.7749 65.9028 61.5532 65.2376ZM63.6594 47.4455C63.2714 47.7226 62.8834 48.0552 62.6617 48.4986C62.2737 48.7203 61.8303 48.7203 61.5532 49.1083C61.5532 49.2746 61.7195 49.4963 61.4978 49.6071C61.1652 49.9397 60.4446 49.4963 60.2784 50.1614C60.2229 50.7157 59.5578 51.0482 59.6132 51.6579C59.2252 51.8797 59.3361 52.3785 59.3361 52.7665C59.5578 52.9882 59.2252 53.4316 59.6132 53.5979C59.0035 53.487 58.3384 53.487 57.7287 53.6533C58.0058 52.9882 57.895 52.1568 58.1167 51.4362C58.7264 48.3323 60.1121 45.5055 62.1629 43.1222C63.216 44.2307 64.3246 45.2838 65.4885 46.2261C64.6017 46.2261 64.5463 47.5009 63.6594 47.4455ZM68.0936 59.1406C68.3707 58.8635 68.5925 58.5309 68.7033 58.1429L69.2022 58.4201C68.7587 58.4755 68.4816 58.9189 68.0936 59.1406ZM72.3061 46.8912C72.1952 46.6695 72.4724 46.4478 72.2507 46.3369C71.5855 46.6695 71.8072 47.4455 71.3638 47.8889C71.3084 48.2769 70.8095 48.1106 70.5324 48.2769C70.3661 47.9998 70.0336 47.9443 69.7564 48.166C69.3684 48.166 69.313 47.4455 68.9804 47.778C68.8696 47.8889 68.925 48.166 68.6479 48.0552L68.4262 47.8889C68.4262 47.6672 68.8142 47.7226 68.6479 47.4455C68.3707 46.9466 67.8165 47.0575 67.4285 46.6695H67.0959C68.8696 44.785 71.0867 43.9536 73.5255 43.6764C73.5255 44.7295 73.4146 45.9489 73.7472 46.9466C73.2483 46.5032 72.7495 47.1129 72.3061 46.8912ZM73.47 42.0136C72.6941 41.8473 71.9735 42.1799 71.1975 42.2907C69.5347 42.7896 67.9827 43.5656 66.5971 44.6741L66.3754 45.0067C65.3222 44.0644 64.3246 42.7896 63.1606 42.0136C65.9319 39.5748 69.4793 38.0783 73.1929 37.7457L73.4146 37.5794C73.3038 39.076 73.3038 40.5725 73.47 42.0136ZM57.1744 31.3716C61.8858 27.9351 67.5393 25.9397 73.3592 25.6626L73.2483 26.106L73.3038 29.7088L73.4146 30.0967C67.7056 30.3185 62.2183 32.591 58.0613 36.5263L58.0058 36.748C57.0082 35.584 55.8996 34.5309 54.6802 33.5332H54.5694C55.4562 32.979 56.2876 32.0367 57.1744 31.3716ZM45.9781 50.882C46.7541 44.7295 49.47 39.0205 53.6825 34.4755L53.7934 34.8635C54.7911 35.8612 55.8442 36.9697 56.8419 37.8566C56.0105 38.4108 55.5116 39.4085 54.8465 40.1291C52.1306 43.8981 50.5786 48.3877 50.3569 52.9882L50.4677 53.5979C48.9158 53.487 47.3638 53.487 45.8118 53.5979C45.9227 52.7111 45.8118 51.7688 45.9781 50.882ZM53.4608 74.0506C52.0751 72.2215 50.5232 70.3924 49.47 68.397C47.253 64.3508 45.9781 59.8058 45.8118 55.2053L49.9689 55.2607L50.3569 55.0944C50.3015 55.3716 50.3015 55.6487 50.3015 55.9258L50.3569 56.1476C50.4677 57.6995 50.6894 59.1961 51.0774 60.6926L51.2991 61.0252C51.022 60.748 50.8003 60.4155 50.634 60.0829C50.3015 60.1383 49.9689 60.2492 49.6363 60.4709C49.8026 60.9143 49.3592 60.748 49.1929 60.9143L48.9158 60.6372C48.5832 60.6372 48.2506 60.6926 48.1398 61.0252C48.1952 61.2469 47.9181 61.3577 47.8627 61.524C47.7518 62.1891 47.5301 63.076 48.0289 63.6302C48.0289 64.1291 48.2506 64.5725 48.6386 64.9051L48.9712 64.7942C49.3592 65.0713 49.5809 65.8473 50.1906 65.681C50.3569 65.5702 50.3015 65.4039 50.3569 65.2931C50.6894 65.6256 50.8003 66.2353 51.41 66.1799C51.5209 66.3462 51.6317 66.6233 51.8534 66.6233C52.4631 66.457 52.2414 67.3439 52.7403 67.621C53.1282 67.8427 53.2945 68.397 53.8488 68.1198L54.0151 67.8981L54.1814 68.4524C54.4585 68.9512 54.9019 69.2838 55.4562 69.3947C55.8442 69.9489 56.343 70.3924 56.8419 70.8358L56.4539 70.9466L53.4608 74.0506ZM70.6433 82.6972C64.6017 81.8658 59.2807 79.2607 54.6248 75.2145L57.7287 72.1106L57.7841 71.9443C62.052 76.0459 67.2622 78.1522 73.1375 78.5402L73.5809 78.3739L73.4146 78.5956V82.6418L73.6363 83.0298C72.6941 82.7526 71.6409 82.8635 70.6433 82.6972ZM74.3015 65.681C74.0243 65.7365 73.6918 65.681 73.4146 65.5702L73.3038 65.2931C73.7472 65.2931 73.9689 64.7942 74.4123 64.8496C74.6894 64.6279 74.7449 64.1845 75.0774 64.0737C74.9666 63.6857 75.4654 63.9628 75.5209 63.7411C75.6317 63.6302 75.8534 63.464 76.0197 63.5748C76.2968 64.0182 76.962 63.8519 77.2391 64.2954L77.4054 64.0737V63.9628C77.9042 63.9074 78.1259 64.6279 78.6248 64.1291V63.6857L78.5694 63.5748C78.9019 63.4085 79.1236 64.0737 79.567 63.8519C80.0105 63.6302 80.1768 63.1868 80.6202 63.1868L80.731 63.2977C80.7864 64.1845 80.0659 64.7388 79.3453 65.1268C78.9019 65.2931 78.1259 65.2376 78.1259 65.9582C77.6271 66.4016 77.1837 65.681 76.574 65.8473C76.2968 65.681 76.574 65.293 76.186 65.1822C75.5209 65.5148 74.7449 64.9605 74.3015 65.681ZM75.41 73.2746C75.9643 73.4963 76.9065 73.0529 77.1837 73.6626C77.0174 73.9951 76.7403 74.3277 76.8511 74.7157C77.0728 75.27 77.4054 75.9905 78.1259 76.0459C78.2922 76.2677 78.5139 76.3785 78.7911 76.4339C77.5717 76.6556 76.2968 76.6002 75.1883 76.9328C75.2437 75.7134 75.2437 74.4385 75.1883 73.2191L74.9666 72.8866C75.1329 72.9974 75.2437 73.1637 75.41 73.2746ZM75.4654 82.9189L75.1883 83.0852C75.2991 81.5332 75.2991 79.9258 75.1883 78.3739C75.9088 78.651 76.7403 78.3739 77.5162 78.3739L79.7888 77.9859C80.9527 78.2076 81.7287 80.0921 83.0035 78.9282C83.447 78.4293 84.2229 78.4293 84.5001 77.7088C85.2206 77.4316 85.4423 76.7111 85.9412 76.2122C86.44 74.7711 88.0474 74.6048 88.9897 73.6071C89.7102 72.9974 90.6525 72.4432 91.0405 71.6118L91.1513 71.9443L94.3107 74.9928C88.9343 79.8704 82.671 82.5864 75.4654 82.9189ZM103.013 55.3716C102.736 62.1891 100.075 68.6741 95.5301 73.718L95.4192 73.9397C94.4216 72.7757 93.313 71.6672 92.0936 70.6695C92.7587 70.1152 93.3684 69.4501 93.8673 68.7295C96.7495 64.8496 98.4123 60.1937 98.634 55.3716L98.4677 54.9836L98.6894 55.1499L102.957 55.0944L103.179 54.9836L103.013 55.3716Z" fill="white"/>
<path d="M89.3769 33.1452C89.5986 32.8681 89.2106 32.591 89.3215 32.2584C89.2106 31.9813 88.9335 31.7596 88.6564 31.7041C88.3238 32.0367 88.1021 31.427 87.7695 31.7596L87.8804 32.203C88.4901 32.4247 88.5455 33.367 89.3769 33.1452Z" fill="white"/>
<path d="M76.3526 28.8773C76.1863 28.8219 75.7984 28.7111 75.6875 28.9328V29.2099C76.4635 30.2076 77.8492 29.6533 78.8469 29.487C79.5674 29.7088 80.288 29.487 80.7868 28.9882V28.8219C80.288 28.1014 79.3457 27.9905 78.4589 27.9351L76.3526 28.8773Z" fill="white"/>
<path d="M106.449 36.9143C105.784 34.2538 104.842 31.7041 102.625 29.7642C100.74 28.1014 98.357 27.5471 96.1953 26.6048L98.6895 29.1545C100.851 32.5355 103.567 35.4732 106.837 37.8011L106.449 36.9143Z" fill="white"/>
<path d="M52.0727 26.9928C49.0796 28.1568 45.6985 29.3208 43.8694 32.4801C42.5946 34.1984 42.5392 36.4155 41.6523 38.3C43.3152 36.748 45.1997 35.5286 46.6962 33.6995C48.3036 31.3716 49.8556 28.9328 52.0727 26.9928Z" fill="white"/>
<path d="M110.383 37.0252C109.773 34.1984 107.224 31.1499 104.342 30.5956C105.506 31.427 106.392 32.591 106.891 33.9212C107.778 36.8589 108.221 39.9074 109.496 42.6787L109.441 42.7342C108.942 41.9582 108.72 41.0159 107.944 40.3508C105.727 37.4686 101.847 36.6926 100.406 33.2007C100.794 35.2515 101.404 37.2469 102.845 38.8543C105.339 41.5702 108.997 43.1776 110.716 46.5586V46.5032C110.051 43.233 111.104 40.1291 110.383 37.0252Z" fill="white"/>
<path d="M41.7107 39.6302C40.6576 40.6279 39.7707 41.8473 39.2165 43.233L39.161 43.1776C39.4382 42.0136 39.937 40.9605 40.2696 39.8519C41.2118 36.8034 40.9901 33.1452 43.9832 31.0944C42.4312 31.5379 40.9901 32.4801 39.9924 33.7549C37.5536 36.36 37.7753 40.3508 38.1079 43.8427C38.1633 44.8958 37.9416 45.9489 38.0525 46.9466C38.8839 45.3947 40.0479 44.0644 41.3781 42.9559C44.5929 40.6834 47.9185 37.524 47.974 33.5332C46.9208 36.4709 43.7615 37.6903 41.7107 39.6302Z" fill="white"/>
<path d="M112.269 37.6903C114.929 41.2931 115.539 47.0575 113.599 51.1591C112.879 52.9328 112.38 54.8173 112.047 56.7018C111.936 56.3693 111.881 55.9258 111.77 55.5379C110.717 51.4917 106.892 48.6095 105.285 44.785C104.786 43.5101 104.398 42.2353 104.121 40.9051C105.784 44.009 109.941 45.6164 111.105 49.0529C111.548 49.9397 111.548 50.9928 111.825 51.9351L111.936 51.8242C111.493 48.2769 111.548 44.6741 112.047 41.1268C111.992 39.2422 111.825 37.4131 110.772 35.9166C111.493 36.3046 111.825 37.0806 112.269 37.6903Z" fill="white"/>
<path d="M37.607 36.5817C35.3345 40.0182 37.219 44.397 37.1081 48.3323L36.7756 52.3785L36.9419 52.4894C37.0527 52.0459 37.1081 51.5471 37.219 51.1037C37.7733 47.8335 40.6001 45.561 43.0389 43.2884C43.5931 42.7342 43.9811 42.1245 44.3137 41.4039C44.092 43.0667 43.6486 44.6741 42.928 46.1707C40.988 49.9397 37.4407 52.9882 36.7756 57.3115C36.4984 53.1545 33.6716 50.106 33.9488 45.7272C33.8934 42.1799 35.3345 39.2977 37.4407 36.6372L37.607 36.5817Z" fill="white"/>
<path d="M114.761 61.0806C113.154 63.2977 111.269 65.4039 109.828 67.6764C109.995 65.9028 110.216 63.6302 109.496 61.9674C108.276 58.2538 107.223 54.5402 106.891 50.494L106.946 48.942C107.833 53.0991 111.935 55.9258 111.657 60.5263C111.657 61.5794 111.491 62.5771 111.214 63.5748L111.269 63.6302L111.436 63.4085C112.045 61.136 112.322 58.7526 113.265 56.6464C114.595 53.5979 116.258 50.494 115.537 46.8358C117.588 51.2145 116.978 57.0344 114.761 61.0806Z" fill="white"/>
<path d="M36.4441 59.6395C36.8875 61.136 36.9983 62.7988 37.608 64.2399L37.7743 64.1845C36.2224 59.8612 38.4395 55.8704 40.6565 52.4339C41.1554 51.4917 41.5434 50.494 41.7651 49.4409C41.9868 51.3808 41.488 53.6533 41.2108 55.7041C40.6565 58.3092 39.8806 60.748 39.16 63.2422C38.772 64.8496 38.7166 66.5679 39.0492 68.2307L38.8274 68.0644C37.1646 65.0159 33.9498 62.688 32.9522 59.3623C32.1762 56.7018 31.6773 53.6533 32.2316 50.8265C32.3979 49.718 32.7304 48.6094 33.1739 47.5563C32.2316 52.2122 35.391 55.5933 36.4441 59.6395Z" fill="white"/>
<path d="M108.556 68.1753C108.445 70.1152 107.835 71.9998 106.727 73.6071H106.893C108.334 71.7226 109.442 69.6718 111.161 67.8981C113.766 65.4039 116.426 62.7988 116.759 59.3069C117.646 65.1822 114.375 70.2815 109.498 73.6071C107.502 74.9374 105.452 76.1568 103.512 77.6533V77.487C106.449 72.6094 105.008 65.8473 106.837 60.4709L107.502 58.6972C107.225 61.9674 108.722 64.8496 108.556 68.1753Z" fill="white"/>
<path d="M44.0381 74.8265C44.4261 75.8797 44.9249 76.9882 45.4238 77.9859C40.9342 74.9374 34.8372 72.0552 32.8418 66.457C32.0104 64.5725 31.8995 62.1337 32.0658 59.9166C32.4538 64.9051 37.7748 67.5101 40.2691 71.6672C40.8233 72.554 41.433 73.3854 42.1536 74.1614C42.0427 73.6071 41.5439 73.1637 41.3776 72.6649C40.4908 70.8358 40.1582 68.785 40.3799 66.7896C40.6016 64.2399 41.7102 61.912 41.2667 59.1961C43.4838 63.8519 42.8187 69.7272 44.0381 74.8265Z" fill="white"/>
<path d="M110.826 74.882C107.334 77.487 103.121 78.3739 99.9066 81.6441C99.5741 81.8658 99.1861 82.1984 98.7981 82.1984C100.017 81.1452 101.071 79.9258 101.847 78.5402C103.842 75.1591 103.066 70.6695 104.784 67.1776C103.842 68.3416 102.9 69.561 102.068 70.8358C99.2415 75.1591 99.4632 80.8127 95.1953 84.4155C97.6895 83.584 100.461 83.3069 103.066 82.6418C108.054 81.0344 113.375 76.0459 114.041 70.7249C113.375 72.3877 112.267 73.8288 110.826 74.882Z" fill="white"/>
<path d="M48.1946 74.0506C47.0861 71.778 45.7004 69.6164 43.9822 67.7319C45.8113 71.3901 44.9799 76.2122 47.4187 79.5933C48.1946 80.7018 49.1369 81.6995 50.19 82.5864L50.1346 82.6418C49.2478 82.1984 48.4164 81.6441 47.6958 80.979C43.5388 77.487 37.2755 77.0436 34.7812 71.3901C35.4464 75.5471 38.6612 79.3161 42.2639 81.5332C45.5896 83.8612 49.9683 83.5286 53.7374 84.748C50.3009 81.9212 49.7466 77.7088 48.1946 74.0506Z" fill="white"/>
<path d="M93.6992 85.5794C92.369 85.7457 91.1496 86.1891 89.7639 86.1891C90.7062 85.7457 91.8701 85.6349 92.757 85.0252C96.4706 83.1961 96.6923 79.0944 98.9648 76.2122C95.9163 78.263 93.533 80.979 90.7616 83.584C88.9325 85.2469 86.66 85.9674 84.332 86.4663V86.5217L85.2743 86.6325C90.1519 87.4085 95.2512 89.7365 100.295 87.8519C103.233 86.7988 106.448 84.36 107.778 81.4224C104.341 85.6349 98.6323 84.8589 93.6992 85.5794Z" fill="white"/>
<path d="M50.0239 76.6556C52.2964 79.7041 52.9061 84.1937 57.0631 85.6903C57.7837 86.0783 58.6151 86.0228 59.2802 86.4108C58.4488 86.5217 57.7837 86.2446 57.0631 86.1337C51.7421 84.9697 45.2017 86.4663 41.2109 81.9212C42.8738 84.9143 45.5897 87.1868 48.8599 88.2399C53.5158 89.7919 58.3934 88.0737 62.7721 86.9651C63.4373 86.7988 64.1578 86.8543 64.7675 86.6325C62.3287 86.1337 60.0008 85.3577 58.1162 83.6949C55.3449 81.1452 52.9061 78.5402 50.0239 76.6556Z" fill="white"/>
<path d="M90.6526 89.8473C93.9228 91.0667 98.0798 90.7342 100.907 88.7388C99.4655 90.457 97.6364 91.7873 95.5302 92.5078C91.0406 94.1707 86.3293 92.4524 82.7819 89.7365C81.3408 88.8496 80.1214 87.5194 78.2369 87.6302C77.6272 87.5748 76.9621 87.6302 76.3524 87.7965C79.8997 89.4593 83.1145 91.6764 85.8858 94.3924C85.3316 94.9466 84.7773 95.5009 84.1676 95.9443C81.3408 92.8958 78.2369 90.0136 74.8004 88.3508C74.1353 88.5171 73.4701 88.7942 72.8604 89.1822C69.8674 91.0113 67.2623 93.3392 65.1006 96.0552L63.327 94.5586C66.0983 91.7319 69.3131 89.4593 72.8604 87.7411C69.424 86.6325 67.2069 89.5148 64.6018 90.9559C61.5533 93.0621 57.23 94.0598 53.5163 92.6187C51.4655 91.8981 49.6364 90.6233 48.1953 88.9605C51.0775 90.9559 55.4009 91.1776 58.6711 89.8473C63.1052 87.9628 67.6503 85.524 72.9713 86.688C73.8027 86.688 74.6341 87.5194 75.4101 86.7988C79.4009 85.8566 83.5579 86.3554 87.2161 88.2954L90.6526 89.8473Z" fill="white"/>
<path d="M132.553 77.3208V84.9143C132.553 87.7411 133.828 88.9605 135.491 88.9605C137.376 88.9605 138.54 87.6857 138.54 84.9143V77.3208H140.202V84.8034C140.202 88.7388 138.152 90.3462 135.436 90.3462C132.72 90.3462 130.891 88.8496 130.891 84.9143V77.3208H132.553Z" fill="white"/>
<path d="M142.973 83.3623C142.973 82.4201 142.973 81.6441 142.918 80.8681H144.359L144.47 82.3646H144.525C145.135 81.3115 146.299 80.6464 147.518 80.6464C148.738 80.6464 150.733 81.4224 150.733 84.5263V90.0136H149.07V84.6926C149.07 83.1961 148.516 81.9767 146.964 81.9767C145.911 82.0321 145.024 82.6972 144.747 83.6949C144.692 83.972 144.636 84.1937 144.636 84.4709V90.0136H142.973V83.3623Z" fill="white"/>
<path d="M155.057 80.9235H153.395V90.1245H155.057V80.9235Z" fill="white"/>
<path d="M154.17 79.2053C153.561 79.2053 153.117 78.7064 153.117 78.0967C153.117 77.487 153.616 77.0436 154.226 77.0436C154.78 77.0436 155.279 77.487 155.279 78.0413V78.0967C155.334 78.651 154.891 79.1499 154.337 79.2053C154.281 79.2607 154.226 79.2607 154.17 79.2053Z" fill="white"/>
<path d="M159.771 78.7064V80.9235H162.155V82.1984H159.771V87.1314C159.771 88.2399 160.104 88.9051 160.991 88.9051C161.323 88.9051 161.656 88.9051 161.933 88.7942L161.988 90.069C161.489 90.2353 161.046 90.2907 160.547 90.2907C159.882 90.3462 159.217 90.069 158.773 89.5702C158.275 88.8496 158.053 88.0182 158.108 87.1314V82.1429H156.723V80.8681H158.108V79.2053L159.716 78.7064" fill="white"/>
<path d="M171.189 85.0252C171.189 83.3623 170.413 80.7018 167.475 80.7018C164.814 80.7018 163.207 82.8635 163.207 85.6903C163.207 88.5171 164.87 90.2907 167.641 90.2907C168.694 90.2907 169.747 90.1245 170.69 89.681L170.413 88.5171C169.637 88.8496 168.75 89.0159 167.918 88.9605C166.256 88.9605 164.87 88.0182 164.814 85.7457H171.133C171.189 85.5794 171.189 85.3023 171.189 85.0252ZM164.814 84.5817C164.925 83.4178 165.646 81.8658 167.364 81.8658C169.193 81.8658 169.637 83.5286 169.637 84.5817H164.814Z" fill="white"/>
<path d="M181.052 87.6857V76.6002H179.389V82.0875H179.334C178.724 81.1452 177.671 80.6464 176.618 80.7018C174.401 80.7018 172.516 82.5864 172.572 85.6349C172.572 88.4062 174.29 90.2907 176.451 90.2907C177.726 90.3462 178.946 89.6256 179.5 88.5171H179.555L179.611 90.1245H181.107C181.107 89.4593 181.052 88.5171 181.052 87.6857ZM179.389 86.2446C179.389 86.4663 179.389 86.7434 179.334 86.9651C179.112 88.1291 178.114 88.9605 176.895 88.9605C175.121 88.9605 174.234 87.4085 174.234 85.524C174.234 83.5286 175.232 81.9767 176.95 81.9767C178.114 81.9767 179.057 82.7526 179.334 83.8612C179.389 84.0829 179.389 84.36 179.389 84.5817V86.2446Z" fill="white"/>
<path d="M187.816 90.069V77.3208H189.59L193.636 83.8058C194.468 85.136 195.244 86.5217 195.909 87.9628H195.964C195.798 86.2446 195.798 84.6926 195.798 82.7526V77.3762H197.35V90.1799H195.687L191.641 83.6949C190.754 82.3092 189.978 80.9235 189.313 79.427H189.258C189.368 81.0344 189.368 82.5864 189.368 84.6926V90.1799L187.816 90.069Z" fill="white"/>
<path d="M204.831 85.4131C203.057 85.3577 201.007 85.6903 201.007 87.464C200.951 88.2399 201.505 88.9605 202.337 89.0713H202.559C203.556 89.0713 204.443 88.4616 204.776 87.5194L204.831 86.9651V85.4131ZM206.438 87.8519C206.438 88.5725 206.494 89.3485 206.549 90.069H205.108L204.942 88.9051H204.886C204.221 89.7919 203.224 90.2907 202.115 90.2907C200.674 90.4016 199.455 89.2931 199.344 87.9074V87.6857C199.344 85.4686 201.284 84.2492 204.776 84.2492V84.0829C204.776 83.3069 204.554 81.9212 202.725 81.9767C201.893 81.9767 201.062 82.1984 200.341 82.6418L199.953 81.5332C200.84 80.979 201.893 80.7018 202.947 80.7573C205.718 80.7573 206.383 82.6972 206.383 84.5263L206.438 87.8519Z" fill="white"/>
<path d="M211.04 78.7064V80.9235H213.423V82.1984H211.04V87.1314C211.04 88.2399 211.373 88.9051 212.259 88.9051C212.592 88.9051 212.924 88.9051 213.202 88.7942L213.257 90.069C212.814 90.2353 212.315 90.2907 211.816 90.2907C211.151 90.3462 210.486 90.069 210.042 89.5702C209.599 89.0713 209.433 88.2399 209.433 87.1314V82.1429H208.047V80.8681H209.433V79.2053L211.04 78.7064Z" fill="white"/>
<path d="M215.254 80.9235H216.917V90.1245H215.254V80.9235ZM216.03 79.2607C215.42 79.2607 214.977 78.7619 214.977 78.1522C214.977 77.5425 215.475 77.0991 216.085 77.0991C216.639 77.0991 217.138 77.5425 217.138 78.0967V78.1522C217.194 78.7064 216.75 79.2053 216.196 79.2607H216.03Z" fill="white"/>
<path d="M223.344 89.0159C224.952 89.0159 226.116 87.5194 226.116 85.4131C226.116 83.8612 225.34 81.9212 223.4 81.9212C221.46 81.9212 220.628 83.7503 220.628 85.4686C220.628 87.5194 221.737 89.0159 223.344 89.0159ZM223.289 90.2907C220.85 90.2907 218.91 88.4616 218.91 85.5794C218.91 82.4755 220.906 80.7018 223.4 80.7018C225.894 80.7018 227.779 82.6418 227.779 85.4131C227.834 88.7942 225.506 90.2907 223.289 90.2907Z" fill="white"/>
<path d="M229.884 83.3623C229.884 82.4201 229.884 81.6441 229.828 80.8681H231.269L231.38 82.3646H231.436C232.045 81.3115 233.209 80.6464 234.429 80.6464C235.648 80.6464 237.643 81.4224 237.643 84.5263V90.0136H235.981V84.6926C235.981 83.1961 235.426 81.9767 233.874 81.9767C232.821 82.0321 231.934 82.6972 231.657 83.6949C231.602 83.972 231.546 84.1937 231.546 84.4709V90.0136H229.884V83.3623Z" fill="white"/>
<path d="M240.083 88.4062C240.748 88.7942 241.524 89.0159 242.3 89.0713C243.464 89.0713 244.019 88.4616 244.019 87.6857C244.019 86.9097 243.52 86.4663 242.356 86.0228C240.693 85.4131 239.917 84.5263 239.917 83.4178C239.917 81.9212 241.136 80.7018 243.021 80.7018C243.797 80.7018 244.573 80.8681 245.238 81.2561L244.85 82.4755C244.296 82.1429 243.631 81.9212 243.021 81.9212C242.023 81.9212 241.524 82.4755 241.524 83.1406C241.524 83.9166 242.079 84.2492 243.243 84.6926C244.795 85.3023 245.626 86.0783 245.626 87.464C245.626 89.1268 244.351 90.2353 242.245 90.2353C241.358 90.2353 240.471 90.0136 239.695 89.5702L240.083 88.4062Z" fill="white"/>
<path d="M256.768 88.9605C259.373 88.9605 260.815 86.5771 260.815 83.6395C260.815 81.0898 259.484 78.4293 256.768 78.4293C254.052 78.4293 252.722 80.979 252.722 83.7503C252.722 86.5217 254.163 88.9605 256.768 88.9605ZM256.657 90.2907C253.332 90.2907 251.004 87.6857 251.004 83.8058C251.004 79.9258 253.498 77.0991 256.824 77.0991C260.316 77.0991 262.533 79.7596 262.533 83.584C262.533 87.9074 259.872 90.2907 256.657 90.2907Z" fill="white"/>
<path d="M265.083 90.069V82.1429H263.809V80.8681H265.083V80.4247C265.083 79.1499 265.361 77.9305 266.137 77.2099C266.746 76.6556 267.522 76.3231 268.354 76.3785C268.852 76.3785 269.296 76.4894 269.739 76.6556L269.518 77.9305C269.185 77.7642 268.797 77.7088 268.464 77.7088C267.079 77.7088 266.691 78.9282 266.691 80.3693V80.8681H268.908V82.1429H266.746V90.069H265.083Z" fill="white"/>
<path d="M270.513 90.069V82.1429H269.238V80.8681H270.513V80.4247C270.513 79.1499 270.79 77.9305 271.566 77.2099C272.176 76.6556 272.952 76.3231 273.783 76.3785C274.282 76.3785 274.726 76.4894 275.169 76.6556L274.947 77.9305C274.615 77.7642 274.227 77.7088 273.894 77.7088C272.509 77.7088 272.121 78.9282 272.121 80.3693V80.8681H274.338V82.1429H272.121V90.069H270.513Z" fill="white"/>
<path d="M275.835 80.9235H277.498V90.1245H275.835V80.9235ZM276.666 79.2607C276.057 79.2607 275.613 78.7619 275.613 78.1522C275.613 77.5425 276.112 77.0991 276.722 77.0991C277.276 77.0991 277.775 77.5425 277.775 78.0967V78.1522C277.83 78.7064 277.387 79.2053 276.833 79.2607H276.666Z" fill="white"/>
<path d="M286.696 89.7919C285.865 90.1799 284.978 90.3462 284.091 90.3462C281.375 90.3462 279.602 88.4616 279.602 85.6349C279.602 82.8081 281.486 80.7573 284.479 80.7573C285.255 80.7573 286.031 80.9235 286.752 81.2561L286.364 82.5309C285.754 82.2538 285.089 82.0875 284.424 82.0875C282.318 82.0875 281.209 83.6395 281.209 85.5794C281.209 87.6857 282.539 89.0159 284.368 89.0159C285.089 89.0159 285.754 88.8496 286.364 88.5725L286.696 89.7919Z" fill="white"/>
<path d="M294.293 84.5817C294.293 83.5286 293.849 81.8658 292.02 81.8658C290.358 81.8658 289.637 83.4178 289.471 84.5817H294.293ZM289.471 85.8011C289.526 88.0737 290.912 89.0159 292.575 89.0159C293.461 89.0159 294.293 88.9051 295.069 88.5725L295.346 89.7365C294.404 90.1245 293.351 90.3462 292.297 90.3462C289.526 90.3462 287.863 88.4616 287.863 85.7457C287.863 83.0298 289.526 80.7573 292.131 80.7573C295.124 80.7573 295.845 83.4178 295.845 85.0806C295.845 85.3577 295.845 85.6349 295.789 85.8566H289.471V85.8011Z" fill="white"/>
<path d="M305.601 89.0159C307.153 89.0159 308.372 87.5194 308.372 85.4131C308.372 83.8612 307.596 81.9212 305.656 81.9212C303.716 81.9212 302.885 83.7503 302.885 85.4686C302.94 87.5194 304.049 89.0159 305.601 89.0159ZM305.601 90.2907C303.162 90.2907 301.277 88.4616 301.277 85.5794C301.277 82.4755 303.273 80.7018 305.767 80.7018C308.261 80.7018 310.146 82.6418 310.146 85.4131C310.09 88.7942 307.762 90.2907 305.601 90.2907Z" fill="white"/>
<path d="M312.137 83.3623C312.137 82.4201 312.137 81.6441 312.082 80.8681H313.523L313.634 82.3646H313.689C314.299 81.2561 315.463 80.6464 316.682 80.6464C317.902 80.6464 319.897 81.4224 319.897 84.5263V90.0136H318.234V84.6926C318.234 83.1961 317.68 81.9767 316.128 81.9767C315.075 82.0321 314.188 82.6972 313.911 83.6949C313.856 83.972 313.8 84.1937 313.8 84.4709V90.0136H312.137V83.3623Z" fill="white"/>
<path d="M328.214 88.7942C328.769 88.8496 329.323 88.9051 329.877 88.8496C333.369 88.8496 335.254 86.8543 335.254 83.4178C335.254 80.3693 333.591 78.4847 330.154 78.4847C329.489 78.4847 328.879 78.5402 328.214 78.651V88.7942ZM326.552 77.4871C327.715 77.3208 328.879 77.2099 330.043 77.2099C332.371 77.2099 334.034 77.7642 335.143 78.7619C336.251 79.7596 336.916 81.3115 336.916 83.3623C337.027 85.1914 336.362 87.0205 335.087 88.3508C333.868 89.5702 331.928 90.1799 329.489 90.1799C328.491 90.1799 327.494 90.1245 326.496 90.0136V77.4871H326.552Z" fill="white"/>
<path d="M339.075 83.7503C339.075 82.6418 339.075 81.7549 339.02 80.8681H340.461L340.516 82.6418H340.571C340.904 81.4778 341.902 80.7018 343.121 80.6464L343.565 80.7018V82.2538C343.398 82.2538 343.177 82.1984 343.01 82.1984C341.846 82.1984 341.015 83.0852 340.793 84.3046C340.738 84.5817 340.738 84.8589 340.738 85.0806V89.9582H339.075V83.7503Z" fill="white"/>
<path d="M352.711 87.5748C352.711 88.5171 352.711 89.3485 352.767 90.069H351.326L351.215 88.5725H351.159C350.55 89.6256 349.386 90.2907 348.166 90.2907C346.725 90.2907 345.062 89.4593 345.062 86.3V80.9235H346.725V85.9674C346.725 87.7411 347.28 88.9051 348.721 88.9051C349.663 88.9051 350.55 88.2954 350.882 87.3531C350.993 87.076 351.049 86.7988 351.049 86.5217V80.9235H352.711V87.5748Z" fill="white"/>
<path d="M361.579 84.5263C361.579 84.2492 361.579 84.0275 361.468 83.8058C361.191 82.7526 360.248 82.0321 359.14 82.0321C357.588 82.0321 356.424 83.3623 356.424 85.524C356.424 87.2977 357.366 88.8496 359.084 88.8496C360.137 88.8496 361.08 88.1291 361.357 87.1314C361.468 86.8543 361.468 86.5217 361.468 86.2446V84.5263M363.241 88.7388C363.241 90.845 362.798 92.1198 361.967 92.9513C361.024 93.7272 359.86 94.1152 358.641 94.0598C357.588 94.0598 356.535 93.8381 355.592 93.2838L356.036 92.009C356.812 92.5078 357.754 92.785 358.696 92.7295C360.359 92.7295 361.634 91.8427 361.634 89.5148V88.5171H361.579C360.969 89.5148 359.86 90.1245 358.696 90.069C356.424 90.069 354.816 88.1291 354.816 85.5794C354.816 82.4755 356.812 80.7018 358.918 80.7018C360.082 80.6464 361.191 81.2561 361.745 82.2538H361.8L361.856 80.8681H363.297C363.241 81.5332 363.241 82.2538 363.241 83.3623V88.7388Z" fill="white"/>
<path d="M365.683 88.4062C366.349 88.7942 367.124 89.0159 367.9 89.0713C369.064 89.0713 369.674 88.4616 369.674 87.6857C369.674 86.9097 369.231 86.4663 368.011 86.0228C366.348 85.4131 365.573 84.5263 365.573 83.4178C365.573 81.9212 366.792 80.7018 368.732 80.7018C369.508 80.7018 370.284 80.8681 370.949 81.2561L370.561 82.4755C370.007 82.1429 369.342 81.9212 368.732 81.9212C367.734 81.9212 367.235 82.4755 367.235 83.1406C367.235 83.9166 367.79 84.2492 368.954 84.6926C370.506 85.3023 371.337 86.0783 371.337 87.464C371.337 89.1268 370.118 90.2353 367.956 90.2353C367.069 90.2353 366.182 90.0136 365.406 89.5702L365.683 88.4062Z" fill="white"/>
<path d="M382.09 85.4131C380.316 85.3577 378.265 85.6903 378.265 87.464C378.21 88.2399 378.764 88.9605 379.54 89.0713H379.762C380.759 89.0713 381.646 88.4616 381.979 87.5194L382.034 86.9651L382.09 85.4131ZM383.697 87.8519C383.697 88.5725 383.752 89.3485 383.808 90.069H382.311L382.145 88.9051H382.09C381.424 89.7919 380.427 90.2907 379.318 90.2907C377.877 90.4016 376.658 89.2931 376.547 87.8519V87.6302C376.547 85.4131 378.487 84.1937 381.979 84.1937V84.0275C381.979 83.2515 381.757 81.8658 379.928 81.9212C379.097 81.9212 378.265 82.1429 377.545 82.5864L377.157 81.4778C378.043 80.9235 379.097 80.6464 380.15 80.7018C382.921 80.7018 383.642 82.6418 383.642 84.4709L383.697 87.8519Z" fill="white"/>
<path d="M386.356 83.3623C386.356 82.4201 386.356 81.6441 386.301 80.8681H387.742L387.853 82.3646H387.908C388.518 81.2561 389.682 80.6464 390.901 80.6464C392.121 80.6464 394.116 81.4224 394.116 84.5263V90.0136H392.453V84.6926C392.453 83.1961 391.899 81.9767 390.347 81.9767C389.294 82.0321 388.407 82.6972 388.13 83.6949C388.074 83.972 388.019 84.1937 388.019 84.4709V90.0136H386.356V83.3623Z" fill="white"/>
<path d="M402.931 84.6372C402.931 84.4155 402.931 84.1383 402.875 83.9166C402.654 82.8081 401.656 81.9767 400.492 82.0321C398.774 82.0321 397.776 83.5286 397.776 85.5794C397.776 87.464 398.718 89.0159 400.437 89.0159C401.601 89.0159 402.598 88.1845 402.875 87.0205C402.931 86.7988 402.986 86.5217 402.931 86.3V84.6372ZM404.594 76.6002V87.6857C404.594 88.5171 404.594 89.4593 404.649 90.069H403.153L403.097 88.4616H403.042C402.432 89.6256 401.268 90.2907 399.993 90.2353C397.776 90.2353 396.113 88.3508 396.113 85.5794C396.113 82.5309 397.998 80.6464 400.159 80.6464C401.268 80.591 402.321 81.0898 402.875 82.0321H402.931V76.6002H404.594Z" fill="white"/>
<path d="M420.166 89.681C419.113 90.1245 418.005 90.3462 416.841 90.2907C413.293 90.2907 410.633 88.0182 410.633 83.8058C410.633 79.815 413.293 77.0991 417.229 77.0991C418.282 77.0436 419.279 77.2653 420.222 77.6533L419.834 78.9836C419.058 78.5956 418.171 78.4293 417.284 78.4847C414.346 78.4847 412.351 80.4247 412.351 83.7503C412.351 87.076 414.125 88.9051 417.173 88.9051C418.115 88.9051 419.002 88.7388 419.834 88.3508L420.166 89.681Z" fill="white"/>
<path d="M422.161 83.7503C422.161 82.6418 422.161 81.7549 422.105 80.8681H423.547L423.602 82.6418H423.657C423.99 81.4778 424.988 80.7018 426.207 80.6464L426.651 80.7018V82.2538C426.484 82.2538 426.263 82.1984 426.096 82.1984C424.932 82.1984 424.101 83.0852 423.879 84.3046C423.824 84.5817 423.824 84.8589 423.824 85.0806V89.9582H422.161V83.7503Z" fill="white"/>
<path d="M428.371 80.9235H430.034V90.1245H428.371V80.9235ZM429.147 79.2607C428.537 79.2607 428.094 78.7619 428.094 78.1522C428.094 77.5425 428.593 77.0991 429.202 77.0991C429.757 77.0991 430.255 77.5425 430.255 78.0967V78.1522C430.311 78.7064 429.867 79.2053 429.313 79.2607H429.147Z" fill="white"/>
<path d="M432.751 83.3623C432.751 82.4201 432.695 81.6441 432.695 80.8681H434.136L434.192 82.3646H434.247C434.802 81.3115 435.91 80.6464 437.129 80.7018C438.293 80.7018 439.291 81.4224 439.679 82.5309H439.735C440.012 82.0875 440.344 81.6441 440.788 81.3115C441.342 80.8681 442.063 80.6464 442.783 80.6464C444.002 80.6464 445.776 81.4224 445.776 84.6372V90.069H444.169V84.8589C444.169 83.0852 443.504 82.0321 442.229 82.0321C441.342 82.0875 440.511 82.6418 440.233 83.5286C440.178 83.8058 440.123 84.0829 440.123 84.36V90.069H438.515V84.5817C438.515 83.0852 437.905 82.0321 436.631 82.0321C435.688 82.0875 434.857 82.7526 434.58 83.6949C434.469 83.972 434.469 84.2492 434.469 84.5263V90.069H432.751V83.3623Z" fill="white"/>
<path d="M454.089 84.5817C454.089 83.5286 453.646 81.8658 451.816 81.8658C450.154 81.8658 449.433 83.4178 449.267 84.5817H454.089ZM449.322 85.8011C449.378 88.0737 450.763 89.0159 452.426 89.0159C453.313 89.0159 454.144 88.9051 454.92 88.5725L455.198 89.7365C454.255 90.1245 453.202 90.3462 452.149 90.3462C449.378 90.3462 447.715 88.4616 447.715 85.7457C447.715 83.0298 449.322 80.7573 451.983 80.7573C454.92 80.7573 455.696 83.4178 455.696 85.0806C455.696 85.3577 455.696 85.6349 455.641 85.8566H449.322V85.8011Z" fill="white"/>
</g>
<defs>
<clipPath id="clip0_159_185649">
<rect width="423.697" height="72" fill="white" transform="translate(32 24.0552)"/>
</clipPath>
</defs>
</svg>
