<?xml version="1.0" encoding="UTF-8"?><svg id="Layer_1" xmlns="http://www.w3.org/2000/svg" viewBox="0 0 983 450"><defs><style>.cls-1{fill:#271b3a;}</style></defs><path class="cls-1" d="M184.73,336.1c-8.32,0-16.77-.45-25.16-1.02-20.25-1.38-41.18-2.8-60.42-10.75-15.87-6.56-29.58-17.22-42.03-27.77-7.23-6.13-14.49-12.58-21.5-18.83-11.54-10.27-23.48-20.9-35.75-30.44l1.23-1.58c12.32,9.58,24.28,20.23,35.85,30.53,7,6.23,14.25,12.68,21.46,18.79,12.33,10.44,25.89,21,41.5,27.45,18.93,7.82,39.7,9.23,59.79,10.6,32.48,2.2,66.03,2.61,88.12-18.25,18.87-17.82,22.87-45.97,24.25-68.5,3-49.26-2.7-98.18-16.96-145.42-4.01-13.27-8.98-26.99-18.18-37.5-19.5-22.27-52.69-25.52-82.59-25.76-26.57-.22-53.45,.7-79.92,2.72-1.61,.12-3.22,.25-4.83,.38-16.17,1.27-32.88,2.59-49.11-.2-6.93-1.19-13.78-3.15-20.36-5.82l.75-1.85c6.45,2.61,13.16,4.53,19.95,5.7,15.97,2.75,32.56,1.44,48.61,.18,1.61-.13,3.22-.25,4.83-.38,26.53-2.02,53.47-2.95,80.09-2.73,30.34,.25,64.06,3.58,84.08,26.44,9.46,10.8,14.52,24.76,18.59,38.25,14.33,47.47,20.07,96.63,17.05,146.12-1.4,22.9-5.49,51.54-24.87,69.84-16.9,15.96-40.12,19.81-64.47,19.81Z"/><path class="cls-1" d="M154.53,307.2c-16.85,0-32.29-2.56-46.06-7.66-28.82-10.67-51.55-32.74-73.53-54.08-11.22-10.89-22.82-22.15-35.06-31.72l1.23-1.58c12.33,9.64,23.96,20.94,35.22,31.86,21.83,21.2,44.41,43.11,72.83,53.64,18.48,6.85,40.03,9.04,64.06,6.54,8.88-.93,19.08-2.6,27.36-8,6.4-4.17,11.32-10.32,15.8-16.26,21.76-28.81,33.47-53.62,36.86-78.06,3.91-28.29-3.71-58.03-20.92-81.61-16.72-22.91-42.54-39.74-70.84-46.19-13.74-3.13-28.08-3.93-41.95-4.71L.44,62.72l.11-2,119.1,6.66c13.95,.78,28.38,1.59,42.29,4.76,28.76,6.55,55.01,23.67,72.01,46.96,17.51,23.99,25.27,54.26,21.28,83.06-3.43,24.8-15.26,49.9-37.24,78.99-4.59,6.08-9.64,12.38-16.31,16.73-8.64,5.63-19.13,7.36-28.25,8.31-6.48,.68-12.79,1.01-18.91,1.01Z"/><path class="cls-1" d="M153.91,254.83c-7.07,0-14.32-.8-21.34-2.97-9.4-2.91-17.95-8.17-25.07-12.94-13.55-9.06-26.71-19.54-39.44-29.67C46.63,192.21,24.47,174.57,.08,163.43l.83-1.82c24.61,11.25,46.87,28.96,68.39,46.09,12.7,10.11,25.83,20.55,39.31,29.57,7,4.68,15.39,9.85,24.55,12.69,15.74,4.87,32.87,2.62,46.04,.12,11.18-2.12,23.89-5.35,33.47-13.16,17.87-14.57,19.81-40.25,19.38-54.26-.6-19.39-5.51-34.65-14.59-45.36-13.39-15.79-35.46-21.4-55.09-25.41C109.26,101.04,54.78,94.48,.46,92.4l.08-2c54.43,2.09,109.01,8.66,162.23,19.53,19.96,4.08,42.42,9.79,56.22,26.07,9.38,11.07,14.45,26.74,15.06,46.59,.45,14.38-1.57,40.75-20.11,55.87-9.92,8.09-22.94,11.4-34.36,13.57-7.58,1.44-16.46,2.8-25.67,2.8Z"/><path class="cls-1" d="M119.96,210.15c-6.94,0-13.91-.47-20.57-2.54-7.8-2.42-14.69-6.88-21.36-11.19-25.82-16.69-55.09-35.61-74.66-62.27-1.39-1.89-2.65-3.88-3.75-5.93l1.76-.95c1.06,1.96,2.27,3.88,3.6,5.69,19.36,26.36,48.46,45.17,74.14,61.77,6.55,4.24,13.33,8.62,20.87,10.96,9.12,2.83,19.01,2.55,28.58,2.29,1.75-.05,3.5-.1,5.23-.13,2.97-.05,6.01-.05,8.94-.05,11.59-.01,23.52,0,34.65-3.29,12.98-3.84,26.75-14.3,28.26-29,1.13-10.96-5.27-23.09-16.29-30.92-9.89-7.02-21.98-10.39-34.54-13.5-4.78-1.18-9.61-2.38-14.47-3.59-38.71-9.62-78.74-19.58-108-24.01-3.74-.57-7.16-1.32-10.17-1.99-9.26-2.05-15.38-3.41-20.97,2.1l-1.4-1.42c6.37-6.27,13.62-4.66,22.81-2.62,2.99,.66,6.37,1.41,10.04,1.97,29.35,4.45,69.43,14.41,108.18,24.05,4.86,1.21,9.69,2.41,14.47,3.59,12.75,3.16,25.04,6.59,35.22,13.81,14.08,10,18.07,23.47,17.12,32.75-1.61,15.62-16.06,26.68-29.68,30.72-11.41,3.38-23.51,3.35-35.22,3.38-2.93,0-5.95,0-8.9,.05-1.73,.03-3.47,.08-5.21,.13-2.87,.08-5.76,.16-8.66,.16Z"/><path class="cls-1" d="M109.24,193.2c-4.88,0-9.57-.44-14.19-1.7-10.32-2.83-19.17-9.68-26.98-15.72l-21-16.25c-6.05-4.68-11.16-10.03-15.19-15.89h0c-1.99-2.9-2.58-6.72-1.71-11.04,1.13-5.58,4.71-11.54,8.34-13.87,7.33-4.71,27.41,.38,46.83,5.3,6.76,1.71,13.15,3.33,18.77,4.48,13.34,2.72,25.98,8.17,38.2,13.44l18.64,8.04c4.46,1.93,9.52,4.11,13.21,7.94,3.5,3.62,5.96,9.65,3.59,14.94-1.48,3.31-4.55,5.54-7.06,7.12-14.08,8.83-30.83,10.94-48.21,12.47-4.61,.41-9,.74-13.25,.74Zm-75.71-50.69c3.91,5.69,8.88,10.88,14.76,15.44l21,16.25c7.66,5.93,16.35,12.65,26.29,15.37,8.32,2.28,17.03,1.76,26.74,.9,17.12-1.51,33.62-3.58,47.32-12.17,2.27-1.42,5.04-3.42,6.3-6.24,1.99-4.44-.17-9.59-3.2-12.73-3.41-3.54-8.28-5.64-12.57-7.49l-18.64-8.04c-12.13-5.23-24.67-10.64-37.81-13.32-5.67-1.15-12.08-2.78-18.86-4.5-18.12-4.59-38.65-9.8-45.26-5.56-2.78,1.79-6.33,6.98-7.46,12.58-.53,2.64-.72,6.43,1.4,9.51h0Z"/><path class="cls-1" d="M122.94,173.97c-2.28,0-4.79-.27-7.53-.8-11.25-2.21-22.51-5.05-33.47-8.42-3.97-1.22-7.74-2.57-10.32-5.61-3.11-3.66-4.77-13.53-3.07-18.21,.8-2.18,2.12-2.84,3.09-3,8.93-1.5,36.16,3.64,52.03,9.83,4.2,1.64,7.75,4.22,10.27,7.47,3.02,3.89,3.77,8.82,1.92,12.55-2.02,4.08-6.51,6.2-12.92,6.2Zm-47.54-34.3c-1.37,0-2.52,.07-3.42,.23-.65,.11-1.17,.69-1.54,1.71-1.46,4.01,.06,13.11,2.71,16.23h0c2.23,2.63,5.72,3.86,9.39,4.99,10.89,3.36,22.08,6.18,33.26,8.37,5.49,1.08,15.17,1.95,18.27-4.32,1.72-3.47,.38-7.75-1.71-10.44-2.29-2.96-5.55-5.32-9.42-6.83-14.65-5.71-37.15-9.94-47.54-9.94Z"/><path class="cls-1" d="M180.15,385.42c-2.2,0-4.4-.09-6.61-.29-13.28-1.2-25.78-6.15-37.87-10.93-16.27-6.44-33.09-13.1-48.44-22.21-15.68-9.31-29.88-21.22-43.61-32.74-6.94-5.82-14.11-11.83-21.38-17.43-7.79-6-15.07-10.98-22.25-15.22l1.02-1.72c7.26,4.28,14.61,9.3,22.46,15.35,7.3,5.63,14.49,11.66,21.44,17.49,13.67,11.47,27.8,23.32,43.35,32.55,15.21,9.03,31.96,15.66,48.15,22.07,11.96,4.73,24.32,9.63,37.32,10.8,14.35,1.29,28.74-2.09,40.93-5.57,9.1-2.6,18.6-5.77,26.48-11.32,8.03-5.65,14.2-13.57,20.16-21.22,11.19-14.36,22.75-29.21,30.35-46.08,16.13-35.85,13.08-76.87,8.2-119.27-6.06-52.62-13.28-103.65-34.78-149.58-5.65-12.06-11.93-22.14-18.68-29.95l1.51-1.31c6.96,8.06,13.17,18.01,18.97,30.41,21.63,46.2,28.88,97.41,34.96,150.2,4.92,42.69,7.98,84.01-8.36,120.32-7.69,17.09-19.33,32.04-30.59,46.49-6.05,7.77-12.31,15.8-20.58,21.62-8.12,5.72-17.82,8.96-27.08,11.61-10.5,3-22.64,5.93-35.05,5.93Z"/><path class="cls-1" d="M45.47,18.88c-15.79,0-30.72-2.89-43.44-8.55l.81-1.83c18.29,8.13,41.3,10.44,64.79,6.5,17.91-3,34.87-8.74,54.83-16.44l.72,1.87c-20.07,7.74-37.14,13.52-55.22,16.55-7.59,1.27-15.13,1.9-22.49,1.9Z"/><path class="cls-1" d="M70.05,396.79c-2.7,0-5.37-.6-7.52-1.2-17.56-4.88-32.87-15.51-47.67-25.78-2.6-1.81-5.2-3.61-7.8-5.38-2.5-1.7-4.83-3.23-7.1-4.68l1.07-1.69c2.3,1.46,4.64,3,7.16,4.71,2.61,1.77,5.21,3.58,7.81,5.39,14.67,10.18,29.83,20.71,47.06,25.5,3.74,1.04,9.17,2.12,13.03-.52,2.54-1.74,3.34-4.39,3.57-6.31,.45-3.83-.96-8.18-3.61-11.1-4.02-4.43-9.91-6.73-15.61-8.95-.88-.34-1.75-.68-2.62-1.03-20.54-8.24-40.09-22.6-58.08-42.68l1.49-1.33c17.79,19.85,37.08,34.04,57.33,42.16,.86,.34,1.73,.68,2.6,1.02,5.92,2.3,12.03,4.69,16.37,9.47,3.01,3.32,4.62,8.3,4.11,12.67-.39,3.34-1.92,6.01-4.42,7.72-2.18,1.49-4.69,2-7.18,2Z"/><path class="cls-1" d="M114.56,435.14c-.27,0-.53,0-.79,0-37.79-.53-75.95-3.53-113.41-8.91l.29-1.98c37.38,5.37,75.45,8.36,113.15,8.89,4.68,.07,9.75-.35,11.92-3.92,2.21-3.63-.19-8.63-3.74-10.84-3.71-2.32-8.41-2.61-13.3-2.72-4.41-.1-8.91-.15-13.26-.2-17.24-.2-35.06-.4-52.28-3.68-16.82-3.2-31.77-9.43-43.24-18.02l1.2-1.6c11.22,8.41,25.89,14.52,42.41,17.66,17.05,3.24,34.78,3.44,51.93,3.64,4.36,.05,8.86,.1,13.29,.2,5.18,.12,10.18,.44,14.31,3.02,4.34,2.71,7.2,8.96,4.38,13.58-2.57,4.22-8.1,4.88-12.86,4.88Z"/><path class="cls-1" d="M576.98,30.05c-1.62,0-3.24-.25-4.85-.82-5.67-2.03-8.95-7.26-12.12-12.32-.69-1.1-1.38-2.2-2.08-3.25-3.44-5.13-7.89-9.62-13.22-13.34l1.14-1.64c5.54,3.87,10.16,8.53,13.74,13.87,.72,1.07,1.42,2.18,2.12,3.3,2.99,4.77,6.08,9.7,11.1,11.5,5.99,2.14,12.61-1.01,17.1-4.04,8.69-5.85,15.66-14.05,22.41-21.98l2.11-2.48,1.52,1.3-2.11,2.48c-6.83,8.03-13.9,16.34-22.81,22.34-3.73,2.51-8.83,5.08-14.05,5.08Z"/><path class="cls-1" d="M972.42,439.01c-1.75,0-3.56-.2-5.4-.61-5.91-1.31-11.45-4.63-15.2-9.12-8.4-10.06-9.85-23.87-10.18-34.78-.48-15.98,1.07-31.99,4.6-47.57,1.89-8.36,4.39-16.72,6.81-24.81,4.13-13.83,8.4-28.12,9.7-42.65,3.05-34.14-11.09-71.64-37.83-100.33-22.49-24.13-54-43.36-93.65-57.15l-2.19-.76c-15.36-5.32-32.77-11.34-40.89-25.91-4.73-8.49-5.37-18.34-5.98-27.86-.43-6.63-.87-13.48-2.69-19.81-6.31-21.97-31.34-36.56-53.56-31.23-1.68,.4-3.42,.92-5.1,1.42-5.5,1.63-11.19,3.31-16.81,1.77-8.77-2.41-12.42-10.36-15.96-19.73l1.87-.71c3.34,8.85,6.75,16.35,14.62,18.51,5.08,1.39,10.25-.13,15.71-1.76,1.7-.5,3.46-1.03,5.2-1.44,23.22-5.56,49.36,9.68,55.95,32.63,1.88,6.54,2.33,13.5,2.76,20.23,.63,9.73,1.23,18.92,5.74,27.02,7.74,13.9,24.04,19.54,39.79,24.99l2.19,.76c39.96,13.9,71.74,33.3,94.46,57.67,27.53,29.53,41.51,66.67,38.36,101.88-1.32,14.73-5.62,29.13-9.78,43.05-2.41,8.06-4.9,16.39-6.77,24.68-3.49,15.42-5.03,31.26-4.55,47.07,.32,10.58,1.7,23.96,9.71,33.56,8.28,9.92,22.07,11.08,29.26,5.91l1.17,1.62c-3.19,2.3-7.11,3.48-11.36,3.48Z"/><path class="cls-1" d="M348.21,133.54c-8.32,0-16.67-2.96-22.98-8.37-11.51-9.86-15.23-25.47-18.31-41.96L291.3-.32l1.97-.37,15.61,83.53c3.01,16.12,6.63,31.38,17.65,40.81,7.76,6.65,18.77,9.37,28.74,7.11,17.27-3.92,28.32-20.34,37.69-37.51,1.72-3.16,3.43-6.33,5.14-9.5,9.93-18.43,20.19-37.48,33.53-54.04,10.72-13.31,22.59-23.76,35.31-31.08l1,1.73c-12.5,7.19-24.19,17.48-34.75,30.6-13.22,16.42-23.44,35.39-33.33,53.73-1.71,3.18-3.42,6.35-5.15,9.51-9.59,17.58-20.95,34.41-39,38.5-2.46,.56-4.98,.83-7.5,.83Z"/><path class="cls-1" d="M181.62,450.45l-.63-1.9c4.7-1.55,9.49-3.07,14.12-4.55,12.93-4.12,26.3-8.37,39.05-13.6,30.27-12.42,58.16-32.27,78.53-55.88,22.27-25.81,35.22-55.36,37.47-85.48,.53-7.1,.49-14.4,.45-21.46-.07-13.18-.14-26.81,3.46-39.72,5.26-18.87,17.78-34.46,29.89-49.54,7.45-9.28,15.15-18.87,21.12-29.15,6.09-10.49,10.56-22.05,14.89-33.22,2.9-7.49,5.9-15.24,9.37-22.64,10.77-22.94,24.69-37.67,41.39-43.75,19.17-6.99,43.17-2.35,65.83,12.72,.97,.65,1.94,1.31,2.92,1.97,6.79,4.62,13.81,9.39,21.76,9.7,12.97,.46,21.87-10.01,31.29-21.13,9.11-10.75,18.52-21.87,32.06-22.25,10.06-.27,18.51,5.69,26.69,11.46,7.23,5.1,14.7,10.38,23.19,11.25,2.73,.28,5.57,.09,8.31-.1,2.42-.16,4.93-.33,7.42-.19,10.93,.62,20.02,7.1,25.73,12.42,12.56,11.72,20.21,27.51,27.6,42.78,6.45,13.31,13.11,27.08,23,38.07,8.21,9.12,18.58,16.26,28.62,23.17l2.21,1.52c26.5,18.29,52.45,38.05,77.11,58.75,10.11,8.48,19.69,17,25.84,28,12.58,22.5,8.26,49.28,4.08,75.19-.49,3.06-.99,6.11-1.44,9.13-5.4,35.51-5.63,71.63-.68,107.36l-1.98,.28c-4.98-35.92-4.75-72.23,.68-107.93,.46-3.02,.95-6.08,1.45-9.15,4.12-25.57,8.38-52.01-3.86-73.89-5.99-10.71-15.42-19.09-25.38-27.45-24.62-20.66-50.51-40.38-76.96-58.63l-2.21-1.52c-10.13-6.97-20.61-14.18-28.97-23.48-10.08-11.2-16.81-25.1-23.32-38.54-7.31-15.1-14.87-30.72-27.16-42.19-5.46-5.1-14.15-11.3-24.48-11.89-2.37-.14-4.81,.03-7.17,.19-2.82,.19-5.74,.39-8.64,.09-9.01-.92-16.71-6.35-24.14-11.61-8.27-5.84-16.08-11.39-25.48-11.1-12.65,.36-21.77,11.13-30.59,21.55-9.31,11-18.91,22.36-32.89,21.84-8.53-.33-15.79-5.26-22.81-10.04-.97-.66-1.94-1.32-2.9-1.96-22.13-14.71-45.48-19.27-64.04-12.5-16.18,5.9-29.73,20.27-40.27,42.72-3.44,7.34-6.43,15.05-9.32,22.51-4.35,11.25-8.86,22.88-15.03,33.5-6.05,10.42-13.8,20.07-21.29,29.4-11.98,14.92-24.37,30.35-29.52,48.82-3.53,12.65-3.45,26.14-3.38,39.18,.04,7.1,.08,14.44-.46,21.62-2.27,30.54-15.4,60.5-37.95,86.64-20.58,23.84-48.73,43.88-79.29,56.42-12.82,5.26-26.23,9.53-39.2,13.66-4.63,1.47-9.41,3-14.1,4.54Z"/><path class="cls-1" d="M356.19,44.66c-3.52,0-6.71-.85-9.17-2.25-3.58-2.04-6.68-5.52-9.2-10.37-5.44-10.43-6.2-21.8-6.21-32.54h2c.02,10.48,.75,21.56,5.99,31.61,2.34,4.49,5.17,7.71,8.41,9.55,5.64,3.21,15.54,3.15,23.95-4.56,6.59-6.04,10.35-14.54,13.99-22.76,1.89-4.26,4.14-9.3,6.57-14.28l1.8,.88c-2.42,4.95-4.66,9.96-6.54,14.21-3.72,8.41-7.56,17.11-14.46,23.43-5.54,5.08-11.72,7.08-17.12,7.08Z"/><path class="cls-1" d="M982.63,188.7c-2.5-4.43-4.91-8.43-7.37-12.24-14.04-21.74-38.34-50.43-74.35-63.67-4.62-1.7-9.53-3.19-14.27-4.63-14.8-4.5-30.11-9.15-40.15-20.96-11.35-13.34-12.33-31.33-13.29-48.72-.63-11.57-1.29-23.53-4.92-34.24-.45-1.31-.99-2.7-1.7-4.35l1.83-.8c.74,1.7,1.3,3.13,1.76,4.5,3.72,10.97,4.38,23.07,5.02,34.77,.98,17.85,1.9,34.71,12.81,47.53,9.66,11.36,24.68,15.92,39.21,20.34,4.77,1.45,9.71,2.95,14.38,4.67,36.52,13.43,61.13,42.47,75.34,64.46,2.48,3.83,4.91,7.87,7.43,12.34l-1.74,.98Z"/><path class="cls-1" d="M983.25,115.15c-21.19-5.48-41.24-13.97-59.61-25.24-9-5.52-13.15-11.16-12.69-17.25,.15-1.97,.91-3.48,2.15-4.27,1.4-.88,3.07-.69,4.53-.45,11.3,1.92,22.44,5.28,33.21,8.53,7.4,2.23,15.04,4.54,22.66,6.35,3.45,.82,6.87,1.51,10.17,2.07l-.33,1.97c-3.34-.56-6.81-1.26-10.3-2.09-7.68-1.83-15.35-4.14-22.77-6.38-10.71-3.23-21.79-6.57-32.96-8.47-1.14-.19-2.33-.34-3.12,.17-.93,.59-1.17,1.96-1.23,2.73-.4,5.27,3.44,10.31,11.74,15.4,18.2,11.17,38.08,19.58,59.07,25.01l-.5,1.94Z"/><path class="cls-1" d="M965.54,55.82c-44.07,0-87.97-21.06-115.52-55.7l1.56-1.24c28.15,35.39,73.62,56.4,118.6,54.86,4.57-.16,9-.59,13.15-1.29l.33,1.97c-4.24,.71-8.75,1.15-13.41,1.31-1.57,.05-3.14,.08-4.71,.08Z"/><path class="cls-1" d="M983.29,31.12c-10.66,0-21.29-.91-31.61-2.71-6.5-1.13-13.25-2.75-18.51-6.87-3.12-2.45-5.26-6.7-3.06-9.75,1.35-1.87,3.76-2.4,5.71-2.65,7.83-1.02,15.8-.06,23.49,.86,.96,.12,1.92,.23,2.88,.34,7.75,.9,14.48,1.3,20.59,1.23l.02,2c-6.2,.07-13.01-.33-20.84-1.24-.96-.11-1.93-.23-2.89-.34-7.58-.91-15.41-1.85-23-.87-1.64,.21-3.45,.6-4.34,1.84-1.56,2.16,.62,5.4,2.67,7,4.91,3.85,11.37,5.39,17.62,6.48,10.26,1.79,20.85,2.67,31.47,2.68v2h-.21Z"/><path class="cls-1" d="M263.93,450.48l-.41-1.96c4.46-.92,9-1.82,13.39-2.68,7.75-1.53,15.77-3.11,23.58-4.91,10.92-2.52,22.29-5.74,31.46-12.27,9.19-6.53,15.77-16.1,20.47-23.71,20.92-33.83,31.5-73.27,41.72-111.41,2.02-7.52,4.1-15.3,6.23-22.91,12.24-43.68,29.67-92.76,66.16-125.68,12.6-11.36,25.5-18.75,38.35-21.96,17.52-4.38,35.79-1.39,53.46,1.5,16.83,2.75,34.23,5.59,50.82,2.01,7.98-1.72,16.07-4.95,23.89-8.06,15.8-6.3,32.14-12.81,48.04-6.93,18.68,6.91,25.55,25.6,32.82,45.38,5.76,15.66,11.71,31.85,24.05,41.7,10.53,8.4,23.7,10.85,37.64,13.45,6.8,1.27,13.83,2.58,20.45,4.64,28.81,8.99,53.43,33.89,67.56,68.32,12.61,30.73,15.84,64.14,18.97,96.46l6.57,67.95-1.99,.19-6.57-67.95c-3.11-32.17-6.33-65.44-18.83-95.89-13.9-33.88-38.07-58.36-66.31-67.17-6.51-2.03-13.48-3.33-20.22-4.59-13.57-2.53-27.6-5.14-38.52-13.85-12.78-10.19-18.83-26.65-24.68-42.57-7.11-19.34-13.82-37.61-31.64-44.2-15.19-5.62-30.45,.47-46.61,6.91-7.89,3.15-16.06,6.4-24.2,8.16-16.96,3.67-34.55,.79-51.57-1.99-17.47-2.85-35.54-5.81-52.65-1.53-12.53,3.13-25.14,10.37-37.49,21.51-36.11,32.58-53.41,81.34-65.57,124.74-2.13,7.59-4.21,15.37-6.23,22.88-10.26,38.28-20.88,77.86-41.95,111.94-4.8,7.77-11.53,17.55-21.02,24.29-9.46,6.72-21.05,10.02-32.17,12.58-7.84,1.81-15.87,3.39-23.64,4.92-4.39,.86-8.93,1.76-13.38,2.68Z"/><path class="cls-1" d="M354.32,450.24l-1.35-1.48c26.02-23.69,44.91-53.61,54.61-86.52,2.84-9.62,4.94-19.62,6.98-29.3,1.86-8.85,3.78-17.99,6.27-26.86,12.99-46.33,43.15-88.57,82.77-115.88,24.36-16.8,50.14-26.46,74.55-27.94,28.52-1.74,56.13,8.14,73.86,26.4,7.26,7.48,13.1,16.45,18.74,25.13,8.48,13.04,16.49,25.35,29,33.38,11.91,7.65,26.37,10.1,40.34,12.47,12.49,2.12,25.41,4.31,36.76,10.16,11.38,5.86,21.8,15.78,30.98,29.48,22.93,34.25,29.14,76.17,35.15,116.72,1.62,10.96,3.3,22.29,5.29,33.31l-1.97,.35c-1.99-11.05-3.67-22.4-5.3-33.37-5.98-40.33-12.16-82.03-34.83-115.9-8.98-13.41-19.15-23.11-30.23-28.81-11.08-5.71-23.84-7.87-36.18-9.96-14.18-2.4-28.83-4.89-41.09-12.76-12.87-8.26-21.37-21.33-29.6-33.97-5.59-8.6-11.38-17.49-18.5-24.83-17.33-17.85-44.35-27.49-72.31-25.8-24.05,1.46-49.47,11-73.53,27.59-39.23,27.05-69.11,68.89-81.97,114.78-2.47,8.8-4.38,17.91-6.24,26.73-2.04,9.71-4.15,19.75-7.01,29.45-9.81,33.26-28.89,63.49-55.19,87.43Z"/><path class="cls-1" d="M410.48,449.95l-1.78-.91c1.64-3.22,3.32-6.43,4.99-9.64,8.94-17.14,18.19-34.87,22.22-53.91,1.98-9.32,2.71-19.03,3.42-28.42,.52-6.91,1.06-14.05,2.09-21.02,3-20.33,10.22-35.31,21.44-44.52,4.58-3.76,9.91-6.6,15.06-9.34,6.49-3.46,13.2-7.03,18.2-12.41,3.21-3.45,5.69-7.63,8.09-11.67,1.01-1.7,2.05-3.46,3.14-5.15,21.05-32.67,66.71-45.57,99.73-28.17,14.13,7.45,25.28,19.37,36.06,30.9,1.87,1.99,3.73,3.98,5.6,5.95,24.43,25.62,48.14,43.12,72.51,53.52,1.34,.57,2.7,1.13,4.06,1.69,6.77,2.78,13.77,5.66,19.34,10.62,8.4,7.48,12.34,18.44,15.96,29.97,1.91,6.1,3.83,12.36,5.68,18.41,7.49,24.47,15.23,49.77,25.45,73.26l-1.83,.8c-10.26-23.59-18.02-48.95-25.53-73.47-1.85-6.04-3.76-12.3-5.67-18.39-3.53-11.25-7.36-21.93-15.38-29.07-5.32-4.73-12.16-7.54-18.77-10.26-1.37-.56-2.73-1.12-4.08-1.7-24.62-10.51-48.56-28.16-73.17-53.98-1.88-1.97-3.74-3.97-5.61-5.96-10.67-11.41-21.7-23.2-35.54-30.5-32.13-16.94-76.61-4.35-97.12,27.48-1.07,1.66-2.11,3.4-3.11,5.09-2.45,4.13-4.99,8.4-8.34,12.01-5.23,5.62-12.09,9.28-18.72,12.81-5.06,2.7-10.3,5.49-14.73,9.12-10.83,8.89-17.81,23.44-20.73,43.27-1.02,6.9-1.56,14.01-2.08,20.88-.72,9.45-1.46,19.23-3.46,28.68-4.09,19.31-13.41,37.16-22.41,54.43-1.67,3.2-3.34,6.41-4.98,9.62Z"/><path class="cls-1" d="M445.23,450.25l-1.33-1.5c13.17-11.68,23.98-26.23,31.26-42.06,6.36-13.84,10.24-28.91,13.99-43.48,1.79-6.96,3.64-14.15,5.74-21.14,8.3-27.62,19.44-45.85,35.03-57.39,9.17-6.79,21.02-10.8,32.49-11.02,12.32-.26,23.33,3.87,31,11.54,9.19,9.18,13.17,22.31,17.02,35,4.67,15.37,9.07,29.89,21.96,37.39,11.76,6.85,26.26,4.88,40.29,2.97l1.81-.25c13.86-1.87,31.21-2.68,42.35,7.77,9.84,9.23,11.15,23.33,12.42,36.95,.23,2.47,.47,5.02,.75,7.47,1.47,12.57,4.91,24.87,10.22,36.58l-1.82,.83c-5.4-11.9-8.89-24.4-10.38-37.17-.29-2.47-.53-5.03-.76-7.51-1.23-13.26-2.51-26.97-11.8-35.68-10.52-9.87-27.28-9.06-40.71-7.25l-1.81,.25c-14.36,1.96-29.2,3.97-41.56-3.22-13.57-7.9-18.3-23.48-22.87-38.54-3.78-12.46-7.69-25.34-16.52-34.17-16.11-16.11-44.15-12.71-60.89-.33-15.23,11.27-26.13,29.18-34.31,56.36-2.09,6.95-3.94,14.13-5.72,21.07-3.77,14.66-7.67,29.82-14.11,43.82-7.39,16.08-18.37,30.85-31.75,42.72Z"/><path class="cls-1" d="M479.62,450.24l-1.35-1.47c22.78-20.96,39.89-47.29,49.48-76.13l.42-1.25c1.89-5.74,3.85-11.68,8.35-15.83,8.83-8.13,23.55-5.08,32.13,2.4,7.64,6.67,12.14,16,16.49,25.03,.59,1.22,1.18,2.44,1.77,3.65,4.72,9.62,10.9,20.1,20.94,24.91,11.67,5.59,24.39,2.27,37.85-1.24,11.31-2.95,22.99-6,34.22-3.42,16.32,3.75,26.46,17.78,36.26,31.34,2.56,3.55,5.22,7.22,7.95,10.67l-1.57,1.24c-2.76-3.49-5.43-7.17-8-10.74-10.03-13.87-19.5-26.97-35.09-30.56-10.74-2.47-22.19,.52-33.26,3.4-13.22,3.45-26.89,7.01-39.22,1.1-10.58-5.07-16.99-15.91-21.87-25.83-.6-1.21-1.18-2.44-1.78-3.66-4.26-8.84-8.67-17.99-16-24.39-7.93-6.92-21.45-9.82-29.46-2.44-4.13,3.8-6,9.49-7.81,14.99l-.42,1.26c-9.69,29.17-26.99,55.79-50.02,76.98Z"/><path class="cls-1" d="M687.12,450.34c-19.96-12.86-44.76-16.95-66.34-10.94-1.29,.36-2.58,.75-3.88,1.14-5.86,1.77-11.91,3.6-18.05,2.55-8.29-1.43-14.7-7.68-20.9-13.73-7.11-6.93-13.84-13.49-22.75-12.5-10.73,1.17-16.92,12.94-21.89,22.39-1.88,3.56-3.92,7.19-6.09,10.77l-1.71-1.04c2.15-3.55,4.18-7.14,6.03-10.67,5.2-9.87,11.66-22.16,23.44-23.45,9.87-1.08,17.24,6.11,24.36,13.06,5.98,5.83,12.17,11.87,19.84,13.19,5.67,.98,11.5-.79,17.13-2.49,1.31-.4,2.62-.79,3.93-1.16,22.12-6.15,47.53-1.97,67.96,11.19l-1.08,1.68Z"/></svg>