<?xml version="1.0" encoding="UTF-8"?><svg id="Layer_1" xmlns="http://www.w3.org/2000/svg" viewBox="0 0 538.33 113.09"><defs><style>.cls-1{fill:#fff;}</style></defs><path class="cls-1" d="M481.58,78.38V34.16h14.12v33.34h17.65l-4,10.89h-27.77Zm-36.24-16.68h9.88c-2.36-7.64-3.06-11.58-3.06-16.21h-3.53c0,4.63-.94,8.57-3.29,16.21Zm-18.36,16.67v-3.93l12-40.28h23.53l11.77,40.28v3.93h-13.64c-.94-2.79-1.65-5.09-2.36-7.41h-15.76l-2.57,7.41h-12.97Zm-54.36,0V34.16h19.76c11.07,20.14,11.3,24.31,11.3,29.4h3.53v-29.4h12.47v44.22h-18.83c-12-20.6-12.23-24.77-12.23-30.33h-3.29v30.33h-12.71Zm-32.94,1.16c-13.18,0-20.24-6.02-20.24-15.98v-29.4h14.35v25.7c0,5.32,2.35,8.1,7.53,8.1s7.53-1.85,7.53-6.48v-27.31h13.41v27.55c0,10.42-8.47,17.83-22.59,17.83ZM289,0V56.66c0,35.11,21.91,56.42,57.59,56.42h191.73V56.66c0-34.87-21.91-56.66-57.6-56.66h-191.73Z"/><path class="cls-1" d="M13.27,54.57v22.79H.64V19.72H21.03c12.92,0,20.59,5.84,20.59,15.83,0,7.06-4.21,12.34-10.05,15.54l14.55,26.28h-13.88l-11.49-22.89c-1.24,.09-2.49,.19-3.73,.19-.86,0-2.3,0-3.73-.09Zm15.51-16.3c0-6.03-3.64-10.27-12.16-10.27-1.15,0-2.3,0-3.35,.09v18.18c2.04,.2,4.08,.3,6.13,.28,4.88,0,9.38-2.54,9.38-8.29Z"/><path class="cls-1" d="M69.48,78.78c-11.11,0-20.78-6.12-20.78-21.47s8.43-23.74,21.26-23.74,16.66,8.38,16.66,17.71c-.01,2.02-.14,4.03-.38,6.03h-25.85c.57,9.7,6.32,12.43,11.77,12.43,4.39-.04,8.74-.87,12.83-2.45l1.91,7.72c-5.45,2.52-11.4,3.81-17.42,3.77Zm-8.81-28.45h14.93c0-6.22-2.68-9.23-7.56-9.23-4.3,0-6.69,2.17-7.36,9.23Z"/><path class="cls-1" d="M123.47,74.26c-3.35,1.98-8.81,4.62-13.41,4.52-9.01-.09-17.62-6.4-17.62-21.57,0-16.21,11.68-23.64,21.36-23.64,2.95-.01,5.9,.24,8.81,.76V13.78l12.06-1.7V77.08l-8.62,1.69-2.59-4.52Zm-.86-6.03v-24.59c-2.73-.86-5.57-1.3-8.43-1.32-5.55,0-9.48,3.96-9.48,14.04s5.74,13.56,10.53,13.56c2.55-.05,5.06-.63,7.37-1.7Z"/><path class="cls-1" d="M159.57,56.55v20.82h-12.64V19.72h20.3c13.5,0,21.45,6.22,21.45,16.86,0,13.09-11.68,20.06-25.56,20.06-1.15,0-2.39,0-3.54-.09Zm16.18-18.27c0-6.5-4.21-10.27-13.13-10.27h-3.05v19.87c1.54,.1,2.97,.19,4.69,.19,7.56,0,11.49-3.2,11.49-9.8Z"/><path class="cls-1" d="M217.11,74.26c-3.54,2.26-8.24,4.52-12.16,4.52-7.46,0-13.13-4.71-13.13-12.15,0-8.29,6.69-13.94,24.13-14.6v-1.79c0-5.28-2.49-7.34-7.18-7.34-4.12,0-9.19,1.41-13.21,2.83l-2.3-8.2c6.32-2.26,12.26-3.95,19.15-3.95,9.78,0,15.32,4.62,15.32,14.32v29.2l-8.24,1.69-2.38-4.52Zm-1.15-5.84v-8.66c-1.77-.27-3.57-.4-5.36-.38-5.36,0-8.04,1.98-8.04,5.46s2.59,5.65,6.22,5.65c2.01,0,4.88-.95,7.18-2.08Z"/><path class="cls-1" d="M235.58,77.36v-7.82l20.01-25.81-20.11,.09,.86-8.86h33.51v8.29l-20.2,25.63,21.73-.09-.86,8.57h-34.95Z"/></svg>