<svg width="97" height="96" viewBox="0 0 97 96" fill="none" xmlns="http://www.w3.org/2000/svg">
<g id="vuesax/linear/quote-up">
<g id="quote-up">
<g id="Group">
<g id="Group_2">
<path id="Vector" d="M8.5 49.3999H31.7C37.82 49.3999 42.02 54.04 42.02 59.72V72.6001C42.02 78.2801 37.82 82.9199 31.7 82.9199H18.8201C13.1401 82.9199 8.5 78.2801 8.5 72.6001V49.3999" stroke="white" stroke-width="5" stroke-linecap="round" stroke-linejoin="round"/>
<path id="Vector_2" d="M8.5 49.3999C8.5 25.1999 13.0201 21.2001 26.6201 13.1201" stroke="white" stroke-width="5" stroke-linecap="round" stroke-linejoin="round"/>
</g>
<g id="Group_3">
<path id="Vector_3" d="M55.0195 49.3999H78.2195C84.3395 49.3999 88.5396 54.04 88.5396 59.72V72.6001C88.5396 78.2801 84.3395 82.9199 78.2195 82.9199H65.3396C59.6596 82.9199 55.0195 78.2801 55.0195 72.6001V49.3999" stroke="white" stroke-width="5" stroke-linecap="round" stroke-linejoin="round"/>
<path id="Vector_4" d="M55.0195 49.3999C55.0195 25.1999 59.5394 21.2001 73.1394 13.1201" stroke="white" stroke-width="5" stroke-linecap="round" stroke-linejoin="round"/>
</g>
</g>
</g>
</g>
</svg>
