<?xml version="1.0" encoding="UTF-8"?><svg id="Layer_1" xmlns="http://www.w3.org/2000/svg" xmlns:xlink="http://www.w3.org/1999/xlink" viewBox="0 0 421.94 411.26"><defs><style>.cls-1{fill:none;}.cls-2{clip-path:url(#clippath);}.cls-3{fill:#3a3b3a;}</style><clipPath id="clippath"><rect class="cls-1" x="4.66" y="5.34" width="411.86" height="400.57"/></clipPath></defs><g class="cls-2"><g><path class="cls-3" d="M146.23,147.48l-6.43-6.46,6.43,6.46Z"/><path class="cls-3" d="M171.97,173.32l-8.58-8.61,8.58,8.61Z"/><path class="cls-3" d="M274.94,147.48l.63-.64-.63,.64Z"/><path class="cls-3" d="M249.2,173.32l2.26-2.27-2.26,2.27Z"/><path class="cls-3" d="M197.71,225.01l6.01-6.03-6.01,6.03Z"/><path class="cls-3" d="M133.36,289.61l-1.51,1.52,1.51-1.52Z"/><path class="cls-3" d="M289.32,291.13l-1.51-1.52,1.51,1.52Z"/><path class="cls-3" d="M300.68,121.63l12.87-12.92L210.58,5.34,107.62,108.71l12.87,12.92L210.58,31.18l90.09,90.45Z"/><path class="cls-3" d="M210.58,82.87l64.35,64.61,.63-.63,12.24-12.29L210.58,57.02l-77.22,77.53,6.44,6.46,6.43,6.46,64.35-64.61Z"/><path class="cls-3" d="M210.58,108.71l-51.48,51.69,4.29,4.31,8.58,8.61,38.61-38.76,38.61,38.76,2.26-2.27,10.61-10.66-51.48-51.69Z"/><path class="cls-3" d="M210.58,160.4l-25.74,25.84,12.87,12.92,12.87-12.92,12.87,12.92,5.85-5.87,7.02-7.05-25.74-25.84Z"/><path class="cls-3" d="M171.97,173.32l-8.58-8.61-17.16-17.23-6.43-6.46-19.31-19.38-12.87-12.92L4.66,212.08l12.87,12.92,90.09-90.45,90.09,90.45,6.01-6.03,6.86-6.89-25.74-25.84-12.87-12.92Z"/><path class="cls-3" d="M171.97,250.85l12.87-12.92-77.22-77.53L30.4,237.93l12.87,12.92,64.35-64.61,64.35,64.61Z"/><path class="cls-3" d="M146.23,276.69l12.87-12.92-51.48-51.69-51.48,51.69,12.87,12.92,38.61-38.77,38.61,38.77Z"/><path class="cls-3" d="M107.62,263.77l-25.74,25.84,12.87,12.92,12.87-12.92,12.87,12.92,11.36-11.4,1.51-1.52-25.74-25.84Z"/><path class="cls-3" d="M275.57,146.84l-.63,.64-23.48,23.58-2.26,2.27-19.89,19.97-5.85,5.87-12.87,12.92,12.87,12.92,90.09-90.45,90.09,90.45,12.87-12.92-102.96-103.37-37.98,38.13Z"/><path class="cls-3" d="M236.33,237.93l12.87,12.92,64.35-64.61,64.35,64.61,12.87-12.92-77.22-77.53-77.22,77.53Z"/><path class="cls-3" d="M262.07,263.77l12.87,12.92,38.61-38.77,38.61,38.77,12.87-12.92-51.48-51.69-51.48,51.69Z"/><path class="cls-3" d="M300.68,302.54l12.87-12.92,12.87,12.92,12.87-12.92-25.74-25.84-25.74,25.84,1.51,1.52,11.36,11.4Z"/><path class="cls-3" d="M197.71,225.01l-64.35,64.61-1.51,1.52-24.23,24.32,12.87,12.92,90.09-90.45,90.09,90.45,12.87-12.92-24.23-24.32-1.51-1.52-77.22-77.53-6.86,6.89-6.01,6.03Z"/><path class="cls-3" d="M133.36,341.3l12.87,12.92,64.35-64.61,64.35,64.61,12.87-12.92-77.22-77.53-77.22,77.53Z"/><path class="cls-3" d="M159.1,367.14l12.87,12.92,38.61-38.77,38.61,38.77,12.87-12.92-51.48-51.69-51.48,51.69Z"/><path class="cls-3" d="M184.84,392.99l12.87,12.92,12.87-12.92,12.87,12.92,12.87-12.92-25.74-25.84-25.74,25.84Z"/></g></g></svg>